<svg width="14" height="16" viewBox="0 0 14 16" fill="none" xmlns="http://www.w3.org/2000/svg">
<path d="M5.992 0C5.46361 0.00420632 4.95817 0.216523 4.58527 0.590914C4.21238 0.965306 4.00209 1.47159 4 2H3C2.343 2 1.822 2.06 1.383 2.225C0.944 2.389 0.593 2.686 0.385 3.063C-0.03 3.815 0.015 4.736 0 5.994V11.006C0.015 12.264 -0.03 13.185 0.385 13.938C0.593 14.314 0.945 14.611 1.383 14.776C1.822 14.94 2.343 15 3 15H6.762C6.55511 14.6886 6.38782 14.3527 6.264 14H3C2.408 14 1.995 13.937 1.735 13.84C1.475 13.742 1.363 13.637 1.262 13.453C1.06 13.087 1.015 12.259 1 11V6C1.015 4.741 1.06 3.913 1.262 3.547C1.363 3.363 1.475 3.257 1.735 3.16C1.995 3.062 2.408 3 3 3V3.999H9V3C9.593 3 10.006 3.063 10.266 3.16C10.526 3.258 10.637 3.363 10.739 3.547C10.94 3.913 10.986 4.741 11 6V8.031C11.3411 8.07026 11.6766 8.14843 12 8.264V5.994C11.985 4.736 12.031 3.815 11.615 3.062C11.3927 2.67299 11.0388 2.37616 10.617 2.225C10.179 2.06 9.657 2 9 2H7.996C7.99391 1.47159 7.78362 0.965306 7.41073 0.590914C7.03783 0.216523 6.53239 0.00420632 6.004 0L5.992 0ZM6.002 1C6.561 1 7.002 1.442 7.002 2C7.00334 2.13169 6.97838 2.26233 6.9286 2.38426C6.87882 2.50619 6.80521 2.61696 6.71209 2.71009C6.61896 2.80321 6.50819 2.87682 6.38626 2.9266C6.26433 2.97638 6.13369 3.00134 6.002 3C5.80484 3.00264 5.61145 2.94587 5.44701 2.83707C5.28256 2.72827 5.15468 2.57249 5.08 2.39C5.02875 2.26638 5.00258 2.13382 5.003 2C5.003 1.442 5.444 1 6.003 1H6.002ZM3 6V7H9.012V6H3ZM3 8V9H7.674C8.07452 8.67881 8.52705 8.42854 9.012 8.26V8H3ZM2.99 10V11H5.99V10H2.99Z" fill="white"/>
<circle cx="10.5" cy="12.5" r="3" fill="#1C64F2" stroke="#1C64F2"/>
</svg>
