<svg width="24" height="25" viewBox="0 0 24 25" fill="none" xmlns="http://www.w3.org/2000/svg">
<path fill-rule="evenodd" clip-rule="evenodd" d="M9.06166 4.44191C9.06166 4.05762 8.75808 3.74609 8.38358 3.74609C8.00909 3.74609 7.70551 4.05762 7.70551 4.44191V5.17511C5.77233 6.13342 4.32745 7.94528 3.82461 10.145C3.3918 12.0384 3.3918 14.0089 3.82461 15.9023C4.44963 18.6366 6.53017 20.7716 9.19476 21.413C11.0399 21.8571 12.9601 21.8571 14.8052 21.413C17.4698 20.7716 19.5504 18.6366 20.1754 15.9023C20.6082 14.0089 20.6082 12.0384 20.1754 10.1451C19.6726 7.94528 18.2277 6.13342 16.2945 5.1751V4.44191C16.2945 4.05762 15.9909 3.74609 15.6164 3.74609C15.2419 3.74609 14.9383 4.05762 14.9383 4.44191V4.66779C14.8941 4.65624 14.8498 4.6451 14.8052 4.63438C12.9601 4.19025 11.0399 4.19025 9.19476 4.63438C9.15023 4.6451 9.10586 4.65624 9.06166 4.66779V4.44191ZM8.7452 13.0237C8.7452 12.7163 8.98807 12.467 9.28766 12.467H14.7123C15.0119 12.467 15.2547 12.7163 15.2547 13.0237C15.2547 13.3311 15.0119 13.5803 14.7123 13.5803H9.28766C8.98807 13.5803 8.7452 13.3311 8.7452 13.0237ZM8.7452 15.807C8.7452 15.4995 8.98807 15.2503 9.28766 15.2503H12C12.2996 15.2503 12.5424 15.4995 12.5424 15.807C12.5424 16.1144 12.2996 16.3636 12 16.3636H9.28766C8.98807 16.3636 8.7452 16.1144 8.7452 15.807Z" fill="url(#paint0_linear_3_3983)"/>
<defs>
<linearGradient id="paint0_linear_3_3983" x1="3.5" y1="18.4161" x2="20.95" y2="9.18697" gradientUnits="userSpaceOnUse">
<stop stop-color="#4D4BFE"/>
<stop offset="1" stop-color="#992DF2"/>
</linearGradient>
</defs>
</svg>
