<?xml version="1.0" encoding="utf-8"?>
<!-- This file is generated by pnpm icogen -->
<svg xmlns="http://www.w3.org/2000/svg">
<defs>
<!-- add -->
<symbol id="add" fill="none" viewBox="0 0 25 24"><path stroke="currentcolor" d="M12.5 6v12M18.5 12h-12"/></symbol>
<!-- bell-fill -->
<symbol id="bell-fill" fill="none" viewBox="0 0 32 32"><path fill="currentcolor" d="M8.67 9.3a7.37 7.37 0 0 1 14.66 0l.38 3.82c.1.9.14 1.34.23 1.77a8 8 0 0 0 .72 2c.2.4.45.77.94 1.52l1.66 2.48c.91 1.37 1.37 2.05 1.09 2.58s-1.1.53-2.75.53H6.4c-1.64 0-2.46 0-2.75-.53-.28-.53.18-1.21 1.09-2.58l1.66-2.48c.5-.75.74-1.12.94-1.51a8 8 0 0 0 .72-2.01c.1-.43.14-.88.23-1.77z"/><path stroke="currentcolor" d="M13.42 27.5q.26.22.96.36a9 9 0 0 0 3.24 0q.71-.14.96-.35"/></symbol>
<!-- chat-fill -->
<symbol id="chat-fill" fill="none" viewBox="0 0 32 32"><path fill="currentcolor" fill-rule="evenodd" d="M26.67 14.67c0-3.75 0-5.62-.9-6.97a5 5 0 0 0-1.47-1.47c-1.35-.9-3.22-.9-6.97-.9h-2.66c-3.75 0-5.62 0-6.97.9q-.88.6-1.47 1.47c-.9 1.35-.9 3.22-.9 6.97s0 5.61.9 6.96q.6.88 1.47 1.47c1.18.79 2.76.89 5.63.9l1.48 2.95c.49.98 1.9.98 2.38 0L18.67 24c2.87-.01 4.45-.11 5.63-.9a5 5 0 0 0 1.47-1.47c.9-1.35.9-3.22.9-6.96M12 11a1 1 0 1 0 0 2h8a1 1 0 1 0 0-2zm0 5.33a1 1 0 1 0 0 2h4a1 1 0 1 0 0-2z" clip-rule="evenodd"/></symbol>
<!-- create-fill -->
<symbol id="create-fill" fill="none" viewBox="0 0 32 32"><path fill="currentcolor" d="M12.67 10.67 22 7.33 18 14l-1.33 6.67-2 2.66L7.33 22 8 19.33z"/><path stroke="currentcolor" d="m8 28-.25-4.03A16.3 16.3 0 0 1 24 6.67l-1.62 1.3c-.53.42-.8.63-1.04.84a12 12 0 0 0-3.99 8.31c-.02.33-.02.66-.02 1.34 0 .54 0 .8-.02 1.02a4 4 0 0 1-4.4 3.55c-.2-.02-.47-.08-1-.2L8 22"/></symbol>
<!-- discovery -->
<symbol id="discovery" fill="none" viewBox="0 0 24 24"><path stroke="currentcolor" d="M3.35 8.95a7.5 7.5 0 0 1 5.6-5.6c2-.47 4.1-.47 6.1 0a7.5 7.5 0 0 1 5.6 5.6c.47 2 .47 4.1 0 6.1a7.5 7.5 0 0 1-5.6 5.6c-2 .47-4.1.47-6.1 0a7.5 7.5 0 0 1-5.6-5.6c-.47-2-.47-4.1 0-6.1Z"/><path stroke="currentcolor" d="M10.18 11.3a2 2 0 0 1 1.12-1.12l2.03-.81a1 1 0 0 1 1.3 1.3l-.81 2.03a2 2 0 0 1-1.12 1.12l-2.03.81a1 1 0 0 1-1.3-1.3z"/></symbol>
<!-- done -->
<symbol id="done" fill="none" viewBox="0 0 24 25"><path stroke="currentcolor" d="m5 14.87 4 3 9-11"/></symbol>
<!-- edit -->
<symbol id="edit" fill="none" viewBox="0 0 24 24"><path stroke="currentcolor" d="M20.44 6.89c-1.66.55-3.88-1.67-3.33-3.33m-.13.13-3.6 3.6a12 12 0 0 0-3.2 5.65l-.17.7a.3.3 0 0 0 .36.35l.7-.17c2.13-.54 4.09-1.65 5.65-3.2l3.59-3.6a2.36 2.36 0 1 0-3.33-3.33Z"/><path stroke="currentcolor" d="M12 3q-1.54 0-3.05.35a7.5 7.5 0 0 0-5.6 5.6c-.47 2-.47 4.1 0 6.1a7.5 7.5 0 0 0 5.6 5.6c2 .47 4.1.47 6.1 0a7.5 7.5 0 0 0 5.6-5.6Q21 13.54 21 12"/></symbol>
<!-- expand -->
<symbol id="expand" fill="none" viewBox="0 0 25 24"><path stroke="currentcolor" d="m18.29 15-6-6-6 6"/></symbol>
<!-- home -->
<symbol id="home" fill="none" viewBox="0 0 24 24"><path fill="currentcolor" d="m9.72 18.32-.74-.14zm.02-.1.73.14zm4.52 0-.73.14zm.02.1.74-.14zM14 20.55l.68.32zm-.8-.08a.75.75 0 1 0 1.36.65zm-3.18.08-.68.32zm-.56.57a.75.75 0 0 0 1.35-.65zm1.91-4.68-.2-.72zm1.28 0 .2-.72zm-2.18 2.02.01-.1L9 18.08l-.02.1zm3.07-.1.01.1 1.48-.28-.02-.1zm-.22 1.87-.11.24 1.35.65.12-.25zm-3.98.64.12.25 1.35-.65-.11-.24zm4.21-2.41c.12.6.04 1.22-.23 1.77l1.36.64c.4-.83.52-1.78.35-2.69zm-4.56-.28c-.17.91-.05 1.86.35 2.7l1.36-.65a3 3 0 0 1-.23-1.77zm2.58-1.01q.45-.12.88 0l.4-1.45a3 3 0 0 0-1.68 0zm3.44.9a3 3 0 0 0-2.16-2.35l-.4 1.45c.55.15.98.6 1.09 1.19zm-4.53.29c.11-.58.54-1.04 1.1-1.2l-.4-1.44A3 3 0 0 0 9 18.08z"/><path fill="currentcolor" d="M20.04 9.72a.75.75 0 0 0-1.5 0zm-14.58 0a.75.75 0 1 0-1.5 0zm9.05 10.99-.17-.73zm-5.02 0 .17-.73zM14.83 5l-.53.53zm5.64 6.75a.75.75 0 1 0 1.06-1.06zM9.17 5l.53.53zm-6.7 5.7a.75.75 0 1 0 1.06 1.05zm16.07-1v4.93h1.5V9.72zM5.46 14.65V9.72h-1.5v4.92zm8.88 5.34c-1.54.36-3.14.36-4.68 0l-.35 1.46c1.77.41 3.6.41 5.38 0zm-4.68 0a5.5 5.5 0 0 1-4.2-5.34h-1.5a7 7 0 0 0 5.35 6.8zm5.03 1.46a7 7 0 0 0 5.35-6.8h-1.5a5.5 5.5 0 0 1-4.2 5.34zm-.4-15.9 6.18 6.22 1.06-1.06-6.17-6.21zM8.65 4.5 2.47 10.7l1.06 1.06L9.7 5.54zm6.72 0q-.97-1-1.68-1.58A2.7 2.7 0 0 0 12 2.25v1.5c.18 0 .4.06.77.35.39.3.84.76 1.53 1.44zM9.7 5.54c.69-.68 1.14-1.14 1.53-1.44.37-.29.59-.35.77-.35v-1.5c-.65 0-1.18.27-1.68.66q-.72.57-1.68 1.58z"/></symbol>
<!-- menu -->
<symbol id="menu" fill="none" stroke="currentColor" class="lucide lucide-menu" viewBox="0 0 24 24"><path d="M4 12h16M4 6h16M4 18h16"/></symbol>
<!-- message -->
<symbol id="message" fill="none" viewBox="0 0 24 24"><path stroke="currentcolor" d="M8.7 9.06h6.03M8.7 12.5h3.83m.58 6.42h1.06c2.89 0 5.4-2.08 6.08-5.03.33-1.46.33-2.99 0-4.45l-.1-.39a7.5 7.5 0 0 0-5.49-5.7l-.38-.09a10 10 0 0 0-4.59 0l-.22.05a7.8 7.8 0 0 0-5.7 5.9 11 11 0 0 0 0 4.92 9.5 9.5 0 0 0 5.43 6.63l.12.05c1.17.5 2.51-.1 3-1.33a.9.9 0 0 1 .8-.56Z"/></symbol>
<!-- search -->
<symbol id="search" fill="none" viewBox="0 0 24 24"><circle cx="11" cy="11" r="7" stroke="currentcolor"/><path stroke="currentcolor" d="m20 20-3-3"/></symbol>
<!-- share -->
<symbol id="share" fill="none" viewBox="0 0 24 24"><path stroke="currentcolor" d="M3 18.43c0-2 1.45-3.7 3.43-4.02l.18-.03c1.58-.25 3.2-.25 4.78 0l.18.03A4.1 4.1 0 0 1 15 18.43c0 .87-.7 1.57-1.57 1.57H4.57C3.7 20 3 19.3 3 18.43ZM12.5 7.5a3.5 3.5 0 1 1-7 0 3.5 3.5 0 0 1 7 0Z"/><path stroke="currentcolor" d="M15 11a3.5 3.5 0 1 0 0-7m2.39 16h2.04c.87 0 1.57-.7 1.57-1.57 0-2-1.45-3.7-3.43-4.02v0l-.36-.03h-.97"/></symbol>
<!-- video -->
<symbol id="video" fill="none" viewBox="0 0 24 24"><path stroke="currentcolor" d="M2.94 8.28a4.5 4.5 0 0 1 3.33-3.37c2.26-.55 4.66-.55 6.92 0a4.6 4.6 0 0 1 3.36 3.31l.02.1c.62 2.42.62 4.94 0 7.36l-.02.1a4.6 4.6 0 0 1-3.36 3.3c-2.26.56-4.66.56-6.92 0a4.5 4.5 0 0 1-3.33-3.36l-.06-.28a16 16 0 0 1 0-6.88z"/><path stroke="currentcolor" d="m16.66 15.3.2.07.15.07 1.68.83c1.3.64 2.81-.29 2.81-1.72V9.8a1.94 1.94 0 0 0-2.97-1.63l-1.48.92q-.11.06-.2.16l-.06.05c.36 1.99.32 4.03-.13 6Z"/></symbol>
</defs>
</svg>
