<svg width="24" height="24" viewBox="0 0 24 24" fill="none" xmlns="http://www.w3.org/2000/svg">
<circle cx="8" cy="8" r="2.5" stroke="white" stroke-linecap="round"/>
<path d="M11.7679 8.5C12.0332 8.04063 12.47 7.70543 12.9824 7.56815C13.4947 7.43086 14.0406 7.50273 14.5 7.76795C14.9594 8.03317 15.2946 8.47 15.4319 8.98236C15.5691 9.49472 15.4973 10.0406 15.2321 10.5C14.9668 10.9594 14.53 11.2946 14.0176 11.4319C13.5053 11.5691 12.9594 11.4973 12.5 11.2321C12.0406 10.9668 11.7054 10.53 11.5681 10.0176C11.4309 9.50528 11.5027 8.95937 11.7679 8.5L11.7679 8.5Z" stroke="white"/>
<path d="M13.4053 17.507L13.8991 17.4282L13.4053 17.507ZM12.4999 18H3.4999V19H12.4999V18ZM3.08827 17.5857C3.21809 16.7717 3.53026 15.6148 4.26384 14.671C4.97922 13.7507 6.11859 13 7.9999 13V12C5.80097 12 4.37359 12.9004 3.4743 14.0573C2.59321 15.1909 2.24281 16.5374 2.10075 17.4282L3.08827 17.5857ZM7.9999 13C9.88121 13 11.0206 13.7507 11.736 14.671C12.4695 15.6148 12.7817 16.7717 12.9115 17.5857L13.8991 17.4282C13.757 16.5374 13.4066 15.1909 12.5255 14.0573C11.6262 12.9004 10.1988 12 7.9999 12V13ZM3.4999 18C3.20815 18 3.05685 17.7827 3.08827 17.5857L2.10075 17.4282C1.9582 18.322 2.68708 19 3.4999 19V18ZM12.4999 19C13.3127 19 14.0416 18.322 13.8991 17.4282L12.9115 17.5857C12.943 17.7827 12.7917 18 12.4999 18V19Z" fill="white"/>
<path d="M17.2965 17.4162L16.8115 17.5377L17.2965 17.4162ZM11.8003 13.9808L11.5324 13.5586L11.0172 13.8855L11.439 14.3264L11.8003 13.9808ZM13.4053 17.507L13.8991 17.4282L13.4053 17.507ZM16.395 18H12.4999V19H16.395V18ZM16.8115 17.5377C16.8653 17.7526 16.7075 18 16.395 18V19C17.2657 19 18.0152 18.2277 17.7816 17.2948L16.8115 17.5377ZM13.5 14C14.5277 14 15.2495 14.5027 15.7783 15.2069C16.3177 15.9253 16.6344 16.8306 16.8115 17.5377L17.7816 17.2948C17.5904 16.5315 17.2328 15.4787 16.578 14.6065C15.9126 13.7203 14.9202 13 13.5 13V14ZM12.0682 14.4029C12.458 14.1556 12.9261 14 13.5 14V13C12.732 13 12.0787 13.2119 11.5324 13.5586L12.0682 14.4029ZM11.439 14.3264C12.3863 15.3166 12.7647 16.6646 12.9116 17.5857L13.8991 17.4282C13.7397 16.4285 13.3157 14.8416 12.1616 13.6351L11.439 14.3264ZM12.9116 17.5857C12.943 17.7827 12.7917 18 12.4999 18V19C13.3128 19 14.0416 18.322 13.8991 17.4282L12.9116 17.5857Z" fill="white"/>
<rect x="16.25" y="5.25" width="4.5" height="0.5" rx="0.25" stroke="white" stroke-width="0.5" stroke-linecap="round"/>
<rect x="18.75" y="3.25" width="4.5" height="0.5" rx="0.25" transform="rotate(90 18.75 3.25)" stroke="white" stroke-width="0.5" stroke-linecap="round"/>
</svg>
