<svg width="24" height="25" viewBox="0 0 24 25" fill="none" xmlns="http://www.w3.org/2000/svg">
<path d="M7 22.0537V11.0537V22.0537ZM2 13.0537V20.0537C2 21.1583 2.89543 22.0537 4 22.0537H17.4262C18.907 22.0537 20.1662 20.9734 20.3914 19.5099L21.4683 12.5099C21.7479 10.6926 20.3418 9.05371 18.5032 9.05371H15C14.4477 9.05371 14 8.60599 14 8.05371V4.51955C14 3.1577 12.896 2.05371 11.5342 2.05371C11.2093 2.05371 10.915 2.24501 10.7831 2.54183L7.26394 10.4598C7.10344 10.821 6.74532 11.0537 6.35013 11.0537H4C2.89543 11.0537 2 11.9491 2 13.0537Z" fill="url(#paint0_linear_1407_19955)"/>
<path d="M7 22.0537V11.0537M2 13.0537V20.0537C2 21.1583 2.89543 22.0537 4 22.0537H17.4262C18.907 22.0537 20.1662 20.9734 20.3914 19.5099L21.4683 12.5099C21.7479 10.6926 20.3418 9.05371 18.5032 9.05371H15C14.4477 9.05371 14 8.60599 14 8.05371V4.51955C14 3.1577 12.896 2.05371 11.5342 2.05371C11.2093 2.05371 10.915 2.24501 10.7831 2.54183L7.26394 10.4598C7.10344 10.821 6.74532 11.0537 6.35013 11.0537H4C2.89543 11.0537 2 11.9491 2 13.0537Z" stroke="white" stroke-width="2" stroke-linecap="round" stroke-linejoin="round"/>
<defs>
<linearGradient id="paint0_linear_1407_19955" x1="2" y1="18.3537" x2="21.7347" y2="7.57645" gradientUnits="userSpaceOnUse">
<stop stop-color="#DA4DAA"/>
<stop offset="1" stop-color="#992DF2"/>
</linearGradient>
</defs>
</svg>
