<svg width="13" height="14" viewBox="0 0 13 14" fill="none" xmlns="http://www.w3.org/2000/svg">
<path fill-rule="evenodd" clip-rule="evenodd" d="M9.15483 7.8225L6.85711 10.2987C6.75961 10.4037 6.62634 10.4344 6.5 10.4081C6.37366 10.4344 6.24039 10.4037 6.14289 10.2987L3.84517 7.8225C3.68632 7.65188 3.68632 7.37407 3.84517 7.20345C4.0036 7.03239 4.26076 7.03239 4.41961 7.20345L6.09375 9.00814V4.375C6.09375 4.13306 6.27575 3.9375 6.5 3.9375C6.72466 3.9375 6.90625 4.13306 6.90625 4.375V9.00814L8.58039 7.20345C8.73924 7.03239 8.9968 7.03239 9.15483 7.20345C9.31368 7.37407 9.31368 7.65188 9.15483 7.8225ZM11.375 0H1.625C0.727594 0 0 0.783562 0 1.75V12.25C0 13.2169 0.727594 14 1.625 14H11.375C12.2724 14 13 13.2169 13 12.25V1.75C13 0.783562 12.2724 0 11.375 0Z" fill="white"/>
</svg>
