<svg width="148" height="162" viewBox="0 0 148 162" fill="none" xmlns="http://www.w3.org/2000/svg">
<path d="M140.611 58.834C140.611 58.834 117.554 75.4317 138.159 117.744C156.46 155.322 106.124 165.973 85.4732 159.818C58.7217 151.846 46.4006 115.866 24.4914 124.769C2.58224 133.672 -13.2869 82.1876 18.8064 66.9133C58.7296 47.9129 35.788 32.4063 40.7838 16.126C44.3694 4.44137 80.7646 -10.6396 97.3929 12.1892C111.386 31.3988 119.699 25.8152 127.106 24.1481C137.787 21.7438 158.67 41.647 140.611 58.834Z" fill="#F1E5FF"/>
<path d="M140.887 73.6552L140.729 74.6383C140.597 75.4573 140.146 76.1905 139.474 76.6766C138.802 77.1626 137.964 77.3618 137.145 77.2302L137.073 77.2187C136.383 77.1078 135.676 77.2312 135.064 77.5691C134.453 77.907 133.972 78.4399 133.698 79.083L111.518 131.248C110.878 132.756 109.752 134.006 108.319 134.798C106.885 135.591 105.228 135.881 103.611 135.621L41.7532 125.682C40.1 125.421 38.5868 124.599 37.4667 123.355C36.3465 122.111 35.6875 120.521 35.5997 118.849L32.528 62.9161C32.4888 62.2031 32.2069 61.525 31.729 60.9944C31.2511 60.4638 30.6061 60.1127 29.9011 59.9995C29.4955 59.9343 29.1068 59.7899 28.757 59.5745C28.4073 59.3591 28.1034 59.0769 27.8627 58.7441C27.6221 58.4112 27.4493 58.0343 27.3543 57.6346C27.2593 57.235 27.244 56.8206 27.3092 56.4151L27.4671 55.4321C27.5322 55.0265 27.6766 54.6378 27.892 54.288C28.1074 53.9383 28.3896 53.6344 28.7224 53.3937C29.0552 53.153 29.4322 52.9803 29.8318 52.8853C30.2314 52.7903 30.6458 52.7749 31.0514 52.84L57.2546 57.0501C57.657 57.1148 58.0696 57.0617 58.4426 56.8974C58.8156 56.7331 59.1331 56.4644 59.357 56.1238L77.658 28.2765C77.9002 27.9061 78.2443 27.6137 78.649 27.4346C79.0537 27.2554 79.5015 27.1972 79.9385 27.2669C80.2558 27.316 80.5588 27.4333 80.8264 27.6106C81.0792 27.7759 81.2968 27.9895 81.467 28.239C81.6371 28.4885 81.7564 28.7691 81.8181 29.0648C81.8797 29.3604 81.8825 29.6653 81.8262 29.9621C81.7699 30.2588 81.6557 30.5415 81.4901 30.794L65.3592 55.3333C65.1653 55.6282 65.0483 55.967 65.019 56.3188C64.9896 56.6705 65.0488 57.024 65.191 57.347C65.3333 57.67 65.5542 57.9523 65.8336 58.168C66.1129 58.3838 66.4418 58.5262 66.7903 58.5822L101.665 64.185C102.013 64.241 102.37 64.2089 102.703 64.0915C103.036 63.974 103.335 63.7751 103.571 63.5128C103.807 63.2505 103.974 62.9332 104.056 62.5898C104.139 62.2465 104.133 61.888 104.042 61.5471L96.3964 33.1891C96.2421 32.6001 96.3265 31.9739 96.6312 31.4468C96.9359 30.9196 97.4364 30.534 98.0239 30.3737C98.3336 30.2891 98.658 30.2727 98.9748 30.3255C99.4116 30.3962 99.8187 30.5918 100.147 30.8886C100.475 31.1855 100.71 31.571 100.824 31.9986L109.481 64.1772C109.587 64.5708 109.804 64.9254 110.107 65.1983C110.41 65.4712 110.785 65.6508 111.187 65.7155L138.295 70.0708C138.7 70.1359 139.089 70.2803 139.439 70.4957C139.789 70.7111 140.093 70.9933 140.333 71.3261C140.574 71.6589 140.747 72.0359 140.842 72.4356C140.937 72.8352 140.952 73.2496 140.887 73.6552V73.6552Z" fill="#8837E9"/>
<path d="M58.7808 65.9926L51.9498 64.895C51.8945 64.8861 51.8424 64.9238 51.8335 64.9791L43.6922 115.648C43.6833 115.703 43.721 115.756 43.7763 115.764L50.6073 116.862C50.6627 116.871 50.7147 116.833 50.7236 116.778L58.8649 66.1089C58.8738 66.0535 58.8361 66.0015 58.7808 65.9926Z" fill="#F1E5FF"/>
<path d="M115.328 74.9164L108.497 73.8188C108.441 73.8099 108.389 73.8476 108.38 73.9029L100.239 124.572C100.23 124.627 100.268 124.679 100.323 124.688L107.154 125.786C107.21 125.795 107.262 125.757 107.27 125.702L115.412 75.0327C115.421 74.9774 115.383 74.9253 115.328 74.9164Z" fill="#F1E5FF"/>
<path d="M72.8468 68.2685L66.0181 67.1685C65.9628 67.1596 65.9107 67.1972 65.9018 67.2525L57.7421 117.904C57.7332 117.96 57.7708 118.012 57.8262 118.021L64.6548 119.121C64.7101 119.129 64.7622 119.092 64.7711 119.037L72.9308 68.3848C72.9397 68.3295 72.9021 68.2774 72.8468 68.2685Z" fill="#F1E5FF"/>
<path d="M87.0659 70.3754L80.235 69.2778C80.1796 69.2689 80.1276 69.3066 80.1187 69.3619L71.9774 120.031C71.9685 120.086 72.0062 120.138 72.0615 120.147L78.8925 121.245C78.9478 121.254 78.9999 121.216 79.0088 121.161L87.15 70.4917C87.1589 70.4364 87.1212 70.3843 87.0659 70.3754Z" fill="#F1E5FF"/>
<path d="M101.197 72.6469L94.3658 71.5493C94.3105 71.5404 94.2584 71.5781 94.2495 71.6334L86.1083 122.302C86.0994 122.358 86.137 122.41 86.1924 122.419L93.0233 123.516C93.0787 123.525 93.1307 123.487 93.1396 123.432L101.281 72.7632C101.29 72.7078 101.252 72.6558 101.197 72.6469Z" fill="#F1E5FF"/>
</svg>
