<svg width="25" height="24" viewBox="0 0 25 24" fill="none" xmlns="http://www.w3.org/2000/svg">
<path d="M9.5 6C9.5 6.39397 9.5776 6.78407 9.72836 7.14805C9.87913 7.51203 10.1001 7.84274 10.3787 8.12132C10.6573 8.3999 10.988 8.62087 11.352 8.77164C11.7159 8.9224 12.106 9 12.5 9C12.894 9 13.2841 8.9224 13.6481 8.77164C14.012 8.62087 14.3427 8.3999 14.6213 8.12132C14.8999 7.84274 15.1209 7.51203 15.2716 7.14805C15.4224 6.78407 15.5 6.39396 15.5 6C15.5 5.60603 15.4224 5.21593 15.2716 4.85195C15.1209 4.48797 14.8999 4.15725 14.6213 3.87868C14.3427 3.6001 14.012 3.37912 13.648 3.22836C13.2841 3.0776 12.894 3 12.5 3C12.106 3 11.7159 3.0776 11.3519 3.22836C10.988 3.37913 10.6573 3.6001 10.3787 3.87868C10.1001 4.15726 9.87912 4.48797 9.72836 4.85195C9.5776 5.21593 9.5 5.60604 9.5 6L9.5 6Z" stroke="#33363F" stroke-width="2"/>
<path d="M4.93708 13.9015C4.5959 14.0985 4.29685 14.3607 4.05702 14.6733C3.81719 14.9858 3.64127 15.3426 3.5393 15.7231C3.43734 16.1037 3.41132 16.5006 3.46275 16.8912C3.51417 17.2818 3.64202 17.6584 3.839 17.9996C4.03599 18.3408 4.29824 18.6398 4.6108 18.8796C4.92335 19.1195 5.28008 19.2954 5.66062 19.3974C6.04117 19.4993 6.43806 19.5253 6.82866 19.4739C7.21925 19.4225 7.5959 19.2946 7.93708 19.0977C8.27827 18.9007 8.57731 18.6384 8.81714 18.3259C9.05697 18.0133 9.23289 17.6566 9.33486 17.276C9.43682 16.8955 9.46284 16.4986 9.41141 16.108C9.35999 15.7174 9.23214 15.3408 9.03516 14.9996C8.83817 14.6584 8.57592 14.3594 8.26336 14.1195C7.95081 13.8797 7.59408 13.7038 7.21354 13.6018C6.83299 13.4998 6.4361 13.4738 6.0455 13.5252C5.6549 13.5767 5.27826 13.7045 4.93708 13.9015L4.93708 13.9015Z" stroke="#33363F" stroke-width="2"/>
<path d="M20.0629 13.9015C20.4041 14.0985 20.7031 14.3607 20.943 14.6733C21.1828 14.9859 21.3587 15.3426 21.4607 15.7231C21.5627 16.1037 21.5887 16.5006 21.5373 16.8912C21.4858 17.2818 21.358 17.6584 21.161 17.9996C20.964 18.3408 20.7018 18.6398 20.3892 18.8796C20.0766 19.1195 19.7199 19.2954 19.3394 19.3974C18.9588 19.4993 18.5619 19.5253 18.1713 19.4739C17.7807 19.4225 17.4041 19.2946 17.0629 19.0977C16.7217 18.9007 16.4227 18.6384 16.1829 18.3259C15.943 18.0133 15.7671 17.6566 15.6651 17.276C15.5632 16.8955 15.5372 16.4986 15.5886 16.108C15.64 15.7174 15.7679 15.3408 15.9648 14.9996C16.1618 14.6584 16.4241 14.3594 16.7366 14.1195C17.0492 13.8797 17.4059 13.7038 17.7865 13.6018C18.167 13.4998 18.5639 13.4738 18.9545 13.5252C19.3451 13.5767 19.7217 13.7045 20.0629 13.9015L20.0629 13.9015Z" stroke="#33363F" stroke-width="2"/>
<path fill-rule="evenodd" clip-rule="evenodd" d="M9.56962 6.64319C9.52341 6.43253 9.49993 6.217 9.49993 6.0003C9.49993 5.60634 9.57753 5.21623 9.72829 4.85225C9.80001 4.67912 9.8876 4.51352 9.98973 4.35747C9.67327 4.44938 9.36149 4.55879 9.05584 4.68539C7.96391 5.13768 6.97176 5.80062 6.13603 6.63634C5.30031 7.47207 4.63737 8.46422 4.18508 9.55616C3.73279 10.6481 3.5 11.8184 3.5 13.0003C3.5 13.7255 3.58765 14.4464 3.75988 15.1475C3.84396 14.981 3.94359 14.8223 4.05768 14.6736C4.29752 14.361 4.59656 14.0988 4.93774 13.9018C5.12541 13.7935 5.32381 13.706 5.52936 13.6407C5.50983 13.4282 5.5 13.2145 5.5 13.0003C5.5 12.0811 5.68106 11.1708 6.03284 10.3215C6.38462 9.47224 6.90024 8.70057 7.55025 8.05056C8.13547 7.46533 8.81932 6.98905 9.56962 6.64319ZM15.4303 6.64313C16.1806 6.989 16.8645 7.4653 17.4497 8.05055C18.0998 8.70056 18.6154 9.47224 18.9672 10.3215C19.3189 11.1708 19.5 12.081 19.5 13.0003C19.5 13.2145 19.4902 13.4282 19.4706 13.6408C19.6761 13.7061 19.8745 13.7935 20.0621 13.9018C20.4033 14.0988 20.7023 14.361 20.9422 14.6736C21.0563 14.8223 21.156 14.9811 21.2401 15.1476C21.4123 14.4465 21.5 13.7256 21.5 13.0003C21.5 11.8184 21.2672 10.6481 20.8149 9.55615C20.3626 8.46422 19.6997 7.47206 18.864 6.63634C18.0282 5.80061 17.0361 5.13768 15.9441 4.68538C15.6385 4.55876 15.3266 4.44935 15.0101 4.35742C15.1122 4.51348 15.1999 4.6791 15.2716 4.85225C15.4223 5.21623 15.4999 5.60633 15.4999 6.0003C15.4999 6.21698 15.4765 6.43249 15.4303 6.64313ZM18.7303 19.4952C18.5439 19.5056 18.3565 19.4987 18.1705 19.4742C17.7799 19.4228 17.4033 19.2949 17.0621 19.098C16.8746 18.9897 16.6998 18.8617 16.5405 18.7164C16.1169 19.0159 15.6603 19.268 15.1788 19.4675C14.3295 19.8192 13.4193 20.0003 12.5 20.0003C11.5807 20.0003 10.6705 19.8192 9.82122 19.4675C9.33965 19.268 8.88304 19.0158 8.45941 18.7164C8.30015 18.8616 8.12531 18.9897 7.93775 19.098C7.59656 19.2949 7.21992 19.4228 6.82932 19.4742C6.6434 19.4987 6.45604 19.5056 6.2697 19.4952C7.0768 20.2694 8.02156 20.8868 9.05585 21.3152C10.1478 21.7675 11.3181 22.0003 12.5 22.0003C13.6819 22.0003 14.8522 21.7675 15.9442 21.3152C16.9784 20.8868 17.9232 20.2694 18.7303 19.4952Z" fill="#33363F"/>
</svg>
