<svg width="161" height="165" viewBox="0 0 161 165" fill="none" xmlns="http://www.w3.org/2000/svg">
<path d="M17.6811 72.0957C17.6811 72.0957 45.79 70.97 51.8644 24.765C57.2586 -16.2695 104.658 2.40789 118.359 18.7652C136.108 39.9548 126.646 76.4053 149.607 81.01C172.567 85.6148 157.573 136.811 122.721 131.911C79.3659 125.815 89.8553 151.15 76.8404 161.873C67.4998 169.568 29.2001 162.16 27.9237 134.223C26.8495 110.715 16.9332 110.789 9.90438 108.124C-0.23273 104.279 -6.62022 76.4368 17.6811 72.0957Z" fill="#F1E5FF"/>
<path d="M113.235 123.41L85.6191 96.1211L80.1507 101.655L107.767 128.944L113.235 123.41Z" fill="#AA75E9"/>
<path d="M123.785 130.741L102.3 109.511C102.18 109.393 101.987 109.394 101.869 109.513L93.7369 117.743C93.6187 117.863 93.6198 118.056 93.7395 118.174L115.225 139.404C115.345 139.523 115.537 139.521 115.656 139.402L123.788 131.172C123.906 131.052 123.905 130.86 123.785 130.741Z" fill="#8837E9"/>
<path d="M61.1431 109.845C80.1421 109.845 95.5439 94.4429 95.5439 75.4439C95.5439 56.4448 80.1421 41.043 61.1431 41.043C42.144 41.043 26.7422 56.4448 26.7422 75.4439C26.7422 94.4429 42.144 109.845 61.1431 109.845Z" fill="#8837E9"/>
<path d="M61.1432 104.232C77.0422 104.232 89.9309 91.343 89.9309 75.444C89.9309 59.545 77.0422 46.6562 61.1432 46.6562C45.2442 46.6562 32.3555 59.545 32.3555 75.444C32.3555 91.343 45.2442 104.232 61.1432 104.232Z" fill="#F1E5FF"/>
<path d="M119.302 44.3458C111.232 41.7302 102.512 46.1539 99.8858 54.2563C97.2703 62.3256 101.694 71.0459 109.796 73.6721C117.899 76.2982 126.597 71.8312 129.213 63.7615C131.829 55.6918 127.371 46.9612 119.302 44.3458ZM116.867 51.8578C117.77 52.1506 118.566 52.705 119.154 53.4507C119.741 54.1965 120.094 55.1 120.168 56.0466C120.241 56.9933 120.032 57.9404 119.566 58.7679C119.101 59.5954 118.4 60.2659 117.553 60.6945C116.705 61.1231 115.75 61.2905 114.807 61.1753C113.865 61.0601 112.978 60.6676 112.259 60.0476C111.54 59.4276 111.021 58.608 110.768 57.6927C110.516 56.7775 110.541 55.8078 110.84 54.9067C111.648 52.4137 114.373 51.0497 116.867 51.8578ZM110.775 70.6542C108.094 69.7896 105.797 68.02 104.277 65.6483C107.121 64.0325 110.094 63.5825 112.784 64.4543C115.474 65.3262 117.661 67.4126 118.973 70.4115C116.351 71.4409 113.453 71.5267 110.775 70.6542Z" fill="#8837E9"/>
<path d="M52.1389 117.877C50.7374 118.592 49.5794 119.707 48.8115 121.081C48.0436 122.454 47.7002 124.025 47.8248 125.593C47.9494 127.162 48.5364 128.658 49.5115 129.894C50.4866 131.129 51.8061 132.047 53.303 132.532C54.8 133.017 56.4072 133.048 57.9214 132.619C59.4357 132.191 60.7889 131.323 61.81 130.126C62.8311 128.929 63.4743 127.456 63.6581 125.893C63.8419 124.33 63.5582 122.748 62.8427 121.346C61.8817 119.468 60.215 118.048 58.2083 117.398C56.2016 116.747 54.0188 116.92 52.1389 117.877ZM53.9921 121.507C54.4287 121.284 54.9216 121.196 55.4083 121.254C55.895 121.311 56.3536 121.512 56.726 121.831C57.0983 122.15 57.3676 122.572 57.4997 123.044C57.6318 123.516 57.6207 124.017 57.4679 124.482C57.3151 124.948 57.0274 125.358 56.6413 125.66C56.2552 125.962 55.7882 126.142 55.2994 126.178C54.8106 126.214 54.3221 126.104 53.8958 125.862C53.4696 125.621 53.1248 125.257 52.9052 124.819C52.6141 124.235 52.565 123.56 52.7685 122.94C52.9719 122.32 53.4116 121.805 53.9921 121.507V121.507ZM58.6289 130.591C57.335 131.254 55.8507 131.447 54.4304 131.136C54.8785 129.508 55.7995 128.259 57.0999 127.595C58.4002 126.931 59.9597 126.895 61.5331 127.51C60.9517 128.843 59.925 129.932 58.6289 130.591V130.591Z" fill="#8837E9"/>
</svg>
