<svg width="24" height="25" viewBox="0 0 24 25" fill="none" xmlns="http://www.w3.org/2000/svg">
<path d="M18.75 13.4961C17.7577 13.4961 16.884 13.9843 16.338 14.7268L12.7733 12.7461L16.338 10.7653C16.884 11.5078 17.757 11.9961 18.75 11.9961C20.4067 11.9961 21.75 10.6528 21.75 8.99609C21.75 7.33934 20.4067 5.99609 18.75 5.99609C17.0933 5.99609 15.75 7.33934 15.75 8.99609C15.75 9.39059 15.831 9.76559 15.969 10.1113L12.375 12.1086V8.20859C13.8525 8.02184 15 6.77459 15 5.24609C15 3.58934 13.6567 2.24609 12 2.24609C10.3433 2.24609 9 3.58934 9 5.24609C9 6.77459 10.1475 8.02184 11.625 8.20859V12.1086L8.03025 10.1113C8.169 9.76559 8.25 9.39059 8.25 8.99609C8.25 7.33934 6.90675 5.99609 5.25 5.99609C3.59325 5.99609 2.25 7.33934 2.25 8.99609C2.25 10.6528 3.59325 11.9961 5.25 11.9961C6.243 11.9961 7.116 11.5078 7.662 10.7653L11.2267 12.7461L7.66125 14.7268C7.116 13.9843 6.243 13.4961 5.25 13.4961C3.59325 13.4961 2.25 14.8393 2.25 16.4961C2.25 18.1528 3.59325 19.4961 5.25 19.4961C6.90675 19.4961 8.25 18.1528 8.25 16.4961C8.25 16.1016 8.169 15.7266 8.03025 15.3808L11.625 13.3836V17.2836C10.1475 17.4703 9 18.7176 9 20.2461C9 21.9028 10.3433 23.2461 12 23.2461C13.6567 23.2461 15 21.9028 15 20.2461C15 18.7176 13.8525 17.4703 12.375 17.2836V13.3836L15.9697 15.3808C15.831 15.7258 15.75 16.1008 15.75 16.4961C15.75 18.1528 17.0933 19.4961 18.75 19.4961C20.4067 19.4961 21.75 18.1528 21.75 16.4961C21.75 14.8393 20.4067 13.4961 18.75 13.4961Z" fill="#8837E9"/>
</svg>
