<svg width="18" height="18" viewBox="0 0 18 18" fill="none" xmlns="http://www.w3.org/2000/svg">
<path fill-rule="evenodd" clip-rule="evenodd" d="M5.13358 0C5.50808 0 5.81166 0.311529 5.81166 0.69582V0.921694C5.85586 0.910146 5.90023 0.899009 5.94476 0.888291C7.78988 0.44416 9.71012 0.44416 11.5552 0.88829C11.5998 0.899009 11.6441 0.910144 11.6883 0.921693V0.69582C11.6883 0.311529 11.9919 0 12.3664 0C12.7409 0 13.0445 0.311529 13.0445 0.69582V1.42901C14.9777 2.38732 16.4226 4.19919 16.9254 6.39896C17.3582 8.29235 17.3582 10.2628 16.9254 12.1562C16.3004 14.8905 14.2198 17.0255 11.5552 17.6669C9.71012 18.111 7.78988 18.111 5.94476 17.6669C3.28017 17.0255 1.19963 14.8906 0.574605 12.1562C0.141798 10.2628 0.141798 8.29235 0.574605 6.39896C1.07745 4.19918 2.52233 2.38732 4.45551 1.42901V0.69582C4.45551 0.311529 4.75909 0 5.13358 0ZM7.77743 6.88793C7.98927 6.67055 7.98927 6.31809 7.77743 6.1007C7.56558 5.88331 7.22211 5.88331 7.01027 6.1007L5.58564 7.56261L5.06512 7.02846C4.85327 6.81107 4.5098 6.81107 4.29796 7.02846C4.08611 7.24585 4.08611 7.5983 4.29796 7.81569L5.20206 8.74345C5.41391 8.96084 5.75737 8.96084 5.96922 8.74345L7.77743 6.88793ZM9.65411 7.3293C9.35451 7.3293 9.11164 7.57852 9.11164 7.88596C9.11164 8.19339 9.35451 8.44261 9.65411 8.44261H12.8185C13.1181 8.44261 13.3609 8.19339 13.3609 7.88596C13.3609 7.57852 13.1181 7.3293 12.8185 7.3293H9.65411ZM7.77743 11.5267C7.98927 11.3093 7.98927 10.9569 7.77743 10.7395C7.56558 10.5221 7.22211 10.5221 7.01027 10.7395L5.58564 12.2014L5.06512 11.6673C4.85327 11.4499 4.5098 11.4499 4.29796 11.6673C4.08611 11.8846 4.08611 12.2371 4.29796 12.4545L5.20206 13.3822C5.41391 13.5996 5.75737 13.5996 5.96922 13.3822L7.77743 11.5267ZM9.65411 11.9681C9.35451 11.9681 9.11164 12.2173 9.11164 12.5248C9.11164 12.8322 9.35451 13.0814 9.65411 13.0814H12.8185C13.1181 13.0814 13.3609 12.8322 13.3609 12.5248C13.3609 12.2173 13.1181 11.9681 12.8185 11.9681H9.65411Z" fill="white"/>
</svg>
