<svg width="44" height="44" viewBox="0 0 44 44" fill="none" xmlns="http://www.w3.org/2000/svg">
<g filter="url(#filter0_dd_2984_32667)">
<rect x="6" y="2" width="32" height="32" rx="16" fill="white" shape-rendering="crispEdges"/>
<path d="M19.5 20.5L19.5 17.5" stroke="#F43F5E" stroke-linecap="round"/>
<path d="M24.5 20.5L24.5 17.5" stroke="#F43F5E" stroke-linecap="round"/>
<path d="M13 12.5H31C29.5955 12.5 28.8933 12.5 28.3889 12.8371C28.1705 12.983 27.983 13.1705 27.8371 13.3889C27.5 13.8933 27.5 14.5955 27.5 16V21.5C27.5 23.3856 27.5 24.3284 26.9142 24.9142C26.3284 25.5 25.3856 25.5 23.5 25.5H20.5C18.6144 25.5 17.6716 25.5 17.0858 24.9142C16.5 24.3284 16.5 23.3856 16.5 21.5V16C16.5 14.5955 16.5 13.8933 16.1629 13.3889C16.017 13.1705 15.8295 12.983 15.6111 12.8371C15.1067 12.5 14.4045 12.5 13 12.5Z" stroke="#F43F5E" stroke-linecap="round"/>
<path d="M19.5 9.50024C19.5 9.50024 20 8.5 22 8.5C24 8.5 24.5 9.5 24.5 9.5" stroke="#F43F5E" stroke-linecap="round"/>
</g>
<defs>
<filter id="filter0_dd_2984_32667" x="0" y="0" width="44" height="44" filterUnits="userSpaceOnUse" color-interpolation-filters="sRGB">
<feFlood flood-opacity="0" result="BackgroundImageFix"/>
<feColorMatrix in="SourceAlpha" type="matrix" values="0 0 0 0 0 0 0 0 0 0 0 0 0 0 0 0 0 0 127 0" result="hardAlpha"/>
<feMorphology radius="2" operator="erode" in="SourceAlpha" result="effect1_dropShadow_2984_32667"/>
<feOffset dy="2"/>
<feGaussianBlur stdDeviation="2"/>
<feComposite in2="hardAlpha" operator="out"/>
<feColorMatrix type="matrix" values="0 0 0 0 0 0 0 0 0 0 0 0 0 0 0 0 0 0 0.06 0"/>
<feBlend mode="normal" in2="BackgroundImageFix" result="effect1_dropShadow_2984_32667"/>
<feColorMatrix in="SourceAlpha" type="matrix" values="0 0 0 0 0 0 0 0 0 0 0 0 0 0 0 0 0 0 127 0" result="hardAlpha"/>
<feMorphology radius="2" operator="erode" in="SourceAlpha" result="effect2_dropShadow_2984_32667"/>
<feOffset dy="4"/>
<feGaussianBlur stdDeviation="4"/>
<feComposite in2="hardAlpha" operator="out"/>
<feColorMatrix type="matrix" values="0 0 0 0 0 0 0 0 0 0 0 0 0 0 0 0 0 0 0.1 0"/>
<feBlend mode="normal" in2="effect1_dropShadow_2984_32667" result="effect2_dropShadow_2984_32667"/>
<feBlend mode="normal" in="SourceGraphic" in2="effect2_dropShadow_2984_32667" result="shape"/>
</filter>
</defs>
</svg>
