<svg width="24" height="24" viewBox="0 0 24 24" fill="none" xmlns="http://www.w3.org/2000/svg">
<path fill-rule="evenodd" clip-rule="evenodd" d="M17.2047 10.7962L19.0007 9.00019C19.546 8.45494 19.8186 8.18231 19.9644 7.88822C20.2416 7.32866 20.2416 6.67171 19.9644 6.11215C19.8186 5.81806 19.546 5.54544 19.0007 5.00019C18.4555 4.45494 18.1829 4.18231 17.8888 4.03658C17.3292 3.75929 16.6723 3.75929 16.1127 4.03658C15.8186 4.18231 15.546 4.45494 15.0007 5.00019L13.1821 6.81884C14.146 8.46944 15.5321 9.845 17.2047 10.7962ZM11.7276 8.2733L4.85713 15.1438C4.43207 15.5689 4.21954 15.7814 4.0798 16.0425C3.94007 16.3036 3.88112 16.5983 3.76323 17.1878L3.14784 20.2648C3.08131 20.5974 3.04805 20.7637 3.14266 20.8583C3.23727 20.9529 3.40357 20.9196 3.73618 20.8531L6.81316 20.2377C7.40262 20.1198 7.69734 20.0609 7.95844 19.9211C8.21954 19.7814 8.43207 19.5689 8.85713 19.1438L15.7465 12.2544C14.1249 11.2388 12.7532 9.87646 11.7276 8.2733Z" fill="white"/>
</svg>
