<svg width="38" height="32" viewBox="0 0 38 32" fill="none" xmlns="http://www.w3.org/2000/svg">
<path d="M20.9502 1.92C20.9502 0.859613 20.1269 0 19.1115 0C18.096 0 17.2727 0.859613 17.2727 1.92V3.34722C17.2727 4.4076 18.096 5.26722 19.1115 5.26722C20.1269 5.26722 20.9502 4.4076 20.9502 3.34722V1.92Z" fill="white"/>
<path d="M10.0105 5.89136C9.29241 5.14156 8.1282 5.14156 7.41014 5.89136C6.69208 6.64117 6.69208 7.85685 7.41014 8.60665L8.37661 9.61585C9.09467 10.3657 10.2589 10.3657 10.9769 9.61585C11.695 8.86604 11.695 7.65037 10.9769 6.90056L10.0105 5.89136Z" fill="white"/>
<path d="M31.0731 8.60665C31.7911 7.85685 31.7911 6.64117 31.0731 5.89136C30.355 5.14156 29.1908 5.14156 28.4727 5.89136L27.5063 6.90056C26.7882 7.65037 26.7882 8.86604 27.5063 9.61585C28.2243 10.3657 29.3885 10.3657 30.1066 9.61585L31.0731 8.60665Z" fill="white"/>
<path d="M7.49918 20.48H1.83871C0.823218 20.48 0 21.3396 0 22.4C0 23.4604 0.823218 24.32 1.83871 24.32H36.1613C37.1768 24.32 38 23.4604 38 22.4C38 21.3396 37.1768 20.48 36.1613 20.48H30.5008C29.6193 14.6765 24.8058 10.24 19 10.24C13.1942 10.24 8.38074 14.6765 7.49918 20.48Z" fill="white"/>
<path d="M7.35484 30.08C7.35484 29.0196 8.17806 28.16 9.19355 28.16H28.8065C29.8219 28.16 30.6452 29.0196 30.6452 30.08C30.6452 31.1404 29.8219 32 28.8065 32H9.19355C8.17806 32 7.35484 31.1404 7.35484 30.08Z" fill="white"/>
</svg>
