<svg width="24" height="24" viewBox="0 0 24 24" fill="none" xmlns="http://www.w3.org/2000/svg">
<path d="M5.40039 0.450195H15.6279L20.5498 4.97168V21.5996C20.5498 22.6766 19.6766 23.5498 18.5996 23.5498H5.40039C4.32344 23.5498 3.4502 22.6766 3.4502 21.5996V2.40039C3.4502 1.32344 4.32344 0.450195 5.40039 0.450195Z" stroke="#D0D5DD" stroke-width="0.9"/>
<mask id="path-2-inside-1_2772_39428" fill="white">
<path d="M15 0.599609H20.1V5.69961H15.6C15.2686 5.69961 15 5.43098 15 5.09961V0.599609Z"/>
</mask>
<path d="M15 0.599609H20.1H15ZM20.1 6.29961H15.6C14.9373 6.29961 14.4 5.76235 14.4 5.09961H15.6H20.1V6.29961ZM15.6 6.29961C14.9373 6.29961 14.4 5.76235 14.4 5.09961V0.599609H15.6V5.09961V6.29961ZM20.1 0.599609V5.69961V0.599609Z" fill="#D0D5DD" mask="url(#path-2-inside-1_2772_39428)"/>
<rect x="0.600098" y="12" width="16.4" height="7.6" rx="1.2" fill="#444CE7"/>
<path d="M3.92705 13.5888C4.37105 13.5888 4.75905 13.6768 5.09105 13.8528C5.42305 14.0288 5.67905 14.2768 5.85905 14.5968C6.04305 14.9128 6.13505 15.2788 6.13505 15.6948C6.13505 16.1068 6.04305 16.4728 5.85905 16.7928C5.67905 17.1128 5.42105 17.3608 5.08505 17.5368C4.75305 17.7128 4.36705 17.8008 3.92705 17.8008H2.34905V13.5888H3.92705ZM3.86105 16.9128C4.24905 16.9128 4.55105 16.8068 4.76705 16.5948C4.98305 16.3828 5.09105 16.0828 5.09105 15.6948C5.09105 15.3068 4.98305 15.0048 4.76705 14.7888C4.55105 14.5728 4.24905 14.4648 3.86105 14.4648H3.37505V16.9128H3.86105ZM8.70043 17.8428C8.30443 17.8428 7.94043 17.7508 7.60843 17.5668C7.28043 17.3828 7.01843 17.1268 6.82243 16.7988C6.63043 16.4668 6.53443 16.0948 6.53443 15.6828C6.53443 15.2708 6.63043 14.9008 6.82243 14.5728C7.01843 14.2448 7.28043 13.9888 7.60843 13.8048C7.94043 13.6208 8.30443 13.5288 8.70043 13.5288C9.09643 13.5288 9.45843 13.6208 9.78643 13.8048C10.1184 13.9888 10.3784 14.2448 10.5664 14.5728C10.7584 14.9008 10.8544 15.2708 10.8544 15.6828C10.8544 16.0948 10.7584 16.4668 10.5664 16.7988C10.3744 17.1268 10.1144 17.3828 9.78643 17.5668C9.45843 17.7508 9.09643 17.8428 8.70043 17.8428ZM8.70043 16.9068C9.03643 16.9068 9.30443 16.7948 9.50443 16.5708C9.70843 16.3468 9.81043 16.0508 9.81043 15.6828C9.81043 15.3108 9.70843 15.0148 9.50443 14.7948C9.30443 14.5708 9.03643 14.4588 8.70043 14.4588C8.36043 14.4588 8.08843 14.5688 7.88443 14.7888C7.68443 15.0088 7.58443 15.3068 7.58443 15.6828C7.58443 16.0548 7.68443 16.3528 7.88443 16.5768C8.08843 16.7968 8.36043 16.9068 8.70043 16.9068ZM11.2512 15.6888C11.2512 15.2728 11.3412 14.9028 11.5212 14.5788C11.7012 14.2508 11.9512 13.9968 12.2712 13.8168C12.5952 13.6328 12.9612 13.5408 13.3692 13.5408C13.8692 13.5408 14.2972 13.6728 14.6532 13.9368C15.0092 14.2008 15.2472 14.5608 15.3672 15.0168H14.2392C14.1552 14.8408 14.0352 14.7068 13.8792 14.6148C13.7272 14.5228 13.5532 14.4768 13.3572 14.4768C13.0412 14.4768 12.7852 14.5868 12.5892 14.8068C12.3932 15.0268 12.2952 15.3208 12.2952 15.6888C12.2952 16.0568 12.3932 16.3508 12.5892 16.5708C12.7852 16.7908 13.0412 16.9008 13.3572 16.9008C13.5532 16.9008 13.7272 16.8548 13.8792 16.7628C14.0352 16.6708 14.1552 16.5368 14.2392 16.3608H15.3672C15.2472 16.8168 15.0092 17.1768 14.6532 17.4408C14.2972 17.7008 13.8692 17.8308 13.3692 17.8308C12.9612 17.8308 12.5952 17.7408 12.2712 17.5608C11.9512 17.3768 11.7012 17.1228 11.5212 16.7988C11.3412 16.4748 11.2512 16.1048 11.2512 15.6888Z" fill="white"/>
</svg>
