<svg width="24" height="24" viewBox="0 0 24 24" fill="none" xmlns="http://www.w3.org/2000/svg">
<path d="M5.40039 0.450195H15.6279L20.5498 4.97168V21.5996C20.5498 22.6766 19.6766 23.5498 18.5996 23.5498H5.40039C4.32344 23.5498 3.4502 22.6766 3.4502 21.5996V2.40039C3.4502 1.32344 4.32344 0.450195 5.40039 0.450195Z" stroke="#D0D5DD" stroke-width="0.9"/>
<mask id="path-2-inside-1_2772_39434" fill="white">
<path d="M15 0.599609H20.1V5.69961H15.6C15.2686 5.69961 15 5.43098 15 5.09961V0.599609Z"/>
</mask>
<path d="M15 0.599609H20.1H15ZM20.1 6.29961H15.6C14.9373 6.29961 14.4 5.76235 14.4 5.09961H15.6H20.1V6.29961ZM15.6 6.29961C14.9373 6.29961 14.4 5.76235 14.4 5.09961V0.599609H15.6V5.09961V6.29961ZM20.1 0.599609V5.69961V0.599609Z" fill="#D0D5DD" mask="url(#path-2-inside-1_2772_39434)"/>
<rect x="0.600098" y="12" width="14.4" height="7.6" rx="1.2" fill="#F04438"/>
<path d="M5.68991 14.9448C5.68991 15.1888 5.63391 15.4128 5.52191 15.6168C5.40991 15.8168 5.23791 15.9788 5.00591 16.1028C4.77391 16.2268 4.48591 16.2888 4.14191 16.2888H3.50591V17.8008H2.47991V13.5888H4.14191C4.47791 13.5888 4.76191 13.6468 4.99391 13.7628C5.22591 13.8788 5.39991 14.0388 5.51591 14.2428C5.63191 14.4468 5.68991 14.6808 5.68991 14.9448ZM4.06391 15.4728C4.25991 15.4728 4.40591 15.4268 4.50191 15.3348C4.59791 15.2428 4.64591 15.1128 4.64591 14.9448C4.64591 14.7768 4.59791 14.6468 4.50191 14.5548C4.40591 14.4628 4.25991 14.4168 4.06391 14.4168H3.50591V15.4728H4.06391ZM7.80205 13.5888C8.24605 13.5888 8.63405 13.6768 8.96605 13.8528C9.29805 14.0288 9.55405 14.2768 9.73405 14.5968C9.91805 14.9128 10.0101 15.2788 10.0101 15.6948C10.0101 16.1068 9.91805 16.4728 9.73405 16.7928C9.55405 17.1128 9.29605 17.3608 8.96005 17.5368C8.62805 17.7128 8.24205 17.8008 7.80205 17.8008H6.22405V13.5888H7.80205ZM7.73605 16.9128C8.12405 16.9128 8.42605 16.8068 8.64205 16.5948C8.85805 16.3828 8.96605 16.0828 8.96605 15.6948C8.96605 15.3068 8.85805 15.0048 8.64205 14.7888C8.42605 14.5728 8.12405 14.4648 7.73605 14.4648H7.25005V16.9128H7.73605ZM13.3254 13.5888V14.4108H11.6094V15.2988H12.8934V16.0968H11.6094V17.8008H10.5834V13.5888H13.3254Z" fill="white"/>
</svg>
