<svg width="24" height="24" viewBox="0 0 24 24" fill="none" xmlns="http://www.w3.org/2000/svg">
<path d="M5.40039 0.450195H15.6279L20.5498 4.97168V21.5996C20.5498 22.6766 19.6766 23.5498 18.5996 23.5498H5.40039C4.32344 23.5498 3.4502 22.6766 3.4502 21.5996V2.40039C3.4502 1.32344 4.32344 0.450195 5.40039 0.450195Z" stroke="#D0D5DD" stroke-width="0.9"/>
<mask id="path-2-inside-1_2772_39431" fill="white">
<path d="M15 0.599609H20.1V5.69961H15.6C15.2686 5.69961 15 5.43098 15 5.09961V0.599609Z"/>
</mask>
<path d="M15 0.599609H20.1H15ZM20.1 6.29961H15.6C14.9373 6.29961 14.4 5.76235 14.4 5.09961H15.6H20.1V6.29961ZM15.6 6.29961C14.9373 6.29961 14.4 5.76235 14.4 5.09961V0.599609H15.6V5.09961V6.29961ZM20.1 0.599609V5.69961V0.599609Z" fill="#D0D5DD" mask="url(#path-2-inside-1_2772_39431)"/>
<rect x="0.600098" y="12" width="19.2" height="7.6" rx="1.2" fill="#444CE7"/>
<path d="M3.18242 13.5888C3.62642 13.5888 4.01442 13.6768 4.34642 13.8528C4.67842 14.0288 4.93442 14.2768 5.11442 14.5968C5.29842 14.9128 5.39042 15.2788 5.39042 15.6948C5.39042 16.1068 5.29842 16.4728 5.11442 16.7928C4.93442 17.1128 4.67642 17.3608 4.34042 17.5368C4.00842 17.7128 3.62242 17.8008 3.18242 17.8008H1.60442V13.5888H3.18242ZM3.11642 16.9128C3.50442 16.9128 3.80642 16.8068 4.02242 16.5948C4.23842 16.3828 4.34642 16.0828 4.34642 15.6948C4.34642 15.3068 4.23842 15.0048 4.02242 14.7888C3.80642 14.5728 3.50442 14.4648 3.11642 14.4648H2.63042V16.9128H3.11642ZM7.9558 17.8428C7.5598 17.8428 7.1958 17.7508 6.8638 17.5668C6.5358 17.3828 6.2738 17.1268 6.0778 16.7988C5.8858 16.4668 5.7898 16.0948 5.7898 15.6828C5.7898 15.2708 5.8858 14.9008 6.0778 14.5728C6.2738 14.2448 6.5358 13.9888 6.8638 13.8048C7.1958 13.6208 7.5598 13.5288 7.9558 13.5288C8.3518 13.5288 8.7138 13.6208 9.0418 13.8048C9.3738 13.9888 9.6338 14.2448 9.8218 14.5728C10.0138 14.9008 10.1098 15.2708 10.1098 15.6828C10.1098 16.0948 10.0138 16.4668 9.8218 16.7988C9.6298 17.1268 9.3698 17.3828 9.0418 17.5668C8.7138 17.7508 8.3518 17.8428 7.9558 17.8428ZM7.9558 16.9068C8.2918 16.9068 8.5598 16.7948 8.7598 16.5708C8.9638 16.3468 9.0658 16.0508 9.0658 15.6828C9.0658 15.3108 8.9638 15.0148 8.7598 14.7948C8.5598 14.5708 8.2918 14.4588 7.9558 14.4588C7.6158 14.4588 7.3438 14.5688 7.1398 14.7888C6.9398 15.0088 6.8398 15.3068 6.8398 15.6828C6.8398 16.0548 6.9398 16.3528 7.1398 16.5768C7.3438 16.7968 7.6158 16.9068 7.9558 16.9068ZM10.5066 15.6888C10.5066 15.2728 10.5966 14.9028 10.7766 14.5788C10.9566 14.2508 11.2066 13.9968 11.5266 13.8168C11.8506 13.6328 12.2166 13.5408 12.6246 13.5408C13.1246 13.5408 13.5526 13.6728 13.9086 13.9368C14.2646 14.2008 14.5026 14.5608 14.6226 15.0168H13.4946C13.4106 14.8408 13.2906 14.7068 13.1346 14.6148C12.9826 14.5228 12.8086 14.4768 12.6126 14.4768C12.2966 14.4768 12.0406 14.5868 11.8446 14.8068C11.6486 15.0268 11.5506 15.3208 11.5506 15.6888C11.5506 16.0568 11.6486 16.3508 11.8446 16.5708C12.0406 16.7908 12.2966 16.9008 12.6126 16.9008C12.8086 16.9008 12.9826 16.8548 13.1346 16.7628C13.2906 16.6708 13.4106 16.5368 13.4946 16.3608H14.6226C14.5026 16.8168 14.2646 17.1768 13.9086 17.4408C13.5526 17.7008 13.1246 17.8308 12.6246 17.8308C12.2166 17.8308 11.8506 17.7408 11.5266 17.5608C11.2066 17.3768 10.9566 17.1228 10.7766 16.7988C10.5966 16.4748 10.5066 16.1048 10.5066 15.6888ZM17.8309 17.8008L16.9729 16.5108L16.2169 17.8008H15.0529L16.4029 15.6588L15.0229 13.5888H16.2169L17.0629 14.8608L17.8069 13.5888H18.9709L17.6329 15.7128L19.0249 17.8008H17.8309Z" fill="white"/>
</svg>
