<svg width="24" height="24" viewBox="0 0 24 24" fill="none" xmlns="http://www.w3.org/2000/svg">
<path d="M5.40039 0.450195H15.6279L20.5498 4.97168V21.5996C20.5498 22.6766 19.6766 23.5498 18.5996 23.5498H5.40039C4.32344 23.5498 3.4502 22.6766 3.4502 21.5996V2.40039C3.4502 1.32344 4.32344 0.450195 5.40039 0.450195Z" stroke="#D0D5DD" stroke-width="0.9"/>
<mask id="path-2-inside-1_2772_39437" fill="white">
<path d="M15 0.599609H20.1V5.69961H15.6C15.2686 5.69961 15 5.43098 15 5.09961V0.599609Z"/>
</mask>
<path d="M15 0.599609H20.1H15ZM20.1 6.29961H15.6C14.9373 6.29961 14.4 5.76235 14.4 5.09961H15.6H20.1V6.29961ZM15.6 6.29961C14.9373 6.29961 14.4 5.76235 14.4 5.09961V0.599609H15.6V5.09961V6.29961ZM20.1 0.599609V5.69961V0.599609Z" fill="#D0D5DD" mask="url(#path-2-inside-1_2772_39437)"/>
<rect x="0.600098" y="12" width="14.4" height="7.6" rx="1.2" fill="#344054"/>
<path d="M5.51284 13.5888V14.4108H4.39684V17.8008H3.37084V14.4108H2.25484V13.5888H5.51284ZM8.60776 17.8008L7.74976 16.5108L6.99376 17.8008H5.82976L7.17976 15.6588L5.79976 13.5888H6.99376L7.83976 14.8608L8.58376 13.5888H9.74776L8.40976 15.7128L9.80176 17.8008H8.60776ZM13.3468 13.5888V14.4108H12.2308V17.8008H11.2048V14.4108H10.0888V13.5888H13.3468Z" fill="white"/>
</svg>
