<svg id="Layer_1" data-name="Layer 1" xmlns="http://www.w3.org/2000/svg" viewBox="0 0 32 32"><defs><style>.cls-1{fill:#fff;}</style></defs><title>Artboard 2Round</title><rect width="32" height="32" rx="16"/><path class="cls-1" d="M10.46,14.92s-.13.05-.17-.11-.33-1.2,3.5-1.92a13.54,13.54,0,0,1,6.08.21,11.89,11.89,0,0,0-5.53-.61c-3.22.41-3.9,1-4.37,1.92,0,0-.13-1.24-.14-1.43s.8-1.77,5.07-2.29a8.49,8.49,0,0,0-4.5,1.19s-.11-.39.56-.87a9.2,9.2,0,0,1,4.67-1.35,10.37,10.37,0,0,1,3.67.53c1.08.38,1.73.92,1.68,1.37a1,1,0,0,1-.09.4s.66.18.56,1.1,0,1.83-.5,1.8c-.06.05-.59-.91-5.3-.95C11,14.06,10.52,15,10.46,14.92Z"/><path class="cls-1" d="M11.84,20.16l-.06-.06L11.67,20l-.09,0a.07.07,0,0,0-.06,0,2.29,2.29,0,0,0-.08.28c0,.05,0,.09,0,.13-.06-.43-.13-.86-.19-1.29-.2-1.48-.38-3-.53-4.39,0-.15,0-.29,0-.43l.45-.1,0,.31,0,.28c0,.13,0,.27.05.4.14,1.28.3,2.61.48,3.92C11.75,19.49,11.79,19.83,11.84,20.16Z"/><path class="cls-1" d="M12.07,21.67l0,.1-.06.11a.22.22,0,0,1-.06.07,0,0,0,0,1-.07,0s-.07-.06-.09-.12a1.5,1.5,0,0,1,0-.24c0-.1,0-.2,0-.32s0-.22,0-.33a3,3,0,0,1,.07-.32.56.56,0,0,0,0-.12Z"/><path class="cls-1" d="M19.19,22.19l0,0v-.06l.05,0Z"/><path class="cls-1" d="M19.63,22.2h0c-.09.57-.18,1.13-.28,1.67-.18,1.06-.38,2.08-.57,3a15.68,15.68,0,0,1-6.32-.53c-.19-.89-.38-1.87-.57-2.9-.08-.46-.16-.93-.23-1.4h0a.38.38,0,0,0,.17.08.24.24,0,0,0,.18-.07.36.36,0,0,0,.08-.12c.09.57.19,1.13.28,1.67h0l.09.48c.12.67.25,1.32.37,1.92a11.79,11.79,0,0,0,5.57.44c.12-.59.24-1.21.35-1.86,0-.2.07-.4.11-.6h0c.07-.43.15-.86.22-1.31l.09-.1a2.35,2.35,0,0,0,.19-.25A1.15,1.15,0,0,0,19.63,22.2Z"/><path class="cls-1" d="M19.7,21.83h0l0,.19a.71.71,0,0,1-.14.1,1,1,0,0,1,.09-.15Z"/><path class="cls-1" d="M19.78,21.29l0,.15h0a.13.13,0,0,0-.1,0s-.06,0-.08.07h0a.28.28,0,0,1,0,.06l-.07.13-.09.15a1.71,1.71,0,0,1-.11.14L19.2,22c0-.16.05-.32.08-.48l.12-.1a1.15,1.15,0,0,1,.25-.12Z"/><path class="cls-1" d="M20.64,14.23c0,.14,0,.28,0,.42-.15,1.54-.34,3.15-.55,4.74l-.24,1.7a.75.75,0,0,0-.15,0,.83.83,0,0,0-.32.07h0c.09-.6.18-1.2.26-1.81.19-1.41.36-2.85.5-4.24l.06-.64h0l0-.32Z"/><path class="cls-1" d="M10.91,14.89a4.69,4.69,0,0,1,.54-.11L12,14.7a6.37,6.37,0,0,1,1.24,0,7.51,7.51,0,0,0-1.2.28c-.19.06-.37.12-.54.19a4.73,4.73,0,0,0-.5.2C11,15.17,11,15,10.91,14.89Z"/><path class="cls-1" d="M20.32,15.19c-.3-.11-.64-.22-1-.31s-.72-.19-1.1-.27-.78-.16-1.19-.21a10,10,0,0,0-1.23-.09,10.34,10.34,0,0,1,1.24-.09c.41,0,.82,0,1.21,0l1.14.11,1,.17C20.4,14.74,20.36,15,20.32,15.19Z"/><path class="cls-1" d="M19,24.51l-.11,0-.1,0-.19.05-.39.07a6.85,6.85,0,0,1-.78.07,6.77,6.77,0,0,1-.78,0l-.39,0-.39,0,.39,0,.39-.05a6.92,6.92,0,0,0,.77-.14q.38-.09.75-.21l.36-.14.18-.08.08,0,.08,0C18.93,24.15,19,24.33,19,24.51Z"/><path class="cls-1" d="M12.27,23.53l.42.25.43.22a6.26,6.26,0,0,0,.89.38,7.12,7.12,0,0,1-.91-.13l-.45-.12L12.2,24C12.22,23.84,12.24,23.69,12.27,23.53Z"/><path class="cls-1" d="M18.44,8.17c0,.35,0,.72,0,1.09a.1.1,0,0,1-.12.11c-.39,0-.78-.07-1.18-.08l-.79.71-.16-.14L17,9.14c0-.36,0-.71,0-1.05l-.41-.35a16.5,16.5,0,0,0-1.72.08c-.07,0-.13,0-.13-.1,0-.48,0-.94,0-1.37l-.23-.16-.71.1c-.07,0-.12,0-.12-.08l0-.55s.06-.1.13-.11c.24,0,.47-.07.71-.09.07,0,.13,0,.13.07s0,.35,0,.53l.23.15c.55,0,1.09-.08,1.64-.09a.14.14,0,0,1,.15.11c0,.44,0,.89,0,1.38l.41.35c.39,0,.78,0,1.16.08A.13.13,0,0,1,18.44,8.17Z"/><path class="cls-1" d="M14.44,8.07l-.85.11a.15.15,0,0,0-.13.14c0,.24,0,.49,0,.74a.1.1,0,0,0,.12.1c.29-.05.57-.08.86-.11a.15.15,0,0,0,.13-.13c0-.26,0-.51,0-.75A.1.1,0,0,0,14.44,8.07Z"/><path class="cls-1" d="M15.19,5.37l.31,0c.06,0,.12,0,.12-.1V5S15.56,5,15.5,5l-.3,0c-.07,0-.12,0-.12.1V5.3S15.13,5.38,15.19,5.37Z"/><path class="cls-1" d="M18.27,6.77l-.26,0c-.07,0-.12,0-.12.1a1.77,1.77,0,0,1,0,.23A.15.15,0,0,0,18,7.2l.27,0c.07,0,.12,0,.12-.1s0-.15,0-.23A.14.14,0,0,0,18.27,6.77Z"/><path class="cls-1" d="M19.11,7.42l-.44-.06a.1.1,0,0,0-.12.1c0,.13,0,.27,0,.41A.15.15,0,0,0,18.7,8l.44.06a.1.1,0,0,0,.12-.1c0-.14,0-.28,0-.41A.14.14,0,0,0,19.11,7.42Z"/><path class="cls-1" d="M13.29,8c0-.18,0-.35,0-.52s-.05-.09-.12-.08l-.59.12a.17.17,0,0,0-.13.14l0,.51a.09.09,0,0,0,.12.08l.6-.12A.15.15,0,0,0,13.29,8Z"/><path class="cls-1" d="M20.7,19.73c-.17,1.23-.37,2.46-.59,3.66a.39.39,0,0,1-.24.3,4.27,4.27,0,0,1-.51.17l-.47.12h0a10.85,10.85,0,0,1-3.22.31,12.32,12.32,0,0,1-3.21-.68h0l-.13-.05-.36-.13-.55-.24a.51.51,0,0,1-.25-.31c-.21-1.13-.4-2.3-.57-3.45,0-.14,0-.24.15-.25l.55,0h.47c.84,0,2.14,0,3.93,0s3.13.11,4,.17l.46,0,.5.06C20.66,19.46,20.72,19.58,20.7,19.73Z"/></svg>