<svg width="16" height="16" viewBox="0 0 16 16" fill="none" xmlns="http://www.w3.org/2000/svg">
<path d="M2.96712 9.27222L7.6022 13.6264C7.65404 13.6751 7.67996 13.6994 7.70464 13.7175C7.8805 13.8463 8.11951 13.8463 8.29537 13.7175C8.32005 13.6994 8.34597 13.6751 8.39781 13.6264L13.0329 9.27222C14.337 8.04714 14.4954 6.03115 13.3985 4.61746L13.1923 4.35164C11.8802 2.66047 9.24642 2.94409 8.32445 4.87585C8.19421 5.14872 7.80579 5.14872 7.67556 4.87585C6.75358 2.94409 4.11982 2.66047 2.8077 4.35164L2.60146 4.61746C1.50464 6.03115 1.66301 8.04714 2.96712 9.27222Z" stroke="white"/>
</svg>
