<svg width="25" height="24" viewBox="0 0 25 24" fill="none" xmlns="http://www.w3.org/2000/svg">
<path fill-rule="evenodd" clip-rule="evenodd" d="M12.5 2V7L12.5 7.05441C12.4999 7.47848 12.4998 7.8906 12.5455 8.23052C12.597 8.61372 12.7226 9.051 13.0858 9.41421C13.449 9.77743 13.8863 9.90295 14.2695 9.95447C14.6094 10.0002 15.0215 10.0001 15.4456 10H15.4456H15.4456H15.4456L15.5 10H20.5V16C20.5 18.8284 20.5 20.2426 19.6213 21.1213C18.7426 22 17.3284 22 14.5 22H10.5C7.67157 22 6.25736 22 5.37868 21.1213C4.5 20.2426 4.5 18.8284 4.5 16V8C4.5 5.17157 4.5 3.75736 5.37868 2.87868C6.25736 2 7.67157 2 10.5 2H12.5ZM14.5 2.00462V7C14.5 7.49967 14.5021 7.77383 14.5277 7.96402L14.5287 7.97131L14.536 7.97231C14.7262 7.99788 15.0003 8 15.5 8H20.4954C20.4852 7.58836 20.4525 7.31595 20.3478 7.06306C20.1955 6.69552 19.9065 6.40649 19.3284 5.82843L16.6716 3.17157C16.0935 2.59351 15.8045 2.30448 15.4369 2.15224C15.184 2.04749 14.9116 2.01481 14.5 2.00462ZM8.5 13C8.5 12.4477 8.94772 12 9.5 12L15.5 12C16.0523 12 16.5 12.4477 16.5 13C16.5 13.5523 16.0523 14 15.5 14L9.5 14C8.94772 14 8.5 13.5523 8.5 13ZM9.5 16C8.94772 16 8.5 16.4477 8.5 17C8.5 17.5523 8.94772 18 9.5 18H13.5C14.0523 18 14.5 17.5523 14.5 17C14.5 16.4477 14.0523 16 13.5 16H9.5Z" fill="#222222"/>
</svg>
