<svg width="25" height="24" viewBox="0 0 25 24" fill="none" xmlns="http://www.w3.org/2000/svg">
<path d="M13.6716 3H9.5C7.61438 3 6.67157 3 6.08579 3.58579C5.5 4.17157 5.5 5.11438 5.5 7V17C5.5 18.8856 5.5 19.8284 6.08579 20.4142C6.67157 21 7.61438 21 9.5 21H15.5C17.3856 21 18.3284 21 18.9142 20.4142C19.5 19.8284 19.5 18.8856 19.5 17V8.82843C19.5 8.41968 19.5 8.2153 19.4239 8.03153C19.3478 7.84776 19.2032 7.70324 18.9142 7.41421L15.0858 3.58579C14.7968 3.29676 14.6522 3.15224 14.4685 3.07612C14.2847 3 14.0803 3 13.6716 3Z" stroke="black" stroke-opacity="0.4" stroke-width="2"/>
<path d="M9.5 13L15.5 13" stroke="black" stroke-opacity="0.4" stroke-width="2" stroke-linecap="round"/>
<path d="M9.5 17L13.5 17" stroke="black" stroke-opacity="0.4" stroke-width="2" stroke-linecap="round"/>
<path d="M13.5 3V7C13.5 7.94281 13.5 8.41421 13.7929 8.70711C14.0858 9 14.5572 9 15.5 9H19.5" stroke="black" stroke-opacity="0.4" stroke-width="2"/>
</svg>
