<svg width="116" height="115" viewBox="0 0 116 115" fill="none" xmlns="http://www.w3.org/2000/svg">
<path d="M50.6424 51.1376C50.4866 52.8001 50.3772 55.7423 51.3588 56.9946C51.3588 56.9946 50.8967 53.7626 55.0393 49.7075C56.7073 48.0751 57.0928 45.8548 56.5104 44.1896C56.1795 43.2462 55.5753 42.4669 55.0503 41.9228C54.744 41.6029 54.9792 41.0751 55.4249 41.0943C58.121 41.2146 62.4905 41.9638 64.3471 46.6232C65.162 48.6685 65.2221 50.7821 64.8338 52.9314C64.5877 54.304 63.7128 57.3556 65.7088 57.7302C67.1335 57.9982 67.8225 56.8661 68.1315 56.0513C68.26 55.7122 68.7057 55.6275 68.9463 55.8982C71.3526 58.6353 71.5577 61.8591 71.06 64.6345C70.0975 69.9993 64.6643 73.904 59.2667 73.904C52.5237 73.904 47.1561 70.0458 45.7643 63.0622C45.2038 60.2431 45.4881 54.665 49.8358 50.7275C50.1585 50.4321 50.6862 50.6946 50.6424 51.1376Z" fill="url(#paint0_radial_0_1)"/>
<path d="M61.729 61.1702C59.2434 57.971 60.3563 54.3206 60.9661 52.8659C61.0481 52.6745 60.8294 52.494 60.6571 52.6116C59.588 53.3389 57.3977 55.0507 56.3778 57.4596C54.997 60.7163 55.0954 62.3104 55.913 64.2573C56.4052 65.4304 55.8337 65.6792 55.5466 65.7229C55.2677 65.7667 55.0106 65.5807 54.8056 65.3866C54.2156 64.8202 53.7952 64.1006 53.5915 63.3085C53.5477 63.1389 53.3263 63.0925 53.2251 63.2319C52.4595 64.2901 52.063 65.9882 52.0438 67.1886C51.9837 70.8991 55.0489 73.9069 58.7567 73.9069C63.4298 73.9069 66.8341 68.7389 64.1489 64.4186C63.3696 63.1608 62.6368 62.3378 61.729 61.1702Z" fill="url(#paint1_radial_0_1)"/>
<defs>
<radialGradient id="paint0_radial_0_1" cx="0" cy="0" r="1" gradientUnits="userSpaceOnUse" gradientTransform="translate(57.9311 73.989) rotate(-179.751) scale(19.3013 31.6696)">
<stop offset="0.314" stop-color="#FF9800"/>
<stop offset="0.662" stop-color="#FF6D00"/>
<stop offset="0.972" stop-color="#F44336"/>
</radialGradient>
<radialGradient id="paint1_radial_0_1" cx="0" cy="0" r="1" gradientUnits="userSpaceOnUse" gradientTransform="translate(59.0137 54.7823) rotate(90.5787) scale(20.1951 15.1983)">
<stop offset="0.214" stop-color="#FFF176"/>
<stop offset="0.328" stop-color="#FFF27D"/>
<stop offset="0.487" stop-color="#FFF48F"/>
<stop offset="0.672" stop-color="#FFF7AD"/>
<stop offset="0.793" stop-color="#FFF9C4"/>
<stop offset="0.822" stop-color="#FFF8BD" stop-opacity="0.804"/>
<stop offset="0.863" stop-color="#FFF6AB" stop-opacity="0.529"/>
<stop offset="0.91" stop-color="#FFF38D" stop-opacity="0.209"/>
<stop offset="0.941" stop-color="#FFF176" stop-opacity="0"/>
</radialGradient>
</defs>
</svg>
