<svg width="66" height="67" viewBox="0 0 66 67" fill="none" xmlns="http://www.w3.org/2000/svg">
<rect x="0.5" y="1" width="65" height="65" rx="32.5" fill="#F4F4F4"/>
<rect x="0.5" y="1" width="65" height="65" rx="32.5" stroke="#EAECF0"/>
<path d="M38.6673 26.8332C38.6673 29.9628 36.1303 32.4998 33.0007 32.4998C29.871 32.4998 27.334 29.9628 27.334 26.8332C27.334 23.7036 29.871 21.1665 33.0007 21.1665C36.1303 21.1665 38.6673 23.7036 38.6673 26.8332Z" stroke="black" stroke-width="2" stroke-linecap="round"/>
<path d="M37.8699 26.5C38.4003 25.5813 39.274 24.9109 40.2987 24.6363C41.3234 24.3617 42.4152 24.5055 43.334 25.0359C44.2527 25.5663 44.9231 26.44 45.1977 27.4647C45.4723 28.4894 45.3285 29.5813 44.7981 30.5C44.2677 31.4187 43.394 32.0891 42.3693 32.3637C41.3445 32.6383 40.2527 32.4945 39.334 31.9641C38.4152 31.4337 37.7449 30.56 37.4703 29.5353C37.1957 28.5106 37.3394 27.4187 37.8699 26.5L37.8699 26.5Z" stroke="black" stroke-width="2"/>
<path d="M21.2019 26.5C21.7323 25.5813 22.606 24.9109 23.6307 24.6363C24.6555 24.3617 25.7473 24.5055 26.666 25.0359C27.5848 25.5663 28.2551 26.44 28.5297 27.4647C28.8043 28.4894 28.6606 29.5813 28.1301 30.5C27.5997 31.4187 26.726 32.0891 25.7013 32.3637C24.6766 32.6383 23.5848 32.4945 22.666 31.9641C21.7473 31.4337 21.0769 30.56 20.8023 29.5353C20.5277 28.5106 20.6715 27.4187 21.2019 26.5L21.2019 26.5Z" stroke="black" stroke-width="2"/>
<path d="M41.1361 43.5002L40.1558 43.6976L40.3174 44.5002H41.1361V43.5002ZM47.7615 42.3956L48.7251 42.1284V42.1284L47.7615 42.3956ZM37.6348 38.0177L37.0299 37.2214L35.8733 38.0999L37.1066 38.8669L37.6348 38.0177ZM46.8673 42.5002H41.1361V44.5002H46.8673V42.5002ZM46.7979 42.6629C46.7944 42.6505 46.7914 42.625 46.7984 42.594C46.8049 42.5648 46.8176 42.5425 46.8296 42.5279C46.8534 42.4992 46.8735 42.5002 46.8673 42.5002V44.5002C48.0385 44.5002 49.0863 43.4305 48.7251 42.1284L46.7979 42.6629ZM41.3334 37.8335C43.1695 37.8335 44.3809 38.5947 45.2174 39.5593C46.0809 40.5549 46.5546 41.7858 46.7979 42.6629L48.7251 42.1284C48.4429 41.1108 47.8659 39.5607 46.7284 38.2489C45.5639 36.9061 43.824 35.8335 41.3334 35.8335V37.8335ZM38.2396 38.8141C38.9945 38.2407 39.9887 37.8335 41.3334 37.8335V35.8335C39.5449 35.8335 38.1271 36.388 37.0299 37.2214L38.2396 38.8141ZM37.1066 38.8669C39.0683 40.0869 39.8508 42.1835 40.1558 43.6976L42.1164 43.3027C41.7677 41.5714 40.8139 38.8173 38.1629 37.1686L37.1066 38.8669Z" fill="black"/>
<path d="M28.3645 38.0177L28.8926 38.8669L30.1259 38.0998L28.9693 37.2214L28.3645 38.0177ZM18.2378 42.3956L17.2741 42.1284L17.2741 42.1284L18.2378 42.3956ZM24.8631 43.5002V44.5002H25.6818L25.8434 43.6976L24.8631 43.5002ZM24.6659 37.8335C26.0105 37.8335 27.0047 38.2407 27.7596 38.814L28.9693 37.2214C27.8721 36.388 26.4544 35.8335 24.6659 35.8335V37.8335ZM19.2014 42.6629C19.4446 41.7858 19.9184 40.5549 20.7819 39.5593C21.6184 38.5947 22.8298 37.8335 24.6659 37.8335V35.8335C22.1753 35.8335 20.4354 36.9061 19.2709 38.2489C18.1333 39.5607 17.5564 41.1108 17.2741 42.1284L19.2014 42.6629ZM19.132 42.5002C19.1257 42.5002 19.1458 42.4992 19.1696 42.5279C19.1817 42.5425 19.1943 42.5648 19.2009 42.594C19.2078 42.625 19.2048 42.6505 19.2014 42.6629L17.2741 42.1284C16.913 43.4305 17.9608 44.5002 19.132 44.5002V42.5002ZM24.8631 42.5002H19.132V44.5002H24.8631V42.5002ZM25.8434 43.6976C26.1484 42.1835 26.9309 40.0869 28.8926 38.8669L27.8364 37.1685C25.1853 38.8173 24.2315 41.5714 23.8828 43.3027L25.8434 43.6976Z" fill="black"/>
<path d="M32.9993 36.8335C39.5365 36.8335 40.9455 41.9616 41.2492 44.1722C41.3244 44.7194 40.885 45.1668 40.3327 45.1668H25.666C25.1137 45.1668 24.6743 44.7194 24.7495 44.1722C25.0532 41.9616 26.4622 36.8335 32.9993 36.8335Z" stroke="black" stroke-width="2" stroke-linecap="round"/>
</svg>
