<svg width="67" height="67" viewBox="0 0 67 67" fill="none" xmlns="http://www.w3.org/2000/svg">
<rect x="1" y="1" width="65" height="65" rx="32.5" fill="#F4F4F4"/>
<rect x="1" y="1" width="65" height="65" rx="32.5" stroke="#EAECF0"/>
<circle cx="28.4987" cy="28.5002" r="5.66667" stroke="#33363F" stroke-width="2" stroke-linecap="round"/>
<path d="M33.3679 28.167C33.8984 27.2483 34.772 26.5779 35.7968 26.3033C36.8215 26.0287 37.9133 26.1725 38.832 26.7029C39.7508 27.2333 40.4212 28.107 40.6957 29.1317C40.9703 30.1564 40.8266 31.2483 40.2961 32.167C39.7657 33.0857 38.892 33.7561 37.8673 34.0307C36.8426 34.3053 35.7508 34.1615 34.832 33.6311C33.9133 33.1007 33.2429 32.227 32.9683 31.2023C32.6938 30.1776 32.8375 29.0857 33.3679 28.167L33.3679 28.167Z" stroke="#33363F" stroke-width="2"/>
<path d="M36.6361 45.1667L35.6558 45.3641L35.8174 46.1667H36.6361V45.1667ZM43.2615 44.0621L44.2251 43.7949V43.7949L43.2615 44.0621ZM33.1348 39.6842L32.5299 38.8879L31.3733 39.7664L32.6066 40.5334L33.1348 39.6842ZM42.3673 44.1667H36.6361V46.1667H42.3673V44.1667ZM42.2979 44.3294C42.2944 44.317 42.2914 44.2915 42.2984 44.2605C42.3049 44.2313 42.3176 44.209 42.3296 44.1944C42.3534 44.1657 42.3735 44.1667 42.3673 44.1667V46.1667C43.5385 46.1667 44.5863 45.097 44.2251 43.7949L42.2979 44.3294ZM36.8334 39.5C38.6695 39.5 39.8809 40.2612 40.7174 41.2258C41.5809 42.2214 42.0546 43.4523 42.2979 44.3294L44.2251 43.7949C43.9429 42.7773 43.3659 41.2272 42.2284 39.9154C41.0639 38.5726 39.324 37.5 36.8334 37.5V39.5ZM33.7396 40.4806C34.4945 39.9072 35.4887 39.5 36.8334 39.5V37.5C35.0449 37.5 33.6271 38.0545 32.5299 38.8879L33.7396 40.4806ZM32.6066 40.5334C34.5683 41.7534 35.3508 43.85 35.6558 45.3641L37.6164 44.9692C37.2677 43.2379 36.3139 40.4838 33.6629 38.8351L32.6066 40.5334Z" fill="#33363F"/>
<path d="M28.4993 38.5C35.0365 38.5 36.4455 43.6281 36.7492 45.8387C36.8244 46.3859 36.385 46.8333 35.8327 46.8333H21.166C20.6137 46.8333 20.1743 46.3859 20.2495 45.8387C20.5532 43.6281 21.9622 38.5 28.4993 38.5Z" stroke="#33363F" stroke-width="2" stroke-linecap="round"/>
</svg>
