<svg width="22" height="22" viewBox="0 0 25 35" fill="none" xmlns="http://www.w3.org/2000/svg">
<g clip-path="url(#clip0_3720_52796)">
<path d="M5.25 6.125H19.25C22.1496 6.125 24.5 3.77449 24.5 0.875C24.5 0.391755 24.1082 0 23.625 0H0.875C0.391755 0 0 0.391755 0 0.875C0 3.77449 2.35051 6.125 5.25 6.125Z" fill="black"/>
<path d="M0 16.625C0 13.3252 3.12924e-07 11.6752 1.02513 10.6501C2.05025 9.625 3.70017 9.625 7 9.625H17.5C20.7998 9.625 22.4497 9.625 23.4748 10.6501C24.5 11.6752 24.5 13.3252 24.5 16.625V18.375C24.5 21.6748 24.5 23.3247 23.4748 24.3499C22.4497 25.375 20.7998 25.375 17.5 25.375H7C3.70017 25.375 2.05025 25.375 1.02513 24.3499C3.12924e-07 23.3247 0 21.6748 0 18.375V16.625Z" fill="black"/>
<path d="M19.25 28.875H5.25C2.35051 28.875 0 31.2254 0 34.125C0 34.6082 0.391755 35 0.875 35H23.625C24.1082 35 24.5 34.6082 24.5 34.125C24.5 31.2254 22.1496 28.875 19.25 28.875Z" fill="black"/>
</g>
<defs>
<clipPath id="clip0_3720_52796">
<rect width="24.5" height="35" fill="white"/>
</clipPath>
</defs>
</svg>
