<svg width="136" height="120" viewBox="0 0 136 120" fill="none" xmlns="http://www.w3.org/2000/svg">
<path d="M40 48C40 43.5817 43.5817 40 48 40H88C92.4183 40 96 43.5817 96 48V72C96 76.4183 92.4183 80 88 80H48C43.5817 80 40 76.4183 40 72V48Z" fill="#F43F3F"/>
<path d="M70 55.6364V52.5C70 52.2239 69.7761 52 69.5 52H60.5C60.2239 52 60 52.2239 60 52.5V67.5C60 67.7761 60.2239 68 60.5 68H69.5C69.7761 68 70 67.7761 70 67.5V64.3636" stroke="white" stroke-width="2" stroke-linecap="round" stroke-linejoin="round"/>
<path d="M66 60H77M77 60L74.0004 56.5M77 60L74 63.5" stroke="white" stroke-width="2" stroke-linecap="round" stroke-linejoin="round"/>
</svg>
