<svg width="25" height="24" viewBox="0 0 25 24" fill="none" xmlns="http://www.w3.org/2000/svg">
<path d="M20.1396 9.71903C20.1396 9.30482 19.8038 8.96903 19.3896 8.96903C18.9754 8.96903 18.6396 9.30482 18.6396 9.71903H20.1396ZM5.5596 9.71903C5.5596 9.30482 5.22381 8.96903 4.8096 8.96903C4.39539 8.96903 4.0596 9.30482 4.0596 9.71903H5.5596ZM14.6129 20.7071L14.4404 19.9772H14.4404L14.6129 20.7071ZM9.58634 20.7071L9.75877 19.9772H9.75877L9.58634 20.7071ZM14.928 5.01423L15.4602 4.48578L15.4217 4.44701L15.378 4.41423L14.928 5.01423ZM20.5674 11.7582C20.8593 12.0521 21.3341 12.0538 21.6281 11.7619C21.922 11.4701 21.9237 10.9952 21.6318 10.7013L20.5674 11.7582ZM9.27118 5.01423L9.80339 5.54267L9.27118 5.01423ZM2.5674 10.7013C2.27555 10.9952 2.27723 11.4701 2.57116 11.7619C2.86509 12.0538 3.33996 12.0521 3.63182 11.7582L2.5674 10.7013ZM14.928 5.01422L14.3958 5.54267L14.4343 5.58144L14.478 5.61422L14.928 5.01422ZM9.81803 18.3203L9.08091 18.1819L9.08091 18.1819L9.81803 18.3203ZM9.83737 18.2173L10.5745 18.3556L10.5745 18.3556L9.83737 18.2173ZM14.3618 18.2173L13.6247 18.3556V18.3556L14.3618 18.2173ZM14.3812 18.3203L15.1183 18.1819V18.1819L14.3812 18.3203ZM14.0914 20.5519L14.7686 20.8742L14.0914 20.5519ZM13.2974 20.475C13.1194 20.849 13.2783 21.2965 13.6523 21.4745C14.0263 21.6525 14.4738 21.4936 14.6518 21.1196L13.2974 20.475ZM10.1078 20.5519L9.43061 20.8742L9.43061 20.8742L10.1078 20.5519ZM9.54739 21.1196C9.72538 21.4936 10.1729 21.6525 10.5469 21.4745C10.9209 21.2965 11.0798 20.849 10.9018 20.475L9.54739 21.1196ZM11.4607 16.4426L11.2601 15.7199H11.2601L11.4607 16.4426ZM12.7386 16.4426L12.9391 15.7199H12.9391L12.7386 16.4426ZM18.6396 9.71903V14.6374H20.1396V9.71903H18.6396ZM5.5596 14.6374V9.71903H4.0596V14.6374H5.5596ZM14.4404 19.9772C12.9007 20.3409 11.2984 20.3409 9.75877 19.9772L9.41391 21.437C11.1804 21.8543 13.0188 21.8543 14.7853 21.437L14.4404 19.9772ZM9.75877 19.9772C7.30221 19.3969 5.5596 17.1877 5.5596 14.6374H4.0596C4.0596 17.8765 6.27382 20.6952 9.41391 21.437L9.75877 19.9772ZM14.7853 21.437C17.9254 20.6952 20.1396 17.8765 20.1396 14.6374H18.6396C18.6396 17.1877 16.897 19.3969 14.4404 19.9772L14.7853 21.437ZM14.3958 5.54267L20.5674 11.7582L21.6318 10.7013L15.4602 4.48578L14.3958 5.54267ZM8.73898 4.48578L2.5674 10.7013L3.63182 11.7582L9.80339 5.54267L8.73898 4.48578ZM15.378 4.41423L15.378 4.41422L14.478 5.61422L14.478 5.61423L15.378 4.41423ZM15.4602 4.48578C14.8085 3.82945 14.2677 3.28246 13.7815 2.90885C13.2782 2.52211 12.7454 2.25 12.0996 2.25V3.75C12.2823 3.75 12.497 3.81359 12.8675 4.09826C13.2551 4.39606 13.7142 4.85618 14.3958 5.54267L15.4602 4.48578ZM9.80339 5.54267C10.485 4.85618 10.9442 4.39606 11.3317 4.09826C11.7022 3.81359 11.917 3.75 12.0996 3.75V2.25C11.4538 2.25 10.9211 2.52211 10.4178 2.90885C9.93155 3.28246 9.39067 3.82945 8.73898 4.48578L9.80339 5.54267ZM10.5552 18.4587L10.5745 18.3556L9.10025 18.0789L9.08091 18.1819L10.5552 18.4587ZM13.6247 18.3556L13.6441 18.4587L15.1183 18.1819L15.099 18.0789L13.6247 18.3556ZM13.4142 20.2296L13.2974 20.475L14.6518 21.1196L14.7686 20.8742L13.4142 20.2296ZM9.43061 20.8742L9.54739 21.1196L10.9018 20.475L10.7851 20.2296L9.43061 20.8742ZM13.6441 18.4587C13.7567 19.0588 13.676 19.6793 13.4142 20.2296L14.7686 20.8742C15.1671 20.0369 15.2895 19.0937 15.1183 18.1819L13.6441 18.4587ZM9.08091 18.1819C8.90976 19.0937 9.03215 20.0369 9.43061 20.8742L10.7851 20.2296C10.5232 19.6793 10.4425 19.0588 10.5552 18.4587L9.08091 18.1819ZM11.6612 17.1652C11.9482 17.0856 12.2511 17.0856 12.538 17.1652L12.9391 15.7199C12.3897 15.5674 11.8095 15.5674 11.2601 15.7199L11.6612 17.1652ZM15.099 18.0789C14.8861 16.9449 14.05 16.0281 12.9391 15.7199L12.538 17.1652C13.0931 17.3193 13.5166 17.7794 13.6247 18.3556L15.099 18.0789ZM10.5745 18.3556C10.6827 17.7794 11.1061 17.3193 11.6612 17.1652L11.2601 15.7199C10.1492 16.0281 9.3131 16.9449 9.10025 18.0789L10.5745 18.3556Z" fill="#363853"/>
</svg>
