<svg width="24" height="24" viewBox="0 0 24 24" fill="none" xmlns="http://www.w3.org/2000/svg">
<path fill-rule="evenodd" clip-rule="evenodd" d="M3.51146 12.9952V7.25212C3.51146 5.3599 4.79687 3.69319 6.61272 3.19064C7.06583 3.06524 7.53975 3 8.00974 3H8.8677C10.5489 3 12.5221 4.31117 13.2463 6.04481C14.0365 6.1006 14.8239 6.20951 15.6032 6.37155C17.8007 6.82847 19.5611 8.52447 20.1376 10.7032C20.6165 12.513 20.6229 14.4414 20.144 16.2511C19.5585 18.464 17.779 20.1547 15.5471 20.6188L15.3918 20.6511C13.1543 21.1163 10.8457 21.1163 8.60824 20.6511L8.45287 20.6188C6.22102 20.1547 4.44153 18.464 3.85597 16.2511C3.6626 15.5203 3.54835 14.7702 3.5124 14.0164L3.51146 14.0138V13.9964C3.49617 13.6629 3.49619 13.3287 3.51146 12.9952ZM14.7132 8.14833C14.372 8.09119 14.0492 8.32281 13.9923 8.66566C13.9354 9.00852 14.166 9.33278 14.5073 9.38993L14.5499 9.39706C16.0307 9.64501 17.1161 10.9322 17.1161 12.4404C17.1161 12.788 17.3966 13.0698 17.7426 13.0698C18.0885 13.0698 18.369 12.788 18.369 12.4404C18.369 10.3169 16.8409 8.50458 14.7559 8.15547L14.7132 8.14833Z" fill="white"/>
</svg>
