<svg width="24" height="24" viewBox="0 0 24 24" fill="none" xmlns="http://www.w3.org/2000/svg">
<path fill-rule="evenodd" clip-rule="evenodd" d="M8.38358 3C8.75808 3 9.06166 3.31153 9.06166 3.69582V3.92169C9.10586 3.91015 9.15023 3.89901 9.19476 3.88829C11.0399 3.44416 12.9601 3.44416 14.8052 3.88829C14.8498 3.89901 14.8941 3.91014 14.9383 3.92169V3.69582C14.9383 3.31153 15.2419 3 15.6164 3C15.9909 3 16.2945 3.31153 16.2945 3.69582V4.42901C18.2277 5.38732 19.6726 7.19919 20.1754 9.39896C20.6082 11.2924 20.6082 13.2628 20.1754 15.1562C19.5504 17.8905 17.4698 20.0255 14.8052 20.6669C12.9601 21.111 11.0399 21.111 9.19476 20.6669C6.53017 20.0255 4.44963 17.8906 3.82461 15.1562C3.3918 13.2628 3.3918 11.2924 3.82461 9.39896C4.32745 7.19918 5.77233 5.38732 7.70551 4.42901V3.69582C7.70551 3.31153 8.00909 3 8.38358 3ZM12 12.6487C11.7004 12.6487 11.4575 12.8979 11.4575 13.2054C11.4575 13.5128 11.7004 13.762 12 13.762H14.7123C15.0119 13.762 15.2547 13.5128 15.2547 13.2054C15.2547 12.8979 15.0119 12.6487 14.7123 12.6487H12ZM9.28766 15.432C8.98807 15.432 8.7452 15.6812 8.7452 15.9886C8.7452 16.2961 8.98807 16.5453 9.28766 16.5453H14.7123C15.0119 16.5453 15.2547 16.2961 15.2547 15.9886C15.2547 15.6812 15.0119 15.432 14.7123 15.432H9.28766Z" fill="white"/>
</svg>
