<svg id="Layer_1" data-name="Layer 1" xmlns="http://www.w3.org/2000/svg" viewBox="0 0 121.91 45.63"><title>full hd_svg_logo</title><path d="M15.34,147.81s-.26.11-.36-.21c.15-.25-.68-2.49,7.26-4,8.52-1.22,12.74.54,12.61.44a24.91,24.91,0,0,0-11.47-1.27c-6.68.86-8.08,2.18-9,4,0,0-.28-2.57-.29-3,.06-.21,1.65-3.66,10.5-4.74a17.7,17.7,0,0,0-9.33,2.47s-.21-.81,1.16-1.81a19.31,19.31,0,0,1,9.68-2.78A21.15,21.15,0,0,1,33.67,138c2.24.79,3.58,1.9,3.48,2.84a2.52,2.52,0,0,1-.18.83s1.35.37,1.14,2.27-.07,3.8-1,3.73c-.13.11-1.22-1.89-11-2C16.39,146,15.47,147.93,15.34,147.81Z" transform="translate(-14.04 -127.19)"/><path d="M18.21,158.69a1.85,1.85,0,0,0-.14-.14,1.43,1.43,0,0,0-.22-.15.36.36,0,0,0-.19-.05.12.12,0,0,0-.12.09,4,4,0,0,0-.16.58c0,.09,0,.17-.05.26-.13-.88-.26-1.78-.38-2.67-.43-3.08-.8-6.17-1.11-9.11,0-.3-.06-.59-.08-.88l.94-.21c0,.22,0,.44.07.65s0,.38.05.57l.09.84c.29,2.65.63,5.4,1,8.12Z" transform="translate(-14.04 -127.19)"/><path d="M18.68,161.8l-.07.21a.89.89,0,0,1-.12.24.58.58,0,0,1-.12.14.16.16,0,0,1-.15,0,.42.42,0,0,1-.19-.26,2.32,2.32,0,0,1-.07-.5,4.9,4.9,0,0,1,0-.65c0-.24.05-.47.09-.7s.1-.44.16-.65.05-.18.08-.25C18.43,160.2,18.56,161,18.68,161.8Z" transform="translate(-14.04 -127.19)"/><path d="M33.43,162.89l0,.06a.5.5,0,0,1,0-.12l.1-.08Z" transform="translate(-14.04 -127.19)"/><path d="M34.34,162.91l0,0c-.19,1.18-.38,2.33-.57,3.46-.39,2.21-.79,4.3-1.2,6.21a32.26,32.26,0,0,1-13.08-1.08c-.41-1.86-.81-3.89-1.19-6-.16-.94-.33-1.91-.49-2.9l0,0a.58.58,0,0,0,.36.15.43.43,0,0,0,.36-.12,1,1,0,0,0,.18-.26c.19,1.19.38,2.35.58,3.47h0l.18,1c.25,1.4.51,2.74.77,4a24.58,24.58,0,0,0,11.53.91c.25-1.22.5-2.51.74-3.86.08-.41.15-.83.22-1.25v0q.23-1.32.45-2.7l.19-.21.4-.51A2.93,2.93,0,0,0,34.34,162.91Z" transform="translate(-14.04 -127.19)"/><path d="M34.49,162.14h0l-.06.39a2.08,2.08,0,0,1-.29.19l.19-.3Z" transform="translate(-14.04 -127.19)"/><path d="M34.66,161l0,.3v0a.37.37,0,0,0-.21-.08c-.07,0-.13.05-.17.15h0l-.07.14c0,.07-.08.16-.14.26l-.19.31c-.08.1-.15.2-.23.29l-.11.12.15-1a1.33,1.33,0,0,1,.26-.21,1.47,1.47,0,0,1,.52-.25A.75.75,0,0,1,34.66,161Z" transform="translate(-14.04 -127.19)"/><path d="M36.44,146.4l-.09.85c-.3,3.2-.69,6.53-1.13,9.83-.16,1.19-.33,2.37-.5,3.53a1.63,1.63,0,0,0-.31,0,1.87,1.87,0,0,0-.67.15h0c.19-1.23.36-2.49.53-3.75.39-2.93.75-5.9,1-8.79.05-.45.09-.89.13-1.33v0c0-.22,0-.44.07-.65Z" transform="translate(-14.04 -127.19)"/><path d="M16.28,147.75c.36-.09.73-.16,1.12-.22s.78-.13,1.19-.18a14.32,14.32,0,0,1,2.55-.08,14.72,14.72,0,0,0-2.48.57c-.39.12-.76.25-1.12.39s-.72.27-1,.41C16.42,148.34,16.35,148.05,16.28,147.75Z" transform="translate(-14.04 -127.19)"/><path d="M35.77,148.37c-.62-.22-1.31-.44-2-.64s-1.49-.4-2.28-.56-1.61-.32-2.45-.43a21.74,21.74,0,0,0-2.57-.18,20.53,20.53,0,0,1,2.59-.2c.85,0,1.69,0,2.51.06s1.6.13,2.35.23,1.46.21,2.13.35C35.94,147.45,35.86,147.91,35.77,148.37Z" transform="translate(-14.04 -127.19)"/><path d="M33.09,167.7l-.23.08-.21.06-.4.1q-.41.09-.81.15a14.6,14.6,0,0,1-1.61.15c-.54,0-1.07,0-1.61,0l-.81-.06-.81-.09.81-.05.8-.09c.54-.07,1.07-.17,1.59-.29a13.92,13.92,0,0,0,1.56-.45c.26-.09.51-.18.76-.29l.36-.16.18-.09a1,1,0,0,0,.15-.09C32.9,167,33,167.33,33.09,167.7Z" transform="translate(-14.04 -127.19)"/><path d="M19.09,165.66c.28.18.58.35.88.51s.59.33.89.48a14.1,14.1,0,0,0,1.84.78,13.33,13.33,0,0,1-1.88-.28l-.94-.23-.93-.28C19,166.31,19,166,19.09,165.66Z" transform="translate(-14.04 -127.19)"/><path d="M31.89,133.82c0,.74.06,1.5.08,2.28a.21.21,0,0,1-.26.22c-.8-.08-1.61-.14-2.44-.17-.54.48-1.08,1-1.63,1.48l-.33-.3c.55-.52,1.09-1,1.63-1.49,0-.74,0-1.47-.05-2.18l-.84-.73c-1.18,0-2.38.06-3.56.16a.22.22,0,0,1-.27-.2c0-1,0-1.95.05-2.84l-.47-.33-1.47.2c-.15,0-.26,0-.25-.16l.06-1.14c0-.1.12-.2.27-.22.49-.07,1-.14,1.48-.19.14,0,.26,0,.25.15l0,1.09.48.32c1.13-.11,2.26-.17,3.39-.19a.27.27,0,0,1,.31.23c0,.9.05,1.85.08,2.85l.83.73c.82,0,1.63.08,2.42.16A.31.31,0,0,1,31.89,133.82Z" transform="translate(-14.04 -127.19)"/><path d="M23.59,133.61c-.59.07-1.18.15-1.76.24a.33.33,0,0,0-.27.28c0,.51,0,1,0,1.54a.22.22,0,0,0,.27.21c.58-.09,1.17-.17,1.77-.23a.31.31,0,0,0,.28-.27c0-.53,0-1,0-1.56C23.86,133.69,23.74,133.6,23.59,133.61Z" transform="translate(-14.04 -127.19)"/><path d="M25.16,128l.62,0c.14,0,.26-.1.26-.2v-.44c0-.09-.12-.16-.26-.15l-.61,0c-.14,0-.26.1-.26.2s0,.29,0,.43S25,128.05,25.16,128Z" transform="translate(-14.04 -127.19)"/><path d="M31.54,130.93l-.54,0a.21.21,0,0,0-.25.21c0,.15,0,.31,0,.46a.29.29,0,0,0,.27.25l.54.05c.15,0,.26-.08.25-.21s0-.31,0-.47A.3.3,0,0,0,31.54,130.93Z" transform="translate(-14.04 -127.19)"/><path d="M33.28,132.27q-.47-.08-.93-.12a.19.19,0,0,0-.24.2c0,.28,0,.57,0,.85a.28.28,0,0,0,.27.27l.92.13a.19.19,0,0,0,.24-.2c0-.29,0-.58,0-.86A.3.3,0,0,0,33.28,132.27Z" transform="translate(-14.04 -127.19)"/><path d="M21.21,133.41c0-.36,0-.72.05-1.07,0-.12-.11-.2-.26-.17l-1.23.25a.37.37,0,0,0-.27.28c0,.35,0,.71-.05,1.07,0,.13.11.2.25.17l1.24-.25A.32.32,0,0,0,21.21,133.41Z" transform="translate(-14.04 -127.19)"/><path d="M36.57,157.78c-.36,2.55-.77,5.12-1.22,7.59a.86.86,0,0,1-.5.63c-.25.09-.6.22-1.05.35l-1,.26h0l0,0h0a22.23,22.23,0,0,1-6.68.63,25.09,25.09,0,0,1-6.65-1.41h0l0,0-.27-.1c-.27-.09-.52-.19-.75-.28-.49-.19-.88-.36-1.15-.49a.94.94,0,0,1-.5-.65c-.44-2.34-.83-4.76-1.19-7.15,0-.28.09-.5.32-.51l1.14,0,1,0c1.74,0,4.45,0,8.15.06s6.48.22,8.2.35l1,.08c.48,0,.82.09,1,.13S36.62,157.48,36.57,157.78Z" transform="translate(-14.04 -127.19)"/><path d="M47.47,156l-.31-.15c-1.66-.76-2.5-1.58-2.5-2.44a1.61,1.61,0,0,1,.54-1.29,2.17,2.17,0,0,1,1.5-.49,2.31,2.31,0,0,1,1.18.31,3,3,0,0,1,1,1l.07.1L51,152l0-.11a3.57,3.57,0,0,0-1.62-1.93,5.76,5.76,0,0,0-2.88-.66,4.87,4.87,0,0,0-3.39,1.18,4,4,0,0,0-1.3,3.11,3.78,3.78,0,0,0,.86,2.5,10.93,10.93,0,0,0,3.4,2.26c.11,0,.26.12.47.22,1.43.68,2.15,1.44,2.15,2.28a2,2,0,0,1-.61,1.54,2.3,2.3,0,0,1-1.66.58,3.1,3.1,0,0,1-1.84-.51,2.65,2.65,0,0,1-1-1.48l0-.15-2.2,1,0,.1a4.33,4.33,0,0,0,1.68,2.63,5.44,5.44,0,0,0,3.26.92,5.31,5.31,0,0,0,3.76-1.31,4.6,4.6,0,0,0,1.4-3.52,3.87,3.87,0,0,0-.87-2.56A9.28,9.28,0,0,0,47.47,156Z" transform="translate(-14.04 -127.19)"/><rect x="40.56" y="22.42" width="2.73" height="15.45"/><polygon points="46.96 22.42 46.96 24.78 53.31 24.78 45.56 37.88 57.55 37.88 57.55 35.41 49.88 35.41 57.55 22.42 46.96 22.42"/><polygon points="60.11 37.88 68.84 37.88 68.84 35.41 62.83 35.41 62.83 31.3 68.08 31.3 68.08 28.87 62.83 28.87 62.83 24.78 68.84 24.78 68.84 22.42 60.11 22.42 60.11 37.88"/><path d="M95,158.63c0,.09-.11.23-.19.41q-.36.78-.57,1.35c-.15-.38-.28-.71-.4-1s-.24-.61-.31-.77l-4.65-9.93-3.71,16.36h2.54l1.65-7.58a9.29,9.29,0,0,0,.2-1.11c0-.11,0-.22,0-.33,0,.1.08.2.11.3.13.32.27.66.44,1l4.09,8.5,4.09-8.33a9.44,9.44,0,0,0,.44-1.08c0-.12.08-.24.11-.36,0,.12,0,.26,0,.4.06.54.11.87.14,1l1.7,7.6h2.56l-3.8-16.36Z" transform="translate(-14.04 -127.19)"/><path d="M115.22,159a4.31,4.31,0,0,1-.92,3,4.29,4.29,0,0,1-5.48,0,4.31,4.31,0,0,1-.92-3v-9.36h-2.69v9.59a6.4,6.4,0,0,0,1.58,4.71,8.08,8.08,0,0,0,9.56,0,6.33,6.33,0,0,0,1.59-4.7v-9.59h-2.72Z" transform="translate(-14.04 -127.19)"/><path d="M135.93,157.58c0-.18,0-.33,0-.43V157h-6.28v2.34h3.65v.1a3.19,3.19,0,0,1-1.16,2.59,5.1,5.1,0,0,1-3.26.95,5.3,5.3,0,0,1-4-1.56,5.66,5.66,0,0,1-1.53-4.09,5.53,5.53,0,0,1,1.53-4,5.33,5.33,0,0,1,3.94-1.54,5.1,5.1,0,0,1,2.11.42,4.93,4.93,0,0,1,1.69,1.3l.08.09,2-1.52-.09-.1a7.49,7.49,0,0,0-2.57-2,7.8,7.8,0,0,0-3.27-.66,9,9,0,0,0-3.24.58,7.81,7.81,0,0,0-4.42,4.29,8.71,8.71,0,0,0-.6,3.23,8.81,8.81,0,0,0,.59,3.22,7.69,7.69,0,0,0,1.68,2.63,7.26,7.26,0,0,0,2.61,1.69,9.66,9.66,0,0,0,3.38.56,7.31,7.31,0,0,0,5.27-1.81,6.75,6.75,0,0,0,1.88-5.08C136,158.41,136,158.08,135.93,157.58Z" transform="translate(-14.04 -127.19)"/></svg>