<svg width="24" height="25" viewBox="0 0 24 25" fill="none" xmlns="http://www.w3.org/2000/svg">
<path d="M11.282 3.74609V9.14832H3.51679C4.337 6.62148 6.4185 4.68454 9.02975 4.07068C9.77194 3.8962 10.5256 3.788 11.282 3.74609Z" fill="#1C64F2"/>
<path d="M12.718 3.74609V14.9047H20.8204C21.1058 13.2017 21.0511 11.4559 20.6563 9.76928C19.9945 6.94172 17.7916 4.73393 14.9703 4.07068C14.2281 3.8962 13.4744 3.788 12.718 3.74609Z" fill="#1C64F2"/>
<path d="M20.4832 16.3438H12.718V21.7461C13.4744 21.7042 14.2281 21.596 14.9703 21.4215C17.5815 20.8076 19.663 18.8707 20.4832 16.3438Z" fill="#1C64F2"/>
<path d="M11.282 21.7461V10.5874H3.17959C2.89423 12.2905 2.94894 14.0363 3.3437 15.7229C4.0055 18.5505 6.20842 20.7583 9.02975 21.4215C9.77194 21.596 10.5256 21.7042 11.282 21.7461Z" fill="#1C64F2"/>
</svg>
