<svg width="24" height="25" viewBox="0 0 24 25" fill="none" xmlns="http://www.w3.org/2000/svg">
<path fill-rule="evenodd" clip-rule="evenodd" d="M3.51146 13.7413V7.99821C3.51146 6.106 4.79687 4.43928 6.61272 3.93673C7.06583 3.81133 7.53975 3.74609 8.00974 3.74609H8.8677C10.5489 3.74609 12.5221 5.05726 13.2463 6.7909C14.0365 6.84669 14.8239 6.9556 15.6032 7.11764C17.8007 7.57456 19.5611 9.27056 20.1376 11.4493C20.6165 13.2591 20.6229 15.1874 20.144 16.9972C19.5585 19.21 17.779 20.9008 15.5471 21.3649L15.3918 21.3972C13.1543 21.8624 10.8457 21.8624 8.60824 21.3972L8.45287 21.3649C6.22102 20.9008 4.44153 19.2101 3.85597 16.9972C3.6626 16.2664 3.54835 15.5163 3.5124 14.7625L3.51146 14.7599V14.7425C3.49617 14.409 3.49619 14.0748 3.51146 13.7413ZM14.7132 8.89443C14.372 8.83728 14.0492 9.0689 13.9923 9.41176C13.9354 9.75461 14.166 10.0789 14.5073 10.136L14.5499 10.1432C16.0307 10.3911 17.1161 11.6783 17.1161 13.1865C17.1161 13.5341 17.3966 13.8158 17.7426 13.8158C18.0885 13.8158 18.369 13.5341 18.369 13.1865C18.369 11.063 16.8409 9.25067 14.7559 8.90156L14.7132 8.89443Z" fill="url(#paint0_linear_3_3963)"/>
<defs>
<linearGradient id="paint0_linear_3_3963" x1="3.5" y1="18.4161" x2="20.95" y2="9.18697" gradientUnits="userSpaceOnUse">
<stop stop-color="#37B6F2"/>
<stop offset="1" stop-color="#31C6FE"/>
</linearGradient>
</defs>
</svg>
