<svg width="24" height="25" viewBox="0 0 24 25" fill="none" xmlns="http://www.w3.org/2000/svg">
<path fill-rule="evenodd" clip-rule="evenodd" d="M14.9703 21.4024C13.0166 21.8607 10.9834 21.8607 9.02977 21.4024C6.20842 20.7407 4.0055 18.5377 3.3437 15.7164C2.88543 13.7627 2.88543 11.7295 3.3437 9.77586C4.0055 6.95452 6.20842 4.75159 9.02977 4.08979C10.9834 3.63153 13.0166 3.63153 14.9703 4.08979C17.7916 4.75159 19.9946 6.95451 20.6564 9.77585C21.1146 11.7295 21.1146 13.7627 20.6564 15.7164C19.9946 18.5377 17.7916 20.7407 14.9703 21.4024ZM14.8175 14.1276C15.0518 13.8933 15.0518 13.5134 14.8175 13.2791C14.5832 13.0448 14.2033 13.0448 13.969 13.2791L12.6 14.6481L12.6 9.39558C12.6 9.06421 12.3314 8.79558 12 8.79558C11.6686 8.79558 11.4 9.06421 11.4 9.39558V14.6481L10.031 13.2791C9.79673 13.0448 9.41683 13.0448 9.18252 13.2791C8.9482 13.5134 8.9482 13.8933 9.18252 14.1276L11.5757 16.5209C11.6883 16.6334 11.8409 16.6966 12 16.6966C12.1591 16.6966 12.3117 16.6334 12.4243 16.5209L14.8175 14.1276Z" fill="url(#paint0_linear_3_3973)"/>
<defs>
<linearGradient id="paint0_linear_3_3973" x1="3" y1="18.4161" x2="21" y2="8.33609" gradientUnits="userSpaceOnUse">
<stop stop-color="#E592C9"/>
<stop offset="1" stop-color="#F3627E"/>
</linearGradient>
</defs>
</svg>
