<svg width="54" height="70" viewBox="0 0 54 70" fill="none" xmlns="http://www.w3.org/2000/svg">
<g filter="url(#filter0_d_10_12288)">
<path d="M19.9995 38.6621L26.4258 42.3723L13.3761 64.975L9.63056 56.6217L19.9995 38.6621Z" fill="#AA75CB"/>
<path d="M19.9995 38.6621L13.5733 34.9519L0.52357 57.5546L9.63056 56.6217L19.9995 38.6621Z" fill="#73488D"/>
<path d="M29.1675 38.6621L22.7412 42.3723L35.7909 64.975L39.5364 56.6217L29.1675 38.6621Z" fill="#73488D"/>
<path d="M29.1675 38.6621L35.5937 34.9519L48.6434 57.5546L39.5364 56.6217L29.1675 38.6621Z" fill="#AA75CB"/>
<circle cx="24.5731" cy="23.099" r="22.3193" fill="#DC9E42" stroke="#774700" stroke-width="0.38983"/>
<circle cx="24.573" cy="23.0992" r="17.2701" fill="#734C12"/>
<mask id="mask0_10_12288" style="mask-type:alpha" maskUnits="userSpaceOnUse" x="8" y="7" width="35" height="36">
<circle cx="25.4948" cy="24.9431" r="17.3103" fill="#C28B37"/>
</mask>
<g mask="url(#mask0_10_12288)">
<circle cx="24.573" cy="23.0993" r="17.3103" fill="#A36D1D"/>
</g>
<path d="M24.6663 11.0566L28.4004 18.5248L35.8685 19.4583L30.7404 25.2088L32.1345 33.4611L24.6663 29.727L17.1982 33.4611L18.6047 25.2088L13.4641 19.4583L20.9322 18.5248L24.6663 11.0566Z" fill="url(#paint0_linear_10_12288)"/>
</g>
<defs>
<filter id="filter0_d_10_12288" x="0.218251" y="0.27953" width="53.0065" height="69.2765" filterUnits="userSpaceOnUse" color-interpolation-filters="sRGB">
<feFlood flood-opacity="0" result="BackgroundImageFix"/>
<feColorMatrix in="SourceAlpha" type="matrix" values="0 0 0 0 0 0 0 0 0 0 0 0 0 0 0 0 0 0 127 0" result="hardAlpha"/>
<feOffset dx="2.13802" dy="2.13802"/>
<feGaussianBlur stdDeviation="1.22172"/>
<feComposite in2="hardAlpha" operator="out"/>
<feColorMatrix type="matrix" values="0 0 0 0 0 0 0 0 0 0 0 0 0 0 0 0 0 0 0.3 0"/>
<feBlend mode="normal" in2="BackgroundImageFix" result="effect1_dropShadow_10_12288"/>
<feBlend mode="normal" in="SourceGraphic" in2="effect1_dropShadow_10_12288" result="shape"/>
</filter>
<linearGradient id="paint0_linear_10_12288" x1="24.6663" y1="11.0566" x2="24.6663" y2="33.4611" gradientUnits="userSpaceOnUse">
<stop stop-color="#FCFF80"/>
<stop offset="0.401042" stop-color="#FDE870"/>
<stop offset="1" stop-color="#FFC759"/>
</linearGradient>
</defs>
</svg>
