<svg width="41" height="68" viewBox="0 0 41 68" fill="none" xmlns="http://www.w3.org/2000/svg">
<g filter="url(#filter0_d_10_12323)">
<rect x="16.8176" y="24.1738" width="3.83622" height="6.53579" rx="1.91811" fill="#C09525"/>
<path d="M34.5779 23.9394C34.5779 25.0958 33.6405 26.0332 32.4841 26.0332L5.12939 26.0332C3.97302 26.0332 3.0356 25.0958 3.0356 23.9394L3.0356 19.7441C3.0356 18.5878 3.97302 17.6503 5.12939 17.6503L6.86931 17.6503L6.86931 22.0549L30.7442 22.0549L30.7442 17.6503L32.4841 17.6503C33.6405 17.6503 34.5779 18.5878 34.5779 19.7441L34.5779 23.9394Z" fill="#836600"/>
<path d="M34.5779 23.4111C34.5779 24.5675 33.6405 25.5049 32.4841 25.5049L5.12939 25.5049C3.97302 25.5049 3.0356 24.5675 3.0356 23.4111L3.0356 19.2158C3.0356 18.0594 3.97302 17.122 5.12939 17.122L6.86931 17.122L6.86931 21.5266L30.7442 21.5266L30.7442 17.122L32.4841 17.122C33.6405 17.122 34.5779 18.0594 34.5779 19.2158L34.5779 23.4111Z" fill="#F4CC3F"/>
<path d="M30.7417 21.6221L6.87186 21.6221L6.87186 0.805942L18.8068 0.805943L30.7417 0.805944L30.7417 21.6221Z" fill="#2874BA"/>
<path d="M23.3755 21.6211L14.2381 21.6211L14.2381 0.804967L23.3755 0.804968L23.3755 21.6211Z" fill="#2D4071"/>
<path opacity="0.5" d="M30.7625 3.70898L6.74276 3.70898L6.74276 0.805506L30.7625 0.805508L30.7625 3.70898Z" fill="url(#paint0_linear_10_12323)"/>
<path d="M7.00684 20.0732H30.7626V21.657H7.00684L7.00684 20.0732Z" fill="url(#paint1_linear_10_12323)"/>
<path d="M17.689 28.38C18.2992 27.8559 19.2007 27.8559 19.811 28.38L21.9231 30.1939C22.3157 30.5311 22.8452 30.6616 23.3495 30.5455L26.0627 29.9209C26.8466 29.7404 27.6448 30.1594 27.9416 30.907L28.9689 33.4948C29.1598 33.9757 29.568 34.3374 30.0685 34.4689L32.7612 35.1767C33.5392 35.3812 34.0513 36.1232 33.9666 36.9231L33.6736 39.6918C33.6191 40.2065 33.8125 40.7163 34.1945 41.0654L36.2498 42.9435C36.8437 43.4861 36.9523 44.3811 36.5056 45.0501L34.9595 47.3655C34.6721 47.7958 34.6064 48.3372 34.7824 48.8238L35.7295 51.4419C36.0031 52.1984 35.6835 53.0413 34.977 53.426L32.532 54.7577C32.0775 55.0052 31.7677 55.454 31.6975 55.9667L31.3194 58.7251C31.2101 59.522 30.5353 60.1198 29.731 60.1322L26.9472 60.1751C26.4297 60.183 25.9469 60.4365 25.6464 60.8578L24.0297 63.1245C23.5626 63.7794 22.6873 63.9952 21.9694 63.6323L19.4845 62.3765C19.0226 62.1431 18.4773 62.1431 18.0155 62.3765L15.5306 63.6323C14.8126 63.9952 13.9373 63.7794 13.4702 63.1245L11.8535 60.8578C11.5531 60.4365 11.0702 60.183 10.5528 60.1751L7.76893 60.1322C6.96461 60.1198 6.28983 59.522 6.18059 58.7251L5.80249 55.9667C5.73222 55.454 5.42245 55.0052 4.96798 54.7577L2.52292 53.426C1.81648 53.0413 1.49681 52.1984 1.77045 51.4419L2.71755 48.8238C2.89358 48.3372 2.82785 47.7958 2.54047 47.3655L0.994335 45.0501C0.547616 44.3811 0.65628 43.4861 1.25012 42.9435L3.30544 41.0654C3.68746 40.7163 3.88083 40.2065 3.82637 39.6918L3.53335 36.9231C3.44869 36.1232 3.9608 35.3812 4.73879 35.1767L7.43149 34.4689C7.93198 34.3374 8.34015 33.9757 8.53108 33.4948L9.55831 30.907C9.8551 30.1594 10.6533 29.7404 11.4373 29.9209L14.1505 30.5455C14.6548 30.6616 15.1842 30.5311 15.5768 30.1939L17.689 28.38Z" fill="url(#paint2_linear_10_12323)"/>
<circle cx="18.7356" cy="46.044" r="13.1426" fill="#705100"/>
<mask id="mask0_10_12323" style="mask-type:alpha" maskUnits="userSpaceOnUse" x="6" y="34" width="27" height="27">
<circle cx="19.4371" cy="47.4476" r="13.1732" fill="#C28B37"/>
</mask>
<g mask="url(#mask0_10_12323)">
<circle cx="18.7355" cy="46.0443" r="13.1732" fill="#DBA007"/>
</g>
<ellipse cx="18.9408" cy="46.2012" rx="9.8468" ry="10.0137" fill="#A36D1D"/>
<circle opacity="0.8" cx="18.9407" cy="46.0347" r="9.17922" fill="url(#paint3_linear_10_12323)"/>
<ellipse cx="19.1075" cy="46.0349" rx="5.34064" ry="5.50753" fill="#B5760C"/>
<ellipse opacity="0.8" cx="19.1076" cy="45.7003" rx="4.67306" ry="4.83996" fill="url(#paint4_linear_10_12323)"/>
</g>
<defs>
<filter id="filter0_d_10_12323" x="0.480082" y="0.564555" width="39.9017" height="66.8451" filterUnits="userSpaceOnUse" color-interpolation-filters="sRGB">
<feFlood flood-opacity="0" result="BackgroundImageFix"/>
<feColorMatrix in="SourceAlpha" type="matrix" values="0 0 0 0 0 0 0 0 0 0 0 0 0 0 0 0 0 0 127 0" result="hardAlpha"/>
<feOffset dx="1.68093" dy="1.68093"/>
<feGaussianBlur stdDeviation="0.960531"/>
<feComposite in2="hardAlpha" operator="out"/>
<feColorMatrix type="matrix" values="0 0 0 0 0 0 0 0 0 0 0 0 0 0 0 0 0 0 0.3 0"/>
<feBlend mode="normal" in2="BackgroundImageFix" result="effect1_dropShadow_10_12323"/>
<feBlend mode="normal" in="SourceGraphic" in2="effect1_dropShadow_10_12323" result="shape"/>
</filter>
<linearGradient id="paint0_linear_10_12323" x1="18.7526" y1="3.70898" x2="18.7526" y2="0.805507" gradientUnits="userSpaceOnUse">
<stop stop-color="#48648D" stop-opacity="0"/>
<stop offset="1" stop-color="#73488D" stop-opacity="0.48"/>
<stop offset="1" stop-color="#48648D" stop-opacity="0.48"/>
</linearGradient>
<linearGradient id="paint1_linear_10_12323" x1="18.8847" y1="20.0732" x2="18.8847" y2="21.657" gradientUnits="userSpaceOnUse">
<stop stop-color="#48608D" stop-opacity="0"/>
<stop offset="1" stop-color="#486C8D" stop-opacity="0.48"/>
</linearGradient>
<linearGradient id="paint2_linear_10_12323" x1="18.75" y1="27.4687" x2="18.75" y2="64.8056" gradientUnits="userSpaceOnUse">
<stop stop-color="#FFD951"/>
<stop offset="1" stop-color="#A96500"/>
</linearGradient>
<linearGradient id="paint3_linear_10_12323" x1="18.9407" y1="36.8555" x2="18.9407" y2="55.2139" gradientUnits="userSpaceOnUse">
<stop stop-color="#D79B00"/>
<stop offset="1" stop-color="#FFDD64"/>
</linearGradient>
<linearGradient id="paint4_linear_10_12323" x1="19.1076" y1="40.8604" x2="19.1076" y2="50.5403" gradientUnits="userSpaceOnUse">
<stop offset="0.0001" stop-color="#FFDA95"/>
<stop offset="0.0002" stop-color="#FFE2A9"/>
<stop offset="1" stop-color="#E6D224"/>
</linearGradient>
</defs>
</svg>
