<svg width="24" height="24" viewBox="0 0 24 24" fill="none" xmlns="http://www.w3.org/2000/svg">
<path d="M21.0563 13.5906V19.5126C21.0563 19.9266 20.8223 20.2619 20.3078 20.2619C20.1833 20.2619 19.875 19.9964 19.4963 19.5966V3.70114C19.875 3.30139 20.1833 3.03589 20.3078 3.03589C20.8688 3.03589 21.0563 3.37114 21.0563 3.78439V9.85639C22.071 9.88489 23.016 10.7076 23.016 11.7231C23.016 12.7394 22.071 13.5621 21.0563 13.5906ZM9.01127 15.0344C9.05777 15.0344 9.01127 8.26264 9.01127 8.26264C14.154 8.26264 17.2028 6.00514 18.8093 4.45714V18.8399C17.2028 17.2926 14.154 15.0344 9.01127 15.0344ZM6.01577 20.9639L4.51802 15.0186H3.01952C3.01952 15.0186 2.57402 14.0076 2.37152 12.7716C1.98977 12.7716 1.65602 12.7716 1.52102 12.7716C1.10777 12.7716 0.772522 12.4364 0.772522 12.0224V11.2739C0.772522 10.8599 1.10777 10.5246 1.52102 10.5246C1.65602 10.5246 1.98977 10.5246 2.37152 10.5246C2.57477 9.28864 3.01952 8.27839 3.01952 8.27839H8.26202V15.0186H6.76427L6.95327 15.7671H7.70102L8.07527 17.2656H7.32977L8.26202 20.9639H6.01577Z" fill="white"/>
</svg>
