<svg width="41" height="40" viewBox="0 0 41 40" fill="none" xmlns="http://www.w3.org/2000/svg">
<rect x="0.25" width="40" height="40" rx="20" fill="#192232"/>
<path fill-rule="evenodd" clip-rule="evenodd" d="M21.7322 11.9513C23.76 12.4265 25.3816 13.9148 25.9338 15.835L26.708 15.3744C28.6852 14.1981 31.25 15.5512 31.25 17.7707L31.25 22.5944C31.25 24.6951 28.9276 26.0613 26.9537 25.1219L25.7985 24.572C25.1465 26.2938 23.6143 27.6076 21.7322 28.0487C19.1845 28.6457 16.4935 28.653 13.9425 28.0551C11.842 27.5629 10.2155 25.9809 9.74366 23.9713L9.67818 23.6925C9.10727 21.2608 9.10727 18.7392 9.67818 16.3075L9.74366 16.0286C10.2155 14.0191 11.842 12.4371 13.9425 11.9449C16.4935 11.347 19.1845 11.3543 21.7322 11.9513ZM26.2406 22.8481C26.5634 21.1277 26.5914 19.3698 26.3245 17.6428L27.6713 16.8416C28.438 16.3854 29.4325 16.9101 29.4325 17.7707L29.4325 22.5944C29.4325 23.4089 28.5319 23.9387 27.7666 23.5744L26.2406 22.8481Z" fill="white"/>
</svg>
