<svg width="25" height="24" viewBox="0 0 25 24" fill="none" xmlns="http://www.w3.org/2000/svg">
<path fill-rule="evenodd" clip-rule="evenodd" d="M17.2731 15.6998C17.8723 15.6109 18.6442 15.5936 19.7039 15.5905C18.9502 17.4179 17.3557 18.7978 15.3923 19.2583L15.3878 19.2594C15.3976 18.4971 15.4249 17.9092 15.4996 17.4344C15.5972 16.8132 15.7641 16.4699 16.0134 16.2207C16.2685 15.9656 16.6224 15.7964 17.2731 15.6998ZM15.7203 3.3437C13.7666 2.88543 11.7334 2.88543 9.77975 3.3437C6.95842 4.00549 4.7555 6.20841 4.0937 9.02974C3.63543 10.9834 3.63543 13.0166 4.0937 14.9703C4.7555 17.7916 6.95842 19.9945 9.77975 20.6563C11.4207 21.0412 13.1177 21.1028 14.7766 20.8411C15.0928 20.7913 15.4075 20.7297 15.7203 20.6563C18.5416 19.9945 20.7445 17.7916 21.4063 14.9703C21.8646 13.0166 21.8646 10.9834 21.4063 9.02975C20.7445 6.20842 18.5416 4.00549 15.7203 3.3437ZM9.30374 9.12812C9.30374 8.8109 9.5609 8.55374 9.87812 8.55374H12.75C13.0672 8.55374 13.3243 8.8109 13.3243 9.12812C13.3243 9.44533 13.0672 9.70249 12.75 9.70249H9.87812C9.5609 9.70249 9.30374 9.44533 9.30374 9.12812ZM9.30374 12C9.30374 11.6828 9.5609 11.4256 9.87812 11.4256H14.6645C14.9818 11.4256 15.2389 11.6828 15.2389 12C15.2389 12.3172 14.9818 12.5743 14.6645 12.5743H9.87812C9.5609 12.5743 9.30374 12.3172 9.30374 12Z" fill="white"/>
</svg>
