<svg width="41" height="40" viewBox="0 0 41 40" fill="none" xmlns="http://www.w3.org/2000/svg">
<rect x="0.75" width="40" height="40" rx="20" fill="#192232"/>
<path fill-rule="evenodd" clip-rule="evenodd" d="M17.1336 11C17.5081 11 17.8117 11.3115 17.8117 11.6958V11.9217C17.8559 11.9101 17.9002 11.899 17.9448 11.8883C19.7899 11.4442 21.7101 11.4442 23.5552 11.8883C23.5998 11.899 23.6441 11.9101 23.6883 11.9217V11.6958C23.6883 11.3115 23.9919 11 24.3664 11C24.7409 11 25.0445 11.3115 25.0445 11.6958V12.429C26.9777 13.3873 28.4226 15.1992 28.9254 17.399C29.3582 19.2924 29.3582 21.2628 28.9254 23.1562C28.3004 25.8905 26.2198 28.0255 23.5552 28.6669C21.7101 29.111 19.7899 29.111 17.9448 28.6669C15.2802 28.0255 13.1996 25.8906 12.5746 23.1562C12.1418 21.2628 12.1418 19.2924 12.5746 17.399C13.0774 15.1992 14.5223 13.3873 16.4555 12.429V11.6958C16.4555 11.3115 16.7591 11 17.1336 11ZM19.7774 17.8879C19.9893 17.6705 19.9893 17.3181 19.7774 17.1007C19.5656 16.8833 19.2221 16.8833 19.0103 17.1007L17.5856 18.5626L17.0651 18.0285C16.8533 17.8111 16.5098 17.8111 16.298 18.0285C16.0861 18.2458 16.0861 18.5983 16.298 18.8157L17.2021 19.7435C17.4139 19.9608 17.7574 19.9608 17.9692 19.7435L19.7774 17.8879ZM21.6541 18.3293C21.3545 18.3293 21.1116 18.5785 21.1116 18.886C21.1116 19.1934 21.3545 19.4426 21.6541 19.4426H24.8185C25.1181 19.4426 25.3609 19.1934 25.3609 18.886C25.3609 18.5785 25.1181 18.3293 24.8185 18.3293H21.6541ZM19.7774 22.5267C19.9893 22.3093 19.9893 21.9569 19.7774 21.7395C19.5656 21.5221 19.2221 21.5221 19.0103 21.7395L17.5856 23.2014L17.0651 22.6673C16.8533 22.4499 16.5098 22.4499 16.298 22.6673C16.0861 22.8846 16.0861 23.2371 16.298 23.4545L17.2021 24.3822C17.4139 24.5996 17.7574 24.5996 17.9692 24.3822L19.7774 22.5267ZM21.6541 22.9681C21.3545 22.9681 21.1116 23.2173 21.1116 23.5248C21.1116 23.8322 21.3545 24.0814 21.6541 24.0814H24.8185C25.1181 24.0814 25.3609 23.8322 25.3609 23.5248C25.3609 23.2173 25.1181 22.9681 24.8185 22.9681H21.6541Z" fill="white"/>
</svg>
