<svg width="41" height="40" viewBox="0 0 41 40" fill="none" xmlns="http://www.w3.org/2000/svg">
<rect x="0.75" width="40" height="40" rx="20" fill="#192232"/>
<path fill-rule="evenodd" clip-rule="evenodd" d="M25.2731 23.6998C25.8723 23.6109 26.6442 23.5936 27.7039 23.5905C26.9502 25.4179 25.3557 26.7978 23.3923 27.2583L23.3878 27.2594C23.3976 26.4971 23.4249 25.9092 23.4996 25.4344C23.5972 24.8132 23.7641 24.4699 24.0134 24.2207C24.2685 23.9656 24.6224 23.7964 25.2731 23.6998ZM23.7203 11.3437C21.7666 10.8854 19.7334 10.8854 17.7797 11.3437C14.9584 12.0055 12.7555 14.2084 12.0937 17.0297C11.6354 18.9834 11.6354 21.0166 12.0937 22.9703C12.7555 25.7916 14.9584 27.9945 17.7798 28.6563C19.4207 29.0412 21.1177 29.1028 22.7766 28.8411C23.0928 28.7913 23.4075 28.7297 23.7203 28.6563C26.5416 27.9945 28.7445 25.7916 29.4063 22.9703C29.8646 21.0166 29.8646 18.9834 29.4063 17.0297C28.7445 14.2084 26.5416 12.0055 23.7203 11.3437ZM17.3037 17.1281C17.3037 16.8109 17.5609 16.5537 17.8781 16.5537H20.75C21.0672 16.5537 21.3243 16.8109 21.3243 17.1281C21.3243 17.4453 21.0672 17.7025 20.75 17.7025H17.8781C17.5609 17.7025 17.3037 17.4453 17.3037 17.1281ZM17.3037 20C17.3037 19.6828 17.5609 19.4256 17.8781 19.4256H22.6645C22.9818 19.4256 23.2389 19.6828 23.2389 20C23.2389 20.3172 22.9818 20.5743 22.6645 20.5743H17.8781C17.5609 20.5743 17.3037 20.3172 17.3037 20Z" fill="white"/>
</svg>
