<svg width="41" height="40" viewBox="0 0 41 40" fill="none" xmlns="http://www.w3.org/2000/svg">
<rect x="0.75" width="40" height="40" rx="20" fill="#192232"/>
<path d="M17.4167 14.6667L26.75 11.3334L22.75 18L21.4167 24.6667L19.4167 27.3334L12.0834 26L12.75 23.3334L17.4167 14.6667Z" fill="white"/>
<path d="M12.75 32L12.4978 27.9662C11.9119 18.5916 19.3571 10.6666 28.75 10.6666V10.6666L27.1268 11.9651C26.5991 12.3873 26.3353 12.5984 26.0947 12.813C23.7098 14.9406 22.2722 17.9318 22.1006 21.1233C22.0833 21.4451 22.0833 21.783 22.0833 22.4589V22.4589C22.0833 22.9968 22.0833 23.2658 22.0605 23.4784C21.8254 25.6711 19.8601 27.2598 17.6669 27.0303C17.4542 27.008 17.1912 26.9517 16.6652 26.8389L12.75 26" stroke="white" stroke-width="2"/>
</svg>
