<svg width="32" height="32" viewBox="0 0 32 32" fill="none" xmlns="http://www.w3.org/2000/svg">
<path d="M16 6.19355C10.584 6.19355 6.19355 10.584 6.19355 16C6.19355 21.416 10.584 25.8064 16 25.8064C21.416 25.8064 25.8064 21.416 25.8064 16C25.8064 10.584 21.416 6.19355 16 6.19355Z" fill="white"/>
<path fill-rule="evenodd" clip-rule="evenodd" d="M16 0C16.8552 0 17.5484 0.693236 17.5484 1.54839V1.66711C17.5484 2.52226 16.8552 3.2155 16 3.2155C15.1448 3.2155 14.4516 2.52226 14.4516 1.66711V1.54839C14.4516 0.693236 15.1448 0 16 0ZM4.5825 4.58254C5.18719 3.97786 6.16757 3.97786 6.77225 4.58254L6.95998 4.77027C7.56466 5.37495 7.56466 6.35534 6.95998 6.96002C6.3553 7.5647 5.37491 7.5647 4.77023 6.96002L4.5825 6.77229C3.97782 6.16761 3.97782 5.18723 4.5825 4.58254ZM27.4175 4.58255C28.0222 5.18723 28.0222 6.16762 27.4175 6.7723L27.2298 6.96003C26.6251 7.56471 25.6447 7.56471 25.0401 6.96002C24.4354 6.35534 24.4354 5.37495 25.0401 4.77027L25.2278 4.58254C25.8325 3.97786 26.8129 3.97786 27.4175 4.58255ZM0 16C0 15.1448 0.693236 14.4516 1.54839 14.4516H1.66711C2.52226 14.4516 3.2155 15.1448 3.2155 16C3.2155 16.8552 2.52226 17.5484 1.66711 17.5484H1.54839C0.693236 17.5484 0 16.8552 0 16ZM28.7846 16C28.7846 15.1448 29.4778 14.4516 30.333 14.4516H30.4516C31.3068 14.4516 32 15.1448 32 16C32 16.8552 31.3068 17.5484 30.4516 17.5484H30.333C29.4778 17.5484 28.7846 16.8552 28.7846 16ZM25.0399 25.0402C25.6446 24.4355 26.6249 24.4354 27.2297 25.04L27.4173 25.2276C28.0221 25.8322 28.0222 26.8126 27.4176 27.4173C26.8129 28.0221 25.8325 28.0222 25.2278 27.4176L25.0401 27.2299C24.4354 26.6253 24.4353 25.6449 25.0399 25.0402ZM6.95986 25.04C7.56461 25.6446 7.56473 26.625 6.96011 27.2297L6.77244 27.4174C6.16782 28.0222 5.18744 28.0223 4.58269 27.4177C3.97793 26.8131 3.97782 25.8327 4.58243 25.2279L4.77011 25.0402C5.37472 24.4355 6.35511 24.4353 6.95986 25.04ZM16 28.7846C16.8552 28.7846 17.5484 29.4778 17.5484 30.333V30.4516C17.5484 31.3068 16.8552 32 16 32C15.1449 32 14.4516 31.3068 14.4516 30.4516V30.333C14.4516 29.4778 15.1449 28.7846 16 28.7846Z" fill="white"/>
</svg>
