<svg width="32" height="32" viewBox="0 0 32 32" fill="none" xmlns="http://www.w3.org/2000/svg">
<path d="M28.1631 0.473521C27.9394 -0.15784 27.0465 -0.15784 26.8228 0.473521L26.0561 2.63744C25.9844 2.83954 25.8255 2.99852 25.6234 3.07013L23.4594 3.83688C22.8281 4.0606 22.8281 4.95348 23.4594 5.17719L25.6234 5.94394C25.8255 6.01555 25.9844 6.17454 26.0561 6.37663L26.8228 8.54055C27.0465 9.17191 27.9394 9.17191 28.1631 8.54055L28.9299 6.37663C29.0015 6.17454 29.1605 6.01555 29.3626 5.94394L31.5265 5.17719C32.1578 4.95348 32.1578 4.0606 31.5265 3.83688L29.3626 3.07013C29.1605 2.99852 29.0015 2.83954 28.9299 2.63744L28.1631 0.473521Z" fill="white"/>
<path d="M19.8187 7.53837C19.9733 7.10222 20.5901 7.10222 20.7446 7.53837L21.1672 8.73102C21.2167 8.87063 21.3265 8.98046 21.4661 9.02993L22.6588 9.45253C23.095 9.60707 23.095 10.2239 22.6588 10.3784L21.4661 10.801C21.3265 10.8505 21.2167 10.9603 21.1672 11.0999L20.7446 12.2926C20.5901 12.7287 19.9733 12.7287 19.8187 12.2926L19.3961 11.0999C19.3467 10.9603 19.2368 10.8505 19.0972 10.801L17.9046 10.3784C17.4684 10.2239 17.4684 9.60707 17.9046 9.45253L19.0972 9.02993C19.2368 8.98046 19.3467 8.87063 19.3961 8.73102L19.8187 7.53837Z" fill="white"/>
<path d="M24.4801 12.8378C24.5831 12.547 24.9943 12.547 25.0974 12.8378L25.3791 13.6329C25.4121 13.726 25.4853 13.7992 25.5784 13.8322L26.3735 14.1139C26.6642 14.2169 26.6642 14.6281 26.3735 14.7311L25.5784 15.0129C25.4853 15.0459 25.4121 15.1191 25.3791 15.2122L25.0974 16.0073C24.9943 16.298 24.5831 16.298 24.4801 16.0073L24.1984 15.2122C24.1654 15.1191 24.0922 15.0459 23.9991 15.0129L23.204 14.7311C22.9132 14.6281 22.9132 14.2169 23.204 14.1139L23.9991 13.8322C24.0922 13.7992 24.1654 13.726 24.1984 13.6329L24.4801 12.8378Z" fill="white"/>
<path d="M14.4617 2.93478C14.7368 3.41623 14.6901 4.01687 14.3438 4.44999C12.8909 6.26741 12.0306 8.54255 12.0306 11.0123C12.0306 16.9028 16.9558 21.7436 23.1137 21.7436C24.805 21.7436 26.4036 21.3776 27.8329 20.7252C28.3353 20.4959 28.9265 20.5952 29.3265 20.9758C29.7265 21.3565 29.8548 21.9422 29.6507 22.4552C27.4221 28.0555 21.8433 32 15.3417 32C6.90554 32 0 25.3448 0 17.054C0 9.51301 5.71673 3.32225 13.0964 2.26718C13.6453 2.18869 14.1865 2.45334 14.4617 2.93478Z" fill="white"/>
</svg>
