<svg width="419" height="333" viewBox="0 0 419 333" fill="none" xmlns="http://www.w3.org/2000/svg">
<path d="M27.5023 254.179C10.1992 235.906 28.7089 187.019 56.6189 157.123C90.5579 120.774 137.346 90.199 227.784 100.596C302.463 109.186 348.829 146.849 364.599 166.251C389.677 197.087 407.795 240.593 392.692 258.587C367.346 288.79 262.627 237.4 205.826 236.352C149.024 235.305 66.1395 294.915 27.5023 254.179Z" fill="#0B45B7"/>
<path d="M295.863 224.985H98.7395L57.2779 89.4428C56.8812 88.1483 56.7941 86.7787 57.0235 85.4443C57.2529 84.1099 57.7924 82.848 58.5986 81.7602C59.4048 80.6725 60.4551 79.7892 61.6651 79.1815C62.875 78.5739 64.2108 78.2588 65.5647 78.2617H244.579C246.432 78.2614 248.236 78.856 249.726 79.9582C251.216 81.0603 252.312 82.6116 252.854 84.3838L295.863 224.985Z" fill="#A15FF0"/>
<path d="M263.583 208.849H122.163C120.293 208.849 118.472 208.249 116.969 207.138C115.465 206.026 114.358 204.461 113.81 202.673L82.412 100.026C82.2123 99.3745 82.1682 98.6854 82.2833 98.0139C82.3984 97.3424 82.6695 96.7073 83.0749 96.1597C83.4802 95.6121 84.0084 95.1673 84.617 94.8611C85.2255 94.5548 85.8975 94.3957 86.5788 94.3965H227.999C229.869 94.3966 231.69 94.9966 233.193 96.1084C234.697 97.2202 235.804 98.785 236.352 100.573L267.75 203.22C267.949 203.871 267.994 204.561 267.878 205.232C267.763 205.904 267.492 206.539 267.087 207.086C266.682 207.634 266.153 208.079 265.545 208.385C264.936 208.691 264.264 208.85 263.583 208.849Z" fill="#1C3177"/>
<path d="M98.7402 224.986H363.521C365.307 224.986 367.02 225.696 368.283 226.959C369.547 228.222 370.256 229.935 370.256 231.721V240.718C370.256 242.504 369.547 244.218 368.283 245.481C367.02 246.744 365.307 247.453 363.521 247.453H105.475C104.591 247.453 103.715 247.279 102.898 246.941C102.081 246.602 101.338 246.106 100.713 245.481C100.087 244.855 99.5914 244.113 99.2529 243.296C98.9144 242.478 98.7402 241.603 98.7402 240.718V224.986Z" fill="#8837E9"/>
<path d="M131.012 156.568L147.116 138.594" stroke="#99ADF9" stroke-width="8" stroke-miterlimit="10" stroke-linecap="round"/>
<path d="M150.918 156.568L126.666 138.594" stroke="#99ADF9" stroke-width="8" stroke-miterlimit="10" stroke-linecap="round"/>
<path d="M210.535 156.568L226.639 138.594" stroke="#99ADF9" stroke-width="8" stroke-miterlimit="10" stroke-linecap="round"/>
<path d="M230.443 156.568L206.188 138.594" stroke="#99ADF9" stroke-width="8" stroke-miterlimit="10" stroke-linecap="round"/>
<path d="M170.73 167.927C170.73 167.927 183.355 160.967 196.177 167.927" stroke="#99ADF9" stroke-width="8" stroke-miterlimit="10" stroke-linecap="round"/>
<path d="M308.601 146.714C307.141 146.711 305.727 146.209 304.592 145.291C303.457 144.374 302.669 143.097 302.358 141.671C301.171 136.321 300.419 132.236 301.466 128.414C302.723 123.883 306.04 121.229 309.613 118.692C312.023 116.985 313.695 114.393 313.881 112.096C313.997 110.572 313.462 109.288 312.193 108.062C308.446 104.426 302.378 110.083 302.106 110.327C302.106 110.327 297.008 114.642 293.222 110.118C289.435 105.594 293.222 101.109 293.222 101.109C295.665 98.8415 298.475 97.0049 301.532 95.6779C308.822 92.5742 315.766 93.7381 321.089 98.8786C325.07 102.735 327.037 107.782 326.629 113.09C326.16 119.212 322.564 125.221 317.004 129.155C314.393 131.006 313.9 131.661 313.78 131.871C313.481 132.818 314.467 137.252 314.839 138.924C315.045 139.859 315.038 140.828 314.821 141.76C314.603 142.692 314.18 143.563 313.582 144.31C312.983 145.057 312.226 145.661 311.364 146.077C310.502 146.493 309.558 146.711 308.601 146.714Z" fill="#FDA629"/>
<path d="M311.685 168.914C315.784 168.914 319.107 165.591 319.107 161.492C319.107 157.393 315.784 154.07 311.685 154.07C307.586 154.07 304.264 157.393 304.264 161.492C304.264 165.591 307.586 168.914 311.685 168.914Z" fill="#FDA629"/>
</svg>
