<svg width="54" height="54" viewBox="0 0 54 54" fill="none" xmlns="http://www.w3.org/2000/svg">
<rect width="54" height="54" rx="27" fill="url(#paint0_linear_337_2396)"/>
<g clip-path="url(#clip0_337_2396)">
<path d="M24.6002 12C24.4411 12 24.2885 12.0632 24.1759 12.1757C24.0634 12.2883 24.0002 12.4409 24.0002 12.6V13.8C24.0002 13.9591 24.0634 14.1117 24.1759 14.2243C24.2885 14.3368 24.4411 14.4 24.6002 14.4H25.5002V15.9885C19.0094 16.7355 13.9502 22.2627 13.9502 28.95C13.9502 36.1449 19.8053 42 27.0002 42C34.1951 42 40.0502 36.1449 40.0502 28.95C40.0523 26.4874 39.353 24.0751 38.0342 21.9954L39.3056 20.9661L39.872 21.6657C39.9216 21.727 39.9827 21.7779 40.0519 21.8155C40.1212 21.8531 40.1971 21.8768 40.2755 21.885C40.3539 21.8933 40.4331 21.8861 40.5086 21.8637C40.5842 21.8414 40.6546 21.8044 40.7159 21.7548L41.6489 20.9994C41.7724 20.8992 41.8511 20.754 41.8676 20.5959C41.8842 20.4377 41.8372 20.2794 41.7371 20.1558L38.7167 16.425C38.6671 16.3637 38.606 16.3128 38.5368 16.2752C38.4675 16.2376 38.3916 16.2139 38.3132 16.2057C38.2348 16.1974 38.1556 16.2046 38.08 16.227C38.0045 16.2493 37.9341 16.2863 37.8728 16.3359L36.9398 17.0913C36.8163 17.1915 36.7376 17.3367 36.7211 17.4948C36.7045 17.653 36.7515 17.8113 36.8516 17.9349L37.4183 18.6345L36.1523 19.6587C34.1312 17.6673 31.4651 16.3305 28.5002 15.9891V14.4H29.4002C29.5593 14.4 29.7119 14.3368 29.8245 14.2243C29.937 14.1117 30.0002 13.9591 30.0002 13.8V12.6C30.0002 12.4409 29.937 12.2883 29.8245 12.1757C29.7119 12.0632 29.5593 12 29.4002 12H24.6002ZM27.0002 18C33.0602 18 37.9502 22.89 37.9502 28.95C37.9502 35.01 33.0602 39.9 27.0002 39.9C20.9402 39.9 16.0502 35.01 16.0502 28.95C16.0502 22.89 20.9402 18 27.0002 18ZM27.0008 20.2329L27.0002 28.95L33.9704 34.1841C34.9427 32.8893 35.5351 31.3493 35.6812 29.7367C35.8274 28.1241 35.5215 26.5027 34.7978 25.0542C34.0741 23.6058 32.9614 22.3875 31.5842 21.536C30.2071 20.6845 28.6199 20.233 27.0008 20.2329Z" fill="#8837E9"/>
</g>
<defs>
<linearGradient id="paint0_linear_337_2396" x1="9.03475e-07" y1="44.01" x2="54" y2="13.77" gradientUnits="userSpaceOnUse">
<stop stop-color="#DBDBDB"/>
<stop offset="1" stop-color="#F1F1F1"/>
</linearGradient>
<clipPath id="clip0_337_2396">
<rect width="30" height="30" fill="white" transform="translate(12 12)"/>
</clipPath>
</defs>
</svg>
