<svg width="54" height="54" viewBox="0 0 54 54" fill="none" xmlns="http://www.w3.org/2000/svg">
<rect width="54" height="54" rx="27" fill="url(#paint0_linear_337_1445)"/>
<path fill-rule="evenodd" clip-rule="evenodd" d="M25.75 22H17.75C16.8072 22 16.3358 22 16.0429 22.2929C15.75 22.5858 15.75 23.0572 15.75 24V26.25C15.75 27.1928 15.75 27.6642 16.0429 27.9571C16.3358 28.25 16.8072 28.25 17.75 28.25H19.5H25.75V22ZM19.5 30.75V36.25C19.5 37.1928 19.5 37.6642 19.7929 37.9571C20.0858 38.25 20.5572 38.25 21.5 38.25H25.75V30.75H19.5ZM28.25 38.25H32.5C33.4428 38.25 33.9142 38.25 34.2071 37.9571C34.5 37.6642 34.5 37.1928 34.5 36.25V30.75H28.25V38.25ZM34.5 28.25H36.25C37.1928 28.25 37.6642 28.25 37.9571 27.9571C38.25 27.6642 38.25 27.1928 38.25 26.25V24C38.25 23.0572 38.25 22.5858 37.9571 22.2929C37.6642 22 37.1928 22 36.25 22H28.25V28.25H34.5Z" fill="url(#paint1_linear_337_1445)"/>
<path d="M35.75 18.0585V17.2749C35.75 15.9097 34.4126 14.9458 33.1175 15.3775L32.5885 15.5538C30.9684 16.0939 29.4963 17.0037 28.2888 18.2112L27 19.5V20.75H31.6754C31.8904 20.75 32.104 20.7153 32.3079 20.6474L34.3825 19.9558C35.1991 19.6836 35.75 18.9193 35.75 18.0585Z" fill="url(#paint2_linear_337_1445)"/>
<path d="M18.25 18.0585V17.2749C18.25 15.9097 19.5874 14.9458 20.8825 15.3775L21.4115 15.5538C23.0316 16.0939 24.5037 17.0037 25.7112 18.2112L27 19.5V20.75H22.3246C22.1096 20.75 21.896 20.7153 21.6921 20.6474L19.6175 19.9558C18.8009 19.6836 18.25 18.9193 18.25 18.0585Z" fill="url(#paint3_linear_337_1445)"/>
<defs>
<linearGradient id="paint0_linear_337_1445" x1="9.03475e-07" y1="44.01" x2="54" y2="13.77" gradientUnits="userSpaceOnUse">
<stop stop-color="#DBDBDB"/>
<stop offset="1" stop-color="#F1F1F1"/>
</linearGradient>
<linearGradient id="paint1_linear_337_1445" x1="27" y1="22" x2="27" y2="38.25" gradientUnits="userSpaceOnUse">
<stop stop-color="#FF2D6C"/>
<stop offset="1" stop-color="#991B41"/>
</linearGradient>
<linearGradient id="paint2_linear_337_1445" x1="31.375" y1="14.5" x2="31.375" y2="20.75" gradientUnits="userSpaceOnUse">
<stop stop-color="#FF2D6C"/>
<stop offset="1" stop-color="#991B41"/>
</linearGradient>
<linearGradient id="paint3_linear_337_1445" x1="22.625" y1="14.5" x2="22.625" y2="20.75" gradientUnits="userSpaceOnUse">
<stop stop-color="#FF2D6C"/>
<stop offset="1" stop-color="#991B41"/>
</linearGradient>
</defs>
</svg>
