<svg width="54" height="54" viewBox="0 0 54 54" fill="none" xmlns="http://www.w3.org/2000/svg">
<rect width="54" height="54" rx="27" fill="url(#paint0_linear_337_1923)"/>
<g clip-path="url(#clip0_337_1923)">
<path d="M36.6775 25.5483H28.4517V23.3635C30.1413 22.7643 31.3549 21.1508 31.3549 19.2584C31.3549 18.6605 31.1841 17.5712 29.7074 15.0254C28.9614 13.7396 28.2254 12.6718 28.1945 12.6269C27.9234 12.2344 27.477 12.0002 27.0001 12.0002C26.5232 12.0002 26.0768 12.2344 25.8057 12.6268C25.7748 12.6717 25.0388 13.7395 24.2928 15.0254C22.8161 17.5711 22.6453 18.6604 22.6453 19.2583C22.6453 21.1507 23.8589 22.7643 25.5485 23.3634V25.5482H17.3227C16.521 25.5482 15.8711 26.1983 15.8711 26.9998V30.5842H17.3227H17.3229C17.434 30.5842 17.5448 30.5971 17.653 30.6224C18.0764 30.7213 18.4337 30.8404 18.7492 30.9455C18.7576 30.9483 18.7659 30.9512 18.7743 30.954C19.4488 31.1787 19.9925 31.3549 21.1935 31.3549C21.1936 31.3549 21.1936 31.3549 21.1936 31.3549C21.1936 31.3549 21.1936 31.3549 21.1937 31.3549C22.4097 31.3549 22.9518 31.1743 23.6379 30.9456C24.4229 30.684 25.3126 30.3872 26.9989 30.3872C26.9996 30.3872 27.0006 30.3872 27.0006 30.3872C28.688 30.3872 29.5775 30.6839 30.3626 30.9456C31.0487 31.1743 31.5906 31.3549 32.8065 31.3549C34.0079 31.3549 34.5514 31.1786 35.226 30.9538C35.2342 30.9511 35.2421 30.9484 35.2505 30.9457C35.566 30.8405 35.9237 30.7214 36.3475 30.6223C36.4556 30.5971 36.5664 30.5843 36.6774 30.5843H36.6776H38.1292V26.9999C38.1291 26.1983 37.4792 25.5483 36.6775 25.5483Z" fill="#F43F5E"/>
<path d="M40.5484 39.0965H38.1291V33.4874H36.8545C36.7942 33.5033 36.7363 33.5217 36.6775 33.539C36.5074 33.589 36.3402 33.6423 36.1685 33.6996C35.8801 33.7958 35.577 33.8966 35.2259 33.9858C34.6214 34.1392 33.8736 34.258 32.8066 34.258H32.8065C32.8063 34.258 32.8063 34.258 32.8063 34.258C32.8063 34.258 32.8063 34.258 32.8062 34.258H32.8061C31.1193 34.258 30.2293 33.9615 29.4443 33.6996C28.7583 33.471 28.2163 33.2903 27.0008 33.2903C27.0008 33.2903 26.9996 33.2903 26.9989 33.2903C25.7835 33.2903 25.2418 33.471 24.5559 33.6996C23.7708 33.9615 22.8808 34.258 21.1935 34.258C21.1934 34.258 21.1934 34.258 21.1934 34.258C21.1933 34.258 21.1932 34.258 21.1932 34.258H21.1931C20.1263 34.258 19.3785 34.1392 18.7741 33.9858C18.4229 33.8966 18.1196 33.7958 17.8311 33.6996C17.6595 33.6424 17.4923 33.589 17.3225 33.5391C17.2637 33.5217 17.2058 33.5034 17.1455 33.4874H15.871V39.0965H13.4517C12.6499 39.0965 12 39.7466 12 40.5482C12 41.35 12.6499 41.9998 13.4516 41.9998H40.5484C41.3501 41.9998 42 41.3499 42 40.5482C42 39.7466 41.3501 39.0965 40.5484 39.0965Z" fill="#F43F5E"/>
</g>
<defs>
<linearGradient id="paint0_linear_337_1923" x1="9.03475e-07" y1="44.01" x2="54" y2="13.77" gradientUnits="userSpaceOnUse">
<stop stop-color="#DBDBDB"/>
<stop offset="1" stop-color="#F1F1F1"/>
</linearGradient>
<clipPath id="clip0_337_1923">
<rect width="30" height="30" fill="white" transform="translate(12 12)"/>
</clipPath>
</defs>
</svg>
