<svg width="54" height="54" viewBox="0 0 54 54" fill="none" xmlns="http://www.w3.org/2000/svg">
<rect width="54" height="54" rx="27" fill="url(#paint0_linear_337_2486)"/>
<path d="M23.25 19.5C23.25 19.9925 23.347 20.4801 23.5355 20.9351C23.7239 21.39 24.0001 21.8034 24.3483 22.1517C24.6966 22.4999 25.11 22.7761 25.5649 22.9645C26.0199 23.153 26.5075 23.25 27 23.25C27.4925 23.25 27.9801 23.153 28.4351 22.9645C28.89 22.7761 29.3034 22.4999 29.6517 22.1516C29.9999 21.8034 30.2761 21.39 30.4645 20.9351C30.653 20.4801 30.75 19.9925 30.75 19.5C30.75 19.0075 30.653 18.5199 30.4645 18.0649C30.2761 17.61 29.9999 17.1966 29.6516 16.8483C29.3034 16.5001 28.89 16.2239 28.4351 16.0355C27.9801 15.847 27.4925 15.75 27 15.75C26.5075 15.75 26.0199 15.847 25.5649 16.0355C25.11 16.2239 24.6966 16.5001 24.3483 16.8484C24.0001 17.1966 23.7239 17.61 23.5355 18.0649C23.347 18.5199 23.25 19.0075 23.25 19.5L23.25 19.5Z" stroke="#1C64F2" stroke-width="3"/>
<path d="M17.5473 29.3769C17.1208 29.6231 16.747 29.9509 16.4473 30.3416C16.1475 30.7323 15.9276 31.1782 15.8001 31.6539C15.6726 32.1296 15.6401 32.6257 15.7044 33.1139C15.7687 33.6022 15.9285 34.073 16.1747 34.4995C16.421 34.926 16.7488 35.2998 17.1395 35.5996C17.5302 35.8993 17.9761 36.1192 18.4518 36.2467C18.9274 36.3742 19.4236 36.4067 19.9118 36.3424C20.4 36.2781 20.8708 36.1183 21.2973 35.8721C21.7238 35.6258 22.0976 35.298 22.3974 34.9073C22.6972 34.5166 22.9171 34.0707 23.0445 33.595C23.172 33.1194 23.2045 32.6232 23.1402 32.135C23.076 31.6468 22.9161 31.176 22.6699 30.7495C22.4237 30.323 22.0959 29.9492 21.7052 29.6494C21.3145 29.3496 20.8686 29.1297 20.3929 29.0023C19.9172 28.8748 19.4211 28.8423 18.9329 28.9066C18.4446 28.9708 17.9738 29.1307 17.5473 29.3769L17.5473 29.3769Z" stroke="#1C64F2" stroke-width="3"/>
<path d="M36.4527 29.3769C36.8792 29.6231 37.253 29.9509 37.5527 30.3416C37.8525 30.7323 38.0724 31.1782 38.1999 31.6539C38.3274 32.1296 38.3599 32.6257 38.2956 33.1139C38.2313 33.6022 38.0715 34.073 37.8253 34.4995C37.579 34.926 37.2512 35.2998 36.8605 35.5996C36.4698 35.8993 36.0239 36.1192 35.5482 36.2467C35.0726 36.3742 34.5764 36.4067 34.0882 36.3424C33.6 36.2781 33.1292 36.1183 32.7027 35.8721C32.2762 35.6258 31.9024 35.298 31.6026 34.9073C31.3028 34.5166 31.0829 34.0707 30.9555 33.595C30.828 33.1194 30.7955 32.6232 30.8598 32.135C30.924 31.6468 31.0839 31.176 31.3301 30.7495C31.5763 30.323 31.9041 29.9492 32.2948 29.6494C32.6855 29.3496 33.1314 29.1297 33.6071 29.0023C34.0828 28.8748 34.5789 28.8423 35.0671 28.9066C35.5554 28.9708 36.0262 29.1307 36.4527 29.3769L36.4527 29.3769Z" stroke="#1C64F2" stroke-width="3"/>
<path fill-rule="evenodd" clip-rule="evenodd" d="M23.3999 20.5505C23.3006 20.21 23.2499 19.8565 23.2499 19.5004C23.2499 19.008 23.3469 18.5203 23.5354 18.0654C23.6767 17.7242 23.8674 17.4064 24.1008 17.1219C23.5904 17.2549 23.0886 17.4231 22.5991 17.6258C21.2039 18.2037 19.9361 19.0508 18.8683 20.1187C17.8004 21.1866 16.9533 22.4543 16.3754 23.8496C15.7975 25.2448 15.5 26.7402 15.5 28.2504C15.5 29.2842 15.6394 30.311 15.9127 31.3035C16.0424 30.9591 16.2223 30.6351 16.4471 30.342C16.7469 29.9514 17.1207 29.6235 17.5472 29.3773C17.8555 29.1993 18.187 29.0664 18.5316 28.9822C18.5106 28.7392 18.5 28.4951 18.5 28.2504C18.5 27.1342 18.7199 26.0289 19.147 24.9976C19.5742 23.9664 20.2003 23.0293 20.9896 22.24C21.6893 21.5403 22.5052 20.9688 23.3999 20.5505ZM30.5999 20.5504C31.4947 20.9687 32.3106 21.5402 33.0104 22.24C33.7997 23.0293 34.4258 23.9663 34.853 24.9976C35.2801 26.0289 35.5 27.1342 35.5 28.2504C35.5 28.4951 35.4894 28.7393 35.4684 28.9822C35.8129 29.0665 36.1444 29.1993 36.4526 29.3773C36.8791 29.6235 37.2529 29.9514 37.5527 30.342C37.7776 30.6351 37.9576 30.9593 38.0872 31.3038C38.3606 30.3112 38.5 29.2843 38.5 28.2504C38.5 26.7402 38.2025 25.2448 37.6246 23.8496C37.0467 22.4543 36.1996 21.1866 35.1317 20.1187C34.0639 19.0508 32.7961 18.2037 31.4009 17.6258C30.9113 17.423 30.4095 17.2548 29.899 17.1218C30.1324 17.4063 30.3231 17.7241 30.4645 18.0654C30.6529 18.5203 30.7499 19.008 30.7499 19.5004C30.7499 19.8564 30.6992 20.2099 30.5999 20.5504ZM35.1887 36.3248C34.8254 36.3848 34.4546 36.3911 34.0882 36.3428C33.5999 36.2785 33.1291 36.1187 32.7026 35.8725C32.3945 35.6946 32.1138 35.474 31.8687 35.2179C31.3649 35.5699 30.8233 35.8671 30.2528 36.1034C29.2215 36.5306 28.1162 36.7504 27 36.7504C25.8838 36.7504 24.7785 36.5306 23.7472 36.1034C23.1767 35.8671 22.635 35.5699 22.1312 35.2179C21.8861 35.474 21.6054 35.6945 21.2972 35.8725C20.8707 36.1187 20.3999 36.2785 19.9117 36.3428C19.5453 36.391 19.1746 36.3848 18.8113 36.3248C18.8303 36.344 18.8492 36.3631 18.8683 36.3822C19.9361 37.45 21.2039 38.2971 22.5991 38.875C23.9944 39.453 25.4898 39.7504 27 39.7504C28.5102 39.7504 30.0056 39.453 31.4009 38.875C32.7961 38.2971 34.0639 37.45 35.1317 36.3821C35.1508 36.3631 35.1698 36.344 35.1887 36.3248Z" fill="#1C64F2"/>
<defs>
<linearGradient id="paint0_linear_337_2486" x1="9.03475e-07" y1="44.01" x2="54" y2="13.77" gradientUnits="userSpaceOnUse">
<stop stop-color="#DBDBDB"/>
<stop offset="1" stop-color="#F1F1F1"/>
</linearGradient>
</defs>
</svg>
