<svg width="54" height="54" viewBox="0 0 54 54" fill="none" xmlns="http://www.w3.org/2000/svg">
<rect width="54" height="54" rx="27" fill="url(#paint0_linear_337_2411)"/>
<g clip-path="url(#clip0_337_2411)">
<path d="M36.4082 16.1251H30.4082C30.1683 15.4122 29.7108 14.7926 29.1 14.3537C28.4893 13.9148 27.7561 13.6787 27.004 13.6787C26.2519 13.6787 25.5188 13.9148 24.908 14.3537C24.2972 14.7926 23.8397 15.4122 23.5998 16.1251H17.8332C17.6291 16.0956 17.4211 16.1097 17.2228 16.1664C17.0246 16.2232 16.8407 16.3214 16.6832 16.4545C16.5257 16.5876 16.3982 16.7526 16.3091 16.9385C16.2201 17.1245 16.1715 17.3273 16.1665 17.5334V38.8834C16.1676 39.0694 16.2053 39.2535 16.2775 39.4249C16.3497 39.5964 16.455 39.7519 16.5873 39.8827C16.7196 40.0135 16.8764 40.1169 17.0487 40.1871C17.221 40.2573 17.4055 40.2928 17.5915 40.2917H36.4082C36.5942 40.2928 36.7786 40.2573 36.9509 40.1871C37.1232 40.1169 37.28 40.0135 37.4124 39.8827C37.5447 39.7519 37.6499 39.5964 37.7222 39.4249C37.7944 39.2535 37.8321 39.0694 37.8332 38.8834V17.5334C37.8321 17.3474 37.7944 17.1634 37.7222 16.9919C37.6499 16.8204 37.5447 16.6649 37.4124 16.5341C37.28 16.4033 37.1232 16.2999 36.9509 16.2297C36.7786 16.1595 36.5942 16.124 36.4082 16.1251ZM21.4082 18.6251C21.4082 18.4041 21.496 18.1921 21.6522 18.0358C21.8085 17.8795 22.0205 17.7917 22.2415 17.7917H25.1082V17.2667C25.1082 16.7551 25.3114 16.2644 25.6732 15.9026C26.035 15.5408 26.5257 15.3376 27.0373 15.3376C27.549 15.3376 28.0397 15.5408 28.4015 15.9026C28.7633 16.2644 28.9665 16.7551 28.9665 17.2667V17.8334H31.8332C32.0542 17.8334 32.2661 17.9212 32.4224 18.0775C32.5787 18.2338 32.6665 18.4457 32.6665 18.6667V20.1667H21.3748L21.4082 18.6251ZM33.5082 26.3167L25.9082 33.9167L21.5415 29.5501C21.3205 29.3291 21.1963 29.0293 21.1963 28.7167C21.1963 28.4042 21.3205 28.1044 21.5415 27.8834C21.7625 27.6624 22.0623 27.5382 22.3748 27.5382C22.6874 27.5382 22.9872 27.6624 23.2082 27.8834L25.9248 30.6001L31.8748 24.6501C32.0959 24.4291 32.3956 24.3049 32.7082 24.3049C33.0207 24.3049 33.3205 24.4291 33.5415 24.6501C33.7625 24.8711 33.8867 25.1708 33.8867 25.4834C33.8867 25.796 33.7625 26.0957 33.5415 26.3167H33.5082Z" fill="#8837E9"/>
</g>
<defs>
<linearGradient id="paint0_linear_337_2411" x1="9.03475e-07" y1="44.01" x2="54" y2="13.77" gradientUnits="userSpaceOnUse">
<stop stop-color="#DBDBDB"/>
<stop offset="1" stop-color="#F1F1F1"/>
</linearGradient>
<clipPath id="clip0_337_2411">
<rect width="30" height="30" fill="white" transform="translate(12 12)"/>
</clipPath>
</defs>
</svg>
