<svg width="54" height="54" viewBox="0 0 54 54" fill="none" xmlns="http://www.w3.org/2000/svg">
<rect width="54" height="54" rx="27" fill="url(#paint0_linear_337_1893)"/>
<path fill-rule="evenodd" clip-rule="evenodd" d="M21.043 17.2929C20.7501 17.5858 20.7501 18.0572 20.7501 19V20.5H23.2501C24.0785 20.5 24.7501 21.1716 24.7501 22C24.7501 22.8284 24.0785 23.5 23.2501 23.5H20.7501V26.75H23.2501C24.0785 26.75 24.7501 27.4216 24.7501 28.25C24.7501 29.0784 24.0785 29.75 23.2501 29.75H20.7501V33H23.2501C24.0785 33 24.7501 33.6716 24.7501 34.5C24.7501 35.3284 24.0785 36 23.2501 36H20.7501V36.25C20.7501 37.1928 20.7501 37.6642 21.043 37.9571C21.3358 38.25 21.8073 38.25 22.7501 38.25H35.0001C35.9429 38.25 36.4143 38.25 36.7072 37.9571C37.0001 37.6642 37.0001 37.1928 37.0001 36.25V19C37.0001 18.0572 37.0001 17.5858 36.7072 17.2929C36.4143 17 35.9429 17 35.0001 17H22.7501C21.8073 17 21.3358 17 21.043 17.2929ZM32 25.5C31.4477 25.5 31 25.0523 31 24.5V22C31 21.4477 31.4477 21 32 21C32.5523 21 33 21.4477 33 22V24.5C33 25.0523 32.5523 25.5 32 25.5ZM18.25 21.5C17.9739 21.5 17.75 21.7239 17.75 22C17.75 22.2761 17.9739 22.5 18.25 22.5H23.25C23.5261 22.5 23.75 22.2761 23.75 22C23.75 21.7239 23.5261 21.5 23.25 21.5H18.25ZM18.25 27.75C17.9739 27.75 17.75 27.9739 17.75 28.25C17.75 28.5261 17.9739 28.75 18.25 28.75H23.25C23.5261 28.75 23.75 28.5261 23.75 28.25C23.75 27.9739 23.5261 27.75 23.25 27.75H18.25ZM18.25 34C17.9739 34 17.75 34.2239 17.75 34.5C17.75 34.7761 17.9739 35 18.25 35H23.25C23.5261 35 23.75 34.7761 23.75 34.5C23.75 34.2239 23.5261 34 23.25 34H18.25Z" fill="#FDA629"/>
<defs>
<linearGradient id="paint0_linear_337_1893" x1="9.03475e-07" y1="44.01" x2="54" y2="13.77" gradientUnits="userSpaceOnUse">
<stop stop-color="#DBDBDB"/>
<stop offset="1" stop-color="#F1F1F1"/>
</linearGradient>
</defs>
</svg>
