<svg width="20" height="20" viewBox="0 0 20 20" fill="none" xmlns="http://www.w3.org/2000/svg">
<path d="M11.8223 1.45144C11.7226 1.021 11.474 0.639624 11.1204 0.374615C10.7668 0.109607 10.331 -0.0220039 9.88978 0.00300754C9.4486 0.028019 9.03044 0.208045 8.70908 0.511318C8.38772 0.814591 8.18382 1.22162 8.13335 1.66057C8.08289 2.09953 8.18911 2.5422 8.43327 2.91047C8.67743 3.27875 9.04384 3.54895 9.46783 3.6734C9.89183 3.79786 10.3462 3.76856 10.7507 3.59068C11.1552 3.41281 11.4838 3.09778 11.6786 2.7012C12.8647 2.97127 13.9673 3.52577 14.8912 4.31688C15.8152 5.108 16.5328 6.11198 16.9822 7.24224L18.1258 6.79258C17.5965 5.45198 16.744 4.26292 15.6443 3.33111C14.5446 2.3993 13.2317 1.75361 11.8223 1.45144ZM10.0042 2.50665C9.92049 2.50934 9.83708 2.49518 9.75895 2.465C9.68082 2.43482 9.60956 2.38925 9.54939 2.33099C9.48922 2.27273 9.44138 2.20297 9.40871 2.12585C9.37603 2.04874 9.3592 1.96584 9.3592 1.88209C9.3592 1.79834 9.37603 1.71545 9.40871 1.63833C9.44138 1.56122 9.48922 1.49146 9.54939 1.4332C9.60956 1.37493 9.68082 1.32936 9.75895 1.29918C9.83708 1.26901 9.92049 1.25484 10.0042 1.25753C10.1699 1.25753 10.3289 1.32337 10.4461 1.44055C10.5633 1.55774 10.6291 1.71668 10.6291 1.88241C10.6291 2.04814 10.5633 2.20708 10.4461 2.32427C10.3289 2.44146 10.1699 2.50665 10.0042 2.50665ZM7.25511 3.02589L6.79318 1.88306C5.45245 2.41238 4.26329 3.26472 3.3314 4.36432C2.39951 5.46393 1.75377 6.77672 1.45156 8.18601C1.02109 8.28576 0.63968 8.53434 0.374648 8.88789C0.109616 9.24144 -0.0220058 9.67724 0.0030078 10.1184C0.0280214 10.5595 0.208063 10.9776 0.511363 11.299C0.814662 11.6203 1.22172 11.8242 1.66072 11.8746C2.09971 11.9251 2.54242 11.8189 2.91073 11.5748C3.27903 11.3306 3.54926 10.9642 3.67373 10.5403C3.79819 10.1163 3.76889 9.66203 3.591 9.25757C3.41311 8.85311 3.09806 8.52448 2.70144 8.32967C2.97264 7.1423 3.52899 6.03886 4.3224 5.11476C5.11581 4.19065 6.1224 3.4737 7.25511 3.02589ZM1.88193 10.6288C1.79987 10.6288 1.7186 10.6127 1.64278 10.5813C1.56696 10.5499 1.49807 10.5039 1.44004 10.4458C1.38201 10.3878 1.33597 10.3189 1.30457 10.2431C1.27316 10.1673 1.257 10.086 1.257 10.004C1.257 9.92191 1.27316 9.84065 1.30457 9.76483C1.33597 9.68902 1.38201 9.62013 1.44004 9.56211C1.49807 9.50408 1.56696 9.45805 1.64278 9.42665C1.7186 9.39525 1.79987 9.37908 1.88193 9.37908C2.04768 9.37908 2.20663 9.44492 2.32383 9.56211C2.44103 9.67929 2.50687 9.83824 2.50687 10.004C2.50687 10.1697 2.44103 10.3286 2.32383 10.4458C2.20663 10.563 2.04768 10.6288 1.88193 10.6288ZM10.0042 16.2509C9.65567 16.252 9.31435 16.3503 9.01857 16.5346C8.72279 16.719 8.48425 16.9821 8.32975 17.2945C7.1435 17.0245 6.04077 16.4699 5.11668 15.6787C4.19259 14.8874 3.4749 13.8833 3.02551 12.7528L1.88258 13.2147C2.41367 14.5576 3.26894 15.7481 4.37209 16.6801C5.47524 17.612 6.79196 18.2565 8.20476 18.5559C8.28592 18.8998 8.46264 19.2138 8.71454 19.4616C8.96644 19.7094 9.28327 19.881 9.62849 19.9566C9.97371 20.0322 10.3333 20.0087 10.6657 19.8888C10.9981 19.7688 11.2899 19.5574 11.5073 19.2789C11.7248 19.0003 11.8591 18.666 11.8947 18.3144C11.9304 17.9629 11.8659 17.6084 11.7088 17.2919C11.5517 16.9753 11.3083 16.7097 11.0067 16.5255C10.7051 16.3413 10.3576 16.2461 10.0042 16.2509ZM10.0042 18.7498C9.83846 18.7498 9.6795 18.6839 9.5623 18.5667C9.4451 18.4495 9.37926 18.2906 9.37926 18.1249C9.37926 17.9591 9.4451 17.8002 9.5623 17.683C9.6795 17.5658 9.83846 17.5 10.0042 17.5C10.1699 17.5 10.3289 17.5658 10.4461 17.683C10.5633 17.8002 10.6291 17.9591 10.6291 18.1249C10.6291 18.2906 10.5633 18.4495 10.4461 18.5667C10.3289 18.6839 10.1699 18.7498 10.0042 18.7498ZM20 10.0033C20.0011 9.66884 19.9128 9.34014 19.744 9.05133C19.5753 8.76251 19.3323 8.5241 19.0404 8.36082C18.7485 8.19753 18.4181 8.11533 18.0837 8.12273C17.7493 8.13013 17.4229 8.22687 17.1385 8.40291C16.854 8.57895 16.6219 8.82787 16.4661 9.12387C16.3103 9.41987 16.2366 9.75215 16.2525 10.0863C16.2684 10.4204 16.3735 10.7441 16.5568 11.0239C16.74 11.3038 16.9948 11.5295 17.2947 11.6776C17.0246 12.8636 16.4699 13.9662 15.6786 14.89C14.8873 15.8139 13.8831 16.5315 12.7526 16.9808L13.2152 18.1242C14.5582 17.5932 15.7488 16.738 16.6809 15.6349C17.6129 14.5319 18.2574 13.2153 18.5568 11.8026C18.9635 11.7064 19.3264 11.4771 19.5879 11.1511C19.8494 10.8252 19.9944 10.4212 20 10.0033ZM18.1252 10.6282C17.9594 10.6282 17.8005 10.5624 17.6833 10.4452C17.5661 10.328 17.5002 10.1691 17.5002 10.0033C17.5002 9.83759 17.5661 9.67865 17.6833 9.56146C17.8005 9.44427 17.9594 9.37844 18.1252 9.37844C18.2909 9.37844 18.4499 9.44427 18.5671 9.56146C18.6843 9.67865 18.7501 9.83759 18.7501 10.0033C18.7501 10.1691 18.6843 10.328 18.5671 10.4452C18.4499 10.5624 18.2909 10.6282 18.1252 10.6282Z" fill="white"/>
</svg>
