<svg width="18" height="16" viewBox="0 0 18 16" fill="none" xmlns="http://www.w3.org/2000/svg">
<path d="M18 10.6C18 11.2 17.1 11.6 16.05 11.8C15.375 10.1 14.025 8.8 12.45 7.9C12.6 7.6 12.75 7.4 12.9 7.1H13.5C15.825 7 18 8.9 18 10.6ZM5.1 7H4.5C2.175 7 0 8.9 0 10.6C0 11.2 0.9 11.6 1.95 11.8C2.625 10.1 3.975 8.8 5.55 7.9L5.1 7ZM9 8C10.65 8 12 6.2 12 4C12 1.8 10.65 0 9 0C7.35 0 6 1.8 6 4C6 6.2 7.35 8 9 8ZM9 9C5.925 9 3 11.6 3 14C3 16 9 16 9 16C9 16 15 16 15 14C15 11.6 12.075 9 9 9ZM13.275 6H13.5C14.775 6 15.75 4.7 15.75 3C15.75 1.3 14.775 0 13.5 0C13.125 0 12.825 0.1 12.525 0.3C13.125 1.3 13.5 2.6 13.5 4C13.5 4.7 13.425 5.4 13.275 6ZM4.5 6H4.725C4.575 5.4 4.5 4.7 4.5 4C4.5 2.6 4.875 1.3 5.475 0.3C5.175 0.1 4.875 0 4.5 0C3.225 0 2.25 1.3 2.25 3C2.25 4.7 3.225 6 4.5 6Z" fill="white"/>
</svg>
