<svg width="33" height="32" viewBox="0 0 33 32" fill="none" xmlns="http://www.w3.org/2000/svg">
<path d="M13.4173 10.6663L22.7507 7.33301L18.7507 13.9997L17.4173 20.6663L15.4173 23.333L8.08398 21.9997L8.75065 19.333L13.4173 10.6663Z" fill="white"/>
<path d="M8.74935 28.0003L8.49724 23.9666C7.91133 14.592 15.3565 6.66699 24.7493 6.66699V6.66699L23.1262 7.96549C22.5985 8.38767 22.3346 8.59876 22.0941 8.81334C19.7092 10.941 18.2716 13.9322 18.1 17.1236C18.0827 17.4455 18.0827 17.7834 18.0827 18.4592V18.4592C18.0827 18.9972 18.0827 19.2662 18.0599 19.4788C17.8248 21.6714 15.8595 23.2602 13.6663 23.0306C13.4536 23.0084 13.1906 22.952 12.6646 22.8393L8.74935 22.0003" stroke="white" stroke-width="2"/>
</svg>
