<svg width="34" height="34" viewBox="0 0 34 34" fill="none" xmlns="http://www.w3.org/2000/svg">
<path fill-rule="evenodd" clip-rule="evenodd" d="M33.3333 16.6667C33.3333 25.8713 25.8713 33.3333 16.6667 33.3333C7.46192 33.3333 0 25.8713 0 16.6667C0 7.46192 7.46192 0 16.6667 0C25.8713 0 33.3333 7.46192 33.3333 16.6667ZM16.6667 9.58333C15.6312 9.58333 14.7917 10.4228 14.7917 11.4583C14.7917 12.1487 14.232 12.7083 13.5417 12.7083C12.8513 12.7083 12.2917 12.1487 12.2917 11.4583C12.2917 9.04208 14.2505 7.08333 16.6667 7.08333C19.0828 7.08333 21.0417 9.04208 21.0417 11.4583C21.0417 12.6431 20.5692 13.72 19.805 14.5067C19.6512 14.6648 19.5045 14.8115 19.3645 14.9513C19.0048 15.3107 18.6897 15.6255 18.4132 15.9808C18.0482 16.4498 17.9167 16.7947 17.9167 17.0833V18.3333C17.9167 19.0237 17.357 19.5833 16.6667 19.5833C15.9763 19.5833 15.4167 19.0237 15.4167 18.3333V17.0833C15.4167 15.9913 15.925 15.1073 16.4403 14.4453C16.8215 13.9555 17.3007 13.4772 17.6897 13.0891C17.807 12.972 17.916 12.8631 18.0117 12.7646C18.341 12.4257 18.5417 11.9667 18.5417 11.4583C18.5417 10.4228 17.7022 9.58333 16.6667 9.58333ZM16.6667 25C17.5872 25 18.3333 24.2538 18.3333 23.3333C18.3333 22.4128 17.5872 21.6667 16.6667 21.6667C15.7462 21.6667 15 22.4128 15 23.3333C15 24.2538 15.7462 25 16.6667 25Z" fill="#31184F"/>
</svg>
