<svg width="24" height="24" viewBox="0 0 24 24" fill="none" xmlns="http://www.w3.org/2000/svg">
<path d="M18 6V4C18 3.73478 17.8946 3.48043 17.7071 3.29289C17.5196 3.10536 17.2652 3 17 3H7C6.73478 3 6.48043 3.10536 6.29289 3.29289C6.10536 3.48043 6 3.73478 6 4V14" stroke="white" stroke-width="2" stroke-linecap="round" stroke-linejoin="round"/>
<path d="M6 18V20C6 20.2652 6.10536 20.5196 6.29289 20.7071C6.48043 20.8946 6.73478 21 7 21H17C17.2652 21 17.5196 20.8946 17.7071 20.7071C17.8946 20.5196 18 20.2652 18 20V10" stroke="white" stroke-width="2" stroke-linecap="round" stroke-linejoin="round"/>
<path d="M8 12L6 14L4 12" stroke="white" stroke-width="2" stroke-linecap="round" stroke-linejoin="round"/>
<path d="M16 12L18 10L20 12" stroke="white" stroke-width="2" stroke-linecap="round" stroke-linejoin="round"/>
</svg>
