<svg width="67" height="67" viewBox="0 0 67 67" fill="none" xmlns="http://www.w3.org/2000/svg">
<rect x="1" y="1" width="65" height="65" rx="32.5" fill="#8837E9"/>
<rect x="1" y="1" width="65" height="65" rx="32.5" stroke="#EAECF0"/>
<path d="M26.8327 46.8335L26.1256 47.5406L26.8327 48.2477L27.5398 47.5406L26.8327 46.8335ZM30.166 21.1668C30.7183 21.1668 31.166 20.7191 31.166 20.1668C31.166 19.6145 30.7183 19.1668 30.166 19.1668L30.166 21.1668ZM19.4589 40.8739L26.1256 47.5406L27.5398 46.1264L20.8731 39.4597L19.4589 40.8739ZM27.5398 47.5406L34.2065 40.8739L32.7922 39.4597L26.1256 46.1264L27.5398 47.5406ZM27.8327 46.8335L27.8327 22.1668L25.8327 22.1668L25.8327 46.8335L27.8327 46.8335ZM28.8327 21.1668L30.166 21.1668L30.166 19.1668L28.8327 19.1668L28.8327 21.1668ZM27.8327 22.1668C27.8327 21.6145 28.2804 21.1668 28.8327 21.1668L28.8327 19.1668C27.1758 19.1668 25.8327 20.51 25.8327 22.1668L27.8327 22.1668Z" fill="white"/>
<path d="M40.1667 20.1665L39.4596 19.4594L40.1667 18.7523L40.8738 19.4594L40.1667 20.1665ZM40.1667 46.4998L39.1667 46.4998L40.1667 46.4998ZM36.8333 49.4998C36.281 49.4998 35.8333 49.0521 35.8333 48.4998C35.8333 47.9476 36.281 47.4998 36.8333 47.4998L36.8333 49.4998ZM32.7929 26.1261L39.4596 19.4594L40.8738 20.8736L34.2071 27.5403L32.7929 26.1261ZM40.8738 19.4594L47.5404 26.1261L46.1262 27.5403L39.4596 20.8736L40.8738 19.4594ZM41.1667 20.1665L41.1667 46.4998L39.1667 46.4998L39.1667 20.1665L41.1667 20.1665ZM38.1667 49.4998L36.8333 49.4998L36.8333 47.4998L38.1667 47.4998L38.1667 49.4998ZM41.1667 46.4998C41.1667 48.1567 39.8235 49.4998 38.1667 49.4998L38.1667 47.4998C38.719 47.4998 39.1667 47.0521 39.1667 46.4998L41.1667 46.4998Z" fill="white"/>
</svg>
