<svg width="24" height="24" viewBox="0 0 25 24" fill="none" xmlns="http://www.w3.org/2000/svg"><path d="M9.3955 9.05793H15.4272M9.3955 12.5141H13.2338M13.81 18.9268H14.8713C17.7581 18.9268 20.2693 16.8499 20.9469 13.9021C21.2833 12.4382 21.2833 10.9113 20.9469 9.44741L20.858 9.06088C20.2049 6.21958 18.0762 4.01204 15.3634 3.36264L14.9823 3.27141C13.4705 2.90953 11.9005 2.90953 10.3888 3.27141L10.1657 3.32481C7.35599 3.99738 5.15134 6.28371 4.47493 9.22642C4.10507 10.8355 4.10845 12.5287 4.47831 14.1378C5.16529 17.1265 7.1861 19.6138 9.89699 20.7728L10.0152 20.8233C11.1883 21.3249 12.5321 20.7208 13.0135 19.4902C13.1459 19.1515 13.4614 18.9268 13.81 18.9268Z" stroke="#000000" stroke-width="1.5" stroke-linecap="round"/></svg>