<svg width="44" height="44" viewBox="0 0 44 44" fill="none" xmlns="http://www.w3.org/2000/svg">
<g filter="url(#filter0_dd_2984_32665)">
<rect x="6" y="2" width="32" height="32" rx="16" fill="white" shape-rendering="crispEdges"/>
<path d="M24 21L20 25L24 29" stroke="#222222"/>
<path d="M28.0622 14.5C28.7138 15.6286 29.0374 16.9167 28.9966 18.2193C28.9557 19.5219 28.5521 20.7872 27.8311 21.8728C27.11 22.9584 26.1003 23.8212 24.9155 24.364C23.7307 24.9067 22.4179 25.108 21.1249 24.9451" stroke="#222222" stroke-linecap="round"/>
<path d="M20 15L24 11L20 7" stroke="#222222"/>
<path d="M15.9378 21.5C15.2768 20.355 14.9535 19.0462 15.0054 17.7251C15.0573 16.404 15.4823 15.1246 16.2312 14.035C16.9801 12.9454 18.0223 12.0902 19.2371 11.5683C20.4519 11.0465 21.7896 10.8793 23.0955 11.0862" stroke="#222222" stroke-linecap="round"/>
</g>
<defs>
<filter id="filter0_dd_2984_32665" x="0" y="0" width="44" height="44" filterUnits="userSpaceOnUse" color-interpolation-filters="sRGB">
<feFlood flood-opacity="0" result="BackgroundImageFix"/>
<feColorMatrix in="SourceAlpha" type="matrix" values="0 0 0 0 0 0 0 0 0 0 0 0 0 0 0 0 0 0 127 0" result="hardAlpha"/>
<feMorphology radius="2" operator="erode" in="SourceAlpha" result="effect1_dropShadow_2984_32665"/>
<feOffset dy="2"/>
<feGaussianBlur stdDeviation="2"/>
<feComposite in2="hardAlpha" operator="out"/>
<feColorMatrix type="matrix" values="0 0 0 0 0 0 0 0 0 0 0 0 0 0 0 0 0 0 0.06 0"/>
<feBlend mode="normal" in2="BackgroundImageFix" result="effect1_dropShadow_2984_32665"/>
<feColorMatrix in="SourceAlpha" type="matrix" values="0 0 0 0 0 0 0 0 0 0 0 0 0 0 0 0 0 0 127 0" result="hardAlpha"/>
<feMorphology radius="2" operator="erode" in="SourceAlpha" result="effect2_dropShadow_2984_32665"/>
<feOffset dy="4"/>
<feGaussianBlur stdDeviation="4"/>
<feComposite in2="hardAlpha" operator="out"/>
<feColorMatrix type="matrix" values="0 0 0 0 0 0 0 0 0 0 0 0 0 0 0 0 0 0 0.1 0"/>
<feBlend mode="normal" in2="effect1_dropShadow_2984_32665" result="effect2_dropShadow_2984_32665"/>
<feBlend mode="normal" in="SourceGraphic" in2="effect2_dropShadow_2984_32665" result="shape"/>
</filter>
</defs>
</svg>
