<svg width="128" height="165" viewBox="0 0 128 165" fill="none" xmlns="http://www.w3.org/2000/svg">
<g filter="url(#filter0_dddd_10_12061)">
<path d="M21.8174 44.961C21.7038 41.844 21.647 40.2856 22.2429 38.6256C22.754 37.202 23.6941 35.8242 24.8334 34.8291C26.1617 33.6689 28.0906 32.9934 31.9484 31.6424C40.157 28.7679 48.0761 24.9129 55.5425 20.4337C58.9362 18.3977 60.633 17.3797 62.0935 17.0591C63.5435 16.7407 64.5651 16.7407 66.0151 17.0591C67.4756 17.3797 69.1724 18.3977 72.5661 20.4337C80.0325 24.9129 87.9516 28.7679 96.1602 31.6424C100.018 32.9934 101.947 33.6689 103.275 34.8291C104.414 35.8242 105.355 37.202 105.866 38.6256C106.462 40.2856 106.405 41.844 106.291 44.961C105.968 53.8312 104.367 67.014 98.5152 78.9125C90.7984 94.6032 77.9101 104.895 70.2727 109.965C68.5961 111.078 67.7577 111.635 66.178 112.012C65.0828 112.274 63.0258 112.274 61.9306 112.012C60.3508 111.635 59.5125 111.078 57.8359 109.965C50.1985 104.895 37.3102 94.6032 29.5934 78.9125C23.7417 67.014 22.1406 53.8312 21.8174 44.961Z" fill="black"/>
</g>
<mask id="mask0_10_12061" style="mask-type:alpha" maskUnits="userSpaceOnUse" x="21" y="16" width="86" height="97">
<path d="M21.8174 44.961C21.7038 41.844 21.647 40.2856 22.2429 38.6256C22.754 37.202 23.6941 35.8242 24.8334 34.8291C26.1617 33.6689 28.0906 32.9934 31.9484 31.6424C40.157 28.7679 48.0761 24.9129 55.5425 20.4337C58.9362 18.3977 60.633 17.3797 62.0935 17.0591C63.5435 16.7407 64.5651 16.7407 66.0151 17.0591C67.4756 17.3797 69.1724 18.3977 72.5661 20.4337C80.0325 24.9129 87.9516 28.7679 96.1602 31.6424C100.018 32.9934 101.947 33.6689 103.275 34.8291C104.414 35.8242 105.355 37.202 105.866 38.6256C106.462 40.2856 106.405 41.844 106.291 44.961C105.968 53.8312 104.367 67.014 98.5152 78.9125C90.7984 94.6032 77.9101 104.895 70.2727 109.965C68.5961 111.078 67.7577 111.635 66.178 112.012C65.0828 112.274 63.0258 112.274 61.9306 112.012C60.3508 111.635 59.5125 111.078 57.8359 109.965C50.1985 104.895 37.3102 94.6032 29.5934 78.9125C23.7417 67.014 22.1406 53.8312 21.8174 44.961Z" fill="black"/>
</mask>
<g mask="url(#mask0_10_12061)">
<mask id="mask1_10_12061" style="mask-type:alpha" maskUnits="userSpaceOnUse" x="21" y="16" width="86" height="97">
<path d="M21.8174 44.961C21.7038 41.844 21.647 40.2856 22.2429 38.6256C22.754 37.202 23.6941 35.8242 24.8334 34.8291C26.1617 33.6689 28.0906 32.9934 31.9484 31.6424C40.157 28.7679 48.0761 24.9129 55.5425 20.4337C58.9362 18.3977 60.633 17.3797 62.0935 17.0591C63.5435 16.7407 64.5651 16.7407 66.0151 17.0591C67.4756 17.3797 69.1724 18.3977 72.5661 20.4337C80.0325 24.9129 87.9516 28.7679 96.1602 31.6424C100.018 32.9934 101.947 33.6689 103.275 34.8291C104.414 35.8242 105.355 37.202 105.866 38.6256C106.462 40.2856 106.405 41.844 106.291 44.961C105.968 53.8312 104.367 67.014 98.5152 78.9125C90.7984 94.6032 77.9101 104.895 70.2727 109.965C68.5961 111.078 67.7577 111.635 66.178 112.012C65.0828 112.274 63.0258 112.274 61.9306 112.012C60.3508 111.635 59.5125 111.078 57.8359 109.965C50.1985 104.895 37.3102 94.6032 29.5934 78.9125C23.7417 67.014 22.1406 53.8312 21.8174 44.961Z" fill="black"/>
</mask>
<g mask="url(#mask1_10_12061)">
<rect width="128" height="128" fill="#CB9C40"/>
<rect width="128" height="128" fill="url(#paint0_linear_10_12061)" fill-opacity="0.6" style="mix-blend-mode:overlay"/>
<rect width="128" height="128" fill="url(#paint1_radial_10_12061)" fill-opacity="0.6" style="mix-blend-mode:overlay"/>
<rect width="128" height="128" fill="black" fill-opacity="0.16" style="mix-blend-mode:overlay"/>
<rect width="128" height="128" fill="black" fill-opacity="0.12" style="mix-blend-mode:darken"/>
</g>
<g filter="url(#filter1_d_10_12061)">
<mask id="mask2_10_12061" style="mask-type:alpha" maskUnits="userSpaceOnUse" x="21" y="16" width="86" height="97">
<path d="M62.0943 17.059C63.5437 16.7408 64.5657 16.7408 66.0152 17.059C67.4756 17.3797 69.1735 18.3981 72.567 20.434C80.0333 24.9131 87.9523 28.7685 96.1607 31.6429C100.018 32.9938 101.948 33.6693 103.276 34.8295C104.415 35.8245 105.355 37.2028 105.866 38.6263C106.462 40.2862 106.405 41.8446 106.292 44.9613C105.968 53.8314 104.368 67.0142 98.5162 78.9125L98.15 79.6439C90.3974 94.9234 77.7911 104.975 70.273 109.966L69.148 110.703C68.1311 111.346 67.3628 111.729 66.1783 112.012C65.1515 112.257 63.2794 112.273 62.147 112.059L61.9312 112.012C60.7466 111.729 59.9785 111.346 58.9615 110.703L57.8365 109.966C50.3184 104.975 37.7123 94.9236 29.9595 79.6439L29.5943 78.9125C24.1083 67.7575 22.3578 55.4739 21.8941 46.6732L21.8179 44.9613C21.7114 42.0396 21.655 40.4871 22.1392 38.9369L22.2437 38.6263C22.7229 37.2919 23.579 35.9973 24.6226 35.0209L24.8336 34.8295C25.9958 33.8144 27.6188 33.1706 30.5904 32.1205L31.9488 31.6429C40.1571 28.7685 48.0763 24.9131 55.5425 20.434C58.7237 18.5255 60.4148 17.5119 61.817 17.1283L62.0943 17.059ZM65.231 20.6312C64.2982 20.4264 63.8113 20.4264 62.8785 20.6312C62.6341 20.6849 62.1906 20.837 61.2623 21.3314C60.3332 21.8262 59.1538 22.5322 57.4244 23.5697C49.777 28.1575 41.6331 32.1262 33.1578 35.0941C31.1831 35.7856 29.8714 36.2477 28.8795 36.6713C27.9195 37.0812 27.4955 37.3602 27.2398 37.5834C26.5697 38.1687 25.9858 39.0243 25.6851 39.8617C25.3765 40.7215 25.3508 41.4969 25.4722 44.8285C25.787 53.4648 27.3488 66.0614 32.8756 77.2992C40.1847 92.161 52.4706 102.015 59.859 106.919C61.5539 108.044 61.9048 108.246 62.7808 108.455C62.9342 108.492 63.4024 108.551 64.0552 108.551C64.7078 108.551 65.1755 108.492 65.3287 108.455C66.2045 108.246 66.5559 108.044 68.2506 106.919C75.6389 102.015 87.9249 92.1607 95.2339 77.2992C100.761 66.0614 102.322 53.4648 102.637 44.8285C102.759 41.4969 102.733 40.7215 102.424 39.8617C102.124 39.0243 101.54 38.1687 100.87 37.5834C100.614 37.3602 100.191 37.0811 99.231 36.6713C98.239 36.2477 96.9266 35.7857 94.9517 35.0941C86.4764 32.1262 78.3325 28.1575 70.6851 23.5697C68.9556 22.5321 67.7764 21.8263 66.8472 21.3314C65.919 20.8371 65.4755 20.6849 65.231 20.6312ZM63.6763 28.4613C63.924 28.409 64.1845 28.409 64.4322 28.4613C64.7139 28.5208 64.9766 28.6706 65.5006 28.9711C70.2944 31.7197 75.0373 34.5076 80.0513 36.8705C84.4098 38.9244 88.9142 40.6052 93.4234 42.2836C94.1259 42.545 94.4774 42.6755 94.7369 42.9095C94.9623 43.113 95.1405 43.3824 95.2398 43.6693C95.3541 43.9997 95.3381 44.3664 95.3052 45.099C94.8597 55.0335 93.0804 65.1049 88.6705 74.0717C83.5319 84.5201 75.1702 93.2084 65.6597 99.8334C65.1016 100.222 64.8223 100.417 64.4947 100.498C64.2162 100.567 63.8923 100.568 63.6138 100.498C63.2863 100.417 63.007 100.222 62.4488 99.8334C52.9384 93.2085 44.5775 84.5198 39.439 74.0717C35.0291 65.1049 33.2499 55.0335 32.8043 45.099C32.7714 44.3664 32.7545 43.9997 32.8687 43.6693C32.968 43.3823 33.1471 43.113 33.3726 42.9095C33.6321 42.6756 33.9836 42.545 34.6861 42.2836C39.1973 40.6046 43.6876 38.9296 48.0572 36.8705C53.0713 34.5076 57.815 31.7197 62.609 28.9711C63.1327 28.6708 63.3947 28.5208 63.6763 28.4613Z" fill="url(#paint2_linear_10_12061)"/>
</mask>
<g mask="url(#mask2_10_12061)">
<rect y="0.000976562" width="128" height="128" fill="#CB9C40"/>
<rect x="-0.457031" width="128" height="128" fill="url(#paint3_linear_10_12061)" fill-opacity="0.6" style="mix-blend-mode:overlay"/>
<rect x="-0.457031" width="128" height="128" fill="url(#paint4_radial_10_12061)" fill-opacity="0.6" style="mix-blend-mode:overlay"/>
<g style="mix-blend-mode:soft-light">
<path fill-rule="evenodd" clip-rule="evenodd" d="M0 0H64V128H0V0Z" fill="url(#paint5_linear_10_12061)" style="mix-blend-mode:lighten"/>
</g>
<g style="mix-blend-mode:soft-light">
<mask id="path-11-inside-1_10_12061" fill="white">
<path d="M62.0943 17.059C63.5437 16.7408 64.5657 16.7408 66.0152 17.059C67.4756 17.3797 69.1735 18.3981 72.567 20.434C80.0333 24.9131 87.9523 28.7685 96.1607 31.6429C100.018 32.9938 101.948 33.6693 103.276 34.8295C104.415 35.8245 105.355 37.2028 105.866 38.6263C106.462 40.2862 106.405 41.8446 106.292 44.9613C105.968 53.8314 104.368 67.0142 98.5162 78.9125L98.15 79.6439C90.3974 94.9234 77.7911 104.975 70.273 109.966L69.148 110.703C68.1311 111.346 67.3628 111.729 66.1783 112.012C65.1515 112.257 63.2794 112.273 62.147 112.059L61.9312 112.012C60.7466 111.729 59.9785 111.346 58.9615 110.703L57.8365 109.966C50.3184 104.975 37.7123 94.9236 29.9595 79.6439L29.5943 78.9125C24.1083 67.7575 22.3578 55.4739 21.8941 46.6732L21.8179 44.9613C21.7114 42.0396 21.655 40.4871 22.1392 38.9369L22.2437 38.6263C22.7229 37.2919 23.579 35.9973 24.6226 35.0209L24.8336 34.8295C25.9958 33.8144 27.6188 33.1706 30.5904 32.1205L31.9488 31.6429C40.1571 28.7685 48.0763 24.9131 55.5425 20.434C58.7237 18.5255 60.4148 17.5119 61.817 17.1283L62.0943 17.059ZM65.231 20.6312C64.2982 20.4264 63.8113 20.4264 62.8785 20.6312C62.6341 20.6849 62.1906 20.837 61.2623 21.3314C60.3332 21.8262 59.1538 22.5322 57.4244 23.5697C49.777 28.1575 41.6331 32.1262 33.1578 35.0941C31.1831 35.7856 29.8714 36.2477 28.8795 36.6713C27.9195 37.0812 27.4955 37.3602 27.2398 37.5834C26.5697 38.1687 25.9858 39.0243 25.6851 39.8617C25.3765 40.7215 25.3508 41.4969 25.4722 44.8285C25.787 53.4648 27.3488 66.0614 32.8756 77.2992C40.1847 92.161 52.4706 102.015 59.859 106.919C61.5539 108.044 61.9048 108.246 62.7808 108.455C62.9342 108.492 63.4024 108.551 64.0552 108.551C64.7078 108.551 65.1755 108.492 65.3287 108.455C66.2045 108.246 66.5559 108.044 68.2506 106.919C75.6389 102.015 87.9249 92.1607 95.2339 77.2992C100.761 66.0614 102.322 53.4648 102.637 44.8285C102.759 41.4969 102.733 40.7215 102.424 39.8617C102.124 39.0243 101.54 38.1687 100.87 37.5834C100.614 37.3602 100.191 37.0811 99.231 36.6713C98.239 36.2477 96.9266 35.7857 94.9517 35.0941C86.4764 32.1262 78.3325 28.1575 70.6851 23.5697C68.9556 22.5321 67.7764 21.8263 66.8472 21.3314C65.919 20.8371 65.4755 20.6849 65.231 20.6312ZM63.6763 28.4613C63.924 28.409 64.1845 28.409 64.4322 28.4613C64.7139 28.5208 64.9766 28.6706 65.5006 28.9711C70.2944 31.7197 75.0373 34.5076 80.0513 36.8705C84.4098 38.9244 88.9142 40.6052 93.4234 42.2836C94.1259 42.545 94.4774 42.6755 94.7369 42.9095C94.9623 43.113 95.1405 43.3824 95.2398 43.6693C95.3541 43.9997 95.3381 44.3664 95.3052 45.099C94.8597 55.0335 93.0804 65.1049 88.6705 74.0717C83.5319 84.5201 75.1702 93.2084 65.6597 99.8334C65.1016 100.222 64.8223 100.417 64.4947 100.498C64.2162 100.567 63.8923 100.568 63.6138 100.498C63.2863 100.417 63.007 100.222 62.4488 99.8334C52.9384 93.2085 44.5775 84.5198 39.439 74.0717C35.0291 65.1049 33.2499 55.0335 32.8043 45.099C32.7714 44.3664 32.7545 43.9997 32.8687 43.6693C32.968 43.3823 33.1471 43.113 33.3726 42.9095C33.6321 42.6756 33.9836 42.545 34.6861 42.2836C39.1973 40.6046 43.6876 38.9296 48.0572 36.8705C53.0713 34.5076 57.815 31.7197 62.609 28.9711C63.1327 28.6708 63.3947 28.5208 63.6763 28.4613Z"/>
</mask>
<path d="M62.0943 17.059L62.0453 16.8356L62.0389 16.8372L62.0943 17.059ZM66.0152 17.059L66.0642 16.8357L66.0642 16.8357L66.0152 17.059ZM72.567 20.434L72.4494 20.63V20.63L72.567 20.434ZM96.1607 31.6429L96.0852 31.8587L96.1607 31.6429ZM103.276 34.8295L103.426 34.6573L103.426 34.6573L103.276 34.8295ZM105.866 38.6263L106.081 38.5491L106.081 38.5491L105.866 38.6263ZM106.292 44.9613L106.52 44.9696L106.292 44.9613ZM98.5162 78.9125L98.7206 79.0148L98.7213 79.0133L98.5162 78.9125ZM98.15 79.6439L98.3538 79.7473L98.3544 79.7463L98.15 79.6439ZM70.273 109.966L70.3982 110.157L70.3994 110.157L70.273 109.966ZM69.148 110.703L69.2703 110.896L69.2732 110.894L69.148 110.703ZM66.1783 112.012L66.2314 112.234H66.2314L66.1783 112.012ZM62.147 112.059L62.0985 112.282L62.1045 112.284L62.147 112.059ZM61.9312 112.012L61.8781 112.234L61.8827 112.235L61.9312 112.012ZM58.9615 110.703L58.8363 110.894L58.8393 110.896L58.9615 110.703ZM57.8365 109.966L57.7101 110.157L57.7113 110.157L57.8365 109.966ZM29.9595 79.6439L29.755 79.746L29.7557 79.7473L29.9595 79.6439ZM29.5943 78.9125L29.3892 79.0134L29.3898 79.0146L29.5943 78.9125ZM21.8941 46.6732L21.6658 46.6834L21.6659 46.6852L21.8941 46.6732ZM21.8179 44.9613L21.5895 44.9696L21.5896 44.9715L21.8179 44.9613ZM22.1392 38.9369L21.9225 38.864L21.921 38.8687L22.1392 38.9369ZM22.2437 38.6263L22.0285 38.5491L22.0271 38.5534L22.2437 38.6263ZM24.6226 35.0209L24.469 34.8516L24.4665 34.854L24.6226 35.0209ZM24.8336 34.8295L24.6832 34.6573L24.68 34.6602L24.8336 34.8295ZM30.5904 32.1205L30.5146 31.9048L30.5142 31.905L30.5904 32.1205ZM31.9488 31.6429L31.8733 31.4272L31.873 31.4273L31.9488 31.6429ZM55.5425 20.434L55.6601 20.63V20.63L55.5425 20.434ZM61.817 17.1283L61.7615 16.9065L61.7566 16.9078L61.817 17.1283ZM65.231 20.6312L65.2801 20.408L65.28 20.408L65.231 20.6312ZM62.8785 20.6312L62.8295 20.408L62.8295 20.408L62.8785 20.6312ZM61.2623 21.3314L61.1548 21.1297L61.1548 21.1297L61.2623 21.3314ZM57.4244 23.5697L57.3068 23.3737L57.4244 23.5697ZM33.1578 35.0941L33.2333 35.3098H33.2333L33.1578 35.0941ZM28.8795 36.6713L28.7897 36.4611L28.7897 36.4611L28.8795 36.6713ZM27.2398 37.5834L27.0895 37.4112L27.0894 37.4112L27.2398 37.5834ZM25.6851 39.8617L25.47 39.7844L25.47 39.7845L25.6851 39.8617ZM25.4722 44.8285L25.2438 44.8368V44.8368L25.4722 44.8285ZM32.8756 77.2992L32.6704 77.4001L32.6704 77.4001L32.8756 77.2992ZM59.859 106.919L59.7325 107.11L59.859 106.919ZM62.7808 108.455L62.7277 108.678L62.7279 108.678L62.7808 108.455ZM64.0552 108.551V108.78H64.0553L64.0552 108.551ZM65.3287 108.455L65.3817 108.678L65.3818 108.678L65.3287 108.455ZM68.2506 106.919L68.377 107.11L68.2506 106.919ZM95.2339 77.2992L95.4391 77.4001L95.4391 77.4001L95.2339 77.2992ZM102.637 44.8285L102.866 44.8368V44.8368L102.637 44.8285ZM102.424 39.8617L102.64 39.7845L102.64 39.7845L102.424 39.8617ZM100.87 37.5834L101.02 37.4112L101.02 37.4112L100.87 37.5834ZM99.231 36.6713L99.3208 36.4611L99.3208 36.4611L99.231 36.6713ZM94.9517 35.0941L94.8762 35.3098L94.9517 35.0941ZM70.6851 23.5697L70.5675 23.7657V23.7657L70.6851 23.5697ZM66.8472 21.3314L66.9547 21.1297L66.9547 21.1297L66.8472 21.3314ZM63.6763 28.4613L63.6291 28.2377L63.6291 28.2377L63.6763 28.4613ZM64.4322 28.4613L64.4794 28.2377L64.4794 28.2377L64.4322 28.4613ZM65.5006 28.9711L65.6142 28.7728L65.5006 28.9711ZM80.0513 36.8705L79.9539 37.0772L80.0513 36.8705ZM93.4234 42.2836L93.5031 42.0694L93.4234 42.2836ZM94.7369 42.9095L94.89 42.7398L94.89 42.7398L94.7369 42.9095ZM95.2398 43.6693L95.4558 43.5946L95.4558 43.5945L95.2398 43.6693ZM95.3052 45.099L95.5336 45.1092L95.3052 45.099ZM88.6705 74.0717L88.8756 74.1725L88.6705 74.0717ZM65.6597 99.8334L65.7904 100.021L65.6597 99.8334ZM64.4947 100.498L64.5497 100.72L64.5498 100.72L64.4947 100.498ZM63.6138 100.498L63.5588 100.72H63.5588L63.6138 100.498ZM62.4488 99.8334L62.3181 100.021L62.4488 99.8334ZM39.439 74.0717L39.2339 74.1725L39.439 74.0717ZM32.8043 45.099L32.5759 45.1092L32.8043 45.099ZM32.8687 43.6693L32.6527 43.5946L32.6527 43.5946L32.8687 43.6693ZM33.3726 42.9095L33.2196 42.7398L33.2195 42.7398L33.3726 42.9095ZM34.6861 42.2836L34.6064 42.0694L34.6861 42.2836ZM48.0572 36.8705L48.1546 37.0772H48.1546L48.0572 36.8705ZM62.609 28.9711L62.4953 28.7728L62.609 28.9711ZM62.0943 17.059L62.1433 17.2822C63.5605 16.9711 64.549 16.9711 65.9662 17.2822L66.0152 17.059L66.0642 16.8357C64.5824 16.5104 63.527 16.5104 62.0453 16.8357L62.0943 17.059ZM66.0152 17.059L65.9662 17.2822C66.666 17.4359 67.4339 17.7593 68.4587 18.3051C69.4836 18.8508 70.7506 19.6108 72.4494 20.63L72.567 20.434L72.6845 20.238C70.9899 19.2213 69.7112 18.4541 68.6736 17.9016C67.636 17.349 66.8248 17.0027 66.0642 16.8357L66.0152 17.059ZM72.567 20.434L72.4494 20.63C79.927 25.1159 87.86 28.9784 96.0852 31.8587L96.1607 31.6429L96.2363 31.4272C88.0445 28.5586 80.1396 24.7103 72.6845 20.238L72.567 20.434ZM96.1607 31.6429L96.0852 31.8587C98.0169 32.5351 99.4552 33.0389 100.577 33.5179C101.697 33.9961 102.487 34.4438 103.126 35.0016L103.276 34.8295L103.426 34.6573C102.737 34.0549 101.898 33.5848 100.757 33.0975C99.6174 32.6111 98.1622 32.1017 96.2363 31.4272L96.1607 31.6429ZM103.276 34.8295L103.126 35.0016C104.235 35.971 105.153 37.3166 105.651 38.7036L105.866 38.6263L106.081 38.5491C105.557 37.089 104.595 35.678 103.426 34.6573L103.276 34.8295ZM105.866 38.6263L105.651 38.7036C106.229 40.3134 106.177 41.8229 106.063 44.953L106.292 44.9613L106.52 44.9696C106.633 41.8664 106.695 40.2589 106.081 38.5491L105.866 38.6263ZM106.292 44.9613L106.063 44.953C105.74 53.8084 104.142 66.9546 98.3111 78.8116L98.5162 78.9125L98.7213 79.0133C104.593 67.0737 106.196 53.8543 106.52 44.9696L106.292 44.9613ZM98.5162 78.9125L98.3118 78.8101L97.9456 79.5416L98.15 79.6439L98.3544 79.7463L98.7206 79.0148L98.5162 78.9125ZM98.15 79.6439L97.9461 79.5405C90.2189 94.7699 77.6492 104.795 70.1466 109.776L70.273 109.966L70.3994 110.157C77.933 105.155 90.5758 95.0768 98.3538 79.7473L98.15 79.6439ZM70.273 109.966L70.1478 109.775L69.0228 110.511L69.148 110.703L69.2732 110.894L70.3982 110.157L70.273 109.966ZM69.148 110.703L69.0258 110.509C68.0229 111.144 67.278 111.514 66.1252 111.79L66.1783 112.012L66.2314 112.234C67.4475 111.944 68.2394 111.548 69.2702 110.896L69.148 110.703ZM66.1783 112.012L66.1252 111.79C65.1336 112.027 63.2943 112.044 62.1896 111.834L62.147 112.059L62.1045 112.284C63.2645 112.503 65.1695 112.488 66.2314 112.234L66.1783 112.012ZM62.147 112.059L62.1955 111.836L61.9797 111.789L61.9312 112.012L61.8827 112.235L62.0985 112.282L62.147 112.059ZM61.9312 112.012L61.9843 111.79C60.8313 111.514 60.0867 111.144 59.0837 110.509L58.9615 110.703L58.8393 110.896C59.8702 111.548 60.6618 111.944 61.8781 112.234L61.9312 112.012ZM58.9615 110.703L59.0867 110.511L57.9617 109.775L57.8365 109.966L57.7113 110.157L58.8363 110.894L58.9615 110.703ZM57.8365 109.966L57.9629 109.776C50.4603 104.795 37.8907 94.7702 30.1634 79.5405L29.9595 79.6439L29.7557 79.7473C37.5338 95.0771 50.1765 105.156 57.7101 110.157L57.8365 109.966ZM29.9595 79.6439L30.164 79.5418L29.7988 78.8104L29.5943 78.9125L29.3898 79.0146L29.755 79.746L29.9595 79.6439ZM29.5943 78.9125L29.7994 78.8116C24.3326 67.6957 22.5852 55.4468 22.1224 46.6612L21.8941 46.6732L21.6659 46.6852C22.1303 55.501 23.884 67.8193 29.3892 79.0133L29.5943 78.9125ZM21.8941 46.6732L22.1225 46.6631L22.0463 44.9511L21.8179 44.9613L21.5896 44.9715L21.6658 46.6834L21.8941 46.6732ZM21.8179 44.9613L22.0464 44.953C21.9394 42.0181 21.8873 40.5099 22.3574 39.005L22.1392 38.9369L21.921 38.8687C21.4226 40.4643 21.4835 42.061 21.5895 44.9696L21.8179 44.9613ZM22.1392 38.9369L22.3559 39.0098L22.4604 38.6992L22.2437 38.6263L22.0271 38.5534L21.9226 38.864L22.1392 38.9369ZM22.2437 38.6263L22.4588 38.7036C22.9256 37.4038 23.7612 36.1398 24.7788 35.1878L24.6226 35.0209L24.4665 34.854C23.3967 35.8548 22.5202 37.18 22.0286 38.5491L22.2437 38.6263ZM24.6226 35.0209L24.7762 35.1901L24.9872 34.9987L24.8336 34.8295L24.68 34.6602L24.469 34.8516L24.6226 35.0209ZM24.8336 34.8295L24.9839 35.0016C26.1069 34.0209 27.6843 33.3899 30.6666 32.336L30.5904 32.1205L30.5142 31.905C27.5533 32.9513 25.8847 33.608 24.6832 34.6573L24.8336 34.8295ZM30.5904 32.1205L30.6662 32.3361L32.0246 31.8586L31.9488 31.6429L31.873 31.4273L30.5146 31.9048L30.5904 32.1205ZM31.9488 31.6429L32.0243 31.8587C40.2493 28.9784 48.1826 25.1158 55.6601 20.63L55.5425 20.434L55.425 20.238C47.9701 24.7103 40.0649 28.5586 31.8733 31.4272L31.9488 31.6429ZM55.5425 20.434L55.6601 20.63C58.8563 18.7125 60.5135 17.7218 61.8773 17.3488L61.817 17.1283L61.7566 16.9078C60.3161 17.3019 58.5912 18.3385 55.425 20.238L55.5425 20.434ZM61.817 17.1283L61.8724 17.35L62.1497 17.2807L62.0943 17.059L62.0389 16.8372L61.7615 16.9066L61.817 17.1283ZM65.231 20.6312L65.28 20.408C64.8058 20.3039 64.4329 20.2491 64.0547 20.2491C63.6766 20.2491 63.3037 20.3039 62.8295 20.408L62.8785 20.6312L62.9275 20.8545C63.3861 20.7538 63.723 20.7062 64.0547 20.7062C64.3864 20.7062 64.7234 20.7538 65.182 20.8545L65.231 20.6312ZM62.8785 20.6312L62.8295 20.408C62.5545 20.4683 62.0892 20.6321 61.1548 21.1297L61.2623 21.3314L61.3697 21.5332C62.2919 21.042 62.7137 20.9014 62.9275 20.8545L62.8785 20.6312ZM61.2623 21.3314L61.1548 21.1297C60.2194 21.6279 59.0341 22.3375 57.3068 23.3737L57.4244 23.5697L57.542 23.7657C59.2734 22.727 60.447 22.0246 61.3697 21.5332L61.2623 21.3314ZM57.4244 23.5697L57.3068 23.3737C49.6707 27.9547 41.5409 31.9163 33.0822 34.8784L33.1578 35.0941L33.2333 35.3098C41.7253 32.336 49.8833 28.3603 57.542 23.7657L57.4244 23.5697ZM33.1578 35.0941L33.0822 34.8784C31.1105 35.5689 29.7903 36.0338 28.7897 36.4611L28.8795 36.6713L28.9692 36.8815C29.9525 36.4616 31.2558 36.0023 33.2333 35.3098L33.1578 35.0941ZM28.8795 36.6713L28.7897 36.4611C27.8195 36.8754 27.3709 37.1656 27.0895 37.4112L27.2398 37.5834L27.3901 37.7556C27.6201 37.5548 28.0195 37.287 28.9692 36.8815L28.8795 36.6713ZM27.2398 37.5834L27.0894 37.4112C26.39 38.0221 25.7839 38.9104 25.47 39.7844L25.6851 39.8617L25.9002 39.9389C26.1878 39.1382 26.7494 38.3152 27.3902 37.7555L27.2398 37.5834ZM25.6851 39.8617L25.47 39.7845C25.1432 40.6949 25.123 41.5212 25.2438 44.8368L25.4722 44.8285L25.7007 44.8202C25.5786 41.4727 25.6098 40.748 25.9003 39.9389L25.6851 39.8617ZM25.4722 44.8285L25.2438 44.8368C25.5591 53.4878 27.1234 66.1209 32.6704 77.4001L32.8756 77.2992L33.0807 77.1983C27.5742 66.0018 26.0149 53.4419 25.7007 44.8202L25.4722 44.8285ZM32.8756 77.2992L32.6704 77.4001C40.005 92.3137 52.3286 102.195 59.7325 107.11L59.859 106.919L59.9854 106.729C52.6126 101.835 40.3643 92.0083 33.0807 77.1983L32.8756 77.2992ZM59.859 106.919L59.7325 107.11C61.4254 108.234 61.8073 108.458 62.7277 108.678L62.7808 108.455L62.8339 108.233C62.0023 108.035 61.6824 107.855 59.9854 106.729L59.859 106.919ZM62.7808 108.455L62.7279 108.678C62.906 108.72 63.3942 108.78 64.0552 108.78V108.551V108.323C63.4105 108.323 62.9623 108.264 62.8338 108.233L62.7808 108.455ZM64.0552 108.551L64.0553 108.78C64.716 108.78 65.2037 108.72 65.3817 108.678L65.3287 108.455L65.2757 108.233C65.1473 108.264 64.6997 108.323 64.0552 108.323L64.0552 108.551ZM65.3287 108.455L65.3818 108.678C66.302 108.458 66.6844 108.233 68.377 107.11L68.2506 106.919L68.1241 106.729C66.4274 107.855 66.1069 108.035 65.2756 108.233L65.3287 108.455ZM68.2506 106.919L68.377 107.11C75.7809 102.195 88.1046 92.3134 95.4391 77.4001L95.2339 77.2992L95.0288 77.1983C87.7453 92.008 75.497 101.834 68.1241 106.729L68.2506 106.919ZM95.2339 77.2992L95.4391 77.4001C100.986 66.121 102.55 53.4877 102.866 44.8368L102.637 44.8285L102.409 44.8202C102.095 53.4418 100.535 66.0018 95.0288 77.1983L95.2339 77.2992ZM102.637 44.8285L102.866 44.8368C102.987 41.5211 102.966 40.6949 102.64 39.7845L102.424 39.8617L102.209 39.9389C102.5 40.7481 102.531 41.4726 102.409 44.8202L102.637 44.8285ZM102.424 39.8617L102.64 39.7845C102.326 38.9104 101.719 38.0222 101.02 37.4112L100.87 37.5834L100.719 37.7555C101.36 38.3153 101.922 39.1381 102.209 39.9389L102.424 39.8617ZM100.87 37.5834L101.02 37.4112C100.739 37.1656 100.291 36.8754 99.3208 36.4611L99.231 36.6713L99.1412 36.8815C100.091 37.2869 100.489 37.5548 100.719 37.7556L100.87 37.5834ZM99.231 36.6713L99.3208 36.4611C98.3201 36.0337 96.9992 35.5689 95.0273 34.8784L94.9517 35.0941L94.8762 35.3098C96.854 36.0024 98.1579 36.4616 99.1413 36.8815L99.231 36.6713ZM94.9517 35.0941L95.0273 34.8784C86.5686 31.9163 78.4388 27.9547 70.8027 23.3737L70.6851 23.5697L70.5675 23.7657C78.2262 28.3603 86.3842 32.336 94.8762 35.3098L94.9517 35.0941ZM70.6851 23.5697L70.8027 23.3737C69.0753 22.3374 67.8902 21.6279 66.9547 21.1297L66.8472 21.3314L66.7398 21.5332C67.6626 22.0246 68.8359 22.7269 70.5675 23.7657L70.6851 23.5697ZM66.8472 21.3314L66.9547 21.1297C66.0203 20.6321 65.5551 20.4684 65.2801 20.408L65.231 20.6312L65.182 20.8545C65.3959 20.9015 65.8177 21.0421 66.7398 21.5332L66.8472 21.3314ZM63.6763 28.4613L63.7236 28.6849C63.9401 28.6392 64.1684 28.6392 64.385 28.6849L64.4322 28.4613L64.4794 28.2377C64.2006 28.1788 63.9079 28.1788 63.6291 28.2377L63.6763 28.4613ZM64.4322 28.4613L64.3849 28.6849C64.6233 28.7353 64.8502 28.8617 65.3869 29.1694L65.5006 28.9711L65.6142 28.7728C65.1029 28.4796 64.8046 28.3064 64.4794 28.2377L64.4322 28.4613ZM65.5006 28.9711L65.3869 29.1694C70.1772 31.916 74.9296 34.7095 79.9539 37.0772L80.0513 36.8705L80.1488 36.6637C75.1451 34.3057 70.4116 31.5234 65.6142 28.7728L65.5006 28.9711ZM80.0513 36.8705L79.9539 37.0772C84.3224 39.1359 88.8358 40.8199 93.3437 42.4978L93.4234 42.2836L93.5031 42.0694C88.9926 40.3905 84.4971 38.7129 80.1488 36.6637L80.0513 36.8705ZM93.4234 42.2836L93.3437 42.4978C94.0642 42.766 94.3646 42.8815 94.5838 43.0793L94.7369 42.9095L94.89 42.7398C94.5903 42.4695 94.1875 42.3241 93.5031 42.0694L93.4234 42.2836ZM94.7369 42.9095L94.5838 43.0792C94.7805 43.2568 94.9371 43.4935 95.0238 43.7441L95.2398 43.6693L95.4558 43.5945C95.3439 43.2713 95.1441 42.9692 94.89 42.7398L94.7369 42.9095ZM95.2398 43.6693L95.0238 43.744C95.1204 44.0234 95.1106 44.338 95.0769 45.0888L95.3052 45.099L95.5336 45.1092C95.5656 44.3949 95.5877 43.9759 95.4558 43.5946L95.2398 43.6693ZM95.3052 45.099L95.0769 45.0888C94.6321 55.0049 92.8565 65.0421 88.4654 73.9708L88.6705 74.0717L88.8756 74.1725C93.3042 65.1676 95.0872 55.062 95.5336 45.1092L95.3052 45.099ZM88.6705 74.0717L88.4654 73.9708C83.3477 84.3767 75.0157 93.0374 65.5291 99.6458L65.6597 99.8334L65.7904 100.021C75.3247 93.3793 83.7162 84.6634 88.8756 74.1725L88.6705 74.0717ZM65.6597 99.8334L65.5291 99.6458C64.9571 100.044 64.7168 100.208 64.4396 100.277L64.4947 100.498L64.5498 100.72C64.9277 100.626 65.246 100.4 65.7904 100.021L65.6597 99.8334ZM64.4947 100.498L64.4397 100.277C64.1973 100.337 63.9111 100.337 63.6689 100.277L63.6138 100.498L63.5588 100.72C63.8734 100.798 64.2351 100.798 64.5497 100.72L64.4947 100.498ZM63.6138 100.498L63.6689 100.277C63.3917 100.208 63.1515 100.044 62.5794 99.6458L62.4488 99.8334L62.3181 100.021C62.8626 100.4 63.1808 100.626 63.5588 100.72L63.6138 100.498ZM62.4488 99.8334L62.5794 99.6458C53.0929 93.0376 44.7617 84.3765 39.6441 73.9708L39.439 74.0717L39.2339 74.1725C44.3933 84.6631 52.7839 93.3795 62.3181 100.021L62.4488 99.8334ZM39.439 74.0717L39.6441 73.9708C35.253 65.0421 33.4774 55.0049 33.0326 45.0888L32.8043 45.099L32.5759 45.1092C33.0223 55.062 34.8053 65.1676 39.2339 74.1725L39.439 74.0717ZM32.8043 45.099L33.0326 45.0888C32.9989 44.3374 32.9881 44.0233 33.0847 43.744L32.8687 43.6693L32.6527 43.5946C32.5208 43.9761 32.5439 44.3954 32.5759 45.1092L32.8043 45.099ZM32.8687 43.6693L33.0847 43.7441C33.1713 43.4938 33.3287 43.2571 33.5257 43.0792L33.3726 42.9095L33.2195 42.7398C32.9656 42.9689 32.7648 43.2708 32.6527 43.5946L32.8687 43.6693ZM33.3726 42.9095L33.5257 43.0793C33.745 42.8816 34.0453 42.7659 34.7658 42.4978L34.6861 42.2836L34.6064 42.0694C33.9219 42.3241 33.5193 42.4696 33.2196 42.7398L33.3726 42.9095ZM34.6861 42.2836L34.7658 42.4978C39.2757 40.8193 43.7749 39.1412 48.1546 37.0772L48.0572 36.8705L47.9598 36.6637C43.6002 38.7181 39.1189 40.3899 34.6064 42.0694L34.6861 42.2836ZM48.0572 36.8705L48.1546 37.0772C53.179 34.7095 57.9322 31.916 62.7226 29.1694L62.609 28.9711L62.4953 28.7728C57.6978 31.5235 52.9635 34.3057 47.9598 36.6637L48.0572 36.8705ZM62.609 28.9711L62.7226 29.1694C63.2593 28.8617 63.4854 28.7353 63.7236 28.6849L63.6763 28.4613L63.6291 28.2377C63.304 28.3064 63.0061 28.4799 62.4953 28.7728L62.609 28.9711Z" fill="url(#paint6_linear_10_12061)" mask="url(#path-11-inside-1_10_12061)"/>
</g>
</g>
</g>
<g filter="url(#filter2_d_10_12061)">
<path fill-rule="evenodd" clip-rule="evenodd" d="M64 69.4857L61.5967 70.7492C58.225 72.5218 56.5391 73.4081 55.2926 73.1769C54.208 72.9757 53.2722 72.2958 52.7458 71.3265C52.1407 70.2124 52.4626 68.3352 53.1066 64.5807L53.5656 61.9046L51.6213 60.0093C48.8935 57.3504 47.5296 56.021 47.3643 54.764C47.2204 53.6704 47.5779 52.5702 48.3371 51.77C49.2097 50.8503 51.0945 50.5764 54.8642 50.0286L57.5512 49.6382L58.7528 47.2033C60.4387 43.7874 61.2816 42.0795 62.426 41.5338C63.4216 41.059 64.5784 41.059 65.5741 41.5338C66.7184 42.0795 67.5613 43.7874 69.2472 47.2033L70.4489 49.6382L73.1358 50.0286C76.9055 50.5764 78.7904 50.8503 79.663 51.77C80.4222 52.5702 80.7796 53.6704 80.6358 54.764C80.4704 56.021 79.1066 57.3504 76.3788 60.0093L74.4345 61.9046L74.8935 64.5807C75.5374 68.3352 75.8594 70.2124 75.2543 71.3265C74.7278 72.2958 73.792 72.9757 72.7074 73.1769C71.4609 73.4081 69.775 72.5218 66.4033 70.7492L64 69.4857Z" fill="white"/>
<path d="M62.377 41.4307C63.4036 40.9412 64.5963 40.9412 65.623 41.4307C66.2266 41.7184 66.7378 42.3065 67.3047 43.2324C67.8725 44.16 68.5078 45.4466 69.3496 47.1523L70.5244 49.5332L73.1523 49.915C75.0349 50.1886 76.4549 50.395 77.5127 50.6484C78.5686 50.9014 79.2859 51.2063 79.7461 51.6914C80.5289 52.5166 80.8974 53.6516 80.749 54.7793C80.6617 55.4422 80.2601 56.1104 79.5547 56.9355C78.848 57.7621 77.8208 58.7634 76.459 60.0908L74.5566 61.9443L75.0059 64.5615C75.3274 66.4364 75.5704 67.8503 75.6562 68.9346C75.742 70.017 75.6736 70.7932 75.3545 71.3809C74.8116 72.3804 73.8469 73.0816 72.7285 73.2891C72.0711 73.411 71.3115 73.2363 70.3086 72.8203C69.304 72.4036 68.0342 71.7357 66.3506 70.8506L64 69.6143L61.6494 70.8506C59.9658 71.7357 58.696 72.4036 57.6914 72.8203C56.6885 73.2363 55.9289 73.411 55.2715 73.2891C54.1532 73.0816 53.1884 72.3804 52.6455 71.3809C52.3264 70.7932 52.258 70.017 52.3438 68.9346C52.4296 67.8503 52.6726 66.4364 52.9941 64.5615L53.4424 61.9443L51.541 60.0908C50.1792 58.7633 49.152 57.7621 48.4453 56.9355C47.7399 56.1104 47.3383 55.4422 47.251 54.7793C47.1026 53.6516 47.4711 52.5166 48.2539 51.6914C48.7141 51.2063 49.4315 50.9014 50.4873 50.6484C51.5451 50.395 52.9651 50.1886 54.8477 49.915L57.4746 49.5332L58.6504 47.1523C59.4922 45.4466 60.1275 44.16 60.6953 43.2324C61.2622 42.3065 61.7734 41.7184 62.377 41.4307Z" stroke="url(#paint7_linear_10_12061)" stroke-width="0.228571" stroke-linecap="round" style="mix-blend-mode:color-burn"/>
</g>
</g>
<g filter="url(#filter3_dd_10_12061)">
<mask id="path-15-inside-2_10_12061" fill="white">
<path d="M27.5986 83.2002C29.6466 83.2002 30.6708 83.2 31.4531 83.5986C32.1411 83.9493 32.7001 84.5092 33.0507 85.1973C33.4492 85.9796 33.4501 87.0037 33.4501 89.0518V98.377C33.4501 100.425 33.4493 101.449 33.0507 102.231C32.7001 102.92 32.1412 103.479 31.4531 103.83C30.6708 104.229 29.6466 104.229 27.5986 104.229H19.954C18.4611 104.229 17.7143 104.228 17.2499 103.914C16.8442 103.639 16.5653 103.213 16.4765 102.731C16.375 102.18 16.675 101.495 17.2744 100.128L20.0849 93.7139L17.2744 87.2998C16.6751 85.9325 16.375 85.2488 16.4765 84.6973C16.5653 84.2153 16.8441 83.7894 17.2499 83.5146C17.7143 83.2003 18.461 83.2002 19.954 83.2002H27.5986ZM107.915 83.2002C109.408 83.2002 110.154 83.2004 110.618 83.5146C111.024 83.7894 111.303 84.2153 111.392 84.6973C111.493 85.2488 111.193 85.9324 110.594 87.2998L107.783 93.7139L110.594 100.128C111.193 101.495 111.493 102.18 111.392 102.731C111.303 103.213 111.024 103.639 110.618 103.914C110.154 104.228 109.408 104.229 107.915 104.229H100.269C98.2215 104.229 97.1972 104.229 96.415 103.83C95.7269 103.479 95.1679 102.92 94.8173 102.231C94.4188 101.449 94.4189 100.425 94.4189 98.377V89.0518C94.4189 87.0038 94.4188 85.9795 94.8173 85.1973C95.1679 84.5092 95.727 83.9493 96.415 83.5986C97.1972 83.2001 98.2215 83.2002 100.269 83.2002H107.915Z"/>
</mask>
<path d="M27.5986 83.2002C29.6466 83.2002 30.6708 83.2 31.4531 83.5986C32.1411 83.9493 32.7001 84.5092 33.0507 85.1973C33.4492 85.9796 33.4501 87.0037 33.4501 89.0518V98.377C33.4501 100.425 33.4493 101.449 33.0507 102.231C32.7001 102.92 32.1412 103.479 31.4531 103.83C30.6708 104.229 29.6466 104.229 27.5986 104.229H19.954C18.4611 104.229 17.7143 104.228 17.2499 103.914C16.8442 103.639 16.5653 103.213 16.4765 102.731C16.375 102.18 16.675 101.495 17.2744 100.128L20.0849 93.7139L17.2744 87.2998C16.6751 85.9325 16.375 85.2488 16.4765 84.6973C16.5653 84.2153 16.8441 83.7894 17.2499 83.5146C17.7143 83.2003 18.461 83.2002 19.954 83.2002H27.5986ZM107.915 83.2002C109.408 83.2002 110.154 83.2004 110.618 83.5146C111.024 83.7894 111.303 84.2153 111.392 84.6973C111.493 85.2488 111.193 85.9324 110.594 87.2998L107.783 93.7139L110.594 100.128C111.193 101.495 111.493 102.18 111.392 102.731C111.303 103.213 111.024 103.639 110.618 103.914C110.154 104.228 109.408 104.229 107.915 104.229H100.269C98.2215 104.229 97.1972 104.229 96.415 103.83C95.7269 103.479 95.1679 102.92 94.8173 102.231C94.4188 101.449 94.4189 100.425 94.4189 98.377V89.0518C94.4189 87.0038 94.4188 85.9795 94.8173 85.1973C95.1679 84.5092 95.727 83.9493 96.415 83.5986C97.1972 83.2001 98.2215 83.2002 100.269 83.2002H107.915Z" fill="#FFA00F"/>
<path d="M27.5986 83.2002V82.9716V83.2002ZM31.4531 83.5986L31.5568 83.395L31.5568 83.395L31.4531 83.5986ZM33.0507 85.1973L33.2544 85.0935L33.2544 85.0935L33.0507 85.1973ZM33.0507 102.231L33.2544 102.335L33.2544 102.335L33.0507 102.231ZM31.4531 103.83L31.5568 104.034L31.5568 104.034L31.4531 103.83ZM27.5986 104.229V104.457V104.229ZM17.2499 103.914L17.1218 104.103L17.1218 104.103L17.2499 103.914ZM16.4765 102.731L16.2517 102.773L16.2517 102.773L16.4765 102.731ZM17.2744 100.128L17.4837 100.22L17.4837 100.22L17.2744 100.128ZM20.0849 93.7139L20.2943 93.8056L20.3345 93.7139L20.2943 93.6221L20.0849 93.7139ZM17.2744 87.2998L17.4837 87.2081L17.4837 87.208L17.2744 87.2998ZM16.4765 84.6973L16.2517 84.6559L16.2517 84.6559L16.4765 84.6973ZM17.2499 83.5146L17.1218 83.3254L17.1218 83.3254L17.2499 83.5146ZM107.915 83.2002V82.9716V83.2002ZM110.618 83.5146L110.746 83.3254L110.746 83.3254L110.618 83.5146ZM111.392 84.6973L111.616 84.6559V84.6559L111.392 84.6973ZM110.594 87.2998L110.384 87.208L110.384 87.2081L110.594 87.2998ZM107.783 93.7139L107.574 93.6221L107.534 93.7139L107.574 93.8056L107.783 93.7139ZM110.594 100.128L110.384 100.22L110.384 100.22L110.594 100.128ZM111.392 102.731L111.616 102.773L111.616 102.773L111.392 102.731ZM110.618 103.914L110.746 104.103L110.746 104.103L110.618 103.914ZM107.915 104.229V104.457V104.229ZM100.269 104.229V104.457V104.229ZM96.415 103.83L96.3112 104.034L96.3112 104.034L96.415 103.83ZM94.8173 102.231L94.6137 102.335L94.6137 102.335L94.8173 102.231ZM94.8173 85.1973L94.6137 85.0935L94.6137 85.0935L94.8173 85.1973ZM96.415 83.5986L96.3112 83.395L96.3112 83.395L96.415 83.5986ZM100.269 83.2002V82.9716V83.2002ZM27.5986 83.2002V83.4288C28.6264 83.4288 29.3835 83.4289 29.9819 83.4778C30.5776 83.5264 30.9958 83.6222 31.3493 83.8023L31.4531 83.5986L31.5568 83.395C31.1281 83.1765 30.643 83.0731 30.0191 83.0221C29.3978 82.9714 28.6188 82.9716 27.5986 82.9716V83.2002ZM31.4531 83.5986L31.3493 83.8023C31.9942 84.1309 32.5183 84.6558 32.8471 85.301L33.0507 85.1973L33.2544 85.0935C32.8819 84.3625 32.288 83.7676 31.5568 83.395L31.4531 83.5986ZM33.0507 85.1973L32.8471 85.301C33.0272 85.6546 33.1232 86.0729 33.1721 86.6685C33.2212 87.2669 33.2216 88.024 33.2216 89.0518H33.4501H33.6787C33.6787 88.0315 33.6787 87.2525 33.6277 86.6312C33.5765 86.0072 33.4728 85.5222 33.2544 85.0935L33.0507 85.1973ZM33.4501 89.0518H33.2216V98.377H33.4501H33.6787V89.0518H33.4501ZM33.4501 98.377H33.2216C33.2216 99.4047 33.2212 100.162 33.1721 100.76C33.1232 101.356 33.0272 101.774 32.8471 102.128L33.0507 102.231L33.2544 102.335C33.4728 101.907 33.5765 101.422 33.6277 100.798C33.6787 100.176 33.6787 99.3973 33.6787 98.377H33.4501ZM33.0507 102.231L32.8471 102.128C32.5183 102.773 31.9943 103.298 31.3493 103.626L31.4531 103.83L31.5568 104.034C32.2881 103.661 32.8819 103.066 33.2544 102.335L33.0507 102.231ZM31.4531 103.83L31.3493 103.626C30.9958 103.807 30.5776 103.902 29.9819 103.951C29.3835 104 28.6264 104 27.5986 104V104.229V104.457C28.6188 104.457 29.3978 104.457 30.0191 104.407C30.643 104.356 31.1281 104.252 31.5568 104.034L31.4531 103.83ZM27.5986 104.229V104H19.954V104.229V104.457H27.5986V104.229ZM19.954 104.229V104C19.2032 104 18.6556 104 18.237 103.962C17.8188 103.923 17.5623 103.849 17.3781 103.725L17.2499 103.914L17.1218 104.103C17.402 104.293 17.7511 104.376 18.1955 104.417C18.6397 104.457 19.212 104.457 19.954 104.457V104.229ZM17.2499 103.914L17.3781 103.725C17.0229 103.484 16.779 103.112 16.7013 102.69L16.4765 102.731L16.2517 102.773C16.3517 103.315 16.6654 103.794 17.1218 104.103L17.2499 103.914ZM16.4765 102.731L16.7013 102.69C16.661 102.471 16.6963 102.207 16.8294 101.808C16.9626 101.409 17.1822 100.907 17.4837 100.22L17.2744 100.128L17.065 100.036C16.7671 100.716 16.5371 101.24 16.3958 101.663C16.2544 102.087 16.1904 102.44 16.2517 102.773L16.4765 102.731ZM17.2744 100.128L17.4837 100.22L20.2943 93.8056L20.0849 93.7139L19.8755 93.6221L17.065 100.036L17.2744 100.128ZM20.0849 93.7139L20.2943 93.6221L17.4837 87.2081L17.2744 87.2998L17.065 87.3915L19.8755 93.8056L20.0849 93.7139ZM17.2744 87.2998L17.4837 87.208C17.1823 86.5203 16.9626 86.0188 16.8294 85.6202C16.6963 85.2218 16.661 84.9574 16.7013 84.7387L16.4765 84.6973L16.2517 84.6559C16.1904 84.9886 16.2544 85.3418 16.3958 85.765C16.5371 86.188 16.7671 86.712 17.065 87.3916L17.2744 87.2998ZM16.4765 84.6973L16.7013 84.7387C16.779 84.3171 17.0229 83.9444 17.3781 83.7039L17.2499 83.5146L17.1218 83.3254C16.6654 83.6344 16.3516 84.1135 16.2517 84.6559L16.4765 84.6973ZM17.2499 83.5146L17.3781 83.7039C17.5623 83.5792 17.8187 83.5053 18.237 83.4672C18.6555 83.429 19.2031 83.4288 19.954 83.4288V83.2002V82.9716C19.2119 82.9716 18.6397 82.9714 18.1955 83.0119C17.7511 83.0524 17.4019 83.1357 17.1218 83.3254L17.2499 83.5146ZM19.954 83.2002V83.4288H27.5986V83.2002V82.9716H19.954V83.2002ZM107.915 83.2002V83.4288C108.666 83.4288 109.213 83.429 109.631 83.4672C110.049 83.5053 110.306 83.5792 110.49 83.7039L110.618 83.5146L110.746 83.3254C110.466 83.1358 110.117 83.0525 109.673 83.0119C109.229 82.9714 108.657 82.9716 107.915 82.9716V83.2002ZM110.618 83.5146L110.49 83.7039C110.845 83.9444 111.089 84.3171 111.167 84.7387L111.392 84.6973L111.616 84.6559C111.516 84.1135 111.203 83.6344 110.746 83.3254L110.618 83.5146ZM111.392 84.6973L111.167 84.7387C111.207 84.9574 111.172 85.2218 111.039 85.6202C110.905 86.0187 110.686 86.5203 110.384 87.208L110.594 87.2998L110.803 87.3916C111.101 86.712 111.331 86.188 111.472 85.765C111.614 85.3418 111.678 84.9886 111.616 84.6559L111.392 84.6973ZM110.594 87.2998L110.384 87.2081L107.574 93.6221L107.783 93.7139L107.993 93.8056L110.803 87.3915L110.594 87.2998ZM107.783 93.7139L107.574 93.8056L110.384 100.22L110.594 100.128L110.803 100.036L107.993 93.6221L107.783 93.7139ZM110.594 100.128L110.384 100.22C110.686 100.907 110.905 101.409 111.039 101.808C111.172 102.207 111.207 102.471 111.167 102.69L111.392 102.731L111.616 102.773C111.678 102.44 111.614 102.087 111.472 101.663C111.331 101.24 111.101 100.716 110.803 100.036L110.594 100.128ZM111.392 102.731L111.167 102.69C111.089 103.112 110.845 103.484 110.49 103.725L110.618 103.914L110.746 104.103C111.203 103.794 111.516 103.315 111.616 102.773L111.392 102.731ZM110.618 103.914L110.49 103.725C110.306 103.849 110.049 103.923 109.631 103.962C109.213 104 108.666 104 107.915 104V104.229V104.457C108.657 104.457 109.229 104.457 109.673 104.417C110.117 104.376 110.466 104.293 110.746 104.103L110.618 103.914ZM107.915 104.229V104H100.269V104.229V104.457H107.915V104.229ZM100.269 104.229V104C99.2417 104 98.4846 104 97.8862 103.951C97.2905 103.902 96.8723 103.807 96.5187 103.626L96.415 103.83L96.3112 104.034C96.7399 104.252 97.225 104.356 97.849 104.407C98.4703 104.457 99.2493 104.457 100.269 104.457V104.229ZM96.415 103.83L96.5188 103.626C95.8738 103.298 95.3497 102.773 95.021 102.128L94.8173 102.231L94.6137 102.335C94.9861 103.066 95.58 103.661 96.3112 104.034L96.415 103.83ZM94.8173 102.231L95.021 102.128C94.8409 101.774 94.7451 101.356 94.6965 100.76C94.6476 100.162 94.6475 99.4048 94.6475 98.377H94.4189H94.1903C94.1903 99.3972 94.1901 100.176 94.2408 100.797C94.2918 101.421 94.3952 101.906 94.6137 102.335L94.8173 102.231ZM94.4189 98.377H94.6475V89.0518H94.4189H94.1903V98.377H94.4189ZM94.4189 89.0518H94.6475C94.6475 88.024 94.6476 87.2668 94.6965 86.6685C94.7451 86.0728 94.8409 85.6546 95.021 85.301L94.8173 85.1973L94.6137 85.0935C94.3953 85.5222 94.2918 86.0073 94.2409 86.6313C94.1901 87.2526 94.1903 88.0315 94.1903 89.0518H94.4189ZM94.8173 85.1973L95.021 85.301C95.3497 84.6559 95.8738 84.1309 96.5188 83.8023L96.415 83.5986L96.3112 83.395C95.58 83.7676 94.9861 84.3625 94.6137 85.0935L94.8173 85.1973ZM96.415 83.5986L96.5187 83.8023C96.8723 83.6222 97.2905 83.5264 97.8862 83.4778C98.4846 83.4289 99.2417 83.4288 100.269 83.4288V83.2002V82.9716C99.2493 82.9716 98.4703 82.9714 97.849 83.0221C97.225 83.0731 96.7399 83.1765 96.3112 83.395L96.415 83.5986ZM100.269 83.2002V83.4288H107.915V83.2002V82.9716H100.269V83.2002Z" fill="url(#paint8_linear_10_12061)" style="mix-blend-mode:darken" mask="url(#path-15-inside-2_10_12061)"/>
</g>
<path d="M27.5986 83.2002C29.6466 83.2002 30.6708 83.2 31.4531 83.5986C32.1411 83.9493 32.7001 84.5092 33.0507 85.1973C33.4492 85.9796 33.4501 87.0037 33.4501 89.0518V98.377C33.4501 100.425 33.4493 101.449 33.0507 102.231C32.7001 102.92 32.1412 103.479 31.4531 103.83C30.6708 104.229 29.6466 104.229 27.5986 104.229H19.954C18.4611 104.229 17.7143 104.228 17.2499 103.914C16.8442 103.639 16.5653 103.213 16.4765 102.731C16.375 102.18 16.675 101.495 17.2744 100.128L20.0849 93.7139L17.2744 87.2998C16.6751 85.9325 16.375 85.2488 16.4765 84.6973C16.5653 84.2153 16.8441 83.7894 17.2499 83.5146C17.7143 83.2003 18.461 83.2002 19.954 83.2002H27.5986ZM107.915 83.2002C109.408 83.2002 110.154 83.2004 110.618 83.5146C111.024 83.7894 111.303 84.2153 111.392 84.6973C111.493 85.2488 111.193 85.9324 110.594 87.2998L107.783 93.7139L110.594 100.128C111.193 101.495 111.493 102.18 111.392 102.731C111.303 103.213 111.024 103.639 110.618 103.914C110.154 104.228 109.408 104.229 107.915 104.229H100.269C98.2215 104.229 97.1972 104.229 96.415 103.83C95.7269 103.479 95.1679 102.92 94.8173 102.231C94.4188 101.449 94.4189 100.425 94.4189 98.377V89.0518C94.4189 87.0038 94.4188 85.9795 94.8173 85.1973C95.1679 84.5092 95.727 83.9493 96.415 83.5986C97.1972 83.2001 98.2215 83.2002 100.269 83.2002H107.915Z" fill="url(#paint9_linear_10_12061)" fill-opacity="0.3" style="mix-blend-mode:overlay"/>
<path d="M27.5986 83.2002C29.6466 83.2002 30.6708 83.2 31.4531 83.5986C32.1411 83.9493 32.7001 84.5092 33.0507 85.1973C33.4492 85.9796 33.4501 87.0037 33.4501 89.0518V98.377C33.4501 100.425 33.4493 101.449 33.0507 102.231C32.7001 102.92 32.1412 103.479 31.4531 103.83C30.6708 104.229 29.6466 104.229 27.5986 104.229H19.954C18.4611 104.229 17.7143 104.228 17.2499 103.914C16.8442 103.639 16.5653 103.213 16.4765 102.731C16.375 102.18 16.675 101.495 17.2744 100.128L20.0849 93.7139L17.2744 87.2998C16.6751 85.9325 16.375 85.2488 16.4765 84.6973C16.5653 84.2153 16.8441 83.7894 17.2499 83.5146C17.7143 83.2003 18.461 83.2002 19.954 83.2002H27.5986ZM107.915 83.2002C109.408 83.2002 110.154 83.2004 110.618 83.5146C111.024 83.7894 111.303 84.2153 111.392 84.6973C111.493 85.2488 111.193 85.9324 110.594 87.2998L107.783 93.7139L110.594 100.128C111.193 101.495 111.493 102.18 111.392 102.731C111.303 103.213 111.024 103.639 110.618 103.914C110.154 104.228 109.408 104.229 107.915 104.229H100.269C98.2215 104.229 97.1972 104.229 96.415 103.83C95.7269 103.479 95.1679 102.92 94.8173 102.231C94.4188 101.449 94.4189 100.425 94.4189 98.377V89.0518C94.4189 87.0038 94.4188 85.9795 94.8173 85.1973C95.1679 84.5092 95.727 83.9493 96.415 83.5986C97.1972 83.2001 98.2215 83.2002 100.269 83.2002H107.915Z" fill="url(#paint10_radial_10_12061)" fill-opacity="0.6" style="mix-blend-mode:overlay"/>
<path d="M27.5986 83.2002C29.6466 83.2002 30.6708 83.2 31.4531 83.5986C32.1411 83.9493 32.7001 84.5092 33.0507 85.1973C33.4492 85.9796 33.4501 87.0037 33.4501 89.0518V98.377C33.4501 100.425 33.4493 101.449 33.0507 102.231C32.7001 102.92 32.1412 103.479 31.4531 103.83C30.6708 104.229 29.6466 104.229 27.5986 104.229H19.954C18.4611 104.229 17.7143 104.228 17.2499 103.914C16.8442 103.639 16.5653 103.213 16.4765 102.731C16.375 102.18 16.675 101.495 17.2744 100.128L20.0849 93.7139L17.2744 87.2998C16.6751 85.9325 16.375 85.2488 16.4765 84.6973C16.5653 84.2153 16.8441 83.7894 17.2499 83.5146C17.7143 83.2003 18.461 83.2002 19.954 83.2002H27.5986ZM107.915 83.2002C109.408 83.2002 110.154 83.2004 110.618 83.5146C111.024 83.7894 111.303 84.2153 111.392 84.6973C111.493 85.2488 111.193 85.9324 110.594 87.2998L107.783 93.7139L110.594 100.128C111.193 101.495 111.493 102.18 111.392 102.731C111.303 103.213 111.024 103.639 110.618 103.914C110.154 104.228 109.408 104.229 107.915 104.229H100.269C98.2215 104.229 97.1972 104.229 96.415 103.83C95.7269 103.479 95.1679 102.92 94.8173 102.231C94.4188 101.449 94.4189 100.425 94.4189 98.377V89.0518C94.4189 87.0038 94.4188 85.9795 94.8173 85.1973C95.1679 84.5092 95.727 83.9493 96.415 83.5986C97.1972 83.2001 98.2215 83.2002 100.269 83.2002H107.915Z" fill="black" fill-opacity="0.24" style="mix-blend-mode:overlay"/>
<path d="M27.5986 83.2002C29.6466 83.2002 30.6708 83.2 31.4531 83.5986C32.1411 83.9493 32.7001 84.5092 33.0507 85.1973C33.4492 85.9796 33.4501 87.0037 33.4501 89.0518V98.377C33.4501 100.425 33.4493 101.449 33.0507 102.231C32.7001 102.92 32.1412 103.479 31.4531 103.83C30.6708 104.229 29.6466 104.229 27.5986 104.229H19.954C18.4611 104.229 17.7143 104.228 17.2499 103.914C16.8442 103.639 16.5653 103.213 16.4765 102.731C16.375 102.18 16.675 101.495 17.2744 100.128L20.0849 93.7139L17.2744 87.2998C16.6751 85.9325 16.375 85.2488 16.4765 84.6973C16.5653 84.2153 16.8441 83.7894 17.2499 83.5146C17.7143 83.2003 18.461 83.2002 19.954 83.2002H27.5986ZM107.915 83.2002C109.408 83.2002 110.154 83.2004 110.618 83.5146C111.024 83.7894 111.303 84.2153 111.392 84.6973C111.493 85.2488 111.193 85.9324 110.594 87.2998L107.783 93.7139L110.594 100.128C111.193 101.495 111.493 102.18 111.392 102.731C111.303 103.213 111.024 103.639 110.618 103.914C110.154 104.228 109.408 104.229 107.915 104.229H100.269C98.2215 104.229 97.1972 104.229 96.415 103.83C95.7269 103.479 95.1679 102.92 94.8173 102.231C94.4188 101.449 94.4189 100.425 94.4189 98.377V89.0518C94.4189 87.0038 94.4188 85.9795 94.8173 85.1973C95.1679 84.5092 95.727 83.9493 96.415 83.5986C97.1972 83.2001 98.2215 83.2002 100.269 83.2002H107.915Z" fill="black" fill-opacity="0.12" style="mix-blend-mode:darken"/>
<g filter="url(#filter4_dd_10_12061)">
<rect x="23.7056" y="77.7139" width="80.4571" height="21.0286" rx="3.65714" fill="#FFA00F"/>
<rect x="23.8199" y="77.8282" width="80.2286" height="20.8" rx="3.54286" stroke="url(#paint11_linear_10_12061)" stroke-width="0.228571" stroke-linecap="round" style="mix-blend-mode:darken"/>
</g>
<rect x="23.7056" y="77.7139" width="80.4571" height="21.0286" rx="3.65714" fill="url(#paint12_linear_10_12061)" fill-opacity="0.3" style="mix-blend-mode:overlay"/>
<rect x="23.7056" y="77.7139" width="80.4571" height="21.0286" rx="3.65714" fill="url(#paint13_radial_10_12061)" fill-opacity="0.6" style="mix-blend-mode:overlay"/>
<g filter="url(#filter5_i_10_12061)">
<circle cx="28.7342" cy="88.2289" r="1.37143" fill="black" fill-opacity="0.24" style="mix-blend-mode:color-burn"/>
<circle cx="28.7342" cy="88.2289" r="1.37143" fill="black" fill-opacity="0.32" style="mix-blend-mode:darken"/>
</g>
<g filter="url(#filter6_i_10_12061)">
<circle cx="99.1341" cy="88.2289" r="1.37143" fill="black" fill-opacity="0.24" style="mix-blend-mode:color-burn"/>
<circle cx="99.1341" cy="88.2289" r="1.37143" fill="black" fill-opacity="0.32" style="mix-blend-mode:darken"/>
</g>
<g filter="url(#filter7_i_10_12061)">
<path d="M43.4102 85.9941C43.4102 86.1624 43.3664 86.3086 43.2786 86.433C43.1908 86.5573 43.0921 86.6561 42.9824 86.7292C42.7995 86.6049 42.591 86.4952 42.357 86.4001C42.1302 86.305 41.8596 86.2574 41.5451 86.2574C41.1574 86.2574 40.821 86.3416 40.5357 86.5098C40.2505 86.678 40.031 86.923 39.8774 87.2449C39.7312 87.5667 39.658 87.958 39.658 88.4188C39.658 89.121 39.8336 89.6549 40.1846 90.0206C40.5357 90.3864 41.0185 90.5692 41.6329 90.5692C41.9474 90.5692 42.218 90.5253 42.4448 90.4376C42.6715 90.3498 42.88 90.251 43.0701 90.1413C43.1798 90.2218 43.2676 90.3278 43.3334 90.4595C43.4066 90.5838 43.4432 90.7301 43.4432 90.8984C43.4432 91.0446 43.4029 91.18 43.3225 91.3043C43.2493 91.4286 43.1213 91.5347 42.9385 91.6225C42.7995 91.6956 42.602 91.7651 42.346 91.8309C42.09 91.8968 41.7792 91.9297 41.4134 91.9297C40.7698 91.9297 40.181 91.8053 39.647 91.5566C39.1204 91.3006 38.7035 90.9166 38.3963 90.4046C38.0891 89.8853 37.9355 89.2234 37.9355 88.4188C37.9355 87.6581 38.0854 87.0181 38.3853 86.4988C38.6925 85.9722 39.1021 85.5736 39.6141 85.3029C40.1261 85.0323 40.693 84.897 41.3147 84.897C41.7462 84.897 42.1193 84.9482 42.4338 85.0506C42.7483 85.1457 42.9897 85.2773 43.1579 85.4456C43.3261 85.6065 43.4102 85.7893 43.4102 85.9941ZM44.5863 87.0913H46.2101V91.6773C46.1443 91.692 46.0419 91.7102 45.9029 91.7322C45.7712 91.7541 45.6286 91.7651 45.475 91.7651C45.2044 91.7651 44.9886 91.6846 44.8277 91.5237C44.6668 91.3628 44.5863 91.147 44.5863 90.8764V87.0913ZM46.2101 89.7464H44.5863V85.9832C44.5863 85.7052 44.6668 85.4894 44.8277 85.3358C44.9886 85.1749 45.2044 85.0945 45.475 85.0945C45.6286 85.0945 45.7712 85.1054 45.9029 85.1274C46.0419 85.1493 46.1443 85.1676 46.2101 85.1822V89.7464ZM45.475 89.0113V87.6947H48.7884C48.8323 87.7678 48.8725 87.8593 48.9091 87.969C48.9456 88.0787 48.9639 88.1994 48.9639 88.331C48.9639 88.5651 48.9091 88.737 48.7994 88.8467C48.697 88.9564 48.558 89.0113 48.3824 89.0113H45.475ZM45.475 91.7651V90.4376H49.1504C49.1943 90.5034 49.2346 90.5948 49.2711 90.7118C49.3077 90.8289 49.326 90.9532 49.326 91.0849C49.326 91.3189 49.2711 91.4908 49.1614 91.6005C49.059 91.7102 48.92 91.7651 48.7445 91.7651H45.475ZM45.475 86.411V85.0945H49.0956C49.1468 85.1603 49.187 85.2481 49.2163 85.3578C49.2528 85.4675 49.2711 85.5882 49.2711 85.7198C49.2711 85.9539 49.2199 86.1294 49.1175 86.2465C49.0151 86.3562 48.8725 86.411 48.6896 86.411H45.475ZM50.5542 87.1242H52.2218V91.6773L51.4429 91.7651C51.1722 91.7651 50.9565 91.6846 50.7956 91.5237C50.6346 91.3628 50.5542 91.147 50.5542 90.8764V87.1242ZM51.4429 91.7651V90.4046H54.8879C54.9391 90.4778 54.983 90.5729 55.0196 90.6899C55.0561 90.7996 55.0744 90.924 55.0744 91.0629C55.0744 91.297 55.0232 91.4725 54.9208 91.5896C54.8184 91.7066 54.6758 91.7651 54.4929 91.7651H51.4429ZM52.2218 89.2088H50.5542V85.0725C50.6273 85.0579 50.737 85.0396 50.8833 85.0177C51.0369 84.9957 51.1832 84.9848 51.3222 84.9848C51.644 84.9848 51.8744 85.0396 52.0134 85.1493C52.1524 85.259 52.2218 85.4675 52.2218 85.7747V89.2088ZM56.147 87.0913H57.7708V91.6773C57.705 91.692 57.6026 91.7102 57.4636 91.7322C57.332 91.7541 57.1893 91.7651 57.0357 91.7651C56.7651 91.7651 56.5493 91.6846 56.3884 91.5237C56.2275 91.3628 56.147 91.147 56.147 90.8764V87.0913ZM57.7708 89.7464H56.147V85.9832C56.147 85.7052 56.2275 85.4894 56.3884 85.3358C56.5493 85.1749 56.7651 85.0945 57.0357 85.0945C57.1893 85.0945 57.332 85.1054 57.4636 85.1274C57.6026 85.1493 57.705 85.1676 57.7708 85.1822V89.7464ZM57.0357 89.0113V87.6947H60.3491C60.393 87.7678 60.4332 87.8593 60.4698 87.969C60.5064 88.0787 60.5246 88.1994 60.5246 88.331C60.5246 88.5651 60.4698 88.737 60.3601 88.8467C60.2577 88.9564 60.1187 89.0113 59.9432 89.0113H57.0357ZM57.0357 91.7651V90.4376H60.7112C60.755 90.5034 60.7953 90.5948 60.8318 90.7118C60.8684 90.8289 60.8867 90.9532 60.8867 91.0849C60.8867 91.3189 60.8318 91.4908 60.7221 91.6005C60.6197 91.7102 60.4808 91.7651 60.3052 91.7651H57.0357ZM57.0357 86.411V85.0945H60.6563C60.7075 85.1603 60.7477 85.2481 60.777 85.3578C60.8136 85.4675 60.8318 85.5882 60.8318 85.7198C60.8318 85.9539 60.7806 86.1294 60.6782 86.2465C60.5758 86.3562 60.4332 86.411 60.2504 86.411H57.0357ZM65.6038 87.7496V88.9345H63.1572V87.7496H65.6038ZM64.781 88.9345L64.9126 88.0238C65.5197 88.0238 66.0244 88.097 66.4267 88.2433C66.829 88.3896 67.1288 88.5944 67.3263 88.8577C67.5311 89.121 67.6335 89.4392 67.6335 89.8122C67.6335 90.5217 67.3702 91.0483 66.8436 91.3921C66.317 91.7358 65.5672 91.9077 64.5944 91.9077C64.4189 91.9077 64.2178 91.9004 63.991 91.8858C63.7716 91.8712 63.5448 91.8456 63.3108 91.809C63.084 91.7724 62.8756 91.7212 62.6854 91.6554C62.3051 91.5164 62.1149 91.2714 62.1149 90.9203V85.676C62.1149 85.537 62.1551 85.4273 62.2356 85.3468C62.316 85.2664 62.4221 85.2042 62.5538 85.1603C62.8024 85.0725 63.1023 85.0104 63.4534 84.9738C63.8118 84.9372 64.1775 84.9189 64.5506 84.9189C65.4575 84.9189 66.156 85.0762 66.6461 85.3907C67.1435 85.7052 67.3922 86.1806 67.3922 86.817C67.3922 87.1681 67.2898 87.468 67.085 87.7166C66.8802 87.9653 66.5803 88.1555 66.1853 88.2872C65.7976 88.4188 65.3259 88.4846 64.77 88.4846L64.6932 87.7496C65.0443 87.7496 65.3039 87.6801 65.4722 87.5411C65.6404 87.4021 65.7245 87.2046 65.7245 86.9486C65.7245 86.7073 65.6258 86.5208 65.4283 86.3891C65.2381 86.2574 64.9492 86.1916 64.5615 86.1916C64.4226 86.1916 64.2763 86.1989 64.1227 86.2136C63.9691 86.2209 63.8411 86.2355 63.7387 86.2574V90.5253C63.863 90.5546 64.013 90.5765 64.1885 90.5912C64.3714 90.6058 64.5432 90.6131 64.7042 90.6131C65.0699 90.6131 65.3624 90.5436 65.5819 90.4046C65.8086 90.2584 65.922 90.0389 65.922 89.7464C65.922 89.4684 65.8269 89.2636 65.6367 89.132C65.4466 89.0003 65.1613 88.9345 64.781 88.9345ZM70.5109 88.2104H71.224C71.5897 88.2104 71.8823 88.1299 72.1017 87.969C72.3285 87.8008 72.4418 87.5557 72.4418 87.2339C72.4418 86.9194 72.3358 86.6817 72.1237 86.5208C71.9116 86.3525 71.5861 86.2684 71.1472 86.2684C71.0229 86.2684 70.9095 86.2721 70.8071 86.2794C70.7047 86.2867 70.606 86.3013 70.5109 86.3233V88.2104ZM71.3776 89.505H68.8542V85.676C68.8542 85.537 68.8944 85.4273 68.9749 85.3468C69.0553 85.2664 69.1614 85.2042 69.293 85.1603C69.5344 85.0725 69.816 85.0104 70.1378 84.9738C70.467 84.9372 70.8071 84.9189 71.1582 84.9189C72.1456 84.9189 72.888 85.1274 73.3854 85.5443C73.8828 85.9539 74.1314 86.5134 74.1314 87.2229C74.1314 87.6618 74.0108 88.0568 73.7694 88.4078C73.5353 88.7516 73.2098 89.0222 72.7929 89.2197C72.3833 89.4099 71.9116 89.505 71.3776 89.505ZM71.0704 89.11L72.5625 88.7589C72.7308 88.993 72.9026 89.2234 73.0782 89.4501C73.261 89.6769 73.4329 89.8963 73.5938 90.1084C73.7621 90.3205 73.912 90.518 74.0437 90.7009C74.1753 90.8764 74.2814 91.0264 74.3618 91.1507C74.296 91.3701 74.179 91.542 74.0108 91.6664C73.8425 91.7834 73.6524 91.8419 73.4402 91.8419C73.1696 91.8419 72.9612 91.7834 72.8149 91.6664C72.6759 91.542 72.5442 91.3811 72.4199 91.1836L71.0704 89.11ZM68.8542 88.8796H70.5218V91.7322C70.456 91.7541 70.35 91.7724 70.2037 91.787C70.0574 91.809 69.9074 91.82 69.7538 91.82C69.4247 91.82 69.1906 91.7614 69.0517 91.6444C68.92 91.5274 68.8542 91.3226 68.8542 91.03V88.8796ZM75.4756 87.1022H77.1433V91.7322C77.0774 91.7541 76.9714 91.7724 76.8251 91.787C76.6788 91.809 76.5289 91.82 76.3753 91.82C76.0461 91.82 75.8121 91.7614 75.6731 91.6444C75.5414 91.5274 75.4756 91.3226 75.4756 91.03V87.1022ZM77.1433 89.2088H75.4756V85.0725C75.5488 85.0579 75.6585 85.0396 75.8048 85.0177C75.9584 84.9957 76.1083 84.9848 76.2546 84.9848C76.5691 84.9848 76.7958 85.0396 76.9348 85.1493C77.0738 85.259 77.1433 85.4675 77.1433 85.7747V89.2088ZM80.1596 86.433L80.1486 85.0945H83.5388C83.5826 85.1603 83.6229 85.2517 83.6594 85.3688C83.696 85.4858 83.7143 85.6101 83.7143 85.7418C83.7143 85.9758 83.6594 86.1514 83.5497 86.2684C83.4473 86.3781 83.3047 86.433 83.1218 86.433H80.1596ZM81.7065 85.0945L81.7175 86.433H78.3273C78.2761 86.3672 78.2322 86.2757 78.1957 86.1587C78.1664 86.0417 78.1518 85.9173 78.1518 85.7857C78.1518 85.5443 78.203 85.3688 78.3054 85.259C78.4151 85.1493 78.5577 85.0945 78.7333 85.0945H81.7065ZM80.0718 86.1368H81.7504V91.7322C81.6773 91.7541 81.5676 91.7724 81.4213 91.787C81.275 91.809 81.125 91.82 80.9714 91.82C80.6423 91.82 80.4082 91.7614 80.2693 91.6444C80.1376 91.5274 80.0718 91.3226 80.0718 91.03V86.1368ZM88.1076 89.6037H86.6155C86.4253 89.3258 86.2168 89.0113 85.9901 88.6602C85.7634 88.3091 85.5403 87.947 85.3208 87.574C85.1014 87.1937 84.893 86.828 84.6955 86.4769C84.5053 86.1258 84.3517 85.8113 84.2347 85.5333C84.3151 85.4163 84.4248 85.3066 84.5638 85.2042C84.7101 85.1018 84.893 85.0506 85.1124 85.0506C85.3611 85.0506 85.5622 85.1054 85.7158 85.2152C85.8694 85.3176 86.0157 85.5077 86.1547 85.7857C86.2498 85.9612 86.3448 86.1441 86.4399 86.3342C86.5423 86.5171 86.6411 86.7073 86.7362 86.9048C86.8386 87.0949 86.9373 87.2851 87.0324 87.4753C87.1348 87.6581 87.2299 87.8337 87.3176 88.0019H87.3725C87.5407 87.6654 87.6907 87.3546 87.8223 87.0693C87.954 86.7841 88.082 86.4952 88.2063 86.2026C88.338 85.9027 88.4806 85.5772 88.6342 85.2261C88.7439 85.1676 88.8683 85.1237 89.0072 85.0945C89.1462 85.0652 89.2779 85.0506 89.4022 85.0506C89.629 85.0506 89.8191 85.1091 89.9727 85.2261C90.1263 85.3432 90.2031 85.5187 90.2031 85.7528C90.2031 85.8405 90.1702 85.9685 90.1044 86.1368C90.0386 86.305 89.9252 86.539 89.7643 86.8389C89.6034 87.1315 89.3876 87.5045 89.117 87.958C88.8536 88.4042 88.5172 88.9528 88.1076 89.6037ZM86.5277 89.0003H88.1734V91.7322C88.1003 91.7541 87.9906 91.7724 87.8443 91.787C87.7053 91.809 87.5627 91.82 87.4164 91.82C87.0872 91.82 86.8568 91.7651 86.7252 91.6554C86.5935 91.5384 86.5277 91.3372 86.5277 91.052V89.0003Z" fill="black" fill-opacity="0.24" style="mix-blend-mode:color-burn"/>
<path d="M43.4102 85.9941C43.4102 86.1624 43.3664 86.3086 43.2786 86.433C43.1908 86.5573 43.0921 86.6561 42.9824 86.7292C42.7995 86.6049 42.591 86.4952 42.357 86.4001C42.1302 86.305 41.8596 86.2574 41.5451 86.2574C41.1574 86.2574 40.821 86.3416 40.5357 86.5098C40.2505 86.678 40.031 86.923 39.8774 87.2449C39.7312 87.5667 39.658 87.958 39.658 88.4188C39.658 89.121 39.8336 89.6549 40.1846 90.0206C40.5357 90.3864 41.0185 90.5692 41.6329 90.5692C41.9474 90.5692 42.218 90.5253 42.4448 90.4376C42.6715 90.3498 42.88 90.251 43.0701 90.1413C43.1798 90.2218 43.2676 90.3278 43.3334 90.4595C43.4066 90.5838 43.4432 90.7301 43.4432 90.8984C43.4432 91.0446 43.4029 91.18 43.3225 91.3043C43.2493 91.4286 43.1213 91.5347 42.9385 91.6225C42.7995 91.6956 42.602 91.7651 42.346 91.8309C42.09 91.8968 41.7792 91.9297 41.4134 91.9297C40.7698 91.9297 40.181 91.8053 39.647 91.5566C39.1204 91.3006 38.7035 90.9166 38.3963 90.4046C38.0891 89.8853 37.9355 89.2234 37.9355 88.4188C37.9355 87.6581 38.0854 87.0181 38.3853 86.4988C38.6925 85.9722 39.1021 85.5736 39.6141 85.3029C40.1261 85.0323 40.693 84.897 41.3147 84.897C41.7462 84.897 42.1193 84.9482 42.4338 85.0506C42.7483 85.1457 42.9897 85.2773 43.1579 85.4456C43.3261 85.6065 43.4102 85.7893 43.4102 85.9941ZM44.5863 87.0913H46.2101V91.6773C46.1443 91.692 46.0419 91.7102 45.9029 91.7322C45.7712 91.7541 45.6286 91.7651 45.475 91.7651C45.2044 91.7651 44.9886 91.6846 44.8277 91.5237C44.6668 91.3628 44.5863 91.147 44.5863 90.8764V87.0913ZM46.2101 89.7464H44.5863V85.9832C44.5863 85.7052 44.6668 85.4894 44.8277 85.3358C44.9886 85.1749 45.2044 85.0945 45.475 85.0945C45.6286 85.0945 45.7712 85.1054 45.9029 85.1274C46.0419 85.1493 46.1443 85.1676 46.2101 85.1822V89.7464ZM45.475 89.0113V87.6947H48.7884C48.8323 87.7678 48.8725 87.8593 48.9091 87.969C48.9456 88.0787 48.9639 88.1994 48.9639 88.331C48.9639 88.5651 48.9091 88.737 48.7994 88.8467C48.697 88.9564 48.558 89.0113 48.3824 89.0113H45.475ZM45.475 91.7651V90.4376H49.1504C49.1943 90.5034 49.2346 90.5948 49.2711 90.7118C49.3077 90.8289 49.326 90.9532 49.326 91.0849C49.326 91.3189 49.2711 91.4908 49.1614 91.6005C49.059 91.7102 48.92 91.7651 48.7445 91.7651H45.475ZM45.475 86.411V85.0945H49.0956C49.1468 85.1603 49.187 85.2481 49.2163 85.3578C49.2528 85.4675 49.2711 85.5882 49.2711 85.7198C49.2711 85.9539 49.2199 86.1294 49.1175 86.2465C49.0151 86.3562 48.8725 86.411 48.6896 86.411H45.475ZM50.5542 87.1242H52.2218V91.6773L51.4429 91.7651C51.1722 91.7651 50.9565 91.6846 50.7956 91.5237C50.6346 91.3628 50.5542 91.147 50.5542 90.8764V87.1242ZM51.4429 91.7651V90.4046H54.8879C54.9391 90.4778 54.983 90.5729 55.0196 90.6899C55.0561 90.7996 55.0744 90.924 55.0744 91.0629C55.0744 91.297 55.0232 91.4725 54.9208 91.5896C54.8184 91.7066 54.6758 91.7651 54.4929 91.7651H51.4429ZM52.2218 89.2088H50.5542V85.0725C50.6273 85.0579 50.737 85.0396 50.8833 85.0177C51.0369 84.9957 51.1832 84.9848 51.3222 84.9848C51.644 84.9848 51.8744 85.0396 52.0134 85.1493C52.1524 85.259 52.2218 85.4675 52.2218 85.7747V89.2088ZM56.147 87.0913H57.7708V91.6773C57.705 91.692 57.6026 91.7102 57.4636 91.7322C57.332 91.7541 57.1893 91.7651 57.0357 91.7651C56.7651 91.7651 56.5493 91.6846 56.3884 91.5237C56.2275 91.3628 56.147 91.147 56.147 90.8764V87.0913ZM57.7708 89.7464H56.147V85.9832C56.147 85.7052 56.2275 85.4894 56.3884 85.3358C56.5493 85.1749 56.7651 85.0945 57.0357 85.0945C57.1893 85.0945 57.332 85.1054 57.4636 85.1274C57.6026 85.1493 57.705 85.1676 57.7708 85.1822V89.7464ZM57.0357 89.0113V87.6947H60.3491C60.393 87.7678 60.4332 87.8593 60.4698 87.969C60.5064 88.0787 60.5246 88.1994 60.5246 88.331C60.5246 88.5651 60.4698 88.737 60.3601 88.8467C60.2577 88.9564 60.1187 89.0113 59.9432 89.0113H57.0357ZM57.0357 91.7651V90.4376H60.7112C60.755 90.5034 60.7953 90.5948 60.8318 90.7118C60.8684 90.8289 60.8867 90.9532 60.8867 91.0849C60.8867 91.3189 60.8318 91.4908 60.7221 91.6005C60.6197 91.7102 60.4808 91.7651 60.3052 91.7651H57.0357ZM57.0357 86.411V85.0945H60.6563C60.7075 85.1603 60.7477 85.2481 60.777 85.3578C60.8136 85.4675 60.8318 85.5882 60.8318 85.7198C60.8318 85.9539 60.7806 86.1294 60.6782 86.2465C60.5758 86.3562 60.4332 86.411 60.2504 86.411H57.0357ZM65.6038 87.7496V88.9345H63.1572V87.7496H65.6038ZM64.781 88.9345L64.9126 88.0238C65.5197 88.0238 66.0244 88.097 66.4267 88.2433C66.829 88.3896 67.1288 88.5944 67.3263 88.8577C67.5311 89.121 67.6335 89.4392 67.6335 89.8122C67.6335 90.5217 67.3702 91.0483 66.8436 91.3921C66.317 91.7358 65.5672 91.9077 64.5944 91.9077C64.4189 91.9077 64.2178 91.9004 63.991 91.8858C63.7716 91.8712 63.5448 91.8456 63.3108 91.809C63.084 91.7724 62.8756 91.7212 62.6854 91.6554C62.3051 91.5164 62.1149 91.2714 62.1149 90.9203V85.676C62.1149 85.537 62.1551 85.4273 62.2356 85.3468C62.316 85.2664 62.4221 85.2042 62.5538 85.1603C62.8024 85.0725 63.1023 85.0104 63.4534 84.9738C63.8118 84.9372 64.1775 84.9189 64.5506 84.9189C65.4575 84.9189 66.156 85.0762 66.6461 85.3907C67.1435 85.7052 67.3922 86.1806 67.3922 86.817C67.3922 87.1681 67.2898 87.468 67.085 87.7166C66.8802 87.9653 66.5803 88.1555 66.1853 88.2872C65.7976 88.4188 65.3259 88.4846 64.77 88.4846L64.6932 87.7496C65.0443 87.7496 65.3039 87.6801 65.4722 87.5411C65.6404 87.4021 65.7245 87.2046 65.7245 86.9486C65.7245 86.7073 65.6258 86.5208 65.4283 86.3891C65.2381 86.2574 64.9492 86.1916 64.5615 86.1916C64.4226 86.1916 64.2763 86.1989 64.1227 86.2136C63.9691 86.2209 63.8411 86.2355 63.7387 86.2574V90.5253C63.863 90.5546 64.013 90.5765 64.1885 90.5912C64.3714 90.6058 64.5432 90.6131 64.7042 90.6131C65.0699 90.6131 65.3624 90.5436 65.5819 90.4046C65.8086 90.2584 65.922 90.0389 65.922 89.7464C65.922 89.4684 65.8269 89.2636 65.6367 89.132C65.4466 89.0003 65.1613 88.9345 64.781 88.9345ZM70.5109 88.2104H71.224C71.5897 88.2104 71.8823 88.1299 72.1017 87.969C72.3285 87.8008 72.4418 87.5557 72.4418 87.2339C72.4418 86.9194 72.3358 86.6817 72.1237 86.5208C71.9116 86.3525 71.5861 86.2684 71.1472 86.2684C71.0229 86.2684 70.9095 86.2721 70.8071 86.2794C70.7047 86.2867 70.606 86.3013 70.5109 86.3233V88.2104ZM71.3776 89.505H68.8542V85.676C68.8542 85.537 68.8944 85.4273 68.9749 85.3468C69.0553 85.2664 69.1614 85.2042 69.293 85.1603C69.5344 85.0725 69.816 85.0104 70.1378 84.9738C70.467 84.9372 70.8071 84.9189 71.1582 84.9189C72.1456 84.9189 72.888 85.1274 73.3854 85.5443C73.8828 85.9539 74.1314 86.5134 74.1314 87.2229C74.1314 87.6618 74.0108 88.0568 73.7694 88.4078C73.5353 88.7516 73.2098 89.0222 72.7929 89.2197C72.3833 89.4099 71.9116 89.505 71.3776 89.505ZM71.0704 89.11L72.5625 88.7589C72.7308 88.993 72.9026 89.2234 73.0782 89.4501C73.261 89.6769 73.4329 89.8963 73.5938 90.1084C73.7621 90.3205 73.912 90.518 74.0437 90.7009C74.1753 90.8764 74.2814 91.0264 74.3618 91.1507C74.296 91.3701 74.179 91.542 74.0108 91.6664C73.8425 91.7834 73.6524 91.8419 73.4402 91.8419C73.1696 91.8419 72.9612 91.7834 72.8149 91.6664C72.6759 91.542 72.5442 91.3811 72.4199 91.1836L71.0704 89.11ZM68.8542 88.8796H70.5218V91.7322C70.456 91.7541 70.35 91.7724 70.2037 91.787C70.0574 91.809 69.9074 91.82 69.7538 91.82C69.4247 91.82 69.1906 91.7614 69.0517 91.6444C68.92 91.5274 68.8542 91.3226 68.8542 91.03V88.8796ZM75.4756 87.1022H77.1433V91.7322C77.0774 91.7541 76.9714 91.7724 76.8251 91.787C76.6788 91.809 76.5289 91.82 76.3753 91.82C76.0461 91.82 75.8121 91.7614 75.6731 91.6444C75.5414 91.5274 75.4756 91.3226 75.4756 91.03V87.1022ZM77.1433 89.2088H75.4756V85.0725C75.5488 85.0579 75.6585 85.0396 75.8048 85.0177C75.9584 84.9957 76.1083 84.9848 76.2546 84.9848C76.5691 84.9848 76.7958 85.0396 76.9348 85.1493C77.0738 85.259 77.1433 85.4675 77.1433 85.7747V89.2088ZM80.1596 86.433L80.1486 85.0945H83.5388C83.5826 85.1603 83.6229 85.2517 83.6594 85.3688C83.696 85.4858 83.7143 85.6101 83.7143 85.7418C83.7143 85.9758 83.6594 86.1514 83.5497 86.2684C83.4473 86.3781 83.3047 86.433 83.1218 86.433H80.1596ZM81.7065 85.0945L81.7175 86.433H78.3273C78.2761 86.3672 78.2322 86.2757 78.1957 86.1587C78.1664 86.0417 78.1518 85.9173 78.1518 85.7857C78.1518 85.5443 78.203 85.3688 78.3054 85.259C78.4151 85.1493 78.5577 85.0945 78.7333 85.0945H81.7065ZM80.0718 86.1368H81.7504V91.7322C81.6773 91.7541 81.5676 91.7724 81.4213 91.787C81.275 91.809 81.125 91.82 80.9714 91.82C80.6423 91.82 80.4082 91.7614 80.2693 91.6444C80.1376 91.5274 80.0718 91.3226 80.0718 91.03V86.1368ZM88.1076 89.6037H86.6155C86.4253 89.3258 86.2168 89.0113 85.9901 88.6602C85.7634 88.3091 85.5403 87.947 85.3208 87.574C85.1014 87.1937 84.893 86.828 84.6955 86.4769C84.5053 86.1258 84.3517 85.8113 84.2347 85.5333C84.3151 85.4163 84.4248 85.3066 84.5638 85.2042C84.7101 85.1018 84.893 85.0506 85.1124 85.0506C85.3611 85.0506 85.5622 85.1054 85.7158 85.2152C85.8694 85.3176 86.0157 85.5077 86.1547 85.7857C86.2498 85.9612 86.3448 86.1441 86.4399 86.3342C86.5423 86.5171 86.6411 86.7073 86.7362 86.9048C86.8386 87.0949 86.9373 87.2851 87.0324 87.4753C87.1348 87.6581 87.2299 87.8337 87.3176 88.0019H87.3725C87.5407 87.6654 87.6907 87.3546 87.8223 87.0693C87.954 86.7841 88.082 86.4952 88.2063 86.2026C88.338 85.9027 88.4806 85.5772 88.6342 85.2261C88.7439 85.1676 88.8683 85.1237 89.0072 85.0945C89.1462 85.0652 89.2779 85.0506 89.4022 85.0506C89.629 85.0506 89.8191 85.1091 89.9727 85.2261C90.1263 85.3432 90.2031 85.5187 90.2031 85.7528C90.2031 85.8405 90.1702 85.9685 90.1044 86.1368C90.0386 86.305 89.9252 86.539 89.7643 86.8389C89.6034 87.1315 89.3876 87.5045 89.117 87.958C88.8536 88.4042 88.5172 88.9528 88.1076 89.6037ZM86.5277 89.0003H88.1734V91.7322C88.1003 91.7541 87.9906 91.7724 87.8443 91.787C87.7053 91.809 87.5627 91.82 87.4164 91.82C87.0872 91.82 86.8568 91.7651 86.7252 91.6554C86.5935 91.5384 86.5277 91.3372 86.5277 91.052V89.0003Z" fill="black" fill-opacity="0.32" style="mix-blend-mode:darken"/>
</g>
<defs>
<filter id="filter0_dddd_10_12061" x="6.65891" y="14.0775" width="114.791" height="150.702" filterUnits="userSpaceOnUse" color-interpolation-filters="sRGB">
<feFlood flood-opacity="0" result="BackgroundImageFix"/>
<feColorMatrix in="SourceAlpha" type="matrix" values="0 0 0 0 0 0 0 0 0 0 0 0 0 0 0 0 0 0 127 0" result="hardAlpha"/>
<feOffset dy="2.28571"/>
<feGaussianBlur stdDeviation="2.51429"/>
<feColorMatrix type="matrix" values="0 0 0 0 0 0 0 0 0 0 0 0 0 0 0 0 0 0 0.24 0"/>
<feBlend mode="normal" in2="BackgroundImageFix" result="effect1_dropShadow_10_12061"/>
<feColorMatrix in="SourceAlpha" type="matrix" values="0 0 0 0 0 0 0 0 0 0 0 0 0 0 0 0 0 0 127 0" result="hardAlpha"/>
<feOffset dy="9.6"/>
<feGaussianBlur stdDeviation="4.8"/>
<feColorMatrix type="matrix" values="0 0 0 0 0 0 0 0 0 0 0 0 0 0 0 0 0 0 0.21 0"/>
<feBlend mode="normal" in2="effect1_dropShadow_10_12061" result="effect2_dropShadow_10_12061"/>
<feColorMatrix in="SourceAlpha" type="matrix" values="0 0 0 0 0 0 0 0 0 0 0 0 0 0 0 0 0 0 127 0" result="hardAlpha"/>
<feOffset dy="21.0286"/>
<feGaussianBlur stdDeviation="6.4"/>
<feColorMatrix type="matrix" values="0 0 0 0 0 0 0 0 0 0 0 0 0 0 0 0 0 0 0.12 0"/>
<feBlend mode="normal" in2="effect2_dropShadow_10_12061" result="effect3_dropShadow_10_12061"/>
<feColorMatrix in="SourceAlpha" type="matrix" values="0 0 0 0 0 0 0 0 0 0 0 0 0 0 0 0 0 0 127 0" result="hardAlpha"/>
<feOffset dy="37.4857"/>
<feGaussianBlur stdDeviation="7.54286"/>
<feColorMatrix type="matrix" values="0 0 0 0 0 0 0 0 0 0 0 0 0 0 0 0 0 0 0.04 0"/>
<feBlend mode="normal" in2="effect3_dropShadow_10_12061" result="effect4_dropShadow_10_12061"/>
<feBlend mode="normal" in="SourceGraphic" in2="effect4_dropShadow_10_12061" result="shape"/>
</filter>
<filter id="filter1_d_10_12061" x="18.088" y="14.0775" width="91.9334" height="102.703" filterUnits="userSpaceOnUse" color-interpolation-filters="sRGB">
<feFlood flood-opacity="0" result="BackgroundImageFix"/>
<feColorMatrix in="SourceAlpha" type="matrix" values="0 0 0 0 0 0 0 0 0 0 0 0 0 0 0 0 0 0 127 0" result="hardAlpha"/>
<feOffset dy="0.914286"/>
<feGaussianBlur stdDeviation="1.82857"/>
<feColorMatrix type="matrix" values="0 0 0 0 0 0 0 0 0 0 0 0 0 0 0 0 0 0 0.16 0"/>
<feBlend mode="color-burn" in2="BackgroundImageFix" result="effect1_dropShadow_10_12061"/>
<feBlend mode="normal" in="SourceGraphic" in2="effect1_dropShadow_10_12061" result="shape"/>
</filter>
<filter id="filter2_d_10_12061" x="41.6188" y="36.3778" width="44.7624" height="43.4636" filterUnits="userSpaceOnUse" color-interpolation-filters="sRGB">
<feFlood flood-opacity="0" result="BackgroundImageFix"/>
<feColorMatrix in="SourceAlpha" type="matrix" values="0 0 0 0 0 0 0 0 0 0 0 0 0 0 0 0 0 0 127 0" result="hardAlpha"/>
<feOffset dy="0.914286"/>
<feGaussianBlur stdDeviation="2.74286"/>
<feColorMatrix type="matrix" values="0 0 0 0 0 0 0 0 0 0 0 0 0 0 0 0 0 0 0.12 0"/>
<feBlend mode="plus-darker" in2="BackgroundImageFix" result="effect1_dropShadow_10_12061"/>
<feBlend mode="normal" in="SourceGraphic" in2="effect1_dropShadow_10_12061" result="shape"/>
</filter>
<filter id="filter3_dd_10_12061" x="10.9713" y="79.5431" width="105.926" height="31.9997" filterUnits="userSpaceOnUse" color-interpolation-filters="sRGB">
<feFlood flood-opacity="0" result="BackgroundImageFix"/>
<feColorMatrix in="SourceAlpha" type="matrix" values="0 0 0 0 0 0 0 0 0 0 0 0 0 0 0 0 0 0 127 0" result="hardAlpha"/>
<feOffset dy="1.82857"/>
<feGaussianBlur stdDeviation="2.74286"/>
<feColorMatrix type="matrix" values="0 0 0 0 0 0 0 0 0 0 0 0 0 0 0 0 0 0 0.16 0"/>
<feBlend mode="normal" in2="BackgroundImageFix" result="effect1_dropShadow_10_12061"/>
<feColorMatrix in="SourceAlpha" type="matrix" values="0 0 0 0 0 0 0 0 0 0 0 0 0 0 0 0 0 0 127 0" result="hardAlpha"/>
<feOffset dy="0.914286"/>
<feGaussianBlur stdDeviation="0.914286"/>
<feColorMatrix type="matrix" values="0 0 0 0 0 0 0 0 0 0 0 0 0 0 0 0 0 0 0.24 0"/>
<feBlend mode="normal" in2="effect1_dropShadow_10_12061" result="effect2_dropShadow_10_12061"/>
<feBlend mode="normal" in="SourceGraphic" in2="effect2_dropShadow_10_12061" result="shape"/>
</filter>
<filter id="filter4_dd_10_12061" x="18.2199" y="74.0567" width="91.4285" height="31.9997" filterUnits="userSpaceOnUse" color-interpolation-filters="sRGB">
<feFlood flood-opacity="0" result="BackgroundImageFix"/>
<feColorMatrix in="SourceAlpha" type="matrix" values="0 0 0 0 0 0 0 0 0 0 0 0 0 0 0 0 0 0 127 0" result="hardAlpha"/>
<feOffset dy="1.82857"/>
<feGaussianBlur stdDeviation="2.74286"/>
<feColorMatrix type="matrix" values="0 0 0 0 0 0 0 0 0 0 0 0 0 0 0 0 0 0 0.16 0"/>
<feBlend mode="normal" in2="BackgroundImageFix" result="effect1_dropShadow_10_12061"/>
<feColorMatrix in="SourceAlpha" type="matrix" values="0 0 0 0 0 0 0 0 0 0 0 0 0 0 0 0 0 0 127 0" result="hardAlpha"/>
<feOffset dy="0.914286"/>
<feGaussianBlur stdDeviation="0.914286"/>
<feColorMatrix type="matrix" values="0 0 0 0 0 0 0 0 0 0 0 0 0 0 0 0 0 0 0.24 0"/>
<feBlend mode="normal" in2="effect1_dropShadow_10_12061" result="effect2_dropShadow_10_12061"/>
<feBlend mode="normal" in="SourceGraphic" in2="effect2_dropShadow_10_12061" result="shape"/>
</filter>
<filter id="filter5_i_10_12061" x="27.3628" y="86.8574" width="2.74268" height="3.20031" filterUnits="userSpaceOnUse" color-interpolation-filters="sRGB">
<feFlood flood-opacity="0" result="BackgroundImageFix"/>
<feBlend mode="normal" in="SourceGraphic" in2="BackgroundImageFix" result="shape"/>
<feColorMatrix in="SourceAlpha" type="matrix" values="0 0 0 0 0 0 0 0 0 0 0 0 0 0 0 0 0 0 127 0" result="hardAlpha"/>
<feOffset dy="0.457143"/>
<feGaussianBlur stdDeviation="0.457143"/>
<feComposite in2="hardAlpha" operator="arithmetic" k2="-1" k3="1"/>
<feColorMatrix type="matrix" values="0 0 0 0 0 0 0 0 0 0 0 0 0 0 0 0 0 0 0.24 0"/>
<feBlend mode="darken" in2="shape" result="effect1_innerShadow_10_12061"/>
</filter>
<filter id="filter6_i_10_12061" x="97.7627" y="86.8574" width="2.74268" height="3.20031" filterUnits="userSpaceOnUse" color-interpolation-filters="sRGB">
<feFlood flood-opacity="0" result="BackgroundImageFix"/>
<feBlend mode="normal" in="SourceGraphic" in2="BackgroundImageFix" result="shape"/>
<feColorMatrix in="SourceAlpha" type="matrix" values="0 0 0 0 0 0 0 0 0 0 0 0 0 0 0 0 0 0 127 0" result="hardAlpha"/>
<feOffset dy="0.457143"/>
<feGaussianBlur stdDeviation="0.457143"/>
<feComposite in2="hardAlpha" operator="arithmetic" k2="-1" k3="1"/>
<feColorMatrix type="matrix" values="0 0 0 0 0 0 0 0 0 0 0 0 0 0 0 0 0 0 0.24 0"/>
<feBlend mode="darken" in2="shape" result="effect1_innerShadow_10_12061"/>
</filter>
<filter id="filter7_i_10_12061" x="37.9355" y="84.8975" width="52.2676" height="7.48937" filterUnits="userSpaceOnUse" color-interpolation-filters="sRGB">
<feFlood flood-opacity="0" result="BackgroundImageFix"/>
<feBlend mode="normal" in="SourceGraphic" in2="BackgroundImageFix" result="shape"/>
<feColorMatrix in="SourceAlpha" type="matrix" values="0 0 0 0 0 0 0 0 0 0 0 0 0 0 0 0 0 0 127 0" result="hardAlpha"/>
<feOffset dy="0.457143"/>
<feGaussianBlur stdDeviation="0.457143"/>
<feComposite in2="hardAlpha" operator="arithmetic" k2="-1" k3="1"/>
<feColorMatrix type="matrix" values="0 0 0 0 0 0 0 0 0 0 0 0 0 0 0 0 0 0 0.24 0"/>
<feBlend mode="darken" in2="shape" result="effect1_innerShadow_10_12061"/>
</filter>
<linearGradient id="paint0_linear_10_12061" x1="64" y1="14.5044" x2="64" y2="112.832" gradientUnits="userSpaceOnUse">
<stop stop-color="white"/>
<stop offset="1" stop-color="white" stop-opacity="0"/>
</linearGradient>
<radialGradient id="paint1_radial_10_12061" cx="0" cy="0" r="1" gradientUnits="userSpaceOnUse" gradientTransform="translate(64 42.7474) rotate(90) scale(64.8543 49.2063)">
<stop stop-color="white"/>
<stop offset="1" stop-color="white" stop-opacity="0"/>
</radialGradient>
<linearGradient id="paint2_linear_10_12061" x1="106.112" y1="18.5708" x2="106.112" y2="112.269" gradientUnits="userSpaceOnUse">
<stop stop-color="#49F0BC"/>
<stop offset="1" stop-color="#29DCCC"/>
</linearGradient>
<linearGradient id="paint3_linear_10_12061" x1="63.543" y1="14.5044" x2="63.543" y2="112.832" gradientUnits="userSpaceOnUse">
<stop stop-color="white"/>
<stop offset="1" stop-color="white" stop-opacity="0"/>
</linearGradient>
<radialGradient id="paint4_radial_10_12061" cx="0" cy="0" r="1" gradientUnits="userSpaceOnUse" gradientTransform="translate(63.543 42.7474) rotate(90) scale(64.8543 49.2063)">
<stop stop-color="white"/>
<stop offset="1" stop-color="white" stop-opacity="0"/>
</radialGradient>
<linearGradient id="paint5_linear_10_12061" x1="0" y1="0" x2="0" y2="128" gradientUnits="userSpaceOnUse">
<stop stop-color="white"/>
<stop offset="1" stop-color="white" stop-opacity="0.01"/>
</linearGradient>
<linearGradient id="paint6_linear_10_12061" x1="64.0547" y1="16.8203" x2="64.0547" y2="112.209" gradientUnits="userSpaceOnUse">
<stop stop-color="white"/>
<stop offset="1" stop-color="#999999"/>
</linearGradient>
<linearGradient id="paint7_linear_10_12061" x1="64" y1="41.1777" x2="64" y2="73.213" gradientUnits="userSpaceOnUse">
<stop stop-color="#DFDFDF"/>
<stop offset="1" stop-color="#A9A9A9"/>
</linearGradient>
<linearGradient id="paint8_linear_10_12061" x1="63.934" y1="83.2002" x2="63.934" y2="104.229" gradientUnits="userSpaceOnUse">
<stop stop-opacity="0"/>
<stop offset="1" stop-opacity="0.16"/>
</linearGradient>
<linearGradient id="paint9_linear_10_12061" x1="63.9341" y1="72.686" x2="63.9341" y2="104.229" gradientUnits="userSpaceOnUse">
<stop stop-color="white"/>
<stop offset="1" stop-color="white" stop-opacity="0"/>
</linearGradient>
<radialGradient id="paint10_radial_10_12061" cx="0" cy="0" r="1" gradientUnits="userSpaceOnUse" gradientTransform="translate(63.9341 83.2002) rotate(90) scale(21.0283 88.3293)">
<stop stop-color="white"/>
<stop offset="1" stop-color="white" stop-opacity="0"/>
</radialGradient>
<linearGradient id="paint11_linear_10_12061" x1="63.9341" y1="77.7139" x2="63.9341" y2="98.7424" gradientUnits="userSpaceOnUse">
<stop stop-opacity="0"/>
<stop offset="1" stop-opacity="0.16"/>
</linearGradient>
<linearGradient id="paint12_linear_10_12061" x1="63.9341" y1="77.7139" x2="63.9341" y2="98.7424" gradientUnits="userSpaceOnUse">
<stop stop-color="white"/>
<stop offset="1" stop-color="white" stop-opacity="0"/>
</linearGradient>
<radialGradient id="paint13_radial_10_12061" cx="0" cy="0" r="1" gradientUnits="userSpaceOnUse" gradientTransform="translate(63.9341 81.3834) rotate(90) scale(17.359 40.2286)">
<stop stop-color="white"/>
<stop offset="1" stop-color="white" stop-opacity="0"/>
</radialGradient>
</defs>
</svg>
