<svg width="24" height="24" viewBox="0 0 21 22" fill="none" xmlns="http://www.w3.org/2000/svg"><g clip-path="url(#clip0_10_20989)"><path d="M10.5002 21.5001C15.977 21.5001 20.4168 17.0602 20.4168 11.5834C20.4168 6.10659 15.977 1.66675 10.5002 1.66675C5.02334 1.66675 0.583496 6.10659 0.583496 11.5834C0.583496 17.0602 5.02334 21.5001 10.5002 21.5001Z" fill="#F4900C"/><path d="M10.5002 20.3333C15.977 20.3333 20.4168 15.8935 20.4168 10.4167C20.4168 4.93984 15.977 0.5 10.5002 0.5C5.02334 0.5 0.583496 4.93984 0.583496 10.4167C0.583496 15.8935 5.02334 20.3333 10.5002 20.3333Z" fill="#FFCC4D"/><path d="M10.5002 19.1666C15.0105 19.1666 18.6668 15.5102 18.6668 10.9999C18.6668 6.48959 15.0105 2.83325 10.5002 2.83325C5.98984 2.83325 2.3335 6.48959 2.3335 10.9999C2.3335 15.5102 5.98984 19.1666 10.5002 19.1666Z" fill="#FFE8B6"/><path d="M10.5002 18.5833C15.0105 18.5833 18.6668 14.927 18.6668 10.4167C18.6668 5.90634 15.0105 2.25 10.5002 2.25C5.98984 2.25 2.3335 5.90634 2.3335 10.4167C2.3335 14.927 5.98984 18.5833 10.5002 18.5833Z" fill="#FFAC33"/><path d="M7.67816 9.70268C7.67816 9.70268 7.60992 9.7315 7.58367 9.64768C7.62304 9.58219 7.40521 8.99542 9.48903 8.59988C11.7251 8.2803 12.8326 8.74133 12.7985 8.71513C11.835 8.37058 10.8039 8.25664 9.78822 8.38246C8.03508 8.60774 7.66766 8.95351 7.42621 9.43026C7.42621 9.43026 7.35272 8.75705 7.3501 8.64441C7.36584 8.5894 7.78313 7.68567 10.1058 7.40276C9.24528 7.38787 8.39756 7.61188 7.65716 8.04978C7.65716 8.04978 7.60205 7.8376 7.9616 7.57565C8.72898 7.11289 9.60562 6.8616 10.5021 6.84743C11.1762 6.82131 11.8494 6.91807 12.4888 7.13296C13.0767 7.3399 13.4284 7.63066 13.4021 7.87689C13.3988 7.95151 13.3828 8.02503 13.3549 8.09431C13.3549 8.09431 13.7092 8.19123 13.6541 8.68894C13.5989 9.18664 13.6357 9.68435 13.3916 9.66601C13.3575 9.69483 13.0714 9.17093 10.5047 9.14211C7.95372 9.22856 7.71227 9.73412 7.67816 9.70268Z" fill="#FFE8B6"/><path d="M8.43157 12.5527C8.41998 12.5398 8.40772 12.5276 8.39482 12.516C8.37684 12.5011 8.35752 12.488 8.33709 12.4767C8.322 12.4678 8.30474 12.4633 8.28722 12.4636C8.28007 12.4634 8.27305 12.4656 8.26733 12.4699C8.26161 12.4742 8.25751 12.4803 8.25573 12.4872C8.23793 12.5367 8.22389 12.5875 8.21374 12.6391C8.21374 12.6627 8.21374 12.6837 8.20061 12.7072C8.1665 12.4767 8.13238 12.241 8.10089 12.0078C7.98803 11.201 7.89093 10.3916 7.80957 9.62146C7.80957 9.54288 7.79382 9.46691 7.78857 9.39094L8.03527 9.33594C8.03527 9.39357 8.03527 9.45119 8.05364 9.5062C8.07202 9.56121 8.05364 9.60575 8.06677 9.65552L8.09039 9.87555C8.1665 10.5697 8.25573 11.2901 8.35283 12.0026L8.43157 12.5527Z" fill="#FFE8B6"/><path d="M8.55459 13.3673L8.53622 13.4223C8.52896 13.4447 8.51834 13.4659 8.50472 13.4852C8.49625 13.499 8.48562 13.5114 8.47323 13.5219C8.46717 13.5251 8.46041 13.5268 8.45354 13.5268C8.44668 13.5268 8.43992 13.5251 8.43386 13.5219C8.42147 13.5143 8.41069 13.5045 8.40213 13.4928C8.39357 13.4811 8.38741 13.4678 8.384 13.4538C8.37312 13.4109 8.36696 13.367 8.36562 13.3228C8.36185 13.2661 8.36185 13.2092 8.36562 13.1525C8.36562 13.0896 8.37875 13.0294 8.38924 12.9692C8.39974 12.9089 8.41549 12.8539 8.43124 12.7989C8.44698 12.7439 8.44436 12.7517 8.45223 12.7334C8.48897 12.9482 8.52309 13.1578 8.55459 13.3673Z" fill="#FFE8B6"/><path d="M12.4257 13.6529V13.6686C12.4245 13.6582 12.4245 13.6476 12.4257 13.6372L12.4519 13.6162L12.4257 13.6529Z" fill="#FFE8B6"/><path d="M12.6649 13.6581C12.615 13.9672 12.5652 14.2684 12.5153 14.5644C12.4129 15.1433 12.308 15.6908 12.2004 16.1911C11.0488 16.3326 9.88032 16.2363 8.76757 15.9082C8.65997 15.421 8.55499 14.8892 8.45526 14.3365C8.41327 14.0903 8.36865 13.8362 8.32666 13.5769C8.35267 13.6004 8.38605 13.6143 8.42114 13.6161C8.43825 13.6185 8.45566 13.6168 8.47204 13.6114C8.48842 13.6059 8.50333 13.5968 8.51562 13.5847C8.53489 13.5647 8.55083 13.5417 8.56286 13.5166C8.61273 13.8283 8.66259 14.1322 8.71508 14.4256L8.76232 14.6875C8.82793 15.0542 8.89617 15.4053 8.9644 15.7353C9.93972 16.0539 10.9771 16.1356 11.9904 15.9737C12.056 15.6541 12.1216 15.3162 12.1846 14.9626C12.2056 14.8552 12.224 14.7451 12.2424 14.6351C12.2826 14.4046 12.322 14.1689 12.3605 13.9279L12.4103 13.8729L12.5153 13.7393C12.568 13.7178 12.6182 13.6906 12.6649 13.6581Z" fill="#FFE8B6"/><path d="M12.7042 13.4563L12.6884 13.5585C12.6645 13.5771 12.639 13.5938 12.6123 13.6082L12.6622 13.5296L12.7042 13.4563Z" fill="#FFE8B6"/><path d="M12.7485 13.1577V13.2363C12.7328 13.2238 12.7135 13.2165 12.6934 13.2153C12.675 13.2153 12.6593 13.2284 12.6488 13.2546L12.6304 13.2913C12.6304 13.3096 12.6094 13.3332 12.5937 13.3594L12.5438 13.4406C12.5228 13.4668 12.5045 13.493 12.4835 13.5166L12.4546 13.548L12.494 13.2861C12.5143 13.2649 12.5372 13.2465 12.5622 13.2311C12.6029 13.2004 12.6493 13.1782 12.6987 13.1656C12.7149 13.1608 12.7316 13.1582 12.7485 13.1577Z" fill="#FFE8B6"/><path d="M13.2159 9.33317L13.1923 9.55583C13.1136 10.3941 13.0112 11.2664 12.8957 12.1308C12.8538 12.4425 12.8091 12.7516 12.7645 13.0555C12.7375 13.0529 12.7102 13.0529 12.6832 13.0555C12.6226 13.0576 12.563 13.071 12.5073 13.0948C12.5572 12.7726 12.6018 12.4425 12.6464 12.1125C12.7488 11.3449 12.8433 10.567 12.9089 9.80992C12.922 9.69204 12.9325 9.57678 12.943 9.46153C12.943 9.4039 12.943 9.34627 12.9614 9.29126L13.2159 9.33317Z" fill="#FFE8B6"/><path d="M7.9248 9.68694C8.01929 9.66336 8.11639 9.64503 8.21874 9.62931C8.3211 9.61359 8.42345 9.59526 8.53106 9.58216C8.75307 9.55531 8.97703 9.5483 9.20029 9.5612C8.97943 9.59213 8.76166 9.64208 8.54943 9.71051C8.44707 9.74195 8.34997 9.776 8.25549 9.81267C8.16101 9.84935 8.06653 9.8834 7.99304 9.92007C7.96155 9.84149 7.94318 9.76552 7.9248 9.68694Z" fill="#FFE8B6"/><path d="M13.0399 9.84927C12.8772 9.79164 12.6961 9.73401 12.515 9.68162C12.3339 9.62923 12.1239 9.57684 11.9166 9.53493C11.7093 9.49302 11.4941 9.45111 11.2736 9.4223C11.0499 9.39328 10.8247 9.37754 10.5991 9.37514C10.8244 9.34338 11.0514 9.32588 11.2789 9.32275C11.5019 9.32275 11.7224 9.32275 11.9376 9.33847C12.1528 9.35419 12.3575 9.37252 12.5543 9.39872C12.7512 9.42491 12.9375 9.45373 13.1134 9.4904C13.0845 9.60828 13.0635 9.72877 13.0399 9.84927Z" fill="#FFE8B6"/><path d="M12.3366 14.9128L12.2762 14.9337L12.2211 14.9494L12.1161 14.9756C12.0444 14.9914 11.9735 15.0044 11.9035 15.0149C11.7635 15.0358 11.6225 15.0489 11.481 15.0542C11.3393 15.0542 11.2002 15.0542 11.0585 15.0542L10.8459 15.0385L10.6333 15.0149L10.8459 15.0018L11.0558 14.9783C11.1976 14.9599 11.3367 14.9337 11.4731 14.9023C11.6118 14.871 11.7485 14.8316 11.8825 14.7844C11.9508 14.7608 12.0164 14.7373 12.082 14.7084L12.1765 14.6665L12.2237 14.643C12.2375 14.6363 12.2507 14.6284 12.2631 14.6194C12.2867 14.7294 12.313 14.8158 12.3366 14.9128Z" fill="#FFE8B6"/><path d="M8.66223 14.3784C8.73572 14.4256 8.81445 14.4701 8.89318 14.512C8.97192 14.5539 9.04803 14.5985 9.12676 14.6377C9.28268 14.7172 9.44406 14.7854 9.60966 14.8421C9.44366 14.8294 9.27877 14.8049 9.11626 14.7687L8.86956 14.7085L8.62549 14.6351C8.63861 14.5487 8.63861 14.4675 8.66223 14.3784Z" fill="#FFE8B6"/><path d="M12.0215 6.0379C12.0215 6.23174 12.0373 6.43082 12.0425 6.63514C12.0432 6.64383 12.0418 6.65255 12.0384 6.66059C12.0351 6.66862 12.0298 6.67575 12.0232 6.68138C12.0165 6.68701 12.0086 6.69097 12.0001 6.69295C11.9916 6.69493 11.9828 6.69487 11.9743 6.69277C11.7643 6.67182 11.5518 6.6561 11.3339 6.64824C11.1922 6.77398 11.0505 6.91019 10.9061 7.03593L10.8195 6.95734C10.9639 6.82113 11.1056 6.69539 11.2473 6.56704C11.2473 6.37319 11.2473 6.18197 11.2342 5.99599L11.0137 5.80476C10.7041 5.80476 10.3891 5.82048 10.0794 5.84667C10.0713 5.84859 10.0628 5.84871 10.0546 5.84702C10.0463 5.84533 10.0386 5.84188 10.0318 5.83689C10.0251 5.8319 10.0195 5.8255 10.0155 5.81815C10.0115 5.81079 10.0091 5.80265 10.0086 5.79428C10.0086 5.53233 10.0086 5.28348 10.0217 5.05035L9.89835 4.9639L9.51255 5.01629C9.47319 5.01629 9.44432 5.01629 9.44694 4.97438L9.46269 4.67576C9.46269 4.64956 9.49418 4.62337 9.53355 4.61813C9.66215 4.59979 9.796 4.58146 9.92197 4.56836C9.95871 4.56836 9.99021 4.56836 9.98758 4.60765V4.89317L10.1136 4.977C10.4101 4.94819 10.7067 4.93247 11.0032 4.92723C11.0126 4.92575 11.0221 4.92614 11.0313 4.92838C11.0404 4.93062 11.049 4.93466 11.0566 4.94027C11.0642 4.94588 11.0706 4.95295 11.0754 4.96106C11.0802 4.96916 11.0833 4.97815 11.0846 4.98748C11.0846 5.22323 11.0977 5.47209 11.1056 5.73404L11.3234 5.92526C11.5386 5.92526 11.7512 5.94622 11.9586 5.96717C11.9751 5.97091 11.9901 5.97974 12.0014 5.99243C12.0127 6.00511 12.0198 6.02102 12.0215 6.0379Z" fill="#FFE8B6"/><path d="M9.84331 5.98286C9.68847 6.0012 9.53363 6.02216 9.38141 6.04573C9.36334 6.04889 9.34673 6.05769 9.334 6.07088C9.32126 6.08406 9.31305 6.10094 9.31055 6.11908C9.31055 6.25267 9.31055 6.38103 9.31055 6.52248C9.31071 6.53107 9.3128 6.53951 9.31665 6.54719C9.32051 6.55487 9.32603 6.56159 9.33283 6.56686C9.33962 6.57214 9.34751 6.57583 9.35591 6.57766C9.36432 6.5795 9.37303 6.57945 9.38141 6.57749C9.53363 6.55392 9.68847 6.53296 9.84594 6.51724C9.86443 6.51559 9.88181 6.50768 9.89518 6.49481C9.90854 6.48195 9.9171 6.46491 9.91942 6.44652C9.91942 6.30768 9.91942 6.18457 9.91942 6.03788C9.91417 6.00382 9.88268 5.98024 9.84331 5.98286Z" fill="#FFE8B6"/><path d="M10.2556 4.51334H10.4183C10.455 4.51334 10.4865 4.48715 10.4865 4.46095V4.34569C10.4865 4.32212 10.455 4.30378 10.4183 4.3064H10.2582C10.2214 4.3064 10.1899 4.3326 10.1899 4.35879C10.1899 4.38499 10.1899 4.43476 10.1899 4.47143C10.1899 4.5081 10.2136 4.52644 10.2556 4.51334Z" fill="#FFE8B6"/><path d="M11.93 5.28079H11.7883C11.7802 5.27923 11.7719 5.27949 11.764 5.28154C11.756 5.2836 11.7486 5.2874 11.7423 5.29268C11.736 5.29795 11.731 5.30456 11.7276 5.31202C11.7242 5.31948 11.7225 5.32761 11.7227 5.3358C11.7227 5.3751 11.7227 5.41701 11.7227 5.4563C11.7251 5.47372 11.7334 5.48976 11.7464 5.5017C11.7593 5.51364 11.7759 5.52074 11.7935 5.52179L11.9352 5.53488C11.9746 5.53488 12.0035 5.51393 12.0009 5.47988C11.9982 5.44582 12.0009 5.39867 12.0009 5.35676C12.0003 5.33767 11.9928 5.31942 11.9798 5.30544C11.9667 5.29146 11.949 5.2827 11.93 5.28079Z" fill="#FFE8B6"/><path d="M12.3864 5.63188C12.3041 5.61791 12.2228 5.60743 12.1423 5.60044C12.1345 5.59829 12.1263 5.59806 12.1185 5.59975C12.1106 5.60144 12.1032 5.60502 12.097 5.61017C12.0909 5.61532 12.086 5.62189 12.0829 5.62932C12.0798 5.63675 12.0786 5.64482 12.0793 5.65283C12.0793 5.72618 12.0793 5.80214 12.0793 5.87549C12.08 5.89404 12.0876 5.91166 12.1008 5.92478C12.1139 5.93791 12.1316 5.94557 12.1502 5.94622L12.3916 5.98027C12.3994 5.98242 12.4076 5.98266 12.4154 5.98096C12.4233 5.97927 12.4307 5.97569 12.4369 5.97054C12.443 5.96539 12.4479 5.95882 12.451 5.95139C12.4541 5.94396 12.4553 5.93589 12.4546 5.92788C12.4546 5.85191 12.4546 5.77595 12.4546 5.7026C12.453 5.68483 12.4453 5.66815 12.4329 5.65529C12.4205 5.64244 12.4041 5.63418 12.3864 5.63188Z" fill="#FFE8B6"/><path d="M9.21874 5.93048C9.21874 5.83618 9.21874 5.74187 9.23186 5.65019C9.23186 5.61876 9.20299 5.5978 9.16363 5.60566L8.84082 5.67115C8.82335 5.6756 8.80747 5.68482 8.79495 5.69778C8.78244 5.71073 8.77378 5.72691 8.76996 5.74449C8.76996 5.83618 8.76996 5.93048 8.75684 6.02478C8.75684 6.05884 8.78571 6.07717 8.82245 6.06931L9.14788 6.00383C9.16612 6.00107 9.18295 5.99239 9.19576 5.97913C9.20857 5.96588 9.21664 5.94878 9.21874 5.93048Z" fill="#FFE8B6"/><path d="M13.2499 12.3143C13.1554 12.9823 13.0478 13.6555 12.9297 14.3025C12.923 14.3386 12.9075 14.3725 12.8846 14.4013C12.8617 14.43 12.8322 14.4528 12.7985 14.4675C12.7329 14.4911 12.641 14.5252 12.5229 14.5592L12.2605 14.6273C11.6878 14.7706 11.0967 14.8262 10.5073 14.7924C9.91148 14.7488 9.32434 14.6246 8.76207 14.423L8.69121 14.3968C8.62034 14.3732 8.55473 14.347 8.49437 14.3235C8.36577 14.2737 8.26342 14.2292 8.19256 14.1951C8.15922 14.1785 8.13009 14.1545 8.10736 14.125C8.08463 14.0955 8.0689 14.0613 8.06133 14.0248C7.94586 13.4119 7.8435 12.778 7.74902 12.1519C7.74902 12.0786 7.77264 12.0209 7.83301 12.0183H8.13219H8.39464C8.8513 12.0183 9.56253 12.0183 10.5336 12.034C11.5046 12.0497 12.2342 12.0917 12.6856 12.1257L12.9481 12.1467C13.0741 12.1467 13.1633 12.1702 13.2105 12.1807C13.2578 12.1912 13.263 12.2357 13.2499 12.3143Z" fill="#FFE8B6"/></g><defs><clipPath id="clip0_10_20989"><rect width="21" height="21" fill="white" transform="translate(0 0.5)"/></clipPath></defs></svg>