<svg width="128" height="165" viewBox="0 0 128 165" fill="none" xmlns="http://www.w3.org/2000/svg">
<g filter="url(#filter0_dddd_10_12055)">
<path d="M21.8176 44.961C21.704 41.844 21.6472 40.2856 22.2431 38.6256C22.7543 37.202 23.6944 35.8242 24.8336 34.8291C26.1619 33.6689 28.0908 32.9934 31.9487 31.6424C40.1572 28.7679 48.0763 24.9129 55.5427 20.4337C58.9364 18.3977 60.6333 17.3797 62.0937 17.0591C63.5437 16.7407 64.5654 16.7407 66.0154 17.0591C67.4758 17.3797 69.1727 18.3977 72.5664 20.4337C80.0328 24.9129 87.9519 28.7679 96.1604 31.6424C100.018 32.9934 101.947 33.6689 103.275 34.8291C104.415 35.8242 105.355 37.202 105.866 38.6256C106.462 40.2856 106.405 41.844 106.291 44.961C105.968 53.8312 104.367 67.014 98.5154 78.9125C90.7987 94.6032 77.9103 104.895 70.273 109.965C68.5963 111.078 67.758 111.635 66.1782 112.012C65.083 112.274 63.0261 112.274 61.9309 112.012C60.3511 111.635 59.5128 111.078 57.8361 109.965C50.1987 104.895 37.3104 94.6032 29.5937 78.9125C23.742 67.014 22.1409 53.8312 21.8176 44.961Z" fill="black"/>
</g>
<mask id="mask0_10_12055" style="mask-type:alpha" maskUnits="userSpaceOnUse" x="21" y="16" width="86" height="97">
<path d="M21.8176 44.961C21.704 41.844 21.6472 40.2856 22.2431 38.6256C22.7543 37.202 23.6944 35.8242 24.8336 34.8291C26.1619 33.6689 28.0908 32.9934 31.9487 31.6424C40.1572 28.7679 48.0763 24.9129 55.5427 20.4337C58.9364 18.3977 60.6333 17.3797 62.0937 17.0591C63.5437 16.7407 64.5654 16.7407 66.0154 17.0591C67.4758 17.3797 69.1727 18.3977 72.5664 20.4337C80.0328 24.9129 87.9519 28.7679 96.1604 31.6424C100.018 32.9934 101.947 33.6689 103.275 34.8291C104.415 35.8242 105.355 37.202 105.866 38.6256C106.462 40.2856 106.405 41.844 106.291 44.961C105.968 53.8312 104.367 67.014 98.5154 78.9125C90.7987 94.6032 77.9103 104.895 70.273 109.965C68.5963 111.078 67.758 111.635 66.1782 112.012C65.083 112.274 63.0261 112.274 61.9309 112.012C60.3511 111.635 59.5128 111.078 57.8361 109.965C50.1987 104.895 37.3104 94.6032 29.5937 78.9125C23.742 67.014 22.1409 53.8312 21.8176 44.961Z" fill="black"/>
</mask>
<g mask="url(#mask0_10_12055)">
<mask id="mask1_10_12055" style="mask-type:alpha" maskUnits="userSpaceOnUse" x="21" y="16" width="86" height="97">
<path d="M21.8176 44.961C21.704 41.844 21.6472 40.2856 22.2431 38.6256C22.7543 37.202 23.6944 35.8242 24.8336 34.8291C26.1619 33.6689 28.0908 32.9934 31.9487 31.6424C40.1572 28.7679 48.0763 24.9129 55.5427 20.4337C58.9364 18.3977 60.6333 17.3797 62.0937 17.0591C63.5437 16.7407 64.5654 16.7407 66.0154 17.0591C67.4758 17.3797 69.1727 18.3977 72.5664 20.4337C80.0328 24.9129 87.9519 28.7679 96.1604 31.6424C100.018 32.9934 101.947 33.6689 103.275 34.8291C104.415 35.8242 105.355 37.202 105.866 38.6256C106.462 40.2856 106.405 41.844 106.291 44.961C105.968 53.8312 104.367 67.014 98.5154 78.9125C90.7987 94.6032 77.9103 104.895 70.273 109.965C68.5963 111.078 67.758 111.635 66.1782 112.012C65.083 112.274 63.0261 112.274 61.9309 112.012C60.3511 111.635 59.5128 111.078 57.8361 109.965C50.1987 104.895 37.3104 94.6032 29.5937 78.9125C23.742 67.014 22.1409 53.8312 21.8176 44.961Z" fill="black"/>
</mask>
<g mask="url(#mask1_10_12055)">
<rect width="128" height="128" fill="#202125"/>
<rect width="128" height="128" fill="url(#paint0_linear_10_12055)" fill-opacity="0.6" style="mix-blend-mode:overlay"/>
<rect width="128" height="128" fill="url(#paint1_radial_10_12055)" fill-opacity="0.6" style="mix-blend-mode:overlay"/>
<rect width="128" height="128" fill="black" fill-opacity="0.16" style="mix-blend-mode:overlay"/>
<rect width="128" height="128" fill="black" fill-opacity="0.12" style="mix-blend-mode:darken"/>
</g>
<g filter="url(#filter1_d_10_12055)">
<mask id="mask2_10_12055" style="mask-type:alpha" maskUnits="userSpaceOnUse" x="21" y="16" width="86" height="97">
<path d="M62.0943 17.0589C63.5437 16.7408 64.5658 16.7407 66.0152 17.0589C67.4756 17.3797 69.1736 18.3982 72.567 20.4339C80.0333 24.9131 87.9523 28.7685 96.1607 31.6429C100.018 32.9938 101.948 33.6693 103.276 34.8295C104.415 35.8245 105.355 37.2028 105.866 38.6263C106.462 40.2861 106.405 41.8446 106.292 44.9613C105.968 53.8313 104.368 67.0142 98.5162 78.9125L98.15 79.6439C90.3974 94.9233 77.7911 104.975 70.273 109.966L69.148 110.702C68.1312 111.346 67.3627 111.729 66.1783 112.012C65.1516 112.257 63.2794 112.273 62.147 112.059L61.9312 112.012C60.7466 111.729 59.9784 111.346 58.9615 110.702L57.8365 109.966C50.3184 104.975 37.7123 94.9236 29.9595 79.6439L29.5943 78.9125C24.1083 67.7575 22.3578 55.4739 21.8941 46.6732L21.8179 44.9613C21.7114 42.0396 21.655 40.4871 22.1392 38.9369L22.2437 38.6263C22.7229 37.2919 23.579 35.9973 24.6226 35.0209L24.8336 34.8295C25.9958 33.8145 27.6188 33.1706 30.5904 32.1205L31.9488 31.6429C40.1571 28.7685 48.0764 24.913 55.5425 20.4339C58.7237 18.5255 60.4148 17.5118 61.817 17.1283L62.0943 17.0589ZM65.231 20.6312C64.2982 20.4264 63.8112 20.4265 62.8785 20.6312C62.6341 20.6849 62.1905 20.8371 61.2623 21.3314C60.3332 21.8262 59.1537 22.5322 57.4244 23.5697C49.777 28.1575 41.6331 32.1261 33.1578 35.0941C31.1832 35.7856 29.8714 36.2477 28.8795 36.6713C27.9196 37.0811 27.4955 37.3602 27.2398 37.5834C26.5697 38.1687 25.9858 39.0243 25.6851 39.8617C25.3765 40.7214 25.3508 41.4969 25.4722 44.8285C25.787 53.4648 27.3488 66.0613 32.8756 77.2992C40.1847 92.161 52.4706 102.015 59.859 106.919C61.5538 108.044 61.9048 108.246 62.7808 108.455C62.9343 108.492 63.4025 108.551 64.0552 108.551C64.7078 108.551 65.1755 108.492 65.3287 108.455C66.2044 108.246 66.556 108.044 68.2506 106.919C75.6389 102.015 87.925 92.1606 95.2339 77.2992C100.761 66.0614 102.322 53.4648 102.637 44.8285C102.759 41.4969 102.733 40.7215 102.424 39.8617C102.124 39.0243 101.54 38.1687 100.87 37.5834C100.614 37.3602 100.191 37.0811 99.231 36.6713C98.2391 36.2476 96.9265 35.7857 94.9517 35.0941C86.4764 32.1262 78.3325 28.1575 70.6851 23.5697C68.9557 22.5322 67.7764 21.8262 66.8472 21.3314C65.9192 20.8371 65.4755 20.685 65.231 20.6312ZM63.6763 28.4613C63.924 28.409 64.1845 28.409 64.4322 28.4613C64.7139 28.5208 64.9766 28.6706 65.5006 28.9711C70.2944 31.7197 75.0373 34.5076 80.0513 36.8705C84.4097 38.9243 88.9133 40.6052 93.4224 42.2836C94.1253 42.5452 94.4774 42.6754 94.7369 42.9095C94.9623 43.113 95.1405 43.3823 95.2398 43.6693C95.3541 43.9997 95.3381 44.3664 95.3052 45.099C94.8597 55.0334 93.0804 65.1049 88.6705 74.0716C83.5319 84.5201 75.1702 93.2084 65.6597 99.8334C65.1015 100.222 64.8223 100.417 64.4947 100.498C64.2162 100.567 63.8923 100.568 63.6138 100.498C63.2863 100.417 63.007 100.222 62.4488 99.8334C52.9384 93.2085 44.5775 84.5198 39.439 74.0716C35.0291 65.1048 33.2499 55.0335 32.8043 45.099C32.7714 44.3664 32.7545 43.9997 32.8687 43.6693C32.968 43.3823 33.1462 43.113 33.3716 42.9095C33.6312 42.6753 33.9832 42.5452 34.6861 42.2836C39.1973 40.6046 43.6875 38.9296 48.0572 36.8705C53.0713 34.5076 57.815 31.7197 62.609 28.9711C63.1327 28.6708 63.3947 28.5208 63.6763 28.4613Z" fill="url(#paint2_linear_10_12055)"/>
</mask>
<g mask="url(#mask2_10_12055)">
<rect x="-0.000244141" y="0.000976562" width="128" height="128" fill="#202125"/>
<rect x="-0.457275" width="128" height="128" fill="url(#paint3_linear_10_12055)" fill-opacity="0.6" style="mix-blend-mode:overlay"/>
<rect x="-0.457275" width="128" height="128" fill="url(#paint4_radial_10_12055)" fill-opacity="0.6" style="mix-blend-mode:overlay"/>
<g style="mix-blend-mode:soft-light">
<path fill-rule="evenodd" clip-rule="evenodd" d="M-0.000244141 0H63.9998V128H-0.000244141V0Z" fill="url(#paint5_linear_10_12055)" style="mix-blend-mode:lighten"/>
</g>
<g style="mix-blend-mode:soft-light">
<mask id="path-11-inside-1_10_12055" fill="white">
<path d="M62.0943 17.0589C63.5437 16.7408 64.5658 16.7407 66.0152 17.0589C67.4756 17.3797 69.1736 18.3982 72.567 20.4339C80.0333 24.9131 87.9523 28.7685 96.1607 31.6429C100.018 32.9938 101.948 33.6693 103.276 34.8295C104.415 35.8245 105.355 37.2028 105.866 38.6263C106.462 40.2861 106.405 41.8446 106.292 44.9613C105.968 53.8313 104.368 67.0142 98.5162 78.9125L98.15 79.6439C90.3974 94.9233 77.7911 104.975 70.273 109.966L69.148 110.702C68.1312 111.346 67.3627 111.729 66.1783 112.012C65.1516 112.257 63.2794 112.273 62.147 112.059L61.9312 112.012C60.7466 111.729 59.9784 111.346 58.9615 110.702L57.8365 109.966C50.3184 104.975 37.7123 94.9236 29.9595 79.6439L29.5943 78.9125C24.1083 67.7575 22.3578 55.4739 21.8941 46.6732L21.8179 44.9613C21.7114 42.0396 21.655 40.4871 22.1392 38.9369L22.2437 38.6263C22.7229 37.2919 23.579 35.9973 24.6226 35.0209L24.8336 34.8295C25.9958 33.8145 27.6188 33.1706 30.5904 32.1205L31.9488 31.6429C40.1571 28.7685 48.0764 24.913 55.5425 20.4339C58.7237 18.5255 60.4148 17.5118 61.817 17.1283L62.0943 17.0589ZM65.231 20.6312C64.2982 20.4264 63.8112 20.4265 62.8785 20.6312C62.6341 20.6849 62.1905 20.8371 61.2623 21.3314C60.3332 21.8262 59.1537 22.5322 57.4244 23.5697C49.777 28.1575 41.6331 32.1261 33.1578 35.0941C31.1832 35.7856 29.8714 36.2477 28.8795 36.6713C27.9196 37.0811 27.4955 37.3602 27.2398 37.5834C26.5697 38.1687 25.9858 39.0243 25.6851 39.8617C25.3765 40.7214 25.3508 41.4969 25.4722 44.8285C25.787 53.4648 27.3488 66.0613 32.8756 77.2992C40.1847 92.161 52.4706 102.015 59.859 106.919C61.5538 108.044 61.9048 108.246 62.7808 108.455C62.9343 108.492 63.4025 108.551 64.0552 108.551C64.7078 108.551 65.1755 108.492 65.3287 108.455C66.2044 108.246 66.556 108.044 68.2506 106.919C75.6389 102.015 87.925 92.1606 95.2339 77.2992C100.761 66.0614 102.322 53.4648 102.637 44.8285C102.759 41.4969 102.733 40.7215 102.424 39.8617C102.124 39.0243 101.54 38.1687 100.87 37.5834C100.614 37.3602 100.191 37.0811 99.231 36.6713C98.2391 36.2476 96.9265 35.7857 94.9517 35.0941C86.4764 32.1262 78.3325 28.1575 70.6851 23.5697C68.9557 22.5322 67.7764 21.8262 66.8472 21.3314C65.9192 20.8371 65.4755 20.685 65.231 20.6312ZM63.6763 28.4613C63.924 28.409 64.1845 28.409 64.4322 28.4613C64.7139 28.5208 64.9766 28.6706 65.5006 28.9711C70.2944 31.7197 75.0373 34.5076 80.0513 36.8705C84.4097 38.9243 88.9133 40.6052 93.4224 42.2836C94.1253 42.5452 94.4774 42.6754 94.7369 42.9095C94.9623 43.113 95.1405 43.3823 95.2398 43.6693C95.3541 43.9997 95.3381 44.3664 95.3052 45.099C94.8597 55.0334 93.0804 65.1049 88.6705 74.0716C83.5319 84.5201 75.1702 93.2084 65.6597 99.8334C65.1015 100.222 64.8223 100.417 64.4947 100.498C64.2162 100.567 63.8923 100.568 63.6138 100.498C63.2863 100.417 63.007 100.222 62.4488 99.8334C52.9384 93.2085 44.5775 84.5198 39.439 74.0716C35.0291 65.1048 33.2499 55.0335 32.8043 45.099C32.7714 44.3664 32.7545 43.9997 32.8687 43.6693C32.968 43.3823 33.1462 43.113 33.3716 42.9095C33.6312 42.6753 33.9832 42.5452 34.6861 42.2836C39.1973 40.6046 43.6875 38.9296 48.0572 36.8705C53.0713 34.5076 57.815 31.7197 62.609 28.9711C63.1327 28.6708 63.3947 28.5208 63.6763 28.4613Z"/>
</mask>
<path d="M62.0943 17.0589L62.0453 16.8356L62.0389 16.8372L62.0943 17.0589ZM66.0152 17.0589L66.0642 16.8357L66.0642 16.8357L66.0152 17.0589ZM72.567 20.4339L72.4494 20.63V20.63L72.567 20.4339ZM96.1607 31.6429L96.0852 31.8587L96.1607 31.6429ZM103.276 34.8295L103.426 34.6573L103.426 34.6573L103.276 34.8295ZM105.866 38.6263L106.081 38.5491L106.081 38.5491L105.866 38.6263ZM106.292 44.9613L106.52 44.9696L106.292 44.9613ZM98.5162 78.9125L98.7206 79.0148L98.7213 79.0133L98.5162 78.9125ZM98.15 79.6439L98.3538 79.7473L98.3544 79.7462L98.15 79.6439ZM70.273 109.966L70.3982 110.157L70.3994 110.157L70.273 109.966ZM69.148 110.702L69.2703 110.896L69.2732 110.894L69.148 110.702ZM66.1783 112.012L66.2314 112.234H66.2314L66.1783 112.012ZM62.147 112.059L62.0985 112.282L62.1045 112.284L62.147 112.059ZM61.9312 112.012L61.8781 112.234L61.8827 112.235L61.9312 112.012ZM58.9615 110.702L58.8363 110.894L58.8393 110.896L58.9615 110.702ZM57.8365 109.966L57.7101 110.157L57.7113 110.157L57.8365 109.966ZM29.9595 79.6439L29.755 79.746L29.7557 79.7473L29.9595 79.6439ZM29.5943 78.9125L29.3892 79.0133L29.3898 79.0146L29.5943 78.9125ZM21.8941 46.6732L21.6658 46.6834L21.6659 46.6852L21.8941 46.6732ZM21.8179 44.9613L21.5895 44.9696L21.5896 44.9715L21.8179 44.9613ZM22.1392 38.9369L21.9225 38.864L21.921 38.8687L22.1392 38.9369ZM22.2437 38.6263L22.0285 38.5491L22.0271 38.5534L22.2437 38.6263ZM24.6226 35.0209L24.469 34.8516L24.4665 34.8539L24.6226 35.0209ZM24.8336 34.8295L24.6832 34.6573L24.68 34.6602L24.8336 34.8295ZM30.5904 32.1205L30.5146 31.9048L30.5142 31.905L30.5904 32.1205ZM31.9488 31.6429L31.8733 31.4272L31.873 31.4273L31.9488 31.6429ZM55.5425 20.4339L55.6601 20.63V20.63L55.5425 20.4339ZM61.817 17.1283L61.7615 16.9065L61.7566 16.9078L61.817 17.1283ZM65.231 20.6312L65.2801 20.408L65.28 20.408L65.231 20.6312ZM62.8785 20.6312L62.8295 20.408L62.8295 20.408L62.8785 20.6312ZM61.2623 21.3314L61.1548 21.1297L61.1548 21.1297L61.2623 21.3314ZM57.4244 23.5697L57.3068 23.3737L57.4244 23.5697ZM33.1578 35.0941L33.2333 35.3098H33.2333L33.1578 35.0941ZM28.8795 36.6713L28.7897 36.461L28.7897 36.461L28.8795 36.6713ZM27.2398 37.5834L27.0895 37.4112L27.0894 37.4112L27.2398 37.5834ZM25.6851 39.8617L25.47 39.7844L25.47 39.7844L25.6851 39.8617ZM25.4722 44.8285L25.2438 44.8368L25.4722 44.8285ZM32.8756 77.2992L32.6704 77.4001H32.6704L32.8756 77.2992ZM59.859 106.919L59.7325 107.11V107.11L59.859 106.919ZM62.7808 108.455L62.7277 108.678L62.7279 108.678L62.7808 108.455ZM64.0552 108.551V108.78H64.0553L64.0552 108.551ZM65.3287 108.455L65.3817 108.678L65.3818 108.678L65.3287 108.455ZM68.2506 106.919L68.377 107.11V107.11L68.2506 106.919ZM95.2339 77.2992L95.4391 77.4001L95.4391 77.4001L95.2339 77.2992ZM102.637 44.8285L102.866 44.8368L102.637 44.8285ZM102.424 39.8617L102.64 39.7844L102.64 39.7844L102.424 39.8617ZM100.87 37.5834L101.02 37.4112L101.02 37.4112L100.87 37.5834ZM99.231 36.6713L99.3208 36.4611L99.3208 36.461L99.231 36.6713ZM94.9517 35.0941L94.8762 35.3098L94.9517 35.0941ZM70.6851 23.5697L70.5675 23.7657V23.7657L70.6851 23.5697ZM66.8472 21.3314L66.9547 21.1297L66.9547 21.1297L66.8472 21.3314ZM63.6763 28.4613L63.6291 28.2377L63.6291 28.2377L63.6763 28.4613ZM64.4322 28.4613L64.4794 28.2377L64.4794 28.2377L64.4322 28.4613ZM65.5006 28.9711L65.6142 28.7728L65.5006 28.9711ZM80.0513 36.8705L79.9539 37.0772L80.0513 36.8705ZM93.4224 42.2836L93.3427 42.4978L93.4224 42.2836ZM94.7369 42.9095L94.89 42.7398L94.89 42.7398L94.7369 42.9095ZM95.2398 43.6693L95.4558 43.5946L95.4558 43.5945L95.2398 43.6693ZM95.3052 45.099L95.5336 45.1092L95.3052 45.099ZM88.6705 74.0716L88.8756 74.1725L88.6705 74.0716ZM65.6597 99.8334L65.7904 100.021L65.6597 99.8334ZM64.4947 100.498L64.5497 100.72L64.5498 100.72L64.4947 100.498ZM63.6138 100.498L63.5588 100.72H63.5588L63.6138 100.498ZM62.4488 99.8334L62.3181 100.021H62.3181L62.4488 99.8334ZM39.439 74.0716L39.2339 74.1725L39.439 74.0716ZM32.8043 45.099L32.5759 45.1092L32.8043 45.099ZM32.8687 43.6693L32.6527 43.5945L32.6527 43.5946L32.8687 43.6693ZM33.3716 42.9095L33.2185 42.7398L33.2185 42.7398L33.3716 42.9095ZM34.6861 42.2836L34.7658 42.4978L34.6861 42.2836ZM48.0572 36.8705L48.1546 37.0772H48.1546L48.0572 36.8705ZM62.609 28.9711L62.4953 28.7728L62.609 28.9711ZM62.0943 17.0589L62.1433 17.2822C63.5604 16.9711 64.549 16.9711 65.9662 17.2822L66.0152 17.0589L66.0642 16.8357C64.5825 16.5104 63.527 16.5104 62.0453 16.8357L62.0943 17.0589ZM66.0152 17.0589L65.9662 17.2822C66.666 17.4359 67.4339 17.7593 68.4588 18.3051C69.4836 18.8509 70.7506 19.6108 72.4494 20.63L72.567 20.4339L72.6845 20.2379C70.9899 19.2213 69.7112 18.4542 68.6736 17.9016C67.636 17.349 66.8248 17.0028 66.0642 16.8357L66.0152 17.0589ZM72.567 20.4339L72.4494 20.63C79.927 25.1159 87.8601 28.9784 96.0852 31.8587L96.1607 31.6429L96.2363 31.4272C88.0445 28.5586 80.1395 24.7103 72.6845 20.2379L72.567 20.4339ZM96.1607 31.6429L96.0852 31.8587C98.0168 32.5351 99.4551 33.0389 100.577 33.5179C101.697 33.9961 102.487 34.4438 103.126 35.0016L103.276 34.8295L103.426 34.6573C102.737 34.0549 101.898 33.5848 100.757 33.0975C99.6174 32.611 98.1622 32.1016 96.2363 31.4272L96.1607 31.6429ZM103.276 34.8295L103.126 35.0016C104.235 35.971 105.153 37.3166 105.651 38.7036L105.866 38.6263L106.081 38.5491C105.557 37.089 104.595 35.678 103.426 34.6573L103.276 34.8295ZM105.866 38.6263L105.651 38.7036C106.229 40.3134 106.177 41.8229 106.063 44.953L106.292 44.9613L106.52 44.9696C106.633 41.8664 106.695 40.2589 106.081 38.5491L105.866 38.6263ZM106.292 44.9613L106.063 44.953C105.74 53.8084 104.142 66.9546 98.3111 78.8116L98.5162 78.9125L98.7213 79.0133C104.593 67.0737 106.196 53.8543 106.52 44.9696L106.292 44.9613ZM98.5162 78.9125L98.3118 78.8101L97.9456 79.5416L98.15 79.6439L98.3544 79.7462L98.7206 79.0148L98.5162 78.9125ZM98.15 79.6439L97.9461 79.5405C90.2189 94.7698 77.6492 104.795 70.1466 109.776L70.273 109.966L70.3994 110.157C77.933 105.155 90.5758 95.0768 98.3538 79.7473L98.15 79.6439ZM70.273 109.966L70.1478 109.775L69.0228 110.511L69.148 110.702L69.2732 110.894L70.3982 110.157L70.273 109.966ZM69.148 110.702L69.0258 110.509C68.023 111.144 67.2779 111.514 66.1252 111.79L66.1783 112.012L66.2314 112.234C67.4474 111.944 68.2394 111.548 69.2702 110.896L69.148 110.702ZM66.1783 112.012L66.1252 111.79C65.1336 112.027 63.2944 112.044 62.1896 111.834L62.147 112.059L62.1045 112.284C63.2645 112.503 65.1695 112.488 66.2314 112.234L66.1783 112.012ZM62.147 112.059L62.1955 111.836L61.9797 111.789L61.9312 112.012L61.8827 112.235L62.0985 112.282L62.147 112.059ZM61.9312 112.012L61.9843 111.79C60.8314 111.514 60.0866 111.144 59.0837 110.509L58.9615 110.702L58.8393 110.896C59.8702 111.548 60.6618 111.944 61.8781 112.234L61.9312 112.012ZM58.9615 110.702L59.0867 110.511L57.9617 109.775L57.8365 109.966L57.7113 110.157L58.8363 110.894L58.9615 110.702ZM57.8365 109.966L57.9629 109.776C50.4603 104.795 37.8907 94.7702 30.1634 79.5405L29.9595 79.6439L29.7557 79.7473C37.5338 95.0771 50.1765 105.156 57.7101 110.157L57.8365 109.966ZM29.9595 79.6439L30.164 79.5418L29.7988 78.8104L29.5943 78.9125L29.3898 79.0146L29.755 79.746L29.9595 79.6439ZM29.5943 78.9125L29.7994 78.8116C24.3326 67.6957 22.5852 55.4468 22.1224 46.6612L21.8941 46.6732L21.6659 46.6852C22.1303 55.501 23.884 67.8192 29.3892 79.0133L29.5943 78.9125ZM21.8941 46.6732L22.1225 46.663L22.0463 44.9511L21.8179 44.9613L21.5896 44.9715L21.6658 46.6834L21.8941 46.6732ZM21.8179 44.9613L22.0464 44.953C21.9394 42.0181 21.8873 40.5099 22.3574 39.005L22.1392 38.9369L21.921 38.8687C21.4226 40.4643 21.4835 42.061 21.5895 44.9696L21.8179 44.9613ZM22.1392 38.9369L22.3559 39.0098L22.4604 38.6992L22.2437 38.6263L22.0271 38.5534L21.9226 38.864L22.1392 38.9369ZM22.2437 38.6263L22.4588 38.7036C22.9256 37.4038 23.7612 36.1398 24.7788 35.1878L24.6226 35.0209L24.4665 34.8539C23.3967 35.8547 22.5202 37.18 22.0286 38.5491L22.2437 38.6263ZM24.6226 35.0209L24.7762 35.1901L24.9872 34.9987L24.8336 34.8295L24.68 34.6602L24.469 34.8516L24.6226 35.0209ZM24.8336 34.8295L24.9839 35.0016C26.1069 34.0209 27.6844 33.3898 30.6666 32.336L30.5904 32.1205L30.5142 31.905C27.5533 32.9513 25.8847 33.608 24.6832 34.6573L24.8336 34.8295ZM30.5904 32.1205L30.6662 32.3361L32.0246 31.8586L31.9488 31.6429L31.873 31.4273L30.5146 31.9048L30.5904 32.1205ZM31.9488 31.6429L32.0243 31.8587C40.2493 28.9784 48.1826 25.1158 55.6601 20.63L55.5425 20.4339L55.425 20.2379C47.9701 24.7102 40.0648 28.5586 31.8733 31.4272L31.9488 31.6429ZM55.5425 20.4339L55.6601 20.63C58.8562 18.7125 60.5135 17.7218 61.8773 17.3488L61.817 17.1283L61.7566 16.9078C60.3162 17.3019 58.5911 18.3385 55.425 20.2379L55.5425 20.4339ZM61.817 17.1283L61.8724 17.35L62.1497 17.2807L62.0943 17.0589L62.0389 16.8372L61.7615 16.9065L61.817 17.1283ZM65.231 20.6312L65.28 20.408C64.8058 20.3038 64.4329 20.2491 64.0547 20.2491C63.6765 20.2491 63.3036 20.3039 62.8295 20.408L62.8785 20.6312L62.9275 20.8545C63.3861 20.7538 63.723 20.7062 64.0547 20.7062C64.3864 20.7062 64.7234 20.7538 65.182 20.8545L65.231 20.6312ZM62.8785 20.6312L62.8295 20.408C62.5545 20.4683 62.0892 20.6321 61.1548 21.1297L61.2623 21.3314L61.3697 21.5332C62.2919 21.0421 62.7137 20.9014 62.9275 20.8545L62.8785 20.6312ZM61.2623 21.3314L61.1548 21.1297C60.2194 21.6279 59.0341 22.3375 57.3068 23.3737L57.4244 23.5697L57.542 23.7657C59.2734 22.727 60.447 22.0246 61.3697 21.5332L61.2623 21.3314ZM57.4244 23.5697L57.3068 23.3737C49.6708 27.9547 41.5408 31.9163 33.0822 34.8784L33.1578 35.0941L33.2333 35.3098C41.7253 32.336 49.8833 28.3603 57.542 23.7657L57.4244 23.5697ZM33.1578 35.0941L33.0822 34.8784C31.1105 35.5688 29.7903 36.0338 28.7897 36.461L28.8795 36.6713L28.9692 36.8815C29.9525 36.4616 31.2559 36.0023 33.2333 35.3098L33.1578 35.0941ZM28.8795 36.6713L28.7897 36.461C27.8196 36.8753 27.3709 37.1656 27.0895 37.4112L27.2398 37.5834L27.3901 37.7556C27.6201 37.5548 28.0196 37.287 28.9692 36.8815L28.8795 36.6713ZM27.2398 37.5834L27.0894 37.4112C26.39 38.0221 25.7839 38.9104 25.47 39.7844L25.6851 39.8617L25.9002 39.9389C26.1878 39.1382 26.7494 38.3152 27.3902 37.7555L27.2398 37.5834ZM25.6851 39.8617L25.47 39.7844C25.1432 40.6949 25.123 41.5212 25.2438 44.8368L25.4722 44.8285L25.7007 44.8202C25.5786 41.4727 25.6098 40.748 25.9003 39.9389L25.6851 39.8617ZM25.4722 44.8285L25.2438 44.8368C25.5591 53.4878 27.1233 66.1209 32.6704 77.4001L32.8756 77.2992L33.0807 77.1983C27.5742 66.0017 26.0149 53.4419 25.7007 44.8202L25.4722 44.8285ZM32.8756 77.2992L32.6704 77.4001C40.005 92.3137 52.3286 102.195 59.7325 107.11L59.859 106.919L59.9854 106.729C52.6126 101.835 40.3643 92.0083 33.0807 77.1983L32.8756 77.2992ZM59.859 106.919L59.7325 107.11C61.4253 108.233 61.8073 108.458 62.7277 108.678L62.7808 108.455L62.8339 108.233C62.0023 108.035 61.6823 107.855 59.9854 106.729L59.859 106.919ZM62.7808 108.455L62.7279 108.678C62.9061 108.72 63.3944 108.78 64.0552 108.78V108.551V108.323C63.4107 108.323 62.9625 108.264 62.8337 108.233L62.7808 108.455ZM64.0552 108.551L64.0553 108.78C64.7159 108.78 65.2037 108.72 65.3817 108.678L65.3287 108.455L65.2757 108.233C65.1473 108.264 64.6996 108.323 64.0552 108.323L64.0552 108.551ZM65.3287 108.455L65.3818 108.678C66.3019 108.458 66.6845 108.233 68.377 107.11L68.2506 106.919L68.1241 106.729C66.4274 107.855 66.1069 108.035 65.2756 108.233L65.3287 108.455ZM68.2506 106.919L68.377 107.11C75.7809 102.195 88.1046 92.3133 95.4391 77.4001L95.2339 77.2992L95.0288 77.1983C87.7453 92.008 75.497 101.834 68.1241 106.729L68.2506 106.919ZM95.2339 77.2992L95.4391 77.4001C100.986 66.121 102.55 53.4877 102.866 44.8368L102.637 44.8285L102.409 44.8202C102.095 53.4418 100.535 66.0018 95.0288 77.1983L95.2339 77.2992ZM102.637 44.8285L102.866 44.8368C102.987 41.5211 102.966 40.6949 102.64 39.7844L102.424 39.8617L102.209 39.9389C102.5 40.748 102.531 41.4726 102.409 44.8202L102.637 44.8285ZM102.424 39.8617L102.64 39.7844C102.326 38.9104 101.719 38.0222 101.02 37.4112L100.87 37.5834L100.719 37.7555C101.36 38.3153 101.922 39.1382 102.209 39.9389L102.424 39.8617ZM100.87 37.5834L101.02 37.4112C100.739 37.1656 100.291 36.8753 99.3208 36.4611L99.231 36.6713L99.1412 36.8815C100.09 37.2869 100.489 37.5548 100.719 37.7555L100.87 37.5834ZM99.231 36.6713L99.3208 36.461C98.3202 36.0337 96.9992 35.5689 95.0273 34.8784L94.9517 35.0941L94.8762 35.3098C96.8539 36.0024 98.158 36.4616 99.1413 36.8815L99.231 36.6713ZM94.9517 35.0941L95.0273 34.8784C86.5687 31.9163 78.4388 27.9547 70.8027 23.3737L70.6851 23.5697L70.5675 23.7657C78.2262 28.3603 86.3842 32.336 94.8762 35.3098L94.9517 35.0941ZM70.6851 23.5697L70.8027 23.3737C69.0753 22.3374 67.8902 21.6279 66.9547 21.1297L66.8472 21.3314L66.7398 21.5332C67.6625 22.0246 68.836 22.7269 70.5675 23.7657L70.6851 23.5697ZM66.8472 21.3314L66.9547 21.1297C66.0205 20.6321 65.5551 20.4684 65.2801 20.408L65.231 20.6312L65.182 20.8545C65.3959 20.9015 65.8178 21.0421 66.7398 21.5332L66.8472 21.3314ZM63.6763 28.4613L63.7236 28.6849C63.9401 28.6392 64.1684 28.6392 64.385 28.6849L64.4322 28.4613L64.4794 28.2377C64.2006 28.1788 63.9079 28.1787 63.6291 28.2377L63.6763 28.4613ZM64.4322 28.4613L64.3849 28.6849C64.6233 28.7353 64.8502 28.8617 65.3869 29.1693L65.5006 28.9711L65.6142 28.7728C65.1029 28.4796 64.8046 28.3064 64.4794 28.2377L64.4322 28.4613ZM65.5006 28.9711L65.3869 29.1693C70.1772 31.9159 74.9296 34.7095 79.9539 37.0772L80.0513 36.8705L80.1488 36.6637C75.1451 34.3057 70.4116 31.5234 65.6142 28.7728L65.5006 28.9711ZM80.0513 36.8705L79.9539 37.0772C84.3223 39.1359 88.8349 40.8199 93.3427 42.4978L93.4224 42.2836L93.5022 42.0693C88.9917 40.3905 84.497 38.7128 80.1488 36.6637L80.0513 36.8705ZM93.4224 42.2836L93.3427 42.4978C94.0639 42.7662 94.3645 42.8814 94.5838 43.0792L94.7369 42.9095L94.89 42.7398C94.5902 42.4693 94.1867 42.3241 93.5022 42.0693L93.4224 42.2836ZM94.7369 42.9095L94.5838 43.0792C94.7805 43.2568 94.9371 43.4934 95.0238 43.7441L95.2398 43.6693L95.4558 43.5945C95.3439 43.2712 95.1442 42.9692 94.89 42.7398L94.7369 42.9095ZM95.2398 43.6693L95.0238 43.744C95.1204 44.0234 95.1106 44.338 95.0769 45.0887L95.3052 45.099L95.5336 45.1092C95.5656 44.3949 95.5877 43.9759 95.4558 43.5946L95.2398 43.6693ZM95.3052 45.099L95.0769 45.0887C94.6321 55.0048 92.8565 65.0421 88.4654 73.9708L88.6705 74.0716L88.8756 74.1725C93.3042 65.1676 95.0872 55.062 95.5336 45.1092L95.3052 45.099ZM88.6705 74.0716L88.4654 73.9708C83.3477 84.3767 75.0157 93.0374 65.5291 99.6458L65.6597 99.8334L65.7904 100.021C75.3247 93.3793 83.7162 84.6634 88.8756 74.1725L88.6705 74.0716ZM65.6597 99.8334L65.5291 99.6458C64.957 100.044 64.7168 100.208 64.4396 100.277L64.4947 100.498L64.5498 100.72C64.9277 100.626 65.2459 100.4 65.7904 100.021L65.6597 99.8334ZM64.4947 100.498L64.4397 100.277C64.1973 100.337 63.9112 100.337 63.6689 100.277L63.6138 100.498L63.5588 100.72C63.8734 100.798 64.2351 100.798 64.5497 100.72L64.4947 100.498ZM63.6138 100.498L63.6689 100.277C63.3917 100.208 63.1515 100.044 62.5794 99.6458L62.4488 99.8334L62.3181 100.021C62.8626 100.4 63.1808 100.626 63.5588 100.72L63.6138 100.498ZM62.4488 99.8334L62.5794 99.6458C53.0929 93.0376 44.7618 84.3765 39.6441 73.9708L39.439 74.0716L39.2339 74.1725C44.3933 84.6631 52.7839 93.3795 62.3181 100.021L62.4488 99.8334ZM39.439 74.0716L39.6441 73.9708C35.253 65.0421 33.4774 55.0049 33.0326 45.0887L32.8043 45.099L32.5759 45.1092C33.0223 55.062 34.8053 65.1676 39.2339 74.1725L39.439 74.0716ZM32.8043 45.099L33.0326 45.0887C32.9989 44.3374 32.9881 44.0233 33.0847 43.744L32.8687 43.6693L32.6527 43.5946C32.5208 43.9761 32.5439 44.3954 32.5759 45.1092L32.8043 45.099ZM32.8687 43.6693L33.0847 43.7441C33.1714 43.4935 33.328 43.2568 33.5248 43.0792L33.3716 42.9095L33.2185 42.7398C32.9644 42.9692 32.7646 43.2712 32.6527 43.5945L32.8687 43.6693ZM33.3716 42.9095L33.5248 43.0792C33.744 42.8814 34.0446 42.7662 34.7658 42.4978L34.6861 42.2836L34.6064 42.0693C33.9218 42.3241 33.5184 42.4693 33.2185 42.7398L33.3716 42.9095ZM34.6861 42.2836L34.7658 42.4978C39.2757 40.8193 43.7749 39.1412 48.1546 37.0772L48.0572 36.8705L47.9598 36.6637C43.6002 38.7181 39.1189 40.3899 34.6064 42.0693L34.6861 42.2836ZM48.0572 36.8705L48.1546 37.0772C53.179 34.7095 57.9322 31.916 62.7226 29.1693L62.609 28.9711L62.4953 28.7728C57.6978 31.5234 52.9635 34.3057 47.9598 36.6637L48.0572 36.8705ZM62.609 28.9711L62.7226 29.1693C63.2593 28.8617 63.4854 28.7353 63.7236 28.6849L63.6763 28.4613L63.6291 28.2377C63.304 28.3064 63.0061 28.4799 62.4953 28.7728L62.609 28.9711Z" fill="url(#paint6_linear_10_12055)" mask="url(#path-11-inside-1_10_12055)"/>
</g>
</g>
</g>
<g filter="url(#filter2_d_10_12055)">
<path d="M54.9382 41.2793C50.7278 41.2793 47.3147 44.6924 47.3147 48.9028C47.3147 53.1131 50.7278 56.5262 54.9382 56.5262C59.1485 56.5262 62.5616 53.1131 62.5616 48.9028C62.5616 44.6924 59.1485 41.2793 54.9382 41.2793Z" fill="white"/>
<path d="M70.7866 45.0406C67.6149 45.0406 65.0438 47.6118 65.0438 50.7835C65.0438 53.9552 67.6149 56.5263 70.7866 56.5263C73.9583 56.5263 76.5295 53.9552 76.5295 50.7835C76.5295 47.6118 73.9583 45.0406 70.7866 45.0406Z" fill="white"/>
<path d="M79.1713 59.9599C78.7394 59.6781 78.1944 59.6336 77.7225 59.8414L77.1867 60.0776C76.8504 60.226 76.3771 60.4349 75.8287 60.6774C75.2716 60.9237 74.6366 61.2049 73.9891 61.4923C73.6988 59.6107 72.1513 58.155 70.2481 57.9902C70.0444 57.9726 69.8398 57.9546 69.6337 57.9366L69.6027 57.9339C67.5831 57.7571 65.4179 57.5675 63.1902 57.5675C60.9624 57.5675 58.7973 57.7571 56.7777 57.9339L56.7473 57.9365C56.5409 57.9546 56.3362 57.9725 56.1322 57.9902C54.2212 58.1556 52.6689 59.6226 52.3877 61.5154C52.1631 63.0278 51.9177 64.7102 51.9177 66.453C51.9177 68.1959 52.1631 69.8783 52.3877 71.3907C52.6689 73.2835 54.2212 74.7504 56.1322 74.9159C56.3367 74.9336 56.5421 74.9516 56.7491 74.9697L56.7776 74.9722C58.7972 75.149 60.9624 75.3386 63.1902 75.3386C65.4179 75.3386 67.5831 75.149 69.6027 74.9722L69.633 74.9695C69.8393 74.9515 70.0442 74.9335 70.2481 74.9159C72.1512 74.7511 73.6987 73.2955 73.989 71.4139C74.6366 71.7014 75.2716 71.9825 75.8287 72.2289C76.3771 72.4714 76.8504 72.6803 77.1867 72.8286L77.7219 73.0646L77.7225 73.0649C78.1944 73.2727 78.7394 73.2281 79.1713 72.9464C79.6032 72.6647 79.8636 72.1839 79.8636 71.6682V61.238C79.8636 60.7224 79.6032 60.2416 79.1713 59.9599Z" fill="white"/>
<path d="M63.1897 57.4531C65.4232 57.4531 67.5936 57.6436 69.6125 57.8203L69.6438 57.8223C69.8499 57.8403 70.0545 57.8583 70.2581 57.876C72.1641 58.041 73.7211 59.4663 74.0754 61.3281C74.6767 61.0613 75.2636 60.8027 75.7825 60.5732C76.3309 60.3307 76.8046 60.121 77.1409 59.9727L77.676 59.7373C78.1833 59.5139 78.7694 59.5614 79.2336 59.8643C79.6979 60.1671 79.9778 60.684 79.9778 61.2383V71.668C79.9778 72.2222 79.6979 72.7392 79.2336 73.042C78.7694 73.3448 78.1833 73.3933 77.676 73.1699V73.1689L77.1409 72.9336C76.8046 72.7852 76.3309 72.5755 75.7825 72.333C75.2635 72.1035 74.6768 71.844 74.0754 71.5771C73.7214 73.4393 72.1643 74.8642 70.2581 75.0293C70.0543 75.0469 69.8492 75.0649 69.6428 75.083L69.6125 75.0859C67.5936 75.2627 65.4232 75.4531 63.1897 75.4531C60.9564 75.4531 58.7866 75.2627 56.7678 75.0859L56.7395 75.084C56.5325 75.0659 56.3268 75.047 56.1223 75.0293C54.1585 74.8592 52.5636 73.3521 52.2747 71.4072C52.0501 69.8957 51.803 68.2055 51.803 66.4531C51.803 64.7008 52.0501 63.0105 52.2747 61.499C52.5636 59.5541 54.1584 58.046 56.1223 57.876C56.3262 57.8583 56.5311 57.8403 56.7375 57.8223L56.7678 57.8203C58.7866 57.6436 60.9564 57.4532 63.1897 57.4531ZM54.9377 41.165C59.211 41.165 62.6758 44.6291 62.676 48.9023C62.676 53.1758 59.2112 56.6406 54.9377 56.6406C50.6645 56.6404 47.2004 53.1756 47.2004 48.9023C47.2007 44.6292 50.6646 41.1653 54.9377 41.165ZM70.7864 44.9268C74.0211 44.9268 76.6437 47.5485 76.6438 50.7832C76.6438 54.018 74.0212 56.6406 70.7864 56.6406C67.5517 56.6405 64.9299 54.0179 64.9299 50.7832C64.9301 47.5486 67.5518 44.9269 70.7864 44.9268Z" stroke="url(#paint7_linear_10_12055)" stroke-width="0.228571" stroke-linecap="round" style="mix-blend-mode:color-burn"/>
</g>
</g>
<g filter="url(#filter3_dd_10_12055)">
<mask id="path-15-inside-2_10_12055" fill="white">
<path d="M27.5986 83.2002C29.6466 83.2002 30.6708 83.2 31.4531 83.5986C32.1411 83.9493 32.7001 84.5092 33.0507 85.1973C33.4492 85.9796 33.4501 87.0037 33.4501 89.0518V98.377C33.4501 100.425 33.4493 101.449 33.0507 102.231C32.7001 102.92 32.1412 103.479 31.4531 103.83C30.6708 104.229 29.6466 104.229 27.5986 104.229H19.954C18.4611 104.229 17.7143 104.228 17.2499 103.914C16.8442 103.639 16.5653 103.213 16.4765 102.731C16.375 102.18 16.675 101.495 17.2744 100.128L20.0849 93.7139L17.2744 87.2998C16.6751 85.9325 16.375 85.2488 16.4765 84.6973C16.5653 84.2153 16.8441 83.7894 17.2499 83.5146C17.7143 83.2003 18.461 83.2002 19.954 83.2002H27.5986ZM107.915 83.2002C109.408 83.2002 110.154 83.2004 110.618 83.5146C111.024 83.7894 111.303 84.2153 111.392 84.6973C111.493 85.2488 111.193 85.9324 110.594 87.2998L107.783 93.7139L110.594 100.128C111.193 101.495 111.493 102.18 111.392 102.731C111.303 103.213 111.024 103.639 110.618 103.914C110.154 104.228 109.408 104.229 107.915 104.229H100.269C98.2215 104.229 97.1972 104.229 96.415 103.83C95.7269 103.479 95.1679 102.92 94.8173 102.231C94.4188 101.449 94.4189 100.425 94.4189 98.377V89.0518C94.4189 87.0038 94.4188 85.9795 94.8173 85.1973C95.1679 84.5092 95.727 83.9493 96.415 83.5986C97.1972 83.2001 98.2215 83.2002 100.269 83.2002H107.915Z"/>
</mask>
<path d="M27.5986 83.2002C29.6466 83.2002 30.6708 83.2 31.4531 83.5986C32.1411 83.9493 32.7001 84.5092 33.0507 85.1973C33.4492 85.9796 33.4501 87.0037 33.4501 89.0518V98.377C33.4501 100.425 33.4493 101.449 33.0507 102.231C32.7001 102.92 32.1412 103.479 31.4531 103.83C30.6708 104.229 29.6466 104.229 27.5986 104.229H19.954C18.4611 104.229 17.7143 104.228 17.2499 103.914C16.8442 103.639 16.5653 103.213 16.4765 102.731C16.375 102.18 16.675 101.495 17.2744 100.128L20.0849 93.7139L17.2744 87.2998C16.6751 85.9325 16.375 85.2488 16.4765 84.6973C16.5653 84.2153 16.8441 83.7894 17.2499 83.5146C17.7143 83.2003 18.461 83.2002 19.954 83.2002H27.5986ZM107.915 83.2002C109.408 83.2002 110.154 83.2004 110.618 83.5146C111.024 83.7894 111.303 84.2153 111.392 84.6973C111.493 85.2488 111.193 85.9324 110.594 87.2998L107.783 93.7139L110.594 100.128C111.193 101.495 111.493 102.18 111.392 102.731C111.303 103.213 111.024 103.639 110.618 103.914C110.154 104.228 109.408 104.229 107.915 104.229H100.269C98.2215 104.229 97.1972 104.229 96.415 103.83C95.7269 103.479 95.1679 102.92 94.8173 102.231C94.4188 101.449 94.4189 100.425 94.4189 98.377V89.0518C94.4189 87.0038 94.4188 85.9795 94.8173 85.1973C95.1679 84.5092 95.727 83.9493 96.415 83.5986C97.1972 83.2001 98.2215 83.2002 100.269 83.2002H107.915Z" fill="#FFA00F"/>
<path d="M27.5986 83.2002V82.9716V83.2002ZM31.4531 83.5986L31.5568 83.395L31.5568 83.395L31.4531 83.5986ZM33.0507 85.1973L33.2544 85.0935L33.2544 85.0935L33.0507 85.1973ZM33.0507 102.231L33.2544 102.335L33.2544 102.335L33.0507 102.231ZM31.4531 103.83L31.5568 104.034L31.5568 104.034L31.4531 103.83ZM27.5986 104.229V104.457V104.229ZM17.2499 103.914L17.1218 104.103L17.1218 104.103L17.2499 103.914ZM16.4765 102.731L16.2517 102.773L16.2517 102.773L16.4765 102.731ZM17.2744 100.128L17.4837 100.22L17.4837 100.22L17.2744 100.128ZM20.0849 93.7139L20.2943 93.8056L20.3345 93.7139L20.2943 93.6221L20.0849 93.7139ZM17.2744 87.2998L17.4837 87.2081L17.4837 87.208L17.2744 87.2998ZM16.4765 84.6973L16.2517 84.6559L16.2517 84.6559L16.4765 84.6973ZM17.2499 83.5146L17.1218 83.3254L17.1218 83.3254L17.2499 83.5146ZM107.915 83.2002V82.9716V83.2002ZM110.618 83.5146L110.746 83.3254L110.746 83.3254L110.618 83.5146ZM111.392 84.6973L111.616 84.6559V84.6559L111.392 84.6973ZM110.594 87.2998L110.384 87.208L110.384 87.2081L110.594 87.2998ZM107.783 93.7139L107.574 93.6221L107.534 93.7139L107.574 93.8056L107.783 93.7139ZM110.594 100.128L110.384 100.22L110.384 100.22L110.594 100.128ZM111.392 102.731L111.616 102.773L111.616 102.773L111.392 102.731ZM110.618 103.914L110.746 104.103L110.746 104.103L110.618 103.914ZM107.915 104.229V104.457V104.229ZM100.269 104.229V104.457V104.229ZM96.415 103.83L96.3112 104.034L96.3112 104.034L96.415 103.83ZM94.8173 102.231L94.6137 102.335L94.6137 102.335L94.8173 102.231ZM94.8173 85.1973L94.6137 85.0935L94.6137 85.0935L94.8173 85.1973ZM96.415 83.5986L96.3112 83.395L96.3112 83.395L96.415 83.5986ZM100.269 83.2002V82.9716V83.2002ZM27.5986 83.2002V83.4288C28.6264 83.4288 29.3835 83.4289 29.9819 83.4778C30.5776 83.5264 30.9958 83.6222 31.3493 83.8023L31.4531 83.5986L31.5568 83.395C31.1281 83.1765 30.643 83.0731 30.0191 83.0221C29.3978 82.9714 28.6188 82.9716 27.5986 82.9716V83.2002ZM31.4531 83.5986L31.3493 83.8023C31.9942 84.1309 32.5183 84.6558 32.8471 85.301L33.0507 85.1973L33.2544 85.0935C32.8819 84.3625 32.288 83.7676 31.5568 83.395L31.4531 83.5986ZM33.0507 85.1973L32.8471 85.301C33.0272 85.6546 33.1232 86.0729 33.1721 86.6685C33.2212 87.2669 33.2216 88.024 33.2216 89.0518H33.4501H33.6787C33.6787 88.0315 33.6787 87.2525 33.6277 86.6312C33.5765 86.0072 33.4728 85.5222 33.2544 85.0935L33.0507 85.1973ZM33.4501 89.0518H33.2216V98.377H33.4501H33.6787V89.0518H33.4501ZM33.4501 98.377H33.2216C33.2216 99.4047 33.2212 100.162 33.1721 100.76C33.1232 101.356 33.0272 101.774 32.8471 102.128L33.0507 102.231L33.2544 102.335C33.4728 101.907 33.5765 101.422 33.6277 100.798C33.6787 100.176 33.6787 99.3973 33.6787 98.377H33.4501ZM33.0507 102.231L32.8471 102.128C32.5183 102.773 31.9943 103.298 31.3493 103.626L31.4531 103.83L31.5568 104.034C32.2881 103.661 32.8819 103.066 33.2544 102.335L33.0507 102.231ZM31.4531 103.83L31.3493 103.626C30.9958 103.807 30.5776 103.902 29.9819 103.951C29.3835 104 28.6264 104 27.5986 104V104.229V104.457C28.6188 104.457 29.3978 104.457 30.0191 104.407C30.643 104.356 31.1281 104.252 31.5568 104.034L31.4531 103.83ZM27.5986 104.229V104H19.954V104.229V104.457H27.5986V104.229ZM19.954 104.229V104C19.2032 104 18.6556 104 18.237 103.962C17.8188 103.923 17.5623 103.849 17.3781 103.725L17.2499 103.914L17.1218 104.103C17.402 104.293 17.7511 104.376 18.1955 104.417C18.6397 104.457 19.212 104.457 19.954 104.457V104.229ZM17.2499 103.914L17.3781 103.725C17.0229 103.484 16.779 103.112 16.7013 102.69L16.4765 102.731L16.2517 102.773C16.3517 103.315 16.6654 103.794 17.1218 104.103L17.2499 103.914ZM16.4765 102.731L16.7013 102.69C16.661 102.471 16.6963 102.207 16.8294 101.808C16.9626 101.409 17.1822 100.907 17.4837 100.22L17.2744 100.128L17.065 100.036C16.7671 100.716 16.5371 101.24 16.3958 101.663C16.2544 102.087 16.1904 102.44 16.2517 102.773L16.4765 102.731ZM17.2744 100.128L17.4837 100.22L20.2943 93.8056L20.0849 93.7139L19.8755 93.6221L17.065 100.036L17.2744 100.128ZM20.0849 93.7139L20.2943 93.6221L17.4837 87.2081L17.2744 87.2998L17.065 87.3915L19.8755 93.8056L20.0849 93.7139ZM17.2744 87.2998L17.4837 87.208C17.1823 86.5203 16.9626 86.0188 16.8294 85.6202C16.6963 85.2218 16.661 84.9574 16.7013 84.7387L16.4765 84.6973L16.2517 84.6559C16.1904 84.9886 16.2544 85.3418 16.3958 85.765C16.5371 86.188 16.7671 86.712 17.065 87.3916L17.2744 87.2998ZM16.4765 84.6973L16.7013 84.7387C16.779 84.3171 17.0229 83.9444 17.3781 83.7039L17.2499 83.5146L17.1218 83.3254C16.6654 83.6344 16.3516 84.1135 16.2517 84.6559L16.4765 84.6973ZM17.2499 83.5146L17.3781 83.7039C17.5623 83.5792 17.8187 83.5053 18.237 83.4672C18.6555 83.429 19.2031 83.4288 19.954 83.4288V83.2002V82.9716C19.2119 82.9716 18.6397 82.9714 18.1955 83.0119C17.7511 83.0524 17.4019 83.1357 17.1218 83.3254L17.2499 83.5146ZM19.954 83.2002V83.4288H27.5986V83.2002V82.9716H19.954V83.2002ZM107.915 83.2002V83.4288C108.666 83.4288 109.213 83.429 109.631 83.4672C110.049 83.5053 110.306 83.5792 110.49 83.7039L110.618 83.5146L110.746 83.3254C110.466 83.1358 110.117 83.0525 109.673 83.0119C109.229 82.9714 108.657 82.9716 107.915 82.9716V83.2002ZM110.618 83.5146L110.49 83.7039C110.845 83.9444 111.089 84.3171 111.167 84.7387L111.392 84.6973L111.616 84.6559C111.516 84.1135 111.203 83.6344 110.746 83.3254L110.618 83.5146ZM111.392 84.6973L111.167 84.7387C111.207 84.9574 111.172 85.2218 111.039 85.6202C110.905 86.0187 110.686 86.5203 110.384 87.208L110.594 87.2998L110.803 87.3916C111.101 86.712 111.331 86.188 111.472 85.765C111.614 85.3418 111.678 84.9886 111.616 84.6559L111.392 84.6973ZM110.594 87.2998L110.384 87.2081L107.574 93.6221L107.783 93.7139L107.993 93.8056L110.803 87.3915L110.594 87.2998ZM107.783 93.7139L107.574 93.8056L110.384 100.22L110.594 100.128L110.803 100.036L107.993 93.6221L107.783 93.7139ZM110.594 100.128L110.384 100.22C110.686 100.907 110.905 101.409 111.039 101.808C111.172 102.207 111.207 102.471 111.167 102.69L111.392 102.731L111.616 102.773C111.678 102.44 111.614 102.087 111.472 101.663C111.331 101.24 111.101 100.716 110.803 100.036L110.594 100.128ZM111.392 102.731L111.167 102.69C111.089 103.112 110.845 103.484 110.49 103.725L110.618 103.914L110.746 104.103C111.203 103.794 111.516 103.315 111.616 102.773L111.392 102.731ZM110.618 103.914L110.49 103.725C110.306 103.849 110.049 103.923 109.631 103.962C109.213 104 108.666 104 107.915 104V104.229V104.457C108.657 104.457 109.229 104.457 109.673 104.417C110.117 104.376 110.466 104.293 110.746 104.103L110.618 103.914ZM107.915 104.229V104H100.269V104.229V104.457H107.915V104.229ZM100.269 104.229V104C99.2417 104 98.4846 104 97.8862 103.951C97.2905 103.902 96.8723 103.807 96.5187 103.626L96.415 103.83L96.3112 104.034C96.7399 104.252 97.225 104.356 97.849 104.407C98.4703 104.457 99.2493 104.457 100.269 104.457V104.229ZM96.415 103.83L96.5188 103.626C95.8738 103.298 95.3497 102.773 95.021 102.128L94.8173 102.231L94.6137 102.335C94.9861 103.066 95.58 103.661 96.3112 104.034L96.415 103.83ZM94.8173 102.231L95.021 102.128C94.8409 101.774 94.7451 101.356 94.6965 100.76C94.6476 100.162 94.6475 99.4048 94.6475 98.377H94.4189H94.1903C94.1903 99.3972 94.1901 100.176 94.2408 100.797C94.2918 101.421 94.3952 101.906 94.6137 102.335L94.8173 102.231ZM94.4189 98.377H94.6475V89.0518H94.4189H94.1903V98.377H94.4189ZM94.4189 89.0518H94.6475C94.6475 88.024 94.6476 87.2668 94.6965 86.6685C94.7451 86.0728 94.8409 85.6546 95.021 85.301L94.8173 85.1973L94.6137 85.0935C94.3953 85.5222 94.2918 86.0073 94.2409 86.6313C94.1901 87.2526 94.1903 88.0315 94.1903 89.0518H94.4189ZM94.8173 85.1973L95.021 85.301C95.3497 84.6559 95.8738 84.1309 96.5188 83.8023L96.415 83.5986L96.3112 83.395C95.58 83.7676 94.9861 84.3625 94.6137 85.0935L94.8173 85.1973ZM96.415 83.5986L96.5187 83.8023C96.8723 83.6222 97.2905 83.5264 97.8862 83.4778C98.4846 83.4289 99.2417 83.4288 100.269 83.4288V83.2002V82.9716C99.2493 82.9716 98.4703 82.9714 97.849 83.0221C97.225 83.0731 96.7399 83.1765 96.3112 83.395L96.415 83.5986ZM100.269 83.2002V83.4288H107.915V83.2002V82.9716H100.269V83.2002Z" fill="url(#paint8_linear_10_12055)" style="mix-blend-mode:darken" mask="url(#path-15-inside-2_10_12055)"/>
</g>
<path d="M27.5986 83.2002C29.6466 83.2002 30.6708 83.2 31.4531 83.5986C32.1411 83.9493 32.7001 84.5092 33.0507 85.1973C33.4492 85.9796 33.4501 87.0037 33.4501 89.0518V98.377C33.4501 100.425 33.4493 101.449 33.0507 102.231C32.7001 102.92 32.1412 103.479 31.4531 103.83C30.6708 104.229 29.6466 104.229 27.5986 104.229H19.954C18.4611 104.229 17.7143 104.228 17.2499 103.914C16.8442 103.639 16.5653 103.213 16.4765 102.731C16.375 102.18 16.675 101.495 17.2744 100.128L20.0849 93.7139L17.2744 87.2998C16.6751 85.9325 16.375 85.2488 16.4765 84.6973C16.5653 84.2153 16.8441 83.7894 17.2499 83.5146C17.7143 83.2003 18.461 83.2002 19.954 83.2002H27.5986ZM107.915 83.2002C109.408 83.2002 110.154 83.2004 110.618 83.5146C111.024 83.7894 111.303 84.2153 111.392 84.6973C111.493 85.2488 111.193 85.9324 110.594 87.2998L107.783 93.7139L110.594 100.128C111.193 101.495 111.493 102.18 111.392 102.731C111.303 103.213 111.024 103.639 110.618 103.914C110.154 104.228 109.408 104.229 107.915 104.229H100.269C98.2215 104.229 97.1972 104.229 96.415 103.83C95.7269 103.479 95.1679 102.92 94.8173 102.231C94.4188 101.449 94.4189 100.425 94.4189 98.377V89.0518C94.4189 87.0038 94.4188 85.9795 94.8173 85.1973C95.1679 84.5092 95.727 83.9493 96.415 83.5986C97.1972 83.2001 98.2215 83.2002 100.269 83.2002H107.915Z" fill="url(#paint9_linear_10_12055)" fill-opacity="0.3" style="mix-blend-mode:overlay"/>
<path d="M27.5986 83.2002C29.6466 83.2002 30.6708 83.2 31.4531 83.5986C32.1411 83.9493 32.7001 84.5092 33.0507 85.1973C33.4492 85.9796 33.4501 87.0037 33.4501 89.0518V98.377C33.4501 100.425 33.4493 101.449 33.0507 102.231C32.7001 102.92 32.1412 103.479 31.4531 103.83C30.6708 104.229 29.6466 104.229 27.5986 104.229H19.954C18.4611 104.229 17.7143 104.228 17.2499 103.914C16.8442 103.639 16.5653 103.213 16.4765 102.731C16.375 102.18 16.675 101.495 17.2744 100.128L20.0849 93.7139L17.2744 87.2998C16.6751 85.9325 16.375 85.2488 16.4765 84.6973C16.5653 84.2153 16.8441 83.7894 17.2499 83.5146C17.7143 83.2003 18.461 83.2002 19.954 83.2002H27.5986ZM107.915 83.2002C109.408 83.2002 110.154 83.2004 110.618 83.5146C111.024 83.7894 111.303 84.2153 111.392 84.6973C111.493 85.2488 111.193 85.9324 110.594 87.2998L107.783 93.7139L110.594 100.128C111.193 101.495 111.493 102.18 111.392 102.731C111.303 103.213 111.024 103.639 110.618 103.914C110.154 104.228 109.408 104.229 107.915 104.229H100.269C98.2215 104.229 97.1972 104.229 96.415 103.83C95.7269 103.479 95.1679 102.92 94.8173 102.231C94.4188 101.449 94.4189 100.425 94.4189 98.377V89.0518C94.4189 87.0038 94.4188 85.9795 94.8173 85.1973C95.1679 84.5092 95.727 83.9493 96.415 83.5986C97.1972 83.2001 98.2215 83.2002 100.269 83.2002H107.915Z" fill="url(#paint10_radial_10_12055)" fill-opacity="0.6" style="mix-blend-mode:overlay"/>
<path d="M27.5986 83.2002C29.6466 83.2002 30.6708 83.2 31.4531 83.5986C32.1411 83.9493 32.7001 84.5092 33.0507 85.1973C33.4492 85.9796 33.4501 87.0037 33.4501 89.0518V98.377C33.4501 100.425 33.4493 101.449 33.0507 102.231C32.7001 102.92 32.1412 103.479 31.4531 103.83C30.6708 104.229 29.6466 104.229 27.5986 104.229H19.954C18.4611 104.229 17.7143 104.228 17.2499 103.914C16.8442 103.639 16.5653 103.213 16.4765 102.731C16.375 102.18 16.675 101.495 17.2744 100.128L20.0849 93.7139L17.2744 87.2998C16.6751 85.9325 16.375 85.2488 16.4765 84.6973C16.5653 84.2153 16.8441 83.7894 17.2499 83.5146C17.7143 83.2003 18.461 83.2002 19.954 83.2002H27.5986ZM107.915 83.2002C109.408 83.2002 110.154 83.2004 110.618 83.5146C111.024 83.7894 111.303 84.2153 111.392 84.6973C111.493 85.2488 111.193 85.9324 110.594 87.2998L107.783 93.7139L110.594 100.128C111.193 101.495 111.493 102.18 111.392 102.731C111.303 103.213 111.024 103.639 110.618 103.914C110.154 104.228 109.408 104.229 107.915 104.229H100.269C98.2215 104.229 97.1972 104.229 96.415 103.83C95.7269 103.479 95.1679 102.92 94.8173 102.231C94.4188 101.449 94.4189 100.425 94.4189 98.377V89.0518C94.4189 87.0038 94.4188 85.9795 94.8173 85.1973C95.1679 84.5092 95.727 83.9493 96.415 83.5986C97.1972 83.2001 98.2215 83.2002 100.269 83.2002H107.915Z" fill="black" fill-opacity="0.24" style="mix-blend-mode:overlay"/>
<path d="M27.5986 83.2002C29.6466 83.2002 30.6708 83.2 31.4531 83.5986C32.1411 83.9493 32.7001 84.5092 33.0507 85.1973C33.4492 85.9796 33.4501 87.0037 33.4501 89.0518V98.377C33.4501 100.425 33.4493 101.449 33.0507 102.231C32.7001 102.92 32.1412 103.479 31.4531 103.83C30.6708 104.229 29.6466 104.229 27.5986 104.229H19.954C18.4611 104.229 17.7143 104.228 17.2499 103.914C16.8442 103.639 16.5653 103.213 16.4765 102.731C16.375 102.18 16.675 101.495 17.2744 100.128L20.0849 93.7139L17.2744 87.2998C16.6751 85.9325 16.375 85.2488 16.4765 84.6973C16.5653 84.2153 16.8441 83.7894 17.2499 83.5146C17.7143 83.2003 18.461 83.2002 19.954 83.2002H27.5986ZM107.915 83.2002C109.408 83.2002 110.154 83.2004 110.618 83.5146C111.024 83.7894 111.303 84.2153 111.392 84.6973C111.493 85.2488 111.193 85.9324 110.594 87.2998L107.783 93.7139L110.594 100.128C111.193 101.495 111.493 102.18 111.392 102.731C111.303 103.213 111.024 103.639 110.618 103.914C110.154 104.228 109.408 104.229 107.915 104.229H100.269C98.2215 104.229 97.1972 104.229 96.415 103.83C95.7269 103.479 95.1679 102.92 94.8173 102.231C94.4188 101.449 94.4189 100.425 94.4189 98.377V89.0518C94.4189 87.0038 94.4188 85.9795 94.8173 85.1973C95.1679 84.5092 95.727 83.9493 96.415 83.5986C97.1972 83.2001 98.2215 83.2002 100.269 83.2002H107.915Z" fill="black" fill-opacity="0.12" style="mix-blend-mode:darken"/>
<g filter="url(#filter4_dd_10_12055)">
<rect x="23.7056" y="77.7139" width="80.4571" height="21.0286" rx="3.65714" fill="#FFA00F"/>
<rect x="23.8199" y="77.8282" width="80.2286" height="20.8" rx="3.54286" stroke="url(#paint11_linear_10_12055)" stroke-width="0.228571" stroke-linecap="round" style="mix-blend-mode:darken"/>
</g>
<rect x="23.7056" y="77.7139" width="80.4571" height="21.0286" rx="3.65714" fill="url(#paint12_linear_10_12055)" fill-opacity="0.3" style="mix-blend-mode:overlay"/>
<rect x="23.7056" y="77.7139" width="80.4571" height="21.0286" rx="3.65714" fill="url(#paint13_radial_10_12055)" fill-opacity="0.6" style="mix-blend-mode:overlay"/>
<g filter="url(#filter5_i_10_12055)">
<circle cx="28.7342" cy="88.2289" r="1.37143" fill="black" fill-opacity="0.24" style="mix-blend-mode:color-burn"/>
<circle cx="28.7342" cy="88.2289" r="1.37143" fill="black" fill-opacity="0.32" style="mix-blend-mode:darken"/>
</g>
<g filter="url(#filter6_i_10_12055)">
<circle cx="99.1341" cy="88.2289" r="1.37143" fill="black" fill-opacity="0.24" style="mix-blend-mode:color-burn"/>
<circle cx="99.1341" cy="88.2289" r="1.37143" fill="black" fill-opacity="0.32" style="mix-blend-mode:darken"/>
</g>
<g filter="url(#filter7_i_10_12055)">
<path d="M45.8221 88.4188C45.8221 87.9288 45.738 87.5265 45.5698 87.212C45.4089 86.8974 45.1821 86.6634 44.8895 86.5098C44.6043 86.3489 44.2715 86.2684 43.8911 86.2684C43.7595 86.2684 43.6315 86.2757 43.5071 86.2904C43.3901 86.2977 43.2694 86.3086 43.1451 86.3233V90.4814C43.2548 90.5034 43.3791 90.5217 43.5181 90.5363C43.6571 90.5436 43.7887 90.5473 43.9131 90.5473C44.4909 90.5473 44.9517 90.3681 45.2955 90.0097C45.6466 89.6513 45.8221 89.121 45.8221 88.4188ZM47.5446 88.3859C47.5446 89.1758 47.391 89.8305 47.0838 90.3498C46.7839 90.8691 46.3597 91.2604 45.8111 91.5237C45.2699 91.7797 44.6335 91.9077 43.9021 91.9077C43.6607 91.9077 43.3645 91.8894 43.0134 91.8529C42.6623 91.8236 42.3442 91.7578 42.0589 91.6554C41.6786 91.5164 41.4884 91.2714 41.4884 90.9203V85.676C41.4884 85.5297 41.5286 85.42 41.6091 85.3468C41.6895 85.2664 41.7956 85.2005 41.9273 85.1493C42.2198 85.0542 42.5343 84.9921 42.8708 84.9628C43.2073 84.9336 43.5145 84.9189 43.7924 84.9189C44.5458 84.9189 45.2004 85.0469 45.7563 85.3029C46.3195 85.5516 46.7583 85.932 47.0729 86.444C47.3874 86.956 47.5446 87.6033 47.5446 88.3859ZM48.3245 87.1022H49.9922V91.7322C49.9264 91.7541 49.8203 91.7724 49.674 91.787C49.5277 91.809 49.3778 91.82 49.2242 91.82C48.8951 91.82 48.661 91.7614 48.522 91.6444C48.3904 91.5274 48.3245 91.3226 48.3245 91.03V87.1022ZM49.9922 89.2088H48.3245V85.0725C48.3977 85.0579 48.5074 85.0396 48.6537 85.0177C48.8073 84.9957 48.9572 84.9848 49.1035 84.9848C49.418 84.9848 49.6448 85.0396 49.7837 85.1493C49.9227 85.259 49.9922 85.4675 49.9922 85.7747V89.2088ZM52.7781 88.2104H53.4912C53.8569 88.2104 54.1495 88.1299 54.3689 87.969C54.5957 87.8008 54.7091 87.5557 54.7091 87.2339C54.7091 86.9194 54.603 86.6817 54.3909 86.5208C54.1788 86.3525 53.8533 86.2684 53.4144 86.2684C53.2901 86.2684 53.1767 86.2721 53.0743 86.2794C52.9719 86.2867 52.8732 86.3013 52.7781 86.3233V88.2104ZM53.6448 89.505H51.1214V85.676C51.1214 85.537 51.1616 85.4273 51.2421 85.3468C51.3225 85.2664 51.4286 85.2042 51.5603 85.1603C51.8016 85.0725 52.0832 85.0104 52.4051 84.9738C52.7342 84.9372 53.0743 84.9189 53.4254 84.9189C54.4128 84.9189 55.1552 85.1274 55.6526 85.5443C56.15 85.9539 56.3987 86.5134 56.3987 87.2229C56.3987 87.6618 56.278 88.0568 56.0366 88.4078C55.8025 88.7516 55.4771 89.0222 55.0601 89.2197C54.6505 89.4099 54.1788 89.505 53.6448 89.505ZM53.3376 89.11L54.8297 88.7589C54.998 88.993 55.1699 89.2234 55.3454 89.4501C55.5283 89.6769 55.7001 89.8963 55.8611 90.1084C56.0293 90.3205 56.1792 90.518 56.3109 90.7009C56.4425 90.8764 56.5486 91.0264 56.6291 91.1507C56.5632 91.3701 56.4462 91.542 56.278 91.6664C56.1097 91.7834 55.9196 91.8419 55.7075 91.8419C55.4368 91.8419 55.2284 91.7834 55.0821 91.6664C54.9431 91.542 54.8115 91.3811 54.6871 91.1836L53.3376 89.11ZM51.1214 88.8796H52.7891V91.7322C52.7232 91.7541 52.6172 91.7724 52.4709 91.787C52.3246 91.809 52.1747 91.82 52.0211 91.82C51.6919 91.82 51.4579 91.7614 51.3189 91.6444C51.1872 91.5274 51.1214 91.3226 51.1214 91.03V88.8796ZM57.304 87.0913H58.9277V91.6773C58.8619 91.692 58.7595 91.7102 58.6205 91.7322C58.4889 91.7541 58.3463 91.7651 58.1927 91.7651C57.922 91.7651 57.7063 91.6846 57.5453 91.5237C57.3844 91.3628 57.304 91.147 57.304 90.8764V87.0913ZM58.9277 89.7464H57.304V85.9832C57.304 85.7052 57.3844 85.4894 57.5453 85.3358C57.7063 85.1749 57.922 85.0945 58.1927 85.0945C58.3463 85.0945 58.4889 85.1054 58.6205 85.1274C58.7595 85.1493 58.8619 85.1676 58.9277 85.1822V89.7464ZM58.1927 89.0113V87.6947H61.506C61.5499 87.7678 61.5901 87.8593 61.6267 87.969C61.6633 88.0787 61.6816 88.1994 61.6816 88.331C61.6816 88.5651 61.6267 88.737 61.517 88.8467C61.4146 88.9564 61.2756 89.0113 61.1001 89.0113H58.1927ZM58.1927 91.7651V90.4376H61.8681C61.912 90.5034 61.9522 90.5948 61.9888 90.7118C62.0253 90.8289 62.0436 90.9532 62.0436 91.0849C62.0436 91.3189 61.9888 91.4908 61.8791 91.6005C61.7767 91.7102 61.6377 91.7651 61.4621 91.7651H58.1927ZM58.1927 86.411V85.0945H61.8132C61.8644 85.1603 61.9047 85.2481 61.9339 85.3578C61.9705 85.4675 61.9888 85.5882 61.9888 85.7198C61.9888 85.9539 61.9376 86.1294 61.8352 86.2465C61.7328 86.3562 61.5901 86.411 61.4073 86.411H58.1927ZM67.9033 85.9941C67.9033 86.1624 67.8594 86.3086 67.7717 86.433C67.6839 86.5573 67.5851 86.6561 67.4754 86.7292C67.2926 86.6049 67.0841 86.4952 66.8501 86.4001C66.6233 86.305 66.3527 86.2574 66.0382 86.2574C65.6505 86.2574 65.3141 86.3416 65.0288 86.5098C64.7435 86.678 64.5241 86.923 64.3705 87.2449C64.2242 87.5667 64.1511 87.958 64.1511 88.4188C64.1511 89.121 64.3266 89.6549 64.6777 90.0206C65.0288 90.3864 65.5115 90.5692 66.1259 90.5692C66.4405 90.5692 66.7111 90.5253 66.9378 90.4376C67.1646 90.3498 67.373 90.251 67.5632 90.1413C67.6729 90.2218 67.7607 90.3278 67.8265 90.4595C67.8997 90.5838 67.9362 90.7301 67.9362 90.8984C67.9362 91.0446 67.896 91.18 67.8155 91.3043C67.7424 91.4286 67.6144 91.5347 67.4315 91.6225C67.2926 91.6956 67.0951 91.7651 66.8391 91.8309C66.5831 91.8968 66.2722 91.9297 65.9065 91.9297C65.2629 91.9297 64.6741 91.8053 64.1401 91.5566C63.6135 91.3006 63.1966 90.9166 62.8894 90.4046C62.5822 89.8853 62.4286 89.2234 62.4286 88.4188C62.4286 87.6581 62.5785 87.0181 62.8784 86.4988C63.1856 85.9722 63.5952 85.5736 64.1072 85.3029C64.6192 85.0323 65.1861 84.897 65.8078 84.897C66.2393 84.897 66.6123 84.9482 66.9269 85.0506C67.2414 85.1457 67.4827 85.2773 67.651 85.4456C67.8192 85.6065 67.9033 85.7893 67.9033 85.9941ZM70.2388 86.433L70.2278 85.0945H73.618C73.6619 85.1603 73.7021 85.2517 73.7387 85.3688C73.7752 85.4858 73.7935 85.6101 73.7935 85.7418C73.7935 85.9758 73.7387 86.1514 73.6289 86.2684C73.5265 86.3781 73.3839 86.433 73.2011 86.433H70.2388ZM71.7857 85.0945L71.7967 86.433H68.4065C68.3553 86.3672 68.3115 86.2757 68.2749 86.1587C68.2456 86.0417 68.231 85.9173 68.231 85.7857C68.231 85.5443 68.2822 85.3688 68.3846 85.259C68.4943 85.1493 68.6369 85.0945 68.8125 85.0945H71.7857ZM70.151 86.1368H71.8296V91.7322C71.7565 91.7541 71.6468 91.7724 71.5005 91.787C71.3542 91.809 71.2043 91.82 71.0507 91.82C70.7215 91.82 70.4875 91.7614 70.3485 91.6444C70.2168 91.5274 70.151 91.3226 70.151 91.03V86.1368ZM80.5353 88.4078C80.5353 89.1685 80.3853 89.8122 80.0855 90.3388C79.7929 90.8581 79.3869 91.2531 78.8676 91.5237C78.3556 91.7944 77.7741 91.9297 77.1232 91.9297C76.4722 91.9297 75.8907 91.7944 75.3787 91.5237C74.8667 91.2531 74.4644 90.8581 74.1719 90.3388C73.8793 89.8122 73.733 89.1685 73.733 88.4078C73.733 87.6472 73.8829 87.0072 74.1828 86.4878C74.4827 85.9612 74.8887 85.5662 75.4007 85.3029C75.9127 85.0323 76.4868 84.897 77.1232 84.897C77.7668 84.897 78.3447 85.0323 78.8567 85.3029C79.376 85.5662 79.7856 85.9612 80.0855 86.4878C80.3853 87.0072 80.5353 87.6472 80.5353 88.4078ZM78.8128 88.4078C78.8128 87.7057 78.6592 87.1717 78.352 86.806C78.0521 86.4403 77.6425 86.2574 77.1232 86.2574C76.6258 86.2574 76.2235 86.4403 75.9163 86.806C75.6091 87.1644 75.4555 87.6984 75.4555 88.4078C75.4555 89.1246 75.6055 89.6659 75.9053 90.0316C76.2125 90.39 76.6221 90.5692 77.1341 90.5692C77.6461 90.5692 78.0521 90.39 78.352 90.0316C78.6592 89.6659 78.8128 89.1246 78.8128 88.4078ZM82.9731 88.2104H83.6862C84.0519 88.2104 84.3445 88.1299 84.5639 87.969C84.7907 87.8008 84.9041 87.5557 84.9041 87.2339C84.9041 86.9194 84.798 86.6817 84.5859 86.5208C84.3738 86.3525 84.0483 86.2684 83.6094 86.2684C83.4851 86.2684 83.3717 86.2721 83.2693 86.2794C83.1669 86.2867 83.0682 86.3013 82.9731 86.3233V88.2104ZM83.8398 89.505H81.3164V85.676C81.3164 85.537 81.3566 85.4273 81.4371 85.3468C81.5175 85.2664 81.6236 85.2042 81.7553 85.1603C81.9966 85.0725 82.2782 85.0104 82.6001 84.9738C82.9292 84.9372 83.2693 84.9189 83.6204 84.9189C84.6078 84.9189 85.3502 85.1274 85.8476 85.5443C86.345 85.9539 86.5937 86.5134 86.5937 87.2229C86.5937 87.6618 86.473 88.0568 86.2316 88.4078C85.9975 88.7516 85.6721 89.0222 85.2551 89.2197C84.8455 89.4099 84.3738 89.505 83.8398 89.505ZM83.5326 89.11L85.0247 88.7589C85.193 88.993 85.3649 89.2234 85.5404 89.4501C85.7233 89.6769 85.8951 89.8963 86.0561 90.1084C86.2243 90.3205 86.3742 90.518 86.5059 90.7009C86.6375 90.8764 86.7436 91.0264 86.8241 91.1507C86.7582 91.3701 86.6412 91.542 86.473 91.6664C86.3047 91.7834 86.1146 91.8419 85.9025 91.8419C85.6318 91.8419 85.4234 91.7834 85.2771 91.6664C85.1381 91.542 85.0065 91.3811 84.8821 91.1836L83.5326 89.11ZM81.3164 88.8796H82.9841V91.7322C82.9182 91.7541 82.8122 91.7724 82.6659 91.787C82.5196 91.809 82.3697 91.82 82.2161 91.82C81.8869 91.82 81.6529 91.7614 81.5139 91.6444C81.3822 91.5274 81.3164 91.3226 81.3164 91.03V88.8796Z" fill="black" fill-opacity="0.24" style="mix-blend-mode:color-burn"/>
<path d="M45.8221 88.4188C45.8221 87.9288 45.738 87.5265 45.5698 87.212C45.4089 86.8974 45.1821 86.6634 44.8895 86.5098C44.6043 86.3489 44.2715 86.2684 43.8911 86.2684C43.7595 86.2684 43.6315 86.2757 43.5071 86.2904C43.3901 86.2977 43.2694 86.3086 43.1451 86.3233V90.4814C43.2548 90.5034 43.3791 90.5217 43.5181 90.5363C43.6571 90.5436 43.7887 90.5473 43.9131 90.5473C44.4909 90.5473 44.9517 90.3681 45.2955 90.0097C45.6466 89.6513 45.8221 89.121 45.8221 88.4188ZM47.5446 88.3859C47.5446 89.1758 47.391 89.8305 47.0838 90.3498C46.7839 90.8691 46.3597 91.2604 45.8111 91.5237C45.2699 91.7797 44.6335 91.9077 43.9021 91.9077C43.6607 91.9077 43.3645 91.8894 43.0134 91.8529C42.6623 91.8236 42.3442 91.7578 42.0589 91.6554C41.6786 91.5164 41.4884 91.2714 41.4884 90.9203V85.676C41.4884 85.5297 41.5286 85.42 41.6091 85.3468C41.6895 85.2664 41.7956 85.2005 41.9273 85.1493C42.2198 85.0542 42.5343 84.9921 42.8708 84.9628C43.2073 84.9336 43.5145 84.9189 43.7924 84.9189C44.5458 84.9189 45.2004 85.0469 45.7563 85.3029C46.3195 85.5516 46.7583 85.932 47.0729 86.444C47.3874 86.956 47.5446 87.6033 47.5446 88.3859ZM48.3245 87.1022H49.9922V91.7322C49.9264 91.7541 49.8203 91.7724 49.674 91.787C49.5277 91.809 49.3778 91.82 49.2242 91.82C48.8951 91.82 48.661 91.7614 48.522 91.6444C48.3904 91.5274 48.3245 91.3226 48.3245 91.03V87.1022ZM49.9922 89.2088H48.3245V85.0725C48.3977 85.0579 48.5074 85.0396 48.6537 85.0177C48.8073 84.9957 48.9572 84.9848 49.1035 84.9848C49.418 84.9848 49.6448 85.0396 49.7837 85.1493C49.9227 85.259 49.9922 85.4675 49.9922 85.7747V89.2088ZM52.7781 88.2104H53.4912C53.8569 88.2104 54.1495 88.1299 54.3689 87.969C54.5957 87.8008 54.7091 87.5557 54.7091 87.2339C54.7091 86.9194 54.603 86.6817 54.3909 86.5208C54.1788 86.3525 53.8533 86.2684 53.4144 86.2684C53.2901 86.2684 53.1767 86.2721 53.0743 86.2794C52.9719 86.2867 52.8732 86.3013 52.7781 86.3233V88.2104ZM53.6448 89.505H51.1214V85.676C51.1214 85.537 51.1616 85.4273 51.2421 85.3468C51.3225 85.2664 51.4286 85.2042 51.5603 85.1603C51.8016 85.0725 52.0832 85.0104 52.4051 84.9738C52.7342 84.9372 53.0743 84.9189 53.4254 84.9189C54.4128 84.9189 55.1552 85.1274 55.6526 85.5443C56.15 85.9539 56.3987 86.5134 56.3987 87.2229C56.3987 87.6618 56.278 88.0568 56.0366 88.4078C55.8025 88.7516 55.4771 89.0222 55.0601 89.2197C54.6505 89.4099 54.1788 89.505 53.6448 89.505ZM53.3376 89.11L54.8297 88.7589C54.998 88.993 55.1699 89.2234 55.3454 89.4501C55.5283 89.6769 55.7001 89.8963 55.8611 90.1084C56.0293 90.3205 56.1792 90.518 56.3109 90.7009C56.4425 90.8764 56.5486 91.0264 56.6291 91.1507C56.5632 91.3701 56.4462 91.542 56.278 91.6664C56.1097 91.7834 55.9196 91.8419 55.7075 91.8419C55.4368 91.8419 55.2284 91.7834 55.0821 91.6664C54.9431 91.542 54.8115 91.3811 54.6871 91.1836L53.3376 89.11ZM51.1214 88.8796H52.7891V91.7322C52.7232 91.7541 52.6172 91.7724 52.4709 91.787C52.3246 91.809 52.1747 91.82 52.0211 91.82C51.6919 91.82 51.4579 91.7614 51.3189 91.6444C51.1872 91.5274 51.1214 91.3226 51.1214 91.03V88.8796ZM57.304 87.0913H58.9277V91.6773C58.8619 91.692 58.7595 91.7102 58.6205 91.7322C58.4889 91.7541 58.3463 91.7651 58.1927 91.7651C57.922 91.7651 57.7063 91.6846 57.5453 91.5237C57.3844 91.3628 57.304 91.147 57.304 90.8764V87.0913ZM58.9277 89.7464H57.304V85.9832C57.304 85.7052 57.3844 85.4894 57.5453 85.3358C57.7063 85.1749 57.922 85.0945 58.1927 85.0945C58.3463 85.0945 58.4889 85.1054 58.6205 85.1274C58.7595 85.1493 58.8619 85.1676 58.9277 85.1822V89.7464ZM58.1927 89.0113V87.6947H61.506C61.5499 87.7678 61.5901 87.8593 61.6267 87.969C61.6633 88.0787 61.6816 88.1994 61.6816 88.331C61.6816 88.5651 61.6267 88.737 61.517 88.8467C61.4146 88.9564 61.2756 89.0113 61.1001 89.0113H58.1927ZM58.1927 91.7651V90.4376H61.8681C61.912 90.5034 61.9522 90.5948 61.9888 90.7118C62.0253 90.8289 62.0436 90.9532 62.0436 91.0849C62.0436 91.3189 61.9888 91.4908 61.8791 91.6005C61.7767 91.7102 61.6377 91.7651 61.4621 91.7651H58.1927ZM58.1927 86.411V85.0945H61.8132C61.8644 85.1603 61.9047 85.2481 61.9339 85.3578C61.9705 85.4675 61.9888 85.5882 61.9888 85.7198C61.9888 85.9539 61.9376 86.1294 61.8352 86.2465C61.7328 86.3562 61.5901 86.411 61.4073 86.411H58.1927ZM67.9033 85.9941C67.9033 86.1624 67.8594 86.3086 67.7717 86.433C67.6839 86.5573 67.5851 86.6561 67.4754 86.7292C67.2926 86.6049 67.0841 86.4952 66.8501 86.4001C66.6233 86.305 66.3527 86.2574 66.0382 86.2574C65.6505 86.2574 65.3141 86.3416 65.0288 86.5098C64.7435 86.678 64.5241 86.923 64.3705 87.2449C64.2242 87.5667 64.1511 87.958 64.1511 88.4188C64.1511 89.121 64.3266 89.6549 64.6777 90.0206C65.0288 90.3864 65.5115 90.5692 66.1259 90.5692C66.4405 90.5692 66.7111 90.5253 66.9378 90.4376C67.1646 90.3498 67.373 90.251 67.5632 90.1413C67.6729 90.2218 67.7607 90.3278 67.8265 90.4595C67.8997 90.5838 67.9362 90.7301 67.9362 90.8984C67.9362 91.0446 67.896 91.18 67.8155 91.3043C67.7424 91.4286 67.6144 91.5347 67.4315 91.6225C67.2926 91.6956 67.0951 91.7651 66.8391 91.8309C66.5831 91.8968 66.2722 91.9297 65.9065 91.9297C65.2629 91.9297 64.6741 91.8053 64.1401 91.5566C63.6135 91.3006 63.1966 90.9166 62.8894 90.4046C62.5822 89.8853 62.4286 89.2234 62.4286 88.4188C62.4286 87.6581 62.5785 87.0181 62.8784 86.4988C63.1856 85.9722 63.5952 85.5736 64.1072 85.3029C64.6192 85.0323 65.1861 84.897 65.8078 84.897C66.2393 84.897 66.6123 84.9482 66.9269 85.0506C67.2414 85.1457 67.4827 85.2773 67.651 85.4456C67.8192 85.6065 67.9033 85.7893 67.9033 85.9941ZM70.2388 86.433L70.2278 85.0945H73.618C73.6619 85.1603 73.7021 85.2517 73.7387 85.3688C73.7752 85.4858 73.7935 85.6101 73.7935 85.7418C73.7935 85.9758 73.7387 86.1514 73.6289 86.2684C73.5265 86.3781 73.3839 86.433 73.2011 86.433H70.2388ZM71.7857 85.0945L71.7967 86.433H68.4065C68.3553 86.3672 68.3115 86.2757 68.2749 86.1587C68.2456 86.0417 68.231 85.9173 68.231 85.7857C68.231 85.5443 68.2822 85.3688 68.3846 85.259C68.4943 85.1493 68.6369 85.0945 68.8125 85.0945H71.7857ZM70.151 86.1368H71.8296V91.7322C71.7565 91.7541 71.6468 91.7724 71.5005 91.787C71.3542 91.809 71.2043 91.82 71.0507 91.82C70.7215 91.82 70.4875 91.7614 70.3485 91.6444C70.2168 91.5274 70.151 91.3226 70.151 91.03V86.1368ZM80.5353 88.4078C80.5353 89.1685 80.3853 89.8122 80.0855 90.3388C79.7929 90.8581 79.3869 91.2531 78.8676 91.5237C78.3556 91.7944 77.7741 91.9297 77.1232 91.9297C76.4722 91.9297 75.8907 91.7944 75.3787 91.5237C74.8667 91.2531 74.4644 90.8581 74.1719 90.3388C73.8793 89.8122 73.733 89.1685 73.733 88.4078C73.733 87.6472 73.8829 87.0072 74.1828 86.4878C74.4827 85.9612 74.8887 85.5662 75.4007 85.3029C75.9127 85.0323 76.4868 84.897 77.1232 84.897C77.7668 84.897 78.3447 85.0323 78.8567 85.3029C79.376 85.5662 79.7856 85.9612 80.0855 86.4878C80.3853 87.0072 80.5353 87.6472 80.5353 88.4078ZM78.8128 88.4078C78.8128 87.7057 78.6592 87.1717 78.352 86.806C78.0521 86.4403 77.6425 86.2574 77.1232 86.2574C76.6258 86.2574 76.2235 86.4403 75.9163 86.806C75.6091 87.1644 75.4555 87.6984 75.4555 88.4078C75.4555 89.1246 75.6055 89.6659 75.9053 90.0316C76.2125 90.39 76.6221 90.5692 77.1341 90.5692C77.6461 90.5692 78.0521 90.39 78.352 90.0316C78.6592 89.6659 78.8128 89.1246 78.8128 88.4078ZM82.9731 88.2104H83.6862C84.0519 88.2104 84.3445 88.1299 84.5639 87.969C84.7907 87.8008 84.9041 87.5557 84.9041 87.2339C84.9041 86.9194 84.798 86.6817 84.5859 86.5208C84.3738 86.3525 84.0483 86.2684 83.6094 86.2684C83.4851 86.2684 83.3717 86.2721 83.2693 86.2794C83.1669 86.2867 83.0682 86.3013 82.9731 86.3233V88.2104ZM83.8398 89.505H81.3164V85.676C81.3164 85.537 81.3566 85.4273 81.4371 85.3468C81.5175 85.2664 81.6236 85.2042 81.7553 85.1603C81.9966 85.0725 82.2782 85.0104 82.6001 84.9738C82.9292 84.9372 83.2693 84.9189 83.6204 84.9189C84.6078 84.9189 85.3502 85.1274 85.8476 85.5443C86.345 85.9539 86.5937 86.5134 86.5937 87.2229C86.5937 87.6618 86.473 88.0568 86.2316 88.4078C85.9975 88.7516 85.6721 89.0222 85.2551 89.2197C84.8455 89.4099 84.3738 89.505 83.8398 89.505ZM83.5326 89.11L85.0247 88.7589C85.193 88.993 85.3649 89.2234 85.5404 89.4501C85.7233 89.6769 85.8951 89.8963 86.0561 90.1084C86.2243 90.3205 86.3742 90.518 86.5059 90.7009C86.6375 90.8764 86.7436 91.0264 86.8241 91.1507C86.7582 91.3701 86.6412 91.542 86.473 91.6664C86.3047 91.7834 86.1146 91.8419 85.9025 91.8419C85.6318 91.8419 85.4234 91.7834 85.2771 91.6664C85.1381 91.542 85.0065 91.3811 84.8821 91.1836L83.5326 89.11ZM81.3164 88.8796H82.9841V91.7322C82.9182 91.7541 82.8122 91.7724 82.6659 91.787C82.5196 91.809 82.3697 91.82 82.2161 91.82C81.8869 91.82 81.6529 91.7614 81.5139 91.6444C81.3822 91.5274 81.3164 91.3226 81.3164 91.03V88.8796Z" fill="black" fill-opacity="0.32" style="mix-blend-mode:darken"/>
</g>
<defs>
<filter id="filter0_dddd_10_12055" x="6.65891" y="14.0775" width="114.791" height="150.702" filterUnits="userSpaceOnUse" color-interpolation-filters="sRGB">
<feFlood flood-opacity="0" result="BackgroundImageFix"/>
<feColorMatrix in="SourceAlpha" type="matrix" values="0 0 0 0 0 0 0 0 0 0 0 0 0 0 0 0 0 0 127 0" result="hardAlpha"/>
<feOffset dy="2.28571"/>
<feGaussianBlur stdDeviation="2.51429"/>
<feColorMatrix type="matrix" values="0 0 0 0 0 0 0 0 0 0 0 0 0 0 0 0 0 0 0.24 0"/>
<feBlend mode="normal" in2="BackgroundImageFix" result="effect1_dropShadow_10_12055"/>
<feColorMatrix in="SourceAlpha" type="matrix" values="0 0 0 0 0 0 0 0 0 0 0 0 0 0 0 0 0 0 127 0" result="hardAlpha"/>
<feOffset dy="9.6"/>
<feGaussianBlur stdDeviation="4.8"/>
<feColorMatrix type="matrix" values="0 0 0 0 0 0 0 0 0 0 0 0 0 0 0 0 0 0 0.21 0"/>
<feBlend mode="normal" in2="effect1_dropShadow_10_12055" result="effect2_dropShadow_10_12055"/>
<feColorMatrix in="SourceAlpha" type="matrix" values="0 0 0 0 0 0 0 0 0 0 0 0 0 0 0 0 0 0 127 0" result="hardAlpha"/>
<feOffset dy="21.0286"/>
<feGaussianBlur stdDeviation="6.4"/>
<feColorMatrix type="matrix" values="0 0 0 0 0 0 0 0 0 0 0 0 0 0 0 0 0 0 0.12 0"/>
<feBlend mode="normal" in2="effect2_dropShadow_10_12055" result="effect3_dropShadow_10_12055"/>
<feColorMatrix in="SourceAlpha" type="matrix" values="0 0 0 0 0 0 0 0 0 0 0 0 0 0 0 0 0 0 127 0" result="hardAlpha"/>
<feOffset dy="37.4857"/>
<feGaussianBlur stdDeviation="7.54286"/>
<feColorMatrix type="matrix" values="0 0 0 0 0 0 0 0 0 0 0 0 0 0 0 0 0 0 0.04 0"/>
<feBlend mode="normal" in2="effect3_dropShadow_10_12055" result="effect4_dropShadow_10_12055"/>
<feBlend mode="normal" in="SourceGraphic" in2="effect4_dropShadow_10_12055" result="shape"/>
</filter>
<filter id="filter1_d_10_12055" x="18.088" y="14.0775" width="91.9334" height="102.703" filterUnits="userSpaceOnUse" color-interpolation-filters="sRGB">
<feFlood flood-opacity="0" result="BackgroundImageFix"/>
<feColorMatrix in="SourceAlpha" type="matrix" values="0 0 0 0 0 0 0 0 0 0 0 0 0 0 0 0 0 0 127 0" result="hardAlpha"/>
<feOffset dy="0.914286"/>
<feGaussianBlur stdDeviation="1.82857"/>
<feColorMatrix type="matrix" values="0 0 0 0 0 0 0 0 0 0 0 0 0 0 0 0 0 0 0.16 0"/>
<feBlend mode="color-burn" in2="BackgroundImageFix" result="effect1_dropShadow_10_12055"/>
<feBlend mode="normal" in="SourceGraphic" in2="effect1_dropShadow_10_12055" result="shape"/>
</filter>
<filter id="filter2_d_10_12055" x="41.6005" y="36.4794" width="43.9775" height="45.488" filterUnits="userSpaceOnUse" color-interpolation-filters="sRGB">
<feFlood flood-opacity="0" result="BackgroundImageFix"/>
<feColorMatrix in="SourceAlpha" type="matrix" values="0 0 0 0 0 0 0 0 0 0 0 0 0 0 0 0 0 0 127 0" result="hardAlpha"/>
<feOffset dy="0.914286"/>
<feGaussianBlur stdDeviation="2.74286"/>
<feColorMatrix type="matrix" values="0 0 0 0 0 0 0 0 0 0 0 0 0 0 0 0 0 0 0.12 0"/>
<feBlend mode="plus-darker" in2="BackgroundImageFix" result="effect1_dropShadow_10_12055"/>
<feBlend mode="normal" in="SourceGraphic" in2="effect1_dropShadow_10_12055" result="shape"/>
</filter>
<filter id="filter3_dd_10_12055" x="10.9713" y="79.5431" width="105.926" height="31.9997" filterUnits="userSpaceOnUse" color-interpolation-filters="sRGB">
<feFlood flood-opacity="0" result="BackgroundImageFix"/>
<feColorMatrix in="SourceAlpha" type="matrix" values="0 0 0 0 0 0 0 0 0 0 0 0 0 0 0 0 0 0 127 0" result="hardAlpha"/>
<feOffset dy="1.82857"/>
<feGaussianBlur stdDeviation="2.74286"/>
<feColorMatrix type="matrix" values="0 0 0 0 0 0 0 0 0 0 0 0 0 0 0 0 0 0 0.16 0"/>
<feBlend mode="normal" in2="BackgroundImageFix" result="effect1_dropShadow_10_12055"/>
<feColorMatrix in="SourceAlpha" type="matrix" values="0 0 0 0 0 0 0 0 0 0 0 0 0 0 0 0 0 0 127 0" result="hardAlpha"/>
<feOffset dy="0.914286"/>
<feGaussianBlur stdDeviation="0.914286"/>
<feColorMatrix type="matrix" values="0 0 0 0 0 0 0 0 0 0 0 0 0 0 0 0 0 0 0.24 0"/>
<feBlend mode="normal" in2="effect1_dropShadow_10_12055" result="effect2_dropShadow_10_12055"/>
<feBlend mode="normal" in="SourceGraphic" in2="effect2_dropShadow_10_12055" result="shape"/>
</filter>
<filter id="filter4_dd_10_12055" x="18.2199" y="74.0567" width="91.4285" height="31.9997" filterUnits="userSpaceOnUse" color-interpolation-filters="sRGB">
<feFlood flood-opacity="0" result="BackgroundImageFix"/>
<feColorMatrix in="SourceAlpha" type="matrix" values="0 0 0 0 0 0 0 0 0 0 0 0 0 0 0 0 0 0 127 0" result="hardAlpha"/>
<feOffset dy="1.82857"/>
<feGaussianBlur stdDeviation="2.74286"/>
<feColorMatrix type="matrix" values="0 0 0 0 0 0 0 0 0 0 0 0 0 0 0 0 0 0 0.16 0"/>
<feBlend mode="normal" in2="BackgroundImageFix" result="effect1_dropShadow_10_12055"/>
<feColorMatrix in="SourceAlpha" type="matrix" values="0 0 0 0 0 0 0 0 0 0 0 0 0 0 0 0 0 0 127 0" result="hardAlpha"/>
<feOffset dy="0.914286"/>
<feGaussianBlur stdDeviation="0.914286"/>
<feColorMatrix type="matrix" values="0 0 0 0 0 0 0 0 0 0 0 0 0 0 0 0 0 0 0.24 0"/>
<feBlend mode="normal" in2="effect1_dropShadow_10_12055" result="effect2_dropShadow_10_12055"/>
<feBlend mode="normal" in="SourceGraphic" in2="effect2_dropShadow_10_12055" result="shape"/>
</filter>
<filter id="filter5_i_10_12055" x="27.3628" y="86.8574" width="2.74292" height="3.20031" filterUnits="userSpaceOnUse" color-interpolation-filters="sRGB">
<feFlood flood-opacity="0" result="BackgroundImageFix"/>
<feBlend mode="normal" in="SourceGraphic" in2="BackgroundImageFix" result="shape"/>
<feColorMatrix in="SourceAlpha" type="matrix" values="0 0 0 0 0 0 0 0 0 0 0 0 0 0 0 0 0 0 127 0" result="hardAlpha"/>
<feOffset dy="0.457143"/>
<feGaussianBlur stdDeviation="0.457143"/>
<feComposite in2="hardAlpha" operator="arithmetic" k2="-1" k3="1"/>
<feColorMatrix type="matrix" values="0 0 0 0 0 0 0 0 0 0 0 0 0 0 0 0 0 0 0.24 0"/>
<feBlend mode="darken" in2="shape" result="effect1_innerShadow_10_12055"/>
</filter>
<filter id="filter6_i_10_12055" x="97.7627" y="86.8574" width="2.74268" height="3.20031" filterUnits="userSpaceOnUse" color-interpolation-filters="sRGB">
<feFlood flood-opacity="0" result="BackgroundImageFix"/>
<feBlend mode="normal" in="SourceGraphic" in2="BackgroundImageFix" result="shape"/>
<feColorMatrix in="SourceAlpha" type="matrix" values="0 0 0 0 0 0 0 0 0 0 0 0 0 0 0 0 0 0 127 0" result="hardAlpha"/>
<feOffset dy="0.457143"/>
<feGaussianBlur stdDeviation="0.457143"/>
<feComposite in2="hardAlpha" operator="arithmetic" k2="-1" k3="1"/>
<feColorMatrix type="matrix" values="0 0 0 0 0 0 0 0 0 0 0 0 0 0 0 0 0 0 0.24 0"/>
<feBlend mode="darken" in2="shape" result="effect1_innerShadow_10_12055"/>
</filter>
<filter id="filter7_i_10_12055" x="41.4883" y="84.8975" width="45.3359" height="7.48937" filterUnits="userSpaceOnUse" color-interpolation-filters="sRGB">
<feFlood flood-opacity="0" result="BackgroundImageFix"/>
<feBlend mode="normal" in="SourceGraphic" in2="BackgroundImageFix" result="shape"/>
<feColorMatrix in="SourceAlpha" type="matrix" values="0 0 0 0 0 0 0 0 0 0 0 0 0 0 0 0 0 0 127 0" result="hardAlpha"/>
<feOffset dy="0.457143"/>
<feGaussianBlur stdDeviation="0.457143"/>
<feComposite in2="hardAlpha" operator="arithmetic" k2="-1" k3="1"/>
<feColorMatrix type="matrix" values="0 0 0 0 0 0 0 0 0 0 0 0 0 0 0 0 0 0 0.24 0"/>
<feBlend mode="darken" in2="shape" result="effect1_innerShadow_10_12055"/>
</filter>
<linearGradient id="paint0_linear_10_12055" x1="64" y1="14.5044" x2="64" y2="112.832" gradientUnits="userSpaceOnUse">
<stop stop-color="white"/>
<stop offset="1" stop-color="white" stop-opacity="0"/>
</linearGradient>
<radialGradient id="paint1_radial_10_12055" cx="0" cy="0" r="1" gradientUnits="userSpaceOnUse" gradientTransform="translate(64 42.7474) rotate(90) scale(64.8543 49.2063)">
<stop stop-color="white"/>
<stop offset="1" stop-color="white" stop-opacity="0"/>
</radialGradient>
<linearGradient id="paint2_linear_10_12055" x1="106.112" y1="18.5708" x2="106.112" y2="112.269" gradientUnits="userSpaceOnUse">
<stop stop-color="#49F0BC"/>
<stop offset="1" stop-color="#29DCCC"/>
</linearGradient>
<linearGradient id="paint3_linear_10_12055" x1="63.5427" y1="14.5044" x2="63.5427" y2="112.832" gradientUnits="userSpaceOnUse">
<stop stop-color="white"/>
<stop offset="1" stop-color="white" stop-opacity="0"/>
</linearGradient>
<radialGradient id="paint4_radial_10_12055" cx="0" cy="0" r="1" gradientUnits="userSpaceOnUse" gradientTransform="translate(63.5427 42.7474) rotate(90) scale(64.8543 49.2063)">
<stop stop-color="white"/>
<stop offset="1" stop-color="white" stop-opacity="0"/>
</radialGradient>
<linearGradient id="paint5_linear_10_12055" x1="-0.000244141" y1="0" x2="-0.000244141" y2="128" gradientUnits="userSpaceOnUse">
<stop stop-color="white"/>
<stop offset="1" stop-color="white" stop-opacity="0.01"/>
</linearGradient>
<linearGradient id="paint6_linear_10_12055" x1="64.0547" y1="16.8203" x2="64.0547" y2="112.209" gradientUnits="userSpaceOnUse">
<stop stop-color="white"/>
<stop offset="1" stop-color="#999999"/>
</linearGradient>
<linearGradient id="paint7_linear_10_12055" x1="63.5891" y1="41.2793" x2="63.5891" y2="75.3386" gradientUnits="userSpaceOnUse">
<stop stop-color="#DFDFDF"/>
<stop offset="1" stop-color="#A9A9A9"/>
</linearGradient>
<linearGradient id="paint8_linear_10_12055" x1="63.934" y1="83.2002" x2="63.934" y2="104.229" gradientUnits="userSpaceOnUse">
<stop stop-opacity="0"/>
<stop offset="1" stop-opacity="0.16"/>
</linearGradient>
<linearGradient id="paint9_linear_10_12055" x1="63.9341" y1="72.686" x2="63.9341" y2="104.229" gradientUnits="userSpaceOnUse">
<stop stop-color="white"/>
<stop offset="1" stop-color="white" stop-opacity="0"/>
</linearGradient>
<radialGradient id="paint10_radial_10_12055" cx="0" cy="0" r="1" gradientUnits="userSpaceOnUse" gradientTransform="translate(63.9341 83.2002) rotate(90) scale(21.0283 88.3293)">
<stop stop-color="white"/>
<stop offset="1" stop-color="white" stop-opacity="0"/>
</radialGradient>
<linearGradient id="paint11_linear_10_12055" x1="63.9341" y1="77.7139" x2="63.9341" y2="98.7424" gradientUnits="userSpaceOnUse">
<stop stop-opacity="0"/>
<stop offset="1" stop-opacity="0.16"/>
</linearGradient>
<linearGradient id="paint12_linear_10_12055" x1="63.9341" y1="77.7139" x2="63.9341" y2="98.7424" gradientUnits="userSpaceOnUse">
<stop stop-color="white"/>
<stop offset="1" stop-color="white" stop-opacity="0"/>
</linearGradient>
<radialGradient id="paint13_radial_10_12055" cx="0" cy="0" r="1" gradientUnits="userSpaceOnUse" gradientTransform="translate(63.9341 81.3834) rotate(90) scale(17.359 40.2286)">
<stop stop-color="white"/>
<stop offset="1" stop-color="white" stop-opacity="0"/>
</radialGradient>
</defs>
</svg>
