<svg width="25" height="24" viewBox="0 0 25 24" fill="none" xmlns="http://www.w3.org/2000/svg"><path d="M6.5927 20.5748C7.47209 21.3115 8.51354 21.8293 9.6317 22.0858C9.7387 22.1208 9.81069 21.9808 9.73869 21.9108C7.34369 19.6258 8.6597 17.1528 9.6317 16.0378C10.3247 15.2418 11.3117 13.9308 11.2397 12.1728C11.2397 11.9968 11.4197 11.8558 11.5617 11.9618C12.9207 12.6648 13.8497 14.2118 14.0997 15.4768C14.4937 15.0908 14.6367 14.4928 14.6367 13.9658C14.6367 13.7898 14.8507 13.6488 15.0297 13.7898C16.3167 14.9498 18.5327 18.8868 14.9577 21.9798C14.8867 22.0508 14.9577 22.1918 15.0297 22.1568C16.1137 21.8726 17.1331 21.3831 18.0327 20.7148C23.8597 16.2148 20.0697 8.23478 17.6027 5.59878C17.2817 5.28178 16.7097 5.49278 16.7097 5.94978C16.6737 6.89978 16.3877 7.95378 15.6377 8.65678C15.0657 6.26678 13.1597 3.55178 10.4427 2.21578C10.0857 2.03978 9.65669 2.32078 9.6927 2.70778C9.76269 5.97778 7.6297 8.05978 5.7707 10.7668C4.1257 13.1918 3.0537 17.6568 6.5927 20.5748Z" fill="#FF6A00"/></svg>
