<svg width="108" height="40" viewBox="0 0 108 40" fill="none" xmlns="http://www.w3.org/2000/svg">
<g clip-path="url(#clip0_10_20952)">
<path d="M1.14179 18.0757C1.14179 18.0757 0.913439 18.1721 0.825611 17.8916C0.957352 17.6724 0.228383 15.7088 7.2019 14.3851C14.6848 13.3156 18.3911 14.8585 18.277 14.7708C15.0526 13.6178 11.6021 13.2364 8.20313 13.6575C2.33625 14.4114 1.10666 15.5685 0.298645 17.164C0.298645 17.164 0.0527281 14.9111 0.0439453 14.5341C0.0966419 14.35 1.4931 11.3257 9.26585 10.379C6.38619 10.3291 3.54928 11.0788 1.07153 12.5442C1.07153 12.5442 0.887091 11.8342 2.09033 10.9575C4.65837 9.4089 7.59206 8.56796 10.592 8.52055C12.848 8.43314 15.101 8.75693 17.2406 9.47605C19.2079 10.1686 20.3848 11.1416 20.297 11.9656C20.2859 12.2154 20.2325 12.4614 20.1389 12.6932C20.1389 12.6932 21.3246 13.0176 21.1402 14.6832C20.9557 16.3487 21.0787 18.0143 20.2619 17.9529C20.1477 18.0494 19.1904 16.2961 10.6008 16.1997C2.06398 16.489 1.25597 18.1809 1.14179 18.0757Z" fill="white"/>
<path d="M3.66252 27.6132C3.62376 27.5702 3.58271 27.5292 3.53956 27.4905C3.47939 27.4408 3.4147 27.3967 3.34634 27.359C3.29586 27.3292 3.23809 27.3141 3.17947 27.3152C3.15553 27.3144 3.13206 27.3218 3.1129 27.3362C3.09374 27.3505 3.08005 27.3709 3.07408 27.3941C3.01451 27.5598 2.96754 27.7298 2.93355 27.9025C2.93355 27.9814 2.93355 28.0515 2.88964 28.1304C2.77546 27.359 2.66129 26.5701 2.55589 25.7899C2.17823 23.0899 1.85327 20.3811 1.581 17.8039C1.581 17.5409 1.52831 17.2867 1.51074 17.0325L2.33632 16.8484C2.33632 17.0412 2.33632 17.2341 2.3978 17.4182C2.45928 17.6023 2.3978 17.7513 2.44171 17.9179L2.52076 18.6542C2.77546 20.9772 3.07407 23.3879 3.39904 25.7723L3.66252 27.6132Z" fill="white"/>
<path d="M4.07543 30.3397L4.01395 30.5238C3.98967 30.5988 3.95414 30.6697 3.90856 30.7341C3.88021 30.7804 3.84463 30.8218 3.80317 30.8569C3.78288 30.8676 3.76026 30.8732 3.73729 30.8732C3.71433 30.8732 3.69171 30.8676 3.67142 30.8569C3.62995 30.8317 3.59387 30.7986 3.56523 30.7595C3.5366 30.7204 3.51598 30.676 3.50455 30.629C3.46814 30.4855 3.44753 30.3385 3.44307 30.1906C3.43043 30.0009 3.43043 29.8106 3.44307 29.6208C3.44307 29.4105 3.48698 29.2088 3.52212 29.0072C3.55725 28.8056 3.60994 28.6215 3.66264 28.4374C3.71534 28.2533 3.70655 28.2796 3.7329 28.2183C3.85586 28.9371 3.97004 29.6384 4.07543 30.3397Z" fill="white"/>
<path d="M17.03 31.2951V31.3477C17.0258 31.3127 17.0258 31.2774 17.03 31.2425L17.1175 31.1724L17.03 31.2951Z" fill="white"/>
<path d="M17.8289 31.3127C17.6621 32.3471 17.4952 33.3552 17.3283 34.3458C16.9858 36.2831 16.6345 38.1153 16.2744 39.7896C12.4206 40.2631 8.51038 39.9408 4.78654 38.8429C4.42645 37.2124 4.07514 35.4328 3.74139 33.5832C3.60087 32.7591 3.45156 31.9088 3.31104 31.041C3.39806 31.1199 3.50977 31.1664 3.62722 31.1725C3.68447 31.1802 3.74274 31.1748 3.79756 31.1566C3.85237 31.1383 3.90227 31.1078 3.9434 31.0673C4.00787 31.0002 4.06123 30.9232 4.10148 30.8394C4.26836 31.8825 4.43523 32.8994 4.61089 33.8812L4.76897 34.7578C4.98854 35.9851 5.2169 37.1598 5.44525 38.2643C8.70914 39.3304 12.1807 39.6038 15.5718 39.062C15.7913 37.9925 16.0109 36.8617 16.2217 35.6783C16.292 35.3189 16.3534 34.9507 16.4149 34.5825C16.5496 33.8111 16.6813 33.0221 16.8101 32.2156L16.977 32.0316L17.3283 31.5845C17.5048 31.5127 17.6727 31.4215 17.8289 31.3127Z" fill="white"/>
<path d="M17.9607 30.6377L17.908 30.9796C17.8279 31.0421 17.7427 31.0978 17.6533 31.1461L17.8202 30.8831L17.9607 30.6377Z" fill="white"/>
<path d="M18.1101 29.6382V29.9012C18.0574 29.8593 17.993 29.8348 17.9257 29.831C17.8642 29.831 17.8115 29.8749 17.7764 29.9625L17.7149 30.0853C17.7149 30.1466 17.6446 30.2255 17.592 30.3132L17.4251 30.5849C17.3548 30.6726 17.2933 30.7602 17.2231 30.8391L17.1265 30.9443L17.2582 30.0677C17.3263 29.997 17.403 29.9352 17.4866 29.8836C17.6228 29.7812 17.778 29.7067 17.9433 29.6645C17.9975 29.6486 18.0536 29.6398 18.1101 29.6382Z" fill="white"/>
<path d="M19.6736 16.8397L19.5945 17.5848C19.3311 20.39 18.9885 23.3091 18.6021 26.202C18.4616 27.2452 18.3123 28.2796 18.163 29.2964C18.0724 29.2878 17.9812 29.2878 17.8907 29.2964C17.6881 29.3036 17.4886 29.3482 17.3022 29.4279C17.4691 28.3497 17.6184 27.2451 17.7677 26.1406C18.1103 23.5721 18.4264 20.9686 18.646 18.4352C18.6899 18.0407 18.7251 17.655 18.7602 17.2693C18.7602 17.0764 18.7602 16.8836 18.8217 16.6995L19.6736 16.8397Z" fill="white"/>
<path d="M1.96729 18.0231C2.28346 17.9442 2.60843 17.8828 2.95095 17.8302C3.29348 17.7776 3.63601 17.7162 3.9961 17.6724C4.73906 17.5826 5.48857 17.5591 6.23571 17.6023C5.49658 17.7058 4.76781 17.873 4.05758 18.102C3.71506 18.2071 3.39009 18.3211 3.07391 18.4438C2.75773 18.5666 2.44155 18.6805 2.19564 18.8032C2.09024 18.5403 2.02876 18.286 1.96729 18.0231Z" fill="white"/>
<path d="M19.085 18.5667C18.5404 18.3738 17.9344 18.181 17.3284 18.0056C16.7224 17.8303 16.0198 17.655 15.3259 17.5147C14.6321 17.3745 13.9119 17.2342 13.1742 17.1378C12.4256 17.0407 11.6718 16.988 10.917 16.98C11.6708 16.8737 12.4305 16.8151 13.1917 16.8047C13.9383 16.8047 14.676 16.8047 15.3962 16.8573C16.1164 16.9099 16.8014 16.9712 17.4602 17.0589C18.1189 17.1466 18.7424 17.243 19.3309 17.3657C19.2343 17.7602 19.164 18.1634 19.085 18.5667Z" fill="white"/>
<path d="M16.7313 35.5116L16.5293 35.5817L16.3448 35.6343L15.9935 35.722C15.7535 35.7746 15.5163 35.8184 15.2821 35.8535C14.8136 35.9233 14.3415 35.9672 13.8681 35.985C13.3938 35.985 12.9283 35.985 12.4541 35.985L11.7427 35.9324L11.0312 35.8535L11.7427 35.8096L12.4453 35.7307C12.9195 35.6694 13.385 35.5817 13.8417 35.4765C14.3057 35.3718 14.7632 35.24 15.2118 35.0821C15.4402 35.0032 15.6598 34.9243 15.8793 34.8278L16.1955 34.6876L16.3536 34.6087C16.3997 34.5863 16.4438 34.5599 16.4853 34.5298C16.5644 34.898 16.6522 35.1872 16.7313 35.5116Z" fill="white"/>
<path d="M4.43546 33.7234C4.68138 33.8812 4.94486 34.0302 5.20834 34.1705C5.47182 34.3107 5.72653 34.4597 5.99001 34.5912C6.5118 34.857 7.05184 35.0855 7.60604 35.275C7.0505 35.2325 6.49871 35.1505 5.95488 35.0295L5.1293 34.8279L4.3125 34.5825C4.35641 34.2932 4.35641 34.0214 4.43546 33.7234Z" fill="white"/>
<path d="M15.6775 5.81186C15.6775 6.46056 15.7302 7.12678 15.7477 7.81054C15.75 7.83961 15.7453 7.86878 15.734 7.89568C15.7228 7.92258 15.7053 7.94643 15.683 7.96527C15.6607 7.9841 15.6342 7.99737 15.6058 8.004C15.5774 8.01063 15.5477 8.01043 15.5194 8.0034C14.8168 7.93327 14.1054 7.88066 13.3764 7.85436C12.9021 8.27514 12.4279 8.73099 11.9448 9.15177L11.655 8.88878C12.138 8.43294 12.6123 8.01216 13.0866 7.58262C13.0866 6.93392 13.0866 6.294 13.0427 5.6716L12.3049 5.03166C11.2685 5.03166 10.2146 5.08426 9.17824 5.17192C9.15089 5.17835 9.12247 5.17875 9.09495 5.1731C9.06744 5.16744 9.04149 5.15587 9.01891 5.13918C8.99634 5.12249 8.97768 5.10108 8.96424 5.07646C8.9508 5.05183 8.94291 5.02458 8.9411 4.9966C8.9411 4.11998 8.9411 3.2872 8.98502 2.50701L8.57222 2.21773L7.28116 2.39305C7.14942 2.39305 7.05281 2.39305 7.06159 2.25279L7.11429 1.25345C7.11429 1.16578 7.21968 1.07812 7.35142 1.06059C7.78178 0.999226 8.2297 0.937874 8.65127 0.894043C8.77423 0.894043 8.87962 0.894038 8.87084 1.02553V1.98104L9.29241 2.26156C10.2849 2.16513 11.2773 2.11254 12.2698 2.095C12.301 2.09004 12.3328 2.09135 12.3635 2.09884C12.3942 2.10634 12.423 2.11987 12.4484 2.13865C12.4738 2.15743 12.4951 2.18108 12.5112 2.2082C12.5273 2.23533 12.5378 2.26539 12.542 2.29662C12.542 3.08558 12.5859 3.91837 12.6123 4.79498L13.3413 5.43491C14.0615 5.43491 14.7729 5.50504 15.4667 5.57517C15.5222 5.58769 15.5724 5.61724 15.6102 5.65969C15.648 5.70215 15.6715 5.75537 15.6775 5.81186Z" fill="white"/>
<path d="M8.38739 5.62786C7.86921 5.68922 7.35103 5.75936 6.84163 5.83825C6.78115 5.84882 6.72559 5.87828 6.68298 5.92239C6.64036 5.9665 6.61288 6.023 6.60449 6.08371C6.60449 6.53078 6.60449 6.96032 6.60449 7.43369C6.60505 7.46243 6.61203 7.49068 6.62493 7.51638C6.63783 7.54208 6.65632 7.56457 6.67905 7.58222C6.70178 7.59986 6.72818 7.61221 6.75631 7.61836C6.78443 7.62451 6.81359 7.62432 6.84163 7.61778C7.35103 7.53889 7.86921 7.46875 8.39618 7.41615C8.45808 7.41064 8.51622 7.38415 8.56096 7.3411C8.60569 7.29804 8.63432 7.24102 8.64209 7.17948C8.64209 6.71487 8.64209 6.30286 8.64209 5.81196C8.62453 5.698 8.51914 5.6191 8.38739 5.62786Z" fill="white"/>
<path d="M9.76644 0.709964H10.311C10.4339 0.709964 10.5393 0.622305 10.5393 0.534644V0.14893C10.5393 0.070035 10.4339 0.00867053 10.311 0.0174367H9.77523C9.65227 0.0174367 9.54688 0.105102 9.54688 0.192764C9.54688 0.280426 9.54688 0.446976 9.54688 0.569703C9.54688 0.692429 9.62592 0.753795 9.76644 0.709964Z" fill="white"/>
<path d="M15.3697 3.27852H14.8954C14.8684 3.27329 14.8406 3.27415 14.814 3.28103C14.7874 3.28791 14.7626 3.30064 14.7416 3.31829C14.7205 3.33593 14.7037 3.35804 14.6923 3.38301C14.681 3.40799 14.6753 3.43518 14.6758 3.46261C14.6758 3.59411 14.6758 3.73437 14.6758 3.86586C14.6838 3.92413 14.7119 3.97781 14.7551 4.01778C14.7983 4.05774 14.8541 4.08151 14.9129 4.08502L15.3872 4.12884C15.519 4.12884 15.6156 4.05872 15.6068 3.94476C15.598 3.8308 15.6068 3.673 15.6068 3.53274C15.605 3.46884 15.5799 3.40778 15.5362 3.361C15.4926 3.31421 15.4334 3.28489 15.3697 3.27852Z" fill="white"/>
<path d="M16.8979 4.45305C16.6227 4.4063 16.3504 4.37122 16.0811 4.34785C16.0551 4.34066 16.0277 4.33986 16.0014 4.34553C15.975 4.3512 15.9504 4.36317 15.9297 4.3804C15.909 4.39764 15.8927 4.41964 15.8824 4.4445C15.872 4.46937 15.8679 4.49637 15.8703 4.52318C15.8703 4.76863 15.8703 5.02284 15.8703 5.2683C15.8725 5.33038 15.8982 5.38933 15.9422 5.43325C15.9862 5.47717 16.0452 5.50281 16.1074 5.50499L16.9154 5.61895C16.9414 5.62614 16.9688 5.62693 16.9952 5.62127C17.0215 5.6156 17.0461 5.60363 17.0668 5.58639C17.0876 5.56916 17.1038 5.54716 17.1141 5.5223C17.1245 5.49743 17.1286 5.47043 17.1262 5.44362C17.1262 5.1894 17.1262 4.93518 17.1262 4.68973C17.1207 4.63026 17.0951 4.57442 17.0536 4.53141C17.0121 4.48839 16.9572 4.46076 16.8979 4.45305Z" fill="white"/>
<path d="M6.29723 5.45242C6.29723 5.13684 6.29723 4.82125 6.34115 4.51443C6.34115 4.40924 6.24453 4.33911 6.11279 4.36541L5.03251 4.58456C4.97405 4.59947 4.92091 4.63032 4.87902 4.67367C4.83714 4.71703 4.80818 4.77116 4.79538 4.83001C4.79538 5.13683 4.79538 5.45242 4.75146 5.768C4.75146 5.88196 4.84808 5.94332 4.97103 5.91702L6.0601 5.69787C6.12115 5.68864 6.17746 5.6596 6.22032 5.61523C6.26318 5.57087 6.29021 5.51365 6.29723 5.45242Z" fill="white"/>
<path d="M19.7876 26.8155C19.4714 29.0509 19.1113 31.3038 18.7161 33.469C18.6935 33.5899 18.6417 33.7033 18.5652 33.7996C18.4886 33.8958 18.3897 33.972 18.2769 34.0213C18.0574 34.1002 17.75 34.2142 17.3548 34.3281L16.4765 34.5561C14.5601 35.0354 12.582 35.2216 10.6096 35.1083C8.61558 34.9627 6.65071 34.5469 4.76905 33.8723L4.53192 33.7846C4.29479 33.7057 4.07522 33.6181 3.87321 33.5392C3.44286 33.3726 3.10033 33.2236 2.86319 33.1096C2.75162 33.054 2.65415 32.9737 2.57809 32.8751C2.50203 32.7764 2.44937 32.6618 2.42405 32.5398C2.03761 30.4886 1.69509 28.3671 1.37891 26.272C1.37891 26.0266 1.45795 25.8337 1.65996 25.825H2.66119H3.53947C5.06767 25.825 7.4478 25.825 10.6974 25.8776C13.947 25.9302 16.3886 26.0704 17.8993 26.1844L18.7776 26.2545C19.1991 26.2545 19.4977 26.3334 19.6558 26.3685C19.8139 26.4035 19.8315 26.5525 19.7876 26.8155Z" fill="white"/>
<path d="M29.3487 24.8772L29.0764 24.7457C27.6185 24.0795 26.8807 23.3606 26.8807 22.6067C26.8695 22.3948 26.9063 22.183 26.9884 21.9872C27.0706 21.7915 27.1959 21.6167 27.355 21.4759C27.7246 21.1728 28.1948 21.0195 28.6724 21.0464C29.036 21.0426 29.394 21.1365 29.7088 21.3181C30.0674 21.5363 30.3685 21.8368 30.5871 22.1947L30.6486 22.2824L32.449 21.3707V21.2743C32.1965 20.5565 31.6907 19.955 31.0262 19.5824C30.2478 19.1733 29.376 18.9739 28.4968 19.0039C27.4086 18.9577 26.3437 19.3277 25.5194 20.0383C25.1418 20.3824 24.844 20.8046 24.6468 21.2755C24.4496 21.7464 24.3577 22.2545 24.3777 22.7645C24.3569 23.562 24.6251 24.3401 25.133 24.9561C25.9949 25.7978 27.0079 26.4699 28.1191 26.9372C28.2157 26.9372 28.3475 27.0424 28.5319 27.1301C29.7878 27.7262 30.4202 28.3924 30.4202 29.1288C30.4327 29.3789 30.3913 29.6288 30.2989 29.8617C30.2065 30.0946 30.0652 30.305 29.8845 30.4788C29.4851 30.8343 28.9608 31.0171 28.4265 30.9872C27.8541 31.0116 27.2886 30.8551 26.8105 30.5401C26.3761 30.2221 26.0657 29.7636 25.9322 29.2427V29.1112L24 29.9879V30.0755C24.1876 31.0003 24.7137 31.8223 25.4755 32.381C26.3196 32.9471 27.3226 33.2297 28.3387 33.1875C29.547 33.2467 30.7311 32.8349 31.641 32.0391C32.0537 31.6414 32.3768 31.1605 32.5888 30.6285C32.8008 30.0964 32.8969 29.5254 32.8706 28.9534C32.8945 28.138 32.6232 27.3413 32.1065 26.7093C31.3226 25.9166 30.3839 25.293 29.3487 24.8772Z" fill="white"/>
<path d="M38.0207 19.6538H35.623V33.1975H38.0207V19.6538Z" fill="white"/>
<path d="M41.2296 20V22.0688H46.8066L40 33.5525H50.5305V31.3872H43.7942L50.5305 20H41.2296Z" fill="white"/>
<path d="M52.793 33.2063H60.4603V31.0411H55.1819V27.4382H59.7928V25.308H55.1819V21.7226H60.4603V19.6538H52.793V33.2063Z" fill="white"/>
<path d="M71.1051 27.5607C71.1051 27.6396 71.0085 27.7623 70.9383 27.9201C70.7275 28.376 70.5606 28.7705 70.4376 29.1036C70.3059 28.7705 70.1917 28.4812 70.0863 28.227C69.9809 27.9727 69.8756 27.6922 69.8141 27.552L65.7301 18.8472L62.4717 33.1886H64.7025L66.1517 26.5439C66.2299 26.2234 66.2886 25.8984 66.3273 25.5708C66.3273 25.4744 66.3273 25.378 66.3273 25.2815C66.3273 25.3692 66.3976 25.4569 66.4239 25.5445C66.5381 25.825 66.6611 26.1231 66.8104 26.4211L70.4025 33.8724L73.9947 26.5702C74.1429 26.2628 74.272 25.9466 74.3811 25.6234C74.3811 25.5182 74.4514 25.413 74.4777 25.3078C74.4777 25.413 74.4777 25.5358 74.4777 25.6585C74.5304 26.1319 74.5743 26.4211 74.6007 26.5351L76.0938 33.1974H78.3421L75.0047 18.8559L71.1051 27.5607Z" fill="white"/>
<path d="M88.864 27.8851C88.9353 28.8319 88.6468 29.7708 88.056 30.5149C87.3797 31.0752 86.5284 31.3819 85.6495 31.3819C84.7705 31.3819 83.9193 31.0752 83.243 30.5149C82.6522 29.7708 82.3637 28.8319 82.435 27.8851V19.6799H80.0724V28.0867C80.0163 28.8325 80.1102 29.5819 80.3485 30.291C80.5868 31.0001 80.9647 31.6544 81.4601 32.2155C82.6775 33.1072 84.1482 33.5879 85.6583 33.5879C87.1683 33.5879 88.639 33.1072 89.8564 32.2155C90.3552 31.6581 90.736 31.0057 90.9759 30.2977C91.2159 29.5898 91.3101 28.8407 91.2529 28.0955V19.6887H88.864V27.8851Z" fill="white"/>
<path d="M107.053 26.6404C107.053 26.4827 107.053 26.3512 107.053 26.2635V26.132H101.537V28.1833H104.743V28.2709C104.76 28.7022 104.677 29.1316 104.501 29.5255C104.324 29.9194 104.058 30.2671 103.724 30.5414C102.893 31.1373 101.883 31.4311 100.861 31.3742C100.212 31.4034 99.5646 31.2969 98.9596 31.0614C98.3545 30.8258 97.8056 30.4666 97.348 30.0066C96.8973 29.5276 96.5464 28.964 96.3157 28.3485C96.085 27.733 95.9792 27.078 96.0042 26.4213C95.9834 25.777 96.0915 25.135 96.3222 24.5329C96.5529 23.9309 96.9017 23.3808 97.348 22.9148C97.8019 22.466 98.3431 22.1147 98.9382 21.8825C99.5334 21.6503 100.17 21.5422 100.808 21.5648C101.445 21.5546 102.077 21.6802 102.662 21.933C103.234 22.2003 103.74 22.5892 104.146 23.0726L104.216 23.1515L105.973 21.8191L105.894 21.7314C105.279 20.9888 104.509 20.3903 103.636 19.9782C102.732 19.5808 101.752 19.3835 100.764 19.3996C99.7927 19.393 98.828 19.5654 97.9189 19.908C97.0502 20.2395 96.2581 20.7438 95.5907 21.3903C94.9234 22.0367 94.3947 22.8119 94.0369 23.6687C93.6829 24.5706 93.504 25.5315 93.5099 26.5002C93.5044 27.4651 93.6802 28.4226 94.0281 29.3229C94.3569 30.184 94.8591 30.9686 95.5036 31.6284C96.1515 32.2817 96.9336 32.7871 97.7959 33.1099C98.7482 33.4487 99.7535 33.615 100.764 33.6008C102.457 33.7026 104.121 33.1322 105.393 32.0141C105.961 31.4259 106.402 30.7265 106.686 29.9601C106.97 29.1936 107.092 28.3767 107.044 27.5609C107.114 27.368 107.114 27.0787 107.053 26.6404Z" fill="white"/>
</g>
<defs>
<clipPath id="clip0_10_20952">
<rect width="107.071" height="40" fill="white"/>
</clipPath>
</defs>
</svg>
