<svg width="75" height="75" viewBox="0 0 76 105" fill="none" xmlns="http://www.w3.org/2000/svg">
<g filter="url(#filter0_d_10_10903)">
<rect x="33.6326" y="52.9307" width="4.5021" height="15.8758" fill="url(#paint0_linear_10_10903)"/>
<path d="M16.5519 19.417H2.66675C2.66675 30.1846 3.4925 36.3783 18.8339 36.3783" stroke="#F9FAFB" stroke-width="3.09658"/>
<path d="M56.187 33.5197C56.187 44.7818 47.0573 53.9115 35.7953 53.9115C24.5332 53.9115 15.4036 44.7818 15.4036 33.5197C15.4036 22.2577 24.5332 13.128 35.7953 13.128C47.0573 13.128 56.187 22.2577 56.187 33.5197Z" fill="#F9FAFB"/>
<path d="M35.7953 68.0141C27.4803 68.0141 20.7397 70.4459 20.7397 73.4456H50.8508C50.8508 70.4459 44.1102 68.0141 35.7953 68.0141Z" fill="#F9FAFB"/>
<path d="M15.4036 9.20898H56.187V32.5669H15.4036V9.20898Z" fill="#F9FAFB"/>
<path d="M50.8508 74.4937H20.7397V73.3503H50.8508V74.4937Z" fill="#F9FAFB"/>
<path d="M55.6102 19.417H69.4954C69.4954 30.1846 68.6696 36.3783 53.3282 36.3783" stroke="#B3B3B3" stroke-width="3.09658"/>
<path d="M56.187 33.5202C56.187 44.7822 47.0573 53.9119 35.7953 53.9119C35.7953 53.9119 35.7953 44.7822 35.7953 33.5202C35.7953 22.2581 35.7953 13.1285 35.7953 13.1285C47.0573 13.1285 56.187 22.2581 56.187 33.5202Z" fill="url(#paint1_linear_10_10903)"/>
<path d="M35.7953 68.0145C35.7953 68.0145 35.7953 70.4463 35.7953 73.446H50.8509C50.8509 70.4463 44.1103 68.0145 35.7953 68.0145Z" fill="url(#paint2_linear_10_10903)"/>
<path d="M35.7953 9.21094H56.187V32.5673H35.7953V9.21094Z" fill="url(#paint3_linear_10_10903)"/>
<path d="M50.8509 74.4941H35.7953C35.7953 74.4941 35.7615 73.796 35.7953 73.3507C36.2406 67.488 50.8509 73.3507 50.8509 73.3507V74.4941Z" fill="url(#paint4_linear_10_10903)"/>
<circle cx="36.1711" cy="31.0991" r="14.549" fill="#A7ABB1" stroke="#EEEEEE" stroke-width="1.567"/>
<path d="M36.1712 21.0674L39.263 27.2509L45.4464 28.0238L41.2005 32.7851L42.3547 39.6178L36.1712 36.5261L29.9877 39.6178L31.1523 32.7851L26.896 28.0238L33.0795 27.2509L36.1712 21.0674Z" fill="#F9FAFB"/>
<path d="M36.479 20.9131L39.4878 26.9316L45.4888 27.6826L46.1392 27.7637L45.7036 28.2529L41.5669 32.8906L42.6938 39.5605L42.8071 40.2285L42.2007 39.9258L36.1704 36.9102L30.1421 39.9258L29.5347 40.2295L29.6489 39.5596L30.7847 32.8906L26.6392 28.2529L26.2017 27.7637L26.853 27.6826L32.854 26.9316L35.8638 20.9131L36.1714 20.2979L36.479 20.9131Z" stroke="#F9FAFB" stroke-opacity="0.7" stroke-width="0.688129"/>
<path d="M10.9401 14.1968L13.0903 9.46452L10.9401 4.73226L15.6724 6.88248L20.4046 4.73226L18.2544 9.46452L20.4046 14.1968L15.6724 12.0466L10.9401 14.1968Z" fill="white"/>
<path d="M14.5686 78.8014C14.5686 75.9167 16.9072 73.5781 19.7919 73.5781H52.0582C54.9429 73.5781 57.2815 75.9167 57.2815 78.8014V95.4576H14.5686V78.8014Z" fill="#243B6D"/>
<rect x="20.6739" y="79.6739" width="30.4529" height="10.3881" fill="#D4D7DD" stroke="white" stroke-width="1.34787"/>
<path d="M22.7314 78.9893H37.1175L48.4749 90.7253H34.0889L22.7314 78.9893Z" fill="#F9FAFB"/>
<rect x="12.3261" y="95.5876" width="47.1976" height="4.2818" fill="url(#paint5_linear_10_10903)" stroke="#B3B3B3" stroke-width="0.261166"/>
</g>
<defs>
<filter id="filter0_d_10_10903" x="0.848835" y="4.46285" width="74.2385" height="99.5808" filterUnits="userSpaceOnUse" color-interpolation-filters="sRGB">
<feFlood flood-opacity="0" result="BackgroundImageFix"/>
<feColorMatrix in="SourceAlpha" type="matrix" values="0 0 0 0 0 0 0 0 0 0 0 0 0 0 0 0 0 0 127 0" result="hardAlpha"/>
<feOffset dx="1.88702" dy="1.88702"/>
<feGaussianBlur stdDeviation="1.07829"/>
<feComposite in2="hardAlpha" operator="out"/>
<feColorMatrix type="matrix" values="0 0 0 0 0 0 0 0 0 0 0 0 0 0 0 0 0 0 0.3 0"/>
<feBlend mode="normal" in2="BackgroundImageFix" result="effect1_dropShadow_10_10903"/>
<feBlend mode="normal" in="SourceGraphic" in2="effect1_dropShadow_10_10903" result="shape"/>
</filter>
<linearGradient id="paint0_linear_10_10903" x1="35.8836" y1="52.9307" x2="35.8836" y2="68.8065" gradientUnits="userSpaceOnUse">
<stop stop-color="#CED5E1"/>
<stop offset="1" stop-color="#868B95"/>
</linearGradient>
<linearGradient id="paint1_linear_10_10903" x1="45.9836" y1="9.21094" x2="45.9836" y2="74.4941" gradientUnits="userSpaceOnUse">
<stop stop-color="#CED5E1"/>
<stop offset="1" stop-color="#868B95"/>
</linearGradient>
<linearGradient id="paint2_linear_10_10903" x1="45.9836" y1="9.21094" x2="45.9836" y2="74.4941" gradientUnits="userSpaceOnUse">
<stop stop-color="#CED5E1"/>
<stop offset="1" stop-color="#868B95"/>
</linearGradient>
<linearGradient id="paint3_linear_10_10903" x1="45.9836" y1="9.21094" x2="45.9836" y2="74.4941" gradientUnits="userSpaceOnUse">
<stop stop-color="#CED5E1"/>
<stop offset="1" stop-color="#868B95"/>
</linearGradient>
<linearGradient id="paint4_linear_10_10903" x1="45.9836" y1="9.21094" x2="45.9836" y2="74.4941" gradientUnits="userSpaceOnUse">
<stop stop-color="#CED5E1"/>
<stop offset="1" stop-color="#868B95"/>
</linearGradient>
<linearGradient id="paint5_linear_10_10903" x1="35.9249" y1="95.457" x2="35.9249" y2="100" gradientUnits="userSpaceOnUse">
<stop stop-color="#CED5E1"/>
<stop offset="1" stop-color="#868B95"/>
</linearGradient>
</defs>
</svg>
