<svg width="24" height="24" viewBox="0 0 24 24" fill="none" xmlns="http://www.w3.org/2000/svg"><path d="M21.8911 22.5813L20.812 7.76099C20.7566 7.00112 20.0918 6.38296 19.33 6.38296H17.831V5.83083C17.831 2.61569 15.2153 0 12.0001 0C8.78501 0 6.16937 2.6157 6.16937 5.83077V6.3829H4.67038C3.90849 6.3829 3.24364 7.00106 3.18837 7.76093L2.10922 22.5813C2.08187 22.9572 2.20479 23.3127 2.4553 23.5821C2.70586 23.8516 3.05149 24 3.42839 24H20.5718C20.9487 24 21.2943 23.8516 21.5449 23.5821C21.7955 23.3127 21.9184 22.9572 21.8911 22.5813ZM7.85098 5.83077C7.85098 3.54294 9.7123 1.68161 12.0001 1.68161C14.288 1.68161 16.1493 3.54294 16.1493 5.83077V6.3829H7.85098V5.83077ZM5.81073 9.28526C5.81073 8.62281 6.34773 8.08582 7.01017 8.08582C7.67262 8.08582 8.20961 8.62281 8.20961 9.28526C8.20961 9.9477 7.67262 10.4847 7.01017 10.4847C6.34773 10.4847 5.81073 9.9477 5.81073 9.28526ZM17.3185 13.8941V13.8946C17.3079 14.4009 17.1332 14.8819 17.1149 15.3881C17.092 16.0215 17.511 16.9766 17.0036 17.5082C16.5746 17.9575 15.8667 17.9458 15.1295 17.7207C15.7389 18.4322 16.1024 19.1287 15.8342 19.3927C15.4043 19.8158 14.2032 18.96 14.2362 20.3403C14.2415 20.5571 14.3724 22.352 13.5289 20.8424C12.9922 19.8819 12.3644 18.8574 11.9695 17.9763C11.5746 18.8574 10.9468 19.8819 10.4101 20.8424C9.56656 22.352 9.69751 20.5571 9.70272 20.3403C9.73573 18.96 8.55776 19.8469 8.10479 19.3927C7.83938 19.1265 8.20221 18.4309 8.81001 17.7205C8.07262 17.9458 7.36443 17.9576 6.93545 17.5082C6.428 16.9765 6.84706 16.0215 6.82413 15.3881C6.80586 14.8818 6.63114 14.4008 6.62049 13.8946V13.8941C6.62021 13.8777 6.62038 13.8827 6.62049 13.8938C6.57099 11.4542 9.48534 12.4747 10.9601 13.4438C11.1587 13.3406 11.3842 13.2819 11.6235 13.2819H12.3155C12.5548 13.2819 12.7803 13.3405 12.979 13.4438C14.4537 12.4747 17.368 11.4542 17.3185 13.8938C17.3186 13.8827 17.3188 13.8777 17.3185 13.8941ZM16.9901 10.4847C16.3277 10.4847 15.7907 9.9477 15.7907 9.28526C15.7907 8.62281 16.3277 8.08582 16.9901 8.08582C17.6526 8.08582 18.1895 8.62281 18.1895 9.28526C18.1895 9.9477 17.6526 10.4847 16.9901 10.4847Z" fill="#FF2D6C"/></svg>