<svg width="33" height="42" viewBox="0 0 33 42" fill="none" xmlns="http://www.w3.org/2000/svg">
<g filter="url(#filter0_dddd_10_10838)">
<path d="M6.28295 11.24C6.25455 10.4608 6.24035 10.0711 6.38934 9.65617C6.51712 9.30025 6.75214 8.9558 7.03696 8.70702C7.36903 8.41697 7.85126 8.2481 8.81572 7.91037C10.8679 7.19174 12.8476 6.22798 14.7142 5.10817C15.5627 4.59918 15.9869 4.34469 16.352 4.26452C16.7145 4.18493 16.9699 4.18493 17.3324 4.26452C17.6975 4.34469 18.1217 4.59918 18.9701 5.10817C20.8367 6.22798 22.8165 7.19174 24.8687 7.91037C25.8331 8.2481 26.3153 8.41697 26.6474 8.70702C26.9322 8.9558 27.1673 9.30025 27.295 9.65617C27.444 10.0711 27.4298 10.4608 27.4014 11.24C27.3206 13.4576 26.9203 16.7532 25.4574 19.7279C23.5282 23.6506 20.3061 26.2236 18.3968 27.4911C17.9776 27.7694 17.768 27.9085 17.3731 28.0028C17.0993 28.0682 16.5851 28.0682 16.3113 28.0028C15.9163 27.9085 15.7067 27.7694 15.2876 27.4911C13.3782 26.2236 10.1562 23.6506 8.22697 19.7279C6.76404 16.7532 6.36377 13.4576 6.28295 11.24Z" fill="black"/>
</g>
<mask id="mask0_10_10838" style="mask-type:alpha" maskUnits="userSpaceOnUse" x="6" y="4" width="22" height="25">
<path d="M6.28295 11.24C6.25455 10.4608 6.24035 10.0711 6.38934 9.65617C6.51712 9.30025 6.75214 8.9558 7.03696 8.70702C7.36903 8.41697 7.85126 8.2481 8.81572 7.91037C10.8679 7.19174 12.8476 6.22798 14.7142 5.10817C15.5627 4.59918 15.9869 4.34469 16.352 4.26452C16.7145 4.18493 16.9699 4.18493 17.3324 4.26452C17.6975 4.34469 18.1217 4.59918 18.9701 5.10817C20.8367 6.22798 22.8165 7.19174 24.8687 7.91037C25.8331 8.2481 26.3153 8.41697 26.6474 8.70702C26.9322 8.9558 27.1673 9.30025 27.295 9.65617C27.444 10.0711 27.4298 10.4608 27.4014 11.24C27.3206 13.4576 26.9203 16.7532 25.4574 19.7279C23.5282 23.6506 20.3061 26.2236 18.3968 27.4911C17.9776 27.7694 17.768 27.9085 17.3731 28.0028C17.0993 28.0682 16.5851 28.0682 16.3113 28.0028C15.9163 27.9085 15.7067 27.7694 15.2876 27.4911C13.3782 26.2236 10.1562 23.6506 8.22697 19.7279C6.76404 16.7532 6.36377 13.4576 6.28295 11.24Z" fill="black"/>
</mask>
<g mask="url(#mask0_10_10838)">
<mask id="mask1_10_10838" style="mask-type:alpha" maskUnits="userSpaceOnUse" x="6" y="4" width="22" height="25">
<path d="M6.28295 11.24C6.25455 10.4608 6.24035 10.0711 6.38934 9.65617C6.51712 9.30025 6.75214 8.9558 7.03696 8.70702C7.36903 8.41697 7.85126 8.2481 8.81572 7.91037C10.8679 7.19174 12.8476 6.22798 14.7142 5.10817C15.5627 4.59918 15.9869 4.34469 16.352 4.26452C16.7145 4.18493 16.9699 4.18493 17.3324 4.26452C17.6975 4.34469 18.1217 4.59918 18.9701 5.10817C20.8367 6.22798 22.8165 7.19174 24.8687 7.91037C25.8331 8.2481 26.3153 8.41697 26.6474 8.70702C26.9322 8.9558 27.1673 9.30025 27.295 9.65617C27.444 10.0711 27.4298 10.4608 27.4014 11.24C27.3206 13.4576 26.9203 16.7532 25.4574 19.7279C23.5282 23.6506 20.3061 26.2236 18.3968 27.4911C17.9776 27.7694 17.768 27.9085 17.3731 28.0028C17.0993 28.0682 16.5851 28.0682 16.3113 28.0028C15.9163 27.9085 15.7067 27.7694 15.2876 27.4911C13.3782 26.2236 10.1562 23.6506 8.22697 19.7279C6.76404 16.7532 6.36377 13.4576 6.28295 11.24Z" fill="black"/>
</mask>
<g mask="url(#mask1_10_10838)">
<rect x="0.828613" width="32" height="32" fill="url(#paint0_linear_10_10838)"/>
<rect x="0.828613" width="32" height="32" fill="url(#paint1_linear_10_10838)" fill-opacity="0.6" style="mix-blend-mode:overlay"/>
<rect x="0.828613" width="32" height="32" fill="url(#paint2_radial_10_10838)" fill-opacity="0.6" style="mix-blend-mode:overlay"/>
<rect x="0.828613" width="32" height="32" fill="black" fill-opacity="0.16" style="mix-blend-mode:overlay"/>
<rect x="0.828613" width="32" height="32" fill="black" fill-opacity="0.12" style="mix-blend-mode:darken"/>
</g>
<g filter="url(#filter1_d_10_10838)">
<mask id="mask2_10_10838" style="mask-type:alpha" maskUnits="userSpaceOnUse" x="6" y="4" width="22" height="25">
<path fill-rule="evenodd" clip-rule="evenodd" d="M16.3521 4.26472C16.5281 4.2261 16.6787 4.20622 16.8287 4.20508V4.20529C16.9877 4.20412 17.1458 4.224 17.3322 4.2649C17.6969 4.34499 18.1208 4.59929 18.9676 5.10728L18.9699 5.10865C20.8365 6.22846 22.8172 7.19178 24.8693 7.91041C25.8335 8.24806 26.3156 8.41727 26.6476 8.70728C26.9324 8.95605 27.1673 9.30059 27.2951 9.6565C27.4441 10.0715 27.4299 10.4613 27.4015 11.2405L27.3547 12.1194C27.2039 14.2765 26.7373 17.1249 25.4572 19.7278C23.528 23.6505 20.306 26.224 18.3966 27.4915L18.1154 27.6751C17.8611 27.836 17.6694 27.9324 17.3732 28.0032L17.2599 28.0247C17.015 28.0614 16.6687 28.0615 16.424 28.0247L16.417 28.0233C16.3801 28.0176 16.3456 28.0111 16.3141 28.0036L16.3117 28.0032C16.1656 27.9683 16.0449 27.9272 15.9295 27.8753C15.8888 27.857 15.8489 27.8373 15.8087 27.8161C15.6651 27.7404 15.5189 27.6447 15.3302 27.5195L15.2873 27.4915C13.3779 26.2239 10.1558 23.6503 8.22672 19.7278C7.70549 18.6679 7.31928 17.5672 7.03437 16.489C6.51949 14.5415 6.33513 12.6675 6.28311 11.2402C6.25471 10.461 6.24051 10.0713 6.38949 9.65637C6.51727 9.30045 6.7523 8.956 7.03712 8.70722C7.17592 8.58599 7.34095 8.48592 7.55647 8.38585C7.85649 8.24641 8.25435 8.10694 8.81559 7.91041C10.6112 7.28163 12.3515 6.46521 14.0089 5.52076L14.7099 5.11105L14.7144 5.10837C15.2447 4.79025 15.6092 4.57155 15.8972 4.43268C15.9188 4.42227 15.94 4.4123 15.9607 4.40278C16.0509 4.36143 16.1337 4.32839 16.2121 4.30299L16.2125 4.30288C16.2604 4.28736 16.3067 4.27469 16.3521 4.26472ZM16.8287 5.11916V27.1379L16.842 27.1379C17.0053 27.1379 17.1231 27.1227 17.1613 27.1135C17.38 27.0613 17.4683 27.0109 17.8918 26.7297C19.7389 25.5035 22.8097 23.0398 24.6369 19.3245C26.0185 16.5151 26.4087 13.3664 26.4875 11.2073C26.5178 10.3743 26.5119 10.18 26.4347 9.9651C26.3595 9.75579 26.2135 9.54205 26.0461 9.39576C25.9821 9.33995 25.876 9.26975 25.6359 9.16724C25.388 9.06139 25.06 8.94648 24.5666 8.77369C22.4478 8.03174 20.4119 7.03972 18.5002 5.89283L18.4767 5.87873C18.057 5.62694 17.7683 5.45375 17.5402 5.33228C17.3087 5.20903 17.198 5.17095 17.1369 5.15748C17.0142 5.13054 16.9222 5.11777 16.8287 5.11916ZM10.5534 19.3907L10.9093 19.0502L11.3915 19.1504L11.3915 19.1504L11.3915 19.1504C11.6186 19.1975 11.7321 19.2211 11.8011 19.1866C11.8612 19.1567 11.9046 19.1012 11.9191 19.0356C11.9359 18.9603 11.8855 18.8558 11.7848 18.6469L11.571 18.2033L11.8153 17.7756C11.9303 17.5742 11.9878 17.4735 11.9764 17.3972C11.9664 17.3308 11.927 17.2724 11.8692 17.2383C11.8027 17.1991 11.6878 17.2147 11.458 17.2459L10.97 17.3122L10.6388 16.9478C10.4828 16.7762 10.4048 16.6903 10.3286 16.6776C10.2624 16.6665 10.1947 16.6859 10.1444 16.7304C10.0866 16.7816 10.0659 16.8957 10.0246 17.1239L9.93682 17.6085L9.48786 17.8109L9.48785 17.8109C9.27644 17.9062 9.17073 17.9538 9.1351 18.0223C9.1041 18.0819 9.10164 18.1523 9.12841 18.2138C9.15918 18.2846 9.26131 18.3396 9.46556 18.4494L9.89931 18.6826L9.95307 19.1721C9.97839 19.4027 9.99105 19.5179 10.0452 19.573C10.0922 19.6209 10.1584 19.645 10.2253 19.6385C10.3021 19.6311 10.3859 19.551 10.5534 19.3907ZM22.2659 19.15L22.7481 19.0498L23.104 19.3903C23.2715 19.5506 23.3553 19.6308 23.4322 19.6381C23.499 19.6446 23.5652 19.6205 23.6123 19.5726C23.6664 19.5175 23.679 19.4023 23.7043 19.1718L23.7581 18.6822L24.1919 18.449C24.3961 18.3392 24.4982 18.2842 24.529 18.2135C24.5558 18.1519 24.5533 18.0815 24.5223 18.0219C24.4867 17.9535 24.381 17.9058 24.1696 17.8105L23.7206 17.6081L23.6328 17.1235C23.5915 16.8953 23.5708 16.7812 23.513 16.7301C23.4627 16.6856 23.395 16.6662 23.3288 16.6772C23.2526 16.69 23.1746 16.7758 23.0187 16.9474L22.6874 17.3118L22.1994 17.2456C21.9696 17.2144 21.8547 17.1988 21.7882 17.2379C21.7304 17.272 21.691 17.3304 21.6811 17.3968C21.6696 17.4732 21.7271 17.5739 21.8422 17.7752L22.0864 18.2029L21.8726 18.6465C21.7719 18.8554 21.7216 18.9599 21.7383 19.0352C21.7528 19.1008 21.7962 19.1563 21.8563 19.1863C21.9253 19.2207 22.0389 19.1971 22.2659 19.15Z" fill="#D9D9D9"/>
</mask>
<g mask="url(#mask2_10_10838)">
<rect x="0.828613" width="32" height="32" fill="url(#paint3_linear_10_10838)"/>
<rect x="0.828613" width="32" height="32" fill="url(#paint4_linear_10_10838)" fill-opacity="0.6" style="mix-blend-mode:overlay"/>
<rect x="0.828613" width="32" height="32" fill="url(#paint5_radial_10_10838)" fill-opacity="0.6" style="mix-blend-mode:overlay"/>
<g style="mix-blend-mode:soft-light">
<path fill-rule="evenodd" clip-rule="evenodd" d="M0.828613 0H16.8286V32H0.828613V0Z" fill="url(#paint6_linear_10_10838)" style="mix-blend-mode:lighten"/>
</g>
<g style="mix-blend-mode:soft-light">
<path d="M15.5381 4.63281C16.333 4.1283 17.3516 4.12824 18.1465 4.63281C20.5217 6.14054 23.0969 7.40903 25.7842 8.24316C26.7025 8.52822 27.3895 9.30972 27.3906 10.2666C27.3932 12.3961 27.125 16.2715 25.4316 19.7148C23.2966 24.0562 19.5744 26.7426 17.8096 27.833C17.211 28.2028 16.4736 28.2027 15.875 27.833C14.1102 26.7426 10.388 24.0562 8.25293 19.7148C6.55955 16.2715 6.2914 12.3961 6.29395 10.2666C6.29509 9.30989 6.98131 8.52835 7.89941 8.24316C10.5867 7.40903 13.1628 6.14058 15.5381 4.63281Z" stroke="url(#paint7_linear_10_10838)" stroke-width="0.0571429" stroke-linecap="round" stroke-linejoin="round"/>
</g>
<g style="mix-blend-mode:soft-light">
<mask id="path-12-inside-1_10_10838" fill="white">
<path fill-rule="evenodd" clip-rule="evenodd" d="M16.3521 4.26472C16.5281 4.2261 16.6787 4.20622 16.8287 4.20508V4.20529C16.9877 4.20412 17.1458 4.224 17.3322 4.2649C17.6969 4.34499 18.1208 4.59929 18.9676 5.10728L18.9699 5.10865C20.8365 6.22846 22.8172 7.19178 24.8693 7.91041C25.8335 8.24806 26.3156 8.41727 26.6476 8.70728C26.9324 8.95605 27.1673 9.30059 27.2951 9.6565C27.4441 10.0715 27.4299 10.4613 27.4015 11.2405L27.3547 12.1194C27.2039 14.2765 26.7373 17.1249 25.4572 19.7278C23.528 23.6505 20.306 26.224 18.3966 27.4915L18.1154 27.6751C17.8611 27.836 17.6694 27.9324 17.3732 28.0032L17.2599 28.0247C17.015 28.0614 16.6687 28.0615 16.424 28.0247L16.417 28.0233C16.3801 28.0176 16.3456 28.0111 16.3141 28.0036L16.3117 28.0032C16.1656 27.9683 16.0449 27.9272 15.9295 27.8753C15.8888 27.857 15.8489 27.8373 15.8087 27.8161C15.6651 27.7404 15.5189 27.6447 15.3302 27.5195L15.2873 27.4915C13.3779 26.2239 10.1558 23.6503 8.22672 19.7278C7.70549 18.6679 7.31928 17.5672 7.03437 16.489C6.51949 14.5415 6.33513 12.6675 6.28311 11.2402C6.25471 10.461 6.24051 10.0713 6.38949 9.65637C6.51727 9.30045 6.7523 8.956 7.03712 8.70722C7.17592 8.58599 7.34095 8.48592 7.55647 8.38585C7.85649 8.24641 8.25435 8.10694 8.81559 7.91041C10.6112 7.28163 12.3515 6.46521 14.0089 5.52076L14.7099 5.11105L14.7144 5.10837C15.2447 4.79025 15.6092 4.57155 15.8972 4.43268C15.9188 4.42227 15.94 4.4123 15.9607 4.40278C16.0509 4.36143 16.1337 4.32839 16.2121 4.30299L16.2125 4.30288C16.2604 4.28736 16.3067 4.27469 16.3521 4.26472ZM16.8287 5.11916V27.1379L16.842 27.1379C17.0053 27.1379 17.1231 27.1227 17.1613 27.1135C17.38 27.0613 17.4683 27.0109 17.8918 26.7297C19.7389 25.5035 22.8097 23.0398 24.6369 19.3245C26.0185 16.5151 26.4087 13.3664 26.4875 11.2073C26.5178 10.3743 26.5119 10.18 26.4347 9.9651C26.3595 9.75579 26.2135 9.54205 26.0461 9.39576C25.9821 9.33995 25.876 9.26975 25.6359 9.16724C25.388 9.06139 25.06 8.94648 24.5666 8.77369C22.4478 8.03174 20.4119 7.03972 18.5002 5.89283L18.4767 5.87873C18.057 5.62694 17.7683 5.45375 17.5402 5.33228C17.3087 5.20903 17.198 5.17095 17.1369 5.15748C17.0142 5.13054 16.9222 5.11777 16.8287 5.11916ZM10.5534 19.3907L10.9093 19.0502L11.3915 19.1504L11.3915 19.1504L11.3915 19.1504C11.6186 19.1975 11.7321 19.2211 11.8011 19.1866C11.8612 19.1567 11.9046 19.1012 11.9191 19.0356C11.9359 18.9603 11.8855 18.8558 11.7848 18.6469L11.571 18.2033L11.8153 17.7756C11.9303 17.5742 11.9878 17.4735 11.9764 17.3972C11.9664 17.3308 11.927 17.2724 11.8692 17.2383C11.8027 17.1991 11.6878 17.2147 11.458 17.2459L10.97 17.3122L10.6388 16.9478C10.4828 16.7762 10.4048 16.6903 10.3286 16.6776C10.2624 16.6665 10.1947 16.6859 10.1444 16.7304C10.0866 16.7816 10.0659 16.8957 10.0246 17.1239L9.93682 17.6085L9.48786 17.8109L9.48785 17.8109C9.27644 17.9062 9.17073 17.9538 9.1351 18.0223C9.1041 18.0819 9.10164 18.1523 9.12841 18.2138C9.15918 18.2846 9.26131 18.3396 9.46556 18.4494L9.89931 18.6826L9.95307 19.1721C9.97839 19.4027 9.99105 19.5179 10.0452 19.573C10.0922 19.6209 10.1584 19.645 10.2253 19.6385C10.3021 19.6311 10.3859 19.551 10.5534 19.3907ZM22.2659 19.15L22.7481 19.0498L23.104 19.3903C23.2715 19.5506 23.3553 19.6308 23.4322 19.6381C23.499 19.6446 23.5652 19.6205 23.6123 19.5726C23.6664 19.5175 23.679 19.4023 23.7043 19.1718L23.7581 18.6822L24.1919 18.449C24.3961 18.3392 24.4982 18.2842 24.529 18.2135C24.5558 18.1519 24.5533 18.0815 24.5223 18.0219C24.4867 17.9535 24.381 17.9058 24.1696 17.8105L23.7206 17.6081L23.6328 17.1235C23.5915 16.8953 23.5708 16.7812 23.513 16.7301C23.4627 16.6856 23.395 16.6662 23.3288 16.6772C23.2526 16.69 23.1746 16.7758 23.0187 16.9474L22.6874 17.3118L22.1994 17.2456C21.9696 17.2144 21.8547 17.1988 21.7882 17.2379C21.7304 17.272 21.691 17.3304 21.6811 17.3968C21.6696 17.4732 21.7271 17.5739 21.8422 17.7752L22.0864 18.2029L21.8726 18.6465C21.7719 18.8554 21.7216 18.9599 21.7383 19.0352C21.7528 19.1008 21.7962 19.1563 21.8563 19.1863C21.9253 19.2207 22.0389 19.1971 22.2659 19.15Z"/>
</mask>
<path d="M16.8287 4.20508H16.8858C16.8858 4.18985 16.8798 4.17525 16.869 4.16452C16.8581 4.15379 16.8435 4.14782 16.8283 4.14794L16.8287 4.20508ZM16.3521 4.26472L16.3399 4.20891V4.20891L16.3521 4.26472ZM16.8287 4.20529H16.7716C16.7716 4.22051 16.7776 4.23511 16.7884 4.24584C16.7992 4.25657 16.8139 4.26254 16.8291 4.26243L16.8287 4.20529ZM17.3322 4.2649L17.3444 4.20909L17.3444 4.20909L17.3322 4.2649ZM18.9676 5.10728L18.997 5.05828L18.997 5.05828L18.9676 5.10728ZM18.9699 5.10865L18.9405 5.15765L18.9405 5.15765L18.9699 5.10865ZM24.8693 7.91041L24.8882 7.85648L24.8693 7.91041ZM26.6476 8.70728L26.6852 8.66425L26.6852 8.66425L26.6476 8.70728ZM27.2951 9.6565L27.3489 9.63719V9.63719L27.2951 9.6565ZM27.4015 11.2405L27.4586 11.2435L27.4586 11.2426L27.4015 11.2405ZM27.3547 12.1194L27.4117 12.1234L27.4117 12.1224L27.3547 12.1194ZM25.4572 19.7278L25.5085 19.753V19.753L25.4572 19.7278ZM18.3966 27.4915L18.4279 27.5393L18.4282 27.5391L18.3966 27.4915ZM18.1154 27.6751L18.146 27.7233L18.1466 27.7229L18.1154 27.6751ZM17.3732 28.0032L17.3839 28.0594L17.3865 28.0588L17.3732 28.0032ZM17.2599 28.0247L17.2684 28.0812L17.2706 28.0808L17.2599 28.0247ZM16.424 28.0247L16.4132 28.0808L16.4155 28.0812L16.424 28.0247ZM16.417 28.0233L16.4278 27.9672L16.4258 27.9669L16.417 28.0233ZM16.3141 28.0036L16.3273 27.948L16.3249 27.9475L16.3141 28.0036ZM16.3117 28.0032L16.2984 28.0588L16.3009 28.0593L16.3117 28.0032ZM15.9295 27.8753L15.953 27.8232L15.953 27.8232L15.9295 27.8753ZM15.8087 27.8161L15.782 27.8667H15.782L15.8087 27.8161ZM15.3302 27.5195L15.3618 27.4719L15.3614 27.4716L15.3302 27.5195ZM15.2873 27.4915L15.2557 27.5391L15.256 27.5393L15.2873 27.4915ZM8.22672 19.7278L8.17544 19.753L8.17545 19.753L8.22672 19.7278ZM7.03437 16.489L7.08962 16.4744L7.08962 16.4744L7.03437 16.489ZM6.28311 11.2402L6.34021 11.2381L6.28311 11.2402ZM6.38949 9.65637L6.44327 9.67568L6.38949 9.65637ZM7.03712 8.70722L7.07471 8.75026H7.07471L7.03712 8.70722ZM7.55647 8.38585L7.58053 8.43768L7.58055 8.43767L7.55647 8.38585ZM8.81559 7.91041L8.7967 7.85648L8.81559 7.91041ZM14.0089 5.52076L14.0372 5.57041L14.0378 5.57009L14.0089 5.52076ZM14.7099 5.11105L14.7388 5.16039L14.7393 5.16005L14.7099 5.11105ZM14.7144 5.10837L14.7438 5.15737L14.7438 5.15737L14.7144 5.10837ZM15.8972 4.43268L15.922 4.48416V4.48416L15.8972 4.43268ZM15.9607 4.40278L15.9846 4.45472L15.9846 4.45472L15.9607 4.40278ZM16.2121 4.30299L16.197 4.2478L16.1945 4.24862L16.2121 4.30299ZM16.2125 4.30288L16.2275 4.35807L16.2301 4.35724L16.2125 4.30288ZM16.8287 27.1379H16.7716C16.7716 27.1694 16.797 27.195 16.8285 27.1951L16.8287 27.1379ZM16.8287 5.11916L16.8279 5.06202C16.7966 5.06248 16.7716 5.08793 16.7716 5.11916H16.8287ZM16.842 27.1379L16.8418 27.1951H16.842V27.1379ZM17.1613 27.1135L17.1746 27.1691L17.1746 27.1691L17.1613 27.1135ZM17.8918 26.7297L17.9234 26.7774H17.9234L17.8918 26.7297ZM24.6369 19.3245L24.6882 19.3497L24.6369 19.3245ZM26.4875 11.2073L26.5446 11.2094V11.2094L26.4875 11.2073ZM26.4347 9.9651L26.4885 9.94579L26.4885 9.94578L26.4347 9.9651ZM26.0461 9.39576L26.0837 9.35272L26.0836 9.35272L26.0461 9.39576ZM25.6359 9.16724L25.6583 9.11469L25.6583 9.11469L25.6359 9.16724ZM24.5666 8.77369L24.5855 8.71976L24.5666 8.77369ZM18.5002 5.89283L18.4708 5.94183L18.4708 5.94183L18.5002 5.89283ZM18.4767 5.87873L18.4473 5.92773V5.92773L18.4767 5.87873ZM17.5402 5.33228L17.5671 5.28185L17.5671 5.28184L17.5402 5.33228ZM17.1369 5.15748L17.1492 5.10167L17.1491 5.10166L17.1369 5.15748ZM10.9093 19.0502L10.9209 18.9943C10.9025 18.9904 10.8834 18.9959 10.8698 19.0089L10.9093 19.0502ZM10.5534 19.3907L10.5929 19.432L10.5534 19.3907ZM11.3915 19.1504L11.4097 19.0958L11.4031 19.0944L11.3915 19.1504ZM11.3915 19.1504L11.3733 19.2049L11.3791 19.2061L11.3915 19.1504ZM11.3915 19.1504L11.3791 19.2062L11.3799 19.2063L11.3915 19.1504ZM11.8011 19.1866L11.7756 19.1355L11.7756 19.1355L11.8011 19.1866ZM11.9191 19.0356L11.8634 19.0232L11.9191 19.0356ZM11.7848 18.6469L11.8363 18.6221L11.7848 18.6469ZM11.571 18.2033L11.5214 18.1749C11.5121 18.1913 11.5114 18.2111 11.5195 18.2281L11.571 18.2033ZM11.8153 17.7756L11.7656 17.7473L11.8153 17.7756ZM11.9764 17.3972L12.0329 17.3888V17.3888L11.9764 17.3972ZM11.8692 17.2383L11.8982 17.1891L11.8692 17.2383ZM11.458 17.2459L11.4503 17.1893L11.458 17.2459ZM10.97 17.3122L10.9277 17.3506C10.9404 17.3646 10.959 17.3714 10.9777 17.3688L10.97 17.3122ZM10.6388 16.9478L10.681 16.9093L10.6388 16.9478ZM10.3286 16.6776L10.3192 16.734L10.3192 16.734L10.3286 16.6776ZM10.1444 16.7304L10.1066 16.6876L10.1444 16.7304ZM10.0246 17.1239L10.0808 17.1341L10.0246 17.1239ZM9.93682 17.6085L9.9603 17.6606C9.97745 17.6528 9.98969 17.6372 9.99304 17.6186L9.93682 17.6085ZM9.48786 17.8109L9.46432 17.7587L9.46097 17.7604L9.48786 17.8109ZM9.48785 17.8109L9.51139 17.8631L9.51474 17.8613L9.48785 17.8109ZM9.1351 18.0223L9.08441 17.9959H9.08441L9.1351 18.0223ZM9.12841 18.2138L9.076 18.2366H9.07601L9.12841 18.2138ZM9.46556 18.4494L9.49262 18.3991L9.46556 18.4494ZM9.89931 18.6826L9.95611 18.6764C9.95405 18.6577 9.94293 18.6412 9.92637 18.6323L9.89931 18.6826ZM9.95307 19.1721L10.0099 19.1659L9.95307 19.1721ZM10.0452 19.573L10.0044 19.613H10.0044L10.0452 19.573ZM10.2253 19.6385L10.2307 19.6954H10.2307L10.2253 19.6385ZM22.7481 19.0498L22.7876 19.0085C22.774 18.9955 22.7549 18.9901 22.7365 18.9939L22.7481 19.0498ZM22.2659 19.15L22.2775 19.2059L22.2659 19.15ZM23.104 19.3903L23.0645 19.4316L23.104 19.3903ZM23.4322 19.6381L23.4267 19.695L23.4322 19.6381ZM23.6123 19.5726L23.653 19.6126L23.6123 19.5726ZM23.7043 19.1718L23.6475 19.1655L23.7043 19.1718ZM23.7581 18.6822L23.731 18.6319C23.7145 18.6408 23.7034 18.6573 23.7013 18.676L23.7581 18.6822ZM24.1919 18.449L24.2189 18.4993L24.1919 18.449ZM24.529 18.2135L24.4766 18.1907L24.4766 18.1907L24.529 18.2135ZM24.5223 18.0219L24.573 17.9955L24.573 17.9955L24.5223 18.0219ZM24.1696 17.8105L24.193 17.7584L24.1696 17.8105ZM23.7206 17.6081L23.6644 17.6183C23.6677 17.6368 23.68 17.6524 23.6971 17.6602L23.7206 17.6081ZM23.6328 17.1235L23.689 17.1133L23.6328 17.1235ZM23.513 16.7301L23.4751 16.7729L23.4751 16.7729L23.513 16.7301ZM23.3288 16.6772L23.3382 16.7336V16.7336L23.3288 16.6772ZM23.0187 16.9474L23.0609 16.9858L23.0187 16.9474ZM22.6874 17.3118L22.6797 17.3684C22.6984 17.371 22.7171 17.3642 22.7297 17.3503L22.6874 17.3118ZM22.1994 17.2456L22.2071 17.1889L22.1994 17.2456ZM21.7882 17.2379L21.7592 17.1887H21.7592L21.7882 17.2379ZM21.6811 17.3968L21.7376 17.4053L21.6811 17.3968ZM21.8422 17.7752L21.8918 17.7469H21.8918L21.8422 17.7752ZM22.0864 18.2029L22.1379 18.2277C22.146 18.2107 22.1453 18.1909 22.136 18.1745L22.0864 18.2029ZM21.8726 18.6465L21.9241 18.6713L21.8726 18.6465ZM21.7383 19.0352L21.6825 19.0476V19.0476L21.7383 19.0352ZM21.8563 19.1863L21.8818 19.1351L21.8818 19.1351L21.8563 19.1863ZM16.8287 4.20508L16.8283 4.14794C16.6733 4.14911 16.5185 4.16968 16.3399 4.20891L16.3521 4.26472L16.3644 4.32054C16.5376 4.28251 16.6842 4.26332 16.8291 4.26222L16.8287 4.20508ZM16.8287 4.20529H16.8858V4.20508H16.8287H16.7716V4.20529H16.8287ZM17.3322 4.2649L17.3444 4.20909C17.1551 4.16754 16.9926 4.14694 16.8283 4.14814L16.8287 4.20529L16.8291 4.26243C16.9827 4.2613 17.1365 4.28046 17.3199 4.32071L17.3322 4.2649ZM18.9676 5.10728L18.997 5.05828C18.5741 4.80459 18.255 4.61312 17.996 4.47519C17.737 4.33725 17.5344 4.2508 17.3444 4.20909L17.3322 4.2649L17.3199 4.32071C17.4947 4.35909 17.6865 4.43983 17.9423 4.57606C18.1981 4.7123 18.5143 4.90198 18.9382 5.15628L18.9676 5.10728ZM18.9699 5.10865L18.9993 5.05965L18.997 5.05828L18.9676 5.10728L18.9382 5.15628L18.9405 5.15765L18.9699 5.10865ZM24.8693 7.91041L24.8882 7.85648C22.8402 7.13931 20.863 6.17775 18.9993 5.05965L18.9699 5.10865L18.9405 5.15765C20.8099 6.27917 22.7941 7.24426 24.8504 7.96434L24.8693 7.91041ZM26.6476 8.70728L26.6852 8.66425C26.5128 8.51367 26.3032 8.39606 26.018 8.27416C25.7333 8.15248 25.3696 8.02505 24.8882 7.85648L24.8693 7.91041L24.8504 7.96434C25.3332 8.13341 25.6927 8.25942 25.9731 8.37925C26.253 8.49888 26.4504 8.61088 26.61 8.75032L26.6476 8.70728ZM27.2951 9.6565L27.3489 9.63719C27.2178 9.27214 26.9774 8.91943 26.6852 8.66425L26.6476 8.70728L26.61 8.75032C26.8875 8.99268 27.1168 9.32904 27.2413 9.67581L27.2951 9.6565ZM27.4015 11.2405L27.4586 11.2426C27.4869 10.4667 27.5023 10.0647 27.3489 9.63719L27.2951 9.6565L27.2413 9.67581C27.3858 10.0783 27.3729 10.4558 27.3444 11.2384L27.4015 11.2405ZM27.3547 12.1194L27.4117 12.1224L27.4586 11.2435L27.4015 11.2405L27.3445 11.2374L27.2976 12.1163L27.3547 12.1194ZM25.4572 19.7278L25.5085 19.753C26.7931 17.1409 27.2606 14.2843 27.4117 12.1234L27.3547 12.1194L27.2976 12.1154C27.1472 14.2686 26.6815 17.1089 25.4059 19.7026L25.4572 19.7278ZM18.3966 27.4915L18.4282 27.5391C20.3415 26.269 23.5729 23.6886 25.5085 19.753L25.4572 19.7278L25.4059 19.7026C23.4831 23.6123 20.2705 26.1789 18.365 27.4439L18.3966 27.4915ZM18.1154 27.6751L18.1466 27.7229L18.4279 27.5393L18.3966 27.4915L18.3654 27.4436L18.0842 27.6272L18.1154 27.6751ZM17.3732 28.0032L17.3865 28.0588C17.6907 27.9861 17.8883 27.8864 18.146 27.7233L18.1154 27.6751L18.0848 27.6268C17.834 27.7855 17.6481 27.8788 17.3599 27.9476L17.3732 28.0032ZM17.2599 28.0247L17.2706 28.0808L17.3839 28.0593L17.3732 28.0032L17.3626 27.947L17.2493 27.9685L17.2599 28.0247ZM16.424 28.0247L16.4155 28.0812C16.6658 28.1188 17.0179 28.1188 17.2684 28.0812L17.2599 28.0247L17.2514 27.9682C17.0121 28.0041 16.6715 28.0041 16.4325 27.9682L16.424 28.0247ZM16.417 28.0233L16.4063 28.0795L16.4132 28.0808L16.424 28.0247L16.4347 27.9685L16.4278 27.9672L16.417 28.0233ZM16.3141 28.0036L16.301 28.0593C16.3342 28.0671 16.3702 28.0739 16.4083 28.0798L16.417 28.0233L16.4258 27.9669C16.39 27.9613 16.3569 27.955 16.3272 27.948L16.3141 28.0036ZM16.3117 28.0032L16.3009 28.0593L16.3034 28.0598L16.3141 28.0036L16.3249 27.9475L16.3224 27.9471L16.3117 28.0032ZM15.9295 27.8753L15.906 27.9274C16.025 27.981 16.1492 28.0231 16.2984 28.0588L16.3117 28.0032L16.325 27.9476C16.1821 27.9135 16.0648 27.8735 15.953 27.8232L15.9295 27.8753ZM15.8087 27.8161L15.782 27.8667C15.8231 27.8884 15.8642 27.9086 15.9061 27.9274L15.9295 27.8753L15.953 27.8232C15.9135 27.8054 15.8746 27.7863 15.8353 27.7656L15.8087 27.8161ZM15.3302 27.5195L15.2986 27.5671C15.4869 27.692 15.6355 27.7893 15.782 27.8667L15.8087 27.8161L15.8353 27.7656C15.6947 27.6914 15.5509 27.5973 15.3618 27.4719L15.3302 27.5195ZM15.2873 27.4915L15.256 27.5393L15.2989 27.5673L15.3302 27.5195L15.3614 27.4716L15.3185 27.4436L15.2873 27.4915ZM8.22672 19.7278L8.17545 19.753C10.1109 23.6884 13.3424 26.2689 15.2557 27.5391L15.2873 27.4915L15.3189 27.4439C13.4134 26.1789 10.2007 23.6121 8.278 19.7026L8.22672 19.7278ZM7.03437 16.489L6.97913 16.5036C7.26482 17.5848 7.65226 18.6891 8.17544 19.753L8.22672 19.7278L8.278 19.7026C7.75873 18.6466 7.37374 17.5496 7.08962 16.4744L7.03437 16.489ZM6.28311 11.2402L6.226 11.2423C6.27813 12.6724 6.46286 14.5509 6.97913 16.5036L7.03437 16.489L7.08962 16.4744C6.57612 14.5321 6.39213 12.6626 6.34021 11.2381L6.28311 11.2402ZM6.38949 9.65637L6.33571 9.63706C6.18224 10.0645 6.19772 10.4664 6.226 11.2423L6.28311 11.2402L6.34021 11.2381C6.31169 10.4555 6.29878 10.0782 6.44327 9.67568L6.38949 9.65637ZM7.03712 8.70722L6.99953 8.66419C6.70738 8.91936 6.46678 9.27198 6.33571 9.63706L6.38949 9.65637L6.44327 9.67568C6.56777 9.32891 6.79722 8.99263 7.07471 8.75026L7.03712 8.70722ZM7.55647 8.38585L7.5324 8.33402C7.31383 8.43551 7.14369 8.53826 6.99953 8.66419L7.03712 8.70722L7.07471 8.75026C7.20815 8.63371 7.36807 8.53633 7.58053 8.43768L7.55647 8.38585ZM8.81559 7.91041L8.7967 7.85648C8.23659 8.05262 7.83556 8.19313 7.53239 8.33403L7.55647 8.38585L7.58055 8.43767C7.87741 8.2997 8.27212 8.16127 8.83448 7.96434L8.81559 7.91041ZM14.0089 5.52076L13.9807 5.47111C12.3258 6.41407 10.5886 7.22898 8.7967 7.85648L8.81559 7.91041L8.83448 7.96434C10.6337 7.33428 12.3772 6.51634 14.0372 5.57041L14.0089 5.52076ZM14.7099 5.11105L14.6811 5.06171L13.9801 5.47142L14.0089 5.52076L14.0378 5.57009L14.7388 5.16038L14.7099 5.11105ZM14.7144 5.10837L14.685 5.05937L14.6805 5.06204L14.7099 5.11105L14.7393 5.16005L14.7438 5.15737L14.7144 5.10837ZM15.8972 4.43268L15.8724 4.38121C15.5815 4.52149 15.2142 4.74188 14.685 5.05937L14.7144 5.10837L14.7438 5.15737C15.2751 4.83863 15.637 4.62161 15.922 4.48416L15.8972 4.43268ZM15.9607 4.40278L15.9369 4.35083C15.9158 4.36052 15.8943 4.37065 15.8724 4.38121L15.8972 4.43268L15.922 4.48416C15.9433 4.47389 15.9641 4.46408 15.9846 4.45472L15.9607 4.40278ZM16.2121 4.30299L16.1945 4.24862C16.1135 4.27486 16.0286 4.30879 15.9369 4.35084L15.9607 4.40278L15.9846 4.45472C16.0732 4.41407 16.1539 4.38191 16.2297 4.35735L16.2121 4.30299ZM16.2125 4.30288L16.1974 4.24775L16.197 4.24786L16.2121 4.30299L16.2271 4.35811L16.2275 4.35801L16.2125 4.30288ZM16.3521 4.26472L16.3399 4.20891C16.2925 4.21931 16.2444 4.23248 16.1949 4.24851L16.2125 4.30288L16.2301 4.35724C16.2764 4.34224 16.3209 4.33008 16.3644 4.32054L16.3521 4.26472ZM16.8287 27.1379H16.8858V5.11916H16.8287H16.7716V27.1379H16.8287ZM16.842 27.1379L16.8421 27.0808L16.8289 27.0808L16.8287 27.1379L16.8285 27.1951L16.8418 27.1951L16.842 27.1379ZM17.1613 27.1135L17.148 27.058C17.1159 27.0656 17.0031 27.0808 16.842 27.0808V27.1379V27.1951C17.0075 27.1951 17.1302 27.1797 17.1746 27.1691L17.1613 27.1135ZM17.8918 26.7297L17.8602 26.6821C17.4362 26.9636 17.3556 27.0083 17.148 27.058L17.1613 27.1135L17.1746 27.1691C17.4044 27.1142 17.5003 27.0582 17.9234 26.7774L17.8918 26.7297ZM24.6369 19.3245L24.5856 19.2993C22.7648 23.0016 19.7034 25.4585 17.8602 26.6821L17.8918 26.7297L17.9234 26.7774C19.7744 25.5485 22.8546 23.0779 24.6882 19.3497L24.6369 19.3245ZM26.4875 11.2073L26.4304 11.2052C26.3518 13.3606 25.9622 16.5002 24.5856 19.2993L24.6369 19.3245L24.6882 19.3497C26.0749 16.53 26.4657 13.3721 26.5446 11.2094L26.4875 11.2073ZM26.4347 9.9651L26.3809 9.9844C26.4536 10.1867 26.4609 10.3682 26.4304 11.2052L26.4875 11.2073L26.5446 11.2094C26.5748 10.3805 26.5702 10.1734 26.4885 9.94579L26.4347 9.9651ZM26.0461 9.39576L26.0085 9.4388C26.1686 9.5787 26.3091 9.78428 26.381 9.98441L26.4347 9.9651L26.4885 9.94578C26.41 9.7273 26.2585 9.5054 26.0837 9.35272L26.0461 9.39576ZM25.6359 9.16724L25.6135 9.2198C25.8509 9.32117 25.9509 9.38857 26.0085 9.4388L26.0461 9.39576L26.0836 9.35272C26.0133 9.29134 25.901 9.21833 25.6583 9.11469L25.6359 9.16724ZM24.5666 8.77369L24.5477 8.82762C25.0419 9.0007 25.3677 9.11488 25.6135 9.2198L25.6359 9.16724L25.6583 9.11469C25.4082 9.00791 25.0781 8.89227 24.5855 8.71976L24.5666 8.77369ZM18.5002 5.89283L18.4708 5.94183C20.3854 7.09042 22.4248 8.08421 24.5477 8.82762L24.5666 8.77369L24.5855 8.71976C22.4709 7.97926 20.4385 6.98902 18.5296 5.84383L18.5002 5.89283ZM18.4767 5.87873L18.4473 5.92773L18.4708 5.94183L18.5002 5.89283L18.5296 5.84383L18.5061 5.82973L18.4767 5.87873ZM17.5402 5.33228L17.5133 5.38272C17.7398 5.50333 18.027 5.67561 18.4473 5.92773L18.4767 5.87873L18.5061 5.82973C18.0869 5.57828 17.7967 5.40416 17.5671 5.28185L17.5402 5.33228ZM17.1369 5.15748L17.1246 5.21328C17.1781 5.22508 17.2834 5.26027 17.5133 5.38272L17.5402 5.33228L17.5671 5.28184C17.3341 5.15778 17.2179 5.11682 17.1492 5.10167L17.1369 5.15748ZM16.8287 5.11916L16.8295 5.17629C16.9169 5.175 17.0041 5.18682 17.1246 5.21329L17.1369 5.15748L17.1491 5.10166C17.0244 5.07427 16.9276 5.06054 16.8279 5.06202L16.8287 5.11916ZM10.9093 19.0502L10.8698 19.0089L10.5139 19.3494L10.5534 19.3907L10.5929 19.432L10.9488 19.0915L10.9093 19.0502ZM11.3915 19.1504L11.4031 19.0944L10.9209 18.9943L10.9093 19.0502L10.8977 19.1062L11.3799 19.2063L11.3915 19.1504ZM11.3915 19.1504L11.4096 19.0962L11.4095 19.0961L11.3915 19.1504L11.3734 19.2046L11.3734 19.2046L11.3915 19.1504ZM11.3915 19.1504L11.4039 19.0946L11.4039 19.0946L11.3915 19.1504L11.3791 19.2061L11.3791 19.2062L11.3915 19.1504ZM11.8011 19.1866L11.7756 19.1355C11.7567 19.145 11.7252 19.1496 11.6621 19.1423C11.5999 19.1352 11.5178 19.1182 11.4031 19.0944L11.3915 19.1504L11.3799 19.2063C11.4923 19.2297 11.5805 19.248 11.6491 19.2559C11.7168 19.2636 11.7766 19.2628 11.8267 19.2378L11.8011 19.1866ZM11.9191 19.0356L11.8634 19.0232C11.8525 19.072 11.8203 19.1132 11.7756 19.1355L11.8011 19.1866L11.8267 19.2378C11.9022 19.2001 11.9567 19.1304 11.9749 19.048L11.9191 19.0356ZM11.7848 18.6469L11.7334 18.6717C11.7842 18.7772 11.8205 18.8528 11.8425 18.9114C11.8648 18.9709 11.8679 19.0026 11.8634 19.0232L11.9191 19.0356L11.9749 19.048C11.9871 18.9933 11.9734 18.9351 11.9495 18.8713C11.9253 18.8066 11.8862 18.7255 11.8363 18.6221L11.7848 18.6469ZM11.571 18.2033L11.5195 18.2281L11.7334 18.6717L11.7848 18.6469L11.8363 18.6221L11.6225 18.1785L11.571 18.2033ZM11.8153 17.7756L11.7656 17.7473L11.5214 18.1749L11.571 18.2033L11.6206 18.2316L11.8649 17.804L11.8153 17.7756ZM11.9764 17.3972L11.9198 17.4057C11.923 17.4266 11.9176 17.458 11.8912 17.5158C11.8652 17.5728 11.8237 17.6456 11.7656 17.7473L11.8153 17.7756L11.8649 17.804C11.9218 17.7043 11.9665 17.6261 11.9952 17.5632C12.0235 17.5013 12.0412 17.4441 12.0329 17.3888L11.9764 17.3972ZM11.8692 17.2383L11.8402 17.2876C11.8832 17.3129 11.9125 17.3563 11.9198 17.4057L11.9764 17.3972L12.0329 17.3888C12.0204 17.3053 11.9709 17.2319 11.8982 17.1891L11.8692 17.2383ZM11.458 17.2459L11.4657 17.3026C11.5817 17.2868 11.6648 17.2756 11.7273 17.2728C11.7908 17.27 11.8219 17.2768 11.8402 17.2876L11.8692 17.2383L11.8982 17.1891C11.85 17.1607 11.7904 17.1556 11.7223 17.1587C11.6533 17.1617 11.5641 17.1739 11.4503 17.1893L11.458 17.2459ZM10.97 17.3122L10.9777 17.3688L11.4657 17.3026L11.458 17.2459L11.4503 17.1893L10.9623 17.2556L10.97 17.3122ZM10.6388 16.9478L10.5965 16.9862L10.9277 17.3506L10.97 17.3122L11.0123 17.2738L10.681 16.9093L10.6388 16.9478ZM10.3286 16.6776L10.3192 16.734C10.3401 16.7375 10.3683 16.7523 10.4151 16.7952C10.4613 16.8375 10.5177 16.8996 10.5965 16.9862L10.6388 16.9478L10.681 16.9093C10.6038 16.8244 10.5433 16.7577 10.4924 16.711C10.4422 16.665 10.3933 16.6305 10.3381 16.6213L10.3286 16.6776ZM10.1444 16.7304L10.1823 16.7732C10.2197 16.7402 10.27 16.7257 10.3192 16.734L10.3286 16.6776L10.3381 16.6213C10.2548 16.6073 10.1698 16.6317 10.1066 16.6876L10.1444 16.7304ZM10.0246 17.1239L10.0808 17.1341C10.1017 17.0188 10.1167 16.9363 10.1334 16.876C10.1504 16.8148 10.1664 16.7873 10.1823 16.7732L10.1444 16.7304L10.1066 16.6876C10.0646 16.7247 10.0414 16.7799 10.0233 16.8455C10.0048 16.9121 9.98884 17.0007 9.96837 17.1137L10.0246 17.1239ZM9.93682 17.6085L9.99304 17.6186L10.0808 17.1341L10.0246 17.1239L9.96837 17.1137L9.88059 17.5983L9.93682 17.6085ZM9.48786 17.8109L9.51134 17.863L9.9603 17.6606L9.93682 17.6085L9.91333 17.5564L9.46437 17.7588L9.48786 17.8109ZM9.48785 17.8109L9.51474 17.8613L9.51475 17.8613L9.48786 17.8109L9.46097 17.7604L9.46096 17.7605L9.48785 17.8109ZM9.1351 18.0223L9.18579 18.0487C9.19557 18.0299 9.21836 18.0077 9.27367 17.9764C9.32817 17.9456 9.40459 17.9111 9.51133 17.863L9.48785 17.8109L9.46436 17.7588C9.3597 17.806 9.27756 17.8429 9.21744 17.8769C9.15814 17.9104 9.11026 17.9463 9.08441 17.9959L9.1351 18.0223ZM9.12841 18.2138L9.18082 18.1911C9.16092 18.1453 9.16274 18.093 9.18579 18.0487L9.1351 18.0223L9.08441 17.9959C9.04545 18.0708 9.04236 18.1592 9.076 18.2366L9.12841 18.2138ZM9.46556 18.4494L9.49262 18.3991C9.38949 18.3436 9.31566 18.3038 9.26345 18.2693C9.21045 18.2343 9.18927 18.2105 9.18082 18.1911L9.12841 18.2138L9.07601 18.2366C9.09832 18.288 9.14359 18.3271 9.20041 18.3646C9.25801 18.4027 9.33738 18.4453 9.4385 18.4997L9.46556 18.4494ZM9.89931 18.6826L9.92637 18.6323L9.49262 18.3991L9.46556 18.4494L9.4385 18.4997L9.87224 18.7329L9.89931 18.6826ZM9.95307 19.1721L10.0099 19.1659L9.95611 18.6764L9.89931 18.6826L9.8425 18.6889L9.89627 19.1784L9.95307 19.1721ZM10.0452 19.573L10.0859 19.5329C10.071 19.5178 10.057 19.4893 10.0443 19.427C10.0319 19.3656 10.0227 19.2823 10.0099 19.1659L9.95307 19.1721L9.89627 19.1784C9.9088 19.2925 9.91858 19.3821 9.93232 19.4497C9.94587 19.5165 9.96515 19.5731 10.0044 19.613L10.0452 19.573ZM10.2253 19.6385L10.2198 19.5816C10.1701 19.5864 10.1209 19.5685 10.0859 19.5329L10.0452 19.573L10.0044 19.613C10.0636 19.6732 10.1467 19.7035 10.2307 19.6954L10.2253 19.6385ZM10.5534 19.3907L10.5139 19.3494C10.4293 19.4303 10.3687 19.4882 10.3197 19.5272C10.27 19.5668 10.2409 19.5796 10.2198 19.5816L10.2253 19.6385L10.2307 19.6954C10.2865 19.69 10.3376 19.6591 10.3909 19.6166C10.4449 19.5736 10.51 19.5113 10.5929 19.432L10.5534 19.3907ZM22.7481 19.0498L22.7365 18.9939L22.2543 19.094L22.2659 19.15L22.2775 19.2059L22.7597 19.1058L22.7481 19.0498ZM23.104 19.3903L23.1435 19.349L22.7876 19.0085L22.7481 19.0498L22.7086 19.0911L23.0645 19.4316L23.104 19.3903ZM23.4322 19.6381L23.4376 19.5813C23.4165 19.5792 23.3874 19.5664 23.3377 19.5269C23.2887 19.4879 23.2281 19.4299 23.1435 19.349L23.104 19.3903L23.0645 19.4316C23.1474 19.5109 23.2125 19.5732 23.2665 19.6163C23.3198 19.6587 23.371 19.6897 23.4267 19.695L23.4322 19.6381ZM23.6123 19.5726L23.5715 19.5325C23.5365 19.5681 23.4873 19.586 23.4376 19.5813L23.4322 19.6381L23.4267 19.695C23.5107 19.7031 23.5939 19.6728 23.653 19.6126L23.6123 19.5726ZM23.7043 19.1718L23.6475 19.1655C23.6348 19.2819 23.6255 19.3653 23.6131 19.4266C23.6005 19.4889 23.5864 19.5174 23.5715 19.5325L23.6123 19.5726L23.653 19.6126C23.6923 19.5727 23.7115 19.5161 23.7251 19.4493C23.7388 19.3817 23.7486 19.2921 23.7611 19.178L23.7043 19.1718ZM23.7581 18.6822L23.7013 18.676L23.6475 19.1655L23.7043 19.1718L23.7611 19.178L23.8149 18.6885L23.7581 18.6822ZM24.1919 18.449L24.1648 18.3987L23.731 18.6319L23.7581 18.6822L23.7852 18.7326L24.2189 18.4993L24.1919 18.449ZM24.529 18.2135L24.4766 18.1907C24.4681 18.2101 24.447 18.2339 24.394 18.2689C24.3417 18.3034 24.2679 18.3432 24.1648 18.3987L24.1919 18.449L24.2189 18.4993C24.32 18.4449 24.3994 18.4023 24.457 18.3643C24.5138 18.3267 24.5591 18.2876 24.5814 18.2362L24.529 18.2135ZM24.5223 18.0219L24.4716 18.0483C24.4947 18.0926 24.4965 18.1449 24.4766 18.1907L24.529 18.2135L24.5814 18.2362C24.615 18.1588 24.612 18.0704 24.573 17.9955L24.5223 18.0219ZM24.1696 17.8105L24.1461 17.8626C24.2528 17.9107 24.3292 17.9452 24.3837 17.976C24.439 18.0073 24.4618 18.0295 24.4716 18.0483L24.5223 18.0219L24.573 17.9955C24.5472 17.9459 24.4993 17.91 24.44 17.8765C24.3798 17.8425 24.2977 17.8056 24.193 17.7584L24.1696 17.8105ZM23.7206 17.6081L23.6971 17.6602L24.1461 17.8626L24.1696 17.8105L24.193 17.7584L23.7441 17.556L23.7206 17.6081ZM23.6328 17.1235L23.5766 17.1337L23.6644 17.6183L23.7206 17.6081L23.7768 17.5979L23.689 17.1133L23.6328 17.1235ZM23.513 16.7301L23.4751 16.7729C23.491 16.7869 23.5071 16.8144 23.524 16.8756C23.5407 16.936 23.5557 17.0185 23.5766 17.1337L23.6328 17.1235L23.689 17.1133C23.6686 17.0003 23.6526 16.9117 23.6342 16.8451C23.616 16.7795 23.5928 16.7243 23.5509 16.6873L23.513 16.7301ZM23.3288 16.6772L23.3382 16.7336C23.3874 16.7254 23.4377 16.7398 23.4751 16.7729L23.513 16.7301L23.5509 16.6873C23.4876 16.6313 23.4026 16.6069 23.3193 16.6209L23.3288 16.6772ZM23.0187 16.9474L23.0609 16.9858C23.1397 16.8992 23.1961 16.8371 23.2423 16.7948C23.2891 16.7519 23.3173 16.7371 23.3382 16.7336L23.3288 16.6772L23.3193 16.6209C23.2641 16.6301 23.2152 16.6646 23.165 16.7106C23.1141 16.7573 23.0536 16.824 22.9764 16.9089L23.0187 16.9474ZM22.6874 17.3118L22.7297 17.3503L23.0609 16.9858L23.0187 16.9474L22.9764 16.9089L22.6451 17.2734L22.6874 17.3118ZM22.1994 17.2456L22.1917 17.3022L22.6797 17.3684L22.6874 17.3118L22.6951 17.2552L22.2071 17.1889L22.1994 17.2456ZM21.7882 17.2379L21.8172 17.2872C21.8355 17.2764 21.8666 17.2696 21.9301 17.2724C21.9926 17.2752 22.0757 17.2864 22.1917 17.3022L22.1994 17.2456L22.2071 17.1889C22.0933 17.1735 22.0041 17.1613 21.9351 17.1583C21.8671 17.1553 21.8075 17.1603 21.7592 17.1887L21.7882 17.2379ZM21.6811 17.3968L21.7376 17.4053C21.745 17.3559 21.7742 17.3125 21.8172 17.2872L21.7882 17.2379L21.7592 17.1887C21.6865 17.2315 21.637 17.3049 21.6245 17.3884L21.6811 17.3968ZM21.8422 17.7752L21.8918 17.7469C21.8337 17.6452 21.7922 17.5724 21.7662 17.5154C21.7398 17.4576 21.7344 17.4262 21.7376 17.4053L21.6811 17.3968L21.6245 17.3884C21.6163 17.4437 21.6339 17.5009 21.6622 17.5629C21.6909 17.6257 21.7356 17.7039 21.7925 17.8036L21.8422 17.7752ZM22.0864 18.2029L22.136 18.1745L21.8918 17.7469L21.8422 17.7752L21.7925 17.8036L22.0368 18.2312L22.0864 18.2029ZM21.8726 18.6465L21.9241 18.6713L22.1379 18.2277L22.0864 18.2029L22.0349 18.1781L21.8211 18.6217L21.8726 18.6465ZM21.7383 19.0352L21.7941 19.0229C21.7895 19.0022 21.7926 18.9705 21.8149 18.911C21.8369 18.8524 21.8732 18.7768 21.9241 18.6713L21.8726 18.6465L21.8211 18.6217C21.7713 18.7251 21.7321 18.8063 21.7079 18.8709C21.684 18.9347 21.6704 18.9929 21.6825 19.0476L21.7383 19.0352ZM21.8563 19.1863L21.8818 19.1351C21.8371 19.1128 21.8049 19.0716 21.7941 19.0229L21.7383 19.0352L21.6825 19.0476C21.7008 19.13 21.7552 19.1997 21.8308 19.2374L21.8563 19.1863ZM22.2659 19.15L22.2543 19.094C22.1397 19.1178 22.0575 19.1348 21.9954 19.1419C21.9322 19.1492 21.9007 19.1446 21.8818 19.1351L21.8563 19.1863L21.8308 19.2374C21.8809 19.2624 21.9407 19.2632 22.0083 19.2555C22.0769 19.2476 22.1651 19.2293 22.2775 19.2059L22.2659 19.15Z" fill="url(#paint8_linear_10_10838)" mask="url(#path-12-inside-1_10_10838)"/>
</g>
</g>
</g>
<g filter="url(#filter2_d_10_10838)">
<path d="M17.1301 11.3228C17.4795 11.1988 17.7297 10.8653 17.7297 10.4734C17.7297 9.97572 17.3262 9.57227 16.8285 9.57227C16.3309 9.57227 15.9274 9.97572 15.9274 10.4734C15.9274 10.8653 16.1775 11.1987 16.5268 11.3228L15.4375 14.2645C15.3685 14.451 15.1229 14.4919 14.9972 14.3378L12.6989 11.5217C12.8683 11.3579 12.9737 11.1282 12.9737 10.8739C12.9737 10.3762 12.5702 9.97276 12.0725 9.97276C11.5748 9.97276 11.1714 10.3762 11.1714 10.8739C11.1714 11.3716 11.5748 11.775 12.0725 11.775C12.1244 11.775 12.1753 11.7707 12.2248 11.7622L13.5757 16.5664C13.6693 16.8991 13.9728 17.129 14.3184 17.129H19.3402C19.6859 17.129 19.9894 16.899 20.0829 16.5662L21.4326 11.7623C21.482 11.7707 21.5327 11.775 21.5845 11.775C22.0822 11.775 22.4857 11.3716 22.4857 10.8739C22.4857 10.3762 22.0822 9.97276 21.5845 9.97276C21.0868 9.97276 20.6834 10.3762 20.6834 10.8739C20.6834 11.1283 20.7888 11.3581 20.9583 11.5219L18.6615 14.3378C18.5359 14.4919 18.2903 14.4512 18.2212 14.2647L17.1301 11.3228Z" fill="white"/>
<path d="M14.4359 17.7127C14.0904 17.7127 13.828 18.0239 13.8864 18.3645C13.9323 18.6321 14.1644 18.8278 14.4359 18.8278H19.2242C19.4958 18.8278 19.7279 18.6321 19.7737 18.3643C19.832 18.0238 19.5697 17.7127 19.2242 17.7127H14.4359Z" fill="white"/>
<path d="M19.2241 17.6807C19.5896 17.6807 19.8668 18.0099 19.8052 18.3701C19.7565 18.6531 19.5113 18.8604 19.2241 18.8604H14.436C14.1489 18.8604 13.9036 18.6531 13.855 18.3701C13.7932 18.0099 14.0705 17.6807 14.436 17.6807H19.2241ZM16.8286 9.54004C17.344 9.54008 17.7622 9.95822 17.7622 10.4736C17.7621 10.8681 17.5162 11.2033 17.1704 11.3398L18.2515 14.2539C18.3121 14.4167 18.5263 14.452 18.6362 14.3174L20.9155 11.5225C20.7527 11.3545 20.6509 11.1265 20.6509 10.874C20.6509 10.3586 21.0691 9.94046 21.5845 9.94043C22.0999 9.94043 22.5181 10.3586 22.5181 10.874C22.518 11.3894 22.0999 11.8076 21.5845 11.8076C21.5406 11.8076 21.4978 11.8018 21.4556 11.7959L20.1138 16.5752C20.0163 16.9217 19.7003 17.1611 19.3403 17.1611H14.3188C13.9588 17.1611 13.6419 16.9218 13.5444 16.5752L12.2007 11.7959C12.1587 11.8017 12.1163 11.8076 12.0728 11.8076C11.5574 11.8076 11.1392 11.3894 11.1392 10.874C11.1392 10.3586 11.5573 9.94043 12.0728 9.94043C12.5881 9.94055 13.0054 10.3587 13.0054 10.874C13.0053 11.1264 12.9045 11.3545 12.7417 11.5225L15.022 14.3174C15.132 14.4522 15.3473 14.4161 15.4077 14.2529L16.4858 11.3398C16.1404 11.2031 15.8951 10.8678 15.895 10.4736C15.895 9.9582 16.3132 9.54004 16.8286 9.54004Z" stroke="url(#paint9_linear_10_10838)" stroke-width="0.0642857" stroke-linecap="round" style="mix-blend-mode:color-burn"/>
</g>
</g>
<g filter="url(#filter3_dd_10_10838)">
<mask id="path-16-inside-2_10_10838" fill="white">
<path d="M7.72802 22.1719C8.24007 22.1719 8.49631 22.1718 8.69189 22.2715C8.86384 22.3591 9.00368 22.4989 9.0913 22.6709C9.19087 22.8665 9.19091 23.1229 9.19091 23.6348V25.9658C9.19091 26.4778 9.19095 26.7341 9.0913 26.9297C9.00364 27.1016 8.86382 27.2415 8.69189 27.3291C8.49632 27.4287 8.24003 27.4287 7.72802 27.4287H5.81689C5.44373 27.4287 5.25719 27.4282 5.14111 27.3496C5.03985 27.281 4.97002 27.175 4.94775 27.0547C4.92236 26.9168 4.99713 26.7452 5.14697 26.4033L5.85009 24.7998L5.14697 23.1963C4.99723 22.8547 4.92243 22.6837 4.94775 22.5459C4.96994 22.4254 5.03964 22.3187 5.14111 22.25C5.25719 22.1714 5.44378 22.1719 5.81689 22.1719H7.72802ZM27.8071 22.1719C28.1801 22.1719 28.3668 22.1716 28.4829 22.25C28.5844 22.3187 28.6541 22.4254 28.6763 22.5459C28.7016 22.6838 28.6268 22.8545 28.477 23.1963L27.7739 24.7998L28.477 26.4033C28.6269 26.7452 28.7017 26.9168 28.6763 27.0547C28.654 27.175 28.5842 27.281 28.4829 27.3496C28.3668 27.4282 28.1803 27.4287 27.8071 27.4287H25.896C25.384 27.4287 25.1277 27.4287 24.9321 27.3291C24.7602 27.2415 24.6203 27.1016 24.5327 26.9297C24.4331 26.7341 24.4331 26.4778 24.4331 25.9658V23.6348C24.4331 23.123 24.4332 22.8664 24.5327 22.6709C24.6203 22.499 24.7603 22.3592 24.9321 22.2715C25.1277 22.1718 25.384 22.1719 25.896 22.1719H27.8071Z"/>
</mask>
<path d="M7.72802 22.1719C8.24007 22.1719 8.49631 22.1718 8.69189 22.2715C8.86384 22.3591 9.00368 22.4989 9.0913 22.6709C9.19087 22.8665 9.19091 23.1229 9.19091 23.6348V25.9658C9.19091 26.4778 9.19095 26.7341 9.0913 26.9297C9.00364 27.1016 8.86382 27.2415 8.69189 27.3291C8.49632 27.4287 8.24003 27.4287 7.72802 27.4287H5.81689C5.44373 27.4287 5.25719 27.4282 5.14111 27.3496C5.03985 27.281 4.97002 27.175 4.94775 27.0547C4.92236 26.9168 4.99713 26.7452 5.14697 26.4033L5.85009 24.7998L5.14697 23.1963C4.99723 22.8547 4.92243 22.6837 4.94775 22.5459C4.96994 22.4254 5.03964 22.3187 5.14111 22.25C5.25719 22.1714 5.44378 22.1719 5.81689 22.1719H7.72802ZM27.8071 22.1719C28.1801 22.1719 28.3668 22.1716 28.4829 22.25C28.5844 22.3187 28.6541 22.4254 28.6763 22.5459C28.7016 22.6838 28.6268 22.8545 28.477 23.1963L27.7739 24.7998L28.477 26.4033C28.6269 26.7452 28.7017 26.9168 28.6763 27.0547C28.654 27.175 28.5842 27.281 28.4829 27.3496C28.3668 27.4282 28.1803 27.4287 27.8071 27.4287H25.896C25.384 27.4287 25.1277 27.4287 24.9321 27.3291C24.7602 27.2415 24.6203 27.1016 24.5327 26.9297C24.4331 26.7341 24.4331 26.4778 24.4331 25.9658V23.6348C24.4331 23.123 24.4332 22.8664 24.5327 22.6709C24.6203 22.499 24.7603 22.3592 24.9321 22.2715C25.1277 22.1718 25.384 22.1719 25.896 22.1719H27.8071Z" fill="#6B39D5"/>
<path d="M8.69189 22.2715L8.71784 22.2206L8.71783 22.2206L8.69189 22.2715ZM9.0913 22.6709L9.14223 22.645L9.14222 22.645L9.0913 22.6709ZM9.19091 25.9658H9.24806H9.19091ZM9.0913 26.9297L9.14221 26.9556L9.14222 26.9556L9.0913 26.9297ZM8.69189 27.3291L8.71783 27.38L8.71783 27.38L8.69189 27.3291ZM5.81689 27.4287V27.4859V27.4287ZM5.14111 27.3496L5.10906 27.3969L5.10907 27.3969L5.14111 27.3496ZM4.94775 27.0547L4.89155 27.065L4.89156 27.0651L4.94775 27.0547ZM5.14697 26.4033L5.09464 26.3804L5.09463 26.3804L5.14697 26.4033ZM5.85009 24.7998L5.90243 24.8228L5.91249 24.7998L5.90243 24.7769L5.85009 24.7998ZM5.14697 23.1963L5.09463 23.2192L5.09464 23.2192L5.14697 23.1963ZM4.94775 22.5459L4.89155 22.5356L4.89155 22.5356L4.94775 22.5459ZM5.14111 22.25L5.10908 22.2027L5.10907 22.2027L5.14111 22.25ZM5.81689 22.1719V22.1147V22.1719ZM28.4829 22.25L28.5149 22.2027L28.5149 22.2026L28.4829 22.25ZM28.6763 22.5459L28.7325 22.5356L28.7325 22.5356L28.6763 22.5459ZM28.477 23.1963L28.5294 23.2192L28.5294 23.2192L28.477 23.1963ZM27.7739 24.7998L27.7216 24.7769L27.7115 24.7998L27.7216 24.8228L27.7739 24.7998ZM28.477 26.4033L28.5294 26.3804L28.5294 26.3804L28.477 26.4033ZM28.6763 27.0547L28.7325 27.0651L28.7325 27.065L28.6763 27.0547ZM28.4829 27.3496L28.5149 27.3969L28.5149 27.3969L28.4829 27.3496ZM25.896 27.4287V27.4859V27.4287ZM24.9321 27.3291L24.9062 27.38L24.9062 27.38L24.9321 27.3291ZM24.5327 26.9297L24.4818 26.9556L24.4818 26.9556L24.5327 26.9297ZM24.4331 25.9658H24.376H24.4331ZM24.5327 22.6709L24.4818 22.645L24.4818 22.645L24.5327 22.6709ZM24.9321 22.2715L24.9062 22.2206L24.9062 22.2206L24.9321 22.2715ZM25.896 22.1719V22.1147V22.1719ZM7.72802 22.1719V22.229C7.98499 22.229 8.17434 22.2291 8.32399 22.2413C8.47297 22.2534 8.57756 22.2774 8.66595 22.3224L8.69189 22.2715L8.71783 22.2206C8.61064 22.166 8.48932 22.1401 8.33328 22.1274C8.1779 22.1147 7.9831 22.1147 7.72802 22.1147V22.1719ZM8.69189 22.2715L8.66594 22.3224C8.82715 22.4046 8.95825 22.5356 9.04039 22.6968L9.0913 22.6709L9.14222 22.645C9.04911 22.4622 8.90053 22.3137 8.71784 22.2206L8.69189 22.2715ZM9.0913 22.6709L9.04038 22.6968C9.08538 22.7852 9.10932 22.8898 9.12149 23.0389C9.13372 23.1885 9.13377 23.3779 9.13377 23.6348H9.19091H9.24806C9.24806 23.3798 9.24809 23.1849 9.2354 23.0295C9.22266 22.8735 9.1968 22.7521 9.14223 22.645L9.0913 22.6709ZM9.19091 23.6348H9.13377V25.9658H9.19091H9.24806V23.6348H9.19091ZM9.19091 25.9658H9.13377C9.13377 26.2228 9.13374 26.4121 9.12152 26.5618C9.10936 26.7108 9.08542 26.8154 9.04039 26.9037L9.0913 26.9297L9.14222 26.9556C9.19683 26.8484 9.22269 26.7271 9.23543 26.5711C9.24811 26.4157 9.24806 26.2209 9.24806 25.9658H9.19091ZM9.0913 26.9297L9.0404 26.9037C8.9582 27.0649 8.82712 27.1961 8.66595 27.2782L8.69189 27.3291L8.71783 27.38C8.90053 27.2869 9.04908 27.1383 9.14221 26.9556L9.0913 26.9297ZM8.69189 27.3291L8.66595 27.2782C8.57757 27.3232 8.47297 27.3472 8.32397 27.3593C8.17432 27.3715 7.98497 27.3716 7.72802 27.3716V27.4287V27.4859C7.98308 27.4859 8.17789 27.4859 8.33327 27.4732C8.48931 27.4605 8.61064 27.4346 8.71783 27.38L8.69189 27.3291ZM7.72802 27.4287V27.3716H5.81689V27.4287V27.4859H7.72802V27.4287ZM5.81689 27.4287V27.3716C5.62925 27.3716 5.4924 27.3714 5.38785 27.3617C5.28336 27.3521 5.21924 27.3335 5.17315 27.3023L5.14111 27.3496L5.10907 27.3969C5.17905 27.4443 5.26624 27.4653 5.37734 27.4755C5.48837 27.4858 5.63137 27.4859 5.81689 27.4859V27.4287ZM5.14111 27.3496L5.17316 27.3023C5.08444 27.2422 5.0234 27.1494 5.00394 27.0443L4.94775 27.0547L4.89156 27.0651C4.91664 27.2005 4.99525 27.3198 5.10906 27.3969L5.14111 27.3496ZM4.94775 27.0547L5.00395 27.0443C4.99387 26.9896 5.00266 26.9233 5.03587 26.8235C5.06909 26.7237 5.12396 26.5982 5.19931 26.4263L5.14697 26.4033L5.09463 26.3804C5.02014 26.5503 4.9627 26.6815 4.92743 26.7874C4.89215 26.8934 4.87624 26.9819 4.89155 27.065L4.94775 27.0547ZM5.14697 26.4033L5.1993 26.4263L5.90243 24.8228L5.85009 24.7998L5.79776 24.7769L5.09464 26.3804L5.14697 26.4033ZM5.85009 24.7998L5.90243 24.7769L5.1993 23.1733L5.14697 23.1963L5.09464 23.2192L5.79776 24.8228L5.85009 24.7998ZM5.14697 23.1963L5.19931 23.1734C5.124 23.0015 5.06915 22.8762 5.03592 22.7766C5.0027 22.677 4.9939 22.6109 5.00395 22.5562L4.94775 22.5459L4.89155 22.5356C4.87627 22.6187 4.89221 22.707 4.92751 22.8128C4.96278 22.9185 5.0202 23.0494 5.09463 23.2192L5.14697 23.1963ZM4.94775 22.5459L5.00395 22.5562C5.02336 22.4508 5.08437 22.3574 5.17315 22.2973L5.14111 22.25L5.10907 22.2027C4.99492 22.28 4.91651 22.4 4.89155 22.5356L4.94775 22.5459ZM5.14111 22.25L5.17314 22.2973C5.21915 22.2662 5.28319 22.2478 5.38774 22.2384C5.49236 22.229 5.6292 22.229 5.81689 22.229V22.1719V22.1147C5.63147 22.1147 5.48847 22.1146 5.37749 22.1246C5.26644 22.1346 5.17915 22.1553 5.10908 22.2027L5.14111 22.25ZM5.81689 22.1719V22.229H7.72802V22.1719V22.1147H5.81689V22.1719ZM27.8071 22.1719V22.229C27.9948 22.229 28.1316 22.229 28.2362 22.2384C28.3408 22.2479 28.4049 22.2662 28.4509 22.2974L28.4829 22.25L28.5149 22.2026C28.4448 22.1553 28.3575 22.1346 28.2465 22.1246C28.1355 22.1146 27.9925 22.1147 27.8071 22.1147V22.1719ZM28.4829 22.25L28.4509 22.2973C28.5396 22.3574 28.6007 22.4508 28.6201 22.5562L28.6763 22.5459L28.7325 22.5356C28.7075 22.4 28.6291 22.28 28.5149 22.2027L28.4829 22.25ZM28.6763 22.5459L28.6201 22.5562C28.6301 22.6109 28.6213 22.677 28.5881 22.7765C28.5549 22.8761 28.5 23.0015 28.4247 23.1734L28.477 23.1963L28.5294 23.2192C28.6038 23.0494 28.6613 22.9184 28.6965 22.8127C28.7318 22.7069 28.7478 22.6187 28.7325 22.5356L28.6763 22.5459ZM28.477 23.1963L28.4247 23.1733L27.7216 24.7769L27.7739 24.7998L27.8263 24.8228L28.5294 23.2192L28.477 23.1963ZM27.7739 24.7998L27.7216 24.8228L28.4247 26.4263L28.477 26.4033L28.5294 26.3804L27.8263 24.7769L27.7739 24.7998ZM28.477 26.4033L28.4247 26.4263C28.5001 26.5982 28.5549 26.7237 28.5882 26.8235C28.6214 26.9233 28.6301 26.9896 28.6201 27.0443L28.6763 27.0547L28.7325 27.065C28.7478 26.9819 28.7319 26.8934 28.6966 26.7874C28.6613 26.6815 28.6039 26.5503 28.5294 26.3804L28.477 26.4033ZM28.6763 27.0547L28.6201 27.0443C28.6006 27.1494 28.5396 27.2422 28.4509 27.3023L28.4829 27.3496L28.5149 27.3969C28.6288 27.3198 28.7074 27.2005 28.7325 27.0651L28.6763 27.0547ZM28.4829 27.3496L28.4509 27.3023C28.4048 27.3335 28.3406 27.3521 28.2362 27.3617C28.1316 27.3714 27.9948 27.3716 27.8071 27.3716V27.4287V27.4859C27.9927 27.4859 28.1357 27.4858 28.2467 27.4755C28.3578 27.4653 28.4449 27.4443 28.5149 27.3969L28.4829 27.3496ZM27.8071 27.4287V27.3716H25.896V27.4287V27.4859H27.8071V27.4287ZM25.896 27.4287V27.3716C25.6391 27.3716 25.4497 27.3715 25.3 27.3593C25.1511 27.3472 25.0464 27.3232 24.9581 27.2782L24.9321 27.3291L24.9062 27.38C25.0134 27.4346 25.1347 27.4605 25.2908 27.4732C25.4461 27.4859 25.6409 27.4859 25.896 27.4859V27.4287ZM24.9321 27.3291L24.9581 27.2782C24.7969 27.196 24.6658 27.0649 24.5836 26.9037L24.5327 26.9297L24.4818 26.9556C24.5749 27.1383 24.7235 27.2869 24.9062 27.38L24.9321 27.3291ZM24.5327 26.9297L24.5836 26.9037C24.5386 26.8154 24.5147 26.7108 24.5025 26.5618C24.4903 26.4121 24.4902 26.2228 24.4902 25.9658H24.4331H24.376C24.376 26.2209 24.3759 26.4157 24.3886 26.5711C24.4013 26.7271 24.4272 26.8484 24.4818 26.9556L24.5327 26.9297ZM24.4331 25.9658H24.4902V23.6348H24.4331H24.376V25.9658H24.4331ZM24.4331 23.6348H24.4902C24.4902 23.3779 24.4903 23.1886 24.5025 23.0389C24.5147 22.8899 24.5387 22.7852 24.5836 22.6968L24.5327 22.6709L24.4818 22.645C24.4272 22.7521 24.4014 22.8735 24.3886 23.0296C24.3759 23.185 24.376 23.3798 24.376 23.6348H24.4331ZM24.5327 22.6709L24.5836 22.6968C24.6657 22.5357 24.797 22.4046 24.9581 22.3224L24.9321 22.2715L24.9062 22.2206C24.7236 22.3137 24.5749 22.4623 24.4818 22.645L24.5327 22.6709ZM24.9321 22.2715L24.9581 22.3224C25.0464 22.2774 25.1511 22.2534 25.3 22.2413C25.4497 22.2291 25.6391 22.229 25.896 22.229V22.1719V22.1147C25.6409 22.1147 25.4461 22.1147 25.2908 22.1274C25.1347 22.1401 25.0134 22.166 24.9062 22.2206L24.9321 22.2715ZM25.896 22.1719V22.229H27.8071V22.1719V22.1147H25.896V22.1719Z" fill="url(#paint10_linear_10_10838)" style="mix-blend-mode:darken" mask="url(#path-16-inside-2_10_10838)"/>
</g>
<path d="M7.72802 22.1719C8.24007 22.1719 8.49631 22.1718 8.69189 22.2715C8.86384 22.3591 9.00368 22.4989 9.0913 22.6709C9.19087 22.8665 9.19091 23.1229 9.19091 23.6348V25.9658C9.19091 26.4778 9.19095 26.7341 9.0913 26.9297C9.00364 27.1016 8.86382 27.2415 8.69189 27.3291C8.49632 27.4287 8.24003 27.4287 7.72802 27.4287H5.81689C5.44373 27.4287 5.25719 27.4282 5.14111 27.3496C5.03985 27.281 4.97002 27.175 4.94775 27.0547C4.92236 26.9168 4.99713 26.7452 5.14697 26.4033L5.85009 24.7998L5.14697 23.1963C4.99723 22.8547 4.92243 22.6837 4.94775 22.5459C4.96994 22.4254 5.03964 22.3187 5.14111 22.25C5.25719 22.1714 5.44378 22.1719 5.81689 22.1719H7.72802ZM27.8071 22.1719C28.1801 22.1719 28.3668 22.1716 28.4829 22.25C28.5844 22.3187 28.6541 22.4254 28.6763 22.5459C28.7016 22.6838 28.6268 22.8545 28.477 23.1963L27.7739 24.7998L28.477 26.4033C28.6269 26.7452 28.7017 26.9168 28.6763 27.0547C28.654 27.175 28.5842 27.281 28.4829 27.3496C28.3668 27.4282 28.1803 27.4287 27.8071 27.4287H25.896C25.384 27.4287 25.1277 27.4287 24.9321 27.3291C24.7602 27.2415 24.6203 27.1016 24.5327 26.9297C24.4331 26.7341 24.4331 26.4778 24.4331 25.9658V23.6348C24.4331 23.123 24.4332 22.8664 24.5327 22.6709C24.6203 22.499 24.7603 22.3592 24.9321 22.2715C25.1277 22.1718 25.384 22.1719 25.896 22.1719H27.8071Z" fill="url(#paint11_linear_10_10838)" fill-opacity="0.3" style="mix-blend-mode:overlay"/>
<path d="M7.72802 22.1719C8.24007 22.1719 8.49631 22.1718 8.69189 22.2715C8.86384 22.3591 9.00368 22.4989 9.0913 22.6709C9.19087 22.8665 9.19091 23.1229 9.19091 23.6348V25.9658C9.19091 26.4778 9.19095 26.7341 9.0913 26.9297C9.00364 27.1016 8.86382 27.2415 8.69189 27.3291C8.49632 27.4287 8.24003 27.4287 7.72802 27.4287H5.81689C5.44373 27.4287 5.25719 27.4282 5.14111 27.3496C5.03985 27.281 4.97002 27.175 4.94775 27.0547C4.92236 26.9168 4.99713 26.7452 5.14697 26.4033L5.85009 24.7998L5.14697 23.1963C4.99723 22.8547 4.92243 22.6837 4.94775 22.5459C4.96994 22.4254 5.03964 22.3187 5.14111 22.25C5.25719 22.1714 5.44378 22.1719 5.81689 22.1719H7.72802ZM27.8071 22.1719C28.1801 22.1719 28.3668 22.1716 28.4829 22.25C28.5844 22.3187 28.6541 22.4254 28.6763 22.5459C28.7016 22.6838 28.6268 22.8545 28.477 23.1963L27.7739 24.7998L28.477 26.4033C28.6269 26.7452 28.7017 26.9168 28.6763 27.0547C28.654 27.175 28.5842 27.281 28.4829 27.3496C28.3668 27.4282 28.1803 27.4287 27.8071 27.4287H25.896C25.384 27.4287 25.1277 27.4287 24.9321 27.3291C24.7602 27.2415 24.6203 27.1016 24.5327 26.9297C24.4331 26.7341 24.4331 26.4778 24.4331 25.9658V23.6348C24.4331 23.123 24.4332 22.8664 24.5327 22.6709C24.6203 22.499 24.7603 22.3592 24.9321 22.2715C25.1277 22.1718 25.384 22.1719 25.896 22.1719H27.8071Z" fill="url(#paint12_radial_10_10838)" fill-opacity="0.6" style="mix-blend-mode:overlay"/>
<path d="M7.72802 22.1719C8.24007 22.1719 8.49631 22.1718 8.69189 22.2715C8.86384 22.3591 9.00368 22.4989 9.0913 22.6709C9.19087 22.8665 9.19091 23.1229 9.19091 23.6348V25.9658C9.19091 26.4778 9.19095 26.7341 9.0913 26.9297C9.00364 27.1016 8.86382 27.2415 8.69189 27.3291C8.49632 27.4287 8.24003 27.4287 7.72802 27.4287H5.81689C5.44373 27.4287 5.25719 27.4282 5.14111 27.3496C5.03985 27.281 4.97002 27.175 4.94775 27.0547C4.92236 26.9168 4.99713 26.7452 5.14697 26.4033L5.85009 24.7998L5.14697 23.1963C4.99723 22.8547 4.92243 22.6837 4.94775 22.5459C4.96994 22.4254 5.03964 22.3187 5.14111 22.25C5.25719 22.1714 5.44378 22.1719 5.81689 22.1719H7.72802ZM27.8071 22.1719C28.1801 22.1719 28.3668 22.1716 28.4829 22.25C28.5844 22.3187 28.6541 22.4254 28.6763 22.5459C28.7016 22.6838 28.6268 22.8545 28.477 23.1963L27.7739 24.7998L28.477 26.4033C28.6269 26.7452 28.7017 26.9168 28.6763 27.0547C28.654 27.175 28.5842 27.281 28.4829 27.3496C28.3668 27.4282 28.1803 27.4287 27.8071 27.4287H25.896C25.384 27.4287 25.1277 27.4287 24.9321 27.3291C24.7602 27.2415 24.6203 27.1016 24.5327 26.9297C24.4331 26.7341 24.4331 26.4778 24.4331 25.9658V23.6348C24.4331 23.123 24.4332 22.8664 24.5327 22.6709C24.6203 22.499 24.7603 22.3592 24.9321 22.2715C25.1277 22.1718 25.384 22.1719 25.896 22.1719H27.8071Z" fill="black" fill-opacity="0.24" style="mix-blend-mode:overlay"/>
<path d="M7.72802 22.1719C8.24007 22.1719 8.49631 22.1718 8.69189 22.2715C8.86384 22.3591 9.00368 22.4989 9.0913 22.6709C9.19087 22.8665 9.19091 23.1229 9.19091 23.6348V25.9658C9.19091 26.4778 9.19095 26.7341 9.0913 26.9297C9.00364 27.1016 8.86382 27.2415 8.69189 27.3291C8.49632 27.4287 8.24003 27.4287 7.72802 27.4287H5.81689C5.44373 27.4287 5.25719 27.4282 5.14111 27.3496C5.03985 27.281 4.97002 27.175 4.94775 27.0547C4.92236 26.9168 4.99713 26.7452 5.14697 26.4033L5.85009 24.7998L5.14697 23.1963C4.99723 22.8547 4.92243 22.6837 4.94775 22.5459C4.96994 22.4254 5.03964 22.3187 5.14111 22.25C5.25719 22.1714 5.44378 22.1719 5.81689 22.1719H7.72802ZM27.8071 22.1719C28.1801 22.1719 28.3668 22.1716 28.4829 22.25C28.5844 22.3187 28.6541 22.4254 28.6763 22.5459C28.7016 22.6838 28.6268 22.8545 28.477 23.1963L27.7739 24.7998L28.477 26.4033C28.6269 26.7452 28.7017 26.9168 28.6763 27.0547C28.654 27.175 28.5842 27.281 28.4829 27.3496C28.3668 27.4282 28.1803 27.4287 27.8071 27.4287H25.896C25.384 27.4287 25.1277 27.4287 24.9321 27.3291C24.7602 27.2415 24.6203 27.1016 24.5327 26.9297C24.4331 26.7341 24.4331 26.4778 24.4331 25.9658V23.6348C24.4331 23.123 24.4332 22.8664 24.5327 22.6709C24.6203 22.499 24.7603 22.3592 24.9321 22.2715C25.1277 22.1718 25.384 22.1719 25.896 22.1719H27.8071Z" fill="black" fill-opacity="0.12" style="mix-blend-mode:darken"/>
<g filter="url(#filter4_dd_10_10838)">
<rect x="6.75513" y="20.7998" width="20.1143" height="5.25714" rx="0.914286" fill="#6B39D5"/>
<rect x="6.7837" y="20.8284" width="20.0571" height="5.2" rx="0.885714" stroke="url(#paint13_linear_10_10838)" stroke-width="0.0571429" stroke-linecap="round" style="mix-blend-mode:darken"/>
</g>
<rect x="6.75513" y="20.7998" width="20.1143" height="5.25714" rx="0.914286" fill="url(#paint14_linear_10_10838)" fill-opacity="0.3" style="mix-blend-mode:overlay"/>
<rect x="6.75513" y="20.7998" width="20.1143" height="5.25714" rx="0.914286" fill="url(#paint15_radial_10_10838)" fill-opacity="0.6" style="mix-blend-mode:overlay"/>
<circle cx="8.01205" cy="23.4288" r="0.371429" fill="white"/>
<circle cx="8.01205" cy="23.4288" r="0.371429" stroke="url(#paint16_linear_10_10838)" stroke-width="0.0571429" stroke-linecap="round" style="mix-blend-mode:darken"/>
<mask id="path-24-outside-3_10_10838" maskUnits="userSpaceOnUse" x="12.7551" y="22.0576" width="8" height="3" fill="black">
<rect fill="white" x="12.7551" y="22.0576" width="8" height="3"/>
<path d="M14.9948 23.2375V23.808C14.9948 23.8592 14.9847 23.8985 14.9646 23.926C14.9463 23.9516 14.9152 23.9762 14.8714 24C14.822 24.0274 14.7507 24.0512 14.6574 24.0713C14.5642 24.0933 14.4709 24.1042 14.3776 24.1042C14.2021 24.1042 14.0439 24.0741 13.9031 24.0137C13.7642 23.9516 13.6535 23.8565 13.5712 23.7285C13.4908 23.5986 13.4506 23.4322 13.4506 23.2293C13.4506 23.0354 13.4917 22.8736 13.574 22.7438C13.6563 22.6121 13.7669 22.5134 13.9059 22.4476C14.0467 22.3799 14.2021 22.3461 14.3722 22.3461C14.4855 22.3461 14.5834 22.358 14.6656 22.3817C14.7498 22.4055 14.8138 22.4384 14.8576 22.4805C14.9034 22.5225 14.9262 22.571 14.9262 22.6258C14.9262 22.6661 14.9152 22.7026 14.8933 22.7356C14.8732 22.7666 14.8485 22.7904 14.8192 22.8069C14.7735 22.7776 14.7159 22.7502 14.6464 22.7246C14.577 22.699 14.4956 22.6862 14.4023 22.6862C14.3018 22.6862 14.2112 22.7081 14.1308 22.752C14.0522 22.7941 13.9909 22.8562 13.947 22.9385C13.9031 23.019 13.8812 23.115 13.8812 23.2265C13.8812 23.3472 13.9022 23.4478 13.9443 23.5282C13.9882 23.6087 14.0476 23.669 14.1226 23.7093C14.1994 23.7477 14.2862 23.7669 14.3831 23.7669C14.4288 23.7669 14.47 23.7623 14.5066 23.7532C14.545 23.744 14.5742 23.7349 14.5943 23.7257V23.4048H14.2734C14.2624 23.3865 14.2524 23.3637 14.2432 23.3362C14.2341 23.307 14.2295 23.2759 14.2295 23.243C14.2295 23.1863 14.2423 23.1452 14.2679 23.1196C14.2954 23.0921 14.331 23.0784 14.3749 23.0784H14.8357C14.8851 23.0784 14.9235 23.0921 14.9509 23.1196C14.9802 23.147 14.9948 23.1863 14.9948 23.2375ZM16.9565 23.2238C16.9565 23.414 16.919 23.5749 16.844 23.7065C16.7709 23.8364 16.6694 23.9351 16.5396 24.0028C16.4116 24.0704 16.2662 24.1042 16.1035 24.1042C15.9407 24.1042 15.7953 24.0704 15.6673 24.0028C15.5393 23.9351 15.4388 23.8364 15.3656 23.7065C15.2925 23.5749 15.2559 23.414 15.2559 23.2238C15.2559 23.0336 15.2934 22.8736 15.3684 22.7438C15.4433 22.6121 15.5448 22.5134 15.6728 22.4476C15.8008 22.3799 15.9444 22.3461 16.1035 22.3461C16.2644 22.3461 16.4088 22.3799 16.5368 22.4476C16.6667 22.5134 16.7691 22.6121 16.844 22.7438C16.919 22.8736 16.9565 23.0336 16.9565 23.2238ZM16.5259 23.2238C16.5259 23.0482 16.4875 22.9148 16.4107 22.8233C16.3357 22.7319 16.2333 22.6862 16.1035 22.6862C15.9791 22.6862 15.8785 22.7319 15.8017 22.8233C15.7249 22.9129 15.6865 23.0464 15.6865 23.2238C15.6865 23.403 15.724 23.5383 15.799 23.6297C15.8758 23.7193 15.9782 23.7641 16.1062 23.7641C16.2342 23.7641 16.3357 23.7193 16.4107 23.6297C16.4875 23.5383 16.5259 23.403 16.5259 23.2238ZM17.2615 22.9029H17.6784V24.0412L17.4836 24.0631C17.416 24.0631 17.362 24.043 17.3218 24.0028C17.2816 23.9625 17.2615 23.9086 17.2615 23.8409V22.9029ZM17.4836 24.0631V23.723H18.3449C18.3577 23.7413 18.3687 23.765 18.3778 23.7943C18.387 23.8217 18.3915 23.8528 18.3915 23.8876C18.3915 23.9461 18.3787 23.99 18.3531 24.0192C18.3275 24.0485 18.2919 24.0631 18.2462 24.0631H17.4836ZM17.6784 23.424H17.2615V22.39C17.2798 22.3863 17.3072 22.3817 17.3438 22.3762C17.3822 22.3708 17.4187 22.368 17.4535 22.368C17.5339 22.368 17.5915 22.3817 17.6263 22.4092C17.661 22.4366 17.6784 22.4887 17.6784 22.5655V23.424ZM19.7431 23.2265C19.7431 23.104 19.7221 23.0034 19.68 22.9248C19.6398 22.8462 19.5831 22.7877 19.51 22.7493C19.4387 22.709 19.3555 22.6889 19.2604 22.6889C19.2275 22.6889 19.1955 22.6908 19.1644 22.6944C19.1351 22.6962 19.1049 22.699 19.0739 22.7026V23.7422C19.1013 23.7477 19.1324 23.7522 19.1671 23.7559C19.2019 23.7577 19.2348 23.7586 19.2659 23.7586C19.4103 23.7586 19.5255 23.7138 19.6115 23.6242C19.6992 23.5346 19.7431 23.4021 19.7431 23.2265ZM20.1737 23.2183C20.1737 23.4158 20.1353 23.5794 20.0585 23.7093C19.9836 23.8391 19.8775 23.9369 19.7404 24.0028C19.6051 24.0668 19.446 24.0988 19.2631 24.0988C19.2028 24.0988 19.1287 24.0942 19.0409 24.085C18.9532 24.0777 18.8736 24.0613 18.8023 24.0357C18.7072 24.0009 18.6597 23.9397 18.6597 23.8519V22.5408C18.6597 22.5042 18.6697 22.4768 18.6899 22.4585C18.71 22.4384 18.7365 22.422 18.7694 22.4092C18.8425 22.3854 18.9212 22.3698 19.0053 22.3625C19.0894 22.3552 19.1662 22.3516 19.2357 22.3516C19.424 22.3516 19.5877 22.3836 19.7267 22.4476C19.8675 22.5097 19.9772 22.6048 20.0558 22.7328C20.1344 22.8608 20.1737 23.0226 20.1737 23.2183Z"/>
</mask>
<path d="M14.9948 23.2375V23.808C14.9948 23.8592 14.9847 23.8985 14.9646 23.926C14.9463 23.9516 14.9152 23.9762 14.8714 24C14.822 24.0274 14.7507 24.0512 14.6574 24.0713C14.5642 24.0933 14.4709 24.1042 14.3776 24.1042C14.2021 24.1042 14.0439 24.0741 13.9031 24.0137C13.7642 23.9516 13.6535 23.8565 13.5712 23.7285C13.4908 23.5986 13.4506 23.4322 13.4506 23.2293C13.4506 23.0354 13.4917 22.8736 13.574 22.7438C13.6563 22.6121 13.7669 22.5134 13.9059 22.4476C14.0467 22.3799 14.2021 22.3461 14.3722 22.3461C14.4855 22.3461 14.5834 22.358 14.6656 22.3817C14.7498 22.4055 14.8138 22.4384 14.8576 22.4805C14.9034 22.5225 14.9262 22.571 14.9262 22.6258C14.9262 22.6661 14.9152 22.7026 14.8933 22.7356C14.8732 22.7666 14.8485 22.7904 14.8192 22.8069C14.7735 22.7776 14.7159 22.7502 14.6464 22.7246C14.577 22.699 14.4956 22.6862 14.4023 22.6862C14.3018 22.6862 14.2112 22.7081 14.1308 22.752C14.0522 22.7941 13.9909 22.8562 13.947 22.9385C13.9031 23.019 13.8812 23.115 13.8812 23.2265C13.8812 23.3472 13.9022 23.4478 13.9443 23.5282C13.9882 23.6087 14.0476 23.669 14.1226 23.7093C14.1994 23.7477 14.2862 23.7669 14.3831 23.7669C14.4288 23.7669 14.47 23.7623 14.5066 23.7532C14.545 23.744 14.5742 23.7349 14.5943 23.7257V23.4048H14.2734C14.2624 23.3865 14.2524 23.3637 14.2432 23.3362C14.2341 23.307 14.2295 23.2759 14.2295 23.243C14.2295 23.1863 14.2423 23.1452 14.2679 23.1196C14.2954 23.0921 14.331 23.0784 14.3749 23.0784H14.8357C14.8851 23.0784 14.9235 23.0921 14.9509 23.1196C14.9802 23.147 14.9948 23.1863 14.9948 23.2375ZM16.9565 23.2238C16.9565 23.414 16.919 23.5749 16.844 23.7065C16.7709 23.8364 16.6694 23.9351 16.5396 24.0028C16.4116 24.0704 16.2662 24.1042 16.1035 24.1042C15.9407 24.1042 15.7953 24.0704 15.6673 24.0028C15.5393 23.9351 15.4388 23.8364 15.3656 23.7065C15.2925 23.5749 15.2559 23.414 15.2559 23.2238C15.2559 23.0336 15.2934 22.8736 15.3684 22.7438C15.4433 22.6121 15.5448 22.5134 15.6728 22.4476C15.8008 22.3799 15.9444 22.3461 16.1035 22.3461C16.2644 22.3461 16.4088 22.3799 16.5368 22.4476C16.6667 22.5134 16.7691 22.6121 16.844 22.7438C16.919 22.8736 16.9565 23.0336 16.9565 23.2238ZM16.5259 23.2238C16.5259 23.0482 16.4875 22.9148 16.4107 22.8233C16.3357 22.7319 16.2333 22.6862 16.1035 22.6862C15.9791 22.6862 15.8785 22.7319 15.8017 22.8233C15.7249 22.9129 15.6865 23.0464 15.6865 23.2238C15.6865 23.403 15.724 23.5383 15.799 23.6297C15.8758 23.7193 15.9782 23.7641 16.1062 23.7641C16.2342 23.7641 16.3357 23.7193 16.4107 23.6297C16.4875 23.5383 16.5259 23.403 16.5259 23.2238ZM17.2615 22.9029H17.6784V24.0412L17.4836 24.0631C17.416 24.0631 17.362 24.043 17.3218 24.0028C17.2816 23.9625 17.2615 23.9086 17.2615 23.8409V22.9029ZM17.4836 24.0631V23.723H18.3449C18.3577 23.7413 18.3687 23.765 18.3778 23.7943C18.387 23.8217 18.3915 23.8528 18.3915 23.8876C18.3915 23.9461 18.3787 23.99 18.3531 24.0192C18.3275 24.0485 18.2919 24.0631 18.2462 24.0631H17.4836ZM17.6784 23.424H17.2615V22.39C17.2798 22.3863 17.3072 22.3817 17.3438 22.3762C17.3822 22.3708 17.4187 22.368 17.4535 22.368C17.5339 22.368 17.5915 22.3817 17.6263 22.4092C17.661 22.4366 17.6784 22.4887 17.6784 22.5655V23.424ZM19.7431 23.2265C19.7431 23.104 19.7221 23.0034 19.68 22.9248C19.6398 22.8462 19.5831 22.7877 19.51 22.7493C19.4387 22.709 19.3555 22.6889 19.2604 22.6889C19.2275 22.6889 19.1955 22.6908 19.1644 22.6944C19.1351 22.6962 19.1049 22.699 19.0739 22.7026V23.7422C19.1013 23.7477 19.1324 23.7522 19.1671 23.7559C19.2019 23.7577 19.2348 23.7586 19.2659 23.7586C19.4103 23.7586 19.5255 23.7138 19.6115 23.6242C19.6992 23.5346 19.7431 23.4021 19.7431 23.2265ZM20.1737 23.2183C20.1737 23.4158 20.1353 23.5794 20.0585 23.7093C19.9836 23.8391 19.8775 23.9369 19.7404 24.0028C19.6051 24.0668 19.446 24.0988 19.2631 24.0988C19.2028 24.0988 19.1287 24.0942 19.0409 24.085C18.9532 24.0777 18.8736 24.0613 18.8023 24.0357C18.7072 24.0009 18.6597 23.9397 18.6597 23.8519V22.5408C18.6597 22.5042 18.6697 22.4768 18.6899 22.4585C18.71 22.4384 18.7365 22.422 18.7694 22.4092C18.8425 22.3854 18.9212 22.3698 19.0053 22.3625C19.0894 22.3552 19.1662 22.3516 19.2357 22.3516C19.424 22.3516 19.5877 22.3836 19.7267 22.4476C19.8675 22.5097 19.9772 22.6048 20.0558 22.7328C20.1344 22.8608 20.1737 23.0226 20.1737 23.2183Z" fill="white"/>
<path d="M14.9646 23.926L14.9185 23.8922L14.9181 23.8927L14.9646 23.926ZM14.8714 24L14.8441 23.9498L14.8436 23.9501L14.8714 24ZM14.6574 24.0713L14.6454 24.0155L14.6443 24.0157L14.6574 24.0713ZM13.9031 24.0137L13.8798 24.0659L13.8806 24.0663L13.9031 24.0137ZM13.5712 23.7285L13.5227 23.7586L13.5232 23.7594L13.5712 23.7285ZM13.574 22.7438L13.6223 22.7744L13.6224 22.7741L13.574 22.7438ZM13.9059 22.4476L13.9303 22.4992L13.9306 22.4991L13.9059 22.4476ZM14.6656 22.3817L14.6498 22.4366L14.6501 22.4367L14.6656 22.3817ZM14.8576 22.4805L14.8181 22.5217L14.819 22.5225L14.8576 22.4805ZM14.8933 22.7356L14.8457 22.7039L14.8453 22.7045L14.8933 22.7356ZM14.8192 22.8069L14.7884 22.855L14.8173 22.8735L14.8473 22.8567L14.8192 22.8069ZM14.6464 22.7246L14.6662 22.671L14.6464 22.7246ZM14.1308 22.752L14.1577 22.8024L14.1581 22.8022L14.1308 22.752ZM13.947 22.9385L13.9972 22.9659L13.9974 22.9654L13.947 22.9385ZM13.9443 23.5282L13.8936 23.5547L13.8941 23.5556L13.9443 23.5282ZM14.1226 23.7093L14.0955 23.7596L14.097 23.7604L14.1226 23.7093ZM14.5066 23.7532L14.4933 23.6976L14.4927 23.6977L14.5066 23.7532ZM14.5943 23.7257L14.618 23.7778L14.6515 23.7625V23.7257H14.5943ZM14.5943 23.4048H14.6515V23.3477H14.5943V23.4048ZM14.2734 23.4048L14.2244 23.4342L14.2411 23.462H14.2734V23.4048ZM14.2432 23.3362L14.1887 23.3533L14.189 23.3543L14.2432 23.3362ZM14.2679 23.1196L14.3083 23.16L14.2679 23.1196ZM14.9509 23.1196L14.9105 23.16L14.9118 23.1612L14.9509 23.1196ZM14.9948 23.2375H14.9376V23.808H14.9948H15.0519V23.2375H14.9948ZM14.9948 23.808H14.9376C14.9376 23.8529 14.9287 23.8784 14.9185 23.8922L14.9646 23.926L15.0107 23.9598C15.0408 23.9187 15.0519 23.8656 15.0519 23.808H14.9948ZM14.9646 23.926L14.9181 23.8927C14.907 23.9083 14.8844 23.928 14.8441 23.9498L14.8714 24L14.8986 24.0503C14.9461 24.0245 14.9857 23.9948 15.0111 23.9592L14.9646 23.926ZM14.8714 24L14.8436 23.9501C14.8014 23.9735 14.7364 23.9958 14.6454 24.0155L14.6574 24.0713L14.6695 24.1272C14.765 24.1066 14.8426 24.0814 14.8991 24.05L14.8714 24ZM14.6574 24.0713L14.6443 24.0157C14.5552 24.0367 14.4664 24.0471 14.3776 24.0471V24.1042V24.1614C14.4754 24.1614 14.5731 24.1499 14.6705 24.127L14.6574 24.0713ZM14.3776 24.1042V24.0471C14.2087 24.0471 14.0584 24.0181 13.9256 23.9612L13.9031 24.0137L13.8806 24.0663C14.0295 24.1301 14.1955 24.1614 14.3776 24.1614V24.1042ZM13.9031 24.0137L13.9265 23.9616C13.7976 23.9039 13.6956 23.8162 13.6193 23.6976L13.5712 23.7285L13.5232 23.7594C13.6115 23.8967 13.7307 23.9992 13.8798 24.0659L13.9031 24.0137ZM13.5712 23.7285L13.6198 23.6984C13.5465 23.5801 13.5077 23.425 13.5077 23.2293H13.4506H13.3934C13.3934 23.4395 13.4351 23.6172 13.5227 23.7586L13.5712 23.7285ZM13.4506 23.2293H13.5077C13.5077 23.0435 13.5471 22.8929 13.6222 22.7744L13.574 22.7438L13.5257 22.7132C13.4363 22.8543 13.3934 23.0274 13.3934 23.2293H13.4506ZM13.574 22.7438L13.6224 22.7741C13.699 22.6516 13.8013 22.5603 13.9303 22.4992L13.9059 22.4476L13.8814 22.3959C13.7325 22.4665 13.6135 22.5727 13.5255 22.7135L13.574 22.7438ZM13.9059 22.4476L13.9306 22.4991C14.063 22.4354 14.2099 22.4032 14.3722 22.4032V22.3461V22.2889C14.1943 22.2889 14.0303 22.3244 13.8811 22.3961L13.9059 22.4476ZM14.3722 22.3461V22.4032C14.4818 22.4032 14.574 22.4147 14.6498 22.4366L14.6656 22.3817L14.6815 22.3268C14.5927 22.3012 14.4893 22.2889 14.3722 22.2889V22.3461ZM14.6656 22.3817L14.6501 22.4367C14.7289 22.459 14.7833 22.4884 14.8181 22.5217L14.8576 22.4805L14.8972 22.4392C14.8442 22.3885 14.7706 22.352 14.6812 22.3267L14.6656 22.3817ZM14.8576 22.4805L14.819 22.5225C14.8546 22.5553 14.8691 22.5892 14.8691 22.6258H14.9262H14.9834C14.9834 22.5528 14.9521 22.4897 14.8963 22.4384L14.8576 22.4805ZM14.9262 22.6258H14.8691C14.8691 22.655 14.8613 22.6805 14.8458 22.7039L14.8933 22.7356L14.9408 22.7673C14.9692 22.7248 14.9834 22.6772 14.9834 22.6258H14.9262ZM14.8933 22.7356L14.8453 22.7045C14.8297 22.7286 14.8116 22.7456 14.7912 22.7571L14.8192 22.8069L14.8473 22.8567C14.8854 22.8352 14.9167 22.8047 14.9413 22.7666L14.8933 22.7356ZM14.8192 22.8069L14.85 22.7587C14.7999 22.7266 14.7383 22.6975 14.6662 22.671L14.6464 22.7246L14.6267 22.7782C14.6936 22.8029 14.7472 22.8286 14.7884 22.855L14.8192 22.8069ZM14.6464 22.7246L14.6662 22.671C14.589 22.6425 14.5007 22.629 14.4023 22.629V22.6862V22.7433C14.4905 22.7433 14.5649 22.7555 14.6267 22.7782L14.6464 22.7246ZM14.4023 22.6862V22.629C14.2931 22.629 14.1931 22.653 14.1034 22.7019L14.1308 22.752L14.1581 22.8022C14.2294 22.7633 14.3104 22.7433 14.4023 22.7433V22.6862ZM14.1308 22.752L14.1038 22.7016C14.0148 22.7493 13.9455 22.8199 13.8966 22.9116L13.947 22.9385L13.9974 22.9654C14.0363 22.8926 14.0896 22.8389 14.1577 22.8024L14.1308 22.752ZM13.947 22.9385L13.8968 22.9112C13.8475 23.0017 13.824 23.1075 13.824 23.2265H13.8812H13.9383C13.9383 23.1225 13.9588 23.0363 13.9972 22.9659L13.947 22.9385ZM13.8812 23.2265H13.824C13.824 23.3535 13.8461 23.4638 13.8936 23.5547L13.9443 23.5282L13.9949 23.5018C13.9583 23.4317 13.9383 23.3409 13.9383 23.2265H13.8812ZM13.9443 23.5282L13.8941 23.5556C13.9429 23.645 14.01 23.7137 14.0955 23.7596L14.1226 23.7093L14.1496 23.6589C14.0851 23.6244 14.0334 23.5724 13.9944 23.5009L13.9443 23.5282ZM14.1226 23.7093L14.097 23.7604C14.1827 23.8032 14.2785 23.824 14.3831 23.824V23.7669V23.7097C14.2939 23.7097 14.216 23.6921 14.1481 23.6582L14.1226 23.7093ZM14.3831 23.7669V23.824C14.4326 23.824 14.4785 23.8191 14.5204 23.8086L14.5066 23.7532L14.4927 23.6977C14.4615 23.7055 14.4251 23.7097 14.3831 23.7097V23.7669ZM14.5066 23.7532L14.5198 23.8087C14.5594 23.7993 14.5929 23.7892 14.618 23.7778L14.5943 23.7257L14.5707 23.6737C14.5555 23.6806 14.5305 23.6887 14.4933 23.6976L14.5066 23.7532ZM14.5943 23.7257H14.6515V23.4048H14.5943H14.5372V23.7257H14.5943ZM14.5943 23.4048V23.3477H14.2734V23.4048V23.462H14.5943V23.4048ZM14.2734 23.4048L14.3224 23.3754C14.3142 23.3617 14.3057 23.3429 14.2975 23.3182L14.2432 23.3362L14.189 23.3543C14.1991 23.3844 14.2107 23.4113 14.2244 23.4342L14.2734 23.4048ZM14.2432 23.3362L14.2978 23.3192C14.2905 23.2959 14.2867 23.2705 14.2867 23.243H14.2295H14.1724C14.1724 23.2813 14.1777 23.3181 14.1887 23.3533L14.2432 23.3362ZM14.2295 23.243H14.2867C14.2867 23.1931 14.2982 23.1701 14.3083 23.16L14.2679 23.1196L14.2275 23.0792C14.1865 23.1202 14.1724 23.1795 14.1724 23.243H14.2295ZM14.2679 23.1196L14.3083 23.16C14.3236 23.1447 14.344 23.1356 14.3749 23.1356V23.0784V23.0213C14.318 23.0213 14.2671 23.0396 14.2275 23.0792L14.2679 23.1196ZM14.3749 23.0784V23.1356H14.8357V23.0784V23.0213H14.3749V23.0784ZM14.8357 23.0784V23.1356C14.8743 23.1356 14.8965 23.146 14.9105 23.16L14.9509 23.1196L14.9913 23.0792C14.9504 23.0383 14.8959 23.0213 14.8357 23.0213V23.0784ZM14.9509 23.1196L14.9118 23.1612C14.9266 23.1751 14.9376 23.1975 14.9376 23.2375H14.9948H15.0519C15.0519 23.1751 15.0338 23.1189 14.99 23.0779L14.9509 23.1196ZM16.844 23.7065L16.7944 23.6783L16.7942 23.6785L16.844 23.7065ZM16.5396 24.0028L16.5132 23.9521L16.5129 23.9522L16.5396 24.0028ZM15.3656 23.7065L15.3157 23.7343L15.3158 23.7346L15.3656 23.7065ZM15.3684 22.7438L15.4179 22.7724L15.418 22.7721L15.3684 22.7438ZM15.6728 22.4476L15.699 22.4984L15.6995 22.4981L15.6728 22.4476ZM16.5368 22.4476L16.5101 22.4981L16.511 22.4985L16.5368 22.4476ZM16.844 22.7438L16.7944 22.7721L16.7945 22.7724L16.844 22.7438ZM16.4107 22.8233L16.3665 22.8596L16.3669 22.8601L16.4107 22.8233ZM15.8017 22.8233L15.8451 22.8605L15.8455 22.8601L15.8017 22.8233ZM15.799 23.6297L15.7548 23.666L15.7556 23.6669L15.799 23.6297ZM16.4107 23.6297L16.3669 23.593L16.3668 23.5931L16.4107 23.6297ZM16.9565 23.2238H16.8993C16.8993 23.4065 16.8633 23.5571 16.7944 23.6783L16.844 23.7065L16.8937 23.7348C16.9747 23.5926 17.0136 23.4214 17.0136 23.2238H16.9565ZM16.844 23.7065L16.7942 23.6785C16.7264 23.7988 16.633 23.8896 16.5132 23.9521L16.5396 24.0028L16.566 24.0534C16.7058 23.9806 16.8153 23.8739 16.8938 23.7346L16.844 23.7065ZM16.5396 24.0028L16.5129 23.9522C16.3941 24.015 16.2581 24.0471 16.1035 24.0471V24.1042V24.1614C16.2743 24.1614 16.4291 24.1258 16.5663 24.0533L16.5396 24.0028ZM16.1035 24.1042V24.0471C15.9488 24.0471 15.8128 24.015 15.694 23.9522L15.6673 24.0028L15.6406 24.0533C15.7778 24.1258 15.9326 24.1614 16.1035 24.1614V24.1042ZM15.6673 24.0028L15.694 23.9522C15.576 23.8899 15.4833 23.7991 15.4154 23.6785L15.3656 23.7065L15.3158 23.7346C15.3942 23.8737 15.5027 23.9803 15.6406 24.0533L15.6673 24.0028ZM15.3656 23.7065L15.4156 23.6788C15.3482 23.5576 15.3131 23.4068 15.3131 23.2238H15.2559H15.1988C15.1988 23.4212 15.2367 23.5922 15.3157 23.7343L15.3656 23.7065ZM15.2559 23.2238H15.3131C15.3131 23.041 15.3491 22.8915 15.4179 22.7724L15.3684 22.7438L15.3189 22.7152C15.2377 22.8558 15.1988 23.0262 15.1988 23.2238H15.2559ZM15.3684 22.7438L15.418 22.7721C15.4878 22.6495 15.5814 22.5589 15.699 22.4984L15.6728 22.4476L15.6467 22.3967C15.5083 22.4679 15.3989 22.5748 15.3187 22.7155L15.3684 22.7438ZM15.6728 22.4476L15.6995 22.4981C15.8185 22.4352 15.9527 22.4032 16.1035 22.4032V22.3461V22.2889C15.936 22.2889 15.7831 22.3246 15.6461 22.397L15.6728 22.4476ZM16.1035 22.3461V22.4032C16.2561 22.4032 16.3912 22.4352 16.5101 22.4981L16.5368 22.4476L16.5635 22.397C16.4264 22.3246 16.2726 22.2889 16.1035 22.2889V22.3461ZM16.5368 22.4476L16.511 22.4985C16.6304 22.5591 16.7247 22.6497 16.7944 22.7721L16.844 22.7438L16.8937 22.7155C16.8134 22.5745 16.7029 22.4677 16.5627 22.3966L16.5368 22.4476ZM16.844 22.7438L16.7945 22.7724C16.8633 22.8915 16.8993 23.041 16.8993 23.2238H16.9565H17.0136C17.0136 23.0262 16.9747 22.8558 16.8935 22.7152L16.844 22.7438ZM16.5259 23.2238H16.583C16.583 23.0409 16.5431 22.8922 16.4544 22.7866L16.4107 22.8233L16.3669 22.8601C16.4318 22.9373 16.4687 23.0555 16.4687 23.2238H16.5259ZM16.4107 22.8233L16.4548 22.7871C16.3679 22.681 16.2485 22.629 16.1035 22.629V22.6862V22.7433C16.2181 22.7433 16.3035 22.7828 16.3665 22.8596L16.4107 22.8233ZM16.1035 22.6862V22.629C15.963 22.629 15.8461 22.6816 15.758 22.7866L15.8017 22.8233L15.8455 22.8601C15.9109 22.7822 15.9952 22.7433 16.1035 22.7433V22.6862ZM15.8017 22.8233L15.7584 22.7861C15.6692 22.8902 15.6294 23.0394 15.6294 23.2238H15.6865H15.7437C15.7437 23.0534 15.7807 22.9356 15.8451 22.8605L15.8017 22.8233ZM15.6865 23.2238H15.6294C15.6294 23.4097 15.6681 23.5602 15.7548 23.666L15.799 23.6297L15.8432 23.5935C15.78 23.5164 15.7437 23.3963 15.7437 23.2238H15.6865ZM15.799 23.6297L15.7556 23.6669C15.8443 23.7703 15.9631 23.8213 16.1062 23.8213V23.7641V23.707C15.9933 23.707 15.9073 23.6683 15.8424 23.5925L15.799 23.6297ZM16.1062 23.7641V23.8213C16.2493 23.8213 16.3675 23.7703 16.4545 23.6664L16.4107 23.6297L16.3668 23.5931C16.3038 23.6683 16.2191 23.707 16.1062 23.707V23.7641ZM16.4107 23.6297L16.4544 23.6665C16.5433 23.5607 16.583 23.4099 16.583 23.2238H16.5259H16.4687C16.4687 23.396 16.4316 23.5159 16.3669 23.593L16.4107 23.6297ZM17.2615 22.9029V22.8457H17.2043V22.9029H17.2615ZM17.6784 22.9029H17.7355V22.8457H17.6784V22.9029ZM17.6784 24.0412L17.6848 24.0979L17.7355 24.0922V24.0412H17.6784ZM17.4836 24.0631V24.1206L17.49 24.1199L17.4836 24.0631ZM17.3218 24.0028L17.2814 24.0432L17.3218 24.0028ZM17.4836 24.0631H17.4265V24.1202H17.4836V24.0631ZM17.4836 23.723V23.6658H17.4265V23.723H17.4836ZM18.3449 23.723L18.3917 23.6902L18.3747 23.6658H18.3449V23.723ZM18.3778 23.7943L18.3233 23.8114L18.3236 23.8124L18.3778 23.7943ZM18.3531 24.0192L18.3961 24.0568L18.3531 24.0192ZM17.6784 23.424V23.4812H17.7355V23.424H17.6784ZM17.2615 23.424H17.2043V23.4812H17.2615V23.424ZM17.2615 22.39L17.2503 22.3339L17.2043 22.3431V22.39H17.2615ZM17.3438 22.3762L17.3357 22.3197L17.3353 22.3197L17.3438 22.3762ZM17.6263 22.4092L17.5909 22.454V22.454L17.6263 22.4092ZM17.2615 22.9029V22.96H17.6784V22.9029V22.8457H17.2615V22.9029ZM17.6784 22.9029H17.6212V24.0412H17.6784H17.7355V22.9029H17.6784ZM17.6784 24.0412L17.672 23.9844L17.4773 24.0063L17.4836 24.0631L17.49 24.1199L17.6848 24.0979L17.6784 24.0412ZM17.4836 24.0631V24.006C17.4281 24.006 17.3897 23.9899 17.3622 23.9624L17.3218 24.0028L17.2814 24.0432C17.3344 24.0961 17.4039 24.1202 17.4836 24.1202V24.0631ZM17.3218 24.0028L17.3622 23.9624C17.3347 23.9348 17.3186 23.8965 17.3186 23.8409H17.2615H17.2043C17.2043 23.9207 17.2285 23.9902 17.2814 24.0432L17.3218 24.0028ZM17.2615 23.8409H17.3186V22.9029H17.2615H17.2043V23.8409H17.2615ZM17.4836 24.0631H17.5408V23.723H17.4836H17.4265V24.0631H17.4836ZM17.4836 23.723V23.7801H18.3449V23.723V23.6658H17.4836V23.723ZM18.3449 23.723L18.2981 23.7558C18.3065 23.7678 18.3153 23.7858 18.3233 23.8113L18.3778 23.7943L18.4324 23.7773C18.4221 23.7443 18.4089 23.7147 18.3917 23.6902L18.3449 23.723ZM18.3778 23.7943L18.3236 23.8124C18.3305 23.8329 18.3344 23.8578 18.3344 23.8876H18.3915H18.4487C18.4487 23.8479 18.4435 23.8105 18.432 23.7762L18.3778 23.7943ZM18.3915 23.8876H18.3344C18.3344 23.939 18.323 23.9669 18.3101 23.9816L18.3531 24.0192L18.3961 24.0568C18.4345 24.013 18.4487 23.9531 18.4487 23.8876H18.3915ZM18.3531 24.0192L18.3101 23.9816C18.2973 23.9962 18.2786 24.006 18.2462 24.006V24.0631V24.1202C18.3052 24.1202 18.3577 24.1007 18.3961 24.0568L18.3531 24.0192ZM18.2462 24.0631V24.006H17.4836V24.0631V24.1202H18.2462V24.0631ZM17.6784 23.424V23.3669H17.2615V23.424V23.4812H17.6784V23.424ZM17.2615 23.424H17.3186V22.39H17.2615H17.2043V23.424H17.2615ZM17.2615 22.39L17.2727 22.446C17.2896 22.4426 17.3159 22.4382 17.3522 22.4328L17.3438 22.3762L17.3353 22.3197C17.2985 22.3253 17.27 22.33 17.2503 22.3339L17.2615 22.39ZM17.3438 22.3762L17.3518 22.4328C17.3879 22.4277 17.4217 22.4252 17.4535 22.4252V22.368V22.3109C17.4157 22.3109 17.3765 22.3139 17.3357 22.3197L17.3438 22.3762ZM17.4535 22.368V22.4252C17.5303 22.4252 17.5716 22.4388 17.5909 22.454L17.6263 22.4092L17.6617 22.3643C17.6114 22.3246 17.5375 22.3109 17.4535 22.3109V22.368ZM17.6263 22.4092L17.5909 22.454C17.6045 22.4647 17.6212 22.4938 17.6212 22.5655H17.6784H17.7355C17.7355 22.4836 17.7176 22.4084 17.6617 22.3643L17.6263 22.4092ZM17.6784 22.5655H17.6212V23.424H17.6784H17.7355V22.5655H17.6784ZM19.68 22.9248L19.6292 22.9508L19.6296 22.9518L19.68 22.9248ZM19.51 22.7493L19.4819 22.7991L19.4834 22.7999L19.51 22.7493ZM19.1644 22.6944L19.1679 22.7515L19.1711 22.7512L19.1644 22.6944ZM19.0739 22.7026L19.0672 22.6459L19.0167 22.6518V22.7026H19.0739ZM19.0739 23.7422H19.0167V23.789L19.0627 23.7982L19.0739 23.7422ZM19.1671 23.7559L19.1611 23.8128L19.1641 23.813L19.1671 23.7559ZM19.6115 23.6242L19.5706 23.5843L19.5702 23.5847L19.6115 23.6242ZM20.0585 23.7093L20.0094 23.6802L20.0091 23.6807L20.0585 23.7093ZM19.7404 24.0028L19.7648 24.0544L19.7651 24.0543L19.7404 24.0028ZM19.0409 24.085L19.0469 24.0282L19.0457 24.0281L19.0409 24.085ZM18.8023 24.0357L18.7827 24.0893L18.783 24.0895L18.8023 24.0357ZM18.6899 22.4585L18.7283 22.5009L18.7303 22.4989L18.6899 22.4585ZM18.7694 22.4092L18.7517 22.3547L18.7487 22.3559L18.7694 22.4092ZM19.7267 22.4476L19.7028 22.4995L19.7036 22.4998L19.7267 22.4476ZM20.0558 22.7328L20.1045 22.7029L20.0558 22.7328ZM19.7431 23.2265H19.8003C19.8003 23.098 19.7783 22.9873 19.7304 22.8979L19.68 22.9248L19.6296 22.9518C19.6659 23.0196 19.686 23.1101 19.686 23.2265H19.7431ZM19.68 22.9248L19.7309 22.8988C19.6857 22.8104 19.6209 22.743 19.5365 22.6987L19.51 22.7493L19.4834 22.7999C19.5454 22.8324 19.5939 22.882 19.6292 22.9508L19.68 22.9248ZM19.51 22.7493L19.5381 22.6995C19.4569 22.6537 19.3637 22.6318 19.2604 22.6318V22.6889V22.7461C19.3472 22.7461 19.4204 22.7644 19.4819 22.799L19.51 22.7493ZM19.2604 22.6889V22.6318C19.2253 22.6318 19.1911 22.6337 19.1577 22.6377L19.1644 22.6944L19.1711 22.7512C19.1998 22.7478 19.2296 22.7461 19.2604 22.7461V22.6889ZM19.1644 22.6944L19.1608 22.6374C19.1304 22.6393 19.0992 22.6421 19.0672 22.6459L19.0739 22.7026L19.0805 22.7594C19.1107 22.7559 19.1398 22.7532 19.1679 22.7514L19.1644 22.6944ZM19.0739 22.7026H19.0167V23.7422H19.0739H19.131V22.7026H19.0739ZM19.0739 23.7422L19.0627 23.7982C19.0922 23.8041 19.1251 23.8089 19.1611 23.8127L19.1671 23.7559L19.1731 23.6991C19.1397 23.6956 19.1104 23.6912 19.0851 23.6862L19.0739 23.7422ZM19.1671 23.7559L19.1641 23.813C19.1997 23.8148 19.2337 23.8158 19.2659 23.8158V23.7586V23.7015C19.2359 23.7015 19.204 23.7006 19.1701 23.6988L19.1671 23.7559ZM19.2659 23.7586V23.8158C19.4231 23.8158 19.5542 23.7665 19.6527 23.6638L19.6115 23.6242L19.5702 23.5847C19.4968 23.6612 19.3975 23.7015 19.2659 23.7015V23.7586ZM19.6115 23.6242L19.6523 23.6642C19.7541 23.5603 19.8003 23.411 19.8003 23.2265H19.7431H19.686C19.686 23.3932 19.6444 23.509 19.5706 23.5843L19.6115 23.6242ZM20.1737 23.2183H20.1166C20.1166 23.4086 20.0796 23.5615 20.0094 23.6802L20.0585 23.7093L20.1077 23.7384C20.1911 23.5974 20.2309 23.4229 20.2309 23.2183H20.1737ZM20.0585 23.7093L20.0091 23.6807C19.9399 23.8004 19.8426 23.8903 19.7156 23.9512L19.7404 24.0028L19.7651 24.0543C19.9125 23.9835 20.0272 23.8778 20.108 23.7378L20.0585 23.7093ZM19.7404 24.0028L19.7159 23.9511C19.5898 24.0108 19.4394 24.0416 19.2631 24.0416V24.0988V24.1559C19.4526 24.1559 19.6204 24.1227 19.7648 24.0544L19.7404 24.0028ZM19.2631 24.0988V24.0416C19.2054 24.0416 19.1335 24.0372 19.0469 24.0282L19.0409 24.085L19.035 24.1419C19.124 24.1511 19.2001 24.1559 19.2631 24.1559V24.0988ZM19.0409 24.085L19.0457 24.0281C18.9621 24.0211 18.8876 24.0056 18.8216 23.9819L18.8023 24.0357L18.783 24.0895C18.8597 24.117 18.9442 24.1343 19.0362 24.142L19.0409 24.085ZM18.8023 24.0357L18.8219 23.982C18.7815 23.9672 18.7559 23.9485 18.7405 23.9286C18.7255 23.9093 18.7168 23.8849 18.7168 23.8519H18.6597H18.6025C18.6025 23.9067 18.6176 23.9568 18.6502 23.9987C18.6823 24.0401 18.7281 24.0694 18.7827 24.0893L18.8023 24.0357ZM18.6597 23.8519H18.7168V22.5408H18.6597H18.6025V23.8519H18.6597ZM18.6597 22.5408H18.7168C18.7168 22.5145 18.7238 22.5049 18.7283 22.5008L18.6899 22.4585L18.6514 22.4162C18.6157 22.4487 18.6025 22.494 18.6025 22.5408H18.6597ZM18.6899 22.4585L18.7303 22.4989C18.7436 22.4856 18.7629 22.473 18.7901 22.4624L18.7694 22.4092L18.7487 22.3559C18.7101 22.3709 18.6764 22.3912 18.6495 22.4181L18.6899 22.4585ZM18.7694 22.4092L18.7871 22.4635C18.8557 22.4412 18.93 22.4264 19.0102 22.4195L19.0053 22.3625L19.0003 22.3056C18.9123 22.3133 18.8294 22.3296 18.7517 22.3548L18.7694 22.4092ZM19.0053 22.3625L19.0102 22.4195C19.093 22.4123 19.1682 22.4087 19.2357 22.4087V22.3516V22.2944C19.1642 22.2944 19.0858 22.2982 19.0003 22.3056L19.0053 22.3625ZM19.2357 22.3516V22.4087C19.4176 22.4087 19.5728 22.4396 19.7028 22.4995L19.7267 22.4476L19.7506 22.3957C19.6026 22.3275 19.4304 22.2944 19.2357 22.2944V22.3516ZM19.7267 22.4476L19.7036 22.4998C19.8341 22.5574 19.9347 22.6449 20.0071 22.7627L20.0558 22.7328L20.1045 22.7029C20.0196 22.5648 19.9009 22.462 19.7497 22.3953L19.7267 22.4476ZM20.0558 22.7328L20.0071 22.7627C20.0788 22.8794 20.1166 23.0301 20.1166 23.2183H20.1737H20.2309C20.2309 23.0152 20.1901 22.8422 20.1045 22.7029L20.0558 22.7328Z" fill="url(#paint17_linear_10_10838)" style="mix-blend-mode:darken" mask="url(#path-24-outside-3_10_10838)"/>
<circle cx="25.6121" cy="23.4288" r="0.371429" fill="white"/>
<circle cx="25.6121" cy="23.4288" r="0.371429" stroke="url(#paint18_linear_10_10838)" stroke-width="0.0571429" stroke-linecap="round" style="mix-blend-mode:darken"/>
<defs>
<filter id="filter0_dddd_10_10838" x="2.49322" y="3.51936" width="28.6979" height="37.6753" filterUnits="userSpaceOnUse" color-interpolation-filters="sRGB">
<feFlood flood-opacity="0" result="BackgroundImageFix"/>
<feColorMatrix in="SourceAlpha" type="matrix" values="0 0 0 0 0 0 0 0 0 0 0 0 0 0 0 0 0 0 127 0" result="hardAlpha"/>
<feOffset dy="0.571429"/>
<feGaussianBlur stdDeviation="0.628571"/>
<feColorMatrix type="matrix" values="0 0 0 0 0 0 0 0 0 0 0 0 0 0 0 0 0 0 0.24 0"/>
<feBlend mode="normal" in2="BackgroundImageFix" result="effect1_dropShadow_10_10838"/>
<feColorMatrix in="SourceAlpha" type="matrix" values="0 0 0 0 0 0 0 0 0 0 0 0 0 0 0 0 0 0 127 0" result="hardAlpha"/>
<feOffset dy="2.4"/>
<feGaussianBlur stdDeviation="1.2"/>
<feColorMatrix type="matrix" values="0 0 0 0 0 0 0 0 0 0 0 0 0 0 0 0 0 0 0.21 0"/>
<feBlend mode="normal" in2="effect1_dropShadow_10_10838" result="effect2_dropShadow_10_10838"/>
<feColorMatrix in="SourceAlpha" type="matrix" values="0 0 0 0 0 0 0 0 0 0 0 0 0 0 0 0 0 0 127 0" result="hardAlpha"/>
<feOffset dy="5.25714"/>
<feGaussianBlur stdDeviation="1.6"/>
<feColorMatrix type="matrix" values="0 0 0 0 0 0 0 0 0 0 0 0 0 0 0 0 0 0 0.12 0"/>
<feBlend mode="normal" in2="effect2_dropShadow_10_10838" result="effect3_dropShadow_10_10838"/>
<feColorMatrix in="SourceAlpha" type="matrix" values="0 0 0 0 0 0 0 0 0 0 0 0 0 0 0 0 0 0 127 0" result="hardAlpha"/>
<feOffset dy="9.37143"/>
<feGaussianBlur stdDeviation="1.88571"/>
<feColorMatrix type="matrix" values="0 0 0 0 0 0 0 0 0 0 0 0 0 0 0 0 0 0 0.04 0"/>
<feBlend mode="normal" in2="effect3_dropShadow_10_10838" result="effect4_dropShadow_10_10838"/>
<feBlend mode="normal" in="SourceGraphic" in2="effect4_dropShadow_10_10838" result="shape"/>
</filter>
<filter id="filter1_d_10_10838" x="5.35061" y="3.51936" width="22.9834" height="25.6762" filterUnits="userSpaceOnUse" color-interpolation-filters="sRGB">
<feFlood flood-opacity="0" result="BackgroundImageFix"/>
<feColorMatrix in="SourceAlpha" type="matrix" values="0 0 0 0 0 0 0 0 0 0 0 0 0 0 0 0 0 0 127 0" result="hardAlpha"/>
<feOffset dy="0.228571"/>
<feGaussianBlur stdDeviation="0.457143"/>
<feColorMatrix type="matrix" values="0 0 0 0 0 0 0 0 0 0 0 0 0 0 0 0 0 0 0.16 0"/>
<feBlend mode="color-burn" in2="BackgroundImageFix" result="effect1_dropShadow_10_10838"/>
<feBlend mode="normal" in="SourceGraphic" in2="effect1_dropShadow_10_10838" result="shape"/>
</filter>
<filter id="filter2_d_10_10838" x="9.56432" y="8.2221" width="14.5286" height="12.4695" filterUnits="userSpaceOnUse" color-interpolation-filters="sRGB">
<feFlood flood-opacity="0" result="BackgroundImageFix"/>
<feColorMatrix in="SourceAlpha" type="matrix" values="0 0 0 0 0 0 0 0 0 0 0 0 0 0 0 0 0 0 127 0" result="hardAlpha"/>
<feOffset dy="0.257143"/>
<feGaussianBlur stdDeviation="0.771429"/>
<feColorMatrix type="matrix" values="0 0 0 0 0 0 0 0 0 0 0 0 0 0 0 0 0 0 0.12 0"/>
<feBlend mode="plus-darker" in2="BackgroundImageFix" result="effect1_dropShadow_10_10838"/>
<feBlend mode="normal" in="SourceGraphic" in2="effect1_dropShadow_10_10838" result="shape"/>
</filter>
<filter id="filter3_dd_10_10838" x="3.57144" y="21.2576" width="26.4811" height="7.99969" filterUnits="userSpaceOnUse" color-interpolation-filters="sRGB">
<feFlood flood-opacity="0" result="BackgroundImageFix"/>
<feColorMatrix in="SourceAlpha" type="matrix" values="0 0 0 0 0 0 0 0 0 0 0 0 0 0 0 0 0 0 127 0" result="hardAlpha"/>
<feOffset dy="0.457143"/>
<feGaussianBlur stdDeviation="0.685714"/>
<feColorMatrix type="matrix" values="0 0 0 0 0 0 0 0 0 0 0 0 0 0 0 0 0 0 0.16 0"/>
<feBlend mode="normal" in2="BackgroundImageFix" result="effect1_dropShadow_10_10838"/>
<feColorMatrix in="SourceAlpha" type="matrix" values="0 0 0 0 0 0 0 0 0 0 0 0 0 0 0 0 0 0 127 0" result="hardAlpha"/>
<feOffset dy="0.228571"/>
<feGaussianBlur stdDeviation="0.228571"/>
<feColorMatrix type="matrix" values="0 0 0 0 0 0 0 0 0 0 0 0 0 0 0 0 0 0 0.24 0"/>
<feBlend mode="normal" in2="effect1_dropShadow_10_10838" result="effect2_dropShadow_10_10838"/>
<feBlend mode="normal" in="SourceGraphic" in2="effect2_dropShadow_10_10838" result="shape"/>
</filter>
<filter id="filter4_dd_10_10838" x="5.3837" y="19.8855" width="22.8571" height="7.99969" filterUnits="userSpaceOnUse" color-interpolation-filters="sRGB">
<feFlood flood-opacity="0" result="BackgroundImageFix"/>
<feColorMatrix in="SourceAlpha" type="matrix" values="0 0 0 0 0 0 0 0 0 0 0 0 0 0 0 0 0 0 127 0" result="hardAlpha"/>
<feOffset dy="0.457143"/>
<feGaussianBlur stdDeviation="0.685714"/>
<feColorMatrix type="matrix" values="0 0 0 0 0 0 0 0 0 0 0 0 0 0 0 0 0 0 0.16 0"/>
<feBlend mode="normal" in2="BackgroundImageFix" result="effect1_dropShadow_10_10838"/>
<feColorMatrix in="SourceAlpha" type="matrix" values="0 0 0 0 0 0 0 0 0 0 0 0 0 0 0 0 0 0 127 0" result="hardAlpha"/>
<feOffset dy="0.228571"/>
<feGaussianBlur stdDeviation="0.228571"/>
<feColorMatrix type="matrix" values="0 0 0 0 0 0 0 0 0 0 0 0 0 0 0 0 0 0 0.24 0"/>
<feBlend mode="normal" in2="effect1_dropShadow_10_10838" result="effect2_dropShadow_10_10838"/>
<feBlend mode="normal" in="SourceGraphic" in2="effect2_dropShadow_10_10838" result="shape"/>
</filter>
<linearGradient id="paint0_linear_10_10838" x1="16.8286" y1="0" x2="16.8286" y2="32" gradientUnits="userSpaceOnUse">
<stop stop-color="#FF9E45"/>
<stop offset="1" stop-color="#F37400"/>
</linearGradient>
<linearGradient id="paint1_linear_10_10838" x1="16.8286" y1="3.62611" x2="16.8286" y2="28.208" gradientUnits="userSpaceOnUse">
<stop stop-color="white"/>
<stop offset="1" stop-color="white" stop-opacity="0"/>
</linearGradient>
<radialGradient id="paint2_radial_10_10838" cx="0" cy="0" r="1" gradientUnits="userSpaceOnUse" gradientTransform="translate(16.8286 10.6869) rotate(90) scale(16.2136 12.3016)">
<stop stop-color="white"/>
<stop offset="1" stop-color="white" stop-opacity="0"/>
</radialGradient>
<linearGradient id="paint3_linear_10_10838" x1="16.8286" y1="0" x2="16.8286" y2="32" gradientUnits="userSpaceOnUse">
<stop stop-color="#FF9E45"/>
<stop offset="1" stop-color="#F37400"/>
</linearGradient>
<linearGradient id="paint4_linear_10_10838" x1="16.8286" y1="3.62611" x2="16.8286" y2="28.208" gradientUnits="userSpaceOnUse">
<stop stop-color="white"/>
<stop offset="1" stop-color="white" stop-opacity="0"/>
</linearGradient>
<radialGradient id="paint5_radial_10_10838" cx="0" cy="0" r="1" gradientUnits="userSpaceOnUse" gradientTransform="translate(16.8286 10.6869) rotate(90) scale(16.2136 12.3016)">
<stop stop-color="white"/>
<stop offset="1" stop-color="white" stop-opacity="0"/>
</radialGradient>
<linearGradient id="paint6_linear_10_10838" x1="0.828613" y1="0" x2="0.828613" y2="32" gradientUnits="userSpaceOnUse">
<stop stop-color="white"/>
<stop offset="1" stop-color="white" stop-opacity="0.01"/>
</linearGradient>
<linearGradient id="paint7_linear_10_10838" x1="16.8422" y1="3.7334" x2="16.8422" y2="28.4191" gradientUnits="userSpaceOnUse">
<stop stop-color="white"/>
<stop offset="1" stop-color="#999999"/>
</linearGradient>
<linearGradient id="paint8_linear_10_10838" x1="16.8424" y1="4.20508" x2="16.8424" y2="28.0521" gradientUnits="userSpaceOnUse">
<stop stop-color="white"/>
<stop offset="1" stop-color="#999999"/>
</linearGradient>
<linearGradient id="paint9_linear_10_10838" x1="16.8285" y1="9.57227" x2="16.8285" y2="18.8278" gradientUnits="userSpaceOnUse">
<stop stop-color="#DFDFDF"/>
<stop offset="1" stop-color="#A9A9A9"/>
</linearGradient>
<linearGradient id="paint10_linear_10_10838" x1="16.812" y1="22.1719" x2="16.812" y2="27.4287" gradientUnits="userSpaceOnUse">
<stop stop-opacity="0"/>
<stop offset="1" stop-opacity="0.16"/>
</linearGradient>
<linearGradient id="paint11_linear_10_10838" x1="16.812" y1="19.5435" x2="16.812" y2="27.4287" gradientUnits="userSpaceOnUse">
<stop stop-color="white"/>
<stop offset="1" stop-color="white" stop-opacity="0"/>
</linearGradient>
<radialGradient id="paint12_radial_10_10838" cx="0" cy="0" r="1" gradientUnits="userSpaceOnUse" gradientTransform="translate(16.812 22.1719) rotate(90) scale(5.25684 22.0821)">
<stop stop-color="white"/>
<stop offset="1" stop-color="white" stop-opacity="0"/>
</radialGradient>
<linearGradient id="paint13_linear_10_10838" x1="16.8123" y1="20.7998" x2="16.8123" y2="26.0569" gradientUnits="userSpaceOnUse">
<stop stop-opacity="0"/>
<stop offset="1" stop-opacity="0.16"/>
</linearGradient>
<linearGradient id="paint14_linear_10_10838" x1="16.8123" y1="20.7998" x2="16.8123" y2="26.0569" gradientUnits="userSpaceOnUse">
<stop stop-color="white"/>
<stop offset="1" stop-color="white" stop-opacity="0"/>
</linearGradient>
<radialGradient id="paint15_radial_10_10838" cx="0" cy="0" r="1" gradientUnits="userSpaceOnUse" gradientTransform="translate(16.8123 21.7172) rotate(90) scale(4.33976 10.0571)">
<stop stop-color="white"/>
<stop offset="1" stop-color="white" stop-opacity="0"/>
</radialGradient>
<linearGradient id="paint16_linear_10_10838" x1="8.01205" y1="23.0859" x2="8.01205" y2="23.7717" gradientUnits="userSpaceOnUse">
<stop stop-opacity="0.1"/>
<stop offset="1" stop-opacity="0.3"/>
</linearGradient>
<linearGradient id="paint17_linear_10_10838" x1="16.8123" y1="22.0576" x2="16.8123" y2="25.0576" gradientUnits="userSpaceOnUse">
<stop stop-opacity="0.1"/>
<stop offset="1" stop-opacity="0.3"/>
</linearGradient>
<linearGradient id="paint18_linear_10_10838" x1="25.6121" y1="23.0859" x2="25.6121" y2="23.7717" gradientUnits="userSpaceOnUse">
<stop stop-opacity="0.1"/>
<stop offset="1" stop-opacity="0.3"/>
</linearGradient>
</defs>
</svg>
