<svg width="70" height="106" viewBox="0 0 70 106" fill="none" xmlns="http://www.w3.org/2000/svg">
<g filter="url(#filter0_d_10_16340)">
<rect x="31.1587" y="52.0117" width="4.26063" height="18.9792" fill="url(#paint0_linear_10_16340)"/>
<path d="M11.6616 79.3108C11.6616 76.3594 14.0542 73.9668 17.0057 73.9668H49.7141C52.6655 73.9668 55.0582 76.3594 55.0582 79.3108V96.3519H11.6616V79.3108Z" fill="#243B6D"/>
<path d="M28.4473 73.0074C28.4473 71.6792 29.5239 70.6025 30.8521 70.6025H35.7257C37.0538 70.6025 38.1305 71.6792 38.1305 73.0074V74.0885H28.4473V73.0074Z" fill="url(#paint1_linear_10_16340)"/>
<rect x="17.9044" y="80.3399" width="31.1567" height="10.6282" fill="#D4D7DD" stroke="white" stroke-width="1.37902"/>
<path d="M19.9263 79.6504H34.6448L46.2647 91.6576H31.5462L19.9263 79.6504Z" fill="white"/>
<rect x="8.93018" y="96.3516" width="48.5556" height="4.64796" fill="url(#paint2_linear_10_16340)"/>
<path d="M42.9946 23.2656L43.2896 23.8555L43.9438 23.9375L63.3296 26.3604L49.981 41.3301L49.5874 41.7715L49.686 42.3555L53.3345 63.957L33.7896 54.1855L33.2388 53.9102L32.688 54.1855L13.147 63.9551L16.8286 42.3564L16.9282 41.7715L16.5317 41.3291L3.15088 26.3604L22.5347 23.9375L23.189 23.8555L23.4839 23.2656L33.2388 3.75488L42.9946 23.2656Z" fill="#F9FAFB" stroke="#EEEEEE" stroke-width="2.46411"/>
<path d="M33.2387 15.6943L39.8512 28.9192L53.0761 30.5723L43.995 40.7555L46.4636 55.369L33.2387 48.7566L20.0138 55.369L22.5045 40.7555L13.4014 30.5723L26.6263 28.9192L33.2387 15.6943Z" fill="#A7ABB1"/>
<path d="M33.3857 48.7563L46.7085 55.3687C46.7085 55.3687 45.6422 47.0806 34.8169 40.7552C23.9916 34.4299 26.7242 28.9189 26.7242 28.9189L13.4014 30.5721L22.5719 40.7552L20.0628 55.3687L33.3857 48.7563Z" fill="#888D98"/>
<path d="M44.4066 84.0072L46.3782 79.6682L44.4066 75.3292L48.7456 77.3007L53.0846 75.3292L51.1131 79.6682L53.0846 84.0072L48.7456 82.0356L44.4066 84.0072Z" fill="white"/>
</g>
<defs>
<filter id="filter0_d_10_16340" x="0.3907" y="0.724196" width="69.5579" height="104.413" filterUnits="userSpaceOnUse" color-interpolation-filters="sRGB">
<feFlood flood-opacity="0" result="BackgroundImageFix"/>
<feColorMatrix in="SourceAlpha" type="matrix" values="0 0 0 0 0 0 0 0 0 0 0 0 0 0 0 0 0 0 127 0" result="hardAlpha"/>
<feOffset dx="1.93063" dy="1.93063"/>
<feGaussianBlur stdDeviation="1.10322"/>
<feComposite in2="hardAlpha" operator="out"/>
<feColorMatrix type="matrix" values="0 0 0 0 0 0 0 0 0 0 0 0 0 0 0 0 0 0 0.3 0"/>
<feBlend mode="normal" in2="BackgroundImageFix" result="effect1_dropShadow_10_16340"/>
<feBlend mode="normal" in="SourceGraphic" in2="effect1_dropShadow_10_16340" result="shape"/>
</filter>
<linearGradient id="paint0_linear_10_16340" x1="33.289" y1="52.0117" x2="33.289" y2="70.9909" gradientUnits="userSpaceOnUse">
<stop stop-color="#CED5E1"/>
<stop offset="1" stop-color="#868B95"/>
</linearGradient>
<linearGradient id="paint1_linear_10_16340" x1="33.2889" y1="70.6025" x2="33.2889" y2="74.0885" gradientUnits="userSpaceOnUse">
<stop stop-color="#CED5E1"/>
<stop offset="1" stop-color="#868B95"/>
</linearGradient>
<linearGradient id="paint2_linear_10_16340" x1="33.208" y1="96.3516" x2="33.208" y2="101" gradientUnits="userSpaceOnUse">
<stop stop-color="#CED5E1"/>
<stop offset="1" stop-color="#868B95"/>
</linearGradient>
</defs>
</svg>
