<svg width="71" height="106" viewBox="0 0 71 106" fill="none" xmlns="http://www.w3.org/2000/svg">
<g filter="url(#filter0_d_10_16256)">
<rect x="31.4922" y="52.0117" width="4.26063" height="18.9792" fill="#BF7F02"/>
<path d="M11.9951 79.3108C11.9951 76.3594 14.3877 73.9668 17.3392 73.9668H50.0476C52.999 73.9668 55.3917 76.3594 55.3917 79.3108V96.3519H11.9951V79.3108Z" fill="#243B6D"/>
<path d="M28.7808 73.0074C28.7808 71.6792 29.8574 70.6025 31.1856 70.6025H36.0592C37.3873 70.6025 38.464 71.6792 38.464 73.0074V74.0885H28.7808V73.0074Z" fill="#DCAE0C"/>
<rect x="18.2378" y="80.3399" width="31.1567" height="10.6282" fill="#F9B50E" stroke="#FFEC86" stroke-width="1.37902"/>
<path d="M20.2598 79.6504H34.9783L46.5982 91.6576H31.8797L20.2598 79.6504Z" fill="#FFEC86"/>
<rect x="9.26367" y="96.3516" width="48.5556" height="4.64796" fill="#DE9300"/>
<path d="M43.3281 23.2656L43.623 23.8555L44.2773 23.9375L63.6631 26.3604L50.3145 41.3301L49.9209 41.7715L50.0195 42.3555L53.668 63.957L34.123 54.1855L33.5723 53.9102L33.0215 54.1855L13.4805 63.9551L17.1621 42.3564L17.2617 41.7715L16.8652 41.3291L3.48438 26.3604L22.8682 23.9375L23.5225 23.8555L23.8174 23.2656L33.5723 3.75488L43.3281 23.2656Z" fill="#FFEC86" stroke="#FFB802" stroke-width="2.46411"/>
<path d="M33.5722 15.6943L40.1847 28.9192L53.4096 30.5723L44.3285 40.7555L46.7971 55.369L33.5722 48.7566L20.3473 55.369L22.838 40.7555L13.7349 30.5723L26.9598 28.9192L33.5722 15.6943Z" fill="#DE9300"/>
<path d="M33.7192 48.7563L47.042 55.3687C47.042 55.3687 45.9757 47.0806 35.1504 40.7552C24.3251 34.4299 27.0577 28.9189 27.0577 28.9189L13.7349 30.5721L22.9054 40.7552L20.3963 55.3687L33.7192 48.7563Z" fill="#CB8600"/>
<path d="M44.7401 84.0072L46.7116 79.6682L44.7401 75.3292L49.0791 77.3007L53.4181 75.3292L51.4466 79.6682L53.4181 84.0072L49.0791 82.0356L44.7401 84.0072Z" fill="white"/>
</g>
<defs>
<filter id="filter0_d_10_16256" x="0.724196" y="0.724196" width="69.5579" height="104.413" filterUnits="userSpaceOnUse" color-interpolation-filters="sRGB">
<feFlood flood-opacity="0" result="BackgroundImageFix"/>
<feColorMatrix in="SourceAlpha" type="matrix" values="0 0 0 0 0 0 0 0 0 0 0 0 0 0 0 0 0 0 127 0" result="hardAlpha"/>
<feOffset dx="1.93063" dy="1.93063"/>
<feGaussianBlur stdDeviation="1.10322"/>
<feComposite in2="hardAlpha" operator="out"/>
<feColorMatrix type="matrix" values="0 0 0 0 0 0 0 0 0 0 0 0 0 0 0 0 0 0 0.3 0"/>
<feBlend mode="normal" in2="BackgroundImageFix" result="effect1_dropShadow_10_16256"/>
<feBlend mode="normal" in="SourceGraphic" in2="effect1_dropShadow_10_16256" result="shape"/>
</filter>
</defs>
</svg>
