<svg width="70" height="106" viewBox="0 0 70 106" fill="none" xmlns="http://www.w3.org/2000/svg">
<g filter="url(#filter0_d_10_16424)">
<rect x="30.8252" y="52.0117" width="4.26063" height="18.9792" fill="url(#paint0_linear_10_16424)"/>
<rect x="30.8252" y="52.0117" width="4.26063" height="18.9792" fill="url(#paint1_linear_10_16424)"/>
<path d="M11.3281 79.3108C11.3281 76.3594 13.7207 73.9668 16.6722 73.9668H49.3806C52.332 73.9668 54.7247 76.3594 54.7247 79.3108V96.3519H11.3281V79.3108Z" fill="#243B6D"/>
<path d="M28.1138 73.0074C28.1138 71.6792 29.1904 70.6025 30.5186 70.6025H35.3922C36.7203 70.6025 37.797 71.6792 37.797 73.0074V74.0885H28.1138V73.0074Z" fill="url(#paint2_linear_10_16424)"/>
<rect x="17.5709" y="80.3399" width="31.1567" height="10.6282" fill="#FD976C" stroke="#FFD8C7" stroke-width="1.37902"/>
<path d="M19.5928 79.6504H34.3113L45.9312 91.6576H31.2127L19.5928 79.6504Z" fill="#FFD8C7"/>
<rect x="8.59668" y="96.3516" width="48.5556" height="4.64796" fill="url(#paint3_linear_10_16424)"/>
<rect x="8.59668" y="96.3516" width="48.5556" height="4.64796" fill="url(#paint4_linear_10_16424)"/>
<path d="M42.6611 23.2656L42.9561 23.8555L43.6104 23.9375L62.9961 26.3604L49.6475 41.3301L49.2539 41.7715L49.3525 42.3555L53.001 63.957L33.4561 54.1855L32.9053 53.9102L32.3545 54.1855L12.8135 63.9551L16.4951 42.3564L16.5947 41.7715L16.1982 41.3291L2.81738 26.3604L22.2012 23.9375L22.8555 23.8555L23.1504 23.2656L32.9053 3.75488L42.6611 23.2656Z" fill="#E89C7C" stroke="#FFD8C7" stroke-width="2.46411"/>
<path d="M32.9052 15.6943L39.5177 28.9192L52.7426 30.5723L43.6615 40.7555L46.1301 55.369L32.9052 48.7566L19.6803 55.369L22.171 40.7555L13.0679 30.5723L26.2928 28.9192L32.9052 15.6943Z" fill="#D67D56"/>
<path d="M33.0522 48.7563L46.375 55.3687C46.375 55.3687 45.3087 47.0806 34.4834 40.7552C23.6581 34.4299 26.3907 28.9189 26.3907 28.9189L13.0679 30.5721L22.2384 40.7552L19.7293 55.3687L33.0522 48.7563Z" fill="#9F4219"/>
<path d="M44.0731 84.0072L46.0447 79.6682L44.0731 75.3292L48.4121 77.3007L52.7511 75.3292L50.7796 79.6682L52.7511 84.0072L48.4121 82.0356L44.0731 84.0072Z" fill="#FFE8DE"/>
</g>
<defs>
<filter id="filter0_d_10_16424" x="0.057204" y="0.724196" width="69.5579" height="104.413" filterUnits="userSpaceOnUse" color-interpolation-filters="sRGB">
<feFlood flood-opacity="0" result="BackgroundImageFix"/>
<feColorMatrix in="SourceAlpha" type="matrix" values="0 0 0 0 0 0 0 0 0 0 0 0 0 0 0 0 0 0 127 0" result="hardAlpha"/>
<feOffset dx="1.93063" dy="1.93063"/>
<feGaussianBlur stdDeviation="1.10322"/>
<feComposite in2="hardAlpha" operator="out"/>
<feColorMatrix type="matrix" values="0 0 0 0 0 0 0 0 0 0 0 0 0 0 0 0 0 0 0.3 0"/>
<feBlend mode="normal" in2="BackgroundImageFix" result="effect1_dropShadow_10_16424"/>
<feBlend mode="normal" in="SourceGraphic" in2="effect1_dropShadow_10_16424" result="shape"/>
</filter>
<linearGradient id="paint0_linear_10_16424" x1="32.9555" y1="52.0117" x2="32.9555" y2="70.9909" gradientUnits="userSpaceOnUse">
<stop stop-color="#CED5E1"/>
<stop offset="1" stop-color="#868B95"/>
</linearGradient>
<linearGradient id="paint1_linear_10_16424" x1="32.9555" y1="52.0117" x2="32.9555" y2="70.9909" gradientUnits="userSpaceOnUse">
<stop stop-color="#D37349"/>
<stop offset="1" stop-color="#983C13"/>
</linearGradient>
<linearGradient id="paint2_linear_10_16424" x1="32.9554" y1="70.6025" x2="32.9554" y2="74.0885" gradientUnits="userSpaceOnUse">
<stop stop-color="#D37349"/>
<stop offset="1" stop-color="#983C13"/>
</linearGradient>
<linearGradient id="paint3_linear_10_16424" x1="32.8745" y1="96.3516" x2="32.8745" y2="101" gradientUnits="userSpaceOnUse">
<stop stop-color="#CED5E1"/>
<stop offset="1" stop-color="#868B95"/>
</linearGradient>
<linearGradient id="paint4_linear_10_16424" x1="32.8745" y1="96.3516" x2="32.8745" y2="101" gradientUnits="userSpaceOnUse">
<stop stop-color="#D37349"/>
<stop offset="1" stop-color="#983C13"/>
</linearGradient>
</defs>
</svg>
