<svg width="128" height="165" viewBox="0 0 128 165" fill="none" xmlns="http://www.w3.org/2000/svg">
<g filter="url(#filter0_dddd_10_12067)">
<path d="M21.8174 44.961C21.7038 41.844 21.647 40.2856 22.2429 38.6256C22.754 37.202 23.6941 35.8242 24.8334 34.8291C26.1617 33.6689 28.0906 32.9934 31.9484 31.6424C40.157 28.7679 48.0761 24.9129 55.5425 20.4337C58.9362 18.3977 60.633 17.3797 62.0935 17.0591C63.5435 16.7407 64.5651 16.7407 66.0151 17.0591C67.4756 17.3797 69.1724 18.3977 72.5661 20.4337C80.0325 24.9129 87.9516 28.7679 96.1602 31.6424C100.018 32.9934 101.947 33.6689 103.275 34.8291C104.414 35.8242 105.355 37.202 105.866 38.6256C106.462 40.2856 106.405 41.844 106.291 44.961C105.968 53.8312 104.367 67.014 98.5152 78.9125C90.7984 94.6032 77.9101 104.895 70.2727 109.965C68.5961 111.078 67.7577 111.635 66.178 112.012C65.0828 112.274 63.0258 112.274 61.9306 112.012C60.3508 111.635 59.5125 111.078 57.8359 109.965C50.1985 104.895 37.3102 94.6032 29.5934 78.9125C23.7417 67.014 22.1406 53.8312 21.8174 44.961Z" fill="black"/>
</g>
<mask id="mask0_10_12067" style="mask-type:alpha" maskUnits="userSpaceOnUse" x="21" y="16" width="86" height="97">
<path d="M21.8174 44.961C21.7038 41.844 21.647 40.2856 22.2429 38.6256C22.754 37.202 23.6941 35.8242 24.8334 34.8291C26.1617 33.6689 28.0906 32.9934 31.9484 31.6424C40.157 28.7679 48.0761 24.9129 55.5425 20.4337C58.9362 18.3977 60.633 17.3797 62.0935 17.0591C63.5435 16.7407 64.5651 16.7407 66.0151 17.0591C67.4756 17.3797 69.1724 18.3977 72.5661 20.4337C80.0325 24.9129 87.9516 28.7679 96.1602 31.6424C100.018 32.9934 101.947 33.6689 103.275 34.8291C104.414 35.8242 105.355 37.202 105.866 38.6256C106.462 40.2856 106.405 41.844 106.291 44.961C105.968 53.8312 104.367 67.014 98.5152 78.9125C90.7984 94.6032 77.9101 104.895 70.2727 109.965C68.5961 111.078 67.7577 111.635 66.178 112.012C65.0828 112.274 63.0258 112.274 61.9306 112.012C60.3508 111.635 59.5125 111.078 57.8359 109.965C50.1985 104.895 37.3102 94.6032 29.5934 78.9125C23.7417 67.014 22.1406 53.8312 21.8174 44.961Z" fill="black"/>
</mask>
<g mask="url(#mask0_10_12067)">
<mask id="mask1_10_12067" style="mask-type:alpha" maskUnits="userSpaceOnUse" x="21" y="16" width="86" height="97">
<path d="M21.8174 44.961C21.7038 41.844 21.647 40.2856 22.2429 38.6256C22.754 37.202 23.6941 35.8242 24.8334 34.8291C26.1617 33.6689 28.0906 32.9934 31.9484 31.6424C40.157 28.7679 48.0761 24.9129 55.5425 20.4337C58.9362 18.3977 60.633 17.3797 62.0935 17.0591C63.5435 16.7407 64.5651 16.7407 66.0151 17.0591C67.4756 17.3797 69.1724 18.3977 72.5661 20.4337C80.0325 24.9129 87.9516 28.7679 96.1602 31.6424C100.018 32.9934 101.947 33.6689 103.275 34.8291C104.414 35.8242 105.355 37.202 105.866 38.6256C106.462 40.2856 106.405 41.844 106.291 44.961C105.968 53.8312 104.367 67.014 98.5152 78.9125C90.7984 94.6032 77.9101 104.895 70.2727 109.965C68.5961 111.078 67.7577 111.635 66.178 112.012C65.0828 112.274 63.0258 112.274 61.9306 112.012C60.3508 111.635 59.5125 111.078 57.8359 109.965C50.1985 104.895 37.3102 94.6032 29.5934 78.9125C23.7417 67.014 22.1406 53.8312 21.8174 44.961Z" fill="black"/>
</mask>
<g mask="url(#mask1_10_12067)">
<rect width="128" height="128" fill="#DE3A88"/>
<rect width="128" height="128" fill="url(#paint0_linear_10_12067)" fill-opacity="0.6" style="mix-blend-mode:overlay"/>
<rect width="128" height="128" fill="url(#paint1_radial_10_12067)" fill-opacity="0.6" style="mix-blend-mode:overlay"/>
<rect width="128" height="128" fill="black" fill-opacity="0.16" style="mix-blend-mode:overlay"/>
<rect width="128" height="128" fill="black" fill-opacity="0.12" style="mix-blend-mode:darken"/>
</g>
<g filter="url(#filter1_d_10_12067)">
<mask id="mask2_10_12067" style="mask-type:alpha" maskUnits="userSpaceOnUse" x="21" y="16" width="86" height="97">
<path d="M62.0943 17.059C63.5437 16.7408 64.5657 16.7408 66.0152 17.059C67.4756 17.3797 69.1735 18.3981 72.567 20.434C80.0333 24.9131 87.9523 28.7685 96.1607 31.6429C100.018 32.9938 101.948 33.6693 103.276 34.8295C104.415 35.8245 105.355 37.2028 105.866 38.6263C106.462 40.2862 106.405 41.8446 106.292 44.9613C105.968 53.8314 104.368 67.0142 98.5162 78.9125L98.15 79.6439C90.3974 94.9234 77.7911 104.975 70.273 109.966L69.148 110.703C68.1311 111.346 67.3628 111.729 66.1783 112.012C65.1515 112.257 63.2794 112.273 62.147 112.059L61.9312 112.012C60.7466 111.729 59.9785 111.346 58.9615 110.703L57.8365 109.966C50.3184 104.975 37.7123 94.9236 29.9595 79.6439L29.5943 78.9125C24.1083 67.7575 22.3578 55.4739 21.8941 46.6732L21.8179 44.9613C21.7114 42.0396 21.655 40.4871 22.1392 38.9369L22.2437 38.6263C22.7229 37.2919 23.579 35.9973 24.6226 35.0209L24.8336 34.8295C25.9958 33.8144 27.6188 33.1706 30.5904 32.1205L31.9488 31.6429C40.1571 28.7685 48.0763 24.9131 55.5425 20.434C58.7237 18.5255 60.4148 17.5119 61.817 17.1283L62.0943 17.059ZM65.231 20.6312C64.2982 20.4264 63.8113 20.4264 62.8785 20.6312C62.6341 20.6849 62.1906 20.837 61.2623 21.3314C60.3332 21.8262 59.1538 22.5322 57.4244 23.5697C49.777 28.1575 41.6331 32.1262 33.1578 35.0941C31.1831 35.7856 29.8714 36.2477 28.8795 36.6713C27.9195 37.0812 27.4955 37.3602 27.2398 37.5834C26.5697 38.1687 25.9858 39.0243 25.6851 39.8617C25.3765 40.7215 25.3508 41.4969 25.4722 44.8285C25.787 53.4648 27.3488 66.0614 32.8756 77.2992C40.1847 92.161 52.4706 102.015 59.859 106.919C61.5539 108.044 61.9048 108.246 62.7808 108.455C62.9342 108.492 63.4024 108.551 64.0552 108.551C64.7078 108.551 65.1755 108.492 65.3287 108.455C66.2045 108.246 66.5559 108.044 68.2506 106.919C75.6389 102.015 87.9249 92.1607 95.2339 77.2992C100.761 66.0614 102.322 53.4648 102.637 44.8285C102.759 41.4969 102.733 40.7215 102.424 39.8617C102.124 39.0243 101.54 38.1687 100.87 37.5834C100.614 37.3602 100.191 37.0811 99.231 36.6713C98.239 36.2477 96.9266 35.7857 94.9517 35.0941C86.4764 32.1262 78.3325 28.1575 70.6851 23.5697C68.9556 22.5321 67.7764 21.8263 66.8472 21.3314C65.919 20.8371 65.4755 20.6849 65.231 20.6312ZM63.6763 28.4613C63.924 28.409 64.1845 28.409 64.4322 28.4613C64.7139 28.5208 64.9766 28.6706 65.5006 28.9711C70.2944 31.7197 75.0373 34.5076 80.0513 36.8705C84.4098 38.9244 88.9142 40.6052 93.4234 42.2836C94.1259 42.545 94.4774 42.6755 94.7369 42.9095C94.9623 43.113 95.1405 43.3824 95.2398 43.6693C95.3541 43.9997 95.3381 44.3664 95.3052 45.099C94.8597 55.0335 93.0804 65.1049 88.6705 74.0717C83.5319 84.5201 75.1702 93.2084 65.6597 99.8334C65.1016 100.222 64.8223 100.417 64.4947 100.498C64.2162 100.567 63.8923 100.568 63.6138 100.498C63.2863 100.417 63.007 100.222 62.4488 99.8334C52.9384 93.2085 44.5775 84.5198 39.439 74.0717C35.0291 65.1049 33.2499 55.0335 32.8043 45.099C32.7714 44.3664 32.7545 43.9997 32.8687 43.6693C32.968 43.3823 33.1471 43.113 33.3726 42.9095C33.6321 42.6756 33.9836 42.545 34.6861 42.2836C39.1973 40.6046 43.6876 38.9296 48.0572 36.8705C53.0713 34.5076 57.815 31.7197 62.609 28.9711C63.1327 28.6708 63.3947 28.5208 63.6763 28.4613Z" fill="url(#paint2_linear_10_12067)"/>
</mask>
<g mask="url(#mask2_10_12067)">
<rect y="0.000976562" width="128" height="128" fill="#DE3A88"/>
<rect x="-0.457031" width="128" height="128" fill="url(#paint3_linear_10_12067)" fill-opacity="0.6" style="mix-blend-mode:overlay"/>
<rect x="-0.457031" width="128" height="128" fill="url(#paint4_radial_10_12067)" fill-opacity="0.6" style="mix-blend-mode:overlay"/>
<g style="mix-blend-mode:soft-light">
<path fill-rule="evenodd" clip-rule="evenodd" d="M0 0H64V128H0V0Z" fill="url(#paint5_linear_10_12067)" style="mix-blend-mode:lighten"/>
</g>
<g style="mix-blend-mode:soft-light">
<mask id="path-11-inside-1_10_12067" fill="white">
<path d="M62.0943 17.059C63.5437 16.7408 64.5657 16.7408 66.0152 17.059C67.4756 17.3797 69.1735 18.3981 72.567 20.434C80.0333 24.9131 87.9523 28.7685 96.1607 31.6429C100.018 32.9938 101.948 33.6693 103.276 34.8295C104.415 35.8245 105.355 37.2028 105.866 38.6263C106.462 40.2862 106.405 41.8446 106.292 44.9613C105.968 53.8314 104.368 67.0142 98.5162 78.9125L98.15 79.6439C90.3974 94.9234 77.7911 104.975 70.273 109.966L69.148 110.703C68.1311 111.346 67.3628 111.729 66.1783 112.012C65.1515 112.257 63.2794 112.273 62.147 112.059L61.9312 112.012C60.7466 111.729 59.9785 111.346 58.9615 110.703L57.8365 109.966C50.3184 104.975 37.7123 94.9236 29.9595 79.6439L29.5943 78.9125C24.1083 67.7575 22.3578 55.4739 21.8941 46.6732L21.8179 44.9613C21.7114 42.0396 21.655 40.4871 22.1392 38.9369L22.2437 38.6263C22.7229 37.2919 23.579 35.9973 24.6226 35.0209L24.8336 34.8295C25.9958 33.8144 27.6188 33.1706 30.5904 32.1205L31.9488 31.6429C40.1571 28.7685 48.0763 24.9131 55.5425 20.434C58.7237 18.5255 60.4148 17.5119 61.817 17.1283L62.0943 17.059ZM65.231 20.6312C64.2982 20.4264 63.8113 20.4264 62.8785 20.6312C62.6341 20.6849 62.1906 20.837 61.2623 21.3314C60.3332 21.8262 59.1538 22.5322 57.4244 23.5697C49.777 28.1575 41.6331 32.1262 33.1578 35.0941C31.1831 35.7856 29.8714 36.2477 28.8795 36.6713C27.9195 37.0812 27.4955 37.3602 27.2398 37.5834C26.5697 38.1687 25.9858 39.0243 25.6851 39.8617C25.3765 40.7215 25.3508 41.4969 25.4722 44.8285C25.787 53.4648 27.3488 66.0614 32.8756 77.2992C40.1847 92.161 52.4706 102.015 59.859 106.919C61.5539 108.044 61.9048 108.246 62.7808 108.455C62.9342 108.492 63.4024 108.551 64.0552 108.551C64.7078 108.551 65.1755 108.492 65.3287 108.455C66.2045 108.246 66.5559 108.044 68.2506 106.919C75.6389 102.015 87.9249 92.1607 95.2339 77.2992C100.761 66.0614 102.322 53.4648 102.637 44.8285C102.759 41.4969 102.733 40.7215 102.424 39.8617C102.124 39.0243 101.54 38.1687 100.87 37.5834C100.614 37.3602 100.191 37.0811 99.231 36.6713C98.239 36.2477 96.9266 35.7857 94.9517 35.0941C86.4764 32.1262 78.3325 28.1575 70.6851 23.5697C68.9556 22.5321 67.7764 21.8263 66.8472 21.3314C65.919 20.8371 65.4755 20.6849 65.231 20.6312ZM63.6763 28.4613C63.924 28.409 64.1845 28.409 64.4322 28.4613C64.7139 28.5208 64.9766 28.6706 65.5006 28.9711C70.2944 31.7197 75.0373 34.5076 80.0513 36.8705C84.4098 38.9244 88.9142 40.6052 93.4234 42.2836C94.1259 42.545 94.4774 42.6755 94.7369 42.9095C94.9623 43.113 95.1405 43.3824 95.2398 43.6693C95.3541 43.9997 95.3381 44.3664 95.3052 45.099C94.8597 55.0335 93.0804 65.1049 88.6705 74.0717C83.5319 84.5201 75.1702 93.2084 65.6597 99.8334C65.1016 100.222 64.8223 100.417 64.4947 100.498C64.2162 100.567 63.8923 100.568 63.6138 100.498C63.2863 100.417 63.007 100.222 62.4488 99.8334C52.9384 93.2085 44.5775 84.5198 39.439 74.0717C35.0291 65.1049 33.2499 55.0335 32.8043 45.099C32.7714 44.3664 32.7545 43.9997 32.8687 43.6693C32.968 43.3823 33.1471 43.113 33.3726 42.9095C33.6321 42.6756 33.9836 42.545 34.6861 42.2836C39.1973 40.6046 43.6876 38.9296 48.0572 36.8705C53.0713 34.5076 57.815 31.7197 62.609 28.9711C63.1327 28.6708 63.3947 28.5208 63.6763 28.4613Z"/>
</mask>
<path d="M62.0943 17.059L62.0453 16.8356L62.0389 16.8372L62.0943 17.059ZM66.0152 17.059L66.0642 16.8357L66.0642 16.8357L66.0152 17.059ZM72.567 20.434L72.4494 20.63V20.63L72.567 20.434ZM96.1607 31.6429L96.0852 31.8587L96.1607 31.6429ZM103.276 34.8295L103.426 34.6573L103.426 34.6573L103.276 34.8295ZM105.866 38.6263L106.081 38.5491L106.081 38.5491L105.866 38.6263ZM106.292 44.9613L106.52 44.9696L106.292 44.9613ZM98.5162 78.9125L98.7206 79.0148L98.7213 79.0133L98.5162 78.9125ZM98.15 79.6439L98.3538 79.7473L98.3544 79.7463L98.15 79.6439ZM70.273 109.966L70.3982 110.157L70.3994 110.157L70.273 109.966ZM69.148 110.703L69.2703 110.896L69.2732 110.894L69.148 110.703ZM66.1783 112.012L66.2314 112.234H66.2314L66.1783 112.012ZM62.147 112.059L62.0985 112.282L62.1045 112.284L62.147 112.059ZM61.9312 112.012L61.8781 112.234L61.8827 112.235L61.9312 112.012ZM58.9615 110.703L58.8363 110.894L58.8393 110.896L58.9615 110.703ZM57.8365 109.966L57.7101 110.157L57.7113 110.157L57.8365 109.966ZM29.9595 79.6439L29.755 79.746L29.7557 79.7473L29.9595 79.6439ZM29.5943 78.9125L29.3892 79.0134L29.3898 79.0146L29.5943 78.9125ZM21.8941 46.6732L21.6658 46.6834L21.6659 46.6852L21.8941 46.6732ZM21.8179 44.9613L21.5895 44.9696L21.5896 44.9715L21.8179 44.9613ZM22.1392 38.9369L21.9225 38.864L21.921 38.8687L22.1392 38.9369ZM22.2437 38.6263L22.0285 38.5491L22.0271 38.5534L22.2437 38.6263ZM24.6226 35.0209L24.469 34.8516L24.4665 34.854L24.6226 35.0209ZM24.8336 34.8295L24.6832 34.6573L24.68 34.6602L24.8336 34.8295ZM30.5904 32.1205L30.5146 31.9048L30.5142 31.905L30.5904 32.1205ZM31.9488 31.6429L31.8733 31.4272L31.873 31.4273L31.9488 31.6429ZM55.5425 20.434L55.6601 20.63V20.63L55.5425 20.434ZM61.817 17.1283L61.7615 16.9065L61.7566 16.9078L61.817 17.1283ZM65.231 20.6312L65.2801 20.408L65.28 20.408L65.231 20.6312ZM62.8785 20.6312L62.8295 20.408L62.8295 20.408L62.8785 20.6312ZM61.2623 21.3314L61.1548 21.1297L61.1548 21.1297L61.2623 21.3314ZM57.4244 23.5697L57.3068 23.3737L57.4244 23.5697ZM33.1578 35.0941L33.2333 35.3098H33.2333L33.1578 35.0941ZM28.8795 36.6713L28.7897 36.4611L28.7897 36.4611L28.8795 36.6713ZM27.2398 37.5834L27.0895 37.4112L27.0894 37.4112L27.2398 37.5834ZM25.6851 39.8617L25.47 39.7844L25.47 39.7845L25.6851 39.8617ZM25.4722 44.8285L25.2438 44.8368V44.8368L25.4722 44.8285ZM32.8756 77.2992L32.6704 77.4001L32.6704 77.4001L32.8756 77.2992ZM59.859 106.919L59.7325 107.11L59.859 106.919ZM62.7808 108.455L62.7277 108.678L62.7279 108.678L62.7808 108.455ZM64.0552 108.551V108.78H64.0553L64.0552 108.551ZM65.3287 108.455L65.3817 108.678L65.3818 108.678L65.3287 108.455ZM68.2506 106.919L68.377 107.11L68.2506 106.919ZM95.2339 77.2992L95.4391 77.4001L95.4391 77.4001L95.2339 77.2992ZM102.637 44.8285L102.866 44.8368V44.8368L102.637 44.8285ZM102.424 39.8617L102.64 39.7845L102.64 39.7845L102.424 39.8617ZM100.87 37.5834L101.02 37.4112L101.02 37.4112L100.87 37.5834ZM99.231 36.6713L99.3208 36.4611L99.3208 36.4611L99.231 36.6713ZM94.9517 35.0941L94.8762 35.3098L94.9517 35.0941ZM70.6851 23.5697L70.5675 23.7657V23.7657L70.6851 23.5697ZM66.8472 21.3314L66.9547 21.1297L66.9547 21.1297L66.8472 21.3314ZM63.6763 28.4613L63.6291 28.2377L63.6291 28.2377L63.6763 28.4613ZM64.4322 28.4613L64.4794 28.2377L64.4794 28.2377L64.4322 28.4613ZM65.5006 28.9711L65.6142 28.7728L65.5006 28.9711ZM80.0513 36.8705L79.9539 37.0772L80.0513 36.8705ZM93.4234 42.2836L93.5031 42.0694L93.4234 42.2836ZM94.7369 42.9095L94.89 42.7398L94.89 42.7398L94.7369 42.9095ZM95.2398 43.6693L95.4558 43.5946L95.4558 43.5945L95.2398 43.6693ZM95.3052 45.099L95.5336 45.1092L95.3052 45.099ZM88.6705 74.0717L88.8756 74.1725L88.6705 74.0717ZM65.6597 99.8334L65.7904 100.021L65.6597 99.8334ZM64.4947 100.498L64.5497 100.72L64.5498 100.72L64.4947 100.498ZM63.6138 100.498L63.5588 100.72H63.5588L63.6138 100.498ZM62.4488 99.8334L62.3181 100.021L62.4488 99.8334ZM39.439 74.0717L39.2339 74.1725L39.439 74.0717ZM32.8043 45.099L32.5759 45.1092L32.8043 45.099ZM32.8687 43.6693L32.6527 43.5946L32.6527 43.5946L32.8687 43.6693ZM33.3726 42.9095L33.2196 42.7398L33.2195 42.7398L33.3726 42.9095ZM34.6861 42.2836L34.6064 42.0694L34.6861 42.2836ZM48.0572 36.8705L48.1546 37.0772H48.1546L48.0572 36.8705ZM62.609 28.9711L62.4953 28.7728L62.609 28.9711ZM62.0943 17.059L62.1433 17.2822C63.5605 16.9711 64.549 16.9711 65.9662 17.2822L66.0152 17.059L66.0642 16.8357C64.5824 16.5104 63.527 16.5104 62.0453 16.8357L62.0943 17.059ZM66.0152 17.059L65.9662 17.2822C66.666 17.4359 67.4339 17.7593 68.4587 18.3051C69.4836 18.8508 70.7506 19.6108 72.4494 20.63L72.567 20.434L72.6845 20.238C70.9899 19.2213 69.7112 18.4541 68.6736 17.9016C67.636 17.349 66.8248 17.0027 66.0642 16.8357L66.0152 17.059ZM72.567 20.434L72.4494 20.63C79.927 25.1159 87.86 28.9784 96.0852 31.8587L96.1607 31.6429L96.2363 31.4272C88.0445 28.5586 80.1396 24.7103 72.6845 20.238L72.567 20.434ZM96.1607 31.6429L96.0852 31.8587C98.0169 32.5351 99.4552 33.0389 100.577 33.5179C101.697 33.9961 102.487 34.4438 103.126 35.0016L103.276 34.8295L103.426 34.6573C102.737 34.0549 101.898 33.5848 100.757 33.0975C99.6174 32.6111 98.1622 32.1017 96.2363 31.4272L96.1607 31.6429ZM103.276 34.8295L103.126 35.0016C104.235 35.971 105.153 37.3166 105.651 38.7036L105.866 38.6263L106.081 38.5491C105.557 37.089 104.595 35.678 103.426 34.6573L103.276 34.8295ZM105.866 38.6263L105.651 38.7036C106.229 40.3134 106.177 41.8229 106.063 44.953L106.292 44.9613L106.52 44.9696C106.633 41.8664 106.695 40.2589 106.081 38.5491L105.866 38.6263ZM106.292 44.9613L106.063 44.953C105.74 53.8084 104.142 66.9546 98.3111 78.8116L98.5162 78.9125L98.7213 79.0133C104.593 67.0737 106.196 53.8543 106.52 44.9696L106.292 44.9613ZM98.5162 78.9125L98.3118 78.8101L97.9456 79.5416L98.15 79.6439L98.3544 79.7463L98.7206 79.0148L98.5162 78.9125ZM98.15 79.6439L97.9461 79.5405C90.2189 94.7699 77.6492 104.795 70.1466 109.776L70.273 109.966L70.3994 110.157C77.933 105.155 90.5758 95.0768 98.3538 79.7473L98.15 79.6439ZM70.273 109.966L70.1478 109.775L69.0228 110.511L69.148 110.703L69.2732 110.894L70.3982 110.157L70.273 109.966ZM69.148 110.703L69.0258 110.509C68.0229 111.144 67.278 111.514 66.1252 111.79L66.1783 112.012L66.2314 112.234C67.4475 111.944 68.2394 111.548 69.2702 110.896L69.148 110.703ZM66.1783 112.012L66.1252 111.79C65.1336 112.027 63.2943 112.044 62.1896 111.834L62.147 112.059L62.1045 112.284C63.2645 112.503 65.1695 112.488 66.2314 112.234L66.1783 112.012ZM62.147 112.059L62.1955 111.836L61.9797 111.789L61.9312 112.012L61.8827 112.235L62.0985 112.282L62.147 112.059ZM61.9312 112.012L61.9843 111.79C60.8313 111.514 60.0867 111.144 59.0837 110.509L58.9615 110.703L58.8393 110.896C59.8702 111.548 60.6618 111.944 61.8781 112.234L61.9312 112.012ZM58.9615 110.703L59.0867 110.511L57.9617 109.775L57.8365 109.966L57.7113 110.157L58.8363 110.894L58.9615 110.703ZM57.8365 109.966L57.9629 109.776C50.4603 104.795 37.8907 94.7702 30.1634 79.5405L29.9595 79.6439L29.7557 79.7473C37.5338 95.0771 50.1765 105.156 57.7101 110.157L57.8365 109.966ZM29.9595 79.6439L30.164 79.5418L29.7988 78.8104L29.5943 78.9125L29.3898 79.0146L29.755 79.746L29.9595 79.6439ZM29.5943 78.9125L29.7994 78.8116C24.3326 67.6957 22.5852 55.4468 22.1224 46.6612L21.8941 46.6732L21.6659 46.6852C22.1303 55.501 23.884 67.8193 29.3892 79.0133L29.5943 78.9125ZM21.8941 46.6732L22.1225 46.6631L22.0463 44.9511L21.8179 44.9613L21.5896 44.9715L21.6658 46.6834L21.8941 46.6732ZM21.8179 44.9613L22.0464 44.953C21.9394 42.0181 21.8873 40.5099 22.3574 39.005L22.1392 38.9369L21.921 38.8687C21.4226 40.4643 21.4835 42.061 21.5895 44.9696L21.8179 44.9613ZM22.1392 38.9369L22.3559 39.0098L22.4604 38.6992L22.2437 38.6263L22.0271 38.5534L21.9226 38.864L22.1392 38.9369ZM22.2437 38.6263L22.4588 38.7036C22.9256 37.4038 23.7612 36.1398 24.7788 35.1878L24.6226 35.0209L24.4665 34.854C23.3967 35.8548 22.5202 37.18 22.0286 38.5491L22.2437 38.6263ZM24.6226 35.0209L24.7762 35.1901L24.9872 34.9987L24.8336 34.8295L24.68 34.6602L24.469 34.8516L24.6226 35.0209ZM24.8336 34.8295L24.9839 35.0016C26.1069 34.0209 27.6843 33.3899 30.6666 32.336L30.5904 32.1205L30.5142 31.905C27.5533 32.9513 25.8847 33.608 24.6832 34.6573L24.8336 34.8295ZM30.5904 32.1205L30.6662 32.3361L32.0246 31.8586L31.9488 31.6429L31.873 31.4273L30.5146 31.9048L30.5904 32.1205ZM31.9488 31.6429L32.0243 31.8587C40.2493 28.9784 48.1826 25.1158 55.6601 20.63L55.5425 20.434L55.425 20.238C47.9701 24.7103 40.0649 28.5586 31.8733 31.4272L31.9488 31.6429ZM55.5425 20.434L55.6601 20.63C58.8563 18.7125 60.5135 17.7218 61.8773 17.3488L61.817 17.1283L61.7566 16.9078C60.3161 17.3019 58.5912 18.3385 55.425 20.238L55.5425 20.434ZM61.817 17.1283L61.8724 17.35L62.1497 17.2807L62.0943 17.059L62.0389 16.8372L61.7615 16.9066L61.817 17.1283ZM65.231 20.6312L65.28 20.408C64.8058 20.3039 64.4329 20.2491 64.0547 20.2491C63.6766 20.2491 63.3037 20.3039 62.8295 20.408L62.8785 20.6312L62.9275 20.8545C63.3861 20.7538 63.723 20.7062 64.0547 20.7062C64.3864 20.7062 64.7234 20.7538 65.182 20.8545L65.231 20.6312ZM62.8785 20.6312L62.8295 20.408C62.5545 20.4683 62.0892 20.6321 61.1548 21.1297L61.2623 21.3314L61.3697 21.5332C62.2919 21.042 62.7137 20.9014 62.9275 20.8545L62.8785 20.6312ZM61.2623 21.3314L61.1548 21.1297C60.2194 21.6279 59.0341 22.3375 57.3068 23.3737L57.4244 23.5697L57.542 23.7657C59.2734 22.727 60.447 22.0246 61.3697 21.5332L61.2623 21.3314ZM57.4244 23.5697L57.3068 23.3737C49.6707 27.9547 41.5409 31.9163 33.0822 34.8784L33.1578 35.0941L33.2333 35.3098C41.7253 32.336 49.8833 28.3603 57.542 23.7657L57.4244 23.5697ZM33.1578 35.0941L33.0822 34.8784C31.1105 35.5689 29.7903 36.0338 28.7897 36.4611L28.8795 36.6713L28.9692 36.8815C29.9525 36.4616 31.2558 36.0023 33.2333 35.3098L33.1578 35.0941ZM28.8795 36.6713L28.7897 36.4611C27.8195 36.8754 27.3709 37.1656 27.0895 37.4112L27.2398 37.5834L27.3901 37.7556C27.6201 37.5548 28.0195 37.287 28.9692 36.8815L28.8795 36.6713ZM27.2398 37.5834L27.0894 37.4112C26.39 38.0221 25.7839 38.9104 25.47 39.7844L25.6851 39.8617L25.9002 39.9389C26.1878 39.1382 26.7494 38.3152 27.3902 37.7555L27.2398 37.5834ZM25.6851 39.8617L25.47 39.7845C25.1432 40.6949 25.123 41.5212 25.2438 44.8368L25.4722 44.8285L25.7007 44.8202C25.5786 41.4727 25.6098 40.748 25.9003 39.9389L25.6851 39.8617ZM25.4722 44.8285L25.2438 44.8368C25.5591 53.4878 27.1234 66.1209 32.6704 77.4001L32.8756 77.2992L33.0807 77.1983C27.5742 66.0018 26.0149 53.4419 25.7007 44.8202L25.4722 44.8285ZM32.8756 77.2992L32.6704 77.4001C40.005 92.3137 52.3286 102.195 59.7325 107.11L59.859 106.919L59.9854 106.729C52.6126 101.835 40.3643 92.0083 33.0807 77.1983L32.8756 77.2992ZM59.859 106.919L59.7325 107.11C61.4254 108.234 61.8073 108.458 62.7277 108.678L62.7808 108.455L62.8339 108.233C62.0023 108.035 61.6824 107.855 59.9854 106.729L59.859 106.919ZM62.7808 108.455L62.7279 108.678C62.906 108.72 63.3942 108.78 64.0552 108.78V108.551V108.323C63.4105 108.323 62.9623 108.264 62.8338 108.233L62.7808 108.455ZM64.0552 108.551L64.0553 108.78C64.716 108.78 65.2037 108.72 65.3817 108.678L65.3287 108.455L65.2757 108.233C65.1473 108.264 64.6997 108.323 64.0552 108.323L64.0552 108.551ZM65.3287 108.455L65.3818 108.678C66.302 108.458 66.6844 108.233 68.377 107.11L68.2506 106.919L68.1241 106.729C66.4274 107.855 66.1069 108.035 65.2756 108.233L65.3287 108.455ZM68.2506 106.919L68.377 107.11C75.7809 102.195 88.1046 92.3134 95.4391 77.4001L95.2339 77.2992L95.0288 77.1983C87.7453 92.008 75.497 101.834 68.1241 106.729L68.2506 106.919ZM95.2339 77.2992L95.4391 77.4001C100.986 66.121 102.55 53.4877 102.866 44.8368L102.637 44.8285L102.409 44.8202C102.095 53.4418 100.535 66.0018 95.0288 77.1983L95.2339 77.2992ZM102.637 44.8285L102.866 44.8368C102.987 41.5211 102.966 40.6949 102.64 39.7845L102.424 39.8617L102.209 39.9389C102.5 40.7481 102.531 41.4726 102.409 44.8202L102.637 44.8285ZM102.424 39.8617L102.64 39.7845C102.326 38.9104 101.719 38.0222 101.02 37.4112L100.87 37.5834L100.719 37.7555C101.36 38.3153 101.922 39.1381 102.209 39.9389L102.424 39.8617ZM100.87 37.5834L101.02 37.4112C100.739 37.1656 100.291 36.8754 99.3208 36.4611L99.231 36.6713L99.1412 36.8815C100.091 37.2869 100.489 37.5548 100.719 37.7556L100.87 37.5834ZM99.231 36.6713L99.3208 36.4611C98.3201 36.0337 96.9992 35.5689 95.0273 34.8784L94.9517 35.0941L94.8762 35.3098C96.854 36.0024 98.1579 36.4616 99.1413 36.8815L99.231 36.6713ZM94.9517 35.0941L95.0273 34.8784C86.5686 31.9163 78.4388 27.9547 70.8027 23.3737L70.6851 23.5697L70.5675 23.7657C78.2262 28.3603 86.3842 32.336 94.8762 35.3098L94.9517 35.0941ZM70.6851 23.5697L70.8027 23.3737C69.0753 22.3374 67.8902 21.6279 66.9547 21.1297L66.8472 21.3314L66.7398 21.5332C67.6626 22.0246 68.8359 22.7269 70.5675 23.7657L70.6851 23.5697ZM66.8472 21.3314L66.9547 21.1297C66.0203 20.6321 65.5551 20.4684 65.2801 20.408L65.231 20.6312L65.182 20.8545C65.3959 20.9015 65.8177 21.0421 66.7398 21.5332L66.8472 21.3314ZM63.6763 28.4613L63.7236 28.6849C63.9401 28.6392 64.1684 28.6392 64.385 28.6849L64.4322 28.4613L64.4794 28.2377C64.2006 28.1788 63.9079 28.1788 63.6291 28.2377L63.6763 28.4613ZM64.4322 28.4613L64.3849 28.6849C64.6233 28.7353 64.8502 28.8617 65.3869 29.1694L65.5006 28.9711L65.6142 28.7728C65.1029 28.4796 64.8046 28.3064 64.4794 28.2377L64.4322 28.4613ZM65.5006 28.9711L65.3869 29.1694C70.1772 31.916 74.9296 34.7095 79.9539 37.0772L80.0513 36.8705L80.1488 36.6637C75.1451 34.3057 70.4116 31.5234 65.6142 28.7728L65.5006 28.9711ZM80.0513 36.8705L79.9539 37.0772C84.3224 39.1359 88.8358 40.8199 93.3437 42.4978L93.4234 42.2836L93.5031 42.0694C88.9926 40.3905 84.4971 38.7129 80.1488 36.6637L80.0513 36.8705ZM93.4234 42.2836L93.3437 42.4978C94.0642 42.766 94.3646 42.8815 94.5838 43.0793L94.7369 42.9095L94.89 42.7398C94.5903 42.4695 94.1875 42.3241 93.5031 42.0694L93.4234 42.2836ZM94.7369 42.9095L94.5838 43.0792C94.7805 43.2568 94.9371 43.4935 95.0238 43.7441L95.2398 43.6693L95.4558 43.5945C95.3439 43.2713 95.1441 42.9692 94.89 42.7398L94.7369 42.9095ZM95.2398 43.6693L95.0238 43.744C95.1204 44.0234 95.1106 44.338 95.0769 45.0888L95.3052 45.099L95.5336 45.1092C95.5656 44.3949 95.5877 43.9759 95.4558 43.5946L95.2398 43.6693ZM95.3052 45.099L95.0769 45.0888C94.6321 55.0049 92.8565 65.0421 88.4654 73.9708L88.6705 74.0717L88.8756 74.1725C93.3042 65.1676 95.0872 55.062 95.5336 45.1092L95.3052 45.099ZM88.6705 74.0717L88.4654 73.9708C83.3477 84.3767 75.0157 93.0374 65.5291 99.6458L65.6597 99.8334L65.7904 100.021C75.3247 93.3793 83.7162 84.6634 88.8756 74.1725L88.6705 74.0717ZM65.6597 99.8334L65.5291 99.6458C64.9571 100.044 64.7168 100.208 64.4396 100.277L64.4947 100.498L64.5498 100.72C64.9277 100.626 65.246 100.4 65.7904 100.021L65.6597 99.8334ZM64.4947 100.498L64.4397 100.277C64.1973 100.337 63.9111 100.337 63.6689 100.277L63.6138 100.498L63.5588 100.72C63.8734 100.798 64.2351 100.798 64.5497 100.72L64.4947 100.498ZM63.6138 100.498L63.6689 100.277C63.3917 100.208 63.1515 100.044 62.5794 99.6458L62.4488 99.8334L62.3181 100.021C62.8626 100.4 63.1808 100.626 63.5588 100.72L63.6138 100.498ZM62.4488 99.8334L62.5794 99.6458C53.0929 93.0376 44.7617 84.3765 39.6441 73.9708L39.439 74.0717L39.2339 74.1725C44.3933 84.6631 52.7839 93.3795 62.3181 100.021L62.4488 99.8334ZM39.439 74.0717L39.6441 73.9708C35.253 65.0421 33.4774 55.0049 33.0326 45.0888L32.8043 45.099L32.5759 45.1092C33.0223 55.062 34.8053 65.1676 39.2339 74.1725L39.439 74.0717ZM32.8043 45.099L33.0326 45.0888C32.9989 44.3374 32.9881 44.0233 33.0847 43.744L32.8687 43.6693L32.6527 43.5946C32.5208 43.9761 32.5439 44.3954 32.5759 45.1092L32.8043 45.099ZM32.8687 43.6693L33.0847 43.7441C33.1713 43.4938 33.3287 43.2571 33.5257 43.0792L33.3726 42.9095L33.2195 42.7398C32.9656 42.9689 32.7648 43.2708 32.6527 43.5946L32.8687 43.6693ZM33.3726 42.9095L33.5257 43.0793C33.745 42.8816 34.0453 42.7659 34.7658 42.4978L34.6861 42.2836L34.6064 42.0694C33.9219 42.3241 33.5193 42.4696 33.2196 42.7398L33.3726 42.9095ZM34.6861 42.2836L34.7658 42.4978C39.2757 40.8193 43.7749 39.1412 48.1546 37.0772L48.0572 36.8705L47.9598 36.6637C43.6002 38.7181 39.1189 40.3899 34.6064 42.0694L34.6861 42.2836ZM48.0572 36.8705L48.1546 37.0772C53.179 34.7095 57.9322 31.916 62.7226 29.1694L62.609 28.9711L62.4953 28.7728C57.6978 31.5235 52.9635 34.3057 47.9598 36.6637L48.0572 36.8705ZM62.609 28.9711L62.7226 29.1694C63.2593 28.8617 63.4854 28.7353 63.7236 28.6849L63.6763 28.4613L63.6291 28.2377C63.304 28.3064 63.0061 28.4799 62.4953 28.7728L62.609 28.9711Z" fill="url(#paint6_linear_10_12067)" mask="url(#path-11-inside-1_10_12067)"/>
</g>
</g>
</g>
<g filter="url(#filter2_d_10_12067)">
<path d="M49.6263 44.1404L46.6403 45.2262C45.4057 45.6752 45.4057 47.4211 46.6403 47.8701L49.6263 48.9559L50.7121 51.9419C51.161 53.1764 52.907 53.1764 53.3559 51.9419L54.4417 48.9559L57.4277 47.8701C58.6622 47.4211 58.6622 45.6752 57.4277 45.2262L54.4417 44.1404L53.3559 41.1544C52.907 39.9199 51.161 39.9199 50.7121 41.1544L49.6263 44.1404Z" fill="white"/>
<path d="M61.1708 53.9187L67.604 51.5794L69.9434 45.1461C70.3923 43.9115 72.1383 43.9116 72.5874 45.1461L74.9265 51.5794L81.3598 53.9187C82.5945 54.3677 82.5945 56.1137 81.3598 56.5626L74.9265 58.9019L72.5874 65.3352C72.1383 66.5698 70.3923 66.5698 69.9434 65.3352L67.604 58.9019L61.1708 56.5626C59.9362 56.1137 59.9362 54.3677 61.1708 53.9187Z" fill="white"/>
<path d="M46.6403 66.7473L51.3948 65.0184L53.1237 60.2639C53.5726 59.0294 55.3186 59.0294 55.7675 60.2639L57.4964 65.0184L62.2509 66.7473C63.4855 67.1962 63.4855 68.9423 62.2509 69.391L57.4964 71.12L55.7675 75.8746C55.3186 77.109 53.5726 77.109 53.1237 75.8746L51.3948 71.12L46.6403 69.391C45.4057 68.9423 45.4057 67.1962 46.6403 66.7473Z" fill="white"/>
<path d="M53.0161 60.2246C53.5016 58.89 55.3889 58.8902 55.8745 60.2246L57.5854 64.9287L62.2896 66.6396C63.6244 67.125 63.6244 69.0129 62.2896 69.498L57.5854 71.209L55.8745 75.9141C55.3889 77.2482 53.5016 77.2484 53.0161 75.9141L51.3052 71.209L46.6011 69.498C45.2665 69.0127 45.2664 67.125 46.6011 66.6396L51.3052 64.9287L53.0161 60.2246ZM69.8364 45.1074C70.3218 43.7726 72.2093 43.7726 72.6948 45.1074L75.0151 51.4893L81.3989 53.8115C82.7338 54.297 82.7338 56.1845 81.3989 56.6699L75.0151 58.9912L72.6948 65.374C72.2093 66.7089 70.3218 66.7089 69.8364 65.374L67.5142 58.9912L61.1313 56.6699C59.797 56.1844 59.797 54.2971 61.1313 53.8115L67.5142 51.4893L69.8364 45.1074ZM50.605 41.1152C51.0905 39.7806 52.9779 39.7806 53.4634 41.1152L54.5308 44.0508L57.4663 45.1191C58.8012 45.6045 58.8012 47.4921 57.4663 47.9775L54.5308 49.0449L53.4634 51.9805C52.978 53.3153 51.0904 53.3153 50.605 51.9805L49.5366 49.0449L46.6011 47.9775C45.2664 47.4921 45.2665 45.6047 46.6011 45.1191L49.5366 44.0508L50.605 41.1152Z" stroke="url(#paint7_linear_10_12067)" stroke-width="0.228571" stroke-linecap="round" style="mix-blend-mode:color-burn"/>
</g>
</g>
<g filter="url(#filter3_dd_10_12067)">
<mask id="path-15-inside-2_10_12067" fill="white">
<path d="M27.5986 83.2002C29.6466 83.2002 30.6708 83.2 31.4531 83.5986C32.1411 83.9493 32.7001 84.5092 33.0507 85.1973C33.4492 85.9796 33.4501 87.0037 33.4501 89.0518V98.377C33.4501 100.425 33.4493 101.449 33.0507 102.231C32.7001 102.92 32.1412 103.479 31.4531 103.83C30.6708 104.229 29.6466 104.229 27.5986 104.229H19.954C18.4611 104.229 17.7143 104.228 17.2499 103.914C16.8442 103.639 16.5653 103.213 16.4765 102.731C16.375 102.18 16.675 101.495 17.2744 100.128L20.0849 93.7139L17.2744 87.2998C16.6751 85.9325 16.375 85.2488 16.4765 84.6973C16.5653 84.2153 16.8441 83.7894 17.2499 83.5146C17.7143 83.2003 18.461 83.2002 19.954 83.2002H27.5986ZM107.915 83.2002C109.408 83.2002 110.154 83.2004 110.618 83.5146C111.024 83.7894 111.303 84.2153 111.392 84.6973C111.493 85.2488 111.193 85.9324 110.594 87.2998L107.783 93.7139L110.594 100.128C111.193 101.495 111.493 102.18 111.392 102.731C111.303 103.213 111.024 103.639 110.618 103.914C110.154 104.228 109.408 104.229 107.915 104.229H100.269C98.2215 104.229 97.1972 104.229 96.415 103.83C95.7269 103.479 95.1679 102.92 94.8173 102.231C94.4188 101.449 94.4189 100.425 94.4189 98.377V89.0518C94.4189 87.0038 94.4188 85.9795 94.8173 85.1973C95.1679 84.5092 95.727 83.9493 96.415 83.5986C97.1972 83.2001 98.2215 83.2002 100.269 83.2002H107.915Z"/>
</mask>
<path d="M27.5986 83.2002C29.6466 83.2002 30.6708 83.2 31.4531 83.5986C32.1411 83.9493 32.7001 84.5092 33.0507 85.1973C33.4492 85.9796 33.4501 87.0037 33.4501 89.0518V98.377C33.4501 100.425 33.4493 101.449 33.0507 102.231C32.7001 102.92 32.1412 103.479 31.4531 103.83C30.6708 104.229 29.6466 104.229 27.5986 104.229H19.954C18.4611 104.229 17.7143 104.228 17.2499 103.914C16.8442 103.639 16.5653 103.213 16.4765 102.731C16.375 102.18 16.675 101.495 17.2744 100.128L20.0849 93.7139L17.2744 87.2998C16.6751 85.9325 16.375 85.2488 16.4765 84.6973C16.5653 84.2153 16.8441 83.7894 17.2499 83.5146C17.7143 83.2003 18.461 83.2002 19.954 83.2002H27.5986ZM107.915 83.2002C109.408 83.2002 110.154 83.2004 110.618 83.5146C111.024 83.7894 111.303 84.2153 111.392 84.6973C111.493 85.2488 111.193 85.9324 110.594 87.2998L107.783 93.7139L110.594 100.128C111.193 101.495 111.493 102.18 111.392 102.731C111.303 103.213 111.024 103.639 110.618 103.914C110.154 104.228 109.408 104.229 107.915 104.229H100.269C98.2215 104.229 97.1972 104.229 96.415 103.83C95.7269 103.479 95.1679 102.92 94.8173 102.231C94.4188 101.449 94.4189 100.425 94.4189 98.377V89.0518C94.4189 87.0038 94.4188 85.9795 94.8173 85.1973C95.1679 84.5092 95.727 83.9493 96.415 83.5986C97.1972 83.2001 98.2215 83.2002 100.269 83.2002H107.915Z" fill="#FFA00F"/>
<path d="M27.5986 83.2002V82.9716V83.2002ZM31.4531 83.5986L31.5568 83.395L31.5568 83.395L31.4531 83.5986ZM33.0507 85.1973L33.2544 85.0935L33.2544 85.0935L33.0507 85.1973ZM33.0507 102.231L33.2544 102.335L33.2544 102.335L33.0507 102.231ZM31.4531 103.83L31.5568 104.034L31.5568 104.034L31.4531 103.83ZM27.5986 104.229V104.457V104.229ZM17.2499 103.914L17.1218 104.103L17.1218 104.103L17.2499 103.914ZM16.4765 102.731L16.2517 102.773L16.2517 102.773L16.4765 102.731ZM17.2744 100.128L17.4837 100.22L17.4837 100.22L17.2744 100.128ZM20.0849 93.7139L20.2943 93.8056L20.3345 93.7139L20.2943 93.6221L20.0849 93.7139ZM17.2744 87.2998L17.4837 87.2081L17.4837 87.208L17.2744 87.2998ZM16.4765 84.6973L16.2517 84.6559L16.2517 84.6559L16.4765 84.6973ZM17.2499 83.5146L17.1218 83.3254L17.1218 83.3254L17.2499 83.5146ZM107.915 83.2002V82.9716V83.2002ZM110.618 83.5146L110.746 83.3254L110.746 83.3254L110.618 83.5146ZM111.392 84.6973L111.616 84.6559V84.6559L111.392 84.6973ZM110.594 87.2998L110.384 87.208L110.384 87.2081L110.594 87.2998ZM107.783 93.7139L107.574 93.6221L107.534 93.7139L107.574 93.8056L107.783 93.7139ZM110.594 100.128L110.384 100.22L110.384 100.22L110.594 100.128ZM111.392 102.731L111.616 102.773L111.616 102.773L111.392 102.731ZM110.618 103.914L110.746 104.103L110.746 104.103L110.618 103.914ZM107.915 104.229V104.457V104.229ZM100.269 104.229V104.457V104.229ZM96.415 103.83L96.3112 104.034L96.3112 104.034L96.415 103.83ZM94.8173 102.231L94.6137 102.335L94.6137 102.335L94.8173 102.231ZM94.8173 85.1973L94.6137 85.0935L94.6137 85.0935L94.8173 85.1973ZM96.415 83.5986L96.3112 83.395L96.3112 83.395L96.415 83.5986ZM100.269 83.2002V82.9716V83.2002ZM27.5986 83.2002V83.4288C28.6264 83.4288 29.3835 83.4289 29.9819 83.4778C30.5776 83.5264 30.9958 83.6222 31.3493 83.8023L31.4531 83.5986L31.5568 83.395C31.1281 83.1765 30.643 83.0731 30.0191 83.0221C29.3978 82.9714 28.6188 82.9716 27.5986 82.9716V83.2002ZM31.4531 83.5986L31.3493 83.8023C31.9942 84.1309 32.5183 84.6558 32.8471 85.301L33.0507 85.1973L33.2544 85.0935C32.8819 84.3625 32.288 83.7676 31.5568 83.395L31.4531 83.5986ZM33.0507 85.1973L32.8471 85.301C33.0272 85.6546 33.1232 86.0729 33.1721 86.6685C33.2212 87.2669 33.2216 88.024 33.2216 89.0518H33.4501H33.6787C33.6787 88.0315 33.6787 87.2525 33.6277 86.6312C33.5765 86.0072 33.4728 85.5222 33.2544 85.0935L33.0507 85.1973ZM33.4501 89.0518H33.2216V98.377H33.4501H33.6787V89.0518H33.4501ZM33.4501 98.377H33.2216C33.2216 99.4047 33.2212 100.162 33.1721 100.76C33.1232 101.356 33.0272 101.774 32.8471 102.128L33.0507 102.231L33.2544 102.335C33.4728 101.907 33.5765 101.422 33.6277 100.798C33.6787 100.176 33.6787 99.3973 33.6787 98.377H33.4501ZM33.0507 102.231L32.8471 102.128C32.5183 102.773 31.9943 103.298 31.3493 103.626L31.4531 103.83L31.5568 104.034C32.2881 103.661 32.8819 103.066 33.2544 102.335L33.0507 102.231ZM31.4531 103.83L31.3493 103.626C30.9958 103.807 30.5776 103.902 29.9819 103.951C29.3835 104 28.6264 104 27.5986 104V104.229V104.457C28.6188 104.457 29.3978 104.457 30.0191 104.407C30.643 104.356 31.1281 104.252 31.5568 104.034L31.4531 103.83ZM27.5986 104.229V104H19.954V104.229V104.457H27.5986V104.229ZM19.954 104.229V104C19.2032 104 18.6556 104 18.237 103.962C17.8188 103.923 17.5623 103.849 17.3781 103.725L17.2499 103.914L17.1218 104.103C17.402 104.293 17.7511 104.376 18.1955 104.417C18.6397 104.457 19.212 104.457 19.954 104.457V104.229ZM17.2499 103.914L17.3781 103.725C17.0229 103.484 16.779 103.112 16.7013 102.69L16.4765 102.731L16.2517 102.773C16.3517 103.315 16.6654 103.794 17.1218 104.103L17.2499 103.914ZM16.4765 102.731L16.7013 102.69C16.661 102.471 16.6963 102.207 16.8294 101.808C16.9626 101.409 17.1822 100.907 17.4837 100.22L17.2744 100.128L17.065 100.036C16.7671 100.716 16.5371 101.24 16.3958 101.663C16.2544 102.087 16.1904 102.44 16.2517 102.773L16.4765 102.731ZM17.2744 100.128L17.4837 100.22L20.2943 93.8056L20.0849 93.7139L19.8755 93.6221L17.065 100.036L17.2744 100.128ZM20.0849 93.7139L20.2943 93.6221L17.4837 87.2081L17.2744 87.2998L17.065 87.3915L19.8755 93.8056L20.0849 93.7139ZM17.2744 87.2998L17.4837 87.208C17.1823 86.5203 16.9626 86.0188 16.8294 85.6202C16.6963 85.2218 16.661 84.9574 16.7013 84.7387L16.4765 84.6973L16.2517 84.6559C16.1904 84.9886 16.2544 85.3418 16.3958 85.765C16.5371 86.188 16.7671 86.712 17.065 87.3916L17.2744 87.2998ZM16.4765 84.6973L16.7013 84.7387C16.779 84.3171 17.0229 83.9444 17.3781 83.7039L17.2499 83.5146L17.1218 83.3254C16.6654 83.6344 16.3516 84.1135 16.2517 84.6559L16.4765 84.6973ZM17.2499 83.5146L17.3781 83.7039C17.5623 83.5792 17.8187 83.5053 18.237 83.4672C18.6555 83.429 19.2031 83.4288 19.954 83.4288V83.2002V82.9716C19.2119 82.9716 18.6397 82.9714 18.1955 83.0119C17.7511 83.0524 17.4019 83.1357 17.1218 83.3254L17.2499 83.5146ZM19.954 83.2002V83.4288H27.5986V83.2002V82.9716H19.954V83.2002ZM107.915 83.2002V83.4288C108.666 83.4288 109.213 83.429 109.631 83.4672C110.049 83.5053 110.306 83.5792 110.49 83.7039L110.618 83.5146L110.746 83.3254C110.466 83.1358 110.117 83.0525 109.673 83.0119C109.229 82.9714 108.657 82.9716 107.915 82.9716V83.2002ZM110.618 83.5146L110.49 83.7039C110.845 83.9444 111.089 84.3171 111.167 84.7387L111.392 84.6973L111.616 84.6559C111.516 84.1135 111.203 83.6344 110.746 83.3254L110.618 83.5146ZM111.392 84.6973L111.167 84.7387C111.207 84.9574 111.172 85.2218 111.039 85.6202C110.905 86.0187 110.686 86.5203 110.384 87.208L110.594 87.2998L110.803 87.3916C111.101 86.712 111.331 86.188 111.472 85.765C111.614 85.3418 111.678 84.9886 111.616 84.6559L111.392 84.6973ZM110.594 87.2998L110.384 87.2081L107.574 93.6221L107.783 93.7139L107.993 93.8056L110.803 87.3915L110.594 87.2998ZM107.783 93.7139L107.574 93.8056L110.384 100.22L110.594 100.128L110.803 100.036L107.993 93.6221L107.783 93.7139ZM110.594 100.128L110.384 100.22C110.686 100.907 110.905 101.409 111.039 101.808C111.172 102.207 111.207 102.471 111.167 102.69L111.392 102.731L111.616 102.773C111.678 102.44 111.614 102.087 111.472 101.663C111.331 101.24 111.101 100.716 110.803 100.036L110.594 100.128ZM111.392 102.731L111.167 102.69C111.089 103.112 110.845 103.484 110.49 103.725L110.618 103.914L110.746 104.103C111.203 103.794 111.516 103.315 111.616 102.773L111.392 102.731ZM110.618 103.914L110.49 103.725C110.306 103.849 110.049 103.923 109.631 103.962C109.213 104 108.666 104 107.915 104V104.229V104.457C108.657 104.457 109.229 104.457 109.673 104.417C110.117 104.376 110.466 104.293 110.746 104.103L110.618 103.914ZM107.915 104.229V104H100.269V104.229V104.457H107.915V104.229ZM100.269 104.229V104C99.2417 104 98.4846 104 97.8862 103.951C97.2905 103.902 96.8723 103.807 96.5187 103.626L96.415 103.83L96.3112 104.034C96.7399 104.252 97.225 104.356 97.849 104.407C98.4703 104.457 99.2493 104.457 100.269 104.457V104.229ZM96.415 103.83L96.5188 103.626C95.8738 103.298 95.3497 102.773 95.021 102.128L94.8173 102.231L94.6137 102.335C94.9861 103.066 95.58 103.661 96.3112 104.034L96.415 103.83ZM94.8173 102.231L95.021 102.128C94.8409 101.774 94.7451 101.356 94.6965 100.76C94.6476 100.162 94.6475 99.4048 94.6475 98.377H94.4189H94.1903C94.1903 99.3972 94.1901 100.176 94.2408 100.797C94.2918 101.421 94.3952 101.906 94.6137 102.335L94.8173 102.231ZM94.4189 98.377H94.6475V89.0518H94.4189H94.1903V98.377H94.4189ZM94.4189 89.0518H94.6475C94.6475 88.024 94.6476 87.2668 94.6965 86.6685C94.7451 86.0728 94.8409 85.6546 95.021 85.301L94.8173 85.1973L94.6137 85.0935C94.3953 85.5222 94.2918 86.0073 94.2409 86.6313C94.1901 87.2526 94.1903 88.0315 94.1903 89.0518H94.4189ZM94.8173 85.1973L95.021 85.301C95.3497 84.6559 95.8738 84.1309 96.5188 83.8023L96.415 83.5986L96.3112 83.395C95.58 83.7676 94.9861 84.3625 94.6137 85.0935L94.8173 85.1973ZM96.415 83.5986L96.5187 83.8023C96.8723 83.6222 97.2905 83.5264 97.8862 83.4778C98.4846 83.4289 99.2417 83.4288 100.269 83.4288V83.2002V82.9716C99.2493 82.9716 98.4703 82.9714 97.849 83.0221C97.225 83.0731 96.7399 83.1765 96.3112 83.395L96.415 83.5986ZM100.269 83.2002V83.4288H107.915V83.2002V82.9716H100.269V83.2002Z" fill="url(#paint8_linear_10_12067)" style="mix-blend-mode:darken" mask="url(#path-15-inside-2_10_12067)"/>
</g>
<path d="M27.5986 83.2002C29.6466 83.2002 30.6708 83.2 31.4531 83.5986C32.1411 83.9493 32.7001 84.5092 33.0507 85.1973C33.4492 85.9796 33.4501 87.0037 33.4501 89.0518V98.377C33.4501 100.425 33.4493 101.449 33.0507 102.231C32.7001 102.92 32.1412 103.479 31.4531 103.83C30.6708 104.229 29.6466 104.229 27.5986 104.229H19.954C18.4611 104.229 17.7143 104.228 17.2499 103.914C16.8442 103.639 16.5653 103.213 16.4765 102.731C16.375 102.18 16.675 101.495 17.2744 100.128L20.0849 93.7139L17.2744 87.2998C16.6751 85.9325 16.375 85.2488 16.4765 84.6973C16.5653 84.2153 16.8441 83.7894 17.2499 83.5146C17.7143 83.2003 18.461 83.2002 19.954 83.2002H27.5986ZM107.915 83.2002C109.408 83.2002 110.154 83.2004 110.618 83.5146C111.024 83.7894 111.303 84.2153 111.392 84.6973C111.493 85.2488 111.193 85.9324 110.594 87.2998L107.783 93.7139L110.594 100.128C111.193 101.495 111.493 102.18 111.392 102.731C111.303 103.213 111.024 103.639 110.618 103.914C110.154 104.228 109.408 104.229 107.915 104.229H100.269C98.2215 104.229 97.1972 104.229 96.415 103.83C95.7269 103.479 95.1679 102.92 94.8173 102.231C94.4188 101.449 94.4189 100.425 94.4189 98.377V89.0518C94.4189 87.0038 94.4188 85.9795 94.8173 85.1973C95.1679 84.5092 95.727 83.9493 96.415 83.5986C97.1972 83.2001 98.2215 83.2002 100.269 83.2002H107.915Z" fill="url(#paint9_linear_10_12067)" fill-opacity="0.3" style="mix-blend-mode:overlay"/>
<path d="M27.5986 83.2002C29.6466 83.2002 30.6708 83.2 31.4531 83.5986C32.1411 83.9493 32.7001 84.5092 33.0507 85.1973C33.4492 85.9796 33.4501 87.0037 33.4501 89.0518V98.377C33.4501 100.425 33.4493 101.449 33.0507 102.231C32.7001 102.92 32.1412 103.479 31.4531 103.83C30.6708 104.229 29.6466 104.229 27.5986 104.229H19.954C18.4611 104.229 17.7143 104.228 17.2499 103.914C16.8442 103.639 16.5653 103.213 16.4765 102.731C16.375 102.18 16.675 101.495 17.2744 100.128L20.0849 93.7139L17.2744 87.2998C16.6751 85.9325 16.375 85.2488 16.4765 84.6973C16.5653 84.2153 16.8441 83.7894 17.2499 83.5146C17.7143 83.2003 18.461 83.2002 19.954 83.2002H27.5986ZM107.915 83.2002C109.408 83.2002 110.154 83.2004 110.618 83.5146C111.024 83.7894 111.303 84.2153 111.392 84.6973C111.493 85.2488 111.193 85.9324 110.594 87.2998L107.783 93.7139L110.594 100.128C111.193 101.495 111.493 102.18 111.392 102.731C111.303 103.213 111.024 103.639 110.618 103.914C110.154 104.228 109.408 104.229 107.915 104.229H100.269C98.2215 104.229 97.1972 104.229 96.415 103.83C95.7269 103.479 95.1679 102.92 94.8173 102.231C94.4188 101.449 94.4189 100.425 94.4189 98.377V89.0518C94.4189 87.0038 94.4188 85.9795 94.8173 85.1973C95.1679 84.5092 95.727 83.9493 96.415 83.5986C97.1972 83.2001 98.2215 83.2002 100.269 83.2002H107.915Z" fill="url(#paint10_radial_10_12067)" fill-opacity="0.6" style="mix-blend-mode:overlay"/>
<path d="M27.5986 83.2002C29.6466 83.2002 30.6708 83.2 31.4531 83.5986C32.1411 83.9493 32.7001 84.5092 33.0507 85.1973C33.4492 85.9796 33.4501 87.0037 33.4501 89.0518V98.377C33.4501 100.425 33.4493 101.449 33.0507 102.231C32.7001 102.92 32.1412 103.479 31.4531 103.83C30.6708 104.229 29.6466 104.229 27.5986 104.229H19.954C18.4611 104.229 17.7143 104.228 17.2499 103.914C16.8442 103.639 16.5653 103.213 16.4765 102.731C16.375 102.18 16.675 101.495 17.2744 100.128L20.0849 93.7139L17.2744 87.2998C16.6751 85.9325 16.375 85.2488 16.4765 84.6973C16.5653 84.2153 16.8441 83.7894 17.2499 83.5146C17.7143 83.2003 18.461 83.2002 19.954 83.2002H27.5986ZM107.915 83.2002C109.408 83.2002 110.154 83.2004 110.618 83.5146C111.024 83.7894 111.303 84.2153 111.392 84.6973C111.493 85.2488 111.193 85.9324 110.594 87.2998L107.783 93.7139L110.594 100.128C111.193 101.495 111.493 102.18 111.392 102.731C111.303 103.213 111.024 103.639 110.618 103.914C110.154 104.228 109.408 104.229 107.915 104.229H100.269C98.2215 104.229 97.1972 104.229 96.415 103.83C95.7269 103.479 95.1679 102.92 94.8173 102.231C94.4188 101.449 94.4189 100.425 94.4189 98.377V89.0518C94.4189 87.0038 94.4188 85.9795 94.8173 85.1973C95.1679 84.5092 95.727 83.9493 96.415 83.5986C97.1972 83.2001 98.2215 83.2002 100.269 83.2002H107.915Z" fill="black" fill-opacity="0.24" style="mix-blend-mode:overlay"/>
<path d="M27.5986 83.2002C29.6466 83.2002 30.6708 83.2 31.4531 83.5986C32.1411 83.9493 32.7001 84.5092 33.0507 85.1973C33.4492 85.9796 33.4501 87.0037 33.4501 89.0518V98.377C33.4501 100.425 33.4493 101.449 33.0507 102.231C32.7001 102.92 32.1412 103.479 31.4531 103.83C30.6708 104.229 29.6466 104.229 27.5986 104.229H19.954C18.4611 104.229 17.7143 104.228 17.2499 103.914C16.8442 103.639 16.5653 103.213 16.4765 102.731C16.375 102.18 16.675 101.495 17.2744 100.128L20.0849 93.7139L17.2744 87.2998C16.6751 85.9325 16.375 85.2488 16.4765 84.6973C16.5653 84.2153 16.8441 83.7894 17.2499 83.5146C17.7143 83.2003 18.461 83.2002 19.954 83.2002H27.5986ZM107.915 83.2002C109.408 83.2002 110.154 83.2004 110.618 83.5146C111.024 83.7894 111.303 84.2153 111.392 84.6973C111.493 85.2488 111.193 85.9324 110.594 87.2998L107.783 93.7139L110.594 100.128C111.193 101.495 111.493 102.18 111.392 102.731C111.303 103.213 111.024 103.639 110.618 103.914C110.154 104.228 109.408 104.229 107.915 104.229H100.269C98.2215 104.229 97.1972 104.229 96.415 103.83C95.7269 103.479 95.1679 102.92 94.8173 102.231C94.4188 101.449 94.4189 100.425 94.4189 98.377V89.0518C94.4189 87.0038 94.4188 85.9795 94.8173 85.1973C95.1679 84.5092 95.727 83.9493 96.415 83.5986C97.1972 83.2001 98.2215 83.2002 100.269 83.2002H107.915Z" fill="black" fill-opacity="0.12" style="mix-blend-mode:darken"/>
<g filter="url(#filter4_dd_10_12067)">
<rect x="23.7056" y="77.7139" width="80.4571" height="21.0286" rx="3.65714" fill="#FFA00F"/>
<rect x="23.8199" y="77.8282" width="80.2286" height="20.8" rx="3.54286" stroke="url(#paint11_linear_10_12067)" stroke-width="0.228571" stroke-linecap="round" style="mix-blend-mode:darken"/>
</g>
<rect x="23.7056" y="77.7139" width="80.4571" height="21.0286" rx="3.65714" fill="url(#paint12_linear_10_12067)" fill-opacity="0.3" style="mix-blend-mode:overlay"/>
<rect x="23.7056" y="77.7139" width="80.4571" height="21.0286" rx="3.65714" fill="url(#paint13_radial_10_12067)" fill-opacity="0.6" style="mix-blend-mode:overlay"/>
<g filter="url(#filter5_i_10_12067)">
<circle cx="28.7342" cy="88.2289" r="1.37143" fill="black" fill-opacity="0.24" style="mix-blend-mode:color-burn"/>
<circle cx="28.7342" cy="88.2289" r="1.37143" fill="black" fill-opacity="0.32" style="mix-blend-mode:darken"/>
</g>
<g filter="url(#filter6_i_10_12067)">
<circle cx="99.1341" cy="88.2289" r="1.37143" fill="black" fill-opacity="0.24" style="mix-blend-mode:color-burn"/>
<circle cx="99.1341" cy="88.2289" r="1.37143" fill="black" fill-opacity="0.32" style="mix-blend-mode:darken"/>
</g>
<g filter="url(#filter7_i_10_12067)">
<path d="M44.293 90.0865C44.2126 90.1523 44.1028 90.2072 43.9639 90.251C43.8322 90.2949 43.6786 90.3169 43.5031 90.3169C43.2763 90.3169 43.0862 90.2876 42.9326 90.2291C42.779 90.1706 42.6802 90.0718 42.6363 89.9329C42.3876 89.238 42.1755 88.6602 42 88.1994C41.8318 87.7386 41.7001 87.34 41.605 87.0035H41.5502C41.5282 87.4643 41.5099 87.8849 41.4953 88.2652C41.4807 88.6456 41.4697 89.0186 41.4624 89.3843C41.4551 89.7427 41.4441 90.1084 41.4295 90.4814C41.4148 90.8545 41.3929 91.2641 41.3636 91.7102C41.2832 91.7322 41.1735 91.7578 41.0345 91.787C40.9028 91.8163 40.7712 91.8309 40.6395 91.8309C40.3616 91.8309 40.1422 91.7834 39.9812 91.6883C39.8276 91.5932 39.7508 91.4286 39.7508 91.1946C39.7508 91.0337 39.7582 90.796 39.7728 90.4814C39.7947 90.1596 39.8167 89.7939 39.8386 89.3843C39.8679 88.9674 39.8935 88.5285 39.9154 88.0677C39.9447 87.6069 39.9739 87.1534 40.0032 86.7073C40.0398 86.2538 40.0727 85.8369 40.1019 85.4565C40.1604 85.3688 40.2775 85.281 40.453 85.1932C40.6286 85.0981 40.8699 85.0506 41.1771 85.0506C41.5063 85.0506 41.7696 85.1054 41.9671 85.2152C42.1719 85.3176 42.3182 85.4894 42.4059 85.7308C42.5156 85.9941 42.6327 86.3013 42.757 86.6524C42.8814 86.9962 43.002 87.3473 43.1191 87.7057C43.2434 88.0568 43.3568 88.3749 43.4592 88.6602H43.514C43.7188 88.0165 43.9273 87.3875 44.1394 86.7731C44.3588 86.1587 44.5454 85.6467 44.699 85.2371C44.8014 85.1786 44.9294 85.1347 45.083 85.1054C45.2439 85.0689 45.4121 85.0506 45.5876 85.0506C45.9022 85.0506 46.1545 85.0981 46.3447 85.1932C46.5422 85.281 46.6592 85.4163 46.6958 85.5992C46.725 85.7381 46.7543 85.9576 46.7835 86.2574C46.8201 86.5573 46.8567 86.9048 46.8932 87.2997C46.9298 87.6874 46.9664 88.097 47.003 88.5285C47.0395 88.9528 47.0724 89.3697 47.1017 89.7793C47.1383 90.1816 47.1675 90.5436 47.1895 90.8654C47.2114 91.1873 47.226 91.4433 47.2334 91.6334C47.1236 91.6993 47.0066 91.7468 46.8823 91.7761C46.7652 91.8126 46.6153 91.8309 46.4324 91.8309C46.1984 91.8309 45.9972 91.787 45.829 91.6993C45.6681 91.6115 45.5803 91.4433 45.5657 91.1946C45.5291 90.6241 45.4999 90.0828 45.4779 89.5708C45.456 89.0515 45.4377 88.5797 45.4231 88.1555C45.4158 87.724 45.4048 87.3546 45.3902 87.0474H45.3353C45.2402 87.3619 45.1049 87.7605 44.9294 88.2433C44.7611 88.7187 44.549 89.3331 44.293 90.0865ZM51.3241 86.4769H51.2582C51.1851 86.7109 51.0973 86.9706 50.9949 87.2558C50.8998 87.5411 50.8011 87.841 50.6987 88.1555C50.5963 88.4627 50.4976 88.7699 50.4025 89.0771L50.205 90.0645C50.1611 90.2035 50.1172 90.3498 50.0733 90.5034C50.0368 90.657 49.9965 90.8069 49.9526 90.9532C49.9088 91.0995 49.8685 91.2385 49.832 91.3701C49.7954 91.5018 49.7588 91.6261 49.7222 91.7432C49.6418 91.7651 49.5504 91.787 49.448 91.809C49.3456 91.8382 49.2249 91.8529 49.0859 91.8529C48.7787 91.8529 48.5446 91.798 48.3837 91.6883C48.2228 91.5786 48.1424 91.4177 48.1424 91.2056C48.1424 91.1178 48.1533 91.0264 48.1753 90.9313C48.2045 90.8362 48.2374 90.7265 48.274 90.6021C48.3398 90.3608 48.4313 90.0572 48.5483 89.6915C48.6726 89.3258 48.8043 88.9308 48.9433 88.5066C49.0896 88.075 49.2358 87.6508 49.3821 87.2339C49.5357 86.817 49.6747 86.433 49.799 86.0819C49.9307 85.7308 50.0368 85.4565 50.1172 85.259C50.2196 85.1932 50.3805 85.1347 50.6 85.0835C50.8267 85.025 51.0498 84.9957 51.2692 84.9957C51.5837 84.9957 51.8653 85.0433 52.114 85.1384C52.3627 85.2261 52.52 85.3688 52.5858 85.5662C52.7248 85.9539 52.8747 86.4037 53.0356 86.9157C53.2038 87.4204 53.3721 87.9507 53.5403 88.5066C53.7085 89.0625 53.8694 89.6037 54.023 90.1304C54.184 90.6497 54.3229 91.1178 54.44 91.5347C54.3595 91.6225 54.2425 91.6956 54.0889 91.7541C53.9353 91.82 53.7524 91.8529 53.5403 91.8529C53.2404 91.8529 53.0283 91.798 52.904 91.6883C52.7796 91.5786 52.6845 91.414 52.6187 91.1946L52.2676 89.9658L52.0811 89.0332C51.9933 88.7041 51.9019 88.3859 51.8068 88.0787C51.7117 87.7715 51.624 87.4826 51.5435 87.212C51.463 86.934 51.3899 86.689 51.3241 86.4769ZM49.4699 90.262L50.1172 88.9674H52.6845L52.904 90.262H49.4699ZM61.1803 88.4627V90.7448C61.1803 90.9496 61.14 91.1068 61.0596 91.2165C60.9864 91.3189 60.8621 91.4177 60.6866 91.5128C60.4891 91.6225 60.2038 91.7176 59.8308 91.798C59.4578 91.8858 59.0847 91.9297 58.7117 91.9297C58.0095 91.9297 57.3768 91.809 56.8136 91.5676C56.2578 91.3189 55.8152 90.9386 55.4861 90.4266C55.1643 89.9073 55.0034 89.2417 55.0034 88.4298C55.0034 87.6545 55.1679 87.0072 55.4971 86.4878C55.8262 85.9612 56.2687 85.5662 56.8246 85.3029C57.3878 85.0323 58.0095 84.897 58.6898 84.897C59.1432 84.897 59.5346 84.9445 59.8637 85.0396C60.2002 85.1347 60.4562 85.2664 60.6317 85.4346C60.8146 85.6028 60.906 85.7966 60.906 86.0161C60.906 86.177 60.8621 86.3233 60.7743 86.4549C60.6939 86.5793 60.5951 86.6744 60.4781 86.7402C60.2952 86.6232 60.0648 86.5134 59.7869 86.411C59.509 86.3086 59.1835 86.2574 58.8104 86.2574C58.4082 86.2574 58.0461 86.3452 57.7243 86.5208C57.4098 86.689 57.1647 86.9377 56.9892 87.2668C56.8136 87.5886 56.7259 87.9726 56.7259 88.4188C56.7259 88.9016 56.81 89.3038 56.9782 89.6257C57.1538 89.9475 57.3915 90.1889 57.6914 90.3498C57.9986 90.5034 58.346 90.5802 58.7336 90.5802C58.9165 90.5802 59.0811 90.5619 59.2274 90.5253C59.381 90.4888 59.498 90.4522 59.5784 90.4156V89.132H58.2948C58.2509 89.0588 58.2107 88.9674 58.1741 88.8577C58.1375 88.7406 58.1192 88.6163 58.1192 88.4846C58.1192 88.2579 58.1704 88.0933 58.2728 87.9909C58.3826 87.8812 58.5252 87.8264 58.7007 87.8264H60.5439C60.7414 87.8264 60.895 87.8812 61.0047 87.9909C61.1218 88.1006 61.1803 88.2579 61.1803 88.4627ZM62.5649 87.1022H64.2326V91.7322C64.1667 91.7541 64.0607 91.7724 63.9144 91.787C63.7681 91.809 63.6182 91.82 63.4646 91.82C63.1354 91.82 62.9014 91.7614 62.7624 91.6444C62.6307 91.5274 62.5649 91.3226 62.5649 91.03V87.1022ZM64.2326 89.2088H62.5649V85.0725C62.638 85.0579 62.7478 85.0396 62.894 85.0177C63.0476 84.9957 63.1976 84.9848 63.3439 84.9848C63.6584 84.9848 63.8851 85.0396 64.0241 85.1493C64.1631 85.259 64.2326 85.4675 64.2326 85.7747V89.2088ZM70.9352 85.9941C70.9352 86.1624 70.8914 86.3086 70.8036 86.433C70.7158 86.5573 70.6171 86.6561 70.5074 86.7292C70.3245 86.6049 70.116 86.4952 69.882 86.4001C69.6552 86.305 69.3846 86.2574 69.0701 86.2574C68.6824 86.2574 68.346 86.3416 68.0607 86.5098C67.7755 86.678 67.556 86.923 67.4024 87.2449C67.2562 87.5667 67.183 87.958 67.183 88.4188C67.183 89.121 67.3586 89.6549 67.7096 90.0206C68.0607 90.3864 68.5435 90.5692 69.1579 90.5692C69.4724 90.5692 69.743 90.5253 69.9698 90.4376C70.1965 90.3498 70.405 90.251 70.5951 90.1413C70.7048 90.2218 70.7926 90.3278 70.8584 90.4595C70.9316 90.5838 70.9682 90.7301 70.9682 90.8984C70.9682 91.0446 70.9279 91.18 70.8475 91.3043C70.7743 91.4286 70.6463 91.5347 70.4635 91.6225C70.3245 91.6956 70.127 91.7651 69.871 91.8309C69.615 91.8968 69.3042 91.9297 68.9384 91.9297C68.2948 91.9297 67.706 91.8053 67.172 91.5566C66.6454 91.3006 66.2285 90.9166 65.9213 90.4046C65.6141 89.8853 65.4605 89.2234 65.4605 88.4188C65.4605 87.6581 65.6104 87.0181 65.9103 86.4988C66.2175 85.9722 66.6271 85.5736 67.1391 85.3029C67.6511 85.0323 68.218 84.897 68.8397 84.897C69.2712 84.897 69.6443 84.9482 69.9588 85.0506C70.2733 85.1457 70.5147 85.2773 70.6829 85.4456C70.8511 85.6065 70.9352 85.7893 70.9352 85.9941ZM72.1113 87.1022H73.779V91.7322C73.7132 91.7541 73.6071 91.7724 73.4608 91.787C73.3145 91.809 73.1646 91.82 73.011 91.82C72.6818 91.82 72.4478 91.7614 72.3088 91.6444C72.1772 91.5274 72.1113 91.3226 72.1113 91.03V87.1022ZM73.779 89.2088H72.1113V85.0725C72.1845 85.0579 72.2942 85.0396 72.4405 85.0177C72.5941 84.9957 72.744 84.9848 72.8903 84.9848C73.2048 84.9848 73.4316 85.0396 73.5705 85.1493C73.7095 85.259 73.779 85.4675 73.779 85.7747V89.2088ZM78.0241 86.4769H77.9582C77.8851 86.7109 77.7973 86.9706 77.6949 87.2558C77.5998 87.5411 77.5011 87.841 77.3987 88.1555C77.2963 88.4627 77.1976 88.7699 77.1025 89.0771L76.905 90.0645C76.8611 90.2035 76.8172 90.3498 76.7733 90.5034C76.7368 90.657 76.6965 90.8069 76.6526 90.9532C76.6088 91.0995 76.5685 91.2385 76.532 91.3701C76.4954 91.5018 76.4588 91.6261 76.4222 91.7432C76.3418 91.7651 76.2504 91.787 76.148 91.809C76.0456 91.8382 75.9249 91.8529 75.7859 91.8529C75.4787 91.8529 75.2446 91.798 75.0837 91.6883C74.9228 91.5786 74.8424 91.4177 74.8424 91.2056C74.8424 91.1178 74.8533 91.0264 74.8753 90.9313C74.9045 90.8362 74.9374 90.7265 74.974 90.6021C75.0398 90.3608 75.1313 90.0572 75.2483 89.6915C75.3726 89.3258 75.5043 88.9308 75.6433 88.5066C75.7896 88.075 75.9358 87.6508 76.0821 87.2339C76.2357 86.817 76.3747 86.433 76.499 86.0819C76.6307 85.7308 76.7368 85.4565 76.8172 85.259C76.9196 85.1932 77.0805 85.1347 77.3 85.0835C77.5267 85.025 77.7498 84.9957 77.9692 84.9957C78.2837 84.9957 78.5653 85.0433 78.814 85.1384C79.0627 85.2261 79.22 85.3688 79.2858 85.5662C79.4248 85.9539 79.5747 86.4037 79.7356 86.9157C79.9038 87.4204 80.0721 87.9507 80.2403 88.5066C80.4085 89.0625 80.5694 89.6037 80.723 90.1304C80.884 90.6497 81.0229 91.1178 81.14 91.5347C81.0595 91.6225 80.9425 91.6956 80.7889 91.7541C80.6353 91.82 80.4524 91.8529 80.2403 91.8529C79.9404 91.8529 79.7283 91.798 79.604 91.6883C79.4796 91.5786 79.3845 91.414 79.3187 91.1946L78.9676 89.9658L78.7811 89.0332C78.6933 88.7041 78.6019 88.3859 78.5068 88.0787C78.4117 87.7715 78.324 87.4826 78.2435 87.212C78.163 86.934 78.0899 86.689 78.0241 86.4769ZM76.1699 90.262L76.8172 88.9674H79.3845L79.604 90.262H76.1699ZM82.1399 86.9925L83.654 86.9706C83.6832 87.2851 83.7052 87.596 83.7198 87.9032C83.7344 88.2104 83.7417 88.5066 83.7417 88.7918C83.749 89.0771 83.7527 89.355 83.7527 89.6257V91.7432C83.6869 91.7578 83.5808 91.7724 83.4345 91.787C83.2956 91.809 83.1529 91.82 83.0066 91.82C82.6848 91.82 82.4581 91.7651 82.3264 91.6554C82.2021 91.5457 82.1399 91.3482 82.1399 91.0629V86.9925ZM87.9877 89.8122L86.4626 89.8232C86.4114 89.2892 86.3822 88.7809 86.3749 88.2981C86.3676 87.8154 86.3639 87.3546 86.3639 86.9157V85.0725C86.437 85.0579 86.5431 85.0396 86.6821 85.0177C86.821 84.9957 86.9673 84.9848 87.1209 84.9848C87.4354 84.9848 87.6585 85.0433 87.7902 85.1603C87.9218 85.27 87.9877 85.4638 87.9877 85.7418V89.8122ZM87.9877 89.2856V91.5347C87.8926 91.6225 87.7573 91.692 87.5817 91.7432C87.4135 91.8017 87.2124 91.8309 86.9783 91.8309C86.7296 91.8309 86.4956 91.7907 86.2761 91.7102C86.064 91.6298 85.8885 91.4506 85.7495 91.1726L84.422 88.6492C84.3415 88.4883 84.261 88.3274 84.1806 88.1665C84.1074 88.0056 84.0343 87.8446 83.9612 87.6837C83.888 87.5155 83.8149 87.3473 83.7417 87.179L82.1399 87.5411V85.3797C82.2277 85.2554 82.363 85.1603 82.5458 85.0945C82.736 85.0286 82.9408 84.9957 83.1602 84.9957C83.4016 84.9957 83.6284 85.036 83.8405 85.1164C84.0599 85.1969 84.2391 85.3724 84.3781 85.643L85.7166 88.1774C85.797 88.331 85.8775 88.492 85.958 88.6602C86.0384 88.8211 86.1152 88.982 86.1884 89.1429C86.2615 89.3038 86.331 89.4684 86.3968 89.6366L87.9877 89.2856Z" fill="black" fill-opacity="0.24" style="mix-blend-mode:color-burn"/>
<path d="M44.293 90.0865C44.2126 90.1523 44.1028 90.2072 43.9639 90.251C43.8322 90.2949 43.6786 90.3169 43.5031 90.3169C43.2763 90.3169 43.0862 90.2876 42.9326 90.2291C42.779 90.1706 42.6802 90.0718 42.6363 89.9329C42.3876 89.238 42.1755 88.6602 42 88.1994C41.8318 87.7386 41.7001 87.34 41.605 87.0035H41.5502C41.5282 87.4643 41.5099 87.8849 41.4953 88.2652C41.4807 88.6456 41.4697 89.0186 41.4624 89.3843C41.4551 89.7427 41.4441 90.1084 41.4295 90.4814C41.4148 90.8545 41.3929 91.2641 41.3636 91.7102C41.2832 91.7322 41.1735 91.7578 41.0345 91.787C40.9028 91.8163 40.7712 91.8309 40.6395 91.8309C40.3616 91.8309 40.1422 91.7834 39.9812 91.6883C39.8276 91.5932 39.7508 91.4286 39.7508 91.1946C39.7508 91.0337 39.7582 90.796 39.7728 90.4814C39.7947 90.1596 39.8167 89.7939 39.8386 89.3843C39.8679 88.9674 39.8935 88.5285 39.9154 88.0677C39.9447 87.6069 39.9739 87.1534 40.0032 86.7073C40.0398 86.2538 40.0727 85.8369 40.1019 85.4565C40.1604 85.3688 40.2775 85.281 40.453 85.1932C40.6286 85.0981 40.8699 85.0506 41.1771 85.0506C41.5063 85.0506 41.7696 85.1054 41.9671 85.2152C42.1719 85.3176 42.3182 85.4894 42.4059 85.7308C42.5156 85.9941 42.6327 86.3013 42.757 86.6524C42.8814 86.9962 43.002 87.3473 43.1191 87.7057C43.2434 88.0568 43.3568 88.3749 43.4592 88.6602H43.514C43.7188 88.0165 43.9273 87.3875 44.1394 86.7731C44.3588 86.1587 44.5454 85.6467 44.699 85.2371C44.8014 85.1786 44.9294 85.1347 45.083 85.1054C45.2439 85.0689 45.4121 85.0506 45.5876 85.0506C45.9022 85.0506 46.1545 85.0981 46.3447 85.1932C46.5422 85.281 46.6592 85.4163 46.6958 85.5992C46.725 85.7381 46.7543 85.9576 46.7835 86.2574C46.8201 86.5573 46.8567 86.9048 46.8932 87.2997C46.9298 87.6874 46.9664 88.097 47.003 88.5285C47.0395 88.9528 47.0724 89.3697 47.1017 89.7793C47.1383 90.1816 47.1675 90.5436 47.1895 90.8654C47.2114 91.1873 47.226 91.4433 47.2334 91.6334C47.1236 91.6993 47.0066 91.7468 46.8823 91.7761C46.7652 91.8126 46.6153 91.8309 46.4324 91.8309C46.1984 91.8309 45.9972 91.787 45.829 91.6993C45.6681 91.6115 45.5803 91.4433 45.5657 91.1946C45.5291 90.6241 45.4999 90.0828 45.4779 89.5708C45.456 89.0515 45.4377 88.5797 45.4231 88.1555C45.4158 87.724 45.4048 87.3546 45.3902 87.0474H45.3353C45.2402 87.3619 45.1049 87.7605 44.9294 88.2433C44.7611 88.7187 44.549 89.3331 44.293 90.0865ZM51.3241 86.4769H51.2582C51.1851 86.7109 51.0973 86.9706 50.9949 87.2558C50.8998 87.5411 50.8011 87.841 50.6987 88.1555C50.5963 88.4627 50.4976 88.7699 50.4025 89.0771L50.205 90.0645C50.1611 90.2035 50.1172 90.3498 50.0733 90.5034C50.0368 90.657 49.9965 90.8069 49.9526 90.9532C49.9088 91.0995 49.8685 91.2385 49.832 91.3701C49.7954 91.5018 49.7588 91.6261 49.7222 91.7432C49.6418 91.7651 49.5504 91.787 49.448 91.809C49.3456 91.8382 49.2249 91.8529 49.0859 91.8529C48.7787 91.8529 48.5446 91.798 48.3837 91.6883C48.2228 91.5786 48.1424 91.4177 48.1424 91.2056C48.1424 91.1178 48.1533 91.0264 48.1753 90.9313C48.2045 90.8362 48.2374 90.7265 48.274 90.6021C48.3398 90.3608 48.4313 90.0572 48.5483 89.6915C48.6726 89.3258 48.8043 88.9308 48.9433 88.5066C49.0896 88.075 49.2358 87.6508 49.3821 87.2339C49.5357 86.817 49.6747 86.433 49.799 86.0819C49.9307 85.7308 50.0368 85.4565 50.1172 85.259C50.2196 85.1932 50.3805 85.1347 50.6 85.0835C50.8267 85.025 51.0498 84.9957 51.2692 84.9957C51.5837 84.9957 51.8653 85.0433 52.114 85.1384C52.3627 85.2261 52.52 85.3688 52.5858 85.5662C52.7248 85.9539 52.8747 86.4037 53.0356 86.9157C53.2038 87.4204 53.3721 87.9507 53.5403 88.5066C53.7085 89.0625 53.8694 89.6037 54.023 90.1304C54.184 90.6497 54.3229 91.1178 54.44 91.5347C54.3595 91.6225 54.2425 91.6956 54.0889 91.7541C53.9353 91.82 53.7524 91.8529 53.5403 91.8529C53.2404 91.8529 53.0283 91.798 52.904 91.6883C52.7796 91.5786 52.6845 91.414 52.6187 91.1946L52.2676 89.9658L52.0811 89.0332C51.9933 88.7041 51.9019 88.3859 51.8068 88.0787C51.7117 87.7715 51.624 87.4826 51.5435 87.212C51.463 86.934 51.3899 86.689 51.3241 86.4769ZM49.4699 90.262L50.1172 88.9674H52.6845L52.904 90.262H49.4699ZM61.1803 88.4627V90.7448C61.1803 90.9496 61.14 91.1068 61.0596 91.2165C60.9864 91.3189 60.8621 91.4177 60.6866 91.5128C60.4891 91.6225 60.2038 91.7176 59.8308 91.798C59.4578 91.8858 59.0847 91.9297 58.7117 91.9297C58.0095 91.9297 57.3768 91.809 56.8136 91.5676C56.2578 91.3189 55.8152 90.9386 55.4861 90.4266C55.1643 89.9073 55.0034 89.2417 55.0034 88.4298C55.0034 87.6545 55.1679 87.0072 55.4971 86.4878C55.8262 85.9612 56.2687 85.5662 56.8246 85.3029C57.3878 85.0323 58.0095 84.897 58.6898 84.897C59.1432 84.897 59.5346 84.9445 59.8637 85.0396C60.2002 85.1347 60.4562 85.2664 60.6317 85.4346C60.8146 85.6028 60.906 85.7966 60.906 86.0161C60.906 86.177 60.8621 86.3233 60.7743 86.4549C60.6939 86.5793 60.5951 86.6744 60.4781 86.7402C60.2952 86.6232 60.0648 86.5134 59.7869 86.411C59.509 86.3086 59.1835 86.2574 58.8104 86.2574C58.4082 86.2574 58.0461 86.3452 57.7243 86.5208C57.4098 86.689 57.1647 86.9377 56.9892 87.2668C56.8136 87.5886 56.7259 87.9726 56.7259 88.4188C56.7259 88.9016 56.81 89.3038 56.9782 89.6257C57.1538 89.9475 57.3915 90.1889 57.6914 90.3498C57.9986 90.5034 58.346 90.5802 58.7336 90.5802C58.9165 90.5802 59.0811 90.5619 59.2274 90.5253C59.381 90.4888 59.498 90.4522 59.5784 90.4156V89.132H58.2948C58.2509 89.0588 58.2107 88.9674 58.1741 88.8577C58.1375 88.7406 58.1192 88.6163 58.1192 88.4846C58.1192 88.2579 58.1704 88.0933 58.2728 87.9909C58.3826 87.8812 58.5252 87.8264 58.7007 87.8264H60.5439C60.7414 87.8264 60.895 87.8812 61.0047 87.9909C61.1218 88.1006 61.1803 88.2579 61.1803 88.4627ZM62.5649 87.1022H64.2326V91.7322C64.1667 91.7541 64.0607 91.7724 63.9144 91.787C63.7681 91.809 63.6182 91.82 63.4646 91.82C63.1354 91.82 62.9014 91.7614 62.7624 91.6444C62.6307 91.5274 62.5649 91.3226 62.5649 91.03V87.1022ZM64.2326 89.2088H62.5649V85.0725C62.638 85.0579 62.7478 85.0396 62.894 85.0177C63.0476 84.9957 63.1976 84.9848 63.3439 84.9848C63.6584 84.9848 63.8851 85.0396 64.0241 85.1493C64.1631 85.259 64.2326 85.4675 64.2326 85.7747V89.2088ZM70.9352 85.9941C70.9352 86.1624 70.8914 86.3086 70.8036 86.433C70.7158 86.5573 70.6171 86.6561 70.5074 86.7292C70.3245 86.6049 70.116 86.4952 69.882 86.4001C69.6552 86.305 69.3846 86.2574 69.0701 86.2574C68.6824 86.2574 68.346 86.3416 68.0607 86.5098C67.7755 86.678 67.556 86.923 67.4024 87.2449C67.2562 87.5667 67.183 87.958 67.183 88.4188C67.183 89.121 67.3586 89.6549 67.7096 90.0206C68.0607 90.3864 68.5435 90.5692 69.1579 90.5692C69.4724 90.5692 69.743 90.5253 69.9698 90.4376C70.1965 90.3498 70.405 90.251 70.5951 90.1413C70.7048 90.2218 70.7926 90.3278 70.8584 90.4595C70.9316 90.5838 70.9682 90.7301 70.9682 90.8984C70.9682 91.0446 70.9279 91.18 70.8475 91.3043C70.7743 91.4286 70.6463 91.5347 70.4635 91.6225C70.3245 91.6956 70.127 91.7651 69.871 91.8309C69.615 91.8968 69.3042 91.9297 68.9384 91.9297C68.2948 91.9297 67.706 91.8053 67.172 91.5566C66.6454 91.3006 66.2285 90.9166 65.9213 90.4046C65.6141 89.8853 65.4605 89.2234 65.4605 88.4188C65.4605 87.6581 65.6104 87.0181 65.9103 86.4988C66.2175 85.9722 66.6271 85.5736 67.1391 85.3029C67.6511 85.0323 68.218 84.897 68.8397 84.897C69.2712 84.897 69.6443 84.9482 69.9588 85.0506C70.2733 85.1457 70.5147 85.2773 70.6829 85.4456C70.8511 85.6065 70.9352 85.7893 70.9352 85.9941ZM72.1113 87.1022H73.779V91.7322C73.7132 91.7541 73.6071 91.7724 73.4608 91.787C73.3145 91.809 73.1646 91.82 73.011 91.82C72.6818 91.82 72.4478 91.7614 72.3088 91.6444C72.1772 91.5274 72.1113 91.3226 72.1113 91.03V87.1022ZM73.779 89.2088H72.1113V85.0725C72.1845 85.0579 72.2942 85.0396 72.4405 85.0177C72.5941 84.9957 72.744 84.9848 72.8903 84.9848C73.2048 84.9848 73.4316 85.0396 73.5705 85.1493C73.7095 85.259 73.779 85.4675 73.779 85.7747V89.2088ZM78.0241 86.4769H77.9582C77.8851 86.7109 77.7973 86.9706 77.6949 87.2558C77.5998 87.5411 77.5011 87.841 77.3987 88.1555C77.2963 88.4627 77.1976 88.7699 77.1025 89.0771L76.905 90.0645C76.8611 90.2035 76.8172 90.3498 76.7733 90.5034C76.7368 90.657 76.6965 90.8069 76.6526 90.9532C76.6088 91.0995 76.5685 91.2385 76.532 91.3701C76.4954 91.5018 76.4588 91.6261 76.4222 91.7432C76.3418 91.7651 76.2504 91.787 76.148 91.809C76.0456 91.8382 75.9249 91.8529 75.7859 91.8529C75.4787 91.8529 75.2446 91.798 75.0837 91.6883C74.9228 91.5786 74.8424 91.4177 74.8424 91.2056C74.8424 91.1178 74.8533 91.0264 74.8753 90.9313C74.9045 90.8362 74.9374 90.7265 74.974 90.6021C75.0398 90.3608 75.1313 90.0572 75.2483 89.6915C75.3726 89.3258 75.5043 88.9308 75.6433 88.5066C75.7896 88.075 75.9358 87.6508 76.0821 87.2339C76.2357 86.817 76.3747 86.433 76.499 86.0819C76.6307 85.7308 76.7368 85.4565 76.8172 85.259C76.9196 85.1932 77.0805 85.1347 77.3 85.0835C77.5267 85.025 77.7498 84.9957 77.9692 84.9957C78.2837 84.9957 78.5653 85.0433 78.814 85.1384C79.0627 85.2261 79.22 85.3688 79.2858 85.5662C79.4248 85.9539 79.5747 86.4037 79.7356 86.9157C79.9038 87.4204 80.0721 87.9507 80.2403 88.5066C80.4085 89.0625 80.5694 89.6037 80.723 90.1304C80.884 90.6497 81.0229 91.1178 81.14 91.5347C81.0595 91.6225 80.9425 91.6956 80.7889 91.7541C80.6353 91.82 80.4524 91.8529 80.2403 91.8529C79.9404 91.8529 79.7283 91.798 79.604 91.6883C79.4796 91.5786 79.3845 91.414 79.3187 91.1946L78.9676 89.9658L78.7811 89.0332C78.6933 88.7041 78.6019 88.3859 78.5068 88.0787C78.4117 87.7715 78.324 87.4826 78.2435 87.212C78.163 86.934 78.0899 86.689 78.0241 86.4769ZM76.1699 90.262L76.8172 88.9674H79.3845L79.604 90.262H76.1699ZM82.1399 86.9925L83.654 86.9706C83.6832 87.2851 83.7052 87.596 83.7198 87.9032C83.7344 88.2104 83.7417 88.5066 83.7417 88.7918C83.749 89.0771 83.7527 89.355 83.7527 89.6257V91.7432C83.6869 91.7578 83.5808 91.7724 83.4345 91.787C83.2956 91.809 83.1529 91.82 83.0066 91.82C82.6848 91.82 82.4581 91.7651 82.3264 91.6554C82.2021 91.5457 82.1399 91.3482 82.1399 91.0629V86.9925ZM87.9877 89.8122L86.4626 89.8232C86.4114 89.2892 86.3822 88.7809 86.3749 88.2981C86.3676 87.8154 86.3639 87.3546 86.3639 86.9157V85.0725C86.437 85.0579 86.5431 85.0396 86.6821 85.0177C86.821 84.9957 86.9673 84.9848 87.1209 84.9848C87.4354 84.9848 87.6585 85.0433 87.7902 85.1603C87.9218 85.27 87.9877 85.4638 87.9877 85.7418V89.8122ZM87.9877 89.2856V91.5347C87.8926 91.6225 87.7573 91.692 87.5817 91.7432C87.4135 91.8017 87.2124 91.8309 86.9783 91.8309C86.7296 91.8309 86.4956 91.7907 86.2761 91.7102C86.064 91.6298 85.8885 91.4506 85.7495 91.1726L84.422 88.6492C84.3415 88.4883 84.261 88.3274 84.1806 88.1665C84.1074 88.0056 84.0343 87.8446 83.9612 87.6837C83.888 87.5155 83.8149 87.3473 83.7417 87.179L82.1399 87.5411V85.3797C82.2277 85.2554 82.363 85.1603 82.5458 85.0945C82.736 85.0286 82.9408 84.9957 83.1602 84.9957C83.4016 84.9957 83.6284 85.036 83.8405 85.1164C84.0599 85.1969 84.2391 85.3724 84.3781 85.643L85.7166 88.1774C85.797 88.331 85.8775 88.492 85.958 88.6602C86.0384 88.8211 86.1152 88.982 86.1884 89.1429C86.2615 89.3038 86.331 89.4684 86.3968 89.6366L87.9877 89.2856Z" fill="black" fill-opacity="0.32" style="mix-blend-mode:darken"/>
</g>
<defs>
<filter id="filter0_dddd_10_12067" x="6.65891" y="14.0775" width="114.791" height="150.702" filterUnits="userSpaceOnUse" color-interpolation-filters="sRGB">
<feFlood flood-opacity="0" result="BackgroundImageFix"/>
<feColorMatrix in="SourceAlpha" type="matrix" values="0 0 0 0 0 0 0 0 0 0 0 0 0 0 0 0 0 0 127 0" result="hardAlpha"/>
<feOffset dy="2.28571"/>
<feGaussianBlur stdDeviation="2.51429"/>
<feColorMatrix type="matrix" values="0 0 0 0 0 0 0 0 0 0 0 0 0 0 0 0 0 0 0.24 0"/>
<feBlend mode="normal" in2="BackgroundImageFix" result="effect1_dropShadow_10_12067"/>
<feColorMatrix in="SourceAlpha" type="matrix" values="0 0 0 0 0 0 0 0 0 0 0 0 0 0 0 0 0 0 127 0" result="hardAlpha"/>
<feOffset dy="9.6"/>
<feGaussianBlur stdDeviation="4.8"/>
<feColorMatrix type="matrix" values="0 0 0 0 0 0 0 0 0 0 0 0 0 0 0 0 0 0 0.21 0"/>
<feBlend mode="normal" in2="effect1_dropShadow_10_12067" result="effect2_dropShadow_10_12067"/>
<feColorMatrix in="SourceAlpha" type="matrix" values="0 0 0 0 0 0 0 0 0 0 0 0 0 0 0 0 0 0 127 0" result="hardAlpha"/>
<feOffset dy="21.0286"/>
<feGaussianBlur stdDeviation="6.4"/>
<feColorMatrix type="matrix" values="0 0 0 0 0 0 0 0 0 0 0 0 0 0 0 0 0 0 0.12 0"/>
<feBlend mode="normal" in2="effect2_dropShadow_10_12067" result="effect3_dropShadow_10_12067"/>
<feColorMatrix in="SourceAlpha" type="matrix" values="0 0 0 0 0 0 0 0 0 0 0 0 0 0 0 0 0 0 127 0" result="hardAlpha"/>
<feOffset dy="37.4857"/>
<feGaussianBlur stdDeviation="7.54286"/>
<feColorMatrix type="matrix" values="0 0 0 0 0 0 0 0 0 0 0 0 0 0 0 0 0 0 0.04 0"/>
<feBlend mode="normal" in2="effect3_dropShadow_10_12067" result="effect4_dropShadow_10_12067"/>
<feBlend mode="normal" in="SourceGraphic" in2="effect4_dropShadow_10_12067" result="shape"/>
</filter>
<filter id="filter1_d_10_12067" x="18.088" y="14.0775" width="91.9334" height="102.703" filterUnits="userSpaceOnUse" color-interpolation-filters="sRGB">
<feFlood flood-opacity="0" result="BackgroundImageFix"/>
<feColorMatrix in="SourceAlpha" type="matrix" values="0 0 0 0 0 0 0 0 0 0 0 0 0 0 0 0 0 0 127 0" result="hardAlpha"/>
<feOffset dy="0.914286"/>
<feGaussianBlur stdDeviation="1.82857"/>
<feColorMatrix type="matrix" values="0 0 0 0 0 0 0 0 0 0 0 0 0 0 0 0 0 0 0.16 0"/>
<feBlend mode="color-burn" in2="BackgroundImageFix" result="effect1_dropShadow_10_12067"/>
<feBlend mode="normal" in="SourceGraphic" in2="effect1_dropShadow_10_12067" result="shape"/>
</filter>
<filter id="filter2_d_10_12067" x="40.0001" y="35.4286" width="47.9997" height="48.0007" filterUnits="userSpaceOnUse" color-interpolation-filters="sRGB">
<feFlood flood-opacity="0" result="BackgroundImageFix"/>
<feColorMatrix in="SourceAlpha" type="matrix" values="0 0 0 0 0 0 0 0 0 0 0 0 0 0 0 0 0 0 127 0" result="hardAlpha"/>
<feOffset dy="0.914286"/>
<feGaussianBlur stdDeviation="2.74286"/>
<feColorMatrix type="matrix" values="0 0 0 0 0 0 0 0 0 0 0 0 0 0 0 0 0 0 0.12 0"/>
<feBlend mode="plus-darker" in2="BackgroundImageFix" result="effect1_dropShadow_10_12067"/>
<feBlend mode="normal" in="SourceGraphic" in2="effect1_dropShadow_10_12067" result="shape"/>
</filter>
<filter id="filter3_dd_10_12067" x="10.9713" y="79.5431" width="105.926" height="31.9997" filterUnits="userSpaceOnUse" color-interpolation-filters="sRGB">
<feFlood flood-opacity="0" result="BackgroundImageFix"/>
<feColorMatrix in="SourceAlpha" type="matrix" values="0 0 0 0 0 0 0 0 0 0 0 0 0 0 0 0 0 0 127 0" result="hardAlpha"/>
<feOffset dy="1.82857"/>
<feGaussianBlur stdDeviation="2.74286"/>
<feColorMatrix type="matrix" values="0 0 0 0 0 0 0 0 0 0 0 0 0 0 0 0 0 0 0.16 0"/>
<feBlend mode="normal" in2="BackgroundImageFix" result="effect1_dropShadow_10_12067"/>
<feColorMatrix in="SourceAlpha" type="matrix" values="0 0 0 0 0 0 0 0 0 0 0 0 0 0 0 0 0 0 127 0" result="hardAlpha"/>
<feOffset dy="0.914286"/>
<feGaussianBlur stdDeviation="0.914286"/>
<feColorMatrix type="matrix" values="0 0 0 0 0 0 0 0 0 0 0 0 0 0 0 0 0 0 0.24 0"/>
<feBlend mode="normal" in2="effect1_dropShadow_10_12067" result="effect2_dropShadow_10_12067"/>
<feBlend mode="normal" in="SourceGraphic" in2="effect2_dropShadow_10_12067" result="shape"/>
</filter>
<filter id="filter4_dd_10_12067" x="18.2199" y="74.0567" width="91.4285" height="31.9997" filterUnits="userSpaceOnUse" color-interpolation-filters="sRGB">
<feFlood flood-opacity="0" result="BackgroundImageFix"/>
<feColorMatrix in="SourceAlpha" type="matrix" values="0 0 0 0 0 0 0 0 0 0 0 0 0 0 0 0 0 0 127 0" result="hardAlpha"/>
<feOffset dy="1.82857"/>
<feGaussianBlur stdDeviation="2.74286"/>
<feColorMatrix type="matrix" values="0 0 0 0 0 0 0 0 0 0 0 0 0 0 0 0 0 0 0.16 0"/>
<feBlend mode="normal" in2="BackgroundImageFix" result="effect1_dropShadow_10_12067"/>
<feColorMatrix in="SourceAlpha" type="matrix" values="0 0 0 0 0 0 0 0 0 0 0 0 0 0 0 0 0 0 127 0" result="hardAlpha"/>
<feOffset dy="0.914286"/>
<feGaussianBlur stdDeviation="0.914286"/>
<feColorMatrix type="matrix" values="0 0 0 0 0 0 0 0 0 0 0 0 0 0 0 0 0 0 0.24 0"/>
<feBlend mode="normal" in2="effect1_dropShadow_10_12067" result="effect2_dropShadow_10_12067"/>
<feBlend mode="normal" in="SourceGraphic" in2="effect2_dropShadow_10_12067" result="shape"/>
</filter>
<filter id="filter5_i_10_12067" x="27.3628" y="86.8574" width="2.74268" height="3.20031" filterUnits="userSpaceOnUse" color-interpolation-filters="sRGB">
<feFlood flood-opacity="0" result="BackgroundImageFix"/>
<feBlend mode="normal" in="SourceGraphic" in2="BackgroundImageFix" result="shape"/>
<feColorMatrix in="SourceAlpha" type="matrix" values="0 0 0 0 0 0 0 0 0 0 0 0 0 0 0 0 0 0 127 0" result="hardAlpha"/>
<feOffset dy="0.457143"/>
<feGaussianBlur stdDeviation="0.457143"/>
<feComposite in2="hardAlpha" operator="arithmetic" k2="-1" k3="1"/>
<feColorMatrix type="matrix" values="0 0 0 0 0 0 0 0 0 0 0 0 0 0 0 0 0 0 0.24 0"/>
<feBlend mode="darken" in2="shape" result="effect1_innerShadow_10_12067"/>
</filter>
<filter id="filter6_i_10_12067" x="97.7627" y="86.8574" width="2.74268" height="3.20031" filterUnits="userSpaceOnUse" color-interpolation-filters="sRGB">
<feFlood flood-opacity="0" result="BackgroundImageFix"/>
<feBlend mode="normal" in="SourceGraphic" in2="BackgroundImageFix" result="shape"/>
<feColorMatrix in="SourceAlpha" type="matrix" values="0 0 0 0 0 0 0 0 0 0 0 0 0 0 0 0 0 0 127 0" result="hardAlpha"/>
<feOffset dy="0.457143"/>
<feGaussianBlur stdDeviation="0.457143"/>
<feComposite in2="hardAlpha" operator="arithmetic" k2="-1" k3="1"/>
<feColorMatrix type="matrix" values="0 0 0 0 0 0 0 0 0 0 0 0 0 0 0 0 0 0 0.24 0"/>
<feBlend mode="darken" in2="shape" result="effect1_innerShadow_10_12067"/>
</filter>
<filter id="filter7_i_10_12067" x="39.751" y="84.8975" width="48.2368" height="7.48937" filterUnits="userSpaceOnUse" color-interpolation-filters="sRGB">
<feFlood flood-opacity="0" result="BackgroundImageFix"/>
<feBlend mode="normal" in="SourceGraphic" in2="BackgroundImageFix" result="shape"/>
<feColorMatrix in="SourceAlpha" type="matrix" values="0 0 0 0 0 0 0 0 0 0 0 0 0 0 0 0 0 0 127 0" result="hardAlpha"/>
<feOffset dy="0.457143"/>
<feGaussianBlur stdDeviation="0.457143"/>
<feComposite in2="hardAlpha" operator="arithmetic" k2="-1" k3="1"/>
<feColorMatrix type="matrix" values="0 0 0 0 0 0 0 0 0 0 0 0 0 0 0 0 0 0 0.24 0"/>
<feBlend mode="darken" in2="shape" result="effect1_innerShadow_10_12067"/>
</filter>
<linearGradient id="paint0_linear_10_12067" x1="64" y1="14.5044" x2="64" y2="112.832" gradientUnits="userSpaceOnUse">
<stop stop-color="white"/>
<stop offset="1" stop-color="white" stop-opacity="0"/>
</linearGradient>
<radialGradient id="paint1_radial_10_12067" cx="0" cy="0" r="1" gradientUnits="userSpaceOnUse" gradientTransform="translate(64 42.7474) rotate(90) scale(64.8543 49.2063)">
<stop stop-color="white"/>
<stop offset="1" stop-color="white" stop-opacity="0"/>
</radialGradient>
<linearGradient id="paint2_linear_10_12067" x1="106.112" y1="18.5708" x2="106.112" y2="112.269" gradientUnits="userSpaceOnUse">
<stop stop-color="#49F0BC"/>
<stop offset="1" stop-color="#29DCCC"/>
</linearGradient>
<linearGradient id="paint3_linear_10_12067" x1="63.543" y1="14.5044" x2="63.543" y2="112.832" gradientUnits="userSpaceOnUse">
<stop stop-color="white"/>
<stop offset="1" stop-color="white" stop-opacity="0"/>
</linearGradient>
<radialGradient id="paint4_radial_10_12067" cx="0" cy="0" r="1" gradientUnits="userSpaceOnUse" gradientTransform="translate(63.543 42.7474) rotate(90) scale(64.8543 49.2063)">
<stop stop-color="white"/>
<stop offset="1" stop-color="white" stop-opacity="0"/>
</radialGradient>
<linearGradient id="paint5_linear_10_12067" x1="0" y1="0" x2="0" y2="128" gradientUnits="userSpaceOnUse">
<stop stop-color="white"/>
<stop offset="1" stop-color="white" stop-opacity="0.01"/>
</linearGradient>
<linearGradient id="paint6_linear_10_12067" x1="64.0547" y1="16.8203" x2="64.0547" y2="112.209" gradientUnits="userSpaceOnUse">
<stop stop-color="white"/>
<stop offset="1" stop-color="#999999"/>
</linearGradient>
<linearGradient id="paint7_linear_10_12067" x1="64.0001" y1="40.2285" x2="64.0001" y2="76.8004" gradientUnits="userSpaceOnUse">
<stop stop-color="#DFDFDF"/>
<stop offset="1" stop-color="#A9A9A9"/>
</linearGradient>
<linearGradient id="paint8_linear_10_12067" x1="63.934" y1="83.2002" x2="63.934" y2="104.229" gradientUnits="userSpaceOnUse">
<stop stop-opacity="0"/>
<stop offset="1" stop-opacity="0.16"/>
</linearGradient>
<linearGradient id="paint9_linear_10_12067" x1="63.9341" y1="72.686" x2="63.9341" y2="104.229" gradientUnits="userSpaceOnUse">
<stop stop-color="white"/>
<stop offset="1" stop-color="white" stop-opacity="0"/>
</linearGradient>
<radialGradient id="paint10_radial_10_12067" cx="0" cy="0" r="1" gradientUnits="userSpaceOnUse" gradientTransform="translate(63.9341 83.2002) rotate(90) scale(21.0283 88.3293)">
<stop stop-color="white"/>
<stop offset="1" stop-color="white" stop-opacity="0"/>
</radialGradient>
<linearGradient id="paint11_linear_10_12067" x1="63.9341" y1="77.7139" x2="63.9341" y2="98.7424" gradientUnits="userSpaceOnUse">
<stop stop-opacity="0"/>
<stop offset="1" stop-opacity="0.16"/>
</linearGradient>
<linearGradient id="paint12_linear_10_12067" x1="63.9341" y1="77.7139" x2="63.9341" y2="98.7424" gradientUnits="userSpaceOnUse">
<stop stop-color="white"/>
<stop offset="1" stop-color="white" stop-opacity="0"/>
</linearGradient>
<radialGradient id="paint13_radial_10_12067" cx="0" cy="0" r="1" gradientUnits="userSpaceOnUse" gradientTransform="translate(63.9341 81.3834) rotate(90) scale(17.359 40.2286)">
<stop stop-color="white"/>
<stop offset="1" stop-color="white" stop-opacity="0"/>
</radialGradient>
</defs>
</svg>
