<svg width="20" height="25" viewBox="0 0 20 25" fill="none" xmlns="http://www.w3.org/2000/svg">
<g filter="url(#filter0_dddd_10_21022)">
<path d="M3.66404 7.07941C3.64727 6.61945 3.63889 6.38947 3.72683 6.14452C3.80226 5.93442 3.94099 5.7311 4.10911 5.58426C4.30513 5.41305 4.58978 5.31337 5.15907 5.11401C6.3704 4.68982 7.53902 4.12093 8.64083 3.45993C9.14164 3.15949 9.39204 3.00927 9.60756 2.96195C9.82154 2.91496 9.9723 2.91496 10.1863 2.96195C10.4018 3.00927 10.6522 3.15949 11.153 3.45993C12.2548 4.12093 13.4234 4.68982 14.6348 5.11401C15.2041 5.31337 15.4887 5.41305 15.6847 5.58426C15.8528 5.7311 15.9916 5.93442 16.067 6.14452C16.1549 6.38947 16.1466 6.61945 16.1298 7.07941C16.0821 8.38839 15.8458 10.3338 14.9823 12.0896C13.8435 14.4051 11.9416 15.9239 10.8146 16.6721C10.5671 16.8363 10.4434 16.9185 10.2103 16.9741C10.0487 17.0127 9.74515 17.0127 9.58353 16.9741C9.3504 16.9185 9.22669 16.8363 8.97927 16.6721C7.85223 15.9239 5.9503 14.4051 4.81155 12.0896C3.94801 10.3338 3.71174 8.38839 3.66404 7.07941Z" fill="black"/>
</g>
<mask id="mask0_10_21022" style="mask-type:alpha" maskUnits="userSpaceOnUse" x="3" y="2" width="14" height="16">
<path d="M3.66404 7.07941C3.64727 6.61945 3.63889 6.38947 3.72683 6.14452C3.80226 5.93442 3.94099 5.7311 4.10911 5.58426C4.30513 5.41305 4.58978 5.31337 5.15907 5.11401C6.3704 4.68982 7.53902 4.12093 8.64083 3.45993C9.14164 3.15949 9.39204 3.00927 9.60756 2.96195C9.82154 2.91496 9.9723 2.91496 10.1863 2.96195C10.4018 3.00927 10.6522 3.15949 11.153 3.45993C12.2548 4.12093 13.4234 4.68982 14.6348 5.11401C15.2041 5.31337 15.4887 5.41305 15.6847 5.58426C15.8528 5.7311 15.9916 5.93442 16.067 6.14452C16.1549 6.38947 16.1466 6.61945 16.1298 7.07941C16.0821 8.38839 15.8458 10.3338 14.9823 12.0896C13.8435 14.4051 11.9416 15.9239 10.8146 16.6721C10.5671 16.8363 10.4434 16.9185 10.2103 16.9741C10.0487 17.0127 9.74515 17.0127 9.58353 16.9741C9.3504 16.9185 9.22669 16.8363 8.97927 16.6721C7.85223 15.9239 5.9503 14.4051 4.81155 12.0896C3.94801 10.3338 3.71174 8.38839 3.66404 7.07941Z" fill="black"/>
</mask>
<g mask="url(#mask0_10_21022)">
<mask id="mask1_10_21022" style="mask-type:alpha" maskUnits="userSpaceOnUse" x="3" y="2" width="14" height="16">
<path d="M3.66404 7.07941C3.64727 6.61945 3.63889 6.38947 3.72683 6.14452C3.80226 5.93442 3.94099 5.7311 4.10911 5.58426C4.30513 5.41305 4.58978 5.31337 5.15907 5.11401C6.3704 4.68982 7.53902 4.12093 8.64083 3.45993C9.14164 3.15949 9.39204 3.00927 9.60756 2.96195C9.82154 2.91496 9.9723 2.91496 10.1863 2.96195C10.4018 3.00927 10.6522 3.15949 11.153 3.45993C12.2548 4.12093 13.4234 4.68982 14.6348 5.11401C15.2041 5.31337 15.4887 5.41305 15.6847 5.58426C15.8528 5.7311 15.9916 5.93442 16.067 6.14452C16.1549 6.38947 16.1466 6.61945 16.1298 7.07941C16.0821 8.38839 15.8458 10.3338 14.9823 12.0896C13.8435 14.4051 11.9416 15.9239 10.8146 16.6721C10.5671 16.8363 10.4434 16.9185 10.2103 16.9741C10.0487 17.0127 9.74515 17.0127 9.58353 16.9741C9.3504 16.9185 9.22669 16.8363 8.97927 16.6721C7.85223 15.9239 5.9503 14.4051 4.81155 12.0896C3.94801 10.3338 3.71174 8.38839 3.66404 7.07941Z" fill="black"/>
</mask>
<g mask="url(#mask1_10_21022)">
<rect x="0.444336" y="0.44458" width="18.8889" height="18.8889" fill="#2E3E92"/>
<rect x="0.444336" y="0.44458" width="18.8889" height="18.8889" fill="url(#paint0_linear_10_21022)" fill-opacity="0.6" style="mix-blend-mode:overlay"/>
<rect x="0.444336" y="0.44458" width="18.8889" height="18.8889" fill="url(#paint1_radial_10_21022)" fill-opacity="0.6" style="mix-blend-mode:overlay"/>
<rect x="0.444336" y="0.44458" width="18.8889" height="18.8889" fill="black" fill-opacity="0.16" style="mix-blend-mode:overlay"/>
<rect x="0.444336" y="0.44458" width="18.8889" height="18.8889" fill="black" fill-opacity="0.12" style="mix-blend-mode:darken"/>
</g>
<g filter="url(#filter1_d_10_21022)">
<mask id="mask2_10_21022" style="mask-type:alpha" maskUnits="userSpaceOnUse" x="3" y="2" width="14" height="16">
<path d="M9.60738 2.96191C9.82102 2.91503 9.97189 2.91505 10.1855 2.96191C10.401 3.00922 10.6517 3.15962 11.1523 3.45995C12.2539 4.12085 13.4226 4.69008 14.6337 5.11425C15.2029 5.31357 15.4885 5.41283 15.6845 5.58398C15.8526 5.73081 15.9909 5.93447 16.0664 6.14452C16.1543 6.38942 16.1456 6.61933 16.1289 7.07909C16.0811 8.38807 15.8449 10.334 14.9814 12.0898L14.7597 12.5146C13.6085 14.5917 11.871 15.9704 10.8144 16.6719L10.6484 16.7803C10.4982 16.8754 10.3848 16.9328 10.2099 16.9746L10.0664 16.9961C9.95907 17.0057 9.8338 17.0057 9.72652 16.9961L9.58296 16.9746C9.34999 16.9189 9.22581 16.8361 8.97847 16.6719C7.92186 15.9704 6.18439 14.5917 5.03316 12.5146L4.81148 12.0898C3.94798 10.334 3.71076 8.38806 3.66304 7.07909C3.64839 6.67709 3.64028 6.45055 3.69722 6.23632L3.72652 6.14452C3.80192 5.93453 3.94033 5.7308 4.10836 5.58398C4.25539 5.45555 4.45268 5.36725 4.78218 5.24706L5.15816 5.11425C6.21791 4.74314 7.24535 4.26051 8.22359 3.70312L8.64058 3.45995C9.07867 3.19714 9.32524 3.04892 9.52437 2.98437L9.60738 2.96191ZM10.0703 3.48925C9.9327 3.45906 9.86026 3.45903 9.72261 3.48925C9.68645 3.49726 9.62078 3.5201 9.48433 3.59277C9.34727 3.66578 9.17294 3.76986 8.91793 3.92284C7.78949 4.59979 6.58747 5.1851 5.33687 5.62304C5.04574 5.72499 4.85233 5.79397 4.70601 5.85644C4.56488 5.91672 4.50156 5.95735 4.46382 5.99023C4.365 6.07661 4.27867 6.20363 4.23433 6.32714C4.18891 6.45386 4.18519 6.5685 4.20308 7.05956C4.24954 8.33399 4.47934 10.1932 5.29488 11.8516C6.37343 14.0446 8.18698 15.4988 9.2773 16.2226C9.52693 16.3884 9.57915 16.4184 9.70796 16.4492C9.73051 16.4546 9.80015 16.4638 9.89644 16.4639C9.99183 16.4639 10.0607 16.4546 10.0839 16.4492C10.2132 16.4183 10.2657 16.3885 10.5156 16.2226C11.6058 15.4989 13.4184 14.0445 14.497 11.8516C15.3126 10.1932 15.5433 8.33403 15.5898 7.05956C15.6077 6.56836 15.604 6.45391 15.5586 6.32714C15.5142 6.20356 15.428 6.0766 15.3291 5.99023C15.2913 5.95734 15.2281 5.91675 15.0869 5.85644C14.9405 5.79397 14.7472 5.72501 14.456 5.62304C13.2054 5.18508 12.0034 4.5998 10.875 3.92284C10.6199 3.76985 10.4456 3.66577 10.3086 3.59277C10.172 3.52006 10.1064 3.49722 10.0703 3.48925ZM9.95211 4.64452C9.99368 4.65331 10.033 4.67538 10.1103 4.71972C10.8177 5.12529 11.5179 5.53709 12.2578 5.88573C12.9007 6.18867 13.5653 6.43601 14.2304 6.68359C14.3342 6.7222 14.3865 6.7418 14.4248 6.77636C14.458 6.80638 14.4843 6.84633 14.499 6.88866C14.5158 6.93739 14.5136 6.99156 14.5087 7.0996C14.443 8.5656 14.18 10.0518 13.5293 11.375C12.771 12.9168 11.5372 14.1991 10.1337 15.1767C10.0515 15.234 10.0101 15.2624 9.96187 15.2744C9.92084 15.2846 9.87304 15.2846 9.83199 15.2744C9.7837 15.2624 9.74231 15.234 9.66011 15.1767C8.2567 14.1991 7.0229 12.9168 6.26461 11.375C5.61384 10.0518 5.35087 8.56562 5.28511 7.0996C5.28026 6.99149 5.27802 6.93742 5.29488 6.88866C5.30954 6.84632 5.33583 6.80637 5.3691 6.77636C5.40736 6.74193 5.45899 6.72209 5.56246 6.68359C6.22816 6.43583 6.89128 6.18959 7.53609 5.88573C8.27602 5.53704 8.97611 5.12534 9.68355 4.71972C9.76071 4.67548 9.79928 4.65332 9.84078 4.64452C9.87724 4.63682 9.91563 4.63686 9.95211 4.64452Z" fill="url(#paint2_linear_10_21022)"/>
</mask>
<g mask="url(#mask2_10_21022)">
<rect x="0.444336" y="0.44458" width="18.8889" height="18.8889" fill="#2E3E92"/>
<rect x="0.376953" y="0.444336" width="18.8889" height="18.8889" fill="url(#paint3_linear_10_21022)" fill-opacity="0.6" style="mix-blend-mode:overlay"/>
<rect x="0.376953" y="0.444336" width="18.8889" height="18.8889" fill="url(#paint4_radial_10_21022)" fill-opacity="0.6" style="mix-blend-mode:overlay"/>
<g style="mix-blend-mode:soft-light">
<path fill-rule="evenodd" clip-rule="evenodd" d="M0.444336 0.44458H9.88878V19.3335H0.444336V0.44458Z" fill="url(#paint5_linear_10_21022)" style="mix-blend-mode:lighten"/>
</g>
<g style="mix-blend-mode:soft-light">
<mask id="path-11-inside-1_10_21022" fill="white">
<path d="M9.60738 2.96191C9.82102 2.91503 9.97189 2.91505 10.1855 2.96191C10.401 3.00922 10.6517 3.15962 11.1523 3.45995C12.2539 4.12085 13.4226 4.69008 14.6337 5.11425C15.2029 5.31357 15.4885 5.41283 15.6845 5.58398C15.8526 5.73081 15.9909 5.93447 16.0664 6.14452C16.1543 6.38942 16.1456 6.61933 16.1289 7.07909C16.0811 8.38807 15.8449 10.334 14.9814 12.0898L14.7597 12.5146C13.6085 14.5917 11.871 15.9704 10.8144 16.6719L10.6484 16.7803C10.4982 16.8754 10.3848 16.9328 10.2099 16.9746L10.0664 16.9961C9.95907 17.0057 9.8338 17.0057 9.72652 16.9961L9.58296 16.9746C9.34999 16.9189 9.22581 16.8361 8.97847 16.6719C7.92186 15.9704 6.18439 14.5917 5.03316 12.5146L4.81148 12.0898C3.94798 10.334 3.71076 8.38806 3.66304 7.07909C3.64839 6.67709 3.64028 6.45055 3.69722 6.23632L3.72652 6.14452C3.80192 5.93453 3.94033 5.7308 4.10836 5.58398C4.25539 5.45555 4.45268 5.36725 4.78218 5.24706L5.15816 5.11425C6.21791 4.74314 7.24535 4.26051 8.22359 3.70312L8.64058 3.45995C9.07867 3.19714 9.32524 3.04892 9.52437 2.98437L9.60738 2.96191ZM10.0703 3.48925C9.9327 3.45906 9.86026 3.45903 9.72261 3.48925C9.68645 3.49726 9.62078 3.5201 9.48433 3.59277C9.34727 3.66578 9.17294 3.76986 8.91793 3.92284C7.78949 4.59979 6.58747 5.1851 5.33687 5.62304C5.04574 5.72499 4.85233 5.79397 4.70601 5.85644C4.56488 5.91672 4.50156 5.95735 4.46382 5.99023C4.365 6.07661 4.27867 6.20363 4.23433 6.32714C4.18891 6.45386 4.18519 6.5685 4.20308 7.05956C4.24954 8.33399 4.47934 10.1932 5.29488 11.8516C6.37343 14.0446 8.18698 15.4988 9.2773 16.2226C9.52693 16.3884 9.57915 16.4184 9.70796 16.4492C9.73051 16.4546 9.80015 16.4638 9.89644 16.4639C9.99183 16.4639 10.0607 16.4546 10.0839 16.4492C10.2132 16.4183 10.2657 16.3885 10.5156 16.2226C11.6058 15.4989 13.4184 14.0445 14.497 11.8516C15.3126 10.1932 15.5433 8.33403 15.5898 7.05956C15.6077 6.56836 15.604 6.45391 15.5586 6.32714C15.5142 6.20356 15.428 6.0766 15.3291 5.99023C15.2913 5.95734 15.2281 5.91675 15.0869 5.85644C14.9405 5.79397 14.7472 5.72501 14.456 5.62304C13.2054 5.18508 12.0034 4.5998 10.875 3.92284C10.6199 3.76985 10.4456 3.66577 10.3086 3.59277C10.172 3.52006 10.1064 3.49722 10.0703 3.48925ZM9.95211 4.64452C9.99368 4.65331 10.033 4.67538 10.1103 4.71972C10.8177 5.12529 11.5179 5.53709 12.2578 5.88573C12.9007 6.18867 13.5653 6.43601 14.2304 6.68359C14.3342 6.7222 14.3865 6.7418 14.4248 6.77636C14.458 6.80638 14.4843 6.84633 14.499 6.88866C14.5158 6.93739 14.5136 6.99156 14.5087 7.0996C14.443 8.5656 14.18 10.0518 13.5293 11.375C12.771 12.9168 11.5372 14.1991 10.1337 15.1767C10.0515 15.234 10.0101 15.2624 9.96187 15.2744C9.92084 15.2846 9.87304 15.2846 9.83199 15.2744C9.7837 15.2624 9.74231 15.234 9.66011 15.1767C8.2567 14.1991 7.0229 12.9168 6.26461 11.375C5.61384 10.0518 5.35087 8.56562 5.28511 7.0996C5.28026 6.99149 5.27802 6.93742 5.29488 6.88866C5.30954 6.84632 5.33583 6.80637 5.3691 6.77636C5.40736 6.74193 5.45899 6.72209 5.56246 6.68359C6.22816 6.43583 6.89128 6.18959 7.53609 5.88573C8.27602 5.53704 8.97611 5.12534 9.68355 4.71972C9.76071 4.67548 9.79928 4.65332 9.84078 4.64452C9.87724 4.63682 9.91563 4.63686 9.95211 4.64452Z"/>
</mask>
<path d="M9.60738 2.96191L9.60014 2.92892L9.59857 2.92935L9.60738 2.96191ZM10.1855 2.96191L10.1927 2.92896L10.1927 2.92896L10.1855 2.96191ZM11.1523 3.45995L11.1349 3.48888L11.1523 3.45995ZM14.6337 5.11425L14.6226 5.14608L14.6226 5.14608L14.6337 5.11425ZM15.6845 5.58398L15.7067 5.55857L15.7067 5.55857L15.6845 5.58398ZM16.0664 6.14452L16.0981 6.13313L16.0981 6.13312L16.0664 6.14452ZM16.1289 7.07909L16.1626 7.08032L16.1626 7.08032L16.1289 7.07909ZM14.9814 12.0898L15.0113 12.1054L15.0117 12.1047L14.9814 12.0898ZM14.7597 12.5146L14.7892 12.531L14.7896 12.5302L14.7597 12.5146ZM10.8144 16.6719L10.8329 16.7001L10.8331 16.7L10.8144 16.6719ZM10.6484 16.7803L10.6664 16.8088L10.6668 16.8085L10.6484 16.7803ZM10.2099 16.9746L10.2149 17.0081L10.2178 17.0074L10.2099 16.9746ZM10.0664 16.9961L10.0694 17.0297L10.0714 17.0294L10.0664 16.9961ZM9.72652 16.9961L9.72152 17.0295L9.7235 17.0297L9.72652 16.9961ZM9.58296 16.9746L9.5751 17.0075L9.57797 17.008L9.58296 16.9746ZM8.97847 16.6719L8.95982 16.7L8.95982 16.7L8.97847 16.6719ZM5.03316 12.5146L5.00325 12.5302L5.00366 12.531L5.03316 12.5146ZM4.81148 12.0898L4.7812 12.1047L4.78158 12.1054L4.81148 12.0898ZM3.66304 7.07909L3.62933 7.08032L3.62934 7.08032L3.66304 7.07909ZM3.69722 6.23632L3.66505 6.22605L3.66462 6.22765L3.69722 6.23632ZM3.72652 6.14452L3.69475 6.13312L3.69439 6.13427L3.72652 6.14452ZM4.10836 5.58398L4.08617 5.55857L4.08616 5.55858L4.10836 5.58398ZM4.78218 5.24706L4.77095 5.21526L4.77062 5.21537L4.78218 5.24706ZM5.15816 5.11425L5.14701 5.08241L5.14693 5.08245L5.15816 5.11425ZM8.22359 3.70312L8.24029 3.73242L8.24058 3.73225L8.22359 3.70312ZM8.64058 3.45995L8.65757 3.48909L8.65793 3.48888L8.64058 3.45995ZM9.52437 2.98437L9.51555 2.95177L9.51397 2.95228L9.52437 2.98437ZM10.0703 3.48925L10.0775 3.45631L10.0775 3.4563L10.0703 3.48925ZM9.72261 3.48925L9.71538 3.4563L9.71532 3.45632L9.72261 3.48925ZM9.48433 3.59277L9.46848 3.56299L9.46847 3.563L9.48433 3.59277ZM8.91793 3.92284L8.93528 3.95177L8.93528 3.95177L8.91793 3.92284ZM5.33687 5.62304L5.34802 5.65487L5.34802 5.65487L5.33687 5.62304ZM4.70601 5.85644L4.69277 5.82542L4.69276 5.82542L4.70601 5.85644ZM4.46382 5.99023L4.44167 5.96479L4.44163 5.96483L4.46382 5.99023ZM4.23433 6.32714L4.20259 6.31574L4.20258 6.31576L4.23433 6.32714ZM4.20308 7.05956L4.16937 7.06079L4.16937 7.06079L4.20308 7.05956ZM5.29488 11.8516L5.26461 11.8664L5.26461 11.8664L5.29488 11.8516ZM9.2773 16.2226L9.25865 16.2507L9.25865 16.2507L9.2773 16.2226ZM9.70796 16.4492L9.70012 16.482L9.70013 16.482L9.70796 16.4492ZM9.89644 16.4639L9.89644 16.4976L9.89644 16.4976L9.89644 16.4639ZM10.0839 16.4492L10.0916 16.4821L10.0918 16.482L10.0839 16.4492ZM10.5156 16.2226L10.5342 16.2507L10.5342 16.2507L10.5156 16.2226ZM14.497 11.8516L14.5273 11.8664L14.5273 11.8664L14.497 11.8516ZM15.5898 7.05956L15.6235 7.06079L15.6235 7.06079L15.5898 7.05956ZM15.5586 6.32714L15.5903 6.31575L15.5903 6.31574L15.5586 6.32714ZM15.3291 5.99023L15.3512 5.96482L15.3512 5.96479L15.3291 5.99023ZM15.0869 5.85644L15.1001 5.82542L15.1001 5.82542L15.0869 5.85644ZM14.456 5.62304L14.4449 5.65487L14.4449 5.65487L14.456 5.62304ZM10.875 3.92284L10.8576 3.95177L10.8576 3.95177L10.875 3.92284ZM10.3086 3.59277L10.3244 3.56299L10.3244 3.56299L10.3086 3.59277ZM9.95211 4.64452L9.95908 4.61152L9.95904 4.61151L9.95211 4.64452ZM10.1103 4.71972L10.1271 4.69046L10.1271 4.69046L10.1103 4.71972ZM12.2578 5.88573L12.2434 5.91625L12.2434 5.91625L12.2578 5.88573ZM14.2304 6.68359L14.2187 6.7152L14.2187 6.7152L14.2304 6.68359ZM14.4248 6.77636L14.4474 6.75133L14.4474 6.75132L14.4248 6.77636ZM14.499 6.88866L14.5309 6.87765L14.5309 6.87764L14.499 6.88866ZM14.5087 7.0996L14.5424 7.10111L14.5087 7.0996ZM13.5293 11.375L13.5595 11.3899L13.5595 11.3899L13.5293 11.375ZM10.1337 15.1767L10.153 15.2044L10.153 15.2044L10.1337 15.1767ZM9.96187 15.2744L9.97 15.3071L9.97005 15.3071L9.96187 15.2744ZM9.83199 15.2744L9.82386 15.3071L9.8239 15.3072L9.83199 15.2744ZM9.66011 15.1767L9.64083 15.2044L9.64083 15.2044L9.66011 15.1767ZM6.26461 11.375L6.23434 11.3899L6.23434 11.3899L6.26461 11.375ZM5.28511 7.0996L5.25142 7.10111L5.25142 7.10111L5.28511 7.0996ZM5.29488 6.88866L5.26301 6.87763L5.263 6.87764L5.29488 6.88866ZM5.3691 6.77636L5.34654 6.75128L5.3465 6.75132L5.3691 6.77636ZM5.56246 6.68359L5.55069 6.65197L5.55069 6.65197L5.56246 6.68359ZM7.53609 5.88573L7.55047 5.91625L7.55047 5.91625L7.53609 5.88573ZM9.68355 4.71972L9.66677 4.69046L9.66677 4.69046L9.68355 4.71972ZM9.84078 4.64452L9.8338 4.61152L9.83378 4.61153L9.84078 4.64452ZM9.60738 2.96191L9.61461 2.99485C9.82348 2.94902 9.96943 2.94904 10.1783 2.99485L10.1855 2.96191L10.1927 2.92896C9.97436 2.88106 9.81855 2.88104 9.60015 2.92896L9.60738 2.96191ZM10.1855 2.96191L10.1783 2.99485C10.2815 3.01752 10.3949 3.06526 10.5461 3.14582C10.6974 3.22638 10.8843 3.33853 11.1349 3.48888L11.1523 3.45995L11.1697 3.43103C10.9196 3.28105 10.731 3.16783 10.5778 3.08628C10.4247 3.00472 10.305 2.9536 10.1927 2.92896L10.1855 2.96191ZM11.1523 3.45995L11.1349 3.48888C12.2383 4.15077 13.409 4.72105 14.6226 5.14608L14.6337 5.11425L14.6449 5.08242C13.4362 4.65911 12.2696 4.09092 11.1697 3.43103L11.1523 3.45995ZM14.6337 5.11425L14.6226 5.14608C14.9076 5.2459 15.1201 5.32013 15.2859 5.39071C15.4514 5.46117 15.5681 5.52712 15.6623 5.60938L15.6845 5.58398L15.7067 5.55857C15.6049 5.46968 15.4809 5.40043 15.3123 5.32864C15.144 5.25698 14.929 5.18192 14.6449 5.08241L14.6337 5.11425ZM15.6845 5.58398L15.6623 5.60938C15.8261 5.7524 15.9611 5.95122 16.0346 6.15592L16.0664 6.14452L16.0981 6.13312C16.0208 5.91771 15.8792 5.70922 15.7067 5.55857L15.6845 5.58398ZM16.0664 6.14452L16.0346 6.15592C16.1199 6.39343 16.112 6.61608 16.0952 7.07786L16.1289 7.07909L16.1626 7.08032C16.1793 6.62257 16.1887 6.38541 16.0981 6.13313L16.0664 6.14452ZM16.1289 7.07909L16.0952 7.07786C16.0475 8.38469 15.8117 10.3252 14.9511 12.0749L14.9814 12.0898L15.0117 12.1047C15.8782 10.3428 16.1148 8.39145 16.1626 7.08032L16.1289 7.07909ZM14.9814 12.0898L14.9515 12.0742L14.7298 12.499L14.7597 12.5146L14.7896 12.5302L15.0113 12.1054L14.9814 12.0898ZM14.7597 12.5146L14.7302 12.4983C13.5826 14.5687 11.8501 15.9438 10.7958 16.6438L10.8144 16.6719L10.8331 16.7C11.8919 15.997 13.6343 14.6147 14.7892 12.531L14.7597 12.5146ZM10.8144 16.6719L10.796 16.6436L10.63 16.752L10.6484 16.7803L10.6668 16.8085L10.8329 16.7001L10.8144 16.6719ZM10.6484 16.7803L10.6304 16.7518C10.4821 16.8456 10.3722 16.9012 10.2021 16.9418L10.2099 16.9746L10.2178 17.0074C10.3975 16.9645 10.5143 16.9051 10.6664 16.8088L10.6484 16.7803ZM10.2099 16.9746L10.2049 16.9412L10.0614 16.9627L10.0664 16.9961L10.0714 17.0294L10.2149 17.008L10.2099 16.9746ZM10.0664 16.9961L10.0634 16.9625C9.95806 16.9719 9.83481 16.9719 9.72953 16.9625L9.72652 16.9961L9.7235 17.0297C9.83279 17.0395 9.96008 17.0395 10.0694 17.0297L10.0664 16.9961ZM9.72652 16.9961L9.73151 16.9627L9.58796 16.9412L9.58296 16.9746L9.57797 17.008L9.72153 17.0294L9.72652 16.9961ZM9.58296 16.9746L9.5908 16.9418C9.36435 16.8877 9.2447 16.8081 8.99713 16.6438L8.97847 16.6719L8.95982 16.7C9.20693 16.864 9.33564 16.9502 9.57513 17.0074L9.58296 16.9746ZM8.97847 16.6719L8.99713 16.6438C7.94275 15.9438 6.21021 14.5688 5.06266 12.4983L5.03316 12.5146L5.00366 12.531C6.15857 14.6147 7.90097 15.997 8.95982 16.7L8.97847 16.6719ZM5.03316 12.5146L5.06306 12.499L4.84138 12.0742L4.81148 12.0898L4.78158 12.1054L5.00326 12.5302L5.03316 12.5146ZM4.81148 12.0898L4.84175 12.0749C3.98124 10.3252 3.74438 8.38466 3.69675 7.07786L3.66304 7.07909L3.62934 7.08032C3.67713 8.39146 3.91472 10.3428 4.78121 12.1047L4.81148 12.0898ZM3.66304 7.07909L3.69675 7.07786C3.68203 6.67407 3.67445 6.45328 3.72982 6.24499L3.69722 6.23632L3.66462 6.22765C3.6061 6.44782 3.61475 6.6801 3.62933 7.08032L3.66304 7.07909ZM3.69722 6.23632L3.72936 6.24658L3.75865 6.15478L3.72652 6.14452L3.69439 6.13427L3.66509 6.22606L3.69722 6.23632ZM3.72652 6.14452L3.75826 6.15592C3.83174 5.95129 3.96689 5.75239 4.13055 5.60938L4.10836 5.58398L4.08616 5.55858C3.91378 5.70921 3.7721 5.91777 3.69477 6.13312L3.72652 6.14452ZM4.10836 5.58398L4.13054 5.60938C4.27229 5.48557 4.46398 5.39903 4.79374 5.27875L4.78218 5.24706L4.77062 5.21537C4.44138 5.33547 4.23848 5.42553 4.08617 5.55857L4.10836 5.58398ZM4.78218 5.24706L4.79342 5.27887L5.16939 5.14605L5.15816 5.11425L5.14693 5.08245L4.77095 5.21526L4.78218 5.24706ZM5.15816 5.11425L5.16931 5.14608C6.23123 4.77422 7.26053 4.29069 8.24029 3.73242L8.22359 3.70312L8.20689 3.67381C7.23018 4.23034 6.20459 4.71207 5.14701 5.08241L5.15816 5.11425ZM8.22359 3.70312L8.24058 3.73225L8.65757 3.48909L8.64058 3.45995L8.62359 3.43081L8.2066 3.67398L8.22359 3.70312ZM8.64058 3.45995L8.65793 3.48888C9.09785 3.22497 9.34027 3.07951 9.53477 3.01645L9.52437 2.98437L9.51397 2.95228C9.31022 3.01833 9.05949 3.16931 8.62323 3.43103L8.64058 3.45995ZM9.52437 2.98437L9.53318 3.01693L9.61619 2.99446L9.60738 2.96191L9.59857 2.92935L9.51556 2.95181L9.52437 2.98437ZM10.0703 3.48925L10.0775 3.4563C10.0076 3.44095 9.9524 3.43287 9.89647 3.43287C9.84054 3.43286 9.78537 3.44094 9.71538 3.4563L9.72261 3.48925L9.72985 3.52219C9.7975 3.50734 9.84737 3.50032 9.89647 3.50033C9.94556 3.50033 9.99542 3.50736 10.063 3.5222L10.0703 3.48925ZM9.72261 3.48925L9.71532 3.45632C9.67465 3.46533 9.60577 3.48988 9.46848 3.56299L9.48433 3.59277L9.50019 3.62254C9.63579 3.55032 9.69825 3.52919 9.72991 3.52218L9.72261 3.48925ZM9.48433 3.59277L9.46847 3.563C9.33048 3.63651 9.15531 3.7411 8.90057 3.89392L8.91793 3.92284L8.93528 3.95177C9.19056 3.79862 9.36406 3.69506 9.50019 3.62253L9.48433 3.59277ZM8.91793 3.92284L8.90057 3.89392C7.77381 4.56986 6.57386 5.15412 5.32572 5.5912L5.33687 5.62304L5.34802 5.65487C6.60107 5.21607 7.80516 4.62972 8.93528 3.95177L8.91793 3.92284ZM5.33687 5.62304L5.32572 5.5912C5.03489 5.69305 4.84033 5.76242 4.69277 5.82542L4.70601 5.85644L4.71926 5.88746C4.86433 5.82552 5.05658 5.75693 5.34802 5.65487L5.33687 5.62304ZM4.70601 5.85644L4.69276 5.82542C4.55035 5.88625 4.4833 5.92852 4.44167 5.96479L4.46382 5.99023L4.48598 6.01566C4.51982 5.98617 4.57941 5.94719 4.71926 5.88746L4.70601 5.85644ZM4.46382 5.99023L4.44163 5.96483C4.33845 6.05502 4.24885 6.18687 4.20259 6.31574L4.23433 6.32714L4.26608 6.33854C4.3085 6.22039 4.39155 6.0982 4.48602 6.01562L4.46382 5.99023ZM4.23433 6.32714L4.20258 6.31576C4.15448 6.44995 4.15156 6.57209 4.16937 7.06079L4.20308 7.05956L4.23679 7.05833C4.21881 6.56491 4.22334 6.45778 4.26608 6.33852L4.23433 6.32714ZM4.20308 7.05956L4.16937 7.06079C4.21591 8.33737 4.44608 10.202 5.26461 11.8664L5.29488 11.8516L5.32515 11.8367C4.51261 10.1844 4.28317 8.33062 4.23679 7.05833L4.20308 7.05956ZM5.29488 11.8516L5.26461 11.8664C6.34692 14.0671 8.16604 15.5254 9.25865 16.2507L9.2773 16.2226L9.29596 16.1945C8.20793 15.4722 6.39994 14.0221 5.32515 11.8367L5.29488 11.8516ZM9.2773 16.2226L9.25865 16.2507C9.50796 16.4163 9.56475 16.4496 9.70012 16.482L9.70796 16.4492L9.71581 16.4164C9.59355 16.3872 9.54591 16.3605 9.29596 16.1945L9.2773 16.2226ZM9.70796 16.4492L9.70013 16.482C9.72622 16.4882 9.79876 16.4976 9.89644 16.4976L9.89644 16.4639L9.89645 16.4301C9.80154 16.4301 9.73479 16.4209 9.7158 16.4164L9.70796 16.4492ZM9.89644 16.4639L9.89644 16.4976C9.99335 16.4976 10.0649 16.4882 10.0916 16.4821L10.0839 16.4492L10.0763 16.4164C10.0564 16.421 9.99031 16.4301 9.89644 16.4301L9.89644 16.4639ZM10.0839 16.4492L10.0918 16.482C10.2275 16.4496 10.2846 16.4165 10.5342 16.2507L10.5156 16.2226L10.4969 16.1945C10.2468 16.3606 10.1988 16.3871 10.0761 16.4164L10.0839 16.4492ZM10.5156 16.2226L10.5342 16.2507C11.6268 15.5255 13.4449 14.067 14.5273 11.8664L14.497 11.8516L14.4668 11.8367C13.3919 14.022 11.5849 15.4723 10.4969 16.1945L10.5156 16.2226ZM14.497 11.8516L14.5273 11.8664C15.3459 10.202 15.577 8.33741 15.6235 7.06079L15.5898 7.05956L15.5561 7.05833C15.5097 8.33064 15.2793 10.1844 14.4668 11.8367L14.497 11.8516ZM15.5898 7.05956L15.6235 7.06079C15.6413 6.57195 15.6384 6.44999 15.5903 6.31575L15.5586 6.32714L15.5268 6.33853C15.5696 6.45782 15.5741 6.56477 15.5561 7.05833L15.5898 7.05956ZM15.5586 6.32714L15.5903 6.31574C15.544 6.18681 15.4545 6.05501 15.3512 5.96482L15.3291 5.99023L15.3069 6.01563C15.4014 6.09819 15.4844 6.22031 15.5268 6.33854L15.5586 6.32714ZM15.3291 5.99023L15.3512 5.96479C15.3096 5.92852 15.2426 5.88628 15.1001 5.82542L15.0869 5.85644L15.0736 5.88746C15.2136 5.94722 15.273 5.98616 15.3069 6.01566L15.3291 5.99023ZM15.0869 5.85644L15.1001 5.82542C14.9525 5.76241 14.7581 5.69307 14.4672 5.5912L14.456 5.62304L14.4449 5.65487C14.7364 5.75695 14.9285 5.82552 15.0736 5.88746L15.0869 5.85644ZM14.456 5.62304L14.4672 5.5912C13.219 5.15411 12.0191 4.56987 10.8923 3.89392L10.875 3.92284L10.8576 3.95177C11.9877 4.62973 13.1918 5.21606 14.4449 5.65487L14.456 5.62304ZM10.875 3.92284L10.8923 3.89392C10.6376 3.74109 10.4624 3.6365 10.3244 3.56299L10.3086 3.59277L10.2927 3.62254C10.4288 3.69505 10.6023 3.79861 10.8576 3.95177L10.875 3.92284ZM10.3086 3.59277L10.3244 3.56299C10.187 3.48985 10.1182 3.46529 10.0775 3.45631L10.0703 3.48925L10.063 3.52219C10.0946 3.52916 10.157 3.55028 10.2927 3.62254L10.3086 3.59277ZM9.95211 4.64452L9.94513 4.67752C9.98034 4.68496 10.0145 4.70366 10.0935 4.74898L10.1103 4.71972L10.1271 4.69046C10.0515 4.6471 10.007 4.62165 9.95908 4.61152L9.95211 4.64452ZM10.1103 4.71972L10.0935 4.74898C10.8003 5.15425 11.502 5.56688 12.2434 5.91625L12.2578 5.88573L12.2721 5.85522C11.5338 5.5073 10.835 5.09633 10.1271 4.69046L10.1103 4.71972ZM12.2578 5.88573L12.2434 5.91625C12.8878 6.21989 13.5537 6.4677 14.2187 6.7152L14.2304 6.68359L14.2422 6.65197C13.5768 6.40431 12.9136 6.15746 12.2721 5.85522L12.2578 5.88573ZM14.2304 6.68359L14.2187 6.7152C14.325 6.75477 14.3698 6.77219 14.4022 6.8014L14.4248 6.77636L14.4474 6.75132C14.4031 6.71141 14.3433 6.68962 14.2422 6.65197L14.2304 6.68359ZM14.4248 6.77636L14.4022 6.80139C14.4311 6.82757 14.4543 6.8627 14.4671 6.89969L14.499 6.88866L14.5309 6.87764C14.5144 6.82997 14.4849 6.78519 14.4474 6.75133L14.4248 6.77636ZM14.499 6.88866L14.4671 6.89967C14.4813 6.9409 14.48 6.98744 14.475 7.09809L14.5087 7.0996L14.5424 7.10111C14.5472 6.99568 14.5503 6.93388 14.5309 6.87765L14.499 6.88866ZM14.5087 7.0996L14.475 7.09809C14.4094 8.56137 14.147 10.0425 13.499 11.3601L13.5293 11.375L13.5595 11.3899C14.213 10.0611 14.4766 8.56982 14.5424 7.10111L14.5087 7.0996ZM13.5293 11.375L13.499 11.3601C12.7438 12.8957 11.5144 14.1739 10.1145 15.1491L10.1337 15.1767L10.153 15.2044C11.56 14.2243 12.7982 12.938 13.5595 11.3899L13.5293 11.375ZM10.1337 15.1767L10.1145 15.1491C10.0304 15.2076 9.99458 15.2315 9.9537 15.2417L9.96187 15.2744L9.97005 15.3071C10.0256 15.2933 10.0726 15.2604 10.153 15.2044L10.1337 15.1767ZM9.96187 15.2744L9.95374 15.2417C9.91808 15.2505 9.87584 15.2505 9.84008 15.2417L9.83199 15.2744L9.8239 15.3072C9.87024 15.3186 9.92361 15.3187 9.97 15.3071L9.96187 15.2744ZM9.83199 15.2744L9.84012 15.2417C9.79921 15.2315 9.76344 15.2076 9.67939 15.1491L9.66011 15.1767L9.64083 15.2044C9.72118 15.2604 9.76819 15.2933 9.82386 15.3071L9.83199 15.2744ZM9.66011 15.1767L9.67939 15.1491C8.2795 14.1739 7.05009 12.8956 6.29487 11.3601L6.26461 11.375L6.23434 11.3899C6.99571 12.9379 8.23389 14.2244 9.64083 15.2044L9.66011 15.1767ZM6.26461 11.375L6.29487 11.3601C5.64687 10.0425 5.38444 8.56139 5.31881 7.09809L5.28511 7.0996L5.25142 7.10111C5.31729 8.56985 5.58081 10.061 6.23434 11.3899L6.26461 11.375ZM5.28511 7.0996L5.31881 7.09809C5.31384 6.98735 5.31249 6.94093 5.32676 6.89969L5.29488 6.88866L5.263 6.87764C5.24354 6.9339 5.24669 6.99562 5.25142 7.10111L5.28511 7.0996ZM5.29488 6.88866L5.32675 6.8997C5.33957 6.86267 5.36271 6.82756 5.39169 6.8014L5.3691 6.77636L5.3465 6.75132C5.30896 6.78519 5.2795 6.82998 5.26301 6.87763L5.29488 6.88866ZM5.3691 6.77636L5.39166 6.80143C5.42406 6.77228 5.46842 6.75457 5.57422 6.7152L5.56246 6.68359L5.55069 6.65197C5.44957 6.68961 5.39067 6.71158 5.34654 6.75128L5.3691 6.77636ZM5.56246 6.68359L5.57422 6.7152C6.23968 6.46753 6.90415 6.22081 7.55047 5.91625L7.53609 5.88573L7.52171 5.85522C6.8784 6.15837 6.21663 6.40413 5.55069 6.65197L5.56246 6.68359ZM7.53609 5.88573L7.55047 5.91625C8.29192 5.56684 8.99342 5.1543 9.70033 4.74898L9.68355 4.71972L9.66677 4.69046C8.95881 5.09638 8.26011 5.50725 7.52171 5.85522L7.53609 5.88573ZM9.68355 4.71972L9.70033 4.74898C9.77942 4.70363 9.81268 4.68496 9.84777 4.67752L9.84078 4.64452L9.83378 4.61153C9.78587 4.62168 9.74199 4.64733 9.66677 4.69046L9.68355 4.71972ZM9.84078 4.64452L9.84775 4.67752C9.87959 4.6708 9.91324 4.67082 9.94517 4.67753L9.95211 4.64452L9.95904 4.61151C9.91802 4.60289 9.87489 4.60284 9.8338 4.61152L9.84078 4.64452Z" fill="url(#paint6_linear_10_21022)" mask="url(#path-11-inside-1_10_21022)"/>
</g>
</g>
</g>
<g filter="url(#filter2_d_10_21022)">
<path d="M12.3837 8.34928L9.99591 9.65258C9.92334 9.69219 9.83563 9.69219 9.76307 9.65258L7.75549 8.55682V9.5954C7.75549 9.72976 7.64978 9.83868 7.51938 9.83868C7.38898 9.83868 7.28327 9.72976 7.28327 9.5954V8.26182C7.21589 8.14996 7.24654 7.99236 7.37524 7.92212L9.76307 6.61882C9.83563 6.57921 9.92334 6.57921 9.99591 6.61882L12.3837 7.92212C12.5527 8.01433 12.5527 8.25707 12.3837 8.34928Z" fill="white"/>
<path d="M11.6421 10.5325C11.6421 10.6581 11.5664 10.7817 11.4537 10.8381L10.0423 11.5442C9.94395 11.5934 9.81531 11.5936 9.71668 11.5442L8.30531 10.8381C8.19291 10.7818 8.11684 10.6583 8.11684 10.5325V9.43783C8.11684 9.33552 8.22626 9.27044 8.31616 9.31927L9.62182 10.0285C9.75597 10.1014 10.0029 10.1014 10.1372 10.0285L11.4428 9.31927C11.5327 9.27044 11.6421 9.33552 11.6421 9.43783V10.5325Z" fill="white"/>
<path d="M11.4351 9.30493C11.5362 9.25003 11.6586 9.32271 11.6587 9.43774V10.5325C11.6587 10.6643 11.5797 10.7934 11.4614 10.8528L10.0503 11.5588C9.94723 11.6104 9.81285 11.6105 9.70947 11.5588L8.29736 10.8528C8.17948 10.7936 8.1001 10.6645 8.1001 10.5325V9.43774C8.10016 9.32276 8.22265 9.25018 8.32373 9.30493L9.62939 10.0139C9.69315 10.0485 9.7858 10.0666 9.87939 10.0667C9.97301 10.0667 10.0656 10.0486 10.1294 10.0139L11.4351 9.30493ZM9.75537 6.60376C9.8329 6.56162 9.92693 6.56148 10.0044 6.60376L12.3921 7.90747C12.5725 8.00618 12.5726 8.26594 12.3921 8.3645L10.0044 9.66724C9.92687 9.70955 9.83293 9.70947 9.75537 9.66724L7.77197 8.58423V9.59497C7.77197 9.73817 7.65923 9.85571 7.51904 9.85571C7.37901 9.85553 7.26611 9.73805 7.26611 9.59497V8.26392C7.19894 8.14503 7.23163 7.98149 7.3667 7.90747L9.75537 6.60376Z" stroke="url(#paint7_linear_10_21022)" stroke-width="0.0337302" stroke-linecap="round" style="mix-blend-mode:color-burn"/>
</g>
</g>
<g filter="url(#filter3_dd_10_21022)">
<mask id="path-15-inside-2_10_21022" fill="white">
<path d="M4.51657 12.7222C4.81882 12.7222 4.97046 12.7219 5.08591 12.7808C5.18743 12.8325 5.26952 12.9156 5.32126 13.0171C5.38005 13.1325 5.38083 13.2834 5.38083 13.5854V14.9624C5.38083 15.2643 5.38005 15.4154 5.32126 15.5308C5.26951 15.6323 5.18742 15.7154 5.08591 15.7671C4.97046 15.8259 4.8188 15.8257 4.51657 15.8257H3.38864C3.16862 15.8257 3.05874 15.825 2.9902 15.7788C2.93031 15.7383 2.88904 15.6751 2.87595 15.604C2.86117 15.5227 2.90482 15.4217 2.99313 15.2202L3.40817 14.2739L2.99313 13.3276C2.90469 13.1258 2.86096 13.0243 2.87595 12.9429C2.88912 12.8719 2.93042 12.8095 2.9902 12.769C3.05873 12.7228 3.16854 12.7222 3.38864 12.7222H4.51657ZM16.3691 12.7222C16.5894 12.7222 16.7 12.7226 16.7685 12.769C16.828 12.8095 16.8687 12.8721 16.8818 12.9429C16.8968 13.0243 16.8531 13.1258 16.7646 13.3276L16.3496 14.2739L16.7646 15.2202C16.8529 15.4217 16.8966 15.5227 16.8818 15.604C16.8687 15.675 16.8282 15.7382 16.7685 15.7788C16.7 15.8252 16.5894 15.8257 16.3691 15.8257H15.2412C14.9389 15.8257 14.7873 15.8259 14.6718 15.7671C14.5703 15.7154 14.4882 15.6323 14.4365 15.5308C14.3777 15.4154 14.3779 15.2643 14.3779 14.9624V13.5854C14.3779 13.2834 14.3777 13.1325 14.4365 13.0171C14.4882 12.9156 14.5703 12.8325 14.6718 12.7808C14.7873 12.7219 14.9389 12.7222 15.2412 12.7222H16.3691Z"/>
</mask>
<path d="M4.51657 12.7222C4.81882 12.7222 4.97046 12.7219 5.08591 12.7808C5.18743 12.8325 5.26952 12.9156 5.32126 13.0171C5.38005 13.1325 5.38083 13.2834 5.38083 13.5854V14.9624C5.38083 15.2643 5.38005 15.4154 5.32126 15.5308C5.26951 15.6323 5.18742 15.7154 5.08591 15.7671C4.97046 15.8259 4.8188 15.8257 4.51657 15.8257H3.38864C3.16862 15.8257 3.05874 15.825 2.9902 15.7788C2.93031 15.7383 2.88904 15.6751 2.87595 15.604C2.86117 15.5227 2.90482 15.4217 2.99313 15.2202L3.40817 14.2739L2.99313 13.3276C2.90469 13.1258 2.86096 13.0243 2.87595 12.9429C2.88912 12.8719 2.93042 12.8095 2.9902 12.769C3.05873 12.7228 3.16854 12.7222 3.38864 12.7222H4.51657ZM16.3691 12.7222C16.5894 12.7222 16.7 12.7226 16.7685 12.769C16.828 12.8095 16.8687 12.8721 16.8818 12.9429C16.8968 13.0243 16.8531 13.1258 16.7646 13.3276L16.3496 14.2739L16.7646 15.2202C16.8529 15.4217 16.8966 15.5227 16.8818 15.604C16.8687 15.675 16.8282 15.7382 16.7685 15.7788C16.7 15.8252 16.5894 15.8257 16.3691 15.8257H15.2412C14.9389 15.8257 14.7873 15.8259 14.6718 15.7671C14.5703 15.7154 14.4882 15.6323 14.4365 15.5308C14.3777 15.4154 14.3779 15.2643 14.3779 14.9624V13.5854C14.3779 13.2834 14.3777 13.1325 14.4365 13.0171C14.4882 12.9156 14.5703 12.8325 14.6718 12.7808C14.7873 12.7219 14.9389 12.7222 15.2412 12.7222H16.3691Z" fill="#FFA00F"/>
<path d="M5.08591 12.7808L5.10122 12.7507L5.10122 12.7507L5.08591 12.7808ZM5.32126 13.0171L5.35131 13.0018L5.35131 13.0018L5.32126 13.0171ZM5.38083 13.5854L5.41456 13.5854V13.5854L5.38083 13.5854ZM5.38083 14.9624L5.41456 14.9624V14.9624H5.38083ZM5.32126 15.5308L5.35131 15.5461L5.35131 15.5461L5.32126 15.5308ZM5.08591 15.7671L5.10122 15.7971L5.10122 15.7971L5.08591 15.7671ZM3.38864 15.8257V15.8594V15.8257ZM2.9902 15.7788L2.97129 15.8067L2.97134 15.8068L2.9902 15.7788ZM2.87595 15.604L2.84276 15.61L2.84277 15.6101L2.87595 15.604ZM2.99313 15.2202L2.96224 15.2067L2.96224 15.2067L2.99313 15.2202ZM3.40817 14.2739L3.43906 14.2875L3.445 14.2739L3.43906 14.2604L3.40817 14.2739ZM2.99313 13.3276L2.96224 13.3412L2.96224 13.3412L2.99313 13.3276ZM2.87595 12.9429L2.84278 12.9367L2.84277 12.9368L2.87595 12.9429ZM2.9902 12.769L2.97132 12.7411L2.97129 12.7411L2.9902 12.769ZM3.38864 12.7222L3.38864 12.6884L3.38864 12.7222ZM16.3691 12.7222V12.6884V12.7222ZM16.7685 12.769L16.7875 12.7412L16.7874 12.7411L16.7685 12.769ZM16.8818 12.9429L16.915 12.9368L16.915 12.9367L16.8818 12.9429ZM16.7646 13.3276L16.7955 13.3412L16.7955 13.3412L16.7646 13.3276ZM16.3496 14.2739L16.3187 14.2604L16.3127 14.2739L16.3187 14.2875L16.3496 14.2739ZM16.7646 15.2202L16.7955 15.2067L16.7955 15.2067L16.7646 15.2202ZM16.8818 15.604L16.915 15.6101L16.915 15.61L16.8818 15.604ZM16.7685 15.7788L16.7874 15.8067L16.7875 15.8067L16.7685 15.7788ZM16.3691 15.8257L16.3691 15.8594L16.3691 15.8257ZM14.6718 15.7671L14.6565 15.7971L14.6565 15.7971L14.6718 15.7671ZM14.4365 15.5308L14.4064 15.5461L14.4064 15.5461L14.4365 15.5308ZM14.3779 14.9624L14.3442 14.9624V14.9624L14.3779 14.9624ZM14.3779 13.5854L14.3442 13.5854V13.5854H14.3779ZM14.4365 13.0171L14.4064 13.0018L14.4064 13.0018L14.4365 13.0171ZM14.6718 12.7808L14.6565 12.7507L14.6565 12.7507L14.6718 12.7808ZM4.51657 12.7222V12.7559C4.66826 12.7559 4.78013 12.7559 4.86857 12.763C4.95662 12.7702 5.01844 12.7842 5.07059 12.8108L5.08591 12.7808L5.10122 12.7507C5.03793 12.7185 4.9662 12.7032 4.87401 12.6958C4.78221 12.6884 4.66713 12.6884 4.51657 12.6884V12.7222ZM5.08591 12.7808L5.07059 12.8108C5.16565 12.8593 5.24264 12.9371 5.2912 13.0324L5.32126 13.0171L5.35131 13.0018C5.29641 12.894 5.20922 12.8058 5.10122 12.7507L5.08591 12.7808ZM5.32126 13.0171L5.2912 13.0324C5.3178 13.0846 5.33211 13.1463 5.33948 13.2341C5.34688 13.3223 5.3471 13.4339 5.3471 13.5854L5.38083 13.5854L5.41456 13.5854C5.41456 13.4349 5.41439 13.3201 5.4067 13.2285C5.39898 13.1364 5.38351 13.065 5.35131 13.0018L5.32126 13.0171ZM5.38083 13.5854H5.3471V14.9624H5.38083H5.41456V13.5854H5.38083ZM5.38083 14.9624L5.3471 14.9624C5.3471 15.1139 5.34688 15.2255 5.33948 15.3137C5.33211 15.4015 5.3178 15.4633 5.2912 15.5154L5.32126 15.5308L5.35131 15.5461C5.38351 15.4829 5.39898 15.4114 5.4067 15.3194C5.41439 15.2277 5.41456 15.1129 5.41456 14.9624L5.38083 14.9624ZM5.32126 15.5308L5.29121 15.5154C5.24263 15.6107 5.16562 15.6886 5.07059 15.737L5.08591 15.7671L5.10122 15.7971C5.20921 15.7421 5.2964 15.6538 5.35131 15.5461L5.32126 15.5308ZM5.08591 15.7671L5.07059 15.737C5.01844 15.7636 4.95662 15.7777 4.86856 15.7848C4.78012 15.792 4.66825 15.792 4.51657 15.792V15.8257V15.8594C4.66712 15.8594 4.7822 15.8595 4.87401 15.8521C4.9662 15.8446 5.03793 15.8294 5.10122 15.7971L5.08591 15.7671ZM4.51657 15.8257V15.792H3.38864V15.8257V15.8594H4.51657V15.8257ZM3.38864 15.8257L3.38864 15.792C3.27803 15.792 3.19737 15.7918 3.13575 15.786C3.07418 15.7802 3.03633 15.7692 3.00907 15.7508L2.9902 15.7788L2.97134 15.8068C3.01261 15.8346 3.06396 15.847 3.12948 15.8532C3.19494 15.8593 3.27923 15.8594 3.38864 15.8594L3.38864 15.8257ZM2.9902 15.7788L3.00911 15.7509C2.9567 15.7154 2.92058 15.6601 2.90912 15.5979L2.87595 15.604L2.84277 15.6101C2.85751 15.6901 2.90392 15.7611 2.97129 15.8067L2.9902 15.7788ZM2.87595 15.604L2.90913 15.598C2.90325 15.5656 2.90841 15.5265 2.92789 15.4678C2.94739 15.409 2.97963 15.3351 3.02403 15.2338L2.99313 15.2202L2.96224 15.2067C2.91833 15.3069 2.88458 15.3841 2.86387 15.4465C2.84314 15.509 2.83386 15.5611 2.84276 15.61L2.87595 15.604ZM2.99313 15.2202L3.02402 15.2338L3.43906 14.2875L3.40817 14.2739L3.37728 14.2604L2.96224 15.2067L2.99313 15.2202ZM3.40817 14.2739L3.43906 14.2604L3.02402 13.3141L2.99313 13.3276L2.96224 13.3412L3.37728 14.2875L3.40817 14.2739ZM2.99313 13.3276L3.02403 13.3141C2.97956 13.2127 2.94728 13.1385 2.92777 13.0795C2.90828 13.0206 2.90316 12.9813 2.90912 12.949L2.87595 12.9429L2.84277 12.9368C2.83374 12.9858 2.843 13.038 2.86373 13.1007C2.88445 13.1633 2.91825 13.2408 2.96224 13.3412L2.99313 13.3276ZM2.87595 12.9429L2.90911 12.949C2.92062 12.8871 2.9567 12.8325 3.00911 12.797L2.9902 12.769L2.97129 12.7411C2.90415 12.7866 2.85763 12.8567 2.84278 12.9367L2.87595 12.9429ZM2.9902 12.769L3.00908 12.797C3.03634 12.7786 3.07416 12.7676 3.13572 12.7618C3.19732 12.7561 3.27799 12.7559 3.38864 12.7559L3.38864 12.7222L3.38864 12.6884C3.27919 12.6884 3.1949 12.6886 3.12945 12.6947C3.06394 12.7008 3.01259 12.7132 2.97132 12.7411L2.9902 12.769ZM3.38864 12.7222V12.7559H4.51657V12.7222V12.6884H3.38864V12.7222ZM16.3691 12.7222L16.3691 12.7559C16.4799 12.7559 16.5608 12.7561 16.6226 12.7618C16.6844 12.7675 16.7224 12.7785 16.7496 12.797L16.7685 12.769L16.7874 12.7411C16.7461 12.7131 16.6945 12.7007 16.6289 12.6946C16.5632 12.6885 16.4787 12.6884 16.3691 12.6884L16.3691 12.7222ZM16.7685 12.769L16.7496 12.7969C16.8016 12.8323 16.8371 12.887 16.8486 12.949L16.8818 12.9429L16.915 12.9367C16.9002 12.8572 16.8545 12.7867 16.7875 12.7412L16.7685 12.769ZM16.8818 12.9429L16.8486 12.949C16.8546 12.9813 16.8495 13.0206 16.83 13.0795C16.8105 13.1385 16.7782 13.2127 16.7337 13.3141L16.7646 13.3276L16.7955 13.3412C16.8395 13.2408 16.8733 13.1633 16.894 13.1007C16.9148 13.038 16.924 12.9858 16.915 12.9368L16.8818 12.9429ZM16.7646 13.3276L16.7337 13.3141L16.3187 14.2604L16.3496 14.2739L16.3805 14.2875L16.7955 13.3412L16.7646 13.3276ZM16.3496 14.2739L16.3187 14.2875L16.7337 15.2338L16.7646 15.2202L16.7955 15.2067L16.3805 14.2604L16.3496 14.2739ZM16.7646 15.2202L16.7337 15.2338C16.7781 15.3351 16.8104 15.409 16.8299 15.4678C16.8493 15.5265 16.8545 15.5656 16.8486 15.598L16.8818 15.604L16.915 15.61C16.9239 15.5611 16.9146 15.509 16.8939 15.4466C16.8732 15.3841 16.8394 15.3069 16.7955 15.2067L16.7646 15.2202ZM16.8818 15.604L16.8486 15.5979C16.8372 15.6602 16.8016 15.7155 16.7496 15.7509L16.7685 15.7788L16.7875 15.8067C16.8548 15.761 16.9003 15.6897 16.915 15.6101L16.8818 15.604ZM16.7685 15.7788L16.7496 15.7509C16.7224 15.7693 16.6844 15.7803 16.6226 15.7861C16.5608 15.7918 16.4799 15.792 16.3691 15.792L16.3691 15.8257L16.3691 15.8594C16.4787 15.8594 16.5632 15.8593 16.6289 15.8532C16.6945 15.8471 16.7461 15.8347 16.7874 15.8067L16.7685 15.7788ZM16.3691 15.8257V15.792H15.2412V15.8257V15.8594H16.3691V15.8257ZM15.2412 15.8257V15.792C15.0895 15.792 14.9776 15.792 14.8892 15.7848C14.8011 15.7777 14.7393 15.7636 14.6872 15.737L14.6718 15.7671L14.6565 15.7971C14.7198 15.8294 14.7915 15.8446 14.8837 15.8521C14.9755 15.8595 15.0906 15.8594 15.2412 15.8594V15.8257ZM14.6718 15.7671L14.6872 15.737C14.5921 15.6886 14.5151 15.6107 14.4665 15.5154L14.4365 15.5308L14.4064 15.5461C14.4613 15.6538 14.5486 15.7421 14.6565 15.7971L14.6718 15.7671ZM14.4365 15.5308L14.4665 15.5154C14.44 15.4633 14.4259 15.4017 14.4188 15.3138C14.4116 15.2256 14.4116 15.1139 14.4116 14.9624L14.3779 14.9624L14.3442 14.9624C14.3442 15.1128 14.3441 15.2277 14.3515 15.3193C14.359 15.4113 14.3742 15.4828 14.4064 15.5461L14.4365 15.5308ZM14.3779 14.9624H14.4116V13.5854H14.3779H14.3442V14.9624H14.3779ZM14.3779 13.5854L14.4116 13.5854C14.4116 13.4339 14.4116 13.3222 14.4188 13.234C14.4259 13.1462 14.44 13.0845 14.4665 13.0324L14.4365 13.0171L14.4064 13.0018C14.3742 13.065 14.359 13.1366 14.3515 13.2286C14.3441 13.3202 14.3442 13.435 14.3442 13.5854L14.3779 13.5854ZM14.4365 13.0171L14.4665 13.0324C14.5151 12.9371 14.5921 12.8593 14.6872 12.8108L14.6718 12.7808L14.6565 12.7507C14.5486 12.8058 14.4613 12.894 14.4064 13.0018L14.4365 13.0171ZM14.6718 12.7808L14.6872 12.8108C14.7393 12.7842 14.8011 12.7702 14.8892 12.763C14.9776 12.7559 15.0895 12.7559 15.2412 12.7559V12.7222V12.6884C15.0906 12.6884 14.9755 12.6884 14.8837 12.6958C14.7915 12.7032 14.7198 12.7185 14.6565 12.7507L14.6718 12.7808ZM15.2412 12.7222V12.7559H16.3691V12.7222V12.6884H15.2412V12.7222Z" fill="url(#paint8_linear_10_21022)" style="mix-blend-mode:darken" mask="url(#path-15-inside-2_10_21022)"/>
</g>
<path d="M4.51657 12.7222C4.81882 12.7222 4.97046 12.7219 5.08591 12.7808C5.18743 12.8325 5.26952 12.9156 5.32126 13.0171C5.38005 13.1325 5.38083 13.2834 5.38083 13.5854V14.9624C5.38083 15.2643 5.38005 15.4154 5.32126 15.5308C5.26951 15.6323 5.18742 15.7154 5.08591 15.7671C4.97046 15.8259 4.8188 15.8257 4.51657 15.8257H3.38864C3.16862 15.8257 3.05874 15.825 2.9902 15.7788C2.93031 15.7383 2.88904 15.6751 2.87595 15.604C2.86117 15.5227 2.90482 15.4217 2.99313 15.2202L3.40817 14.2739L2.99313 13.3276C2.90469 13.1258 2.86096 13.0243 2.87595 12.9429C2.88912 12.8719 2.93042 12.8095 2.9902 12.769C3.05873 12.7228 3.16854 12.7222 3.38864 12.7222H4.51657ZM16.3691 12.7222C16.5894 12.7222 16.7 12.7226 16.7685 12.769C16.828 12.8095 16.8687 12.8721 16.8818 12.9429C16.8968 13.0243 16.8531 13.1258 16.7646 13.3276L16.3496 14.2739L16.7646 15.2202C16.8529 15.4217 16.8966 15.5227 16.8818 15.604C16.8687 15.675 16.8282 15.7382 16.7685 15.7788C16.7 15.8252 16.5894 15.8257 16.3691 15.8257H15.2412C14.9389 15.8257 14.7873 15.8259 14.6718 15.7671C14.5703 15.7154 14.4882 15.6323 14.4365 15.5308C14.3777 15.4154 14.3779 15.2643 14.3779 14.9624V13.5854C14.3779 13.2834 14.3777 13.1325 14.4365 13.0171C14.4882 12.9156 14.5703 12.8325 14.6718 12.7808C14.7873 12.7219 14.9389 12.7222 15.2412 12.7222H16.3691Z" fill="url(#paint9_linear_10_21022)" fill-opacity="0.3" style="mix-blend-mode:overlay"/>
<path d="M4.51657 12.7222C4.81882 12.7222 4.97046 12.7219 5.08591 12.7808C5.18743 12.8325 5.26952 12.9156 5.32126 13.0171C5.38005 13.1325 5.38083 13.2834 5.38083 13.5854V14.9624C5.38083 15.2643 5.38005 15.4154 5.32126 15.5308C5.26951 15.6323 5.18742 15.7154 5.08591 15.7671C4.97046 15.8259 4.8188 15.8257 4.51657 15.8257H3.38864C3.16862 15.8257 3.05874 15.825 2.9902 15.7788C2.93031 15.7383 2.88904 15.6751 2.87595 15.604C2.86117 15.5227 2.90482 15.4217 2.99313 15.2202L3.40817 14.2739L2.99313 13.3276C2.90469 13.1258 2.86096 13.0243 2.87595 12.9429C2.88912 12.8719 2.93042 12.8095 2.9902 12.769C3.05873 12.7228 3.16854 12.7222 3.38864 12.7222H4.51657ZM16.3691 12.7222C16.5894 12.7222 16.7 12.7226 16.7685 12.769C16.828 12.8095 16.8687 12.8721 16.8818 12.9429C16.8968 13.0243 16.8531 13.1258 16.7646 13.3276L16.3496 14.2739L16.7646 15.2202C16.8529 15.4217 16.8966 15.5227 16.8818 15.604C16.8687 15.675 16.8282 15.7382 16.7685 15.7788C16.7 15.8252 16.5894 15.8257 16.3691 15.8257H15.2412C14.9389 15.8257 14.7873 15.8259 14.6718 15.7671C14.5703 15.7154 14.4882 15.6323 14.4365 15.5308C14.3777 15.4154 14.3779 15.2643 14.3779 14.9624V13.5854C14.3779 13.2834 14.3777 13.1325 14.4365 13.0171C14.4882 12.9156 14.5703 12.8325 14.6718 12.7808C14.7873 12.7219 14.9389 12.7222 15.2412 12.7222H16.3691Z" fill="url(#paint10_radial_10_21022)" fill-opacity="0.6" style="mix-blend-mode:overlay"/>
<path d="M4.51657 12.7222C4.81882 12.7222 4.97046 12.7219 5.08591 12.7808C5.18743 12.8325 5.26952 12.9156 5.32126 13.0171C5.38005 13.1325 5.38083 13.2834 5.38083 13.5854V14.9624C5.38083 15.2643 5.38005 15.4154 5.32126 15.5308C5.26951 15.6323 5.18742 15.7154 5.08591 15.7671C4.97046 15.8259 4.8188 15.8257 4.51657 15.8257H3.38864C3.16862 15.8257 3.05874 15.825 2.9902 15.7788C2.93031 15.7383 2.88904 15.6751 2.87595 15.604C2.86117 15.5227 2.90482 15.4217 2.99313 15.2202L3.40817 14.2739L2.99313 13.3276C2.90469 13.1258 2.86096 13.0243 2.87595 12.9429C2.88912 12.8719 2.93042 12.8095 2.9902 12.769C3.05873 12.7228 3.16854 12.7222 3.38864 12.7222H4.51657ZM16.3691 12.7222C16.5894 12.7222 16.7 12.7226 16.7685 12.769C16.828 12.8095 16.8687 12.8721 16.8818 12.9429C16.8968 13.0243 16.8531 13.1258 16.7646 13.3276L16.3496 14.2739L16.7646 15.2202C16.8529 15.4217 16.8966 15.5227 16.8818 15.604C16.8687 15.675 16.8282 15.7382 16.7685 15.7788C16.7 15.8252 16.5894 15.8257 16.3691 15.8257H15.2412C14.9389 15.8257 14.7873 15.8259 14.6718 15.7671C14.5703 15.7154 14.4882 15.6323 14.4365 15.5308C14.3777 15.4154 14.3779 15.2643 14.3779 14.9624V13.5854C14.3779 13.2834 14.3777 13.1325 14.4365 13.0171C14.4882 12.9156 14.5703 12.8325 14.6718 12.7808C14.7873 12.7219 14.9389 12.7222 15.2412 12.7222H16.3691Z" fill="black" fill-opacity="0.24" style="mix-blend-mode:overlay"/>
<path d="M4.51657 12.7222C4.81882 12.7222 4.97046 12.7219 5.08591 12.7808C5.18743 12.8325 5.26952 12.9156 5.32126 13.0171C5.38005 13.1325 5.38083 13.2834 5.38083 13.5854V14.9624C5.38083 15.2643 5.38005 15.4154 5.32126 15.5308C5.26951 15.6323 5.18742 15.7154 5.08591 15.7671C4.97046 15.8259 4.8188 15.8257 4.51657 15.8257H3.38864C3.16862 15.8257 3.05874 15.825 2.9902 15.7788C2.93031 15.7383 2.88904 15.6751 2.87595 15.604C2.86117 15.5227 2.90482 15.4217 2.99313 15.2202L3.40817 14.2739L2.99313 13.3276C2.90469 13.1258 2.86096 13.0243 2.87595 12.9429C2.88912 12.8719 2.93042 12.8095 2.9902 12.769C3.05873 12.7228 3.16854 12.7222 3.38864 12.7222H4.51657ZM16.3691 12.7222C16.5894 12.7222 16.7 12.7226 16.7685 12.769C16.828 12.8095 16.8687 12.8721 16.8818 12.9429C16.8968 13.0243 16.8531 13.1258 16.7646 13.3276L16.3496 14.2739L16.7646 15.2202C16.8529 15.4217 16.8966 15.5227 16.8818 15.604C16.8687 15.675 16.8282 15.7382 16.7685 15.7788C16.7 15.8252 16.5894 15.8257 16.3691 15.8257H15.2412C14.9389 15.8257 14.7873 15.8259 14.6718 15.7671C14.5703 15.7154 14.4882 15.6323 14.4365 15.5308C14.3777 15.4154 14.3779 15.2643 14.3779 14.9624V13.5854C14.3779 13.2834 14.3777 13.1325 14.4365 13.0171C14.4882 12.9156 14.5703 12.8325 14.6718 12.7808C14.7873 12.7219 14.9389 12.7222 15.2412 12.7222H16.3691Z" fill="black" fill-opacity="0.12" style="mix-blend-mode:darken"/>
<g filter="url(#filter4_dd_10_21022)">
<rect x="3.94238" y="11.9128" width="11.873" height="3.10317" rx="0.539683" fill="#FFA00F"/>
<rect x="3.95925" y="11.9297" width="11.8393" height="3.06944" rx="0.522817" stroke="url(#paint11_linear_10_21022)" stroke-width="0.0337302" stroke-linecap="round" style="mix-blend-mode:darken"/>
</g>
<rect x="3.94238" y="11.9128" width="11.873" height="3.10317" rx="0.539683" fill="url(#paint12_linear_10_21022)" fill-opacity="0.3" style="mix-blend-mode:overlay"/>
<rect x="3.94238" y="11.9128" width="11.873" height="3.10317" rx="0.539683" fill="url(#paint13_radial_10_21022)" fill-opacity="0.6" style="mix-blend-mode:overlay"/>
<g filter="url(#filter5_i_10_21022)">
<circle cx="4.68431" cy="13.4643" r="0.202381" fill="black" fill-opacity="0.24" style="mix-blend-mode:color-burn"/>
<circle cx="4.68431" cy="13.4643" r="0.202381" fill="black" fill-opacity="0.32" style="mix-blend-mode:darken"/>
</g>
<g filter="url(#filter6_i_10_21022)">
<circle cx="15.0735" cy="13.4643" r="0.202381" fill="black" fill-opacity="0.24" style="mix-blend-mode:color-burn"/>
<circle cx="15.0735" cy="13.4643" r="0.202381" fill="black" fill-opacity="0.32" style="mix-blend-mode:darken"/>
</g>
<g filter="url(#filter7_i_10_21022)">
<path d="M7.24431 12.1448H7.34146C7.3965 12.1448 7.43968 12.1318 7.47098 12.1059C7.50336 12.08 7.51955 12.0428 7.51955 11.9942C7.51955 11.9456 7.50444 11.9089 7.47422 11.8841C7.444 11.8593 7.40028 11.8469 7.34308 11.8469C7.32365 11.8469 7.30584 11.8474 7.28965 11.8485C7.27454 11.8496 7.25943 11.8512 7.24431 11.8534V12.1448ZM7.35765 12.3391H6.99984V11.7595C6.99984 11.7389 7.00577 11.7228 7.01765 11.7109C7.02952 11.699 7.04517 11.6898 7.0646 11.6834C7.10022 11.6704 7.14285 11.6612 7.1925 11.6558C7.24216 11.6504 7.28695 11.6477 7.32689 11.6477C7.4726 11.6477 7.5827 11.679 7.65717 11.7416C7.73273 11.8032 7.7705 11.8874 7.7705 11.9942C7.7705 12.0633 7.75377 12.1237 7.72031 12.1755C7.68793 12.2274 7.64098 12.2678 7.57946 12.297C7.51793 12.325 7.444 12.3391 7.35765 12.3391ZM6.99984 12.2306H7.24593V12.6532C7.23622 12.6564 7.22057 12.6591 7.19898 12.6613C7.17739 12.6645 7.15527 12.6661 7.1326 12.6661C7.08403 12.6661 7.04949 12.6575 7.02898 12.6402C7.00955 12.6229 6.99984 12.5927 6.99984 12.5495V12.2306ZM7.87109 11.9699H8.11718V12.6532C8.10747 12.6564 8.09182 12.6591 8.07023 12.6613C8.04864 12.6645 8.02652 12.6661 8.00385 12.6661C7.95528 12.6661 7.92074 12.6575 7.90023 12.6402C7.8808 12.6229 7.87109 12.5927 7.87109 12.5495V11.9699ZM8.11718 12.2808H7.87109V11.6704C7.88188 11.6682 7.89807 11.6655 7.91966 11.6623C7.94233 11.6591 7.96445 11.6575 7.98604 11.6575C8.03245 11.6575 8.06591 11.6655 8.08642 11.6817C8.10693 11.6979 8.11718 11.7287 8.11718 11.774V12.2808ZM9.23744 12.1626C9.23744 12.2748 9.21531 12.3698 9.17106 12.4475C9.12788 12.5242 9.06798 12.5825 8.99134 12.6224C8.91579 12.6623 8.82998 12.6823 8.73391 12.6823C8.63785 12.6823 8.55204 12.6623 8.47649 12.6224C8.40093 12.5825 8.34156 12.5242 8.29839 12.4475C8.25522 12.3698 8.23363 12.2748 8.23363 12.1626C8.23363 12.0503 8.25576 11.9559 8.30001 11.8793C8.34426 11.8015 8.40417 11.7433 8.47972 11.7044C8.55528 11.6645 8.64001 11.6445 8.73391 11.6445C8.8289 11.6445 8.91417 11.6645 8.98972 11.7044C9.06636 11.7433 9.1268 11.8015 9.17106 11.8793C9.21531 11.9559 9.23744 12.0503 9.23744 12.1626ZM8.98325 12.1626C8.98325 12.059 8.96058 11.9802 8.91525 11.9262C8.87099 11.8722 8.81055 11.8453 8.73391 11.8453C8.66052 11.8453 8.60115 11.8722 8.55582 11.9262C8.51049 11.9791 8.48782 12.0579 8.48782 12.1626C8.48782 12.2684 8.50995 12.3482 8.5542 12.4022C8.59953 12.4551 8.65998 12.4815 8.73553 12.4815C8.81109 12.4815 8.87099 12.4551 8.91525 12.4022C8.96058 12.3482 8.98325 12.2684 8.98325 12.1626ZM9.35271 11.9537L9.57613 11.9505C9.58045 11.9969 9.58369 12.0428 9.58585 12.0881C9.58801 12.1335 9.58909 12.1772 9.58909 12.2193C9.59017 12.2614 9.59071 12.3024 9.59071 12.3423V12.6548C9.58099 12.6569 9.56534 12.6591 9.54375 12.6613C9.52325 12.6645 9.5022 12.6661 9.48061 12.6661C9.43312 12.6661 9.39966 12.658 9.38023 12.6418C9.36188 12.6256 9.35271 12.5965 9.35271 12.5544V11.9537ZM10.2157 12.3698L9.99061 12.3715C9.98306 12.2927 9.97874 12.2176 9.97766 12.1464C9.97658 12.0752 9.97604 12.0072 9.97604 11.9424V11.6704C9.98683 11.6682 10.0025 11.6655 10.023 11.6623C10.0435 11.6591 10.0651 11.6575 10.0878 11.6575C10.1342 11.6575 10.1671 11.6661 10.1865 11.6834C10.2059 11.6995 10.2157 11.7282 10.2157 11.7692V12.3698ZM10.2157 12.2921V12.624C10.2016 12.637 10.1817 12.6472 10.1558 12.6548C10.1309 12.6634 10.1012 12.6677 10.0667 12.6677C10.03 12.6677 9.99547 12.6618 9.96309 12.6499C9.93179 12.6381 9.90588 12.6116 9.88537 12.5706L9.68947 12.1982C9.6776 12.1745 9.66572 12.1507 9.65385 12.127C9.64306 12.1032 9.63226 12.0795 9.62147 12.0557C9.61067 12.0309 9.59988 12.0061 9.58909 11.9813L9.35271 12.0347V11.7157C9.36566 11.6974 9.38563 11.6834 9.41261 11.6736C9.44067 11.6639 9.4709 11.6591 9.50328 11.6591C9.5389 11.6591 9.57236 11.665 9.60366 11.6769C9.63604 11.6888 9.66248 11.7147 9.68299 11.7546L9.88052 12.1286C9.89239 12.1513 9.90426 12.175 9.91613 12.1998C9.92801 12.2236 9.93934 12.2473 9.95013 12.2711C9.96093 12.2948 9.97118 12.3191 9.9809 12.3439L10.2157 12.2921ZM10.3789 11.9683H10.6185V12.6451C10.6088 12.6472 10.5937 12.6499 10.5732 12.6532C10.5538 12.6564 10.5327 12.658 10.51 12.658C10.4701 12.658 10.4383 12.6462 10.4145 12.6224C10.3908 12.5987 10.3789 12.5668 10.3789 12.5269V11.9683ZM10.6185 12.3601H10.3789V11.8048C10.3789 11.7638 10.3908 11.7319 10.4145 11.7093C10.4383 11.6855 10.4701 11.6736 10.51 11.6736C10.5327 11.6736 10.5538 11.6753 10.5732 11.6785C10.5937 11.6817 10.6088 11.6844 10.6185 11.6866V12.3601ZM10.51 12.2516V12.0574H10.999C11.0055 12.0682 11.0114 12.0816 11.0168 12.0978C11.0222 12.114 11.0249 12.1318 11.0249 12.1513C11.0249 12.1858 11.0168 12.2112 11.0006 12.2274C10.9855 12.2435 10.965 12.2516 10.9391 12.2516H10.51ZM10.51 12.658V12.4621H11.0524C11.0589 12.4718 11.0648 12.4853 11.0702 12.5026C11.0756 12.5199 11.0783 12.5382 11.0783 12.5576C11.0783 12.5922 11.0702 12.6175 11.054 12.6337C11.0389 12.6499 11.0184 12.658 10.9925 12.658H10.51ZM10.51 11.8679V11.6736H11.0443C11.0519 11.6834 11.0578 11.6963 11.0621 11.7125C11.0675 11.7287 11.0702 11.7465 11.0702 11.7659C11.0702 11.8005 11.0627 11.8264 11.0476 11.8436C11.0325 11.8598 11.0114 11.8679 10.9844 11.8679H10.51ZM11.1948 11.9683H11.4344V12.6451C11.4247 12.6472 11.4096 12.6499 11.3891 12.6532C11.3697 12.6564 11.3486 12.658 11.326 12.658C11.286 12.658 11.2542 12.6462 11.2304 12.6224C11.2067 12.5987 11.1948 12.5668 11.1948 12.5269V11.9683ZM11.4344 12.3601H11.1948V11.8048C11.1948 11.7638 11.2067 11.7319 11.2304 11.7093C11.2542 11.6855 11.286 11.6736 11.326 11.6736C11.3486 11.6736 11.3697 11.6753 11.3891 11.6785C11.4096 11.6817 11.4247 11.6844 11.4344 11.6866V12.3601ZM11.326 12.2516V12.0574H11.8149C11.8214 12.0682 11.8273 12.0816 11.8327 12.0978C11.8381 12.114 11.8408 12.1318 11.8408 12.1513C11.8408 12.1858 11.8327 12.2112 11.8165 12.2274C11.8014 12.2435 11.7809 12.2516 11.755 12.2516H11.326ZM11.326 12.658V12.4621H11.8683C11.8748 12.4718 11.8808 12.4853 11.8861 12.5026C11.8915 12.5199 11.8942 12.5382 11.8942 12.5576C11.8942 12.5922 11.8861 12.6175 11.87 12.6337C11.8548 12.6499 11.8343 12.658 11.8084 12.658H11.326ZM11.326 11.8679V11.6736H11.8602C11.8678 11.6834 11.8737 11.6963 11.8781 11.7125C11.8835 11.7287 11.8861 11.7465 11.8861 11.7659C11.8861 11.8005 11.8786 11.8264 11.8635 11.8436C11.8484 11.8598 11.8273 11.8679 11.8003 11.8679H11.326ZM12.2552 12.1335H12.3604C12.4144 12.1335 12.4576 12.1216 12.49 12.0978C12.5234 12.073 12.5402 12.0368 12.5402 11.9894C12.5402 11.9429 12.5245 11.9079 12.4932 11.8841C12.4619 11.8593 12.4139 11.8469 12.3491 11.8469C12.3308 11.8469 12.314 11.8474 12.2989 11.8485C12.2838 11.8496 12.2692 11.8517 12.2552 11.855V12.1335ZM12.3831 12.3245H12.0107V11.7595C12.0107 11.7389 12.0167 11.7228 12.0285 11.7109C12.0404 11.699 12.0561 11.6898 12.0755 11.6834C12.1111 11.6704 12.1527 11.6612 12.2002 11.6558C12.2487 11.6504 12.2989 11.6477 12.3507 11.6477C12.4964 11.6477 12.606 11.6785 12.6794 11.74C12.7528 11.8005 12.7895 11.883 12.7895 11.9877C12.7895 12.0525 12.7717 12.1108 12.7361 12.1626C12.7015 12.2133 12.6535 12.2533 12.592 12.2824C12.5315 12.3105 12.4619 12.3245 12.3831 12.3245ZM12.3378 12.2662L12.558 12.2144C12.5828 12.2489 12.6082 12.2829 12.6341 12.3164C12.661 12.3499 12.6864 12.3822 12.7102 12.4135C12.735 12.4448 12.7571 12.474 12.7765 12.501C12.796 12.5269 12.8116 12.549 12.8235 12.5674C12.8138 12.5997 12.7965 12.6251 12.7717 12.6435C12.7469 12.6607 12.7188 12.6694 12.6875 12.6694C12.6476 12.6694 12.6168 12.6607 12.5952 12.6435C12.5747 12.6251 12.5553 12.6014 12.5369 12.5722L12.3378 12.2662ZM12.0107 12.2322H12.2568V12.6532C12.2471 12.6564 12.2315 12.6591 12.2099 12.6613C12.1883 12.6645 12.1662 12.6661 12.1435 12.6661C12.0949 12.6661 12.0604 12.6575 12.0399 12.6402C12.0204 12.6229 12.0107 12.5927 12.0107 12.5495V12.2322Z" fill="black" fill-opacity="0.24" style="mix-blend-mode:color-burn"/>
<path d="M7.24431 12.1448H7.34146C7.3965 12.1448 7.43968 12.1318 7.47098 12.1059C7.50336 12.08 7.51955 12.0428 7.51955 11.9942C7.51955 11.9456 7.50444 11.9089 7.47422 11.8841C7.444 11.8593 7.40028 11.8469 7.34308 11.8469C7.32365 11.8469 7.30584 11.8474 7.28965 11.8485C7.27454 11.8496 7.25943 11.8512 7.24431 11.8534V12.1448ZM7.35765 12.3391H6.99984V11.7595C6.99984 11.7389 7.00577 11.7228 7.01765 11.7109C7.02952 11.699 7.04517 11.6898 7.0646 11.6834C7.10022 11.6704 7.14285 11.6612 7.1925 11.6558C7.24216 11.6504 7.28695 11.6477 7.32689 11.6477C7.4726 11.6477 7.5827 11.679 7.65717 11.7416C7.73273 11.8032 7.7705 11.8874 7.7705 11.9942C7.7705 12.0633 7.75377 12.1237 7.72031 12.1755C7.68793 12.2274 7.64098 12.2678 7.57946 12.297C7.51793 12.325 7.444 12.3391 7.35765 12.3391ZM6.99984 12.2306H7.24593V12.6532C7.23622 12.6564 7.22057 12.6591 7.19898 12.6613C7.17739 12.6645 7.15527 12.6661 7.1326 12.6661C7.08403 12.6661 7.04949 12.6575 7.02898 12.6402C7.00955 12.6229 6.99984 12.5927 6.99984 12.5495V12.2306ZM7.87109 11.9699H8.11718V12.6532C8.10747 12.6564 8.09182 12.6591 8.07023 12.6613C8.04864 12.6645 8.02652 12.6661 8.00385 12.6661C7.95528 12.6661 7.92074 12.6575 7.90023 12.6402C7.8808 12.6229 7.87109 12.5927 7.87109 12.5495V11.9699ZM8.11718 12.2808H7.87109V11.6704C7.88188 11.6682 7.89807 11.6655 7.91966 11.6623C7.94233 11.6591 7.96445 11.6575 7.98604 11.6575C8.03245 11.6575 8.06591 11.6655 8.08642 11.6817C8.10693 11.6979 8.11718 11.7287 8.11718 11.774V12.2808ZM9.23744 12.1626C9.23744 12.2748 9.21531 12.3698 9.17106 12.4475C9.12788 12.5242 9.06798 12.5825 8.99134 12.6224C8.91579 12.6623 8.82998 12.6823 8.73391 12.6823C8.63785 12.6823 8.55204 12.6623 8.47649 12.6224C8.40093 12.5825 8.34156 12.5242 8.29839 12.4475C8.25522 12.3698 8.23363 12.2748 8.23363 12.1626C8.23363 12.0503 8.25576 11.9559 8.30001 11.8793C8.34426 11.8015 8.40417 11.7433 8.47972 11.7044C8.55528 11.6645 8.64001 11.6445 8.73391 11.6445C8.8289 11.6445 8.91417 11.6645 8.98972 11.7044C9.06636 11.7433 9.1268 11.8015 9.17106 11.8793C9.21531 11.9559 9.23744 12.0503 9.23744 12.1626ZM8.98325 12.1626C8.98325 12.059 8.96058 11.9802 8.91525 11.9262C8.87099 11.8722 8.81055 11.8453 8.73391 11.8453C8.66052 11.8453 8.60115 11.8722 8.55582 11.9262C8.51049 11.9791 8.48782 12.0579 8.48782 12.1626C8.48782 12.2684 8.50995 12.3482 8.5542 12.4022C8.59953 12.4551 8.65998 12.4815 8.73553 12.4815C8.81109 12.4815 8.87099 12.4551 8.91525 12.4022C8.96058 12.3482 8.98325 12.2684 8.98325 12.1626ZM9.35271 11.9537L9.57613 11.9505C9.58045 11.9969 9.58369 12.0428 9.58585 12.0881C9.58801 12.1335 9.58909 12.1772 9.58909 12.2193C9.59017 12.2614 9.59071 12.3024 9.59071 12.3423V12.6548C9.58099 12.6569 9.56534 12.6591 9.54375 12.6613C9.52325 12.6645 9.5022 12.6661 9.48061 12.6661C9.43312 12.6661 9.39966 12.658 9.38023 12.6418C9.36188 12.6256 9.35271 12.5965 9.35271 12.5544V11.9537ZM10.2157 12.3698L9.99061 12.3715C9.98306 12.2927 9.97874 12.2176 9.97766 12.1464C9.97658 12.0752 9.97604 12.0072 9.97604 11.9424V11.6704C9.98683 11.6682 10.0025 11.6655 10.023 11.6623C10.0435 11.6591 10.0651 11.6575 10.0878 11.6575C10.1342 11.6575 10.1671 11.6661 10.1865 11.6834C10.2059 11.6995 10.2157 11.7282 10.2157 11.7692V12.3698ZM10.2157 12.2921V12.624C10.2016 12.637 10.1817 12.6472 10.1558 12.6548C10.1309 12.6634 10.1012 12.6677 10.0667 12.6677C10.03 12.6677 9.99547 12.6618 9.96309 12.6499C9.93179 12.6381 9.90588 12.6116 9.88537 12.5706L9.68947 12.1982C9.6776 12.1745 9.66572 12.1507 9.65385 12.127C9.64306 12.1032 9.63226 12.0795 9.62147 12.0557C9.61067 12.0309 9.59988 12.0061 9.58909 11.9813L9.35271 12.0347V11.7157C9.36566 11.6974 9.38563 11.6834 9.41261 11.6736C9.44067 11.6639 9.4709 11.6591 9.50328 11.6591C9.5389 11.6591 9.57236 11.665 9.60366 11.6769C9.63604 11.6888 9.66248 11.7147 9.68299 11.7546L9.88052 12.1286C9.89239 12.1513 9.90426 12.175 9.91613 12.1998C9.92801 12.2236 9.93934 12.2473 9.95013 12.2711C9.96093 12.2948 9.97118 12.3191 9.9809 12.3439L10.2157 12.2921ZM10.3789 11.9683H10.6185V12.6451C10.6088 12.6472 10.5937 12.6499 10.5732 12.6532C10.5538 12.6564 10.5327 12.658 10.51 12.658C10.4701 12.658 10.4383 12.6462 10.4145 12.6224C10.3908 12.5987 10.3789 12.5668 10.3789 12.5269V11.9683ZM10.6185 12.3601H10.3789V11.8048C10.3789 11.7638 10.3908 11.7319 10.4145 11.7093C10.4383 11.6855 10.4701 11.6736 10.51 11.6736C10.5327 11.6736 10.5538 11.6753 10.5732 11.6785C10.5937 11.6817 10.6088 11.6844 10.6185 11.6866V12.3601ZM10.51 12.2516V12.0574H10.999C11.0055 12.0682 11.0114 12.0816 11.0168 12.0978C11.0222 12.114 11.0249 12.1318 11.0249 12.1513C11.0249 12.1858 11.0168 12.2112 11.0006 12.2274C10.9855 12.2435 10.965 12.2516 10.9391 12.2516H10.51ZM10.51 12.658V12.4621H11.0524C11.0589 12.4718 11.0648 12.4853 11.0702 12.5026C11.0756 12.5199 11.0783 12.5382 11.0783 12.5576C11.0783 12.5922 11.0702 12.6175 11.054 12.6337C11.0389 12.6499 11.0184 12.658 10.9925 12.658H10.51ZM10.51 11.8679V11.6736H11.0443C11.0519 11.6834 11.0578 11.6963 11.0621 11.7125C11.0675 11.7287 11.0702 11.7465 11.0702 11.7659C11.0702 11.8005 11.0627 11.8264 11.0476 11.8436C11.0325 11.8598 11.0114 11.8679 10.9844 11.8679H10.51ZM11.1948 11.9683H11.4344V12.6451C11.4247 12.6472 11.4096 12.6499 11.3891 12.6532C11.3697 12.6564 11.3486 12.658 11.326 12.658C11.286 12.658 11.2542 12.6462 11.2304 12.6224C11.2067 12.5987 11.1948 12.5668 11.1948 12.5269V11.9683ZM11.4344 12.3601H11.1948V11.8048C11.1948 11.7638 11.2067 11.7319 11.2304 11.7093C11.2542 11.6855 11.286 11.6736 11.326 11.6736C11.3486 11.6736 11.3697 11.6753 11.3891 11.6785C11.4096 11.6817 11.4247 11.6844 11.4344 11.6866V12.3601ZM11.326 12.2516V12.0574H11.8149C11.8214 12.0682 11.8273 12.0816 11.8327 12.0978C11.8381 12.114 11.8408 12.1318 11.8408 12.1513C11.8408 12.1858 11.8327 12.2112 11.8165 12.2274C11.8014 12.2435 11.7809 12.2516 11.755 12.2516H11.326ZM11.326 12.658V12.4621H11.8683C11.8748 12.4718 11.8808 12.4853 11.8861 12.5026C11.8915 12.5199 11.8942 12.5382 11.8942 12.5576C11.8942 12.5922 11.8861 12.6175 11.87 12.6337C11.8548 12.6499 11.8343 12.658 11.8084 12.658H11.326ZM11.326 11.8679V11.6736H11.8602C11.8678 11.6834 11.8737 11.6963 11.8781 11.7125C11.8835 11.7287 11.8861 11.7465 11.8861 11.7659C11.8861 11.8005 11.8786 11.8264 11.8635 11.8436C11.8484 11.8598 11.8273 11.8679 11.8003 11.8679H11.326ZM12.2552 12.1335H12.3604C12.4144 12.1335 12.4576 12.1216 12.49 12.0978C12.5234 12.073 12.5402 12.0368 12.5402 11.9894C12.5402 11.9429 12.5245 11.9079 12.4932 11.8841C12.4619 11.8593 12.4139 11.8469 12.3491 11.8469C12.3308 11.8469 12.314 11.8474 12.2989 11.8485C12.2838 11.8496 12.2692 11.8517 12.2552 11.855V12.1335ZM12.3831 12.3245H12.0107V11.7595C12.0107 11.7389 12.0167 11.7228 12.0285 11.7109C12.0404 11.699 12.0561 11.6898 12.0755 11.6834C12.1111 11.6704 12.1527 11.6612 12.2002 11.6558C12.2487 11.6504 12.2989 11.6477 12.3507 11.6477C12.4964 11.6477 12.606 11.6785 12.6794 11.74C12.7528 11.8005 12.7895 11.883 12.7895 11.9877C12.7895 12.0525 12.7717 12.1108 12.7361 12.1626C12.7015 12.2133 12.6535 12.2533 12.592 12.2824C12.5315 12.3105 12.4619 12.3245 12.3831 12.3245ZM12.3378 12.2662L12.558 12.2144C12.5828 12.2489 12.6082 12.2829 12.6341 12.3164C12.661 12.3499 12.6864 12.3822 12.7102 12.4135C12.735 12.4448 12.7571 12.474 12.7765 12.501C12.796 12.5269 12.8116 12.549 12.8235 12.5674C12.8138 12.5997 12.7965 12.6251 12.7717 12.6435C12.7469 12.6607 12.7188 12.6694 12.6875 12.6694C12.6476 12.6694 12.6168 12.6607 12.5952 12.6435C12.5747 12.6251 12.5553 12.6014 12.5369 12.5722L12.3378 12.2662ZM12.0107 12.2322H12.2568V12.6532C12.2471 12.6564 12.2315 12.6591 12.2099 12.6613C12.1883 12.6645 12.1662 12.6661 12.1435 12.6661C12.0949 12.6661 12.0604 12.6575 12.0399 12.6402C12.0204 12.6229 12.0107 12.5927 12.0107 12.5495V12.2322Z" fill="black" fill-opacity="0.32" style="mix-blend-mode:darken"/>
</g>
<defs>
<filter id="filter0_dddd_10_21022" x="1.42713" y="2.522" width="16.9397" height="22.2391" filterUnits="userSpaceOnUse" color-interpolation-filters="sRGB">
<feFlood flood-opacity="0" result="BackgroundImageFix"/>
<feColorMatrix in="SourceAlpha" type="matrix" values="0 0 0 0 0 0 0 0 0 0 0 0 0 0 0 0 0 0 127 0" result="hardAlpha"/>
<feOffset dy="0.337302"/>
<feGaussianBlur stdDeviation="0.371032"/>
<feColorMatrix type="matrix" values="0 0 0 0 0 0 0 0 0 0 0 0 0 0 0 0 0 0 0.24 0"/>
<feBlend mode="normal" in2="BackgroundImageFix" result="effect1_dropShadow_10_21022"/>
<feColorMatrix in="SourceAlpha" type="matrix" values="0 0 0 0 0 0 0 0 0 0 0 0 0 0 0 0 0 0 127 0" result="hardAlpha"/>
<feOffset dy="1.41667"/>
<feGaussianBlur stdDeviation="0.708333"/>
<feColorMatrix type="matrix" values="0 0 0 0 0 0 0 0 0 0 0 0 0 0 0 0 0 0 0.21 0"/>
<feBlend mode="normal" in2="effect1_dropShadow_10_21022" result="effect2_dropShadow_10_21022"/>
<feColorMatrix in="SourceAlpha" type="matrix" values="0 0 0 0 0 0 0 0 0 0 0 0 0 0 0 0 0 0 127 0" result="hardAlpha"/>
<feOffset dy="3.10317"/>
<feGaussianBlur stdDeviation="0.944444"/>
<feColorMatrix type="matrix" values="0 0 0 0 0 0 0 0 0 0 0 0 0 0 0 0 0 0 0.12 0"/>
<feBlend mode="normal" in2="effect2_dropShadow_10_21022" result="effect3_dropShadow_10_21022"/>
<feColorMatrix in="SourceAlpha" type="matrix" values="0 0 0 0 0 0 0 0 0 0 0 0 0 0 0 0 0 0 127 0" result="hardAlpha"/>
<feOffset dy="5.53175"/>
<feGaussianBlur stdDeviation="1.1131"/>
<feColorMatrix type="matrix" values="0 0 0 0 0 0 0 0 0 0 0 0 0 0 0 0 0 0 0.04 0"/>
<feBlend mode="normal" in2="effect3_dropShadow_10_21022" result="effect4_dropShadow_10_21022"/>
<feBlend mode="normal" in="SourceGraphic" in2="effect4_dropShadow_10_21022" result="shape"/>
</filter>
<filter id="filter1_d_10_21022" x="3.11266" y="2.522" width="13.5667" height="15.156" filterUnits="userSpaceOnUse" color-interpolation-filters="sRGB">
<feFlood flood-opacity="0" result="BackgroundImageFix"/>
<feColorMatrix in="SourceAlpha" type="matrix" values="0 0 0 0 0 0 0 0 0 0 0 0 0 0 0 0 0 0 127 0" result="hardAlpha"/>
<feOffset dy="0.134921"/>
<feGaussianBlur stdDeviation="0.269841"/>
<feColorMatrix type="matrix" values="0 0 0 0 0 0 0 0 0 0 0 0 0 0 0 0 0 0 0.16 0"/>
<feBlend mode="color-burn" in2="BackgroundImageFix" result="effect1_dropShadow_10_21022"/>
<feBlend mode="normal" in="SourceGraphic" in2="effect1_dropShadow_10_21022" result="shape"/>
</filter>
<filter id="filter2_d_10_21022" x="6.40532" y="5.88082" width="6.94815" height="6.67862" filterUnits="userSpaceOnUse" color-interpolation-filters="sRGB">
<feFlood flood-opacity="0" result="BackgroundImageFix"/>
<feColorMatrix in="SourceAlpha" type="matrix" values="0 0 0 0 0 0 0 0 0 0 0 0 0 0 0 0 0 0 127 0" result="hardAlpha"/>
<feOffset dy="0.134921"/>
<feGaussianBlur stdDeviation="0.404762"/>
<feColorMatrix type="matrix" values="0 0 0 0 0 0 0 0 0 0 0 0 0 0 0 0 0 0 0.12 0"/>
<feBlend mode="plus-darker" in2="BackgroundImageFix" result="effect1_dropShadow_10_21022"/>
<feBlend mode="normal" in="SourceGraphic" in2="effect1_dropShadow_10_21022" result="shape"/>
</filter>
<filter id="filter3_dd_10_21022" x="2.06352" y="12.1825" width="15.6308" height="4.72256" filterUnits="userSpaceOnUse" color-interpolation-filters="sRGB">
<feFlood flood-opacity="0" result="BackgroundImageFix"/>
<feColorMatrix in="SourceAlpha" type="matrix" values="0 0 0 0 0 0 0 0 0 0 0 0 0 0 0 0 0 0 127 0" result="hardAlpha"/>
<feOffset dy="0.269841"/>
<feGaussianBlur stdDeviation="0.404762"/>
<feColorMatrix type="matrix" values="0 0 0 0 0 0 0 0 0 0 0 0 0 0 0 0 0 0 0.16 0"/>
<feBlend mode="normal" in2="BackgroundImageFix" result="effect1_dropShadow_10_21022"/>
<feColorMatrix in="SourceAlpha" type="matrix" values="0 0 0 0 0 0 0 0 0 0 0 0 0 0 0 0 0 0 127 0" result="hardAlpha"/>
<feOffset dy="0.134921"/>
<feGaussianBlur stdDeviation="0.134921"/>
<feColorMatrix type="matrix" values="0 0 0 0 0 0 0 0 0 0 0 0 0 0 0 0 0 0 0.24 0"/>
<feBlend mode="normal" in2="effect1_dropShadow_10_21022" result="effect2_dropShadow_10_21022"/>
<feBlend mode="normal" in="SourceGraphic" in2="effect2_dropShadow_10_21022" result="shape"/>
</filter>
<filter id="filter4_dd_10_21022" x="3.13286" y="11.3732" width="13.4921" height="4.72232" filterUnits="userSpaceOnUse" color-interpolation-filters="sRGB">
<feFlood flood-opacity="0" result="BackgroundImageFix"/>
<feColorMatrix in="SourceAlpha" type="matrix" values="0 0 0 0 0 0 0 0 0 0 0 0 0 0 0 0 0 0 127 0" result="hardAlpha"/>
<feOffset dy="0.269841"/>
<feGaussianBlur stdDeviation="0.404762"/>
<feColorMatrix type="matrix" values="0 0 0 0 0 0 0 0 0 0 0 0 0 0 0 0 0 0 0.16 0"/>
<feBlend mode="normal" in2="BackgroundImageFix" result="effect1_dropShadow_10_21022"/>
<feColorMatrix in="SourceAlpha" type="matrix" values="0 0 0 0 0 0 0 0 0 0 0 0 0 0 0 0 0 0 127 0" result="hardAlpha"/>
<feOffset dy="0.134921"/>
<feGaussianBlur stdDeviation="0.134921"/>
<feColorMatrix type="matrix" values="0 0 0 0 0 0 0 0 0 0 0 0 0 0 0 0 0 0 0.24 0"/>
<feBlend mode="normal" in2="effect1_dropShadow_10_21022" result="effect2_dropShadow_10_21022"/>
<feBlend mode="normal" in="SourceGraphic" in2="effect2_dropShadow_10_21022" result="shape"/>
</filter>
<filter id="filter5_i_10_21022" x="4.48193" y="13.262" width="0.404785" height="0.472245" filterUnits="userSpaceOnUse" color-interpolation-filters="sRGB">
<feFlood flood-opacity="0" result="BackgroundImageFix"/>
<feBlend mode="normal" in="SourceGraphic" in2="BackgroundImageFix" result="shape"/>
<feColorMatrix in="SourceAlpha" type="matrix" values="0 0 0 0 0 0 0 0 0 0 0 0 0 0 0 0 0 0 127 0" result="hardAlpha"/>
<feOffset dy="0.0674603"/>
<feGaussianBlur stdDeviation="0.0674603"/>
<feComposite in2="hardAlpha" operator="arithmetic" k2="-1" k3="1"/>
<feColorMatrix type="matrix" values="0 0 0 0 0 0 0 0 0 0 0 0 0 0 0 0 0 0 0.24 0"/>
<feBlend mode="darken" in2="shape" result="effect1_innerShadow_10_21022"/>
</filter>
<filter id="filter6_i_10_21022" x="14.8711" y="13.262" width="0.404785" height="0.472245" filterUnits="userSpaceOnUse" color-interpolation-filters="sRGB">
<feFlood flood-opacity="0" result="BackgroundImageFix"/>
<feBlend mode="normal" in="SourceGraphic" in2="BackgroundImageFix" result="shape"/>
<feColorMatrix in="SourceAlpha" type="matrix" values="0 0 0 0 0 0 0 0 0 0 0 0 0 0 0 0 0 0 127 0" result="hardAlpha"/>
<feOffset dy="0.0674603"/>
<feGaussianBlur stdDeviation="0.0674603"/>
<feComposite in2="hardAlpha" operator="arithmetic" k2="-1" k3="1"/>
<feColorMatrix type="matrix" values="0 0 0 0 0 0 0 0 0 0 0 0 0 0 0 0 0 0 0.24 0"/>
<feBlend mode="darken" in2="shape" result="effect1_innerShadow_10_21022"/>
</filter>
<filter id="filter7_i_10_21022" x="7" y="11.6445" width="5.82373" height="1.1053" filterUnits="userSpaceOnUse" color-interpolation-filters="sRGB">
<feFlood flood-opacity="0" result="BackgroundImageFix"/>
<feBlend mode="normal" in="SourceGraphic" in2="BackgroundImageFix" result="shape"/>
<feColorMatrix in="SourceAlpha" type="matrix" values="0 0 0 0 0 0 0 0 0 0 0 0 0 0 0 0 0 0 127 0" result="hardAlpha"/>
<feOffset dy="0.0674603"/>
<feGaussianBlur stdDeviation="0.0674603"/>
<feComposite in2="hardAlpha" operator="arithmetic" k2="-1" k3="1"/>
<feColorMatrix type="matrix" values="0 0 0 0 0 0 0 0 0 0 0 0 0 0 0 0 0 0 0.24 0"/>
<feBlend mode="darken" in2="shape" result="effect1_innerShadow_10_21022"/>
</filter>
<linearGradient id="paint0_linear_10_21022" x1="9.88878" y1="2.58499" x2="9.88878" y2="17.0951" gradientUnits="userSpaceOnUse">
<stop stop-color="white"/>
<stop offset="1" stop-color="white" stop-opacity="0"/>
</linearGradient>
<radialGradient id="paint1_radial_10_21022" cx="0" cy="0" r="1" gradientUnits="userSpaceOnUse" gradientTransform="translate(9.88878 6.7528) rotate(90) scale(9.57052 7.26134)">
<stop stop-color="white"/>
<stop offset="1" stop-color="white" stop-opacity="0"/>
</radialGradient>
<linearGradient id="paint2_linear_10_21022" x1="16.1024" y1="3.18508" x2="16.1024" y2="17.012" gradientUnits="userSpaceOnUse">
<stop stop-color="#49F0BC"/>
<stop offset="1" stop-color="#29DCCC"/>
</linearGradient>
<linearGradient id="paint3_linear_10_21022" x1="9.8214" y1="2.58475" x2="9.82139" y2="17.0949" gradientUnits="userSpaceOnUse">
<stop stop-color="white"/>
<stop offset="1" stop-color="white" stop-opacity="0"/>
</linearGradient>
<radialGradient id="paint4_radial_10_21022" cx="0" cy="0" r="1" gradientUnits="userSpaceOnUse" gradientTransform="translate(9.8214 6.75255) rotate(90) scale(9.57052 7.26134)">
<stop stop-color="white"/>
<stop offset="1" stop-color="white" stop-opacity="0"/>
</radialGradient>
<linearGradient id="paint5_linear_10_21022" x1="0.444336" y1="0.44458" x2="0.444336" y2="19.3335" gradientUnits="userSpaceOnUse">
<stop stop-color="white"/>
<stop offset="1" stop-color="white" stop-opacity="0.01"/>
</linearGradient>
<linearGradient id="paint6_linear_10_21022" x1="9.89599" y1="2.92676" x2="9.89599" y2="17.0031" gradientUnits="userSpaceOnUse">
<stop stop-color="white"/>
<stop offset="1" stop-color="#999999"/>
</linearGradient>
<linearGradient id="paint7_linear_10_21022" x1="9.87949" y1="6.58911" x2="9.87949" y2="11.5812" gradientUnits="userSpaceOnUse">
<stop stop-color="#DFDFDF"/>
<stop offset="1" stop-color="#A9A9A9"/>
</linearGradient>
<linearGradient id="paint8_linear_10_21022" x1="9.87887" y1="12.7222" x2="9.87887" y2="15.8257" gradientUnits="userSpaceOnUse">
<stop stop-opacity="0"/>
<stop offset="1" stop-opacity="0.16"/>
</linearGradient>
<linearGradient id="paint9_linear_10_21022" x1="9.87888" y1="11.1704" x2="9.87888" y2="15.8257" gradientUnits="userSpaceOnUse">
<stop stop-color="white"/>
<stop offset="1" stop-color="white" stop-opacity="0"/>
</linearGradient>
<radialGradient id="paint10_radial_10_21022" cx="0" cy="0" r="1" gradientUnits="userSpaceOnUse" gradientTransform="translate(9.87888 12.7222) rotate(90) scale(3.10352 13.0341)">
<stop stop-color="white"/>
<stop offset="1" stop-color="white" stop-opacity="0"/>
</radialGradient>
<linearGradient id="paint11_linear_10_21022" x1="9.87889" y1="11.9128" x2="9.87889" y2="15.016" gradientUnits="userSpaceOnUse">
<stop stop-opacity="0"/>
<stop offset="1" stop-opacity="0.16"/>
</linearGradient>
<linearGradient id="paint12_linear_10_21022" x1="9.87889" y1="11.9128" x2="9.87889" y2="15.016" gradientUnits="userSpaceOnUse">
<stop stop-color="white"/>
<stop offset="1" stop-color="white" stop-opacity="0"/>
</linearGradient>
<radialGradient id="paint13_radial_10_21022" cx="0" cy="0" r="1" gradientUnits="userSpaceOnUse" gradientTransform="translate(9.87889 12.4544) rotate(90) scale(2.56166 5.93651)">
<stop stop-color="white"/>
<stop offset="1" stop-color="white" stop-opacity="0"/>
</radialGradient>
</defs>
</svg>
