<svg width="128" height="152" viewBox="0 0 128 152" fill="none" xmlns="http://www.w3.org/2000/svg">
<g filter="url(#filter0_dddd_10_12030)">
<path d="M21.8176 31.961C21.704 28.844 21.6472 27.2856 22.2431 25.6256C22.7543 24.202 23.6944 22.8242 24.8336 21.8291C26.1619 20.6689 28.0908 19.9934 31.9487 18.6424C40.1572 15.7679 48.0763 11.9129 55.5427 7.43365C58.9364 5.39771 60.6333 4.37975 62.0937 4.05907C63.5437 3.74068 64.5654 3.74068 66.0154 4.05907C67.4758 4.37975 69.1727 5.39771 72.5664 7.43365C80.0328 11.9129 87.9519 15.7679 96.1604 18.6424C100.018 19.9934 101.947 20.6689 103.275 21.8291C104.415 22.8242 105.355 24.202 105.866 25.6256C106.462 27.2856 106.405 28.844 106.291 31.961C105.968 40.8312 104.367 54.014 98.5154 65.9125C90.7987 81.6032 77.9103 91.8954 70.273 96.9654C68.5963 98.0784 67.758 98.6349 66.1782 99.0122C65.083 99.2738 63.0261 99.2738 61.9309 99.0122C60.3511 98.6349 59.5128 98.0784 57.8361 96.9654C50.1987 91.8954 37.3104 81.6032 29.5937 65.9125C23.742 54.014 22.1409 40.8312 21.8176 31.961Z" fill="black"/>
</g>
<mask id="mask0_10_12030" style="mask-type:alpha" maskUnits="userSpaceOnUse" x="21" y="3" width="86" height="97">
<path d="M21.8176 31.961C21.704 28.844 21.6472 27.2856 22.2431 25.6256C22.7543 24.202 23.6944 22.8242 24.8336 21.8291C26.1619 20.6689 28.0908 19.9934 31.9487 18.6424C40.1572 15.7679 48.0763 11.9129 55.5427 7.43365C58.9364 5.39771 60.6333 4.37975 62.0937 4.05907C63.5437 3.74068 64.5654 3.74068 66.0154 4.05907C67.4758 4.37975 69.1727 5.39771 72.5664 7.43365C80.0328 11.9129 87.9519 15.7679 96.1604 18.6424C100.018 19.9934 101.947 20.6689 103.275 21.8291C104.415 22.8242 105.355 24.202 105.866 25.6256C106.462 27.2856 106.405 28.844 106.291 31.961C105.968 40.8312 104.367 54.014 98.5154 65.9125C90.7987 81.6032 77.9103 91.8954 70.273 96.9654C68.5963 98.0784 67.758 98.6349 66.1782 99.0122C65.083 99.2738 63.0261 99.2738 61.9309 99.0122C60.3511 98.6349 59.5128 98.0784 57.8361 96.9654C50.1987 91.8954 37.3104 81.6032 29.5937 65.9125C23.742 54.014 22.1409 40.8312 21.8176 31.961Z" fill="black"/>
</mask>
<g mask="url(#mask0_10_12030)">
<mask id="mask1_10_12030" style="mask-type:alpha" maskUnits="userSpaceOnUse" x="21" y="3" width="86" height="97">
<path d="M21.8176 31.961C21.704 28.844 21.6472 27.2856 22.2431 25.6256C22.7543 24.202 23.6944 22.8242 24.8336 21.8291C26.1619 20.6689 28.0908 19.9934 31.9487 18.6424C40.1572 15.7679 48.0763 11.9129 55.5427 7.43365C58.9364 5.39771 60.6333 4.37975 62.0937 4.05907C63.5437 3.74068 64.5654 3.74068 66.0154 4.05907C67.4758 4.37975 69.1727 5.39771 72.5664 7.43365C80.0328 11.9129 87.9519 15.7679 96.1604 18.6424C100.018 19.9934 101.947 20.6689 103.275 21.8291C104.415 22.8242 105.355 24.202 105.866 25.6256C106.462 27.2856 106.405 28.844 106.291 31.961C105.968 40.8312 104.367 54.014 98.5154 65.9125C90.7987 81.6032 77.9103 91.8954 70.273 96.9654C68.5963 98.0784 67.758 98.6349 66.1782 99.0122C65.083 99.2738 63.0261 99.2738 61.9309 99.0122C60.3511 98.6349 59.5128 98.0784 57.8361 96.9654C50.1987 91.8954 37.3104 81.6032 29.5937 65.9125C23.742 54.014 22.1409 40.8312 21.8176 31.961Z" fill="black"/>
</mask>
<g mask="url(#mask1_10_12030)">
<rect y="-13" width="128" height="128" fill="#2E3E92"/>
<rect y="-13" width="128" height="128" fill="url(#paint0_linear_10_12030)" fill-opacity="0.6" style="mix-blend-mode:overlay"/>
<rect y="-13" width="128" height="128" fill="url(#paint1_radial_10_12030)" fill-opacity="0.6" style="mix-blend-mode:overlay"/>
<rect y="-13" width="128" height="128" fill="black" fill-opacity="0.16" style="mix-blend-mode:overlay"/>
<rect y="-13" width="128" height="128" fill="black" fill-opacity="0.12" style="mix-blend-mode:darken"/>
</g>
<g filter="url(#filter1_d_10_12030)">
<mask id="mask2_10_12030" style="mask-type:alpha" maskUnits="userSpaceOnUse" x="21" y="3" width="86" height="97">
<path d="M62.0943 4.05895C63.5437 3.74079 64.5658 3.74075 66.0152 4.05895C67.4756 4.37972 69.1736 5.39818 72.567 7.43395C80.0333 11.9131 87.9523 15.7685 96.1607 18.6429C100.018 19.9938 101.948 20.6693 103.276 21.8295C104.415 22.8245 105.355 24.2028 105.866 25.6263C106.462 27.2861 106.405 28.8446 106.292 31.9613C105.968 40.8313 104.368 54.0142 98.5162 65.9125L98.15 66.6439C90.3974 81.9233 77.7911 91.9753 70.273 96.9662L69.148 97.7025C68.1312 98.346 67.3627 98.7292 66.1783 99.0121C65.1516 99.2572 63.2794 99.2735 62.147 99.0589L61.9312 99.0121C60.7466 98.7292 59.9784 98.3461 58.9615 97.7025L57.8365 96.9662C50.3184 91.9754 37.7123 81.9236 29.9595 66.6439L29.5943 65.9125C24.1083 54.7575 22.3578 42.4739 21.8941 33.6732L21.8179 31.9613C21.7114 29.0396 21.655 27.4871 22.1392 25.9369L22.2437 25.6263C22.7229 24.2919 23.579 22.9973 24.6226 22.0209L24.8336 21.8295C25.9958 20.8145 27.6188 20.1706 30.5904 19.1205L31.9488 18.6429C40.1571 15.7685 48.0764 11.913 55.5425 7.43395C58.7237 5.52553 60.4148 4.51184 61.817 4.12828L62.0943 4.05895ZM65.231 7.63121C64.2982 7.42642 63.8112 7.42646 62.8785 7.63121C62.6341 7.68487 62.1905 7.83708 61.2623 8.33141C60.3332 8.82622 59.1537 9.53223 57.4244 10.5697C49.777 15.1575 41.6331 19.1261 33.1578 22.0941C31.1832 22.7856 29.8714 23.2477 28.8795 23.6713C27.9196 24.0811 27.4955 24.3602 27.2398 24.5834C26.5697 25.1687 25.9858 26.0243 25.6851 26.8617C25.3765 27.7214 25.3508 28.4969 25.4722 31.8285C25.787 40.4648 27.3488 53.0613 32.8756 64.2992C40.1847 79.161 52.4706 89.0146 59.859 93.9193C61.5538 95.0444 61.9048 95.2462 62.7808 95.4554C62.9343 95.492 63.4025 95.5511 64.0552 95.5511C64.7078 95.5511 65.1755 95.4919 65.3287 95.4554C66.2044 95.2463 66.556 95.0442 68.2506 93.9193C75.6389 89.0145 87.925 79.1606 95.2339 64.2992C100.761 53.0614 102.322 40.4648 102.637 31.8285C102.759 28.4969 102.733 27.7215 102.424 26.8617C102.124 26.0243 101.54 25.1687 100.87 24.5834C100.614 24.3602 100.191 24.0811 99.231 23.6713C98.2391 23.2476 96.9265 22.7857 94.9517 22.0941C86.4764 19.1262 78.3325 15.1575 70.6851 10.5697C68.9557 9.53216 67.7764 8.82625 66.8472 8.33141C65.9192 7.83714 65.4755 7.68495 65.231 7.63121ZM63.6763 15.4613C63.924 15.409 64.1845 15.409 64.4322 15.4613C64.7139 15.5208 64.9766 15.6706 65.5006 15.9711C70.2944 18.7197 75.0373 21.5076 80.0513 23.8705C84.4097 25.9243 88.9133 27.6052 93.4224 29.2836C94.1253 29.5452 94.4774 29.6754 94.7369 29.9095C94.9623 30.113 95.1405 30.3823 95.2398 30.6693C95.3541 30.9997 95.3381 31.3664 95.3052 32.099C94.8597 42.0334 93.0804 52.1049 88.6705 61.0716C83.5319 71.5201 75.1702 80.2084 65.6597 86.8334C65.1015 87.2222 64.8223 87.4171 64.4947 87.4984C64.2162 87.5675 63.8923 87.5675 63.6138 87.4984C63.2863 87.4171 63.007 87.2222 62.4488 86.8334C52.9384 80.2085 44.5775 71.5198 39.439 61.0716C35.0291 52.1048 33.2499 42.0335 32.8043 32.099C32.7714 31.3664 32.7545 30.9997 32.8687 30.6693C32.968 30.3823 33.1462 30.113 33.3716 29.9095C33.6312 29.6753 33.9832 29.5452 34.6861 29.2836C39.1973 27.6046 43.6875 25.9296 48.0572 23.8705C53.0713 21.5076 57.815 18.7197 62.609 15.9711C63.1327 15.6708 63.3947 15.5208 63.6763 15.4613Z" fill="url(#paint2_linear_10_12030)"/>
</mask>
<g mask="url(#mask2_10_12030)">
<rect x="-0.000244141" y="-12.999" width="128" height="128" fill="#2E3E92"/>
<rect x="-0.457275" y="-13" width="128" height="128" fill="url(#paint3_linear_10_12030)" fill-opacity="0.6" style="mix-blend-mode:overlay"/>
<rect x="-0.457275" y="-13" width="128" height="128" fill="url(#paint4_radial_10_12030)" fill-opacity="0.6" style="mix-blend-mode:overlay"/>
<g style="mix-blend-mode:soft-light">
<path fill-rule="evenodd" clip-rule="evenodd" d="M-0.000244141 -13H63.9998V115H-0.000244141V-13Z" fill="url(#paint5_linear_10_12030)" style="mix-blend-mode:lighten"/>
</g>
<g style="mix-blend-mode:soft-light">
<mask id="path-11-inside-1_10_12030" fill="white">
<path d="M62.0943 4.05895C63.5437 3.74079 64.5658 3.74075 66.0152 4.05895C67.4756 4.37972 69.1736 5.39818 72.567 7.43395C80.0333 11.9131 87.9523 15.7685 96.1607 18.6429C100.018 19.9938 101.948 20.6693 103.276 21.8295C104.415 22.8245 105.355 24.2028 105.866 25.6263C106.462 27.2861 106.405 28.8446 106.292 31.9613C105.968 40.8313 104.368 54.0142 98.5162 65.9125L98.15 66.6439C90.3974 81.9233 77.7911 91.9753 70.273 96.9662L69.148 97.7025C68.1312 98.346 67.3627 98.7292 66.1783 99.0121C65.1516 99.2572 63.2794 99.2735 62.147 99.0589L61.9312 99.0121C60.7466 98.7292 59.9784 98.3461 58.9615 97.7025L57.8365 96.9662C50.3184 91.9754 37.7123 81.9236 29.9595 66.6439L29.5943 65.9125C24.1083 54.7575 22.3578 42.4739 21.8941 33.6732L21.8179 31.9613C21.7114 29.0396 21.655 27.4871 22.1392 25.9369L22.2437 25.6263C22.7229 24.2919 23.579 22.9973 24.6226 22.0209L24.8336 21.8295C25.9958 20.8145 27.6188 20.1706 30.5904 19.1205L31.9488 18.6429C40.1571 15.7685 48.0764 11.913 55.5425 7.43395C58.7237 5.52553 60.4148 4.51184 61.817 4.12828L62.0943 4.05895ZM65.231 7.63121C64.2982 7.42642 63.8112 7.42646 62.8785 7.63121C62.6341 7.68487 62.1905 7.83708 61.2623 8.33141C60.3332 8.82622 59.1537 9.53223 57.4244 10.5697C49.777 15.1575 41.6331 19.1261 33.1578 22.0941C31.1832 22.7856 29.8714 23.2477 28.8795 23.6713C27.9196 24.0811 27.4955 24.3602 27.2398 24.5834C26.5697 25.1687 25.9858 26.0243 25.6851 26.8617C25.3765 27.7214 25.3508 28.4969 25.4722 31.8285C25.787 40.4648 27.3488 53.0613 32.8756 64.2992C40.1847 79.161 52.4706 89.0146 59.859 93.9193C61.5538 95.0444 61.9048 95.2462 62.7808 95.4554C62.9343 95.492 63.4025 95.5511 64.0552 95.5511C64.7078 95.5511 65.1755 95.4919 65.3287 95.4554C66.2044 95.2463 66.556 95.0442 68.2506 93.9193C75.6389 89.0145 87.925 79.1606 95.2339 64.2992C100.761 53.0614 102.322 40.4648 102.637 31.8285C102.759 28.4969 102.733 27.7215 102.424 26.8617C102.124 26.0243 101.54 25.1687 100.87 24.5834C100.614 24.3602 100.191 24.0811 99.231 23.6713C98.2391 23.2476 96.9265 22.7857 94.9517 22.0941C86.4764 19.1262 78.3325 15.1575 70.6851 10.5697C68.9557 9.53216 67.7764 8.82625 66.8472 8.33141C65.9192 7.83714 65.4755 7.68495 65.231 7.63121ZM63.6763 15.4613C63.924 15.409 64.1845 15.409 64.4322 15.4613C64.7139 15.5208 64.9766 15.6706 65.5006 15.9711C70.2944 18.7197 75.0373 21.5076 80.0513 23.8705C84.4097 25.9243 88.9133 27.6052 93.4224 29.2836C94.1253 29.5452 94.4774 29.6754 94.7369 29.9095C94.9623 30.113 95.1405 30.3823 95.2398 30.6693C95.3541 30.9997 95.3381 31.3664 95.3052 32.099C94.8597 42.0334 93.0804 52.1049 88.6705 61.0716C83.5319 71.5201 75.1702 80.2084 65.6597 86.8334C65.1015 87.2222 64.8223 87.4171 64.4947 87.4984C64.2162 87.5675 63.8923 87.5675 63.6138 87.4984C63.2863 87.4171 63.007 87.2222 62.4488 86.8334C52.9384 80.2085 44.5775 71.5198 39.439 61.0716C35.0291 52.1048 33.2499 42.0335 32.8043 32.099C32.7714 31.3664 32.7545 30.9997 32.8687 30.6693C32.968 30.3823 33.1462 30.113 33.3716 29.9095C33.6312 29.6753 33.9832 29.5452 34.6861 29.2836C39.1973 27.6046 43.6875 25.9296 48.0572 23.8705C53.0713 21.5076 57.815 18.7197 62.609 15.9711C63.1327 15.6708 63.3947 15.5208 63.6763 15.4613Z"/>
</mask>
<path d="M62.0943 4.05895L62.0453 3.8356L62.0389 3.8372L62.0943 4.05895ZM66.0152 4.05895L66.0642 3.8357L66.0642 3.83569L66.0152 4.05895ZM72.567 7.43395L72.4494 7.62995V7.62995L72.567 7.43395ZM96.1607 18.6429L96.0852 18.8587L96.1607 18.6429ZM103.276 21.8295L103.426 21.6573L103.426 21.6573L103.276 21.8295ZM105.866 25.6263L106.081 25.5491L106.081 25.5491L105.866 25.6263ZM106.292 31.9613L106.52 31.9696L106.292 31.9613ZM98.5162 65.9125L98.7206 66.0148L98.7213 66.0133L98.5162 65.9125ZM98.15 66.6439L98.3538 66.7473L98.3544 66.7462L98.15 66.6439ZM70.273 96.9662L70.3982 97.1574L70.3994 97.1566L70.273 96.9662ZM69.148 97.7025L69.2703 97.8957L69.2732 97.8938L69.148 97.7025ZM66.1783 99.0121L66.2314 99.2344H66.2314L66.1783 99.0121ZM62.147 99.0589L62.0985 99.2824L62.1045 99.2835L62.147 99.0589ZM61.9312 99.0121L61.8781 99.2344L61.8827 99.2354L61.9312 99.0121ZM58.9615 97.7025L58.8363 97.8938L58.8393 97.8956L58.9615 97.7025ZM57.8365 96.9662L57.7101 97.1566L57.7113 97.1574L57.8365 96.9662ZM29.9595 66.6439L29.755 66.746L29.7557 66.7473L29.9595 66.6439ZM29.5943 65.9125L29.3892 66.0133L29.3898 66.0146L29.5943 65.9125ZM21.8941 33.6732L21.6658 33.6834L21.6659 33.6852L21.8941 33.6732ZM21.8179 31.9613L21.5895 31.9696L21.5896 31.9715L21.8179 31.9613ZM22.1392 25.9369L21.9225 25.864L21.921 25.8687L22.1392 25.9369ZM22.2437 25.6263L22.0285 25.5491L22.0271 25.5534L22.2437 25.6263ZM24.6226 22.0209L24.469 21.8516L24.4665 21.8539L24.6226 22.0209ZM24.8336 21.8295L24.6832 21.6573L24.68 21.6602L24.8336 21.8295ZM30.5904 19.1205L30.5146 18.9048L30.5142 18.905L30.5904 19.1205ZM31.9488 18.6429L31.8733 18.4272L31.873 18.4273L31.9488 18.6429ZM55.5425 7.43395L55.6601 7.62995V7.62995L55.5425 7.43395ZM61.817 4.12828L61.7615 3.90648L61.7566 3.90781L61.817 4.12828ZM65.231 7.63121L65.2801 7.40797L65.28 7.40796L65.231 7.63121ZM62.8785 7.63121L62.8295 7.40796L62.8295 7.40796L62.8785 7.63121ZM61.2623 8.33141L61.1548 8.12966L61.1548 8.12966L61.2623 8.33141ZM57.4244 10.5697L57.3068 10.3737L57.4244 10.5697ZM33.1578 22.0941L33.2333 22.3098H33.2333L33.1578 22.0941ZM28.8795 23.6713L28.7897 23.461L28.7897 23.461L28.8795 23.6713ZM27.2398 24.5834L27.0895 24.4112L27.0894 24.4112L27.2398 24.5834ZM25.6851 26.8617L25.47 26.7844L25.47 26.7844L25.6851 26.8617ZM25.4722 31.8285L25.2438 31.8368L25.4722 31.8285ZM32.8756 64.2992L32.6704 64.4001L32.8756 64.2992ZM59.859 93.9193L59.7325 94.1097V94.1097L59.859 93.9193ZM62.7808 95.4554L62.7277 95.6777L62.7279 95.6778L62.7808 95.4554ZM64.0552 95.5511V95.7797H64.0553L64.0552 95.5511ZM65.3287 95.4554L65.3817 95.6778L65.3818 95.6777L65.3287 95.4554ZM68.2506 93.9193L68.377 94.1097V94.1097L68.2506 93.9193ZM95.2339 64.2992L95.4391 64.4001L95.4391 64.4001L95.2339 64.2992ZM102.637 31.8285L102.866 31.8368L102.637 31.8285ZM102.424 26.8617L102.64 26.7844L102.64 26.7844L102.424 26.8617ZM100.87 24.5834L101.02 24.4112L101.02 24.4112L100.87 24.5834ZM99.231 23.6713L99.3208 23.4611L99.3208 23.461L99.231 23.6713ZM94.9517 22.0941L94.8762 22.3098L94.9517 22.0941ZM70.6851 10.5697L70.5675 10.7657V10.7657L70.6851 10.5697ZM66.8472 8.33141L66.9547 8.12967L66.9547 8.12966L66.8472 8.33141ZM63.6763 15.4613L63.6291 15.2377L63.6291 15.2377L63.6763 15.4613ZM64.4322 15.4613L64.4794 15.2377L64.4794 15.2377L64.4322 15.4613ZM65.5006 15.9711L65.6142 15.7728L65.5006 15.9711ZM80.0513 23.8705L79.9539 24.0772L80.0513 23.8705ZM93.4224 29.2836L93.3427 29.4978L93.4224 29.2836ZM94.7369 29.9095L94.89 29.7398L94.89 29.7398L94.7369 29.9095ZM95.2398 30.6693L95.4558 30.5946L95.4558 30.5945L95.2398 30.6693ZM95.3052 32.099L95.5336 32.1092L95.3052 32.099ZM88.6705 61.0716L88.8756 61.1725L88.6705 61.0716ZM65.6597 86.8334L65.7904 87.0209L65.6597 86.8334ZM64.4947 87.4984L64.5497 87.7202L64.5498 87.7202L64.4947 87.4984ZM63.6138 87.4984L63.5588 87.7202H63.5588L63.6138 87.4984ZM62.4488 86.8334L62.3181 87.0209H62.3181L62.4488 86.8334ZM39.439 61.0716L39.2339 61.1725L39.439 61.0716ZM32.8043 32.099L32.5759 32.1092L32.8043 32.099ZM32.8687 30.6693L32.6527 30.5945L32.6527 30.5946L32.8687 30.6693ZM33.3716 29.9095L33.2185 29.7398L33.2185 29.7398L33.3716 29.9095ZM34.6861 29.2836L34.7658 29.4978L34.6861 29.2836ZM48.0572 23.8705L48.1546 24.0772H48.1546L48.0572 23.8705ZM62.609 15.9711L62.4953 15.7728L62.609 15.9711ZM62.0943 4.05895L62.1433 4.2822C63.5604 3.97113 64.549 3.97109 65.9662 4.2822L66.0152 4.05895L66.0642 3.83569C64.5825 3.5104 63.527 3.51045 62.0453 3.83569L62.0943 4.05895ZM66.0152 4.05895L65.9662 4.2822C66.666 4.43591 67.4339 4.75929 68.4588 5.30507C69.4836 5.85087 70.7506 6.61084 72.4494 7.62995L72.567 7.43395L72.6845 7.23794C70.9899 6.22129 69.7112 5.45415 68.6736 4.90158C67.636 4.34899 66.8248 4.00275 66.0642 3.8357L66.0152 4.05895ZM72.567 7.43395L72.4494 7.62995C79.927 12.1159 87.8601 15.9784 96.0852 18.8587L96.1607 18.6429L96.2363 18.4272C88.0445 15.5586 80.1395 11.7103 72.6845 7.23794L72.567 7.43395ZM96.1607 18.6429L96.0852 18.8587C98.0168 19.5351 99.4551 20.0389 100.577 20.5179C101.697 20.9961 102.487 21.4438 103.126 22.0016L103.276 21.8295L103.426 21.6573C102.737 21.0549 101.898 20.5848 100.757 20.0975C99.6174 19.611 98.1622 19.1016 96.2363 18.4272L96.1607 18.6429ZM103.276 21.8295L103.126 22.0016C104.235 22.971 105.153 24.3166 105.651 25.7036L105.866 25.6263L106.081 25.5491C105.557 24.089 104.595 22.678 103.426 21.6573L103.276 21.8295ZM105.866 25.6263L105.651 25.7036C106.229 27.3134 106.177 28.8229 106.063 31.953L106.292 31.9613L106.52 31.9696C106.633 28.8664 106.695 27.2589 106.081 25.5491L105.866 25.6263ZM106.292 31.9613L106.063 31.953C105.74 40.8084 104.142 53.9546 98.3111 65.8116L98.5162 65.9125L98.7213 66.0133C104.593 54.0737 106.196 40.8543 106.52 31.9696L106.292 31.9613ZM98.5162 65.9125L98.3118 65.8101L97.9456 66.5416L98.15 66.6439L98.3544 66.7462L98.7206 66.0148L98.5162 65.9125ZM98.15 66.6439L97.9461 66.5405C90.2189 81.7698 77.6492 91.7951 70.1466 96.7757L70.273 96.9662L70.3994 97.1566C77.933 92.1554 90.5758 82.0768 98.3538 66.7473L98.15 66.6439ZM70.273 96.9662L70.1478 96.7749L69.0228 97.5113L69.148 97.7025L69.2732 97.8938L70.3982 97.1574L70.273 96.9662ZM69.148 97.7025L69.0258 97.5094C68.023 98.144 67.2779 98.5144 66.1252 98.7898L66.1783 99.0121L66.2314 99.2344C67.4474 98.9439 68.2394 98.548 69.2702 97.8956L69.148 97.7025ZM66.1783 99.0121L66.1252 98.7897C65.1336 99.0265 63.2944 99.0436 62.1896 98.8344L62.147 99.0589L62.1045 99.2835C63.2645 99.5033 65.1695 99.4879 66.2314 99.2344L66.1783 99.0121ZM62.147 99.0589L62.1955 98.8356L61.9797 98.7887L61.9312 99.0121L61.8827 99.2354L62.0985 99.2823L62.147 99.0589ZM61.9312 99.0121L61.9843 98.7897C60.8314 98.5144 60.0866 98.1441 59.0837 97.5094L58.9615 97.7025L58.8393 97.8956C59.8702 98.5481 60.6618 98.9439 61.8781 99.2344L61.9312 99.0121ZM58.9615 97.7025L59.0867 97.5113L57.9617 96.7749L57.8365 96.9662L57.7113 97.1574L58.8363 97.8938L58.9615 97.7025ZM57.8365 96.9662L57.9629 96.7757C50.4603 91.7952 37.8907 81.7702 30.1634 66.5405L29.9595 66.6439L29.7557 66.7473C37.5338 82.0771 50.1765 92.1555 57.7101 97.1566L57.8365 96.9662ZM29.9595 66.6439L30.164 66.5418L29.7988 65.8104L29.5943 65.9125L29.3898 66.0146L29.755 66.746L29.9595 66.6439ZM29.5943 65.9125L29.7994 65.8116C24.3326 54.6957 22.5852 42.4468 22.1224 33.6612L21.8941 33.6732L21.6659 33.6852C22.1303 42.501 23.884 54.8192 29.3892 66.0133L29.5943 65.9125ZM21.8941 33.6732L22.1225 33.663L22.0463 31.9511L21.8179 31.9613L21.5896 31.9715L21.6658 33.6834L21.8941 33.6732ZM21.8179 31.9613L22.0464 31.953C21.9394 29.0181 21.8873 27.5099 22.3574 26.005L22.1392 25.9369L21.921 25.8687C21.4226 27.4643 21.4835 29.061 21.5895 31.9696L21.8179 31.9613ZM22.1392 25.9369L22.3559 26.0098L22.4604 25.6992L22.2437 25.6263L22.0271 25.5534L21.9226 25.864L22.1392 25.9369ZM22.2437 25.6263L22.4588 25.7036C22.9256 24.4038 23.7612 23.1398 24.7788 22.1878L24.6226 22.0209L24.4665 21.8539C23.3967 22.8547 22.5202 24.18 22.0286 25.5491L22.2437 25.6263ZM24.6226 22.0209L24.7762 22.1901L24.9872 21.9987L24.8336 21.8295L24.68 21.6602L24.469 21.8516L24.6226 22.0209ZM24.8336 21.8295L24.9839 22.0016C26.1069 21.0209 27.6844 20.3898 30.6666 19.336L30.5904 19.1205L30.5142 18.905C27.5533 19.9513 25.8847 20.608 24.6832 21.6573L24.8336 21.8295ZM30.5904 19.1205L30.6662 19.3361L32.0246 18.8586L31.9488 18.6429L31.873 18.4273L30.5146 18.9048L30.5904 19.1205ZM31.9488 18.6429L32.0243 18.8587C40.2493 15.9784 48.1826 12.1158 55.6601 7.62995L55.5425 7.43395L55.425 7.23794C47.9701 11.7102 40.0648 15.5586 31.8733 18.4272L31.9488 18.6429ZM55.5425 7.43395L55.6601 7.62995C58.8562 5.71255 60.5135 4.72181 61.8773 4.34875L61.817 4.12828L61.7566 3.90781C60.3162 4.30186 58.5911 5.33851 55.425 7.23794L55.5425 7.43395ZM61.817 4.12828L61.8724 4.35003L62.1497 4.28069L62.0943 4.05895L62.0389 3.8372L61.7615 3.90654L61.817 4.12828ZM65.231 7.63121L65.28 7.40796C64.8058 7.30385 64.4329 7.24906 64.0547 7.24906C63.6765 7.24907 63.3036 7.30387 62.8295 7.40796L62.8785 7.63121L62.9275 7.85447C63.3861 7.7538 63.723 7.70621 64.0547 7.7062C64.3864 7.7062 64.7234 7.75378 65.182 7.85447L65.231 7.63121ZM62.8785 7.63121L62.8295 7.40796C62.5545 7.46833 62.0892 7.63209 61.1548 8.12966L61.2623 8.33141L61.3697 8.53315C62.2919 8.04207 62.7137 7.90142 62.9275 7.85447L62.8785 7.63121ZM61.2623 8.33141L61.1548 8.12966C60.2194 8.62787 59.0341 9.33747 57.3068 10.3737L57.4244 10.5697L57.542 10.7657C59.2734 9.72698 60.447 9.02458 61.3697 8.53315L61.2623 8.33141ZM57.4244 10.5697L57.3068 10.3737C49.6708 14.9547 41.5408 18.9163 33.0822 21.8784L33.1578 22.0941L33.2333 22.3098C41.7253 19.336 49.8833 15.3603 57.542 10.7657L57.4244 10.5697ZM33.1578 22.0941L33.0822 21.8784C31.1105 22.5688 29.7903 23.0338 28.7897 23.461L28.8795 23.6713L28.9692 23.8815C29.9525 23.4616 31.2559 23.0023 33.2333 22.3098L33.1578 22.0941ZM28.8795 23.6713L28.7897 23.461C27.8196 23.8753 27.3709 24.1656 27.0895 24.4112L27.2398 24.5834L27.3901 24.7556C27.6201 24.5548 28.0196 24.287 28.9692 23.8815L28.8795 23.6713ZM27.2398 24.5834L27.0894 24.4112C26.39 25.0221 25.7839 25.9104 25.47 26.7844L25.6851 26.8617L25.9002 26.9389C26.1878 26.1382 26.7494 25.3152 27.3902 24.7555L27.2398 24.5834ZM25.6851 26.8617L25.47 26.7844C25.1432 27.6949 25.123 28.5212 25.2438 31.8368L25.4722 31.8285L25.7007 31.8202C25.5786 28.4727 25.6098 27.748 25.9003 26.9389L25.6851 26.8617ZM25.4722 31.8285L25.2438 31.8368C25.5591 40.4878 27.1233 53.1209 32.6704 64.4001L32.8756 64.2992L33.0807 64.1983C27.5742 53.0017 26.0149 40.4419 25.7007 31.8202L25.4722 31.8285ZM32.8756 64.2992L32.6704 64.4001C40.005 79.3137 52.3286 89.1947 59.7325 94.1097L59.859 93.9193L59.9854 93.7289C52.6126 88.8345 40.3643 79.0083 33.0807 64.1983L32.8756 64.2992ZM59.859 93.9193L59.7325 94.1097C61.4253 95.2334 61.8073 95.4579 62.7277 95.6777L62.7808 95.4554L62.8339 95.2331C62.0023 95.0345 61.6823 94.8554 59.9854 93.7289L59.859 93.9193ZM62.7808 95.4554L62.7279 95.6778C62.9061 95.7202 63.3944 95.7797 64.0552 95.7797V95.5511V95.3226C63.4107 95.3226 62.9625 95.2637 62.8337 95.2331L62.7808 95.4554ZM64.0552 95.5511L64.0553 95.7797C64.7159 95.7797 65.2037 95.7202 65.3817 95.6778L65.3287 95.4554L65.2757 95.2331C65.1473 95.2637 64.6996 95.3225 64.0552 95.3226L64.0552 95.5511ZM65.3287 95.4554L65.3818 95.6777C66.3019 95.458 66.6845 95.2333 68.377 94.1097L68.2506 93.9193L68.1241 93.7289C66.4274 94.8552 66.1069 95.0346 65.2756 95.2331L65.3287 95.4554ZM68.2506 93.9193L68.377 94.1097C75.7809 89.1946 88.1046 79.3133 95.4391 64.4001L95.2339 64.2992L95.0288 64.1983C87.7453 79.008 75.497 88.8344 68.1241 93.7289L68.2506 93.9193ZM95.2339 64.2992L95.4391 64.4001C100.986 53.121 102.55 40.4877 102.866 31.8368L102.637 31.8285L102.409 31.8202C102.095 40.4418 100.535 53.0018 95.0288 64.1983L95.2339 64.2992ZM102.637 31.8285L102.866 31.8368C102.987 28.5211 102.966 27.6949 102.64 26.7844L102.424 26.8617L102.209 26.9389C102.5 27.748 102.531 28.4726 102.409 31.8202L102.637 31.8285ZM102.424 26.8617L102.64 26.7844C102.326 25.9104 101.719 25.0222 101.02 24.4112L100.87 24.5834L100.719 24.7555C101.36 25.3153 101.922 26.1382 102.209 26.9389L102.424 26.8617ZM100.87 24.5834L101.02 24.4112C100.739 24.1656 100.291 23.8753 99.3208 23.4611L99.231 23.6713L99.1412 23.8815C100.09 24.2869 100.489 24.5548 100.719 24.7555L100.87 24.5834ZM99.231 23.6713L99.3208 23.461C98.3202 23.0337 96.9992 22.5689 95.0273 21.8784L94.9517 22.0941L94.8762 22.3098C96.8539 23.0024 98.158 23.4616 99.1413 23.8815L99.231 23.6713ZM94.9517 22.0941L95.0273 21.8784C86.5687 18.9163 78.4388 14.9547 70.8027 10.3737L70.6851 10.5697L70.5675 10.7657C78.2262 15.3603 86.3842 19.336 94.8762 22.3098L94.9517 22.0941ZM70.6851 10.5697L70.8027 10.3737C69.0753 9.33741 67.8902 8.62789 66.9547 8.12967L66.8472 8.33141L66.7398 8.53315C67.6625 9.0246 68.836 9.72692 70.5675 10.7657L70.6851 10.5697ZM66.8472 8.33141L66.9547 8.12966C66.0205 7.63213 65.5551 7.46842 65.2801 7.40797L65.231 7.63121L65.182 7.85445C65.3959 7.90149 65.8178 8.04215 66.7398 8.53315L66.8472 8.33141ZM63.6763 15.4613L63.7236 15.6849C63.9401 15.6392 64.1684 15.6392 64.385 15.6849L64.4322 15.4613L64.4794 15.2377C64.2006 15.1788 63.9079 15.1787 63.6291 15.2377L63.6763 15.4613ZM64.4322 15.4613L64.3849 15.6849C64.6233 15.7353 64.8502 15.8617 65.3869 16.1693L65.5006 15.9711L65.6142 15.7728C65.1029 15.4796 64.8046 15.3064 64.4794 15.2377L64.4322 15.4613ZM65.5006 15.9711L65.3869 16.1693C70.1772 18.9159 74.9296 21.7095 79.9539 24.0772L80.0513 23.8705L80.1488 23.6637C75.1451 21.3057 70.4116 18.5234 65.6142 15.7728L65.5006 15.9711ZM80.0513 23.8705L79.9539 24.0772C84.3223 26.1359 88.8349 27.8199 93.3427 29.4978L93.4224 29.2836L93.5022 29.0693C88.9917 27.3905 84.497 25.7128 80.1488 23.6637L80.0513 23.8705ZM93.4224 29.2836L93.3427 29.4978C94.0639 29.7662 94.3645 29.8814 94.5838 30.0792L94.7369 29.9095L94.89 29.7398C94.5902 29.4693 94.1867 29.3241 93.5022 29.0693L93.4224 29.2836ZM94.7369 29.9095L94.5838 30.0792C94.7805 30.2568 94.9371 30.4934 95.0238 30.7441L95.2398 30.6693L95.4558 30.5945C95.3439 30.2712 95.1442 29.9692 94.89 29.7398L94.7369 29.9095ZM95.2398 30.6693L95.0238 30.744C95.1204 31.0234 95.1106 31.338 95.0769 32.0887L95.3052 32.099L95.5336 32.1092C95.5656 31.3949 95.5877 30.9759 95.4558 30.5946L95.2398 30.6693ZM95.3052 32.099L95.0769 32.0887C94.6321 42.0048 92.8565 52.0421 88.4654 60.9708L88.6705 61.0716L88.8756 61.1725C93.3042 52.1676 95.0872 42.062 95.5336 32.1092L95.3052 32.099ZM88.6705 61.0716L88.4654 60.9708C83.3477 71.3767 75.0157 80.0374 65.5291 86.6458L65.6597 86.8334L65.7904 87.0209C75.3247 80.3793 83.7162 71.6634 88.8756 61.1725L88.6705 61.0716ZM65.6597 86.8334L65.5291 86.6458C64.957 87.0443 64.7168 87.2077 64.4396 87.2766L64.4947 87.4984L64.5498 87.7202C64.9277 87.6264 65.2459 87.4002 65.7904 87.0209L65.6597 86.8334ZM64.4947 87.4984L64.4397 87.2766C64.1973 87.3367 63.9112 87.3367 63.6689 87.2766L63.6138 87.4984L63.5588 87.7202C63.8734 87.7983 64.2351 87.7983 64.5497 87.7202L64.4947 87.4984ZM63.6138 87.4984L63.6689 87.2766C63.3917 87.2077 63.1515 87.0443 62.5794 86.6458L62.4488 86.8334L62.3181 87.0209C62.8626 87.4002 63.1808 87.6264 63.5588 87.7202L63.6138 87.4984ZM62.4488 86.8334L62.5794 86.6458C53.0929 80.0376 44.7618 71.3765 39.6441 60.9708L39.439 61.0716L39.2339 61.1725C44.3933 71.6631 52.7839 80.3795 62.3181 87.0209L62.4488 86.8334ZM39.439 61.0716L39.6441 60.9708C35.253 52.0421 33.4774 42.0049 33.0326 32.0887L32.8043 32.099L32.5759 32.1092C33.0223 42.062 34.8053 52.1676 39.2339 61.1725L39.439 61.0716ZM32.8043 32.099L33.0326 32.0887C32.9989 31.3374 32.9881 31.0233 33.0847 30.744L32.8687 30.6693L32.6527 30.5946C32.5208 30.9761 32.5439 31.3954 32.5759 32.1092L32.8043 32.099ZM32.8687 30.6693L33.0847 30.7441C33.1714 30.4935 33.328 30.2568 33.5248 30.0792L33.3716 29.9095L33.2185 29.7398C32.9644 29.9692 32.7646 30.2712 32.6527 30.5945L32.8687 30.6693ZM33.3716 29.9095L33.5248 30.0792C33.744 29.8814 34.0446 29.7662 34.7658 29.4978L34.6861 29.2836L34.6064 29.0693C33.9218 29.3241 33.5184 29.4693 33.2185 29.7398L33.3716 29.9095ZM34.6861 29.2836L34.7658 29.4978C39.2757 27.8193 43.7749 26.1412 48.1546 24.0772L48.0572 23.8705L47.9598 23.6637C43.6002 25.7181 39.1189 27.3899 34.6064 29.0693L34.6861 29.2836ZM48.0572 23.8705L48.1546 24.0772C53.179 21.7095 57.9322 18.916 62.7226 16.1693L62.609 15.9711L62.4953 15.7728C57.6978 18.5234 52.9635 21.3057 47.9598 23.6637L48.0572 23.8705ZM62.609 15.9711L62.7226 16.1693C63.2593 15.8617 63.4854 15.7353 63.7236 15.6849L63.6763 15.4613L63.6291 15.2377C63.304 15.3064 63.0061 15.4799 62.4953 15.7728L62.609 15.9711Z" fill="url(#paint6_linear_10_12030)" mask="url(#path-11-inside-1_10_12030)"/>
</g>
</g>
</g>
<g filter="url(#filter2_d_10_12030)">
<path d="M80.9079 40.5674L64.7269 49.3992C64.2351 49.6676 63.6408 49.6676 63.149 49.3992L49.5447 41.9738V49.0117C49.5447 49.9222 48.8284 50.6603 47.9447 50.6603C47.0611 50.6603 46.3447 49.9222 46.3447 49.0117V39.9747C45.8881 39.2167 46.0959 38.1488 46.968 37.6728L63.149 28.841C63.6408 28.5725 64.2351 28.5725 64.7269 28.841L80.9079 37.6728C82.0527 38.2976 82.0527 39.9425 80.9079 40.5674Z" fill="white"/>
<path d="M75.8825 55.362C75.8825 56.2132 75.3693 57.0504 74.6053 57.4326L65.0412 62.2178C64.3748 62.5512 63.503 62.5522 62.8347 62.2178L53.2706 57.4326C52.5089 57.0515 51.9934 56.2145 51.9934 55.362V47.9439C51.9934 47.2506 52.7349 46.8096 53.3441 47.1405L62.1918 51.9467C63.1009 52.4406 64.7744 52.4408 65.6841 51.9467L74.5318 47.1405C75.141 46.8096 75.8825 47.2506 75.8825 47.9439V55.362Z" fill="white"/>
<path d="M74.4775 47.04C75.1629 46.668 75.9971 47.1645 75.9971 47.9443V55.3623C75.997 56.2563 75.4591 57.1335 74.6562 57.5352L65.0928 62.3203C64.3942 62.6698 63.4838 62.6708 62.7832 62.3203L53.2197 57.5352C52.4192 57.1347 51.879 56.2578 51.8789 55.3623V47.9443C51.8789 47.1644 52.7131 46.6679 53.3984 47.04L62.2461 51.8467C62.6782 52.0814 63.3032 52.2031 63.9375 52.2031C64.5719 52.2032 65.1975 52.0816 65.6299 51.8467L74.4775 47.04ZM63.0947 28.7402C63.6204 28.4536 64.2556 28.4535 64.7812 28.7402L80.9629 37.5723C82.187 38.2405 82.187 39.9998 80.9629 40.668L64.7812 49.499C64.2554 49.786 63.6205 49.7859 63.0947 49.499L49.6592 42.166V49.0117C49.6592 49.9821 48.8943 50.7744 47.9443 50.7744C46.9946 50.7742 46.2305 49.9819 46.2305 49.0117V40.0029C45.7661 39.1956 45.9911 38.0755 46.9131 37.5723L63.0947 28.7402Z" stroke="url(#paint7_linear_10_12030)" stroke-width="0.228571" stroke-linecap="round" style="mix-blend-mode:color-burn"/>
</g>
</g>
<g filter="url(#filter3_dd_10_12030)">
<mask id="path-15-inside-2_10_12030" fill="white">
<path d="M27.5989 70.2002C29.6467 70.2002 30.6711 70.2001 31.4534 70.5986C32.1413 70.9493 32.7004 71.5092 33.051 72.1973C33.4495 72.9795 33.4494 74.0038 33.4494 76.0518V85.377C33.4494 87.425 33.4495 88.4492 33.051 89.2314C32.7004 89.9195 32.1414 90.4794 31.4534 90.8301C30.6711 91.2287 29.6467 91.2285 27.5989 91.2285H19.9534C18.4608 91.2285 17.7146 91.2283 17.2502 90.9141C16.8445 90.6393 16.5656 90.2133 16.4768 89.7314C16.3752 89.1799 16.6743 88.4954 17.2737 87.1279L20.0852 80.7139L17.2737 74.2998C16.6744 72.9327 16.3753 72.2487 16.4768 71.6973C16.5656 71.2153 16.8444 70.7894 17.2502 70.5146C17.7146 70.2004 18.4608 70.2002 19.9534 70.2002H27.5989ZM107.914 70.2002C109.407 70.2002 110.154 70.2002 110.618 70.5146C111.024 70.7894 111.303 71.2153 111.392 71.6973C111.493 72.2488 111.193 72.9325 110.594 74.2998L107.782 80.7139L110.594 87.1279C111.193 88.4954 111.493 89.1799 111.392 89.7314C111.303 90.2134 111.024 90.6393 110.618 90.9141C110.154 91.2285 109.407 91.2285 107.914 91.2285H100.27C98.2217 91.2285 97.1976 91.2287 96.4153 90.8301C95.7271 90.4795 95.1673 89.9196 94.8166 89.2314C94.4182 88.4492 94.4182 87.4248 94.4182 85.377V76.0518C94.4182 74.004 94.4183 72.9795 94.8166 72.1973C95.1673 71.5091 95.7271 70.9493 96.4153 70.5986C97.1976 70.2 98.2217 70.2002 100.27 70.2002H107.914Z"/>
</mask>
<path d="M27.5989 70.2002C29.6467 70.2002 30.6711 70.2001 31.4534 70.5986C32.1413 70.9493 32.7004 71.5092 33.051 72.1973C33.4495 72.9795 33.4494 74.0038 33.4494 76.0518V85.377C33.4494 87.425 33.4495 88.4492 33.051 89.2314C32.7004 89.9195 32.1414 90.4794 31.4534 90.8301C30.6711 91.2287 29.6467 91.2285 27.5989 91.2285H19.9534C18.4608 91.2285 17.7146 91.2283 17.2502 90.9141C16.8445 90.6393 16.5656 90.2133 16.4768 89.7314C16.3752 89.1799 16.6743 88.4954 17.2737 87.1279L20.0852 80.7139L17.2737 74.2998C16.6744 72.9327 16.3753 72.2487 16.4768 71.6973C16.5656 71.2153 16.8444 70.7894 17.2502 70.5146C17.7146 70.2004 18.4608 70.2002 19.9534 70.2002H27.5989ZM107.914 70.2002C109.407 70.2002 110.154 70.2002 110.618 70.5146C111.024 70.7894 111.303 71.2153 111.392 71.6973C111.493 72.2488 111.193 72.9325 110.594 74.2998L107.782 80.7139L110.594 87.1279C111.193 88.4954 111.493 89.1799 111.392 89.7314C111.303 90.2134 111.024 90.6393 110.618 90.9141C110.154 91.2285 109.407 91.2285 107.914 91.2285H100.27C98.2217 91.2285 97.1976 91.2287 96.4153 90.8301C95.7271 90.4795 95.1673 89.9196 94.8166 89.2314C94.4182 88.4492 94.4182 87.4248 94.4182 85.377V76.0518C94.4182 74.004 94.4183 72.9795 94.8166 72.1973C95.1673 71.5091 95.7271 70.9493 96.4153 70.5986C97.1976 70.2 98.2217 70.2002 100.27 70.2002H107.914Z" fill="#FFA00F"/>
<path d="M27.5989 70.2002V69.9716V70.2002ZM31.4534 70.5986L31.5571 70.395L31.5571 70.395L31.4534 70.5986ZM33.051 72.1973L33.2547 72.0935L33.2547 72.0935L33.051 72.1973ZM33.051 89.2314L33.2547 89.3352L33.2547 89.3352L33.051 89.2314ZM31.4534 90.8301L31.5571 91.0337L31.5571 91.0337L31.4534 90.8301ZM27.5989 91.2285V91.4571V91.2285ZM19.9534 91.2285V91.4571V91.2285ZM17.2502 90.9141L17.1221 91.1033L17.1221 91.1034L17.2502 90.9141ZM16.4768 89.7314L16.252 89.7728L16.252 89.7729L16.4768 89.7314ZM17.2737 87.1279L17.0643 87.0362L17.0643 87.0362L17.2737 87.1279ZM20.0852 80.7139L20.2945 80.8056L20.3348 80.7139L20.2945 80.6221L20.0852 80.7139ZM17.2737 74.2998L17.0643 74.3916L17.0643 74.3916L17.2737 74.2998ZM16.4768 71.6973L16.252 71.6558L16.252 71.6559L16.4768 71.6973ZM17.2502 70.5146L17.1221 70.3254L17.1221 70.3254L17.2502 70.5146ZM19.9534 70.2002V69.9716V70.2002ZM110.618 70.5146L110.747 70.3254L110.747 70.3254L110.618 70.5146ZM111.392 71.6973L111.617 71.6559L111.617 71.6559L111.392 71.6973ZM110.594 74.2998L110.803 74.3916V74.3916L110.594 74.2998ZM107.782 80.7139L107.573 80.6221L107.533 80.7139L107.573 80.8056L107.782 80.7139ZM110.594 87.1279L110.803 87.0362V87.0362L110.594 87.1279ZM111.392 89.7314L111.617 89.7729L111.617 89.7728L111.392 89.7314ZM110.618 90.9141L110.747 91.1033V91.1033L110.618 90.9141ZM100.27 91.2285V91.4571V91.2285ZM96.4153 90.8301L96.3115 91.0337L96.4153 90.8301ZM94.8166 89.2314L94.613 89.3352L94.613 89.3352L94.8166 89.2314ZM94.8166 72.1973L94.613 72.0935L94.613 72.0935L94.8166 72.1973ZM96.4153 70.5986L96.3115 70.395L96.3115 70.395L96.4153 70.5986ZM100.27 70.2002V69.9716V70.2002ZM27.5989 70.2002V70.4288C28.6266 70.4288 29.3837 70.4289 29.9821 70.4778C30.5779 70.5264 30.9961 70.6222 31.3496 70.8023L31.4534 70.5986L31.5571 70.395C31.1284 70.1765 30.6433 70.0731 30.0193 70.0221C29.398 69.9714 28.619 69.9716 27.5989 69.9716V70.2002ZM31.4534 70.5986L31.3496 70.8023C31.9944 71.1309 32.5186 71.6559 32.8474 72.301L33.051 72.1973L33.2547 72.0935C32.8822 71.3626 32.2882 70.7676 31.5571 70.395L31.4534 70.5986ZM33.051 72.1973L32.8473 72.301C33.0274 72.6546 33.1232 73.0728 33.1718 73.6685C33.2207 74.2669 33.2209 75.024 33.2209 76.0518H33.4494H33.678C33.678 75.0315 33.6782 74.2526 33.6275 73.6313C33.5765 73.0073 33.4731 72.5222 33.2547 72.0935L33.051 72.1973ZM33.4494 76.0518H33.2209V85.377H33.4494H33.678V76.0518H33.4494ZM33.4494 85.377H33.2209C33.2209 86.4048 33.2207 87.1619 33.1719 87.7603C33.1232 88.356 33.0275 88.7741 32.8473 89.1277L33.051 89.2314L33.2547 89.3352C33.4731 88.9065 33.5765 88.4214 33.6275 87.7975C33.6782 87.1762 33.678 86.3972 33.678 85.377H33.4494ZM33.051 89.2314L32.8474 89.1277C32.5186 89.7728 31.9945 90.2978 31.3496 90.6264L31.4534 90.8301L31.5571 91.0337C32.2883 90.6611 32.8822 90.0662 33.2547 89.3352L33.051 89.2314ZM31.4534 90.8301L31.3496 90.6264C30.9961 90.8065 30.5779 90.9023 29.9821 90.9509C29.3837 90.9998 28.6266 90.9999 27.5989 90.9999V91.2285V91.4571C28.619 91.4571 29.398 91.4573 30.0193 91.4066C30.6433 91.3556 31.1284 91.2522 31.5571 91.0337L31.4534 90.8301ZM27.5989 91.2285V90.9999H19.9534V91.2285V91.4571H27.5989V91.2285ZM19.9534 91.2285V90.9999C19.2027 90.9999 18.6553 90.9997 18.237 90.9615C17.8189 90.9233 17.5626 90.8494 17.3783 90.7248L17.2502 90.9141L17.1221 91.1034C17.4022 91.2929 17.7512 91.3762 18.1955 91.4167C18.6395 91.4573 19.2115 91.4571 19.9534 91.4571V91.2285ZM17.2502 90.9141L17.3784 90.7248C17.0232 90.4843 16.7793 90.1116 16.7016 89.69L16.4768 89.7314L16.252 89.7729C16.352 90.3151 16.6657 90.7943 17.1221 91.1033L17.2502 90.9141ZM16.4768 89.7314L16.7016 89.6901C16.6613 89.4712 16.6964 89.2064 16.8292 88.8079C16.9621 88.4092 17.1816 87.9074 17.483 87.2197L17.2737 87.1279L17.0643 87.0362C16.7664 87.7159 16.5366 88.2401 16.3955 88.6634C16.2544 89.0869 16.1908 89.4402 16.252 89.7728L16.4768 89.7314ZM17.2737 87.1279L17.483 87.2197L20.2945 80.8056L20.0852 80.7139L19.8758 80.6221L17.0643 87.0362L17.2737 87.1279ZM20.0852 80.7139L20.2945 80.6221L17.483 74.208L17.2737 74.2998L17.0643 74.3916L19.8758 80.8056L20.0852 80.7139ZM17.2737 74.2998L17.483 74.208C17.1816 73.5205 16.9622 73.0189 16.8293 72.6203C16.6964 72.222 16.6613 71.9575 16.7016 71.7387L16.4768 71.6973L16.252 71.6559C16.1908 71.9885 16.2544 72.3417 16.3956 72.765C16.5367 73.188 16.7665 73.712 17.0643 74.3916L17.2737 74.2998ZM16.4768 71.6973L16.7016 71.7387C16.7793 71.3171 17.0232 70.9444 17.3784 70.7039L17.2502 70.5146L17.1221 70.3254C16.6657 70.6344 16.3519 71.1135 16.252 71.6558L16.4768 71.6973ZM17.2502 70.5146L17.3783 70.7039C17.5626 70.5793 17.8189 70.5053 18.237 70.4672C18.6553 70.429 19.2027 70.4288 19.9534 70.4288V70.2002V69.9716C19.2115 69.9716 18.6394 69.9714 18.1954 70.012C17.7512 70.0525 17.4022 70.1358 17.1221 70.3254L17.2502 70.5146ZM19.9534 70.2002V70.4288H27.5989V70.2002V69.9716H19.9534V70.2002ZM107.914 70.2002V70.4288C108.665 70.4288 109.213 70.429 109.631 70.4671C110.05 70.5053 110.306 70.5792 110.49 70.7039L110.618 70.5146L110.747 70.3254C110.466 70.1357 110.117 70.0524 109.673 70.0119C109.229 69.9714 108.656 69.9716 107.914 69.9716V70.2002ZM110.618 70.5146L110.49 70.7039C110.845 70.9444 111.089 71.3171 111.167 71.7387L111.392 71.6973L111.617 71.6559C111.517 71.1135 111.203 70.6344 110.747 70.3254L110.618 70.5146ZM111.392 71.6973L111.167 71.7387C111.207 71.9574 111.172 72.2218 111.039 72.6202C110.906 73.0188 110.686 73.5203 110.385 74.208L110.594 74.2998L110.803 74.3916C111.101 73.712 111.331 73.188 111.473 72.765C111.614 72.3418 111.678 71.9886 111.617 71.6559L111.392 71.6973ZM110.594 74.2998L110.385 74.208L107.573 80.6221L107.782 80.7139L107.992 80.8056L110.803 74.3916L110.594 74.2998ZM107.782 80.7139L107.573 80.8056L110.385 87.2197L110.594 87.1279L110.803 87.0362L107.992 80.6221L107.782 80.7139ZM110.594 87.1279L110.385 87.2197C110.686 87.9075 110.906 88.4093 111.039 88.8081C111.172 89.2066 111.207 89.4713 111.167 89.6901L111.392 89.7314L111.617 89.7728C111.678 89.4401 111.614 89.0867 111.473 88.6633C111.331 88.2401 111.101 87.7159 110.803 87.0362L110.594 87.1279ZM111.392 89.7314L111.167 89.69C111.089 90.1116 110.845 90.4843 110.49 90.7248L110.618 90.9141L110.747 91.1033C111.203 90.7943 111.517 90.3151 111.617 89.7729L111.392 89.7314ZM110.618 90.9141L110.49 90.7248C110.306 90.8495 110.05 90.9234 109.631 90.9616C109.213 90.9997 108.665 90.9999 107.914 90.9999V91.2285V91.4571C108.656 91.4571 109.229 91.4573 109.673 91.4168C110.117 91.3763 110.466 91.293 110.747 91.1033L110.618 90.9141ZM107.914 91.2285V90.9999H100.27V91.2285V91.4571H107.914V91.2285ZM100.27 91.2285V90.9999C99.2419 90.9999 98.4848 90.9998 97.8864 90.951C97.2907 90.9023 96.8726 90.8066 96.519 90.6264L96.4153 90.8301L96.3115 91.0337C96.7402 91.2522 97.2253 91.3556 97.8492 91.4066C98.4705 91.4573 99.2495 91.4571 100.27 91.4571V91.2285ZM96.4153 90.8301L96.519 90.6264C95.8739 90.2977 95.349 89.7728 95.0203 89.1277L94.8166 89.2314L94.613 89.3352C94.9855 90.0664 95.5804 90.6612 96.3115 91.0337L96.4153 90.8301ZM94.8166 89.2314L95.0203 89.1277C94.8403 88.7742 94.7445 88.3559 94.6958 87.7602C94.647 87.1618 94.6468 86.4046 94.6468 85.377H94.4182H94.1896C94.1896 86.3971 94.1895 87.1761 94.2402 87.7974C94.2912 88.4214 94.3946 88.9065 94.613 89.3352L94.8166 89.2314ZM94.4182 85.377H94.6468V76.0518H94.4182H94.1896V85.377H94.4182ZM94.4182 76.0518H94.6468C94.6468 75.0241 94.647 74.267 94.6959 73.6686C94.7445 73.0728 94.8403 72.6545 95.0203 72.301L94.8166 72.1973L94.613 72.0935C94.3946 72.5222 94.2912 73.0073 94.2402 73.6313C94.1895 74.2527 94.1896 75.0317 94.1896 76.0518H94.4182ZM94.8166 72.1973L95.0203 72.301C95.349 71.6559 95.8739 71.131 96.519 70.8023L96.4153 70.5986L96.3115 70.395C95.5804 70.7675 94.9855 71.3624 94.613 72.0935L94.8166 72.1973ZM96.4153 70.5986L96.519 70.8023C96.8726 70.6222 97.2907 70.5264 97.8864 70.4778C98.4848 70.4289 99.2419 70.4288 100.27 70.4288V70.2002V69.9716C99.2495 69.9716 98.4705 69.9714 97.8492 70.0221C97.2253 70.0731 96.7402 70.1765 96.3115 70.395L96.4153 70.5986ZM100.27 70.2002V70.4288H107.914V70.2002V69.9716H100.27V70.2002Z" fill="url(#paint8_linear_10_12030)" style="mix-blend-mode:darken" mask="url(#path-15-inside-2_10_12030)"/>
</g>
<path d="M27.5989 70.2002C29.6467 70.2002 30.6711 70.2001 31.4534 70.5986C32.1413 70.9493 32.7004 71.5092 33.051 72.1973C33.4495 72.9795 33.4494 74.0038 33.4494 76.0518V85.377C33.4494 87.425 33.4495 88.4492 33.051 89.2314C32.7004 89.9195 32.1414 90.4794 31.4534 90.8301C30.6711 91.2287 29.6467 91.2285 27.5989 91.2285H19.9534C18.4608 91.2285 17.7146 91.2283 17.2502 90.9141C16.8445 90.6393 16.5656 90.2133 16.4768 89.7314C16.3752 89.1799 16.6743 88.4954 17.2737 87.1279L20.0852 80.7139L17.2737 74.2998C16.6744 72.9327 16.3753 72.2487 16.4768 71.6973C16.5656 71.2153 16.8444 70.7894 17.2502 70.5146C17.7146 70.2004 18.4608 70.2002 19.9534 70.2002H27.5989ZM107.914 70.2002C109.407 70.2002 110.154 70.2002 110.618 70.5146C111.024 70.7894 111.303 71.2153 111.392 71.6973C111.493 72.2488 111.193 72.9325 110.594 74.2998L107.782 80.7139L110.594 87.1279C111.193 88.4954 111.493 89.1799 111.392 89.7314C111.303 90.2134 111.024 90.6393 110.618 90.9141C110.154 91.2285 109.407 91.2285 107.914 91.2285H100.27C98.2217 91.2285 97.1976 91.2287 96.4153 90.8301C95.7271 90.4795 95.1673 89.9196 94.8166 89.2314C94.4182 88.4492 94.4182 87.4248 94.4182 85.377V76.0518C94.4182 74.004 94.4183 72.9795 94.8166 72.1973C95.1673 71.5091 95.7271 70.9493 96.4153 70.5986C97.1976 70.2 98.2217 70.2002 100.27 70.2002H107.914Z" fill="url(#paint9_linear_10_12030)" fill-opacity="0.3" style="mix-blend-mode:overlay"/>
<path d="M27.5989 70.2002C29.6467 70.2002 30.6711 70.2001 31.4534 70.5986C32.1413 70.9493 32.7004 71.5092 33.051 72.1973C33.4495 72.9795 33.4494 74.0038 33.4494 76.0518V85.377C33.4494 87.425 33.4495 88.4492 33.051 89.2314C32.7004 89.9195 32.1414 90.4794 31.4534 90.8301C30.6711 91.2287 29.6467 91.2285 27.5989 91.2285H19.9534C18.4608 91.2285 17.7146 91.2283 17.2502 90.9141C16.8445 90.6393 16.5656 90.2133 16.4768 89.7314C16.3752 89.1799 16.6743 88.4954 17.2737 87.1279L20.0852 80.7139L17.2737 74.2998C16.6744 72.9327 16.3753 72.2487 16.4768 71.6973C16.5656 71.2153 16.8444 70.7894 17.2502 70.5146C17.7146 70.2004 18.4608 70.2002 19.9534 70.2002H27.5989ZM107.914 70.2002C109.407 70.2002 110.154 70.2002 110.618 70.5146C111.024 70.7894 111.303 71.2153 111.392 71.6973C111.493 72.2488 111.193 72.9325 110.594 74.2998L107.782 80.7139L110.594 87.1279C111.193 88.4954 111.493 89.1799 111.392 89.7314C111.303 90.2134 111.024 90.6393 110.618 90.9141C110.154 91.2285 109.407 91.2285 107.914 91.2285H100.27C98.2217 91.2285 97.1976 91.2287 96.4153 90.8301C95.7271 90.4795 95.1673 89.9196 94.8166 89.2314C94.4182 88.4492 94.4182 87.4248 94.4182 85.377V76.0518C94.4182 74.004 94.4183 72.9795 94.8166 72.1973C95.1673 71.5091 95.7271 70.9493 96.4153 70.5986C97.1976 70.2 98.2217 70.2002 100.27 70.2002H107.914Z" fill="url(#paint10_radial_10_12030)" fill-opacity="0.6" style="mix-blend-mode:overlay"/>
<path d="M27.5989 70.2002C29.6467 70.2002 30.6711 70.2001 31.4534 70.5986C32.1413 70.9493 32.7004 71.5092 33.051 72.1973C33.4495 72.9795 33.4494 74.0038 33.4494 76.0518V85.377C33.4494 87.425 33.4495 88.4492 33.051 89.2314C32.7004 89.9195 32.1414 90.4794 31.4534 90.8301C30.6711 91.2287 29.6467 91.2285 27.5989 91.2285H19.9534C18.4608 91.2285 17.7146 91.2283 17.2502 90.9141C16.8445 90.6393 16.5656 90.2133 16.4768 89.7314C16.3752 89.1799 16.6743 88.4954 17.2737 87.1279L20.0852 80.7139L17.2737 74.2998C16.6744 72.9327 16.3753 72.2487 16.4768 71.6973C16.5656 71.2153 16.8444 70.7894 17.2502 70.5146C17.7146 70.2004 18.4608 70.2002 19.9534 70.2002H27.5989ZM107.914 70.2002C109.407 70.2002 110.154 70.2002 110.618 70.5146C111.024 70.7894 111.303 71.2153 111.392 71.6973C111.493 72.2488 111.193 72.9325 110.594 74.2998L107.782 80.7139L110.594 87.1279C111.193 88.4954 111.493 89.1799 111.392 89.7314C111.303 90.2134 111.024 90.6393 110.618 90.9141C110.154 91.2285 109.407 91.2285 107.914 91.2285H100.27C98.2217 91.2285 97.1976 91.2287 96.4153 90.8301C95.7271 90.4795 95.1673 89.9196 94.8166 89.2314C94.4182 88.4492 94.4182 87.4248 94.4182 85.377V76.0518C94.4182 74.004 94.4183 72.9795 94.8166 72.1973C95.1673 71.5091 95.7271 70.9493 96.4153 70.5986C97.1976 70.2 98.2217 70.2002 100.27 70.2002H107.914Z" fill="black" fill-opacity="0.24" style="mix-blend-mode:overlay"/>
<path d="M27.5989 70.2002C29.6467 70.2002 30.6711 70.2001 31.4534 70.5986C32.1413 70.9493 32.7004 71.5092 33.051 72.1973C33.4495 72.9795 33.4494 74.0038 33.4494 76.0518V85.377C33.4494 87.425 33.4495 88.4492 33.051 89.2314C32.7004 89.9195 32.1414 90.4794 31.4534 90.8301C30.6711 91.2287 29.6467 91.2285 27.5989 91.2285H19.9534C18.4608 91.2285 17.7146 91.2283 17.2502 90.9141C16.8445 90.6393 16.5656 90.2133 16.4768 89.7314C16.3752 89.1799 16.6743 88.4954 17.2737 87.1279L20.0852 80.7139L17.2737 74.2998C16.6744 72.9327 16.3753 72.2487 16.4768 71.6973C16.5656 71.2153 16.8444 70.7894 17.2502 70.5146C17.7146 70.2004 18.4608 70.2002 19.9534 70.2002H27.5989ZM107.914 70.2002C109.407 70.2002 110.154 70.2002 110.618 70.5146C111.024 70.7894 111.303 71.2153 111.392 71.6973C111.493 72.2488 111.193 72.9325 110.594 74.2998L107.782 80.7139L110.594 87.1279C111.193 88.4954 111.493 89.1799 111.392 89.7314C111.303 90.2134 111.024 90.6393 110.618 90.9141C110.154 91.2285 109.407 91.2285 107.914 91.2285H100.27C98.2217 91.2285 97.1976 91.2287 96.4153 90.8301C95.7271 90.4795 95.1673 89.9196 94.8166 89.2314C94.4182 88.4492 94.4182 87.4248 94.4182 85.377V76.0518C94.4182 74.004 94.4183 72.9795 94.8166 72.1973C95.1673 71.5091 95.7271 70.9493 96.4153 70.5986C97.1976 70.2 98.2217 70.2002 100.27 70.2002H107.914Z" fill="black" fill-opacity="0.12" style="mix-blend-mode:darken"/>
<g filter="url(#filter4_dd_10_12030)">
<rect x="23.7056" y="64.7139" width="80.4571" height="21.0286" rx="3.65714" fill="#FFA00F"/>
<rect x="23.8199" y="64.8282" width="80.2286" height="20.8" rx="3.54286" stroke="url(#paint11_linear_10_12030)" stroke-width="0.228571" stroke-linecap="round" style="mix-blend-mode:darken"/>
</g>
<rect x="23.7056" y="64.7139" width="80.4571" height="21.0286" rx="3.65714" fill="url(#paint12_linear_10_12030)" fill-opacity="0.3" style="mix-blend-mode:overlay"/>
<rect x="23.7056" y="64.7139" width="80.4571" height="21.0286" rx="3.65714" fill="url(#paint13_radial_10_12030)" fill-opacity="0.6" style="mix-blend-mode:overlay"/>
<g filter="url(#filter5_i_10_12030)">
<circle cx="28.7342" cy="75.2289" r="1.37143" fill="black" fill-opacity="0.24" style="mix-blend-mode:color-burn"/>
<circle cx="28.7342" cy="75.2289" r="1.37143" fill="black" fill-opacity="0.32" style="mix-blend-mode:darken"/>
</g>
<g filter="url(#filter6_i_10_12030)">
<circle cx="99.1341" cy="75.2289" r="1.37143" fill="black" fill-opacity="0.24" style="mix-blend-mode:color-burn"/>
<circle cx="99.1341" cy="75.2289" r="1.37143" fill="black" fill-opacity="0.32" style="mix-blend-mode:darken"/>
</g>
<g filter="url(#filter7_i_10_12030)">
<path d="M46.081 75.2872H46.7393C47.1123 75.2872 47.4049 75.1994 47.617 75.0238C47.8364 74.8483 47.9462 74.596 47.9462 74.2668C47.9462 73.9377 47.8438 73.689 47.639 73.5208C47.4342 73.3525 47.1379 73.2684 46.7503 73.2684C46.6186 73.2684 46.4979 73.2721 46.3882 73.2794C46.2858 73.2867 46.1834 73.2977 46.081 73.3123V75.2872ZM46.849 76.6037H44.4243V72.676C44.4243 72.537 44.4646 72.4273 44.545 72.3468C44.6255 72.2664 44.7315 72.2042 44.8632 72.1603C45.1046 72.0725 45.3935 72.0104 45.7299 71.9738C46.0664 71.9372 46.3699 71.9189 46.6406 71.9189C47.628 71.9189 48.374 72.131 48.8787 72.5553C49.3907 72.9722 49.6467 73.5427 49.6467 74.2668C49.6467 74.7349 49.5334 75.1445 49.3066 75.4956C49.0872 75.8467 48.769 76.121 48.3521 76.3185C47.9352 76.5086 47.4342 76.6037 46.849 76.6037ZM44.4243 75.8686H46.092V78.7322C46.0262 78.7541 45.9201 78.7724 45.7738 78.787C45.6275 78.809 45.4776 78.82 45.324 78.82C44.9948 78.82 44.7608 78.7614 44.6218 78.6444C44.4902 78.5274 44.4243 78.3226 44.4243 78.03V75.8686ZM50.3283 74.1022H51.996V78.7322C51.9302 78.7541 51.8241 78.7724 51.6778 78.787C51.5315 78.809 51.3816 78.82 51.228 78.82C50.8988 78.82 50.6648 78.7614 50.5258 78.6444C50.3942 78.5274 50.3283 78.3226 50.3283 78.03V74.1022ZM51.996 76.2088H50.3283V72.0725C50.4015 72.0579 50.5112 72.0396 50.6575 72.0177C50.8111 71.9957 50.961 71.9848 51.1073 71.9848C51.4218 71.9848 51.6486 72.0396 51.7875 72.1493C51.9265 72.259 51.996 72.4675 51.996 72.7747V76.2088ZM59.5874 75.4078C59.5874 76.1685 59.4374 76.8122 59.1375 77.3388C58.845 77.8581 58.439 78.2531 57.9197 78.5237C57.4077 78.7944 56.8262 78.9297 56.1752 78.9297C55.5243 78.9297 54.9428 78.7944 54.4308 78.5237C53.9188 78.2531 53.5165 77.8581 53.2239 77.3388C52.9314 76.8122 52.7851 76.1685 52.7851 75.4078C52.7851 74.6472 52.935 74.0072 53.2349 73.4878C53.5348 72.9612 53.9407 72.5662 54.4527 72.3029C54.9647 72.0323 55.5389 71.897 56.1752 71.897C56.8189 71.897 57.3967 72.0323 57.9087 72.3029C58.428 72.5662 58.8376 72.9612 59.1375 73.4878C59.4374 74.0072 59.5874 74.6472 59.5874 75.4078ZM57.8648 75.4078C57.8648 74.7057 57.7112 74.1717 57.404 73.806C57.1042 73.4403 56.6946 73.2574 56.1752 73.2574C55.6779 73.2574 55.2756 73.4403 54.9684 73.806C54.6612 74.1644 54.5076 74.6984 54.5076 75.4078C54.5076 76.1246 54.6575 76.6659 54.9574 77.0316C55.2646 77.39 55.6742 77.5692 56.1862 77.5692C56.6982 77.5692 57.1042 77.39 57.404 77.0316C57.7112 76.6659 57.8648 76.1246 57.8648 75.4078ZM60.3685 73.9925L61.8825 73.9706C61.9118 74.2851 61.9337 74.596 61.9484 74.9032C61.963 75.2104 61.9703 75.5066 61.9703 75.7918C61.9776 76.0771 61.9813 76.355 61.9813 76.6257V78.7432C61.9154 78.7578 61.8094 78.7724 61.6631 78.787C61.5241 78.809 61.3815 78.82 61.2352 78.82C60.9134 78.82 60.6866 78.7651 60.555 78.6554C60.4306 78.5457 60.3685 78.3482 60.3685 78.0629V73.9925ZM66.2162 76.8122L64.6912 76.8232C64.64 76.2892 64.6108 75.7809 64.6034 75.2981C64.5961 74.8154 64.5925 74.3546 64.5925 73.9157V72.0725C64.6656 72.0579 64.7717 72.0396 64.9106 72.0177C65.0496 71.9957 65.1959 71.9848 65.3495 71.9848C65.664 71.9848 65.8871 72.0433 66.0188 72.1603C66.1504 72.27 66.2162 72.4638 66.2162 72.7418V76.8122ZM66.2162 76.2856V78.5347C66.1212 78.6225 65.9858 78.692 65.8103 78.7432C65.6421 78.8017 65.4409 78.8309 65.2069 78.8309C64.9582 78.8309 64.7241 78.7907 64.5047 78.7102C64.2926 78.6298 64.117 78.4506 63.9781 78.1726L62.6505 75.6492C62.5701 75.4883 62.4896 75.3274 62.4092 75.1665C62.336 75.0056 62.2629 74.8446 62.1897 74.6837C62.1166 74.5155 62.0434 74.3473 61.9703 74.179L60.3685 74.5411V72.3797C60.4562 72.2554 60.5916 72.1603 60.7744 72.0945C60.9646 72.0286 61.1694 71.9957 61.3888 71.9957C61.6302 71.9957 61.8569 72.036 62.069 72.1164C62.2885 72.1969 62.4677 72.3724 62.6066 72.643L63.9452 75.1774C64.0256 75.331 64.1061 75.492 64.1865 75.6602C64.267 75.8211 64.3438 75.982 64.4169 76.1429C64.4901 76.3038 64.5596 76.4684 64.6254 76.6366L66.2162 76.2856ZM67.3225 74.0913H68.9462V78.6773C68.8804 78.692 68.778 78.7102 68.639 78.7322C68.5074 78.7541 68.3648 78.7651 68.2112 78.7651C67.9405 78.7651 67.7248 78.6846 67.5638 78.5237C67.4029 78.3628 67.3225 78.147 67.3225 77.8764V74.0913ZM68.9462 76.7464H67.3225V72.9832C67.3225 72.7052 67.4029 72.4894 67.5638 72.3358C67.7248 72.1749 67.9405 72.0945 68.2112 72.0945C68.3648 72.0945 68.5074 72.1054 68.639 72.1274C68.778 72.1493 68.8804 72.1676 68.9462 72.1822V76.7464ZM68.2112 76.0113V74.6947H71.5245C71.5684 74.7678 71.6086 74.8593 71.6452 74.969C71.6818 75.0787 71.7001 75.1994 71.7001 75.331C71.7001 75.5651 71.6452 75.737 71.5355 75.8467C71.4331 75.9564 71.2941 76.0113 71.1186 76.0113H68.2112ZM68.2112 78.7651V77.4376H71.8866C71.9305 77.5034 71.9707 77.5948 72.0073 77.7118C72.0438 77.8289 72.0621 77.9532 72.0621 78.0849C72.0621 78.3189 72.0073 78.4908 71.8976 78.6005C71.7952 78.7102 71.6562 78.7651 71.4806 78.7651H68.2112ZM68.2112 73.411V72.0945H71.8317C71.8829 72.1603 71.9232 72.2481 71.9524 72.3578C71.989 72.4675 72.0073 72.5882 72.0073 72.7198C72.0073 72.9539 71.9561 73.1294 71.8537 73.2465C71.7513 73.3562 71.6086 73.411 71.4258 73.411H68.2112ZM72.8515 74.0913H74.4752V78.6773C74.4094 78.692 74.307 78.7102 74.168 78.7322C74.0364 78.7541 73.8938 78.7651 73.7402 78.7651C73.4695 78.7651 73.2538 78.6846 73.0928 78.5237C72.9319 78.3628 72.8515 78.147 72.8515 77.8764V74.0913ZM74.4752 76.7464H72.8515V72.9832C72.8515 72.7052 72.9319 72.4894 73.0928 72.3358C73.2538 72.1749 73.4695 72.0945 73.7402 72.0945C73.8938 72.0945 74.0364 72.1054 74.168 72.1274C74.307 72.1493 74.4094 72.1676 74.4752 72.1822V76.7464ZM73.7402 76.0113V74.6947H77.0535C77.0974 74.7678 77.1376 74.8593 77.1742 74.969C77.2108 75.0787 77.2291 75.1994 77.2291 75.331C77.2291 75.5651 77.1742 75.737 77.0645 75.8467C76.9621 75.9564 76.8231 76.0113 76.6476 76.0113H73.7402ZM73.7402 78.7651V77.4376H77.4156C77.4595 77.5034 77.4997 77.5948 77.5363 77.7118C77.5728 77.8289 77.5911 77.9532 77.5911 78.0849C77.5911 78.3189 77.5363 78.4908 77.4266 78.6005C77.3242 78.7102 77.1852 78.7651 77.0096 78.7651H73.7402ZM73.7402 73.411V72.0945H77.3607C77.4119 72.1603 77.4522 72.2481 77.4814 72.3578C77.518 72.4675 77.5363 72.5882 77.5363 72.7198C77.5363 72.9539 77.4851 73.1294 77.3827 73.2465C77.2803 73.3562 77.1376 73.411 76.9548 73.411H73.7402ZM80.0372 75.2104H80.7503C81.116 75.2104 81.4086 75.1299 81.628 74.969C81.8548 74.8008 81.9681 74.5557 81.9681 74.2339C81.9681 73.9194 81.8621 73.6817 81.65 73.5208C81.4378 73.3525 81.1124 73.2684 80.6735 73.2684C80.5492 73.2684 80.4358 73.2721 80.3334 73.2794C80.231 73.2867 80.1322 73.3013 80.0372 73.3233V75.2104ZM80.9039 76.505H78.3805V72.676C78.3805 72.537 78.4207 72.4273 78.5012 72.3468C78.5816 72.2664 78.6877 72.2042 78.8193 72.1603C79.0607 72.0725 79.3423 72.0104 79.6641 71.9738C79.9933 71.9372 80.3334 71.9189 80.6845 71.9189C81.6719 71.9189 82.4143 72.1274 82.9117 72.5443C83.409 72.9539 83.6577 73.5134 83.6577 74.2229C83.6577 74.6618 83.537 75.0568 83.2957 75.4078C83.0616 75.7516 82.7361 76.0222 82.3192 76.2197C81.9096 76.4099 81.4378 76.505 80.9039 76.505ZM80.5967 76.11L82.0888 75.7589C82.257 75.993 82.4289 76.2234 82.6045 76.4501C82.7873 76.6769 82.9592 76.8963 83.1201 77.1084C83.2884 77.3205 83.4383 77.518 83.57 77.7009C83.7016 77.8764 83.8077 78.0264 83.8881 78.1507C83.8223 78.3701 83.7053 78.542 83.537 78.6664C83.3688 78.7834 83.1786 78.8419 82.9665 78.8419C82.6959 78.8419 82.4874 78.7834 82.3412 78.6664C82.2022 78.542 82.0705 78.3811 81.9462 78.1836L80.5967 76.11ZM78.3805 75.8796H80.0481V78.7322C79.9823 78.7541 79.8762 78.7724 79.73 78.787C79.5837 78.809 79.4337 78.82 79.2801 78.82C78.951 78.82 78.7169 78.7614 78.578 78.6444C78.4463 78.5274 78.3805 78.3226 78.3805 78.03V75.8796Z" fill="black" fill-opacity="0.24" style="mix-blend-mode:color-burn"/>
<path d="M46.081 75.2872H46.7393C47.1123 75.2872 47.4049 75.1994 47.617 75.0238C47.8364 74.8483 47.9462 74.596 47.9462 74.2668C47.9462 73.9377 47.8438 73.689 47.639 73.5208C47.4342 73.3525 47.1379 73.2684 46.7503 73.2684C46.6186 73.2684 46.4979 73.2721 46.3882 73.2794C46.2858 73.2867 46.1834 73.2977 46.081 73.3123V75.2872ZM46.849 76.6037H44.4243V72.676C44.4243 72.537 44.4646 72.4273 44.545 72.3468C44.6255 72.2664 44.7315 72.2042 44.8632 72.1603C45.1046 72.0725 45.3935 72.0104 45.7299 71.9738C46.0664 71.9372 46.3699 71.9189 46.6406 71.9189C47.628 71.9189 48.374 72.131 48.8787 72.5553C49.3907 72.9722 49.6467 73.5427 49.6467 74.2668C49.6467 74.7349 49.5334 75.1445 49.3066 75.4956C49.0872 75.8467 48.769 76.121 48.3521 76.3185C47.9352 76.5086 47.4342 76.6037 46.849 76.6037ZM44.4243 75.8686H46.092V78.7322C46.0262 78.7541 45.9201 78.7724 45.7738 78.787C45.6275 78.809 45.4776 78.82 45.324 78.82C44.9948 78.82 44.7608 78.7614 44.6218 78.6444C44.4902 78.5274 44.4243 78.3226 44.4243 78.03V75.8686ZM50.3283 74.1022H51.996V78.7322C51.9302 78.7541 51.8241 78.7724 51.6778 78.787C51.5315 78.809 51.3816 78.82 51.228 78.82C50.8988 78.82 50.6648 78.7614 50.5258 78.6444C50.3942 78.5274 50.3283 78.3226 50.3283 78.03V74.1022ZM51.996 76.2088H50.3283V72.0725C50.4015 72.0579 50.5112 72.0396 50.6575 72.0177C50.8111 71.9957 50.961 71.9848 51.1073 71.9848C51.4218 71.9848 51.6486 72.0396 51.7875 72.1493C51.9265 72.259 51.996 72.4675 51.996 72.7747V76.2088ZM59.5874 75.4078C59.5874 76.1685 59.4374 76.8122 59.1375 77.3388C58.845 77.8581 58.439 78.2531 57.9197 78.5237C57.4077 78.7944 56.8262 78.9297 56.1752 78.9297C55.5243 78.9297 54.9428 78.7944 54.4308 78.5237C53.9188 78.2531 53.5165 77.8581 53.2239 77.3388C52.9314 76.8122 52.7851 76.1685 52.7851 75.4078C52.7851 74.6472 52.935 74.0072 53.2349 73.4878C53.5348 72.9612 53.9407 72.5662 54.4527 72.3029C54.9647 72.0323 55.5389 71.897 56.1752 71.897C56.8189 71.897 57.3967 72.0323 57.9087 72.3029C58.428 72.5662 58.8376 72.9612 59.1375 73.4878C59.4374 74.0072 59.5874 74.6472 59.5874 75.4078ZM57.8648 75.4078C57.8648 74.7057 57.7112 74.1717 57.404 73.806C57.1042 73.4403 56.6946 73.2574 56.1752 73.2574C55.6779 73.2574 55.2756 73.4403 54.9684 73.806C54.6612 74.1644 54.5076 74.6984 54.5076 75.4078C54.5076 76.1246 54.6575 76.6659 54.9574 77.0316C55.2646 77.39 55.6742 77.5692 56.1862 77.5692C56.6982 77.5692 57.1042 77.39 57.404 77.0316C57.7112 76.6659 57.8648 76.1246 57.8648 75.4078ZM60.3685 73.9925L61.8825 73.9706C61.9118 74.2851 61.9337 74.596 61.9484 74.9032C61.963 75.2104 61.9703 75.5066 61.9703 75.7918C61.9776 76.0771 61.9813 76.355 61.9813 76.6257V78.7432C61.9154 78.7578 61.8094 78.7724 61.6631 78.787C61.5241 78.809 61.3815 78.82 61.2352 78.82C60.9134 78.82 60.6866 78.7651 60.555 78.6554C60.4306 78.5457 60.3685 78.3482 60.3685 78.0629V73.9925ZM66.2162 76.8122L64.6912 76.8232C64.64 76.2892 64.6108 75.7809 64.6034 75.2981C64.5961 74.8154 64.5925 74.3546 64.5925 73.9157V72.0725C64.6656 72.0579 64.7717 72.0396 64.9106 72.0177C65.0496 71.9957 65.1959 71.9848 65.3495 71.9848C65.664 71.9848 65.8871 72.0433 66.0188 72.1603C66.1504 72.27 66.2162 72.4638 66.2162 72.7418V76.8122ZM66.2162 76.2856V78.5347C66.1212 78.6225 65.9858 78.692 65.8103 78.7432C65.6421 78.8017 65.4409 78.8309 65.2069 78.8309C64.9582 78.8309 64.7241 78.7907 64.5047 78.7102C64.2926 78.6298 64.117 78.4506 63.9781 78.1726L62.6505 75.6492C62.5701 75.4883 62.4896 75.3274 62.4092 75.1665C62.336 75.0056 62.2629 74.8446 62.1897 74.6837C62.1166 74.5155 62.0434 74.3473 61.9703 74.179L60.3685 74.5411V72.3797C60.4562 72.2554 60.5916 72.1603 60.7744 72.0945C60.9646 72.0286 61.1694 71.9957 61.3888 71.9957C61.6302 71.9957 61.8569 72.036 62.069 72.1164C62.2885 72.1969 62.4677 72.3724 62.6066 72.643L63.9452 75.1774C64.0256 75.331 64.1061 75.492 64.1865 75.6602C64.267 75.8211 64.3438 75.982 64.4169 76.1429C64.4901 76.3038 64.5596 76.4684 64.6254 76.6366L66.2162 76.2856ZM67.3225 74.0913H68.9462V78.6773C68.8804 78.692 68.778 78.7102 68.639 78.7322C68.5074 78.7541 68.3648 78.7651 68.2112 78.7651C67.9405 78.7651 67.7248 78.6846 67.5638 78.5237C67.4029 78.3628 67.3225 78.147 67.3225 77.8764V74.0913ZM68.9462 76.7464H67.3225V72.9832C67.3225 72.7052 67.4029 72.4894 67.5638 72.3358C67.7248 72.1749 67.9405 72.0945 68.2112 72.0945C68.3648 72.0945 68.5074 72.1054 68.639 72.1274C68.778 72.1493 68.8804 72.1676 68.9462 72.1822V76.7464ZM68.2112 76.0113V74.6947H71.5245C71.5684 74.7678 71.6086 74.8593 71.6452 74.969C71.6818 75.0787 71.7001 75.1994 71.7001 75.331C71.7001 75.5651 71.6452 75.737 71.5355 75.8467C71.4331 75.9564 71.2941 76.0113 71.1186 76.0113H68.2112ZM68.2112 78.7651V77.4376H71.8866C71.9305 77.5034 71.9707 77.5948 72.0073 77.7118C72.0438 77.8289 72.0621 77.9532 72.0621 78.0849C72.0621 78.3189 72.0073 78.4908 71.8976 78.6005C71.7952 78.7102 71.6562 78.7651 71.4806 78.7651H68.2112ZM68.2112 73.411V72.0945H71.8317C71.8829 72.1603 71.9232 72.2481 71.9524 72.3578C71.989 72.4675 72.0073 72.5882 72.0073 72.7198C72.0073 72.9539 71.9561 73.1294 71.8537 73.2465C71.7513 73.3562 71.6086 73.411 71.4258 73.411H68.2112ZM72.8515 74.0913H74.4752V78.6773C74.4094 78.692 74.307 78.7102 74.168 78.7322C74.0364 78.7541 73.8938 78.7651 73.7402 78.7651C73.4695 78.7651 73.2538 78.6846 73.0928 78.5237C72.9319 78.3628 72.8515 78.147 72.8515 77.8764V74.0913ZM74.4752 76.7464H72.8515V72.9832C72.8515 72.7052 72.9319 72.4894 73.0928 72.3358C73.2538 72.1749 73.4695 72.0945 73.7402 72.0945C73.8938 72.0945 74.0364 72.1054 74.168 72.1274C74.307 72.1493 74.4094 72.1676 74.4752 72.1822V76.7464ZM73.7402 76.0113V74.6947H77.0535C77.0974 74.7678 77.1376 74.8593 77.1742 74.969C77.2108 75.0787 77.2291 75.1994 77.2291 75.331C77.2291 75.5651 77.1742 75.737 77.0645 75.8467C76.9621 75.9564 76.8231 76.0113 76.6476 76.0113H73.7402ZM73.7402 78.7651V77.4376H77.4156C77.4595 77.5034 77.4997 77.5948 77.5363 77.7118C77.5728 77.8289 77.5911 77.9532 77.5911 78.0849C77.5911 78.3189 77.5363 78.4908 77.4266 78.6005C77.3242 78.7102 77.1852 78.7651 77.0096 78.7651H73.7402ZM73.7402 73.411V72.0945H77.3607C77.4119 72.1603 77.4522 72.2481 77.4814 72.3578C77.518 72.4675 77.5363 72.5882 77.5363 72.7198C77.5363 72.9539 77.4851 73.1294 77.3827 73.2465C77.2803 73.3562 77.1376 73.411 76.9548 73.411H73.7402ZM80.0372 75.2104H80.7503C81.116 75.2104 81.4086 75.1299 81.628 74.969C81.8548 74.8008 81.9681 74.5557 81.9681 74.2339C81.9681 73.9194 81.8621 73.6817 81.65 73.5208C81.4378 73.3525 81.1124 73.2684 80.6735 73.2684C80.5492 73.2684 80.4358 73.2721 80.3334 73.2794C80.231 73.2867 80.1322 73.3013 80.0372 73.3233V75.2104ZM80.9039 76.505H78.3805V72.676C78.3805 72.537 78.4207 72.4273 78.5012 72.3468C78.5816 72.2664 78.6877 72.2042 78.8193 72.1603C79.0607 72.0725 79.3423 72.0104 79.6641 71.9738C79.9933 71.9372 80.3334 71.9189 80.6845 71.9189C81.6719 71.9189 82.4143 72.1274 82.9117 72.5443C83.409 72.9539 83.6577 73.5134 83.6577 74.2229C83.6577 74.6618 83.537 75.0568 83.2957 75.4078C83.0616 75.7516 82.7361 76.0222 82.3192 76.2197C81.9096 76.4099 81.4378 76.505 80.9039 76.505ZM80.5967 76.11L82.0888 75.7589C82.257 75.993 82.4289 76.2234 82.6045 76.4501C82.7873 76.6769 82.9592 76.8963 83.1201 77.1084C83.2884 77.3205 83.4383 77.518 83.57 77.7009C83.7016 77.8764 83.8077 78.0264 83.8881 78.1507C83.8223 78.3701 83.7053 78.542 83.537 78.6664C83.3688 78.7834 83.1786 78.8419 82.9665 78.8419C82.6959 78.8419 82.4874 78.7834 82.3412 78.6664C82.2022 78.542 82.0705 78.3811 81.9462 78.1836L80.5967 76.11ZM78.3805 75.8796H80.0481V78.7322C79.9823 78.7541 79.8762 78.7724 79.73 78.787C79.5837 78.809 79.4337 78.82 79.2801 78.82C78.951 78.82 78.7169 78.7614 78.578 78.6444C78.4463 78.5274 78.3805 78.3226 78.3805 78.03V75.8796Z" fill="black" fill-opacity="0.32" style="mix-blend-mode:darken"/>
</g>
<defs>
<filter id="filter0_dddd_10_12030" x="6.65891" y="1.07746" width="114.791" height="150.702" filterUnits="userSpaceOnUse" color-interpolation-filters="sRGB">
<feFlood flood-opacity="0" result="BackgroundImageFix"/>
<feColorMatrix in="SourceAlpha" type="matrix" values="0 0 0 0 0 0 0 0 0 0 0 0 0 0 0 0 0 0 127 0" result="hardAlpha"/>
<feOffset dy="2.28571"/>
<feGaussianBlur stdDeviation="2.51429"/>
<feColorMatrix type="matrix" values="0 0 0 0 0 0 0 0 0 0 0 0 0 0 0 0 0 0 0.24 0"/>
<feBlend mode="normal" in2="BackgroundImageFix" result="effect1_dropShadow_10_12030"/>
<feColorMatrix in="SourceAlpha" type="matrix" values="0 0 0 0 0 0 0 0 0 0 0 0 0 0 0 0 0 0 127 0" result="hardAlpha"/>
<feOffset dy="9.6"/>
<feGaussianBlur stdDeviation="4.8"/>
<feColorMatrix type="matrix" values="0 0 0 0 0 0 0 0 0 0 0 0 0 0 0 0 0 0 0.21 0"/>
<feBlend mode="normal" in2="effect1_dropShadow_10_12030" result="effect2_dropShadow_10_12030"/>
<feColorMatrix in="SourceAlpha" type="matrix" values="0 0 0 0 0 0 0 0 0 0 0 0 0 0 0 0 0 0 127 0" result="hardAlpha"/>
<feOffset dy="21.0286"/>
<feGaussianBlur stdDeviation="6.4"/>
<feColorMatrix type="matrix" values="0 0 0 0 0 0 0 0 0 0 0 0 0 0 0 0 0 0 0.12 0"/>
<feBlend mode="normal" in2="effect2_dropShadow_10_12030" result="effect3_dropShadow_10_12030"/>
<feColorMatrix in="SourceAlpha" type="matrix" values="0 0 0 0 0 0 0 0 0 0 0 0 0 0 0 0 0 0 127 0" result="hardAlpha"/>
<feOffset dy="37.4857"/>
<feGaussianBlur stdDeviation="7.54286"/>
<feColorMatrix type="matrix" values="0 0 0 0 0 0 0 0 0 0 0 0 0 0 0 0 0 0 0.04 0"/>
<feBlend mode="normal" in2="effect3_dropShadow_10_12030" result="effect4_dropShadow_10_12030"/>
<feBlend mode="normal" in="SourceGraphic" in2="effect4_dropShadow_10_12030" result="shape"/>
</filter>
<filter id="filter1_d_10_12030" x="18.088" y="1.07746" width="91.9334" height="102.703" filterUnits="userSpaceOnUse" color-interpolation-filters="sRGB">
<feFlood flood-opacity="0" result="BackgroundImageFix"/>
<feColorMatrix in="SourceAlpha" type="matrix" values="0 0 0 0 0 0 0 0 0 0 0 0 0 0 0 0 0 0 127 0" result="hardAlpha"/>
<feOffset dy="0.914286"/>
<feGaussianBlur stdDeviation="1.82857"/>
<feColorMatrix type="matrix" values="0 0 0 0 0 0 0 0 0 0 0 0 0 0 0 0 0 0 0.16 0"/>
<feBlend mode="color-burn" in2="BackgroundImageFix" result="effect1_dropShadow_10_12030"/>
<feBlend mode="normal" in="SourceGraphic" in2="effect1_dropShadow_10_12030" result="shape"/>
</filter>
<filter id="filter2_d_10_12030" x="40.3954" y="23.8397" width="47.0854" height="45.2576" filterUnits="userSpaceOnUse" color-interpolation-filters="sRGB">
<feFlood flood-opacity="0" result="BackgroundImageFix"/>
<feColorMatrix in="SourceAlpha" type="matrix" values="0 0 0 0 0 0 0 0 0 0 0 0 0 0 0 0 0 0 127 0" result="hardAlpha"/>
<feOffset dy="0.914286"/>
<feGaussianBlur stdDeviation="2.74286"/>
<feColorMatrix type="matrix" values="0 0 0 0 0 0 0 0 0 0 0 0 0 0 0 0 0 0 0.12 0"/>
<feBlend mode="plus-darker" in2="BackgroundImageFix" result="effect1_dropShadow_10_12030"/>
<feBlend mode="normal" in="SourceGraphic" in2="effect1_dropShadow_10_12030" result="shape"/>
</filter>
<filter id="filter3_dd_10_12030" x="10.9716" y="66.5431" width="105.926" height="31.9997" filterUnits="userSpaceOnUse" color-interpolation-filters="sRGB">
<feFlood flood-opacity="0" result="BackgroundImageFix"/>
<feColorMatrix in="SourceAlpha" type="matrix" values="0 0 0 0 0 0 0 0 0 0 0 0 0 0 0 0 0 0 127 0" result="hardAlpha"/>
<feOffset dy="1.82857"/>
<feGaussianBlur stdDeviation="2.74286"/>
<feColorMatrix type="matrix" values="0 0 0 0 0 0 0 0 0 0 0 0 0 0 0 0 0 0 0.16 0"/>
<feBlend mode="normal" in2="BackgroundImageFix" result="effect1_dropShadow_10_12030"/>
<feColorMatrix in="SourceAlpha" type="matrix" values="0 0 0 0 0 0 0 0 0 0 0 0 0 0 0 0 0 0 127 0" result="hardAlpha"/>
<feOffset dy="0.914286"/>
<feGaussianBlur stdDeviation="0.914286"/>
<feColorMatrix type="matrix" values="0 0 0 0 0 0 0 0 0 0 0 0 0 0 0 0 0 0 0.24 0"/>
<feBlend mode="normal" in2="effect1_dropShadow_10_12030" result="effect2_dropShadow_10_12030"/>
<feBlend mode="normal" in="SourceGraphic" in2="effect2_dropShadow_10_12030" result="shape"/>
</filter>
<filter id="filter4_dd_10_12030" x="18.2199" y="61.0567" width="91.4285" height="31.9997" filterUnits="userSpaceOnUse" color-interpolation-filters="sRGB">
<feFlood flood-opacity="0" result="BackgroundImageFix"/>
<feColorMatrix in="SourceAlpha" type="matrix" values="0 0 0 0 0 0 0 0 0 0 0 0 0 0 0 0 0 0 127 0" result="hardAlpha"/>
<feOffset dy="1.82857"/>
<feGaussianBlur stdDeviation="2.74286"/>
<feColorMatrix type="matrix" values="0 0 0 0 0 0 0 0 0 0 0 0 0 0 0 0 0 0 0.16 0"/>
<feBlend mode="normal" in2="BackgroundImageFix" result="effect1_dropShadow_10_12030"/>
<feColorMatrix in="SourceAlpha" type="matrix" values="0 0 0 0 0 0 0 0 0 0 0 0 0 0 0 0 0 0 127 0" result="hardAlpha"/>
<feOffset dy="0.914286"/>
<feGaussianBlur stdDeviation="0.914286"/>
<feColorMatrix type="matrix" values="0 0 0 0 0 0 0 0 0 0 0 0 0 0 0 0 0 0 0.24 0"/>
<feBlend mode="normal" in2="effect1_dropShadow_10_12030" result="effect2_dropShadow_10_12030"/>
<feBlend mode="normal" in="SourceGraphic" in2="effect2_dropShadow_10_12030" result="shape"/>
</filter>
<filter id="filter5_i_10_12030" x="27.3628" y="73.8574" width="2.74292" height="3.20031" filterUnits="userSpaceOnUse" color-interpolation-filters="sRGB">
<feFlood flood-opacity="0" result="BackgroundImageFix"/>
<feBlend mode="normal" in="SourceGraphic" in2="BackgroundImageFix" result="shape"/>
<feColorMatrix in="SourceAlpha" type="matrix" values="0 0 0 0 0 0 0 0 0 0 0 0 0 0 0 0 0 0 127 0" result="hardAlpha"/>
<feOffset dy="0.457143"/>
<feGaussianBlur stdDeviation="0.457143"/>
<feComposite in2="hardAlpha" operator="arithmetic" k2="-1" k3="1"/>
<feColorMatrix type="matrix" values="0 0 0 0 0 0 0 0 0 0 0 0 0 0 0 0 0 0 0.24 0"/>
<feBlend mode="darken" in2="shape" result="effect1_innerShadow_10_12030"/>
</filter>
<filter id="filter6_i_10_12030" x="97.7627" y="73.8574" width="2.74292" height="3.20031" filterUnits="userSpaceOnUse" color-interpolation-filters="sRGB">
<feFlood flood-opacity="0" result="BackgroundImageFix"/>
<feBlend mode="normal" in="SourceGraphic" in2="BackgroundImageFix" result="shape"/>
<feColorMatrix in="SourceAlpha" type="matrix" values="0 0 0 0 0 0 0 0 0 0 0 0 0 0 0 0 0 0 127 0" result="hardAlpha"/>
<feOffset dy="0.457143"/>
<feGaussianBlur stdDeviation="0.457143"/>
<feComposite in2="hardAlpha" operator="arithmetic" k2="-1" k3="1"/>
<feColorMatrix type="matrix" values="0 0 0 0 0 0 0 0 0 0 0 0 0 0 0 0 0 0 0.24 0"/>
<feBlend mode="darken" in2="shape" result="effect1_innerShadow_10_12030"/>
</filter>
<filter id="filter7_i_10_12030" x="44.4243" y="71.8975" width="39.4639" height="7.48937" filterUnits="userSpaceOnUse" color-interpolation-filters="sRGB">
<feFlood flood-opacity="0" result="BackgroundImageFix"/>
<feBlend mode="normal" in="SourceGraphic" in2="BackgroundImageFix" result="shape"/>
<feColorMatrix in="SourceAlpha" type="matrix" values="0 0 0 0 0 0 0 0 0 0 0 0 0 0 0 0 0 0 127 0" result="hardAlpha"/>
<feOffset dy="0.457143"/>
<feGaussianBlur stdDeviation="0.457143"/>
<feComposite in2="hardAlpha" operator="arithmetic" k2="-1" k3="1"/>
<feColorMatrix type="matrix" values="0 0 0 0 0 0 0 0 0 0 0 0 0 0 0 0 0 0 0.24 0"/>
<feBlend mode="darken" in2="shape" result="effect1_innerShadow_10_12030"/>
</filter>
<linearGradient id="paint0_linear_10_12030" x1="64" y1="1.50443" x2="64" y2="99.832" gradientUnits="userSpaceOnUse">
<stop stop-color="white"/>
<stop offset="1" stop-color="white" stop-opacity="0"/>
</linearGradient>
<radialGradient id="paint1_radial_10_12030" cx="0" cy="0" r="1" gradientUnits="userSpaceOnUse" gradientTransform="translate(64 29.7474) rotate(90) scale(64.8543 49.2063)">
<stop stop-color="white"/>
<stop offset="1" stop-color="white" stop-opacity="0"/>
</radialGradient>
<linearGradient id="paint2_linear_10_12030" x1="106.112" y1="5.57082" x2="106.112" y2="99.2691" gradientUnits="userSpaceOnUse">
<stop stop-color="#49F0BC"/>
<stop offset="1" stop-color="#29DCCC"/>
</linearGradient>
<linearGradient id="paint3_linear_10_12030" x1="63.5427" y1="1.50443" x2="63.5427" y2="99.832" gradientUnits="userSpaceOnUse">
<stop stop-color="white"/>
<stop offset="1" stop-color="white" stop-opacity="0"/>
</linearGradient>
<radialGradient id="paint4_radial_10_12030" cx="0" cy="0" r="1" gradientUnits="userSpaceOnUse" gradientTransform="translate(63.5427 29.7474) rotate(90) scale(64.8543 49.2063)">
<stop stop-color="white"/>
<stop offset="1" stop-color="white" stop-opacity="0"/>
</radialGradient>
<linearGradient id="paint5_linear_10_12030" x1="-0.000244141" y1="-13" x2="-0.000244141" y2="115" gradientUnits="userSpaceOnUse">
<stop stop-color="white"/>
<stop offset="1" stop-color="white" stop-opacity="0.01"/>
</linearGradient>
<linearGradient id="paint6_linear_10_12030" x1="64.0547" y1="3.82031" x2="64.0547" y2="99.2087" gradientUnits="userSpaceOnUse">
<stop stop-color="white"/>
<stop offset="1" stop-color="#999999"/>
</linearGradient>
<linearGradient id="paint7_linear_10_12030" x1="63.9379" y1="28.6396" x2="63.9379" y2="62.4682" gradientUnits="userSpaceOnUse">
<stop stop-color="#DFDFDF"/>
<stop offset="1" stop-color="#A9A9A9"/>
</linearGradient>
<linearGradient id="paint8_linear_10_12030" x1="63.9343" y1="70.2002" x2="63.9343" y2="91.2285" gradientUnits="userSpaceOnUse">
<stop stop-opacity="0"/>
<stop offset="1" stop-opacity="0.16"/>
</linearGradient>
<linearGradient id="paint9_linear_10_12030" x1="63.9343" y1="59.686" x2="63.9343" y2="91.2285" gradientUnits="userSpaceOnUse">
<stop stop-color="white"/>
<stop offset="1" stop-color="white" stop-opacity="0"/>
</linearGradient>
<radialGradient id="paint10_radial_10_12030" cx="0" cy="0" r="1" gradientUnits="userSpaceOnUse" gradientTransform="translate(63.9343 70.2002) rotate(90) scale(21.0283 88.3294)">
<stop stop-color="white"/>
<stop offset="1" stop-color="white" stop-opacity="0"/>
</radialGradient>
<linearGradient id="paint11_linear_10_12030" x1="63.9341" y1="64.7139" x2="63.9341" y2="85.7424" gradientUnits="userSpaceOnUse">
<stop stop-opacity="0"/>
<stop offset="1" stop-opacity="0.16"/>
</linearGradient>
<linearGradient id="paint12_linear_10_12030" x1="63.9341" y1="64.7139" x2="63.9341" y2="85.7424" gradientUnits="userSpaceOnUse">
<stop stop-color="white"/>
<stop offset="1" stop-color="white" stop-opacity="0"/>
</linearGradient>
<radialGradient id="paint13_radial_10_12030" cx="0" cy="0" r="1" gradientUnits="userSpaceOnUse" gradientTransform="translate(63.9341 68.3834) rotate(90) scale(17.359 40.2286)">
<stop stop-color="white"/>
<stop offset="1" stop-color="white" stop-opacity="0"/>
</radialGradient>
</defs>
</svg>
