<svg width="22" height="40" viewBox="0 0 22 40" fill="none" xmlns="http://www.w3.org/2000/svg">
<path d="M1.14179 18.0758C1.14179 18.0758 0.913439 18.1723 0.825611 17.8918C0.957352 17.6726 0.228383 15.709 7.2019 14.3853C14.6848 13.3158 18.3911 14.8587 18.277 14.771C15.0526 13.618 11.6021 13.2366 8.20313 13.6577C2.33625 14.4116 1.10666 15.5687 0.298645 17.1642C0.298645 17.1642 0.0527281 14.9113 0.0439453 14.5343C0.0966419 14.3502 1.4931 11.3259 9.26585 10.3792C6.38619 10.3293 3.54928 11.0789 1.07153 12.5444C1.07153 12.5444 0.887091 11.8343 2.09033 10.9577C4.65837 9.40908 7.59206 8.56815 10.592 8.52073C12.848 8.43332 15.101 8.75712 17.2406 9.47624C19.2079 10.1688 20.3848 11.1418 20.297 11.9658C20.2859 12.2155 20.2325 12.4616 20.1389 12.6934C20.1389 12.6934 21.3246 13.0178 21.1402 14.6833C20.9557 16.3489 21.0787 18.0145 20.2619 17.9531C20.1477 18.0495 19.1904 16.2963 10.6008 16.1999C2.06398 16.4892 1.25597 18.181 1.14179 18.0758Z" fill="white"/>
<path d="M3.66252 27.6134C3.62376 27.5703 3.58271 27.5294 3.53956 27.4907C3.47939 27.441 3.4147 27.3969 3.34634 27.3592C3.29586 27.3294 3.23809 27.3143 3.17947 27.3154C3.15553 27.3146 3.13206 27.322 3.1129 27.3364C3.09374 27.3507 3.08005 27.3711 3.07408 27.3943C3.01451 27.56 2.96754 27.7299 2.93355 27.9027C2.93355 27.9816 2.93355 28.0517 2.88964 28.1306C2.77546 27.3592 2.66129 26.5702 2.55589 25.7901C2.17823 23.0901 1.85327 20.3813 1.581 17.8041C1.581 17.5411 1.52831 17.2869 1.51074 17.0327L2.33632 16.8486C2.33632 17.0414 2.33632 17.2343 2.3978 17.4184C2.45928 17.6025 2.3978 17.7515 2.44171 17.918L2.52076 18.6544C2.77546 20.9774 3.07407 23.3881 3.39904 25.7725L3.66252 27.6134Z" fill="white"/>
<path d="M4.07519 30.3397L4.01371 30.5238C3.98943 30.5988 3.9539 30.6697 3.90831 30.7341C3.87996 30.7804 3.84438 30.8218 3.80292 30.8569C3.78263 30.8676 3.76002 30.8732 3.73705 30.8732C3.71408 30.8732 3.69147 30.8676 3.67118 30.8569C3.62971 30.8317 3.59362 30.7986 3.56499 30.7595C3.53635 30.7204 3.51573 30.676 3.50431 30.629C3.4679 30.4855 3.44728 30.3385 3.44283 30.1906C3.43019 30.0009 3.43019 29.8106 3.44283 29.6208C3.44283 29.4105 3.48674 29.2088 3.52187 29.0072C3.557 28.8056 3.6097 28.6215 3.6624 28.4374C3.71509 28.2533 3.70631 28.2796 3.73266 28.2183C3.85562 28.9371 3.96979 29.6384 4.07519 30.3397Z" fill="white"/>
<path d="M17.0298 31.2952V31.3478C17.0256 31.3129 17.0256 31.2776 17.0298 31.2426L17.1173 31.1725L17.0298 31.2952Z" fill="white"/>
<path d="M17.8289 31.3127C17.6621 32.3471 17.4952 33.3552 17.3283 34.3458C16.9858 36.2831 16.6345 38.1153 16.2744 39.7896C12.4206 40.2631 8.51038 39.9408 4.78654 38.8429C4.42645 37.2124 4.07514 35.4328 3.74139 33.5832C3.60087 32.7591 3.45156 31.9088 3.31104 31.041C3.39806 31.1199 3.50977 31.1664 3.62722 31.1725C3.68447 31.1802 3.74274 31.1748 3.79756 31.1566C3.85237 31.1383 3.90227 31.1078 3.9434 31.0673C4.00787 31.0002 4.06123 30.9232 4.10148 30.8394C4.26836 31.8825 4.43523 32.8994 4.61089 33.8812L4.76897 34.7578C4.98854 35.9851 5.2169 37.1598 5.44525 38.2643C8.70914 39.3304 12.1807 39.6038 15.5718 39.062C15.7913 37.9925 16.0109 36.8617 16.2217 35.6783C16.292 35.3189 16.3534 34.9507 16.4149 34.5825C16.5496 33.8111 16.6813 33.0221 16.8101 32.2156L16.977 32.0316L17.3283 31.5845C17.5048 31.5127 17.6727 31.4215 17.8289 31.3127Z" fill="white"/>
<path d="M17.9607 30.6378L17.908 30.9797C17.8279 31.0422 17.7427 31.0979 17.6533 31.1463L17.8202 30.8833L17.9607 30.6378Z" fill="white"/>
<path d="M18.1101 29.6384V29.9014C18.0574 29.8595 17.993 29.835 17.9257 29.8313C17.8642 29.8313 17.8115 29.8751 17.7764 29.9628L17.7149 30.0855C17.7149 30.1469 17.6446 30.2258 17.592 30.3134L17.4251 30.5852C17.3548 30.6728 17.2933 30.7605 17.2231 30.8394L17.1265 30.9446L17.2582 30.068C17.3263 29.9973 17.403 29.9354 17.4866 29.8839C17.6228 29.7814 17.778 29.7069 17.9433 29.6647C17.9975 29.6488 18.0536 29.64 18.1101 29.6384Z" fill="white"/>
<path d="M19.6733 16.8398L19.5943 17.585C19.3308 20.3901 18.9883 23.3093 18.6019 26.2021C18.4613 27.2453 18.312 28.2797 18.1627 29.2966C18.0722 29.2879 17.981 29.2879 17.8904 29.2966C17.6878 29.3038 17.4883 29.3483 17.302 29.428C17.4689 28.3498 17.6182 27.2453 17.7675 26.1407C18.11 23.5722 18.4262 20.9687 18.6458 18.4353C18.6897 18.0408 18.7248 17.6551 18.7599 17.2694C18.7599 17.0765 18.7599 16.8837 18.8214 16.6996L19.6733 16.8398Z" fill="white"/>
<path d="M1.96729 18.0232C2.28346 17.9443 2.60843 17.883 2.95095 17.8304C3.29348 17.7778 3.63601 17.7164 3.9961 17.6726C4.73906 17.5828 5.48857 17.5593 6.23571 17.6025C5.49658 17.706 4.76781 17.8731 4.05758 18.1021C3.71506 18.2073 3.39009 18.3213 3.07391 18.444C2.75773 18.5667 2.44155 18.6807 2.19564 18.8034C2.09024 18.5404 2.02876 18.2862 1.96729 18.0232Z" fill="white"/>
<path d="M19.085 18.5667C18.5404 18.3739 17.9344 18.181 17.3284 18.0057C16.7224 17.8304 16.0198 17.6551 15.3259 17.5148C14.6321 17.3745 13.9119 17.2343 13.1742 17.1379C12.4256 17.0408 11.6718 16.9881 10.917 16.9801C11.6708 16.8738 12.4305 16.8152 13.1917 16.8047C13.9383 16.8047 14.676 16.8047 15.3962 16.8573C16.1164 16.9099 16.8014 16.9713 17.4602 17.059C18.1189 17.1466 18.7424 17.2431 19.3309 17.3658C19.2343 17.7603 19.164 18.1635 19.085 18.5667Z" fill="white"/>
<path d="M16.7313 35.5117L16.5293 35.5818L16.3448 35.6344L15.9935 35.7221C15.7535 35.7747 15.5163 35.8185 15.2821 35.8536C14.8136 35.9235 14.3415 35.9674 13.8681 35.9851C13.3938 35.9851 12.9283 35.9851 12.4541 35.9851L11.7427 35.9325L11.0312 35.8536L11.7427 35.8098L12.4453 35.7309C12.9195 35.6695 13.385 35.5818 13.8417 35.4767C14.3057 35.3719 14.7632 35.2402 15.2118 35.0822C15.4402 35.0033 15.6598 34.9244 15.8793 34.828L16.1955 34.6877L16.3536 34.6088C16.3997 34.5864 16.4438 34.56 16.4853 34.5299C16.5644 34.8981 16.6522 35.1874 16.7313 35.5117Z" fill="white"/>
<path d="M4.43521 33.7235C4.68113 33.8813 4.94461 34.0303 5.2081 34.1706C5.47158 34.3108 5.72628 34.4599 5.98976 34.5914C6.51156 34.8571 7.05159 35.0856 7.60579 35.2751C7.05026 35.2326 6.49847 35.1506 5.95463 35.0297L5.12905 34.828L4.31226 34.5826C4.35617 34.2933 4.35617 34.0216 4.43521 33.7235Z" fill="white"/>
<path d="M15.6772 5.81198C15.6772 6.46068 15.7299 7.12691 15.7475 7.81067C15.7498 7.83973 15.7451 7.86891 15.7338 7.8958C15.7225 7.92271 15.705 7.94656 15.6827 7.96539C15.6605 7.98422 15.634 7.9975 15.6056 8.00412C15.5771 8.01075 15.5475 8.01055 15.5191 8.00352C14.8165 7.93339 14.1051 7.88078 13.3762 7.85449C12.9019 8.27526 12.4276 8.73111 11.9446 9.15189L11.6547 8.8889C12.1378 8.43306 12.6121 8.01228 13.0863 7.58274C13.0863 6.93404 13.0863 6.29412 13.0424 5.67172L12.3047 5.03178C11.2683 5.03178 10.2144 5.08438 9.17799 5.17204C9.15065 5.17847 9.12223 5.17888 9.09471 5.17322C9.06719 5.16756 9.04124 5.15599 9.01867 5.1393C8.99609 5.12261 8.97744 5.1012 8.964 5.07658C8.95056 5.05195 8.94266 5.0247 8.94086 4.99672C8.94086 4.12011 8.94086 3.28732 8.98477 2.50714L8.57198 2.21785L7.28091 2.39317C7.14917 2.39317 7.05256 2.39317 7.06135 2.25291L7.11404 1.25357C7.11404 1.16591 7.21943 1.07824 7.35118 1.06071C7.78153 0.999348 8.22945 0.937996 8.65103 0.894165C8.77398 0.894165 8.87938 0.89416 8.87059 1.02565V1.98116L9.29217 2.26168C10.2846 2.16526 11.2771 2.11266 12.2695 2.09512C12.3007 2.09016 12.3326 2.09147 12.3632 2.09896C12.3939 2.10646 12.4228 2.11999 12.4481 2.13877C12.4735 2.15755 12.4949 2.1812 12.5109 2.20833C12.527 2.23545 12.5375 2.26552 12.5418 2.29674C12.5418 3.0857 12.5857 3.91849 12.6121 4.7951L13.341 5.43503C14.0612 5.43503 14.7726 5.50516 15.4665 5.57529C15.522 5.58781 15.5721 5.61736 15.61 5.65982C15.6478 5.70227 15.6713 5.75549 15.6772 5.81198Z" fill="white"/>
<path d="M8.38764 5.62792C7.86946 5.68929 7.35127 5.75942 6.84187 5.83832C6.78139 5.84888 6.72584 5.87834 6.68322 5.92245C6.6406 5.96656 6.61312 6.02306 6.60474 6.08377C6.60474 6.53084 6.60474 6.96038 6.60474 7.43375C6.60529 7.46249 6.61227 7.49074 6.62517 7.51644C6.63807 7.54214 6.65656 7.56463 6.6793 7.58228C6.70203 7.59992 6.72842 7.61227 6.75655 7.61842C6.78468 7.62457 6.81383 7.62438 6.84187 7.61785C7.35127 7.53895 7.86946 7.46881 8.39642 7.41621C8.45832 7.4107 8.51647 7.38422 8.5612 7.34116C8.60594 7.29811 8.63457 7.24108 8.64234 7.17954C8.64234 6.71493 8.64234 6.30292 8.64234 5.81202C8.62477 5.69806 8.51938 5.61916 8.38764 5.62792Z" fill="white"/>
<path d="M9.76644 0.710086H10.311C10.4339 0.710086 10.5393 0.622427 10.5393 0.534766V0.149053C10.5393 0.0701571 10.4339 0.0087926 10.311 0.0175588H9.77523C9.65227 0.0175588 9.54688 0.105224 9.54688 0.192886C9.54688 0.280548 9.54688 0.447098 9.54688 0.569825C9.54688 0.692551 9.62592 0.753917 9.76644 0.710086Z" fill="white"/>
<path d="M15.3699 3.27858H14.8956C14.8686 3.27335 14.8408 3.27422 14.8142 3.28109C14.7876 3.28797 14.7629 3.3007 14.7418 3.31835C14.7208 3.33599 14.704 3.3581 14.6926 3.38307C14.6812 3.40805 14.6756 3.43524 14.6761 3.46267C14.6761 3.59417 14.6761 3.73443 14.6761 3.86592C14.6841 3.92419 14.7121 3.97787 14.7553 4.01784C14.7986 4.0578 14.8544 4.08157 14.9132 4.08508L15.3875 4.1289C15.5192 4.1289 15.6158 4.05878 15.607 3.94482C15.5982 3.83086 15.607 3.67306 15.607 3.53281C15.6052 3.4689 15.5801 3.40784 15.5365 3.36106C15.4929 3.31427 15.4336 3.28495 15.3699 3.27858Z" fill="white"/>
<path d="M16.8981 4.45323C16.6229 4.40648 16.3507 4.37141 16.0813 4.34803C16.0553 4.34084 16.028 4.34005 16.0016 4.34572C15.9752 4.35139 15.9506 4.36335 15.9299 4.38059C15.9092 4.39782 15.893 4.41982 15.8826 4.44469C15.8723 4.46955 15.8681 4.49655 15.8705 4.52336C15.8705 4.76882 15.8705 5.02303 15.8705 5.26848C15.8727 5.33056 15.8984 5.38951 15.9424 5.43343C15.9864 5.47736 16.0455 5.50299 16.1077 5.50517L16.9157 5.61913C16.9417 5.62633 16.969 5.62712 16.9954 5.62145C17.0218 5.61578 17.0464 5.60381 17.0671 5.58658C17.0878 5.56934 17.104 5.54734 17.1144 5.52248C17.1247 5.49761 17.1289 5.47062 17.1265 5.4438C17.1265 5.18958 17.1265 4.93536 17.1265 4.68991C17.121 4.63044 17.0954 4.57461 17.0539 4.53159C17.0124 4.48857 16.9574 4.46094 16.8981 4.45323Z" fill="white"/>
<path d="M6.29723 5.4526C6.29723 5.13702 6.29723 4.82143 6.34115 4.51462C6.34115 4.40942 6.24453 4.33929 6.11279 4.36559L5.03251 4.58475C4.97405 4.59965 4.92091 4.63051 4.87902 4.67386C4.83714 4.71721 4.80818 4.77135 4.79538 4.8302C4.79538 5.13701 4.79538 5.4526 4.75146 5.76818C4.75146 5.88214 4.84808 5.94351 4.97103 5.91721L6.0601 5.69805C6.12115 5.68882 6.17746 5.65978 6.22032 5.61542C6.26318 5.57105 6.29021 5.51383 6.29723 5.4526Z" fill="white"/>
<path d="M19.7876 26.8158C19.4714 29.0511 19.1113 31.304 18.7161 33.4693C18.6935 33.5901 18.6417 33.7036 18.5652 33.7998C18.4886 33.8961 18.3897 33.9722 18.2769 34.0216C18.0574 34.1005 17.75 34.2144 17.3548 34.3284L16.4765 34.5563C14.5601 35.0356 12.582 35.2218 10.6096 35.1086C8.61558 34.9629 6.65071 34.5471 4.76905 33.8725L4.53192 33.7849C4.29479 33.706 4.07522 33.6183 3.87321 33.5394C3.44286 33.3729 3.10033 33.2238 2.86319 33.1099C2.75162 33.0542 2.65415 32.974 2.57809 32.8753C2.50203 32.7766 2.44937 32.662 2.42405 32.5401C2.03761 30.4888 1.69509 28.3674 1.37891 26.2723C1.37891 26.0268 1.45795 25.834 1.65996 25.8252H2.66119H3.53947C5.06767 25.8252 7.4478 25.8252 10.6974 25.8778C13.947 25.9304 16.3886 26.0707 17.8993 26.1846L18.7776 26.2547C19.1991 26.2547 19.4977 26.3336 19.6558 26.3687C19.8139 26.4038 19.8315 26.5528 19.7876 26.8158Z" fill="white"/>
</svg>
