<svg width="13" height="16" viewBox="0 0 13 16" fill="none" xmlns="http://www.w3.org/2000/svg">
<path fill-rule="evenodd" clip-rule="evenodd" d="M0.272653 2.46593C6.45717e-08 2.89622 0 4.17526 0 6.73336V7.99312C0 12.5035 3.06147 14.6924 4.98229 15.6218C5.50333 15.8739 5.76384 16 6.5 16C7.23616 16 7.49667 15.8739 8.01768 15.6218C9.9385 14.6924 13 12.5035 13 7.99312V6.73336C13 4.17526 13 2.89622 12.7274 2.46593C12.4547 2.03563 11.369 1.62397 9.19757 0.800632L8.78388 0.643776C7.65194 0.214592 7.08601 0 6.5 0C5.91399 0 5.34806 0.214592 4.21613 0.643776L3.80243 0.800632C1.63101 1.62397 0.5453 2.03563 0.272653 2.46593ZM5.67761 5.09068L5.58292 5.27879C5.47892 5.48542 5.42692 5.58873 5.34589 5.6569C5.26478 5.72506 5.16382 5.75037 4.96192 5.80098L4.77809 5.84705C4.06751 6.02514 3.71223 6.11418 3.6277 6.41528C3.54317 6.7164 3.78538 7.03008 4.26981 7.6576L4.39513 7.81992C4.53279 7.99824 4.60162 8.08736 4.63259 8.19768C4.66355 8.308 4.65314 8.42688 4.63233 8.6648L4.61338 8.88144C4.54014 9.71856 4.50352 10.1372 4.72482 10.3233C4.94612 10.5094 5.27879 10.3397 5.94411 10.0004L6.11621 9.91256C6.30529 9.81616 6.39983 9.76792 6.5 9.76792C6.60017 9.76792 6.69471 9.81616 6.88379 9.91256L7.05589 10.0004C7.72121 10.3397 8.05386 10.5094 8.27515 10.3233C8.49651 10.1372 8.45982 9.71856 8.38659 8.88144L8.36767 8.6648C8.34687 8.42696 8.33647 8.308 8.36745 8.19768C8.39836 8.08736 8.46719 7.99824 8.60484 7.81992L8.73022 7.6576C9.21462 7.03008 9.45685 6.7164 9.37228 6.41528C9.28778 6.11418 8.93252 6.02514 8.22192 5.84705L8.03804 5.80098C7.83618 5.75037 7.73522 5.72506 7.65411 5.6569C7.57308 5.58874 7.52108 5.48542 7.41708 5.2788L7.32239 5.09068C6.95652 4.36356 6.77351 4 6.5 4C6.22649 4 6.04348 4.36356 5.67761 5.09068Z" fill="#8837E9"/>
</svg>
