<svg width="21" height="20" viewBox="0 0 21 20" fill="none" xmlns="http://www.w3.org/2000/svg"><path opacity="0.2" d="M16.9317 16.9683C18.1205 16.3202 18.8346 15.4891 18.8346 14.583C18.8346 13.6226 18.0323 12.7464 16.7127 12.083C15.1868 11.3158 12.9694 10.833 10.5013 10.833C8.03324 10.833 5.81578 11.3158 4.28989 12.083C2.97034 12.7464 2.16797 13.6226 2.16797 14.583C2.16797 15.5434 2.97034 16.4196 4.28989 17.083C5.81578 17.8502 8.03324 18.333 10.5013 18.333C13.0901 18.333 15.4032 17.8018 16.9317 16.9683Z" fill="#1C64F2"/><path fill-rule="evenodd" clip-rule="evenodd" d="M8.20703 3.33366C8.20703 2.06801 9.23303 1.04199 10.4987 1.04199C11.7644 1.04199 12.7904 2.06801 12.7904 3.33366C12.7904 4.59931 11.7644 5.62533 10.4987 5.62533C9.23303 5.62533 8.20703 4.59931 8.20703 3.33366Z" fill="#1C64F2"/><path d="M7.35388 9.64492L5.54113 9.04067C5.01969 8.86684 4.66797 8.37884 4.66797 7.82922C4.66797 7.01625 5.41758 6.41025 6.21251 6.5806L7.79382 6.91945C7.88175 6.93829 7.92572 6.94771 7.96931 6.95672C9.63964 7.30222 11.363 7.30222 13.0333 6.95672C13.0769 6.94771 13.1209 6.93829 13.2088 6.91945L14.7901 6.58059C15.5851 6.41025 16.3346 7.01625 16.3346 7.82922C16.3346 8.37884 15.9829 8.86684 15.4615 9.04067L13.6487 9.64492C13.4296 9.71792 13.3201 9.75442 13.2377 9.80534C12.9572 9.97842 12.8051 10.3007 12.8498 10.6273C12.863 10.7233 12.9044 10.831 12.9873 11.0465L14.0263 13.7479C14.3356 14.552 13.742 15.4163 12.8804 15.4163C12.4399 15.4163 12.0331 15.1803 11.8145 14.7977L10.5013 12.4996L9.18814 14.7977C8.96955 15.1803 8.56274 15.4163 8.12219 15.4163C7.26062 15.4163 6.66704 14.552 6.97633 13.7479L8.01532 11.0465C8.09821 10.831 8.13966 10.7233 8.15278 10.6273C8.19744 10.3007 8.04536 9.97842 7.76484 9.80534C7.68248 9.75442 7.57294 9.71792 7.35388 9.64492Z" fill="#1C64F2"/></svg>
