<svg width="28" height="28" viewBox="0 0 28 28" fill="none" xmlns="http://www.w3.org/2000/svg">
<path opacity="0.2" d="M23.0013 23.7565C24.6655 22.849 25.6654 21.6855 25.6654 20.417C25.6654 19.0724 24.5421 17.8458 22.6947 16.917C20.5584 15.843 17.454 15.167 13.9987 15.167C10.5434 15.167 7.43897 15.843 5.30273 16.917C3.45536 17.8458 2.33203 19.0724 2.33203 20.417C2.33203 21.7616 3.45536 22.9882 5.30273 23.917C7.43897 24.991 10.5434 25.667 13.9987 25.667C17.6231 25.667 20.8614 24.9232 23.0013 23.7565Z" fill="white"/>
<path fill-rule="evenodd" clip-rule="evenodd" d="M10.793 4.66634C10.793 2.89443 12.2294 1.45801 14.0013 1.45801C15.7732 1.45801 17.2096 2.89443 17.2096 4.66634C17.2096 6.43825 15.7732 7.87467 14.0013 7.87467C12.2294 7.87467 10.793 6.43825 10.793 4.66634Z" fill="white"/>
<path d="M9.5923 13.5033L7.05445 12.6573C6.32443 12.414 5.83203 11.7308 5.83203 10.9613C5.83203 9.82314 6.88148 8.97474 7.99439 9.21323L10.2082 9.68762C10.3313 9.714 10.3929 9.72718 10.4539 9.7398C12.7924 10.2235 15.205 10.2235 17.5435 9.7398C17.6045 9.72718 17.6661 9.714 17.7892 9.68762L20.0029 9.21322C21.1159 8.97474 22.1654 9.82314 22.1654 10.9613C22.1654 11.7308 21.6729 12.414 20.9429 12.6573L18.4051 13.5033C18.0984 13.6055 17.9451 13.6566 17.8297 13.7279C17.437 13.9702 17.2241 14.4213 17.2866 14.8787C17.305 15.013 17.363 15.1638 17.4791 15.4655L18.9337 19.2475C19.3666 20.3732 18.5356 21.5832 17.3294 21.5832C16.7127 21.5832 16.1431 21.2528 15.8371 20.7171L13.9987 17.4998L12.1603 20.7171C11.8542 21.2528 11.2847 21.5832 10.6679 21.5832C9.46174 21.5832 8.63074 20.3732 9.06373 19.2475L10.5183 15.4655C10.6344 15.1638 10.6924 15.013 10.7108 14.8787C10.7733 14.4213 10.5604 13.9702 10.1677 13.7279C10.0523 13.6566 9.899 13.6055 9.5923 13.5033Z" fill="white"/>
</svg>
