<svg width="146" height="150" viewBox="0 0 146 150" fill="none" xmlns="http://www.w3.org/2000/svg">
<path d="M38.1885 6.62616C39.4357 7.86142 40.7498 9.024 42.2114 9.99596C49.6669 14.9548 71.8494 26.8866 107.031 22.0102C150.99 15.9174 144.541 60.1153 138.216 71.8948C131.89 83.6743 108.627 105.268 106.673 116.087C104.719 126.906 113.08 156.457 93.49 147.59C73.8997 138.722 62.5826 117.953 36.8688 120.367C11.155 122.781 -7.01506 111.387 4.36745 91.0286C15.75 70.6706 29.3587 57.5336 11.9888 34.8573C-4.89888 12.8117 23.5467 -7.87453 38.1885 6.62616Z" fill="#F1E5FF"/>
<path d="M82.7903 29.4659C82.4643 29.1377 82.2778 28.6961 82.2698 28.2336C82.2618 27.7711 82.4328 27.3234 82.7472 26.984L94.346 14.465C94.5103 14.2877 94.7088 14.1454 94.9295 14.0468C95.1501 13.9481 95.3885 13.8951 95.6302 13.8909C95.8719 13.8867 96.1119 13.9314 96.3359 14.0224C96.5599 14.1133 96.7631 14.2486 96.9335 14.4202L97.9348 15.4285C98.1051 15.6 98.239 15.8042 98.3284 16.0288C98.4177 16.2534 98.4608 16.4938 98.4549 16.7355C98.449 16.9771 98.3943 17.2151 98.2941 17.4351C98.1939 17.6551 98.0502 17.8525 97.8717 18.0156L85.272 29.5263C84.9304 29.8384 84.4815 30.0064 84.019 29.9951C83.5565 29.9838 83.1162 29.7942 82.7903 29.4659V29.4659Z" fill="#8837E9"/>
<path d="M75.4493 25.1978C75.172 25.0749 74.9529 24.8495 74.8378 24.5689C74.7228 24.2882 74.7207 23.974 74.8319 23.6918L78.9367 13.2815C78.9949 13.134 79.0822 12.9998 79.1936 12.887C79.3049 12.7742 79.4379 12.685 79.5846 12.6249C79.7312 12.5648 79.8885 12.535 80.047 12.5372C80.2055 12.5395 80.3619 12.5737 80.5068 12.638L81.3586 13.0155C81.5035 13.0798 81.634 13.1726 81.7421 13.2886C81.8502 13.4045 81.9337 13.5411 81.9877 13.6901C82.0416 13.8391 82.0649 13.9976 82.056 14.1558C82.0472 14.3141 82.0065 14.4689 81.9363 14.611L76.98 24.6438C76.8456 24.9158 76.6113 25.1253 76.326 25.2286C76.0407 25.3318 75.7266 25.3208 75.4493 25.1978Z" fill="#8837E9"/>
<path d="M67.98 26.8996C67.034 27.0699 66.0849 26.2582 65.8282 25.0596L61.2757 3.77664C61.0041 2.50475 61.6131 1.29507 62.6166 1.1142L64.0151 0.862477C65.0185 0.681807 66.0118 1.60343 66.2003 2.88994L69.3547 24.4245C69.5323 25.6377 68.9259 26.7292 67.98 26.8996Z" fill="#8837E9"/>
<path d="M141.563 46.929L121.485 44.3408C121.147 44.3047 120.806 44.3725 120.507 44.5352C120.209 44.6979 119.967 44.9478 119.814 45.2515L114.475 55.7932L92.1268 100.49C91.8893 100.962 91.4914 101.334 91.0043 101.539C90.5173 101.744 89.9731 101.769 89.4693 101.61L28.8083 82.247C28.641 82.1936 28.4634 82.1807 28.2901 82.2093C28.1168 82.238 27.9528 82.3073 27.8116 82.4117C27.6703 82.5161 27.5559 82.6525 27.4777 82.8098C27.3995 82.967 27.3597 83.1406 27.3616 83.3162L27.3894 85.8353C27.3928 86.1855 27.5067 86.5257 27.7147 86.8075C27.9227 87.0893 28.2144 87.2982 28.5481 87.4045L92.7289 107.89C93.4444 108.118 94.0868 108.532 94.591 109.089C95.0953 109.645 95.4434 110.325 95.6002 111.06L95.6216 111.16C96.1798 114.226 93.158 116.744 90.1799 115.84L19.8033 93.3476C19.4423 93.2327 19.1314 92.9981 18.9219 92.6825C18.7124 92.3669 18.617 91.9892 18.6514 91.6119L24.1592 31.4663C24.1869 31.1562 24.2795 30.8554 24.431 30.5834C24.5825 30.3114 24.7895 30.0743 25.0386 29.8875C25.2876 29.7007 25.5732 29.5683 25.8767 29.499C26.1803 29.4297 26.495 29.4251 26.8004 29.4853L111.11 45.9783L116.54 35.1865C116.697 34.8815 116.944 34.6319 117.247 34.4715C117.55 34.3111 117.895 34.2475 118.235 34.2894L142.822 37.4379C143.04 37.4653 143.251 37.5357 143.442 37.645C143.632 37.7543 143.8 37.9004 143.933 38.0747C144.067 38.2491 144.165 38.4482 144.222 38.6607C144.278 38.8731 144.292 39.0947 144.262 39.3124L143.424 45.4966C143.365 45.9327 143.137 46.328 142.789 46.5964C142.44 46.8647 142 46.9843 141.563 46.929V46.929Z" fill="#AA75E9"/>
<path d="M27.5586 71.9486L34.4285 74.1413L41.0184 40.7249L30.4717 39.1055L27.5586 71.9486Z" fill="#F1E5FF"/>
<path d="M81.4609 89.1549L88.3309 91.3477L106.097 53.9287L98.5303 52.0957L81.4609 89.1549Z" fill="#F1E5FF"/>
<path d="M55.0391 80.7199L61.3806 82.7441L74.9642 47.4838L64.5863 45.3359L55.0391 80.7199Z" fill="#F1E5FF"/>
<path d="M46.9985 42.0527L57.3765 44.2006L48.1667 78.5277L41.2969 76.3349L46.9985 42.0527Z" fill="#F1E5FF"/>
<path d="M92.0194 50.5991L81.6415 48.4512L68.7773 85.1056L75.1189 87.1297L92.0194 50.5991Z" fill="#F1E5FF"/>
<path d="M28.8833 115.062C33.3256 115.062 36.9268 111.46 36.9268 107.018C36.9268 102.576 33.3256 98.9746 28.8833 98.9746C24.441 98.9746 20.8398 102.576 20.8398 107.018C20.8398 111.46 24.441 115.062 28.8833 115.062Z" fill="#AA75E9"/>
<path d="M79.0864 131.087C83.5287 131.087 87.1299 127.486 87.1299 123.043C87.1299 118.601 83.5287 115 79.0864 115C74.6441 115 71.043 118.601 71.043 123.043C71.043 127.486 74.6441 131.087 79.0864 131.087Z" fill="#AA75E9"/>
<path d="M145.176 37.1053L123.986 34.4524C123.869 34.4377 123.762 34.521 123.747 34.6385L122.462 44.8976C122.448 45.0151 122.531 45.1222 122.649 45.1369L143.838 47.7898C143.956 47.8045 144.063 47.7212 144.078 47.6037L145.362 37.3446C145.377 37.2271 145.294 37.12 145.176 37.1053Z" fill="#AA75E9"/>
</svg>
