<svg width="22" height="22" viewBox="0 0 22 22" fill="none" xmlns="http://www.w3.org/2000/svg">
<path fill-rule="evenodd" clip-rule="evenodd" d="M0.322179 0.322179C0.751762 -0.107393 1.44824 -0.107393 1.87782 0.322179L4.95 3.39437L8.02218 0.322179C8.45176 -0.107393 9.14826 -0.107393 9.57781 0.322179C10.0074 0.751762 10.0074 1.44824 9.57781 1.87782L6.50563 4.95L9.57781 8.02218C10.0074 8.45176 10.0074 9.14826 9.57781 9.57781C9.14826 10.0074 8.45176 10.0074 8.02218 9.57781L4.95 6.50563L1.87782 9.57781C1.44824 10.0074 0.751762 10.0074 0.322179 9.57781C-0.107393 9.14826 -0.107393 8.45176 0.322179 8.02218L3.39437 4.95L0.322179 1.87782C-0.107393 1.44824 -0.107393 0.751762 0.322179 0.322179ZM17.05 2.2C15.5312 2.2 14.3 3.43122 14.3 4.95C14.3 6.46878 15.5312 7.7 17.05 7.7C18.5688 7.7 19.8 6.46878 19.8 4.95C19.8 3.43122 18.5688 2.2 17.05 2.2ZM12.1 4.95C12.1 2.21619 14.3162 0 17.05 0C19.7838 0 22 2.21619 22 4.95C22 7.68381 19.7838 9.9 17.05 9.9C14.3162 9.9 12.1 7.68381 12.1 4.95ZM4.95 14.3C3.43122 14.3 2.2 15.5312 2.2 17.05C2.2 18.5688 3.43122 19.8 4.95 19.8C6.46878 19.8 7.7 18.5688 7.7 17.05C7.7 15.5312 6.46878 14.3 4.95 14.3ZM0 17.05C0 14.3162 2.21619 12.1 4.95 12.1C7.68381 12.1 9.9 14.3162 9.9 17.05C9.9 19.7838 7.68381 22 4.95 22C2.21619 22 0 19.7838 0 17.05ZM12.4222 12.4222C12.8517 11.9926 13.5483 11.9926 13.9778 12.4222L17.05 15.4944L20.1222 12.4222C20.5517 11.9926 21.2483 11.9926 21.6778 12.4222C22.1074 12.8517 22.1074 13.5483 21.6778 13.9778L18.6056 17.05L21.6778 20.1222C22.1074 20.5517 22.1074 21.2483 21.6778 21.6778C21.2483 22.1074 20.5517 22.1074 20.1222 21.6778L17.05 18.6056L13.9778 21.6778C13.5483 22.1074 12.8517 22.1074 12.4222 21.6778C11.9926 21.2483 11.9926 20.5517 12.4222 20.1222L15.4944 17.05L12.4222 13.9778C11.9926 13.5483 11.9926 12.8517 12.4222 12.4222Z" fill="black"/>
</svg>
