<svg width="24" height="24" viewBox="0 0 24 24" fill="none" xmlns="http://www.w3.org/2000/svg">
<g clip-path="url(#clip0_1598_38299)">
<path d="M10.0805 0C9.95324 0 9.83115 0.0505713 9.74114 0.140589C9.65112 0.230606 9.60055 0.352696 9.60055 0.48V1.44C9.60055 1.5673 9.65112 1.68939 9.74114 1.77941C9.83115 1.86943 9.95324 1.92 10.0805 1.92H10.8005V3.1908C5.60791 3.7884 1.56055 8.21016 1.56055 13.56C1.56055 19.3159 6.24463 24 12.0005 24C17.7565 24 22.4405 19.3159 22.4405 13.56C22.4422 11.5899 21.8828 9.66009 20.8277 7.99632L21.8449 7.17288L22.298 7.73256C22.3376 7.78157 22.3865 7.8223 22.4419 7.85241C22.4973 7.88251 22.5581 7.90142 22.6208 7.90804C22.6835 7.91466 22.7469 7.90886 22.8073 7.89098C22.8678 7.8731 22.9241 7.84349 22.9731 7.80384L23.7195 7.19952C23.8183 7.11935 23.8813 7.00323 23.8945 6.87669C23.9077 6.75014 23.8702 6.62351 23.7901 6.52464L21.3737 3.54C21.3341 3.49099 21.2852 3.45026 21.2298 3.42015C21.1744 3.39005 21.1136 3.37114 21.051 3.36452C20.9883 3.3579 20.9249 3.3637 20.8644 3.38158C20.804 3.39946 20.7476 3.42907 20.6986 3.46872L19.9522 4.07304C19.8534 4.15321 19.7905 4.26933 19.7773 4.39587C19.764 4.52242 19.8016 4.64905 19.8817 4.74792L20.335 5.3076L19.3222 6.12696C17.7053 4.53384 15.5725 3.4644 13.2005 3.19128V1.92H13.9205C14.0479 1.92 14.1699 1.86943 14.26 1.77941C14.35 1.68939 14.4005 1.5673 14.4005 1.44V0.48C14.4005 0.352696 14.35 0.230606 14.26 0.140589C14.1699 0.0505713 14.0479 0 13.9205 0L10.0805 0ZM12.0005 4.8C16.8485 4.8 20.7605 8.712 20.7605 13.56C20.7605 18.408 16.8485 22.32 12.0005 22.32C7.15255 22.32 3.24055 18.408 3.24055 13.56C3.24055 8.712 7.15255 4.8 12.0005 4.8ZM12.001 6.58632L12.0005 13.56L17.5767 17.7473C18.3545 16.7114 18.8285 15.4794 18.9454 14.1894C19.0623 12.8993 18.8176 11.6021 18.2386 10.4434C17.6597 9.28461 16.7695 8.31 15.6678 7.62878C14.566 6.94757 13.2963 6.58644 12.001 6.58632Z" fill="black"/>
</g>
<defs>
<clipPath id="clip0_1598_38299">
<rect width="24" height="24" fill="white"/>
</clipPath>
</defs>
</svg>
