<svg width="25" height="24" viewBox="0 0 25 24" fill="none" xmlns="http://www.w3.org/2000/svg">
<path d="M3.24297 8.28418C3.6163 6.62497 4.90331 5.31882 6.56536 4.91238C8.83101 4.35834 11.224 4.36467 13.4897 4.91871C15.1309 5.32005 16.4349 6.59343 16.8479 8.22135L16.8729 8.31991C17.4856 10.7356 17.4856 13.2644 16.8729 15.6801L16.8479 15.7787C16.4349 17.4066 15.1309 18.68 13.4897 19.0813C11.224 19.6353 8.83101 19.6417 6.56536 19.0876C4.90331 18.6812 3.61629 17.375 3.24297 15.7158L3.18132 15.4419C2.67133 13.1752 2.67133 10.8248 3.18132 8.55815L3.24297 8.28418Z" stroke="#363853" stroke-width="1.5"/>
<path d="M16.9621 15.3084L17.1591 15.3736C17.2103 15.3905 17.2603 15.4111 17.3085 15.4351L18.9924 16.2713C20.2818 16.9117 21.7988 15.9804 21.7988 14.5485L21.7988 9.81013C21.7988 8.29729 20.1235 7.37498 18.8319 8.17679L17.3462 9.09908C17.273 9.14452 17.2052 9.19808 17.1442 9.25871L17.0893 9.31325C17.4514 11.2977 17.4091 13.3366 16.9621 15.3084Z" stroke="#363853" stroke-width="1.5"/>
</svg>
