<svg width="10" height="10" viewBox="0 0 10 10" fill="none" xmlns="http://www.w3.org/2000/svg">
<ellipse cx="4.16659" cy="3.33333" rx="2.08333" ry="2.08333" fill="#1C64F2"/>
<path d="M7.91675 4.1665L7.91675 6.6665" stroke="#1C64F2" stroke-linecap="round"/>
<path d="M9.16675 5.4165L6.66675 5.4165" stroke="#1C64F2" stroke-linecap="round"/>
<path d="M7.14248 8.49273C7.33482 8.44917 7.45019 8.2492 7.36493 8.07136C7.13502 7.59177 6.75714 7.17035 6.26737 6.85272C5.66469 6.46186 4.92625 6.25 4.16659 6.25C3.40692 6.25 2.66848 6.46186 2.0658 6.85272C1.57603 7.17035 1.19815 7.59177 0.968236 8.07136C0.882981 8.2492 0.99835 8.44917 1.19069 8.49273V8.49273C3.14981 8.9364 5.18336 8.9364 7.14248 8.49273V8.49273Z" fill="#1C64F2"/>
</svg>
