<svg width="24" height="18" viewBox="0 0 24 18" fill="none" xmlns="http://www.w3.org/2000/svg">
<path d="M21.0562 10.5909V16.5129C21.0562 16.9269 20.8222 17.2621 20.3077 17.2621C20.1832 17.2621 19.875 16.9966 19.4962 16.5969V0.701383C19.875 0.301633 20.1832 0.0361328 20.3077 0.0361328C20.8687 0.0361328 21.0562 0.371383 21.0562 0.784633V6.85663C22.071 6.88513 23.016 7.70788 23.016 8.72338C23.016 9.73963 22.071 10.5624 21.0562 10.5909ZM9.01121 12.0346C9.05771 12.0346 9.01121 5.26288 9.01121 5.26288C14.154 5.26288 17.2027 3.00538 18.8092 1.45738V15.8401C17.2027 14.2929 14.154 12.0346 9.01121 12.0346ZM6.01571 17.9641L4.51796 12.0189H3.01946C3.01946 12.0189 2.57396 11.0079 2.37146 9.77188C1.98971 9.77188 1.65596 9.77188 1.52096 9.77188C1.10771 9.77188 0.772461 9.43663 0.772461 9.02263V8.27413C0.772461 7.86013 1.10771 7.52488 1.52096 7.52488C1.65596 7.52488 1.98971 7.52488 2.37146 7.52488C2.57471 6.28888 3.01946 5.27863 3.01946 5.27863H8.26196V12.0189H6.76421L6.95321 12.7674H7.70096L8.07521 14.2659H7.32971L8.26196 17.9641H6.01571Z" fill="white"/>
</svg>
