<svg width="25" height="25" viewBox="0 0 25 25" fill="none" xmlns="http://www.w3.org/2000/svg">
<g clip-path="url(#clip0_661_2361)">
<path d="M21.5928 17.6447C21.2601 18.4133 20.8663 19.1208 20.41 19.7713C19.7881 20.658 19.2788 21.2719 18.8864 21.6127C18.278 22.1722 17.6262 22.4587 16.9282 22.475C16.4271 22.475 15.8228 22.3324 15.1193 22.0432C14.4136 21.7553 13.765 21.6127 13.172 21.6127C12.55 21.6127 11.883 21.7553 11.1695 22.0432C10.4549 22.3324 9.87928 22.4832 9.43916 22.4981C8.76981 22.5266 8.10264 22.2319 7.43668 21.6127C7.01164 21.242 6.47999 20.6064 5.84309 19.7061C5.15976 18.7446 4.59796 17.6297 4.15784 16.3587C3.68648 14.9857 3.4502 13.6563 3.4502 12.3692C3.4502 10.8948 3.76878 9.62321 4.40689 8.5576C4.9084 7.70166 5.57557 7.02647 6.41059 6.53081C7.24562 6.03514 8.14786 5.78256 9.11949 5.7664C9.65114 5.7664 10.3483 5.93085 11.2147 6.25405C12.0787 6.57834 12.6334 6.74279 12.8766 6.74279C13.0585 6.74279 13.6747 6.5505 14.7194 6.16714C15.7073 5.81162 16.5411 5.66441 17.2242 5.7224C19.0751 5.87178 20.4657 6.60142 21.3905 7.91595C19.7351 8.91896 18.9162 10.3238 18.9325 12.126C18.9475 13.5297 19.4567 14.6979 20.4576 15.6254C20.9111 16.0558 21.4176 16.3885 21.9812 16.6248C21.859 16.9793 21.73 17.3188 21.5928 17.6447ZM17.3478 0.940125C17.3478 2.04038 16.9458 3.06768 16.1446 4.01854C15.1777 5.14892 14.0082 5.80211 12.74 5.69904C12.7238 5.56705 12.7145 5.42812 12.7145 5.28214C12.7145 4.2259 13.1743 3.09552 13.9908 2.17127C14.3985 1.70331 14.917 1.31421 15.5457 1.00381C16.1731 0.69805 16.7666 0.528957 17.3247 0.5C17.341 0.647086 17.3478 0.794182 17.3478 0.940111V0.940125Z" fill="black"/>
</g>
<defs>
<clipPath id="clip0_661_2361">
<rect width="24" height="24" fill="white" transform="translate(0.75 0.5)"/>
</clipPath>
</defs>
</svg>
