<svg width="10" height="10" viewBox="0 0 10 10" fill="none" xmlns="http://www.w3.org/2000/svg">
<g clip-path="url(#clip0_1011_39874)">
<path d="M8.22575 4.51602H5.48382V3.78775C6.04702 3.58801 6.45155 3.05018 6.45155 2.41937C6.45155 2.22008 6.39462 1.85699 5.90239 1.0084C5.65372 0.579785 5.40839 0.223848 5.39808 0.208887C5.30772 0.0780664 5.15892 0 4.99995 0C4.84099 0 4.69218 0.0780664 4.60183 0.208867C4.59153 0.223828 4.34618 0.579766 4.09751 1.00838C3.60528 1.85695 3.54835 2.22006 3.54835 2.41936C3.54835 3.05016 3.9529 3.58801 4.51608 3.78773V4.516H1.77415C1.50692 4.516 1.29028 4.73268 1.29028 4.99986V6.19467H1.77415H1.77421C1.81124 6.19467 1.84817 6.19897 1.88425 6.20738C2.0254 6.24035 2.1445 6.28006 2.24964 6.3151C2.25245 6.31604 2.25522 6.31697 2.25802 6.31791C2.48286 6.39281 2.66407 6.45156 3.0644 6.45156C3.06444 6.45156 3.06444 6.45156 3.06444 6.45156C3.06444 6.45156 3.06444 6.45156 3.06448 6.45156C3.46983 6.45156 3.65052 6.39137 3.87923 6.31512C4.14087 6.22793 4.43745 6.12898 4.99954 6.12898C4.9998 6.12898 5.00013 6.12898 5.00013 6.12898C5.56259 6.12898 5.85907 6.22789 6.12077 6.31512C6.34948 6.39137 6.53013 6.45156 6.93542 6.45156C7.33587 6.45156 7.51706 6.39279 7.7419 6.31785C7.74464 6.31695 7.7473 6.31606 7.75007 6.31514C7.85526 6.28008 7.97448 6.24037 8.11575 6.20736C8.15179 6.19895 8.18872 6.19469 8.22571 6.19469H8.22577H8.70964V4.99988C8.70962 4.73268 8.49298 4.51602 8.22575 4.51602Z" fill="#F43F5E"/>
<path d="M9.51613 9.03209H8.70969V7.16238H8.28482C8.26473 7.16768 8.24543 7.17383 8.22582 7.17957C8.16914 7.19625 8.1134 7.21402 8.05617 7.23312C7.96004 7.2652 7.85898 7.29877 7.74195 7.32852C7.54047 7.37967 7.29121 7.41926 6.93553 7.41926H6.93549C6.93545 7.41926 6.93545 7.41926 6.93545 7.41926C6.93545 7.41926 6.93545 7.41926 6.93541 7.41926H6.93537C6.37309 7.41926 6.07643 7.32041 5.81477 7.23312C5.58609 7.15693 5.40545 7.09668 5.00027 7.09668C5.00027 7.09668 4.99988 7.09668 4.99963 7.09668C4.59449 7.09668 4.41395 7.15691 4.18531 7.23312C3.92361 7.32041 3.62693 7.41926 3.06451 7.41926C3.06447 7.41926 3.06447 7.41926 3.06447 7.41926C3.06443 7.41926 3.06441 7.41926 3.06441 7.41926H3.06437C2.70877 7.41926 2.45951 7.37967 2.25805 7.32852C2.14096 7.29877 2.03988 7.2652 1.94369 7.23312C1.8865 7.21406 1.83078 7.19625 1.77418 7.17961C1.75457 7.17383 1.73527 7.16771 1.71518 7.16238H1.29033V9.03209H0.483887C0.216641 9.03209 0 9.24877 0 9.51598C0 9.78324 0.216641 9.99984 0.483867 9.99984H9.51613C9.78336 9.99984 10 9.78322 10 9.51598C10 9.24877 9.78336 9.03209 9.51613 9.03209Z" fill="#F43F5E"/>
</g>
<defs>
<clipPath id="clip0_1011_39874">
<rect width="10" height="10" fill="white"/>
</clipPath>
</defs>
</svg>
