<svg width="24" height="25" viewBox="0 0 24 25" fill="none" xmlns="http://www.w3.org/2000/svg">
<path fill-rule="evenodd" clip-rule="evenodd" d="M24 12.5C24 19.1274 18.6274 24.5 12 24.5C5.37258 24.5 0 19.1274 0 12.5C0 5.87258 5.37258 0.5 12 0.5C18.6274 0.5 24 5.87258 24 12.5ZM13.3333 7.16667C13.3333 7.90305 12.7364 8.5 12 8.5C11.2636 8.5 10.6667 7.90305 10.6667 7.16667C10.6667 6.43029 11.2636 5.83333 12 5.83333C12.7364 5.83333 13.3333 6.43029 13.3333 7.16667ZM13 19.1667V11.1667H11V19.1667H13Z" fill="#33363F"/>
</svg>
