<svg width="8" height="8" viewBox="0 0 8 8" fill="none" xmlns="http://www.w3.org/2000/svg">
<path fill-rule="evenodd" clip-rule="evenodd" d="M7.33342 4.83333V6.08333C7.33342 7.00381 5.84103 7.75 4.00008 7.75C2.20004 7.75 0.733248 7.0366 0.668946 6.14443L0.666748 6.08333V4.83333L0.668946 4.89443C0.733248 5.7866 2.20004 6.5 4.00008 6.5C5.84103 6.5 7.33342 5.75381 7.33342 4.83333ZM0.668946 2.8111C0.733248 3.70327 2.20004 4.41667 4.00008 4.41667C5.84103 4.41667 7.33342 3.67047 7.33342 2.75V4L7.33297 4.02756C7.30353 4.93532 5.82262 5.66667 4.00008 5.66667C2.20004 5.66667 0.733248 4.95327 0.668946 4.0611L0.666748 4V2.75L0.668946 2.8111ZM4.00008 0.25C5.80012 0.25 7.26691 0.963396 7.33122 1.85557L7.33342 1.91667L7.33297 1.94423C7.30353 2.85199 5.82262 3.58333 4.00008 3.58333C2.20004 3.58333 0.733248 2.86994 0.668946 1.97777L0.666748 1.91667C0.666748 0.996192 2.15913 0.25 4.00008 0.25Z" fill="url(#paint0_linear_1011_39787)"/>
<defs>
<linearGradient id="paint0_linear_1011_39787" x1="2.42225" y1="1.81451" x2="6.39724" y2="6.38479" gradientUnits="userSpaceOnUse">
<stop stop-color="#FFA800"/>
<stop offset="0.938927" stop-color="#FFC838"/>
</linearGradient>
</defs>
</svg>
