<svg width="41" height="41" viewBox="0 0 41 41" fill="none" xmlns="http://www.w3.org/2000/svg">
<rect width="41" height="41" fill="url(#paint0_linear_1011_39765)"/>
<path fill-rule="evenodd" clip-rule="evenodd" d="M29 22V25C29 27.2091 25.4183 29 21 29C16.6799 29 13.1596 27.2878 13.0053 25.1466L13 25V22L13.0053 22.1466C13.1596 24.2878 16.6799 26 21 26C25.4183 26 29 24.2091 29 22ZM13.0053 17.1466C13.1596 19.2878 16.6799 21 21 21C25.4183 21 29 19.2091 29 17V20L28.9989 20.0661C28.9283 22.2448 25.3741 24 21 24C16.6799 24 13.1596 22.2878 13.0053 20.1466L13 20V17L13.0053 17.1466ZM21 11C25.3201 11 28.8404 12.7122 28.9947 14.8534L29 15L28.9989 15.0661C28.9283 17.2448 25.3741 19 21 19C16.6799 19 13.1596 17.2878 13.0053 15.1466L13 15C13 12.7909 16.5817 11 21 11Z" fill="white"/>
<defs>
<linearGradient id="paint0_linear_1011_39765" x1="10.7963" y1="8.55266" x2="32.0312" y2="36.0195" gradientUnits="userSpaceOnUse">
<stop stop-color="#FFA800"/>
<stop offset="0.938927" stop-color="#FFC838"/>
</linearGradient>
</defs>
</svg>
