<svg width="10" height="10" viewBox="0 0 10 10" fill="none" xmlns="http://www.w3.org/2000/svg">
<path d="M3.75 2.5C3.75 2.66415 3.78233 2.8267 3.84515 2.97835C3.90797 3.13001 4.00004 3.26781 4.11612 3.38388C4.23219 3.49996 4.36999 3.59203 4.52165 3.65485C4.6733 3.71767 4.83585 3.75 5 3.75C5.16415 3.75 5.3267 3.71767 5.47835 3.65485C5.63001 3.59203 5.76781 3.49996 5.88388 3.38388C5.99996 3.26781 6.09203 3.13001 6.15485 2.97835C6.21767 2.8267 6.25 2.66415 6.25 2.5C6.25 2.33585 6.21767 2.1733 6.15485 2.02165C6.09203 1.86999 5.99996 1.73219 5.88388 1.61612C5.76781 1.50004 5.63001 1.40797 5.47835 1.34515C5.3267 1.28233 5.16415 1.25 5 1.25C4.83585 1.25 4.6733 1.28233 4.52165 1.34515C4.36999 1.40797 4.23219 1.50004 4.11612 1.61612C4.00004 1.73219 3.90797 1.86999 3.84515 2.02165C3.78233 2.1733 3.75 2.33585 3.75 2.5L3.75 2.5Z" stroke="#1C64F2"/>
<path d="M1.84911 5.79246C1.70695 5.87453 1.58235 5.98381 1.48242 6.11404C1.38249 6.24427 1.30919 6.39291 1.2667 6.55146C1.22422 6.71002 1.21338 6.8754 1.2348 7.03815C1.25623 7.20089 1.3095 7.35783 1.39158 7.49999C1.47365 7.64215 1.58293 7.76675 1.71316 7.86668C1.84339 7.96661 1.99203 8.03991 2.15059 8.0824C2.30914 8.12488 2.47452 8.13572 2.63727 8.11429C2.80001 8.09287 2.95695 8.0396 3.09911 7.95752C3.24127 7.87544 3.36587 7.76617 3.4658 7.63594C3.56573 7.50571 3.63903 7.35707 3.68152 7.19851C3.724 7.03995 3.73484 6.87458 3.71341 6.71183C3.69199 6.54908 3.63872 6.39215 3.55664 6.24999C3.47456 6.10783 3.36529 5.98323 3.23506 5.8833C3.10483 5.78337 2.95619 5.71007 2.79763 5.66758C2.63907 5.62509 2.4737 5.61426 2.31095 5.63568C2.1482 5.65711 1.99127 5.71038 1.84911 5.79246L1.84911 5.79246Z" stroke="#1C64F2"/>
<path d="M8.15089 5.79246C8.29305 5.87453 8.41765 5.98381 8.51758 6.11404C8.61751 6.24427 8.69081 6.39291 8.7333 6.55146C8.77578 6.71002 8.78662 6.8754 8.7652 7.03815C8.74377 7.20089 8.6905 7.35783 8.60842 7.49999C8.52635 7.64215 8.41707 7.76675 8.28684 7.86668C8.15661 7.96661 8.00797 8.03991 7.84941 8.0824C7.69086 8.12488 7.52548 8.13572 7.36273 8.11429C7.19998 8.09287 7.04305 8.0396 6.90089 7.95752C6.75873 7.87544 6.63413 7.76617 6.5342 7.63594C6.43427 7.50571 6.36097 7.35707 6.31848 7.19851C6.276 7.03995 6.26516 6.87458 6.28659 6.71183C6.30801 6.54908 6.36128 6.39215 6.44336 6.24999C6.52544 6.10783 6.63471 5.98323 6.76494 5.8833C6.89517 5.78337 7.04381 5.71007 7.20237 5.66758C7.36093 5.62509 7.5263 5.61426 7.68905 5.63568C7.8518 5.65711 8.00873 5.71038 8.15089 5.79246L8.15089 5.79246Z" stroke="#1C64F2"/>
<path fill-rule="evenodd" clip-rule="evenodd" d="M3.80006 2.84991C3.76695 2.73642 3.75005 2.61858 3.75005 2.4999C3.75005 2.33575 3.78239 2.1732 3.8452 2.02154C3.89231 1.90781 3.95587 1.80188 4.03367 1.70705C3.86353 1.75137 3.69628 1.80745 3.53313 1.87503C3.06805 2.06767 2.64546 2.35003 2.2895 2.70599C1.93355 3.06195 1.65119 3.48453 1.45854 3.94961C1.2659 4.4147 1.16675 4.91317 1.16675 5.41657C1.16675 5.76115 1.21321 6.10343 1.30431 6.43427C1.34753 6.31947 1.4075 6.21144 1.48245 6.11377C1.58238 5.98354 1.70698 5.87427 1.84914 5.79219C1.95192 5.73285 2.06243 5.68857 2.17727 5.66049C2.17027 5.5795 2.16675 5.49812 2.16675 5.41657C2.16675 5.04449 2.24003 4.67605 2.38242 4.3323C2.52481 3.98854 2.73351 3.6762 2.99661 3.4131C3.22986 3.17984 3.50182 2.98935 3.80006 2.84991ZM6.20006 2.84989C6.49831 2.98933 6.77029 3.17983 7.00355 3.41309C7.26665 3.67619 7.47535 3.98854 7.61774 4.33229C7.76013 4.67605 7.83341 5.04449 7.83341 5.41656C7.83341 5.49813 7.82989 5.57951 7.82289 5.6605C7.93771 5.68858 8.0482 5.73286 8.15096 5.79219C8.29312 5.87427 8.41773 5.98354 8.51766 6.11377C8.59262 6.21147 8.6526 6.31953 8.69583 6.43436C8.78695 6.10349 8.83341 5.76118 8.83341 5.41656C8.83341 4.91316 8.73426 4.41469 8.54162 3.94961C8.34898 3.48453 8.06661 3.06195 7.71066 2.70599C7.3547 2.35003 6.93211 2.06767 6.46703 1.87503C6.30386 1.80744 6.13658 1.75136 5.96642 1.70703C6.04422 1.80186 6.10779 1.90781 6.1549 2.02154C6.21772 2.1732 6.25005 2.33575 6.25005 2.4999C6.25005 2.61857 6.23315 2.7364 6.20006 2.84989ZM7.72965 8.10802C7.60855 8.12802 7.48494 8.13011 7.36281 8.11403C7.20006 8.0926 7.04312 8.03933 6.90096 7.95725C6.79823 7.89794 6.70467 7.82443 6.62297 7.73907C6.45505 7.8564 6.27451 7.95546 6.08435 8.03422C5.7406 8.17661 5.37216 8.2499 5.00008 8.2499C4.628 8.2499 4.25957 8.17661 3.91581 8.03422C3.72564 7.95545 3.54509 7.85639 3.37716 7.73904C3.29545 7.82442 3.20188 7.89794 3.09914 7.95725C2.95698 8.03933 2.80005 8.0926 2.6373 8.11403C2.51519 8.1301 2.3916 8.12802 2.27053 8.10803C2.27683 8.11442 2.28316 8.12079 2.28951 8.12714C2.64546 8.4831 3.06805 8.76546 3.53313 8.9581C3.99821 9.15075 4.49668 9.2499 5.00008 9.2499C5.50348 9.2499 6.00195 9.15075 6.46704 8.9581C6.93212 8.76546 7.3547 8.4831 7.71066 8.12714C7.71701 8.12079 7.72334 8.11441 7.72965 8.10802Z" fill="#1C64F2"/>
</svg>
