<svg width="25" height="24" viewBox="0 0 25 24" fill="none" xmlns="http://www.w3.org/2000/svg">
<path fill-rule="evenodd" clip-rule="evenodd" d="M9.13358 3C9.50808 3 9.81166 3.31153 9.81166 3.69582V3.92169C9.85586 3.91015 9.90023 3.89901 9.94476 3.88829C11.7899 3.44416 13.7101 3.44416 15.5552 3.88829C15.5998 3.89901 15.6441 3.91014 15.6883 3.92169V3.69582C15.6883 3.31153 15.9919 3 16.3664 3C16.7409 3 17.0445 3.31153 17.0445 3.69582V4.42901C18.9777 5.38732 20.4226 7.19919 20.9254 9.39896C21.3582 11.2924 21.3582 13.2628 20.9254 15.1562C20.3004 17.8905 18.2198 20.0255 15.5552 20.6669C13.7101 21.111 11.7899 21.111 9.94476 20.6669C7.28017 20.0255 5.19963 17.8906 4.57461 15.1562C4.1418 13.2628 4.1418 11.2924 4.57461 9.39896C5.07745 7.19918 6.52233 5.38732 8.45551 4.42901V3.69582C8.45551 3.31153 8.75909 3 9.13358 3ZM11.7774 9.88793C11.9893 9.67055 11.9893 9.31809 11.7774 9.1007C11.5656 8.88331 11.2221 8.88331 11.0103 9.1007L9.58564 10.5626L9.06512 10.0285C8.85327 9.81107 8.5098 9.81107 8.29796 10.0285C8.08611 10.2458 8.08611 10.5983 8.29796 10.8157L9.20206 11.7435C9.41391 11.9608 9.75737 11.9608 9.96922 11.7435L11.7774 9.88793ZM13.6541 10.3293C13.3545 10.3293 13.1116 10.5785 13.1116 10.886C13.1116 11.1934 13.3545 11.4426 13.6541 11.4426H16.8185C17.1181 11.4426 17.3609 11.1934 17.3609 10.886C17.3609 10.5785 17.1181 10.3293 16.8185 10.3293H13.6541ZM11.7774 14.5267C11.9893 14.3093 11.9893 13.9569 11.7774 13.7395C11.5656 13.5221 11.2221 13.5221 11.0103 13.7395L9.58564 15.2014L9.06512 14.6673C8.85327 14.4499 8.5098 14.4499 8.29796 14.6673C8.08611 14.8846 8.08611 15.2371 8.29796 15.4545L9.20206 16.3822C9.41391 16.5996 9.75737 16.5996 9.96922 16.3822L11.7774 14.5267ZM13.6541 14.9681C13.3545 14.9681 13.1116 15.2173 13.1116 15.5248C13.1116 15.8322 13.3545 16.0814 13.6541 16.0814H16.8185C17.1181 16.0814 17.3609 15.8322 17.3609 15.5248C17.3609 15.2173 17.1181 14.9681 16.8185 14.9681H13.6541Z" fill="white"/>
</svg>
