<svg width="20" height="18" viewBox="0 0 20 18" fill="none" xmlns="http://www.w3.org/2000/svg">
<path d="M9.15241 6.67339H9.39316V8.13692L8.98799 7.99021C8.77242 7.91215 8.58348 7.66929 8.58348 7.34638C8.58348 6.9241 8.88684 6.67339 9.15241 6.67339Z" fill="white"/>
<path d="M10.6074 11.3265V9.86313L11.0121 10.0097C11.2277 10.0877 11.4166 10.3306 11.4166 10.6535C11.4166 11.0758 11.1133 11.3265 10.8477 11.3265H10.6074Z" fill="white"/>
<path fill-rule="evenodd" clip-rule="evenodd" d="M6.96917 0.3303C8.96552 -0.1101 11.0345 -0.1101 13.0308 0.330301L13.4484 0.422426C16.2366 1.03749 18.4347 3.17136 19.123 5.9312C19.6257 7.94645 19.6257 10.0535 19.123 12.0688C18.4347 14.8286 16.2366 16.9625 13.4484 17.5776L13.0308 17.6697C11.0345 18.1101 8.96552 18.1101 6.96917 17.6697L6.55155 17.5776C3.76343 16.9625 1.56534 14.8286 0.876983 12.0688C0.374339 10.0536 0.374339 7.94645 0.876983 5.93119C1.56534 3.17136 3.76343 1.03749 6.55155 0.422427L6.96917 0.3303ZM10.6074 4.96972C10.6074 4.63584 10.3356 4.36518 10.0003 4.36518C9.66497 4.36518 9.39316 4.63584 9.39316 4.96972V5.46431H9.15241C8.11897 5.46431 7.36928 6.35753 7.36928 7.34638C7.36928 8.12324 7.82817 8.85678 8.57304 9.1265L9.39316 9.42346V11.3265H9.32549C8.96433 11.3265 8.58348 10.9916 8.58348 10.4655C8.58348 10.1316 8.31167 9.86096 7.97638 9.86096C7.64109 9.86096 7.36928 10.1316 7.36928 10.4655C7.36928 11.5582 8.19646 12.5356 9.32549 12.5356H9.39316V13.0302C9.39316 13.3641 9.66497 13.6348 10.0003 13.6348C10.3356 13.6348 10.6074 13.3641 10.6074 13.0302V12.5356H10.8477C11.8811 12.5356 12.6308 11.6424 12.6308 10.6535C12.6308 9.87665 12.1719 9.14312 11.427 8.8734L10.6074 8.57659V6.67339H10.6746C11.0358 6.67339 11.4166 7.00828 11.4166 7.5344C11.4166 7.86827 11.6884 8.13894 12.0237 8.13894C12.359 8.13894 12.6308 7.86827 12.6308 7.5344C12.6308 6.44171 11.8036 5.46431 10.6746 5.46431H10.6074V4.96972Z" fill="white"/>
</svg>
