<svg width="145" height="148" viewBox="0 0 145 148" fill="none" xmlns="http://www.w3.org/2000/svg">
<path d="M2.5876 124.988C8.1092 138.462 17.1122 141.266 23.4421 138.462C35.6838 133.038 67.4834 126.978 100.143 141.222C143.398 160.089 152.602 131.624 138.797 102.831C124.992 74.038 120.313 44.9204 136.227 28.8782C152.142 12.836 131.316 -12.2597 94.3316 13.8632C70.431 30.7448 52.8907 26.9857 43.4716 22.2134C34.5944 17.7156 24.7219 13.0135 15.4723 16.6849C4.24895 21.14 -0.173409 30.799 16.9024 52.3772C41.1003 82.9553 -9.78982 94.7857 2.5876 124.988Z" fill="#F1E6FF"/>
<path d="M25.0684 59.3516H111.001V125.439C111.001 125.574 110.948 125.703 110.853 125.798C110.758 125.893 110.628 125.947 110.494 125.947H25.5759C25.4413 125.947 25.3122 125.893 25.217 125.798C25.1218 125.703 25.0684 125.574 25.0684 125.439V59.3516Z" fill="#AA75E9"/>
<path d="M89.4435 33.4531H49.4865L25.0684 59.3512H111.001L89.4435 33.4531Z" fill="#8837E9"/>
<path d="M33.2084 23.0938L49.4871 33.453L25.069 59.3511L6.57031 45.2921L33.2084 23.0938Z" fill="#9D5DE9"/>
<path d="M105.722 23.0938L89.4434 33.453L111.001 59.3511L132.36 45.2921L105.722 23.0938Z" fill="#9D5DE9"/>
<path d="M59.9842 23.6234C60.4435 23.4056 60.8009 23.0187 60.9817 22.5435C61.1624 22.0683 61.1526 21.5417 60.9541 21.0736L53.631 3.80565C53.5272 3.56106 53.3751 3.33997 53.1838 3.15567C52.9924 2.97137 52.7657 2.82768 52.5174 2.73322C52.2691 2.63877 52.0043 2.59551 51.7388 2.60604C51.4733 2.61657 51.2127 2.68068 50.9727 2.79451L49.5618 3.4635C49.3218 3.57732 49.1072 3.73851 48.931 3.93738C48.7549 4.13625 48.6208 4.36869 48.5367 4.62072C48.4527 4.87275 48.4205 5.13917 48.4421 5.40396C48.4636 5.66876 48.5385 5.92646 48.6622 6.16157L57.3961 22.7605C57.6328 23.2104 58.0343 23.5514 58.5166 23.7122C58.999 23.8731 59.5248 23.8412 59.9842 23.6234Z" fill="#8837E9"/>
<path d="M69.1652 21.9491C69.4977 21.9254 69.8081 21.7742 70.0317 21.527C70.2553 21.2798 70.3747 20.9558 70.365 20.6226L70.0033 8.32933C69.9982 8.1552 69.9579 7.98391 69.8849 7.82575C69.8118 7.66758 69.7076 7.52581 69.5784 7.40897C69.4492 7.29212 69.2977 7.20261 69.133 7.14581C68.9683 7.08901 68.7938 7.0661 68.6201 7.07845L67.5987 7.15122C67.425 7.16359 67.2556 7.21094 67.1006 7.29044C66.9457 7.36995 66.8084 7.47995 66.6971 7.61385C66.5857 7.74774 66.5026 7.90277 66.4527 8.06961C66.4027 8.23645 66.3871 8.41166 66.4066 8.58471L67.7897 20.8053C67.8271 21.1366 67.9911 21.4406 68.2475 21.6538C68.5038 21.867 68.8327 21.9728 69.1652 21.9491V21.9491Z" fill="#8837E9"/>
<path d="M76.2542 26.4939C77.1687 27.0226 78.4525 26.5374 79.1645 25.3938L91.8078 5.08846C92.5631 3.87543 92.3842 2.39698 91.4142 1.83619L90.0622 1.05465C89.0923 0.493758 87.7217 1.07616 87.0472 2.33588L75.7557 23.4227C75.1198 24.6103 75.3397 25.9651 76.2542 26.4939Z" fill="#8837E9"/>
</svg>
