<svg width="32" height="33" viewBox="0 0 32 33" fill="none" xmlns="http://www.w3.org/2000/svg">
<path fill-rule="evenodd" clip-rule="evenodd" d="M23.9408 20.9859C25.1936 19.9049 26.2135 18.7759 26.9177 17.921C27.4353 17.2926 27.694 16.9784 27.694 16.5C27.694 16.0216 27.4353 15.7074 26.9177 15.0791C25.0243 12.7802 20.848 8.5 16.0003 8.5C14.6955 8.5 13.4393 8.81011 12.2632 9.30821L15.4875 12.5326C15.6554 12.5111 15.8266 12.5 16.0003 12.5C18.2095 12.5 20.0003 14.2909 20.0003 16.5C20.0003 16.6737 19.9893 16.8449 19.9678 17.0128L23.9408 20.9859ZM21.496 22.7836L18.4074 19.695C17.7376 20.2004 16.904 20.5 16.0003 20.5C13.7912 20.5 12.0003 18.7091 12.0003 16.5C12.0003 15.5964 12.3 14.7627 12.8053 14.093L9.55405 10.8417C7.61157 12.2151 6.04972 13.9053 5.08297 15.079C4.56542 15.7074 4.30664 16.0216 4.30664 16.5C4.30664 16.9784 4.56542 17.2926 5.08296 17.9209C6.97642 20.2198 11.1527 24.5 16.0003 24.5C17.9809 24.5 19.8494 23.7855 21.496 22.7836Z" fill="#33363F"/>
<path d="M6.66602 3.16675L27.9993 24.5001" stroke="#33363F" stroke-width="2"/>
</svg>
