<svg width="25" height="25" viewBox="0 0 25 25" fill="none" xmlns="http://www.w3.org/2000/svg">
<g clip-path="url(#clip0_661_805)">
<path d="M24.25 12.5C24.25 5.87258 18.8774 0.5 12.25 0.5C5.62258 0.5 0.25 5.87258 0.25 12.5C0.25 18.4895 4.6382 23.454 10.375 24.3542V15.9688H7.32812V12.5H10.375V9.85625C10.375 6.84875 12.1666 5.1875 14.9076 5.1875C16.2201 5.1875 17.5938 5.42188 17.5938 5.42188V8.375H16.0806C14.59 8.375 14.125 9.30008 14.125 10.25V12.5H17.4531L16.9211 15.9688H14.125V24.3542C19.8618 23.454 24.25 18.4895 24.25 12.5Z" fill="#1877F2"/>
<path d="M16.9211 15.9688L17.4531 12.5H14.125V10.25C14.125 9.30102 14.59 8.375 16.0806 8.375H17.5938V5.42188C17.5938 5.42188 16.2205 5.1875 14.9076 5.1875C12.1666 5.1875 10.375 6.84875 10.375 9.85625V12.5H7.32812V15.9688H10.375V24.3542C11.6174 24.5486 12.8826 24.5486 14.125 24.3542V15.9688H16.9211Z" fill="white"/>
</g>
<defs>
<clipPath id="clip0_661_805">
<rect width="24" height="24" fill="white" transform="translate(0.25 0.5)"/>
</clipPath>
</defs>
</svg>
