<svg width="65" height="64" viewBox="0 0 65 64" fill="none" xmlns="http://www.w3.org/2000/svg">
<rect x="0.5" width="64" height="64" rx="32" fill="#F4F4F4"/>
<rect x="0.5" width="64" height="64" rx="32" stroke="#EAECF0"/>
<circle cx="27.4999" cy="26.9999" r="5.66667" stroke="#33363F" stroke-width="2" stroke-linecap="round"/>
<path d="M32.3692 26.6665C32.8996 25.7478 33.7733 25.0774 34.798 24.8028C35.8227 24.5282 36.9145 24.672 37.8333 25.2024C38.752 25.7328 39.4224 26.6065 39.697 27.6312C39.9715 28.6559 39.8278 29.7478 39.2974 30.6665C38.7669 31.5852 37.8932 32.2556 36.8685 32.5302C35.8438 32.8048 34.752 32.661 33.8333 32.1306C32.9145 31.6002 32.2441 30.7265 31.9695 29.7018C31.695 28.6771 31.8387 27.5852 32.3692 26.6665L32.3692 26.6665Z" stroke="#33363F" stroke-width="2"/>
<path d="M35.636 43.6667L34.6557 43.8641L34.8173 44.6667H35.636V43.6667ZM42.2614 42.5621L43.225 42.2949V42.2949L42.2614 42.5621ZM32.1346 38.1842L31.5298 37.3879L30.3732 38.2664L31.6065 39.0334L32.1346 38.1842ZM41.3672 42.6667H35.636V44.6667H41.3672V42.6667ZM41.2977 42.8294C41.2943 42.817 41.2913 42.7915 41.2983 42.7605C41.3048 42.7313 41.3174 42.709 41.3295 42.6944C41.3533 42.6657 41.3734 42.6667 41.3672 42.6667V44.6667C42.5383 44.6667 43.5861 43.597 43.225 42.2949L41.2977 42.8294ZM35.8333 38C37.6694 38 38.8808 38.7612 39.7173 39.7258C40.5807 40.7214 41.0545 41.9523 41.2977 42.8294L43.225 42.2949C42.9428 41.2773 42.3658 39.7272 41.2283 38.4154C40.0637 37.0726 38.3239 36 35.8333 36V38ZM32.7395 38.9806C33.4944 38.4072 34.4886 38 35.8333 38V36C34.0448 36 32.627 36.5545 31.5298 37.3879L32.7395 38.9806ZM31.6065 39.0334C33.5682 40.2534 34.3507 42.35 34.6557 43.8641L36.6163 43.4692C36.2676 41.7379 35.3138 38.9838 32.6628 37.3351L31.6065 39.0334Z" fill="#33363F"/>
<path d="M27.5 37C34.0371 37 35.4461 42.1281 35.7498 44.3387C35.825 44.8859 35.3856 45.3333 34.8333 45.3333H20.1666C19.6143 45.3333 19.1749 44.8859 19.2501 44.3387C19.5538 42.1281 20.9628 37 27.5 37Z" stroke="#33363F" stroke-width="2" stroke-linecap="round"/>
</svg>
