<svg width="64" height="64" viewBox="0 0 64 64" fill="none" xmlns="http://www.w3.org/2000/svg">
<rect width="64" height="64" rx="32" fill="#F4F4F4"/>
<rect width="64" height="64" rx="32" stroke="#EAECF0"/>
<path d="M37.6667 25.3334C37.6667 28.463 35.1297 31.0001 32 31.0001C28.8704 31.0001 26.3334 28.463 26.3334 25.3334C26.3334 22.2038 28.8704 19.6667 32 19.6667C35.1297 19.6667 37.6667 22.2038 37.6667 25.3334Z" stroke="black" stroke-width="2" stroke-linecap="round"/>
<path d="M36.8693 25C37.3997 24.0813 38.2734 23.4109 39.2981 23.1363C40.3228 22.8617 41.4146 23.0055 42.3334 23.5359C43.2521 24.0663 43.9225 24.94 44.1971 25.9647C44.4716 26.9894 44.3279 28.0813 43.7975 29C43.267 29.9187 42.3934 30.5891 41.3686 30.8637C40.3439 31.1383 39.2521 30.9945 38.3334 30.4641C37.4146 29.9337 36.7442 29.06 36.4697 28.0353C36.1951 27.0106 36.3388 25.9187 36.8693 25L36.8693 25Z" stroke="black" stroke-width="2"/>
<path d="M20.2025 25C20.733 24.0813 21.6066 23.4109 22.6313 23.1363C23.6561 22.8617 24.7479 23.0055 25.6666 23.5359C26.5854 24.0663 27.2558 24.94 27.5303 25.9647C27.8049 26.9894 27.6612 28.0813 27.1307 29C26.6003 29.9187 25.7266 30.5891 24.7019 30.8637C23.6772 31.1383 22.5854 30.9945 21.6666 30.4641C20.7479 29.9337 20.0775 29.06 19.8029 28.0353C19.5284 27.0106 19.6721 25.9187 20.2025 25L20.2025 25Z" stroke="black" stroke-width="2"/>
<path d="M40.1361 41.9999L39.1558 42.1974L39.3174 42.9999H40.1361V41.9999ZM46.7615 40.8954L47.7251 40.6281V40.6281L46.7615 40.8954ZM36.6348 36.5175L36.0299 35.7211L34.8733 36.5996L36.1066 37.3666L36.6348 36.5175ZM45.8673 40.9999H40.1361V42.9999H45.8673V40.9999ZM45.7979 41.1626C45.7944 41.1502 45.7914 41.1248 45.7984 41.0938C45.8049 41.0645 45.8176 41.0423 45.8296 41.0277C45.8534 40.9989 45.8735 40.9999 45.8673 40.9999V42.9999C47.0385 42.9999 48.0863 41.9303 47.7251 40.6281L45.7979 41.1626ZM40.3334 36.3333C42.1695 36.3333 43.3809 37.0944 44.2174 38.059C45.0809 39.0547 45.5546 40.2856 45.7979 41.1626L47.7251 40.6281C47.4429 39.6106 46.8659 38.0604 45.7284 36.7487C44.5639 35.4058 42.824 34.3333 40.3334 34.3333V36.3333ZM37.2396 37.3138C37.9945 36.7404 38.9887 36.3333 40.3334 36.3333V34.3333C38.5449 34.3333 37.1271 34.8877 36.0299 35.7211L37.2396 37.3138ZM36.1066 37.3666C38.0683 38.5867 38.8508 40.6832 39.1558 42.1974L41.1164 41.8025C40.7677 40.0712 39.8139 37.3171 37.1629 35.6683L36.1066 37.3666Z" fill="black"/>
<path d="M27.3653 36.5175L27.8935 37.3666L29.1268 36.5996L27.9702 35.7211L27.3653 36.5175ZM17.2386 40.8954L16.275 40.6281L16.275 40.6281L17.2386 40.8954ZM23.864 41.9999V42.9999H24.6826L24.8443 42.1974L23.864 41.9999ZM23.6667 36.3333C25.0114 36.3333 26.0056 36.7404 26.7605 37.3138L27.9702 35.7211C26.873 34.8877 25.4552 34.3333 23.6667 34.3333V36.3333ZM18.2022 41.1627C18.4455 40.2856 18.9192 39.0547 19.7827 38.059C20.6192 37.0944 21.8307 36.3333 23.6667 36.3333V34.3333C21.1761 34.3333 19.4363 35.4058 18.2717 36.7487C17.1342 38.0604 16.5572 39.6106 16.275 40.6281L18.2022 41.1627ZM18.1328 40.9999C18.1266 40.9999 18.1467 40.9989 18.1705 41.0277C18.1825 41.0423 18.1952 41.0645 18.2017 41.0938C18.2087 41.1248 18.2057 41.1502 18.2022 41.1626L16.275 40.6281C15.9138 41.9303 16.9616 42.9999 18.1328 42.9999V40.9999ZM23.864 40.9999H18.1328V42.9999H23.864V40.9999ZM24.8443 42.1974C25.1492 40.6832 25.9318 38.5867 27.8935 37.3666L26.8372 35.6683C24.1862 37.317 23.2323 40.0712 22.8836 41.8025L24.8443 42.1974Z" fill="black"/>
<path d="M32 35.3333C38.5371 35.3333 39.9461 40.4613 40.2498 42.672C40.325 43.2191 39.8856 43.6666 39.3333 43.6666H24.6666C24.1143 43.6666 23.6749 43.2191 23.7501 42.672C24.0538 40.4613 25.4628 35.3333 32 35.3333Z" stroke="black" stroke-width="2" stroke-linecap="round"/>
</svg>
