<svg width="20" height="20" viewBox="0 0 20 20" fill="none" xmlns="http://www.w3.org/2000/svg">
<path fill-rule="evenodd" clip-rule="evenodd" d="M9 6.66602H4.5C3.55719 6.66602 3.08579 6.66602 2.79289 6.95891C2.5 7.2518 2.5 7.72321 2.5 8.66602V8.83268C2.5 9.77549 2.5 10.2469 2.79289 10.5398C2.84308 10.59 2.8985 10.6316 2.96063 10.666H9V6.66602ZM5 12.666V15.4993C5 16.4422 5 16.9136 5.29289 17.2065C5.58579 17.4993 6.05719 17.4993 7 17.4993H9V12.666H5ZM11 17.4993H13C13.9428 17.4993 14.4142 17.4993 14.7071 17.2065C15 16.9136 15 16.4422 15 15.4994V12.666H11V17.4993ZM17.0394 10.666C17.1015 10.6316 17.1569 10.59 17.2071 10.5398C17.5 10.2469 17.5 9.77549 17.5 8.83268V8.66602C17.5 7.72321 17.5 7.2518 17.2071 6.95891C16.9142 6.66602 16.4428 6.66602 15.5 6.66602H11V10.666H17.0394Z" fill="url(#paint0_linear_867_80523)"/>
<path d="M15.832 3.85973V3.70797C15.832 2.70341 14.8479 1.99407 13.8949 2.31174C12.7027 2.70913 11.6194 3.37863 10.7308 4.26722L9.9987 4.99935V5.83268H13.0075C13.2224 5.83268 13.436 5.79803 13.6399 5.73005L14.7509 5.35973C15.3965 5.14451 15.832 4.5403 15.832 3.85973Z" fill="url(#paint1_linear_867_80523)"/>
<path d="M4.16797 3.85973V3.70797C4.16797 2.70341 5.15213 1.99407 6.10514 2.31174C7.29731 2.70913 8.38058 3.37863 9.26917 4.26722L10.0013 4.99935V5.83268H6.99252C6.77756 5.83268 6.564 5.79803 6.36007 5.73005L5.24911 5.35973C4.60346 5.14451 4.16797 4.5403 4.16797 3.85973Z" fill="url(#paint2_linear_867_80523)"/>
<defs>
<linearGradient id="paint0_linear_867_80523" x1="10" y1="6.66602" x2="10" y2="17.4993" gradientUnits="userSpaceOnUse">
<stop stop-color="#FF2D6C"/>
<stop offset="1" stop-color="#991B41"/>
</linearGradient>
<linearGradient id="paint1_linear_867_80523" x1="12.9154" y1="1.66602" x2="12.9154" y2="5.83268" gradientUnits="userSpaceOnUse">
<stop stop-color="#FF2D6C"/>
<stop offset="1" stop-color="#991B41"/>
</linearGradient>
<linearGradient id="paint2_linear_867_80523" x1="7.08464" y1="1.66602" x2="7.08464" y2="5.83268" gradientUnits="userSpaceOnUse">
<stop stop-color="#FF2D6C"/>
<stop offset="1" stop-color="#991B41"/>
</linearGradient>
</defs>
</svg>
