<svg width="41" height="41" viewBox="0 0 41 41" fill="none" xmlns="http://www.w3.org/2000/svg">
<rect width="41" height="41" fill="url(#paint0_linear_1011_39800)"/>
<path fill-rule="evenodd" clip-rule="evenodd" d="M20 16H14C13.0572 16 12.5858 16 12.2929 16.2929C12 16.5858 12 17.0572 12 18V19C12 19.9428 12 20.4142 12.2929 20.7071C12.5858 21 13.0572 21 14 21H15H20V16ZM15 23V27C15 27.9428 15 28.4142 15.2929 28.7071C15.5858 29 16.0572 29 17 29H20V23H15ZM22 29H25C25.9428 29 26.4142 29 26.7071 28.7071C27 28.4142 27 27.9428 27 27V23H22V29ZM27 21H28C28.9428 21 29.4142 21 29.7071 20.7071C30 20.4142 30 19.9428 30 19V18C30 17.0572 30 16.5858 29.7071 16.2929C29.4142 16 28.9428 16 28 16H22V21H27Z" fill="white"/>
<path d="M28 12.6325V12.4503C28 11.2449 26.819 10.3937 25.6754 10.7749C24.2448 11.2517 22.9449 12.0551 21.8786 13.1214L21 14V15H24.6754C24.8904 15 25.104 14.9653 25.3079 14.8974L26.7026 14.4325C27.4774 14.1742 28 13.4491 28 12.6325Z" fill="white"/>
<path d="M14 12.6325V12.4503C14 11.2449 15.181 10.3937 16.3246 10.7749C17.7552 11.2517 19.0551 12.0551 20.1214 13.1214L21 14V15H17.3246C17.1096 15 16.896 14.9653 16.6921 14.8974L15.2974 14.4325C14.5226 14.1742 14 13.4491 14 12.6325Z" fill="white"/>
<defs>
<linearGradient id="paint0_linear_1011_39800" x1="20.5" y1="0" x2="20.5" y2="41" gradientUnits="userSpaceOnUse">
<stop stop-color="#FF2D6C"/>
<stop offset="1" stop-color="#991B41"/>
</linearGradient>
</defs>
</svg>
