<svg width="25" height="24" viewBox="0 0 25 24" fill="none" xmlns="http://www.w3.org/2000/svg">
<path fill-rule="evenodd" clip-rule="evenodd" d="M13.7322 3.95133C15.76 4.42655 17.3816 5.91484 17.9338 7.83499L18.708 7.37444C20.6852 6.1981 23.25 7.55122 23.25 9.77073L23.25 14.5944C23.25 16.6951 20.9276 18.0613 18.9537 17.1219L17.7985 16.572C17.1465 18.2938 15.6143 19.6076 13.7322 20.0487C11.1845 20.6457 8.49347 20.653 5.94246 20.0551C3.84198 19.5629 2.21547 17.9809 1.74366 15.9713L1.67818 15.6925C1.10727 13.2608 1.10727 10.7392 1.67818 8.30754L1.74366 8.02865C2.21547 6.0191 3.84198 4.43714 5.94246 3.94488C8.49347 3.34704 11.1845 3.35426 13.7322 3.95133ZM18.2406 14.8481C18.5634 13.1277 18.5914 11.3698 18.3245 9.64278L19.6713 8.84156C20.438 8.38543 21.4325 8.9101 21.4325 9.77073L21.4325 14.5944C21.4325 15.4089 20.5319 15.9387 19.7666 15.5744L18.2406 14.8481Z" fill="white"/>
</svg>
