<svg width="25" height="25" viewBox="0 0 25 25" fill="none" xmlns="http://www.w3.org/2000/svg">
<g clip-path="url(#clip0_661_866)">
<path d="M24.5163 12.7763C24.5163 11.9605 24.4501 11.1404 24.309 10.3379H12.9902V14.9589H19.472C19.203 16.4492 18.3388 17.7676 17.0733 18.6054V21.6037H20.9403C23.2111 19.5137 24.5163 16.4272 24.5163 12.7763Z" fill="#4285F4"/>
<path d="M12.9901 24.5008C16.2266 24.5008 18.9559 23.4382 20.9445 21.6039L17.0776 18.6055C16.0017 19.3375 14.6127 19.752 12.9945 19.752C9.86388 19.752 7.20946 17.6399 6.25705 14.8003H2.2666V17.8912C4.30371 21.9434 8.4529 24.5008 12.9901 24.5008Z" fill="#34A853"/>
<path d="M6.25277 14.8002C5.75011 13.3099 5.75011 11.696 6.25277 10.2057V7.11475H2.26674C0.564734 10.5055 0.564734 14.5004 2.26674 17.8912L6.25277 14.8002Z" fill="#FBBC04"/>
<path d="M12.9901 5.24966C14.7009 5.2232 16.3544 5.86697 17.5934 7.04867L21.0195 3.62262C18.8501 1.5855 15.9708 0.465534 12.9901 0.500809C8.4529 0.500809 4.30371 3.05822 2.2666 7.11481L6.25264 10.2058C7.20064 7.36173 9.85947 5.24966 12.9901 5.24966Z" fill="#EA4335"/>
</g>
<defs>
<clipPath id="clip0_661_866">
<rect width="24" height="24" fill="white" transform="translate(0.75 0.5)"/>
</clipPath>
</defs>
</svg>
