<svg width="17" height="17" viewBox="0 0 17 17" fill="none" xmlns="http://www.w3.org/2000/svg">
<g clip-path="url(#clip0_658_1024)">
<path d="M6.80967 6.50016C6.96641 6.05461 7.27578 5.6789 7.68298 5.43958C8.09018 5.20027 8.56894 5.11279 9.03446 5.19264C9.49998 5.27249 9.92222 5.51451 10.2264 5.87585C10.5306 6.23718 10.697 6.69451 10.6963 7.16683C10.6963 8.50016 8.69634 9.16683 8.69634 9.16683M8.74967 11.8335H8.75634M15.4163 8.50016C15.4163 12.1821 12.4316 15.1668 8.74967 15.1668C5.06778 15.1668 2.08301 12.1821 2.08301 8.50016C2.08301 4.81826 5.06778 1.8335 8.74967 1.8335C12.4316 1.8335 15.4163 4.81826 15.4163 8.50016Z" stroke="#98A2B3" stroke-width="1.33333" stroke-linecap="round" stroke-linejoin="round"/>
</g>
<defs>
<clipPath id="clip0_658_1024">
<rect width="16" height="16" fill="white" transform="translate(0.75 0.5)"/>
</clipPath>
</defs>
</svg>
