<svg width="18" height="14" viewBox="0 0 18 14" fill="none" xmlns="http://www.w3.org/2000/svg">
<path fill-rule="evenodd" clip-rule="evenodd" d="M7.01556 3.40678C7.54146 2.88088 8.25473 2.58543 8.99847 2.58543C9.7422 2.58543 10.4555 2.88088 10.9814 3.40678C11.5073 3.93267 11.8027 4.64595 11.8027 5.38968C11.8027 6.13341 11.5073 6.84669 10.9814 7.37259C10.4555 7.89849 9.7422 8.19393 8.99847 8.19393C8.25473 8.19393 7.54146 7.89849 7.01556 7.37259C6.48966 6.84669 6.19422 6.13341 6.19422 5.38968C6.19422 4.64595 6.48966 3.93267 7.01556 3.40678ZM8.99847 3.83543C8.58626 3.83543 8.19093 3.99918 7.89945 4.29066C7.60797 4.58214 7.44422 4.97747 7.44422 5.38968C7.44422 5.80189 7.60797 6.19722 7.89945 6.4887C8.19093 6.78018 8.58626 6.94393 8.99847 6.94393C9.41068 6.94393 9.80601 6.78018 10.0975 6.4887C10.389 6.19722 10.5527 5.80189 10.5527 5.38968C10.5527 4.97747 10.389 4.58214 10.0975 4.29066C9.80601 3.99918 9.41068 3.83543 8.99847 3.83543Z" fill="#EFF0FA"/>
<path fill-rule="evenodd" clip-rule="evenodd" d="M8.99847 10.196C8.07205 10.196 7.18359 10.564 6.52851 11.2191C5.99392 11.7537 5.65048 12.4437 5.54226 13.183L4.30544 13.002C4.45239 11.9981 4.91869 11.0611 5.64463 10.3352C6.53412 9.44571 7.74053 8.94599 8.99847 8.94599C10.2564 8.94599 11.4628 9.44571 12.3523 10.3352C13.0782 11.0611 13.5445 11.9981 13.6915 13.002L12.4547 13.183C12.3465 12.4437 12.003 11.7537 11.4684 11.2191C10.8133 10.564 9.92488 10.196 8.99847 10.196Z" fill="#EFF0FA"/>
<path fill-rule="evenodd" clip-rule="evenodd" d="M15.5881 1.52148H2.40885C2.17873 1.52148 1.99219 1.70803 1.99219 1.93815V12.0628C1.99219 12.2929 2.17874 12.4794 2.40885 12.4794H15.5881C15.8182 12.4794 16.0047 12.2929 16.0047 12.0628V1.93815C16.0047 1.70803 15.8182 1.52148 15.5881 1.52148ZM2.40885 0.271484C1.48838 0.271484 0.742188 1.01768 0.742188 1.93815V12.0628C0.742188 12.9832 1.48838 13.7294 2.40885 13.7294H15.5881C16.5085 13.7294 17.2547 12.9832 17.2547 12.0628V1.93815C17.2547 1.01768 16.5085 0.271484 15.5881 0.271484H2.40885Z" fill="#EFF0FA"/>
</svg>
