<svg width="33" height="32" viewBox="0 0 33 32" fill="none" xmlns="http://www.w3.org/2000/svg">
<path d="M13.4173 10.6668L22.7507 7.3335L18.7507 14.0002L17.4173 20.6668L15.4173 23.3335L8.08398 22.0002L8.75065 19.3335L13.4173 10.6668Z" fill="white"/>
<path d="M8.74935 27.9998L8.49724 23.9661C7.91133 14.5915 15.3565 6.6665 24.7493 6.6665V6.6665L23.1262 7.965C22.5985 8.38718 22.3346 8.59827 22.0941 8.81285C19.7092 10.9405 18.2716 13.9317 18.1 17.1231C18.0827 17.445 18.0827 17.7829 18.0827 18.4587V18.4587C18.0827 18.9967 18.0827 19.2657 18.0599 19.4783C17.8248 21.6709 15.8595 23.2597 13.6663 23.0302C13.4536 23.0079 13.1906 22.9515 12.6646 22.8388L8.74935 21.9998" stroke="white" stroke-width="2"/>
</svg>
