<svg width="20" height="20" viewBox="0 0 20 20" fill="none" xmlns="http://www.w3.org/2000/svg">
<path d="M16.1036 4.81542C16.6654 5.65616 16.6654 6.82655 16.6654 9.16732C16.6654 11.5081 16.6654 12.6785 16.1036 13.5192C15.8604 13.8832 15.5479 14.1957 15.1839 14.4389C14.4495 14.9296 13.4634 14.9917 11.6654 14.9995V15.0007L10.7441 16.8433C10.437 17.4575 9.56045 17.4575 9.25334 16.8433L8.33203 15.0007V14.9995C6.53395 14.9917 5.54792 14.9296 4.81346 14.4389C4.4495 14.1957 4.13699 13.8832 3.8938 13.5192C3.33203 12.6785 3.33203 11.5081 3.33203 9.16732C3.33203 6.82655 3.33203 5.65616 3.8938 4.81542C4.13699 4.45145 4.4495 4.13895 4.81346 3.89575C5.65421 3.33398 6.82459 3.33398 9.16536 3.33398H10.832C13.1728 3.33398 14.3432 3.33398 15.1839 3.89575C15.5479 4.13895 15.8604 4.45145 16.1036 4.81542Z" stroke="#EFF0FA" stroke-width="2" stroke-linecap="round" stroke-linejoin="round"/>
<path d="M7.5 7.5L12.5 7.5" stroke="#EFF0FA" stroke-width="2" stroke-linecap="round" stroke-linejoin="round"/>
<path d="M7.5 10.834H10" stroke="#EFF0FA" stroke-width="2" stroke-linecap="round" stroke-linejoin="round"/>
</svg>
