<svg width="16" height="16" viewBox="0 0 16 16" fill="none" xmlns="http://www.w3.org/2000/svg">
<path fill-rule="evenodd" clip-rule="evenodd" d="M1.49457 1.49652C1.71128 1.27981 2.06135 1.27981 2.27806 1.49652L6.67882 5.89727C6.6962 5.91099 6.71296 5.92588 6.729 5.94192L9.57404 8.78696C9.58992 8.80284 9.60464 8.81944 9.61819 8.83665L11.0464 10.2648C11.0882 10.2885 11.1275 10.3182 11.1632 10.3539C11.1995 10.3902 11.2299 10.4302 11.2543 10.4727L14.5028 13.7213C14.7195 13.938 14.7195 14.2881 14.5028 14.5048C14.2861 14.7215 13.936 14.7215 13.7193 14.5048L10.7377 11.5231C10.1961 11.948 9.56262 12.2431 8.88499 12.3821C8.77617 12.4045 8.66682 12.4227 8.55716 12.4368V13.5545H10.2242C10.5298 13.5545 10.7798 13.8046 10.7798 14.1102C10.7798 14.4158 10.5298 14.6659 10.2242 14.6659H8.01073C8.00765 14.6659 8.00457 14.666 8.00149 14.666C7.9984 14.666 7.99532 14.6659 7.99225 14.6659H5.77878C5.47316 14.6659 5.22311 14.4214 5.22311 14.1102C5.22311 13.8046 5.47316 13.5545 5.77878 13.5545H7.44582V12.4398C7.05337 12.3914 6.66655 12.2906 6.29557 12.1376C5.47873 11.7987 4.77858 11.2263 4.28959 10.4873C3.80616 9.74826 3.55055 8.88142 3.55611 7.9979V6.88656C3.55611 6.58094 3.80616 6.33088 4.11178 6.33088C4.4174 6.33088 4.66745 6.58094 4.66745 6.88656V8.00346C4.66189 8.67026 4.85638 9.3204 5.22312 9.87051C5.58986 10.4206 6.11775 10.854 6.72899 11.1097C7.08401 11.2568 7.45745 11.3395 7.83446 11.3577C7.88723 11.341 7.94335 11.3319 8.00149 11.3319C8.05897 11.3319 8.11447 11.3408 8.16673 11.3572C8.3345 11.3485 8.50212 11.3271 8.66828 11.293C9.13142 11.198 9.56636 11.0071 9.94699 10.7324L9.12917 9.91462C8.91583 10.0398 8.68167 10.1287 8.43491 10.1761C8.29044 10.2095 8.14596 10.2206 8.00149 10.2206C7.71254 10.2206 7.42359 10.165 7.15131 10.0483C6.74567 9.88163 6.40115 9.59824 6.15666 9.23149C5.90661 8.87031 5.7788 8.44244 5.7788 8.00346V6.56425L1.49457 2.28001C1.27785 2.0633 1.27785 1.71323 1.49457 1.49652ZM8.28583 9.07128L6.89576 7.68121L6.89014 7.67561V7.9979C6.89014 8.22017 6.95682 8.43133 7.07907 8.6147C7.20132 8.79807 7.37358 8.93699 7.57918 9.0259C7.77922 9.10925 8.00149 9.13147 8.2182 9.08702C8.23918 9.08177 8.26017 9.07653 8.28583 9.07128Z" fill="#EFF0FA"/>
<path d="M9.6685 7.07549C9.36288 7.07549 9.11283 6.82544 9.11283 6.51982V3.55253C9.11283 3.2747 9.01281 3.01353 8.82388 2.80793C8.64051 2.60234 8.3849 2.47453 8.11262 2.44675C7.84034 2.41896 7.56251 2.4912 7.34024 2.6579C7.11797 2.81905 6.96794 3.06354 6.91237 3.33027C6.85125 3.63033 6.55674 3.82481 6.25668 3.76369C5.95662 3.70257 5.76213 3.41362 5.82325 3.11355C5.93439 2.57455 6.24001 2.09668 6.68455 1.76883C7.12908 1.44098 7.6792 1.29095 8.22931 1.34652C8.77943 1.40209 9.28509 1.65769 9.65739 2.06889C10.0186 2.47453 10.2242 3.00242 10.2242 3.55809V6.52538C10.2242 6.83099 9.97412 7.07549 9.6685 7.07549Z" fill="#EFF0FA"/>
<path d="M12.4468 6.88656C12.4468 6.58094 12.1968 6.33088 11.8912 6.33088C11.5856 6.33088 11.3355 6.58094 11.3355 6.88656V7.9979C11.3355 8.19794 11.3188 8.39243 11.2799 8.58691C11.2244 8.88697 11.43 9.17592 11.73 9.23149C12.0301 9.28706 12.319 9.08146 12.3746 8.78139C12.4246 8.52023 12.4468 8.25906 12.4468 7.9979V6.88656Z" fill="#EFF0FA"/>
</svg>
