<svg width="10" height="10" viewBox="0 0 10 10" fill="none" xmlns="http://www.w3.org/2000/svg">
<g clip-path="url(#clip0_1011_39938)">
<path d="M8.13614 1.37502H6.13614C6.05619 1.13741 5.90367 0.930883 5.70009 0.784578C5.4965 0.638273 5.25212 0.55957 5.00142 0.55957C4.75071 0.55957 4.50633 0.638273 4.30275 0.784578C4.09916 0.930883 3.94664 1.13741 3.86669 1.37502H1.94447C1.87644 1.36519 1.8071 1.36989 1.74103 1.38881C1.67495 1.40774 1.61364 1.44046 1.56114 1.48483C1.50864 1.52919 1.46614 1.58418 1.43645 1.64618C1.40677 1.70817 1.39056 1.77575 1.38892 1.84447V8.96113C1.38928 9.02315 1.40185 9.08448 1.42592 9.14164C1.44999 9.19879 1.48508 9.25064 1.52919 9.29424C1.5733 9.33783 1.62556 9.3723 1.68299 9.3957C1.74042 9.41909 1.8019 9.43095 1.86392 9.43058H8.13614C8.19815 9.43095 8.25963 9.41909 8.31706 9.3957C8.3745 9.3723 8.42676 9.33783 8.47087 9.29424C8.51497 9.25064 8.55006 9.19879 8.57413 9.14164C8.5982 9.08448 8.61077 9.02315 8.61114 8.96113V1.84447C8.61077 1.78246 8.5982 1.72112 8.57413 1.66397C8.55006 1.60681 8.51497 1.55496 8.47087 1.51137C8.42676 1.46778 8.3745 1.4333 8.31706 1.40991C8.25963 1.38651 8.19815 1.37466 8.13614 1.37502ZM3.13614 2.20836C3.13614 2.13469 3.1654 2.06403 3.2175 2.01194C3.26959 1.95985 3.34024 1.93058 3.41392 1.93058H4.36947V1.75558C4.36947 1.58503 4.43722 1.42147 4.55782 1.30087C4.67841 1.18028 4.84198 1.11252 5.01253 1.11252C5.18308 1.11252 5.34664 1.18028 5.46724 1.30087C5.58783 1.42147 5.65558 1.58503 5.65558 1.75558V1.94447H6.61114C6.68481 1.94447 6.75546 1.97374 6.80756 2.02583C6.85965 2.07792 6.88892 2.14858 6.88892 2.22225V2.72225H3.12503L3.13614 2.20836ZM7.16947 4.77225L4.63614 7.30558L3.18058 5.85002C3.10691 5.77635 3.06552 5.67643 3.06552 5.57225C3.06552 5.46806 3.10691 5.36814 3.18058 5.29447C3.25425 5.2208 3.35417 5.17941 3.45836 5.17941C3.56255 5.17941 3.66247 5.2208 3.73614 5.29447L4.64169 6.20002L6.62503 4.21669C6.6987 4.14302 6.79862 4.10163 6.90281 4.10163C7.00699 4.10163 7.10691 4.14302 7.18058 4.21669C7.25425 4.29036 7.29564 4.39028 7.29564 4.49447C7.29564 4.59866 7.25425 4.69858 7.18058 4.77225H7.16947Z" fill="#8837E9"/>
</g>
<defs>
<clipPath id="clip0_1011_39938">
<rect width="10" height="10" fill="white"/>
</clipPath>
</defs>
</svg>
