<svg width="41" height="41" viewBox="0 0 41 41" fill="none" xmlns="http://www.w3.org/2000/svg">
<rect width="41" height="41" fill="#8837E9"/>
<g clip-path="url(#clip0_1011_39968)">
<path d="M27.8996 12.025H23.4996C23.3237 11.5022 22.9881 11.0478 22.5402 10.726C22.0923 10.4041 21.5547 10.231 21.0032 10.231C20.4516 10.231 19.914 10.4041 19.4661 10.726C19.0182 11.0478 18.6827 11.5022 18.5068 12.025H14.2779C14.1282 12.0033 13.9757 12.0136 13.8303 12.0553C13.6849 12.0969 13.5501 12.1689 13.4346 12.2665C13.319 12.3641 13.2256 12.4851 13.1602 12.6215C13.0949 12.7579 13.0593 12.9066 13.0557 13.0577V28.7144C13.0565 28.8508 13.0841 28.9858 13.1371 29.1115C13.19 29.2372 13.2672 29.3513 13.3643 29.4472C13.4613 29.5431 13.5763 29.619 13.7026 29.6704C13.829 29.7219 13.9642 29.748 14.1007 29.7472H27.8996C28.036 29.748 28.1712 29.7219 28.2976 29.6704C28.4239 29.619 28.5389 29.5431 28.636 29.4472C28.733 29.3513 28.8102 29.2372 28.8631 29.1115C28.9161 28.9858 28.9438 28.8508 28.9446 28.7144V13.0577C28.9438 12.9213 28.9161 12.7864 28.8631 12.6606C28.8102 12.5349 28.733 12.4208 28.636 12.3249C28.5389 12.229 28.4239 12.1532 28.2976 12.1017C28.1712 12.0502 28.036 12.0242 27.8996 12.025ZM16.8996 13.8583C16.8996 13.6962 16.9639 13.5408 17.0785 13.4262C17.1931 13.3116 17.3486 13.2472 17.5107 13.2472H19.6129V12.8622C19.6129 12.487 19.7619 12.1271 20.0272 11.8618C20.2926 11.5965 20.6524 11.4475 21.0276 11.4475C21.4028 11.4475 21.7627 11.5965 22.028 11.8618C22.2933 12.1271 22.4423 12.487 22.4423 12.8622V13.2777H24.5446C24.7066 13.2777 24.8621 13.3421 24.9767 13.4567C25.0913 13.5713 25.1557 13.7268 25.1557 13.8888V14.9888H16.8751L16.8996 13.8583ZM25.7729 19.4988L20.1996 25.0722L16.9973 21.87C16.8353 21.7079 16.7442 21.4881 16.7442 21.2588C16.7442 21.0296 16.8353 20.8098 16.9973 20.6477C17.1594 20.4857 17.3792 20.3946 17.6084 20.3946C17.8377 20.3946 18.0575 20.4857 18.2196 20.6477L20.2118 22.64L24.5751 18.2766C24.7372 18.1145 24.957 18.0235 25.1862 18.0235C25.4154 18.0235 25.6353 18.1145 25.7973 18.2766C25.9594 18.4387 26.0505 18.6585 26.0505 18.8877C26.0505 19.1169 25.9594 19.3368 25.7973 19.4988H25.7729Z" fill="white"/>
</g>
<defs>
<clipPath id="clip0_1011_39968">
<rect width="22" height="22" fill="white" transform="translate(10 9)"/>
</clipPath>
</defs>
</svg>
