<svg width="8" height="8" viewBox="0 0 8 8" fill="none" xmlns="http://www.w3.org/2000/svg">
<path fill-rule="evenodd" clip-rule="evenodd" d="M2.00036 1.33317H2.74994C3.30222 1.33317 3.74994 1.78089 3.74994 2.33317C3.74994 2.88546 3.30222 3.33317 2.74994 3.33317H1.91661V3.4165H2.74994C3.30222 3.4165 3.74994 3.86422 3.74994 4.4165C3.74994 4.96879 3.30222 5.4165 2.74994 5.4165H1.91661V5.49984H2.74994C3.30222 5.49984 3.74994 5.94755 3.74994 6.49984C3.74994 7.05212 3.30222 7.49984 2.74994 7.49984H2.25613C2.55211 7.74984 3.02227 7.74984 3.9166 7.74984H5.33327C6.27608 7.74984 6.74749 7.74984 7.04038 7.45694C7.33327 7.16405 7.33327 6.69265 7.33327 5.74984V2.6665C7.33327 1.72369 7.33327 1.25229 7.04038 0.959397C6.74749 0.666504 6.27608 0.666504 5.33327 0.666504H3.91661C2.9738 0.666504 2.50239 0.666504 2.2095 0.959397C2.10957 1.05933 2.04373 1.18004 2.00036 1.33317ZM5.66659 3.6665C5.39044 3.6665 5.16659 3.44265 5.16659 3.1665V2.33317C5.16659 2.05703 5.39044 1.83317 5.66659 1.83317C5.94273 1.83317 6.16659 2.05703 6.16659 2.33317V3.1665C6.16659 3.44265 5.94273 3.6665 5.66659 3.6665ZM1.08325 1.83317C0.80711 1.83317 0.583252 2.05703 0.583252 2.33317C0.583252 2.60931 0.80711 2.83317 1.08325 2.83317H2.74992C3.02606 2.83317 3.24992 2.60931 3.24992 2.33317C3.24992 2.05703 3.02606 1.83317 2.74992 1.83317H1.08325ZM1.08325 3.9165C0.80711 3.9165 0.583252 4.14036 0.583252 4.4165C0.583252 4.69265 0.80711 4.9165 1.08325 4.9165H2.74992C3.02606 4.9165 3.24992 4.69265 3.24992 4.4165C3.24992 4.14036 3.02606 3.9165 2.74992 3.9165H1.08325ZM1.08325 5.99984C0.80711 5.99984 0.583252 6.2237 0.583252 6.49984C0.583252 6.77598 0.80711 6.99984 1.08325 6.99984H2.74992C3.02606 6.99984 3.24992 6.77598 3.24992 6.49984C3.24992 6.2237 3.02606 5.99984 2.74992 5.99984H1.08325Z" fill="#FDA629"/>
</svg>
