<svg width="41" height="41" viewBox="0 0 41 41" fill="none" xmlns="http://www.w3.org/2000/svg">
<rect width="41" height="41" rx="4" fill="#FDA629"/>
<path fill-rule="evenodd" clip-rule="evenodd" d="M16.0044 15H18C18.5523 15 19 15.4477 19 16C19 16.5523 18.5523 17 18 17H16V20H18C18.5523 20 19 20.4477 19 21C19 21.5523 18.5523 22 18 22H16V25H18C18.5523 25 19 25.4477 19 26C19 26.5523 18.5523 27 18 27H16.0508C16.1147 27.6501 16.2592 28.0876 16.5858 28.4142C17.1716 29 18.1144 29 20 29H25C26.8857 29 27.8285 29 28.4143 28.4142C29 27.8284 29 26.8856 29 25V16C29 14.1144 29 13.1716 28.4143 12.5858C27.8285 12 26.8857 12 25 12H20C18.1144 12 17.1716 12 16.5858 12.5858C16.1143 13.0573 16.0223 13.7602 16.0044 15ZM25 19C24.4477 19 24 18.5523 24 18V16C24 15.4477 24.4477 15 25 15C25.5523 15 26 15.4477 26 16V18C26 18.5523 25.5523 19 25 19ZM14 15.5C13.7239 15.5 13.5 15.7239 13.5 16C13.5 16.2761 13.7239 16.5 14 16.5H18C18.2761 16.5 18.5 16.2761 18.5 16C18.5 15.7239 18.2761 15.5 18 15.5H14ZM14 20.5C13.7239 20.5 13.5 20.7239 13.5 21C13.5 21.2761 13.7239 21.5 14 21.5H18C18.2761 21.5 18.5 21.2761 18.5 21C18.5 20.7239 18.2761 20.5 18 20.5H14ZM14 25.5C13.7239 25.5 13.5 25.7239 13.5 26C13.5 26.2761 13.7239 26.5 14 26.5H18C18.2761 26.5 18.5 26.2761 18.5 26C18.5 25.7239 18.2761 25.5 18 25.5H14Z" fill="white"/>
</svg>
