<svg width="65" height="64" viewBox="0 0 65 64" fill="none" xmlns="http://www.w3.org/2000/svg">
<rect x="0.5" width="64" height="64" rx="32" fill="#8837E9"/>
<rect x="0.5" width="64" height="64" rx="32" stroke="#EAECF0"/>
<path d="M25.8333 45.3333L25.1262 46.0404L25.8333 46.7475L26.5404 46.0404L25.8333 45.3333ZM29.1666 19.6666C29.7189 19.6666 30.1666 19.2189 30.1666 18.6666C30.1666 18.1143 29.7189 17.6666 29.1666 17.6666L29.1666 19.6666ZM18.4595 39.3737L25.1262 46.0404L26.5404 44.6261L19.8737 37.9595L18.4595 39.3737ZM26.5404 46.0404L33.2071 39.3737L31.7929 37.9595L25.1262 44.6261L26.5404 46.0404ZM26.8333 45.3333L26.8333 20.6666L24.8333 20.6666L24.8333 45.3333L26.8333 45.3333ZM27.8333 19.6666L29.1666 19.6666L29.1666 17.6666L27.8333 17.6666L27.8333 19.6666ZM26.8333 20.6666C26.8333 20.1143 27.281 19.6666 27.8333 19.6666L27.8333 17.6666C26.1764 17.6666 24.8333 19.0097 24.8333 20.6666L26.8333 20.6666Z" fill="white"/>
<path d="M39.1667 18.6667L38.4596 17.9596L39.1667 17.2525L39.8738 17.9596L39.1667 18.6667ZM39.1667 45.0001L38.1667 45.0001L39.1667 45.0001ZM35.8333 48.0001C35.281 48.0001 34.8333 47.5524 34.8333 47.0001C34.8333 46.4478 35.281 46.0001 35.8333 46.0001L35.8333 48.0001ZM31.7929 24.6263L38.4596 17.9596L39.8738 19.3739L33.2071 26.0405L31.7929 24.6263ZM39.8738 17.9596L46.5404 24.6263L45.1262 26.0405L38.4596 19.3739L39.8738 17.9596ZM40.1667 18.6667L40.1667 45.0001L38.1667 45.0001L38.1667 18.6667L40.1667 18.6667ZM37.1667 48.0001L35.8333 48.0001L35.8333 46.0001L37.1667 46.0001L37.1667 48.0001ZM40.1667 45.0001C40.1667 46.6569 38.8235 48.0001 37.1667 48.0001L37.1667 46.0001C37.719 46.0001 38.1667 45.5524 38.1667 45.0001L40.1667 45.0001Z" fill="white"/>
</svg>
