<svg width="18" height="18" viewBox="0 0 18 18" fill="none" xmlns="http://www.w3.org/2000/svg">
<path fill-rule="evenodd" clip-rule="evenodd" d="M1.70222 0.195113C2.09605 0.124914 2.50201 0.182512 2.86077 0.359491L2.86866 0.363387L17.1291 7.60768C17.345 7.71749 17.5267 7.88507 17.6533 8.09154C17.7785 8.29578 17.8455 8.53036 17.8469 8.76985C17.847 8.77234 17.847 8.77484 17.847 8.77734L17.847 8.77996C17.8465 9.02141 17.7795 9.25807 17.6533 9.46391C17.5267 9.67039 17.3454 9.83779 17.1295 9.9476L2.86079 17.2058C2.50203 17.3827 2.09605 17.4403 1.70222 17.3701C1.3084 17.2999 0.947344 17.1056 0.671829 16.8155C0.396316 16.5255 0.220786 16.155 0.170893 15.758C0.120999 15.3611 0.199357 14.9587 0.394516 14.6095C0.399346 14.6008 0.404348 14.5923 0.409517 14.5838L3.96318 8.77768L0.409813 2.98186C0.404539 2.97326 0.399438 2.96455 0.394516 2.95574C0.199357 2.60654 0.120999 2.20407 0.170893 1.80716C0.220786 1.41025 0.396316 1.0397 0.671829 0.749664C0.947342 0.459628 1.3084 0.265312 1.70222 0.195113ZM15.3243 8.02734L2.19426 1.7033C2.12322 1.66901 2.04315 1.65798 1.96544 1.67184C1.88668 1.68587 1.81447 1.72474 1.75937 1.78275C1.70426 1.84075 1.66916 1.91486 1.65918 1.99424C1.64966 2.06996 1.66348 2.14668 1.69864 2.21421L5.43772 8.02734H15.3243ZM5.40055 9.52734H15.3248L2.19411 15.862C2.12311 15.8962 2.0431 15.9072 1.96544 15.8934C1.88668 15.8793 1.81447 15.8405 1.75937 15.7825C1.70426 15.7244 1.66916 15.6503 1.65918 15.571C1.64965 15.4952 1.6635 15.4184 1.69873 15.3508L5.40055 9.52734Z" fill="#C5C6D0"/>
</svg>
