<svg id="Layer_1" data-name="Layer 1" width="30" height="30" xmlns="http://www.w3.org/2000/svg" viewBox="0 0 89.43 169.37"><title>full hd_svg_logo</title><path d="M35.08,141.89s-.94.39-1.3-.79c.55-.95-2.54-9.27,26.93-14.8,31.63-4.54,47.3,2,46.8,1.62.52.25-16.86-7.47-42.57-4.71-24.78,3.18-30,8.09-33.61,14.81,0,0-1-9.54-1-11.07.2-.79,6.13-13.58,39-17.61.37-.21-19.51-.64-34.65,9.19.06,0-.77-3,4.31-6.71s18.3-9.67,35.93-10.34c8.68-.45,20.16,1,28.3,4,8.31,2.93,13.27,7.06,12.92,10.55a9.45,9.45,0,0,1-.68,3.08c.1,0,5,1.38,4.24,8.42s-.25,14.1-3.83,13.85c-.47.43-4.55-7-40.73-7.32C39,135.3,35.59,142.31,35.08,141.89Z" transform="translate(-30.28 -65.31)"/><path d="M45.75,182.25a4,4,0,0,0-.51-.5,4.35,4.35,0,0,0-.82-.57,1.49,1.49,0,0,0-.72-.19.45.45,0,0,0-.43.34,14,14,0,0,0-.6,2.16c-.07.32-.13.64-.18,1-.49-3.29-1-6.62-1.43-9.94-1.58-11.41-3-22.89-4.09-33.8l-.33-3.27c1.13-.25,2.3-.51,3.51-.76l.24,2.41c.07.7.15,1.4.22,2.11l.33,3.11c1.06,9.85,2.31,20.05,3.71,30.14Q45.18,178.36,45.75,182.25Z" transform="translate(-30.28 -65.31)"/><path d="M47.5,193.81q-.12.41-.27.78a4.83,4.83,0,0,1-.42.88,1.68,1.68,0,0,1-.48.53.56.56,0,0,1-.56,0,1.46,1.46,0,0,1-.67-1,8,8,0,0,1-.27-1.86,20.1,20.1,0,0,1,.06-2.41,22.24,22.24,0,0,1,.36-2.58c.16-.85.35-1.66.57-2.41.1-.35.2-.67.31-1C46.58,187.86,47,190.86,47.5,193.81Z" transform="translate(-30.28 -65.31)"/><path d="M102.26,197.86l-.13.2c0-.14,0-.28.07-.42l.39-.3C102.47,197.52,102.36,197.69,102.26,197.86Z" transform="translate(-30.28 -65.31)"/><path d="M105.63,197.93l.11-.08q-1,6.56-2.13,12.83c-1.42,8.2-2.92,16-4.45,23.07-16.2,2.12-32.08.59-48.56-4-1.51-6.89-3-14.43-4.39-22.35-.63-3.52-1.23-7.12-1.83-10.77l.09.08a2.49,2.49,0,0,0,1.36.59,1.53,1.53,0,0,0,1.32-.48,3.47,3.47,0,0,0,.67-.93c.71,4.39,1.43,8.69,2.16,12.86a.08.08,0,0,1,0,0c.22,1.23.44,2.46.65,3.66,1,5.21,1.91,10.18,2.88,14.83,14.44,4.48,28.56,5.75,42.8,3.36.92-4.5,1.84-9.29,2.75-14.31.27-1.52.55-3.07.82-4.63,0,0,0-.06,0-.09.57-3.26,1.13-6.61,1.68-10,.24-.24.48-.5.71-.78.52-.62,1-1.26,1.48-1.91A10.76,10.76,0,0,0,105.63,197.93Z" transform="translate(-30.28 -65.31)"/><path d="M106.17,195.05v0c-.07.48-.15,1-.22,1.44a9.08,9.08,0,0,1-1.07.72c.25-.4.49-.78.7-1.14S106,195.35,106.17,195.05Z" transform="translate(-30.28 -65.31)"/><path d="M106.8,190.93l-.17,1.13a.17.17,0,0,0-.06-.06,1.12,1.12,0,0,0-.75-.3c-.28,0-.49.18-.65.53,0,0,0,0,0,0s-.11.24-.26.52-.32.6-.53,1-.45.74-.72,1.14a9.54,9.54,0,0,1-.82,1.08,6,6,0,0,1-.43.44c.18-1.2.37-2.41.55-3.63a9.19,9.19,0,0,1,1-.78,6.61,6.61,0,0,1,1.93-.93A3.56,3.56,0,0,1,106.8,190.93Z" transform="translate(-30.28 -65.31)"/><path d="M113.41,136.62c-.1,1.06-.2,2.12-.31,3.18-1.14,11.85-2.58,24.25-4.22,36.49-.59,4.4-1.21,8.78-1.85,13.11a5.54,5.54,0,0,0-1.15-.05,7.54,7.54,0,0,0-2.48.55h0c.68-4.58,1.34-9.24,2-13.92,1.45-10.88,2.76-21.92,3.85-32.65.17-1.64.33-3.28.49-4.91a.28.28,0,0,0,0-.09c.08-.81.15-1.62.23-2.42C111.12,136.15,112.29,136.39,113.41,136.62Z" transform="translate(-30.28 -65.31)"/><path d="M38.58,141.65c1.35-.32,2.72-.59,4.15-.84s2.9-.46,4.42-.63a52.17,52.17,0,0,1,9.49-.32A53.42,53.42,0,0,0,47.43,142c-1.44.45-2.84.94-4.18,1.43s-2.65,1-3.85,1.56C39.12,143.85,38.85,142.75,38.58,141.65Z" transform="translate(-30.28 -65.31)"/><path d="M111,144c-2.31-.83-4.87-1.62-7.55-2.38s-5.52-1.46-8.46-2.08-6-1.19-9.1-1.58a73.05,73.05,0,0,0-9.52-.67,75.38,75.38,0,0,1,9.58-.75c3.17-.07,6.3,0,9.33.22s6,.49,8.74.84,5.41.79,7.89,1.3C111.56,140.54,111.25,142.24,111,144Z" transform="translate(-30.28 -65.31)"/><path d="M101,215.71c-.35.14-.58.2-.85.29l-.77.23c-.51.13-1,.26-1.51.37-1,.23-2,.41-3,.56a57.55,57.55,0,0,1-6,.56c-2,.09-4,.06-6,0-1-.05-2-.12-3-.2s-2-.2-3-.32l3-.21,3-.33c2-.28,4-.61,5.91-1.07a52.91,52.91,0,0,0,5.78-1.66c1-.33,1.89-.69,2.8-1.09.46-.19.91-.4,1.36-.61l.65-.33a6.38,6.38,0,0,0,.56-.31C100.3,213,100.65,214.34,101,215.71Z" transform="translate(-30.28 -65.31)"/><path d="M49,208.12c1.05.66,2.16,1.31,3.26,1.92s2.21,1.21,3.32,1.76a51.68,51.68,0,0,0,6.81,2.89,44.29,44.29,0,0,1-7-1c-1.16-.25-2.32-.54-3.47-.85s-2.29-.66-3.46-1C48.67,210.56,48.84,209.35,49,208.12Z" transform="translate(-30.28 -65.31)"/><path d="M96.54,89.94q.17,4.13.3,8.45a.82.82,0,0,1-1,.83c-3-.3-6-.52-9.09-.64-2,1.78-4,3.61-6,5.51L79.52,103c2-1.9,4.06-3.75,6-5.52,0-2.76-.1-5.46-.16-8.08-1-.93-2.08-1.83-3.11-2.71-4.4,0-8.83.19-13.23.59a.83.83,0,0,1-1-.76c.06-3.7.13-7.23.2-10.54q-.89-.61-1.77-1.2c-1.83.21-3.64.46-5.46.73-.53.09-1-.18-.93-.6.08-1.45.15-2.86.23-4.22a1.1,1.1,0,0,1,1-.85q2.76-.39,5.52-.7c.53-.06,1,.2.94.58q-.06,2-.12,4l1.77,1.19q6.3-.61,12.59-.73a1,1,0,0,1,1.15.88c.11,3.33.2,6.86.28,10.57,1,.88,2.07,1.78,3.11,2.7q4.55.16,9,.6A1.13,1.13,0,0,1,96.54,89.94Z" transform="translate(-30.28 -65.31)"/><path d="M65.7,89.18c-2.18.25-4.35.54-6.5.89a1.19,1.19,0,0,0-1,1c-.06,1.87-.12,3.78-.17,5.72a.78.78,0,0,0,1,.75c2.17-.33,4.37-.61,6.58-.84a1.12,1.12,0,0,0,1-1c0-2,.06-3.89.09-5.77A.81.81,0,0,0,65.7,89.18Z" transform="translate(-30.28 -65.31)"/><path d="M71.54,68.46l2.31-.19c.53,0,1-.38,1-.75V65.9c0-.37-.42-.62-.94-.58l-2.28.19c-.52,0-1,.38-1,.74l0,1.62C70.59,68.24,71,68.51,71.54,68.46Z" transform="translate(-30.28 -65.31)"/><path d="M95.22,79.22l-2-.15a.79.79,0,0,0-.94.76l.09,1.73a1.05,1.05,0,0,0,1,.92l2,.17a.77.77,0,0,0,.92-.76l-.09-1.75A1.08,1.08,0,0,0,95.22,79.22Z" transform="translate(-30.28 -65.31)"/><path d="M101.68,84.17c-1.13-.16-2.27-.3-3.42-.43a.76.76,0,0,0-.92.76c0,1,.1,2.09.14,3.15a1.14,1.14,0,0,0,1,1c1.15.14,2.29.3,3.43.47a.73.73,0,0,0,.9-.75c0-1.07-.1-2.13-.16-3.18A1.15,1.15,0,0,0,101.68,84.17Z" transform="translate(-30.28 -65.31)"/><path d="M56.9,88.42c.05-1.34.11-2.66.17-4,0-.45-.41-.74-1-.64-1.53.29-3.06.6-4.57.94a1.26,1.26,0,0,0-1,1c-.06,1.3-.13,2.62-.19,4,0,.46.39.75.93.63,1.51-.33,3.05-.65,4.6-.94A1.2,1.2,0,0,0,56.9,88.42Z" transform="translate(-30.28 -65.31)"/><path d="M113.91,178.88c-1.36,9.48-2.88,19-4.54,28.18a3.11,3.11,0,0,1-1.86,2.32c-.9.36-2.23.81-3.9,1.3-1.08.32-2.31.64-3.65,1l-.07,0-.22.05h0c-6.72,1.6-16.14,3.07-24.81,2.36-8.54-.37-17.91-2.91-24.69-5.25h0l-.17-.06-1-.36c-1-.35-1.91-.7-2.76-1-1.84-.72-3.3-1.37-4.27-1.85a3.47,3.47,0,0,1-1.88-2.39c-1.61-8.7-3.09-17.66-4.41-26.56-.16-1,.32-1.84,1.17-1.88s2.28-.12,4.24-.17c1,0,2.23-.05,3.58-.06,6.46-.09,16.5-.08,30.26.22,14,.3,24,.82,30.43,1.31,1.35.1,2.53.2,3.55.3,1.78.17,3.08.32,3.89.46S114.08,177.76,113.91,178.88Z" transform="translate(-30.28 -65.31)"/></svg>