<svg width="64" height="64" viewBox="0 0 64 64" fill="none" xmlns="http://www.w3.org/2000/svg">
<rect width="64" height="64" rx="32" fill="url(#paint0_linear_313_13109)"/>
<rect width="64" height="64" rx="32" stroke="#EAECF0"/>
<path d="M33.3116 16.8361L32.6443 17.5572L33.3116 16.8361C32.5653 16.1455 31.4348 16.1455 30.6885 16.8361L31.3676 17.57L30.6885 16.8361C29.4495 17.9825 26.6376 20.7265 24.128 24.2073C21.6408 27.657 19.3334 31.9892 19.3334 36.2857C19.3334 42.8338 25.0863 48 32 48C38.9138 48 44.6667 42.8338 44.6667 36.2857C44.6667 31.9892 42.3593 27.657 39.8721 24.2073C37.3625 20.7265 34.5505 17.9825 33.3116 16.8361Z" stroke="white" stroke-width="2"/>
<path d="M32 42.0001C31.1246 42.0001 30.2577 41.8276 29.4488 41.4926C28.64 41.1576 27.9051 40.6665 27.286 40.0475C26.6669 39.4284 26.1759 38.6935 25.8408 37.8846C25.5058 37.0758 25.3334 36.2089 25.3334 35.3334" stroke="white" stroke-width="2" stroke-linecap="round"/>
<defs>
<linearGradient id="paint0_linear_313_13109" x1="1.07079e-06" y1="52.16" x2="64" y2="16.32" gradientUnits="userSpaceOnUse">
<stop stop-color="#4D4BFE"/>
<stop offset="1" stop-color="#992DF2"/>
</linearGradient>
</defs>
</svg>
