<svg width="10" height="10" viewBox="0 0 10 10" fill="none" xmlns="http://www.w3.org/2000/svg">
<g clip-path="url(#clip0_1011_39923)">
<path d="M4.1999 0C4.14686 0 4.09599 0.0210714 4.05848 0.0585786C4.02097 0.0960859 3.9999 0.146957 3.9999 0.2V0.6C3.9999 0.653043 4.02097 0.703914 4.05848 0.741421C4.09599 0.778929 4.14686 0.8 4.1999 0.8H4.4999V1.3295C2.3363 1.5785 0.649902 3.4209 0.649902 5.65C0.649902 8.0483 2.6016 10 4.9999 10C7.3982 10 9.3499 8.0483 9.3499 5.65C9.35059 4.82913 9.1175 4.02504 8.6779 3.3318L9.1017 2.9887L9.2905 3.2219C9.30702 3.24232 9.3274 3.25929 9.35048 3.27184C9.37356 3.28438 9.39888 3.29226 9.425 3.29502C9.45112 3.29777 9.47753 3.29536 9.50272 3.28791C9.52791 3.28046 9.55138 3.26812 9.5718 3.2516L9.8828 2.9998C9.92397 2.9664 9.9502 2.91801 9.95571 2.86529C9.96122 2.81256 9.94557 2.7598 9.9122 2.7186L8.9054 1.475C8.88888 1.45458 8.8685 1.43761 8.84543 1.42506C8.82235 1.41252 8.79703 1.40464 8.7709 1.40188C8.74478 1.39913 8.71837 1.40154 8.69318 1.40899C8.668 1.41644 8.64452 1.42878 8.6241 1.4453L8.3131 1.6971C8.27193 1.7305 8.24571 1.77889 8.2402 1.83161C8.23468 1.88434 8.25033 1.9371 8.2837 1.9783L8.4726 2.2115L8.0506 2.5529C7.3769 1.8891 6.4882 1.4435 5.4999 1.3297V0.8H5.7999C5.85295 0.8 5.90382 0.778929 5.94132 0.741421C5.97883 0.703914 5.9999 0.653043 5.9999 0.6V0.2C5.9999 0.146957 5.97883 0.0960859 5.94132 0.0585786C5.90382 0.0210714 5.85295 0 5.7999 0L4.1999 0ZM4.9999 2C7.0199 2 8.6499 3.63 8.6499 5.65C8.6499 7.67 7.0199 9.3 4.9999 9.3C2.9799 9.3 1.3499 7.67 1.3499 5.65C1.3499 3.63 2.9799 2 4.9999 2ZM5.0001 2.7443L4.9999 5.65L7.3233 7.3947C7.64739 6.9631 7.84486 6.44976 7.89358 5.91223C7.94229 5.3747 7.84032 4.83423 7.5991 4.3514C7.35789 3.86859 6.98696 3.4625 6.52791 3.17866C6.06886 2.89482 5.53982 2.74435 5.0001 2.7443Z" fill="#8837E9"/>
</g>
<defs>
<clipPath id="clip0_1011_39923">
<rect width="10" height="10" fill="white"/>
</clipPath>
</defs>
</svg>
