<svg width="20" height="18" viewBox="0 0 20 18" fill="none" xmlns="http://www.w3.org/2000/svg">
<path d="M13.3326 12.3332L9.99923 8.9999M9.99923 8.9999L6.6659 12.3332M9.99923 8.9999V16.4999M16.9909 14.3249C17.8037 13.8818 18.4458 13.1806 18.8158 12.3321C19.1858 11.4835 19.2627 10.5359 19.0344 9.63881C18.8061 8.7417 18.2855 7.94616 17.5548 7.37778C16.8241 6.80939 15.925 6.50052 14.9992 6.4999H13.9492C13.697 5.52427 13.2269 4.61852 12.5742 3.85073C11.9215 3.08295 11.1033 2.47311 10.181 2.06708C9.2587 1.66104 8.25636 1.46937 7.24933 1.50647C6.2423 1.54358 5.25679 1.80849 4.36688 2.28129C3.47697 2.7541 2.70583 3.42249 2.11142 4.23622C1.51701 5.04996 1.11481 5.98785 0.935051 6.9794C0.755293 7.97095 0.802655 8.99035 1.07358 9.96096C1.3445 10.9316 1.83194 11.8281 2.49923 12.5832" stroke="#475467" stroke-width="1.66667" stroke-linecap="round" stroke-linejoin="round"/>
</svg>
