<svg width="18" height="18" viewBox="0 0 18 18" fill="none" xmlns="http://www.w3.org/2000/svg">
<path fill-rule="evenodd" clip-rule="evenodd" d="M8.66797 2.66602H9.33463C11.2768 2.66602 12.5322 2.67026 13.4572 2.79463C14.3247 2.91126 14.5966 3.09955 14.7489 3.2518C14.9011 3.40405 15.0894 3.67595 15.206 4.54342C15.3304 5.46844 15.3346 6.72386 15.3346 8.66601V9.33268C15.3346 11.2748 15.3304 12.5303 15.206 13.4553C15.0894 14.3228 14.9011 14.5946 14.7489 14.7469C14.6707 14.8251 14.5609 14.9128 14.3551 14.9954C13.9318 14.2744 13.3216 13.6563 12.5838 13.1846C11.5396 12.5169 10.2805 12.166 9.0013 12.166C7.72209 12.166 6.46298 12.5169 5.41878 13.1846C4.68104 13.6563 4.07078 14.2744 3.64747 14.9954C3.44169 14.9128 3.33195 14.8251 3.25375 14.7469C3.10151 14.5946 2.91321 14.3228 2.79658 13.4553C2.67222 12.5303 2.66797 11.2748 2.66797 9.33268V8.66602C2.66797 6.72386 2.67222 5.46844 2.79658 4.54342C2.91321 3.67594 3.10151 3.40405 3.25375 3.2518C3.406 3.09955 3.6779 2.91126 4.54538 2.79463C5.47039 2.67026 6.72581 2.66602 8.66797 2.66602ZM5.93478 15.3066C6.66448 15.3313 7.55307 15.3327 8.66797 15.3327H9.33464C10.4495 15.3327 11.3381 15.3313 12.0678 15.3066C11.9018 15.1493 11.7145 15.0026 11.5064 14.8695C10.8041 14.4205 9.92343 14.166 9.0013 14.166C8.07918 14.166 7.19846 14.4205 6.49621 14.8695C6.28814 15.0026 6.10078 15.1493 5.93478 15.3066ZM0.667969 8.66602C0.667969 4.89478 0.667969 3.00916 1.83954 1.83759C3.01111 0.666016 4.89673 0.666016 8.66797 0.666016H9.33463C13.1059 0.666016 14.9915 0.666016 16.1631 1.83759C17.3346 3.00916 17.3346 4.89478 17.3346 8.66601V9.33268C17.3346 13.1039 17.3346 14.9895 16.1631 16.1611C14.9915 17.3327 13.1059 17.3327 9.33464 17.3327H8.66797C4.89673 17.3327 3.01111 17.3327 1.83954 16.1611C0.667969 14.9895 0.667969 13.1039 0.667969 9.33268V8.66602ZM9.0013 5.83268C8.17287 5.83268 7.5013 6.50426 7.5013 7.33268C7.5013 8.16111 8.17287 8.83268 9.0013 8.83268C9.82973 8.83268 10.5013 8.16111 10.5013 7.33268C10.5013 6.50426 9.82973 5.83268 9.0013 5.83268ZM5.5013 7.33268C5.5013 5.39969 7.06831 3.83268 9.0013 3.83268C10.9343 3.83268 12.5013 5.39969 12.5013 7.33268C12.5013 9.26568 10.9343 10.8327 9.0013 10.8327C7.06831 10.8327 5.5013 9.26568 5.5013 7.33268Z" fill="#EFF0FA"/>
</svg>
