<svg width="20" height="20" viewBox="0 0 16 16" fill="none" xmlns="http://www.w3.org/2000/svg">
<path d="M2.96647 9.27247L7.60154 13.6266C7.65338 13.6753 7.6793 13.6997 7.70399 13.7177C7.87985 13.8465 8.11885 13.8465 8.29471 13.7177C8.31939 13.6997 8.34531 13.6753 8.39716 13.6266L13.0322 9.27247C14.3363 8.04739 14.4947 6.03139 13.3979 4.6177L13.1917 4.35189C11.8795 2.66071 9.24577 2.94433 8.32379 4.87609C8.19356 5.14896 7.80514 5.14896 7.6749 4.87609C6.75293 2.94433 4.11916 2.66071 2.80705 4.35189L2.60081 4.6177C1.50398 6.03139 1.66235 8.04739 2.96647 9.27247Z" stroke="#33363F"/>
</svg>
