<svg width="25" height="24" viewBox="0 0 25 24" fill="none" xmlns="http://www.w3.org/2000/svg">
<path d="M14.5 15L10.5 19L14.5 23" stroke="white" stroke-width="2"/>
<path d="M18.5622 8.5C19.1766 9.56413 19.5 10.7712 19.5 12C19.5 13.2288 19.1766 14.4359 18.5622 15.5C17.9478 16.5641 17.0641 17.4478 16 18.0622C14.9359 18.6766 13.7288 19 12.5 19" stroke="white" stroke-width="2" stroke-linecap="round"/>
<path d="M10.5 9L14.5 5L10.5 1" stroke="white" stroke-width="2"/>
<path d="M6.43782 15.5C5.82344 14.4359 5.5 13.2288 5.5 12C5.5 10.7712 5.82344 9.56413 6.43782 8.5C7.0522 7.43587 7.93587 6.5522 9 5.93782C10.0641 5.32344 11.2712 5 12.5 5" stroke="white" stroke-width="2" stroke-linecap="round"/>
</svg>
