<svg width="16" height="16" viewBox="0 0 16 16" fill="none" xmlns="http://www.w3.org/2000/svg">
<path d="M9.99935 1.33301V2.26634C9.99935 2.63967 9.99935 2.82634 9.93268 2.96634C9.86686 3.09386 9.76165 3.19673 9.63268 3.25967C9.49268 3.33301 9.30602 3.33301 8.93268 3.33301H7.06602C6.69268 3.33301 6.50602 3.33301 6.36602 3.26634C6.2385 3.20052 6.13562 3.09531 6.07268 2.96634C5.99935 2.82634 5.99935 2.63967 5.99935 2.26634V1.33301M4.79935 14.6663H11.1993C11.946 14.6663 12.3193 14.6663 12.5993 14.5197C12.8513 14.3932 13.0567 14.1902 13.186 13.9397C13.3327 13.653 13.3327 13.2797 13.3327 12.533V3.46634C13.3327 2.71967 13.3327 2.34634 13.186 2.06634C13.0596 1.81439 12.8565 1.609 12.606 1.47967C12.3193 1.33301 11.946 1.33301 11.1993 1.33301H4.79935C4.05268 1.33301 3.67935 1.33301 3.39935 1.47967C3.1474 1.60613 2.94201 1.80918 2.81268 2.05967C2.66602 2.34634 2.66602 2.71967 2.66602 3.46634V12.533C2.66602 13.2797 2.66602 13.653 2.81268 13.933C2.94602 14.1908 3.13935 14.3863 3.39268 14.5197C3.67935 14.6663 4.05268 14.6663 4.79935 14.6663Z" stroke="#33363F" stroke-width="1.5" stroke-linecap="round" stroke-linejoin="round"/>
</svg>
