<svg width="16" height="16" viewBox="0 0 16 16" fill="none" xmlns="http://www.w3.org/2000/svg">
<path d="M3 5.73333L14 11.3333M14 4.66667L3 10.2667M4 2C4.53043 2 5.03914 2.21071 5.41421 2.58579C5.78929 2.96086 6 3.46957 6 4C6 4.53043 5.78929 5.03914 5.41421 5.41421C5.03914 5.78929 4.53043 6 4 6C3.46957 6 2.96086 5.78929 2.58579 5.41421C2.21071 5.03914 2 4.53043 2 4C2 3.46957 2.21071 2.96086 2.58579 2.58579C2.96086 2.21071 3.46957 2 4 2ZM4 10C4.53043 10 5.03914 10.2107 5.41421 10.5858C5.78929 10.9609 6 11.4696 6 12C6 12.5304 5.78929 13.0391 5.41421 13.4142C5.03914 13.7893 4.53043 14 4 14C3.46957 14 2.96086 13.7893 2.58579 13.4142C2.21071 13.0391 2 12.5304 2 12C2 11.4696 2.21071 10.9609 2.58579 10.5858C2.96086 10.2107 3.46957 10 4 10Z" stroke="#33363F" stroke-width="1.5" stroke-linecap="round" stroke-linejoin="round"/>
</svg>
