<svg width="55" height="54" viewBox="0 0 55 54" fill="none" xmlns="http://www.w3.org/2000/svg">
<path d="M14 0C12.1437 0 10.625 1.51875 10.625 3.375V50.625C10.625 52.4813 12.1437 54 14 54H47.75C49.6063 54 51.125 52.4813 51.125 50.625V13.5L37.625 0H14Z" fill="#E2E5E7"/>
<path d="M41 13.5H51.125L37.625 0V10.125C37.625 11.9812 39.1437 13.5 41 13.5Z" fill="#B0B7BD"/>
<path d="M51.125 23.625L41 13.5H51.125V23.625Z" fill="#CAD1D8"/>
<path d="M44.375 43.875C44.375 44.8031 43.6156 45.5625 42.6875 45.5625H5.5625C4.63437 45.5625 3.875 44.8031 3.875 43.875V27C3.875 26.0719 4.63437 25.3125 5.5625 25.3125H42.6875C43.6156 25.3125 44.375 26.0719 44.375 27V43.875Z" fill="#50BEE8"/>
<path d="M10.2635 40.5C9.81803 40.5 9.33203 40.2553 9.33203 39.663V32.0001C9.33203 31.5141 9.81803 31.1631 10.2635 31.1631H13.3533C19.5195 31.1631 19.3828 40.5 13.4732 40.5H10.2635ZM11.114 32.8084V38.853H13.3533C16.9967 38.853 17.157 32.8084 13.3533 32.8084H11.114Z" fill="white"/>
<path d="M24.5468 40.6346C22.051 40.7426 19.459 39.0821 19.459 35.7763C19.459 32.457 22.0493 30.8252 24.5468 30.8252C26.9076 30.945 29.3764 32.5785 29.3764 35.7763C29.3764 38.9758 26.9076 40.6346 24.5468 40.6346ZM24.3983 32.5802C22.8863 32.5802 21.241 33.6467 21.241 35.778C21.241 37.8975 22.888 38.9775 24.3983 38.9775C25.9508 38.9775 27.6096 37.8975 27.6096 35.778C27.6096 33.645 25.9508 32.5802 24.3983 32.5802Z" fill="white"/>
<path d="M30.9639 35.763C30.9639 33.1592 32.5974 30.9199 35.7007 30.9199C36.8752 30.9199 37.8067 31.2709 38.7905 32.1214C39.155 32.4572 39.1955 33.0512 38.831 33.4292C38.4665 33.7515 37.913 33.7127 37.589 33.3887C37.0372 32.8082 36.4702 32.6479 35.7007 32.6479C33.6234 32.6479 32.6261 34.1194 32.6261 35.7647C32.6261 37.4387 33.6099 38.976 35.7007 38.976C36.4702 38.976 37.1857 38.6639 37.8067 38.112C38.2235 37.788 38.804 37.9484 39.047 38.274C39.263 38.571 39.3693 39.0705 38.8985 39.5414C37.9535 40.4205 36.8212 40.596 35.699 40.596C32.4354 40.596 30.9639 38.3669 30.9639 35.763Z" fill="white"/>
<path d="M42.6875 45.5625H10.625V47.25H42.6875C43.6156 47.25 44.375 46.4906 44.375 45.5625V43.875C44.375 44.8031 43.6156 45.5625 42.6875 45.5625Z" fill="#CAD1D8"/>
</svg>
