<svg width="97" height="96" viewBox="0 0 97 96" fill="none" xmlns="http://www.w3.org/2000/svg">
<path fill-rule="evenodd" clip-rule="evenodd" d="M48.5 84C68.3822 84 84.5 67.8822 84.5 48C84.5 28.1177 68.3822 12 48.5 12C28.6177 12 12.5 28.1177 12.5 48C12.5 67.8822 28.6177 84 48.5 84ZM67.5729 38.5607C68.9871 36.8636 68.7578 34.3414 67.0607 32.9271C65.3636 31.5129 62.8414 31.7422 61.4271 33.4393L44.2312 54.0744L35.3284 45.1716C33.7663 43.6095 31.2337 43.6095 29.6716 45.1716C28.1095 46.7337 28.1095 49.2663 29.6716 50.8284L40.123 61.2798L40.1949 61.3519C40.4822 61.6402 40.9405 62.1001 41.4085 62.454C42.0097 62.9086 43.1226 63.5832 44.6594 63.5135C46.1962 63.4437 47.2434 62.6712 47.801 62.1641C48.235 61.7693 48.6498 61.2697 48.9098 60.9566L48.9749 60.8783L67.5729 38.5607Z" fill="#027A48"/>
</svg>
