<svg width="16" height="16" viewBox="0 0 16 16" fill="none" xmlns="http://www.w3.org/2000/svg">
<g clip-path="url(#clip0_4763_59821)">
<path d="M3.33398 9.99967C2.71398 9.99967 2.40065 9.99967 2.15398 9.89967C1.82819 9.76437 1.56928 9.50547 1.43398 9.17967C1.33398 8.93301 1.33398 8.61967 1.33398 7.99967V3.46634C1.33398 2.71967 1.33398 2.34634 1.48065 2.06634C1.6071 1.81439 1.81016 1.609 2.06065 1.47967C2.34732 1.33301 2.72065 1.33301 3.46732 1.33301H8.00065C8.62065 1.33301 8.93398 1.33301 9.18065 1.43301C9.50645 1.56831 9.76535 1.82721 9.90065 2.15301C10.0007 2.39967 10.0007 2.71301 10.0007 3.33301M8.13398 14.6663H12.534C13.2806 14.6663 13.654 14.6663 13.934 14.5197C14.1859 14.3932 14.3913 14.1902 14.5207 13.9397C14.6673 13.653 14.6673 13.2797 14.6673 12.533V8.13301C14.6673 7.38634 14.6673 7.01301 14.5207 6.73301C14.3942 6.48106 14.1911 6.27566 13.9407 6.14634C13.654 5.99967 13.2806 5.99967 12.534 5.99967H8.13398C7.38732 5.99967 7.01398 5.99967 6.73398 6.14634C6.48203 6.27279 6.27664 6.47585 6.14732 6.72634C6.00065 7.01301 6.00065 7.38634 6.00065 8.13301V12.533C6.00065 13.2797 6.00065 13.653 6.14732 13.933C6.28065 14.1908 6.47398 14.3863 6.72732 14.5197C7.01398 14.6663 7.38732 14.6663 8.13398 14.6663Z" stroke="#33363F" stroke-width="1.5" stroke-linecap="round" stroke-linejoin="round"/>
</g>
<defs>
<clipPath id="clip0_4763_59821">
<rect width="16" height="16" fill="white"/>
</clipPath>
</defs>
</svg>
