<svg width="16" height="16" viewBox="0 0 16 16" fill="none" xmlns="http://www.w3.org/2000/svg">
<path d="M10.6667 14H10.8C11.92 14 12.48 14 12.9067 13.78C13.2816 13.5901 13.5872 13.2868 13.78 12.9133C14 12.48 14 11.92 14 10.8V5.2C14 4.08 14 3.52 13.78 3.09333C13.5901 2.71839 13.2868 2.41281 12.9133 2.22C12.4733 2 11.9133 2 10.8 2H5.2C4.08 2 3.52 2 3.09333 2.22C2.71839 2.40994 2.41281 2.71319 2.22 3.08667C2 3.52667 2 4.08667 2 5.2V5.33333M7.66667 8.33333L11.3333 4.66667M11.3333 4.66667H8M11.3333 4.66667V8M4.13333 14H5.86667C6.61333 14 6.98667 14 7.26667 13.8533C7.51862 13.7269 7.72401 13.5238 7.85333 13.2733C8 12.9867 8 12.6133 8 11.8667V10.1333C8 9.38667 8 9.01333 7.85333 8.73333C7.72688 8.48138 7.52382 8.27599 7.27333 8.14667C6.98667 8 6.61333 8 5.86667 8H4.13333C3.38667 8 3.01333 8 2.73333 8.14667C2.48138 8.27312 2.27599 8.47618 2.14667 8.72667C2 9.01333 2 9.38667 2 10.1333V11.8667C2 12.6133 2 12.9867 2.14667 13.2667C2.28 13.5244 2.47333 13.72 2.72667 13.8533C3.01333 14 3.38667 14 4.13333 14Z" stroke="#33363F" stroke-width="1.5" stroke-linecap="round" stroke-linejoin="round"/>
</svg>
