<svg width="16" height="16" viewBox="0 0 16 16" fill="none" xmlns="http://www.w3.org/2000/svg">
<path d="M8.46641 12.2403L7.53308 13.187C7.2236 13.4969 6.8561 13.7428 6.45158 13.9107C6.04705 14.0786 5.61342 14.1652 5.17544 14.1655C4.73745 14.1658 4.3037 14.0798 3.89894 13.9125C3.49417 13.7452 3.12633 13.4998 2.81641 13.1903C2.50649 12.8808 2.26056 12.5133 2.09267 12.1088C1.92477 11.7043 1.8382 11.2706 1.83789 10.8327C1.83758 10.3947 1.92354 9.96092 2.09087 9.55616C2.25819 9.1514 2.5036 8.78356 2.81308 8.47364L3.75975 7.52697M12.2397 8.47364L13.1864 7.52697C13.7936 6.8983 14.1296 6.05629 14.122 5.1823C14.1144 4.30831 13.7638 3.47227 13.1458 2.85424C12.5278 2.23621 11.6917 1.88565 10.8177 1.87806C9.94376 1.87046 9.10175 2.20644 8.47308 2.81364L7.52641 3.7603M5.66641 10.3336L10.3331 5.66697" stroke="#33363F" stroke-width="1.5" stroke-linecap="round" stroke-linejoin="round"/>
</svg>
