<svg width="55" height="54" viewBox="0 0 55 54" fill="none" xmlns="http://www.w3.org/2000/svg">
<path d="M14 0C12.1437 0 10.625 1.51875 10.625 3.375V50.625C10.625 52.4813 12.1437 54 14 54H47.75C49.6063 54 51.125 52.4813 51.125 50.625V13.5L37.625 0H14Z" fill="#E2E5E7"/>
<path d="M41 13.5H51.125L37.625 0V10.125C37.625 11.9812 39.1437 13.5 41 13.5Z" fill="#B0B7BD"/>
<path d="M51.125 23.625L41 13.5H51.125V23.625Z" fill="#CAD1D8"/>
<path d="M44.375 43.875C44.375 44.8031 43.6156 45.5625 42.6875 45.5625H5.5625C4.63437 45.5625 3.875 44.8031 3.875 43.875V27C3.875 26.0719 4.63437 25.3125 5.5625 25.3125H42.6875C43.6156 25.3125 44.375 26.0719 44.375 27V43.875Z" fill="#F15642"/>
<path d="M11.2305 31.9735C11.2305 31.528 11.5815 31.042 12.1468 31.042H15.2636C17.0186 31.042 18.5981 32.2165 18.5981 34.4676C18.5981 36.6006 17.0186 37.7886 15.2636 37.7886H13.0108V39.5706C13.0108 40.1646 12.6328 40.5004 12.1468 40.5004C11.7013 40.5004 11.2305 40.1646 11.2305 39.5706V31.9735ZM13.0108 32.7413V36.1028H15.2636C16.1681 36.1028 16.8836 35.3046 16.8836 34.4676C16.8836 33.5243 16.1681 32.7413 15.2636 32.7413H13.0108Z" fill="white"/>
<path d="M21.2411 40.5C20.7956 40.5 20.3096 40.257 20.3096 39.6647V32.0001C20.3096 31.5158 20.7956 31.1631 21.2411 31.1631H24.3309C30.497 31.1631 30.362 40.5 24.4524 40.5H21.2411ZM22.0916 32.8101V38.8547H24.3309C27.9742 38.8547 28.1362 32.8101 24.3309 32.8101H22.0916Z" fill="white"/>
<path d="M32.5483 32.9188V35.0636H35.9891C36.4751 35.0636 36.9611 35.5496 36.9611 36.0204C36.9611 36.4659 36.4751 36.8304 35.9891 36.8304H32.5483V39.6637C32.5483 40.1362 32.2125 40.499 31.74 40.499C31.146 40.499 30.7832 40.1362 30.7832 39.6637V31.9991C30.7832 31.5148 31.1477 31.1621 31.74 31.1621H36.4768C37.0708 31.1621 37.4218 31.5148 37.4218 31.9991C37.4218 32.4311 37.0708 32.9171 36.4768 32.9171H32.5483V32.9188Z" fill="white"/>
<path d="M42.6875 45.5625H10.625V47.25H42.6875C43.6156 47.25 44.375 46.4906 44.375 45.5625V43.875C44.375 44.8031 43.6156 45.5625 42.6875 45.5625Z" fill="#CAD1D8"/>
</svg>
