<svg width="20" height="20" viewBox="0 0 20 20" fill="none" xmlns="http://www.w3.org/2000/svg">
<path d="M3.33398 6.66634L2.80365 7.19667L2.27332 6.66634L2.80365 6.13601L3.33398 6.66634ZM7.50065 16.583C7.08644 16.583 6.75065 16.2472 6.75065 15.833C6.75065 15.4188 7.08644 15.083 7.50065 15.083L7.50065 16.583ZM6.97032 11.3633L2.80365 7.19667L3.86431 6.13601L8.03098 10.3027L6.97032 11.3633ZM2.80365 6.13601L6.97032 1.96934L8.03098 3.03L3.86431 7.19667L2.80365 6.13601ZM3.33398 5.91634L12.084 5.91634L12.084 7.41634L3.33398 7.41634L3.33398 5.91634ZM12.084 16.583L7.50065 16.583L7.50065 15.083L12.084 15.083L12.084 16.583ZM17.4173 11.2497C17.4173 14.1952 15.0295 16.583 12.084 16.583L12.084 15.083C14.2011 15.083 15.9173 13.3668 15.9173 11.2497L17.4173 11.2497ZM12.084 5.91634C15.0295 5.91634 17.4173 8.30415 17.4173 11.2497L15.9173 11.2497C15.9173 9.13258 14.2011 7.41634 12.084 7.41634L12.084 5.91634Z" fill="#33363F"/>
</svg>
