<svg width="16" height="16" viewBox="0 0 16 16" fill="none" xmlns="http://www.w3.org/2000/svg">
<path d="M10.8 2H5.2C4.08 2 3.52 2 3.09333 2.22C2.71839 2.40994 2.41281 2.71319 2.22 3.08667C2 3.52667 2 4.08667 2 5.2V10.8C2 11.92 2 12.48 2.22 12.9067C2.40994 13.2816 2.71319 13.5872 3.08667 13.78C3.52 14 4.08 14 5.2 14H10.8C11.92 14 12.48 14 12.9067 13.78C13.2816 13.5901 13.5872 13.2868 13.78 12.9133C14 12.48 14 11.92 14 10.8V5.2M10.8 2C11.92 2 12.48 2 12.9067 2.22C13.2816 2.40994 13.5872 2.71319 13.78 3.08667C14 3.52 14 4.08 14 5.2M10.8 2H10.1333C9.38667 2 9.01333 2 8.73333 2.14667C8.48138 2.27312 8.27599 2.47618 8.14667 2.72667C8 3.01333 8 3.38667 8 4.13333V5.86667C8 6.61333 8 6.98667 8.14667 7.26667C8.28 7.52444 8.47333 7.72 8.72667 7.85333C9.01333 8 9.38667 8 10.1333 8H11.8667C12.6133 8 12.9867 8 13.2667 7.85333C13.5186 7.72688 13.724 7.52382 13.8533 7.27333C14 6.98667 14 6.61333 14 5.86667V5.2M8.33333 7.66667L4.66667 11.3333M4.66667 11.3333H8M4.66667 11.3333V8" stroke="#33363F" stroke-width="1.5" stroke-linecap="round" stroke-linejoin="round"/>
</svg>
