<svg width="55" height="54" viewBox="0 0 55 54" fill="none" xmlns="http://www.w3.org/2000/svg">
<path d="M14 0C12.1437 0 10.625 1.51875 10.625 3.375V50.625C10.625 52.4813 12.1437 54 14 54H47.75C49.6063 54 51.125 52.4813 51.125 50.625V13.5L37.625 0H14Z" fill="#E2E5E7"/>
<path d="M41 13.5H51.125L37.625 0V10.125C37.625 11.9812 39.1437 13.5 41 13.5Z" fill="#B0B7BD"/>
<path d="M51.125 23.625L41 13.5H51.125V23.625Z" fill="#CAD1D8"/>
<path d="M44.375 43.875C44.375 44.8031 43.6156 45.5625 42.6875 45.5625H5.5625C4.63437 45.5625 3.875 44.8031 3.875 43.875V27C3.875 26.0719 4.63437 25.3125 5.5625 25.3125H42.6875C43.6156 25.3125 44.375 26.0719 44.375 27V43.875Z" fill="#576D7E"/>
<path d="M14.5044 32.8503H12.1436C10.9691 32.8503 10.9691 31.124 12.1436 31.124H18.5257C19.7272 31.124 19.7272 32.8503 18.5257 32.8503H16.2847V39.6628C16.2847 40.8356 14.5027 40.8643 14.5027 39.6628V32.8503H14.5044Z" fill="white"/>
<path d="M24.1682 34.4014L26.5172 31.4601C27.2192 30.5437 28.581 31.7166 27.8132 32.5941C27.0032 33.5526 26.1544 34.5921 25.3427 35.6552L28.0967 39.0825C28.8375 40.095 27.3542 41.067 26.6252 40.068L24.1429 36.8837L21.7011 40.1355C21.0126 41.1193 19.4871 40.014 20.2583 39.096L22.9684 35.6552C22.1196 34.5904 21.2961 33.5526 20.4726 32.5941C19.6221 31.5816 21.2016 30.5437 21.8209 31.4887L24.1682 34.4014Z" fill="white"/>
<path d="M31.9597 32.8503H29.6006C28.4261 32.8503 28.4261 31.124 29.6006 31.124H35.981C37.1825 31.124 37.1825 32.8503 35.981 32.8503H33.7417V39.6628C33.7417 40.8356 31.9597 40.8643 31.9597 39.6628V32.8503Z" fill="white"/>
<path d="M42.6875 45.5625H10.625V47.25H42.6875C43.6156 47.25 44.375 46.4906 44.375 45.5625V43.875C44.375 44.8031 43.6156 45.5625 42.6875 45.5625Z" fill="#CAD1D8"/>
</svg>
