<svg width="20" height="20" viewBox="0 0 20 20" fill="none" xmlns="http://www.w3.org/2000/svg">
<path d="M16.666 6.66634L17.1963 7.19667L17.7267 6.66634L17.1963 6.13601L16.666 6.66634ZM12.4993 16.583C12.9136 16.583 13.2493 16.2472 13.2493 15.833C13.2493 15.4188 12.9136 15.083 12.4993 15.083L12.4993 16.583ZM13.0297 11.3633L17.1963 7.19667L16.1357 6.13601L11.969 10.3027L13.0297 11.3633ZM17.1963 6.13601L13.0297 1.96934L11.969 3.03L16.1357 7.19667L17.1963 6.13601ZM16.666 5.91634L7.91601 5.91634L7.91601 7.41634L16.666 7.41634L16.666 5.91634ZM7.91602 16.583L12.4993 16.583L12.4993 15.083L7.91602 15.083L7.91602 16.583ZM2.58268 11.2497C2.58268 14.1952 4.9705 16.583 7.91602 16.583L7.91602 15.083C5.79892 15.083 4.08268 13.3668 4.08268 11.2497L2.58268 11.2497ZM7.91601 5.91634C4.97049 5.91634 2.58268 8.30415 2.58268 11.2497L4.08268 11.2497C4.08268 9.13258 5.79892 7.41634 7.91601 7.41634L7.91601 5.91634Z" fill="#33363F"/>
</svg>
