<svg width="66" height="66" viewBox="0 0 66 66" fill="none" xmlns="http://www.w3.org/2000/svg">
<rect x="0.5" y="0.5" width="65" height="65" rx="32.5" fill="#8837E9"/>
<rect x="0.5" y="0.5" width="65" height="65" rx="32.5" stroke="#EAECF0"/>
<path d="M26.3332 46.334L25.6261 47.0411L26.3332 47.7482L27.0403 47.0411L26.3332 46.334ZM29.6665 20.6673C30.2188 20.6673 30.6665 20.2196 30.6665 19.6673C30.6665 19.115 30.2188 18.6673 29.6665 18.6673L29.6665 19.6673L29.6665 20.6673ZM19.6665 39.6673L18.9594 40.3744L25.6261 47.0411L26.3332 46.334L27.0403 45.6269L20.3736 38.9602L19.6665 39.6673ZM26.3332 46.334L27.0403 47.0411L33.7069 40.3744L32.9998 39.6673L32.2927 38.9602L25.6261 45.6269L26.3332 46.334ZM26.3332 46.334L27.3332 46.334L27.3332 21.6673L26.3332 21.6673L25.3332 21.6673L25.3332 46.334L26.3332 46.334ZM28.3332 19.6673L28.3332 20.6673L29.6665 20.6673L29.6665 19.6673L29.6665 18.6673L28.3332 18.6673L28.3332 19.6673ZM26.3332 21.6673L27.3332 21.6673C27.3332 21.115 27.7809 20.6673 28.3332 20.6673L28.3332 19.6673L28.3332 18.6673C26.6763 18.6673 25.3332 20.0105 25.3332 21.6673L26.3332 21.6673Z" fill="white"/>
<path d="M39.6667 19.666L38.9596 18.9589L39.6667 18.2518L40.3738 18.9589L39.6667 19.666ZM39.6667 45.9993L38.6667 45.9993L39.6667 45.9993ZM36.3333 48.9993C35.781 48.9993 35.3333 48.5516 35.3333 47.9993C35.3333 47.4471 35.781 46.9993 36.3333 46.9993L36.3333 47.9993L36.3333 48.9993ZM33 26.3327L32.2929 25.6256L38.9596 18.9589L39.6667 19.666L40.3738 20.3731L33.7071 27.0398L33 26.3327ZM39.6667 19.666L40.3738 18.9589L47.0404 25.6256L46.3333 26.3327L45.6262 27.0398L38.9596 20.3731L39.6667 19.666ZM39.6667 19.666L40.6667 19.666L40.6667 45.9993L39.6667 45.9993L38.6667 45.9993L38.6667 19.666L39.6667 19.666ZM37.6667 47.9993L37.6667 48.9993L36.3333 48.9993L36.3333 47.9993L36.3333 46.9993L37.6667 46.9993L37.6667 47.9993ZM39.6667 45.9993L40.6667 45.9993C40.6667 47.6562 39.3235 48.9993 37.6667 48.9993L37.6667 47.9993L37.6667 46.9993C38.219 46.9993 38.6667 46.5516 38.6667 45.9993L39.6667 45.9993Z" fill="white"/>
</svg>
