<svg width="66" height="67" viewBox="0 0 66 67" fill="none" xmlns="http://www.w3.org/2000/svg">
<rect x="0.5" y="1" width="65" height="65" rx="32.5" fill="url(#paint0_linear_1_39992)"/>
<rect x="0.5" y="1" width="65" height="65" rx="32.5" stroke="#EAECF0"/>
<path d="M34.3122 18.3361L33.6449 19.0572L34.3122 18.3361C33.5659 17.6455 32.4354 17.6455 31.6891 18.3361L32.3682 19.07L31.6891 18.3361C30.4502 19.4825 27.6382 22.2265 25.1286 25.7073C22.6414 29.157 20.334 33.4892 20.334 37.7857C20.334 44.3338 26.0869 49.5 33.0007 49.5C39.9144 49.5 45.6673 44.3338 45.6673 37.7857C45.6673 33.4892 43.3599 29.157 40.8727 25.7073C38.3631 22.2265 35.5511 19.4825 34.3122 18.3361Z" stroke="white" stroke-width="2"/>
<path d="M33.0007 43.4998C32.1252 43.4998 31.2583 43.3274 30.4494 42.9924C29.6406 42.6573 28.9057 42.1663 28.2866 41.5472C27.6675 40.9282 27.1765 40.1932 26.8415 39.3844C26.5064 38.5756 26.334 37.7086 26.334 36.8332" stroke="white" stroke-width="2" stroke-linecap="round"/>
<defs>
<linearGradient id="paint0_linear_1_39992" x1="1" y1="53.66" x2="65" y2="17.82" gradientUnits="userSpaceOnUse">
<stop stop-color="#4D4BFE"/>
<stop offset="1" stop-color="#992DF2"/>
</linearGradient>
</defs>
</svg>
